<?xml version="1.0" encoding="utf-8" ?>
<svg baseProfile="full" height="300mm" version="1.1" viewBox="0,0,200,300" width="200mm" xmlns="http://www.w3.org/2000/svg" xmlns:ev="http://www.w3.org/2001/xml-events" xmlns:xlink="http://www.w3.org/1999/xlink"><defs /><rect fill="#222222" height="300" width="200" x="0" y="0" /><text fill="#FFFFFF" style="font-size:12px; font-family:Arial; font-weight:bold;" x="10" y="20">Over 10km Runs</text><text fill="#FFFFFF" style="font-size:4px; font-family:Arial" x="10" y="280">ATHLETE</text><text fill="#FFFFFF" style="font-size:9px; font-family:Arial" x="10" y="290">chending</text><text fill="#FFFFFF" style="font-size:4px; font-family:Arial" x="120" y="280">STATISTICS</text><text fill="#FFFFFF" style="font-size:3px; font-family:Arial" x="120" y="285">Number: 33</text><text fill="#FFFFFF" style="font-size:3px; font-family:Arial" x="120" y="290">Weekly: 1.1</text><text fill="#FFFFFF" style="font-size:3px; font-family:Arial" x="141" y="285">Total: 364.1 km</text><text fill="#FFFFFF" style="font-size:3px; font-family:Arial" x="141" y="290">Avg: 11.0 km</text><text fill="#FFFFFF" style="font-size:3px; font-family:Arial" x="167" y="285">Min: 10.0 km</text><text fill="#FFFFFF" style="font-size:3px; font-family:Arial" x="167" y="290">Max: 16.1 km</text><polyline fill="none" points="37.09943800361361,31.714285714289872 36.50627999496646,32.23920311524125 36.48509578034282,35.85833080089651 33.73114788264502,37.93031928794517 30.087462971918285,37.68168186824187 29.26127860264387,37.98557200355572 30.045094542670995,40.775813144937274 29.706147109158337,41.77034458918206 29.917989255161956,56.2733338772523 29.536673392402008,58.15173494454939 27.333515074220486,58.15173494454939 26.973383426084183,52.62697266397299 25.787067408673465,52.32310605606472 25.638777906424366,50.389398020735825 24.17706709925551,48.73191825332469 22.65180364821572,49.0081658900599 20.78759276366327,48.01367250927433 18.499697587103583,48.48329503524292 18.01246065145824,47.10204898267693 15.851670762524009,46.742923356592655 15.449170685024,46.218046214664355 15.089039036887698,43.53838757571066 14.09338095097337,43.787017294889665 13.542591371340677,44.58815527775732 12.335091139306314,45.195912862807745 12.462196426931769,48.34517088389839 14.347591525991447,48.48329503524292 14.347591525991447,49.69878321632859 14.728907388751395,50.08552781751496 17.800618505338207,50.25127526160213 17.86417114920914,56.3009575575561 19.664829389890656,57.18491319581517 20.978250695043243,56.16283911585924 21.931540351943113,56.190462812257465 22.24930357094854,57.18491319581517 22.079829854075797,58.98043536678597 24.007593382382765,60.96930156547751 24.17706709925551,62.3780691356078 27.058120284462348,62.51618303851865 27.41825193259865,61.77036676486023 26.973383426084183,52.62697266397299 25.74469897954259,52.29548179471749 25.74469897954259,50.49989615533559 24.664304035017267,49.118664831708884 23.96522495325189,48.64904388360446 22.778908935841173,49.0081658900599 20.829961192794144,47.986047618454904 18.563250230974518,48.45567021309398 18.01246065145824,47.04679893073626 16.084697123034857,46.82579856159282 15.385618041269481,46.190421061604866 15.067854822380468,43.566013116171234 14.09338095097337,43.759391786690685 13.584959800471552,44.56052988661395 12.35627535392996,45.168287560372846 12.504564856062643,48.26229634483752 14.453512598993257,48.566169477519 14.411144169745967,49.78165712610644 14.75009160337504,50.08552781751496 17.800618505338207,50.33414892916335 17.948908007587306,56.41145223828789 19.62246096075978,57.26778382512566 20.808776978286915,56.38382857412216 21.952724566450343,56.2733338772523 22.291672000079416,57.21253674296895 21.973908781073987,58.73182562143484 23.901672309380956,60.886432558108936 24.0711460262537,62.23995513191039 27.036936069838703,62.54380580695579 27.375883503467776,62.074218194320565 27.036936069838703,52.76509368789266 25.787067408673465,52.29548179471749 25.87180426705163,50.72089223092189 25.469304189668037,50.00265404097445 24.02877759700641,48.64904388360446 22.778908935841173,48.952916394904605 20.533382188528776,47.986047618454904 18.499697587103583,48.428045386841404 18.03364486596547,47.01917389873415 16.042328693903983,46.742923356592655 15.364433826645836,46.135170743233175 15.110223251627758,43.59363865267369 14.178117809351534,43.759391786690685 13.627328229718842,44.53290449133783 12.377459568437189,45.08541162898473 12.801143860444427,48.53854466750636 14.347591525991447,48.45567021309398 14.68653895962052,50.05790322937537 17.779434290830977,50.22365069769148 17.92772379296366,56.38382857412216 19.664829389890656,57.18491319581517 21.931540351943113,56.10759171094105 22.24930357094854,57.18491319581517 21.973908781073987,58.73182562143484 23.944040738628246,60.914055564571754 24.11351445550099,62.267577940699994 26.74035706545692,62.57142857143481 27.375883503467776,62.15708668131265 27.41825193259865,58.5108389066736 29.9391734697856,57.79263030049333 30.10864718654193,42.10185390828701 41.95062314637471,41.85322197347705" stroke="#4dd2ff" stroke-linecap="round" stroke-linejoin="round" stroke-width="0.5"><title>2025-01-29 10.1km</title></polyline><polyline fill="none" points="75.25372549216263,31.714285714289872 74.50827354635112,31.825391521822894 74.31658590317238,35.63072623053449 73.57113395747729,35.852933202899294 71.90984104992822,37.630579631979344 67.0750527161872,37.79723313251452 67.50102525670081,39.24155735145905 67.69271289987955,56.267090864799684 67.52232388372067,57.79459275555564 67.1389485973632,58.211182050727075 65.09428040334024,58.10009166125383 64.6896064899629,52.628809667148744 63.4755847499473,52.37884886120446 63.43298749579117,50.573566616963944 62.00597948546056,48.76826723209524 60.40858245885465,49.04600671472144 58.49170602718368,47.99059452247457 56.23405156296212,48.54607535393734 55.57379412534647,46.96295070598717 53.593021812383085,47.10182181665732 52.911465747863986,45.90752695078845 52.76237535860855,43.51891471329145 51.782638515695,43.74111246643588 51.16497833200265,44.62990088209335 49.97225521900691,45.157617038159515 50.24913737026509,48.46275333261292 51.99562478601001,48.296109180533676 52.400298699270934,49.99031792083406 55.50989824428689,50.156960587977665 55.63769000640605,56.40595518016198 57.277684286935255,57.155820730433334 59.59923463209998,56.07268065298558 59.91871403751429,57.10027523551253 59.72702639433555,58.79440553054155 61.75039596122224,61.07173722681182 61.81429184228182,62.293708844372304 64.83869687910192,62.488112695878954 65.07298177643679,57.73904744729225 64.6896064899629,52.712129862746224 63.518182003870606,52.37884886120446 63.4755847499473,50.60134031972848 62.73013280413579,49.57371061386948 61.89948635036126,48.71271928687929 60.42988108599093,48.99045885063242 58.576900535146706,47.96282043827523 56.12755842786282,48.46275333261292 55.658988633425906,47.0184991624119 53.42263279622421,46.740756718150806 52.86886849370785,45.85197816982691 52.78367398574483,43.54668944662262 51.761339888791554,43.713337761422736 51.3566659752978,44.46325337066082 50.22783874324523,44.796548247511964 49.90835933794733,45.35203841063776 50.20654011622537,48.40720529825194 51.97432615887374,48.351657247461844 52.31510419107508,50.01809170880006 54.97743256879039,50.01809170880006 55.44600236322731,50.3513768484554 55.59509275236633,56.378182325162925 57.213788405875675,57.155820730433334 58.555601908126846,56.267090864799684 59.641831886256114,56.183772226955625 59.91871403751429,57.32245711774158 59.62053325911984,58.62777043317328 61.62260419910308,61.01619287574431 61.81429184228182,62.37702480511507 64.28493257658556,62.54365661701013 65.11557903047651,62.182620840045274 64.73220374400262,52.65658306978003 63.4755847499473,52.26775506416743 63.49688337685075,50.65688771317946 62.879223193391226,49.71257981765666 61.85688909620512,48.65717132545251 60.36598520493135,48.90713702405628 58.534303281106986,47.93504635001591 56.1914543089224,48.40720529825194 55.680287260445766,46.99072493620042 53.52912593143992,46.79630523938977 52.84756986668799,45.685331729473546 52.76237535860855,43.51891471329145 51.782638515695,43.68556305243692 51.16497833200265,44.51880255740252 49.95095659198705,45.12984254019102 50.16394286218565,48.212787049866165 51.99562478601001,48.351657247461844 52.251208310131915,49.99031792083406 55.36080785503145,50.21250811124628 55.658988633425906,56.43372803099919 57.320281540974975,57.155820730433334 58.4278101461241,56.32263660314493 59.535338751156814,56.04490774938313 59.91871403751429,57.23913894238649 59.66313051315956,58.766633024511975 61.68650008016266,61.09950939624105 61.7716945882421,62.293708844372304 64.39142571168486,62.57142857143481 65.17947491141967,62.07153277074394 66.41479527868796,60.127481052899384 66.58518429484684,58.32227237521147 67.6075183916837,57.65572945440363 67.75660878093913,42.10239793256915 77.23449780489318,41.68577334153815 77.1706019238336,41.26914783750544 74.87035020568874,41.40802310699655" stroke="#4dd2ff" stroke-linecap="round" stroke-linejoin="round" stroke-width="0.5"><title>2025-01-27 10.1km</title></polyline><polyline fill="none" points="107.24244636064395,31.714285714289872 106.58404214598704,31.766325868826243 107.24244636064395,34.83666806902329 109.27751393301878,37.880938157832134 109.71645007608458,37.620746166896424 107.90085057530086,39.31198731288896 103.57134407316335,39.31198731288896 104.22974828770384,41.65367930910725 103.93047364475206,42.876550669403514 103.91052200191189,58.27880723014823 101.71584128646646,58.356855814214214 101.35671171487775,53.12752506377001 100.27932300011162,52.971423278489965 100.19951642863452,51.25429461107706 98.96251457091421,49.66723672798253 97.28657657012809,49.719271636902704 95.57073528354522,48.83467611775268 93.3760545682162,49.250956909381784 92.9371184251504,47.95007620519027 90.70253442402463,47.45573904637422 90.30350156663917,46.77927544763952 90.18379170948174,44.6978328749974 89.28596778050996,44.82792374842393 88.76722506596707,45.60846699369722 87.57012649392709,46.23289912690234 87.84944949403871,49.30299193991232 89.48548420914449,49.250956909381784 89.78475885221269,50.812001212572795 92.69769871071912,50.968104890402174 92.85731185367331,56.76986121562368 94.53324985434301,57.49831950823136 95.53083199786488,56.639779064120376 96.64812399831135,56.5357132745703 96.92744699853938,57.5503521294595 96.68802728399169,58.95522715615516 98.56348171352874,61.08853471255861 98.6033849993255,62.28525703359628 101.63603471510578,62.38931946417142 101.77569621510338,56.22351554101624 101.47642157203518,53.335660564596765 100.27932300011162,52.893372334568994 100.29927464295179,51.25429461107706 99.06227278523147,49.719271636902704 98.48367514205165,49.43307944970729 97.36638314148877,49.74528908562206 95.59068692638539,48.83467611775268 93.39600621105637,49.276974426582456 92.95707006799057,47.9760939124244 91.06166399561334,47.767952148395125 90.52296963823028,47.221578860640875 90.22369499516208,44.6978328749974 89.30591942335013,44.85394191168598 88.6674668516498,45.634485042930464 87.59007813676726,46.076791298837634 87.76964292256162,49.12086926653865 89.48548420914449,49.30299193991232 89.72490392357577,50.812001212572795 92.65779542492237,50.94208762027847 92.85731185367331,56.7438447928871 94.413539997302,57.49831950823136 95.6505418549059,56.639779064120376 96.62817235547118,56.50969681770948 96.88754371274263,57.60238473539357 96.60822071263101,58.98124325585377 98.56348171352874,61.062518920662114 98.6033849993255,62.25924141648284 100.99758214340545,62.57142857143481 101.67593800078612,62.20721017078904 101.77569621510338,61.21861361521587 101.47642157203518,53.335660564596765 101.25695350056048,52.945406300976174 100.23941971431486,52.893372334568994 100.33917792863213,51.28031183563871 99.00241785671096,49.61520180387015 98.42382021353114,49.43307944970729 97.3464314986486,49.74528908562206 95.59068692638539,48.80865853599971 93.3760545682162,49.250956909381784 93.0169249966275,47.9760939124244 91.06166399561334,47.68989892418904 90.44316306675319,47.06547189906996 90.18379170948174,44.67181468885974 89.20616120903287,44.87996007114998 88.56770863721613,45.68652113004646 87.55017485108692,46.154845229990315 87.76964292256162,49.22493938835396 89.42562928050756,49.250956909381784 89.7648072092561,50.78598391963169 92.55803721060511,50.94208762027847 92.85731185367331,56.7438447928871 94.413539997302,57.49831950823136 95.53083199786488,56.6657955020346 96.54836578399409,56.45766389246273 96.92744699853938,57.57636843435466 96.66807564126793,59.033275443769526 98.54353007068858,61.08853471255861 98.6033849993255,62.25924141648284 101.23700185772032,62.54541299605626 103.07255300146062,60.07391601210111 103.17231121577788,58.591001361302915 104.11003843054641,57.9145800522092 104.24969993054401,43.318863774460624 112.44982514879666,43.006642873137025" stroke="#4dd2ff" stroke-linecap="round" stroke-linejoin="round" stroke-width="0.5"><title>2025-01-23 10.1km</title></polyline><polyline fill="none" points="147.4004317407962,31.714285714289872 146.96117536630481,32.86000990231696 147.99247294128872,37.34320444484183 147.8969824250089,38.14020446460927 145.45242521015462,40.05797049208195 142.2439438656438,39.80891118802538 141.51821594242938,40.082876402448164 142.16755145264324,41.95080931206758 142.12935524608474,43.220991999987746 141.7091969747562,43.220991999987746 141.95747231703717,44.83983857155545 141.72829507803544,46.78243416675832 142.2439438656438,52.112005849034176 141.9765704202,54.30355707941635 142.33943438180722,55.997009190774406 140.98346905165818,58.71147822146304 138.61530424968805,58.761284588923445 137.8322820168687,53.85528752858227 136.74369013193063,53.631152311194455 136.76278823520988,52.03729337872937 135.54050962778274,50.34380193648394 134.0508575750282,50.66755895393726 132.29383207671344,49.646477041605976 130.19304072018713,50.14456654332753 129.67739193269517,48.67519832777907 128.01585695066024,48.57557968533365 127.4620119567262,47.92805709030654 127.30922713072505,45.61189844580076 126.3925181751838,45.83604420590564 125.93416369729675,46.558289650827646 124.86466991587076,46.98167348903371 125.26573008380365,49.9453309172095 126.90816696267575,49.9453309172095 126.96546127239708,51.14074118119606 127.27103092428297,51.33997541028657 129.92566727474332,51.43959243748395 130.07845210074447,57.01805307104951 131.7017908762209,57.71534781692026 132.75218655448407,56.96824619434483 133.68799361342099,56.81882547700661 133.80258223286364,59.383862954578944 135.46411721489858,61.10216744826175 135.75058876350522,62.4469154078688 138.17604787508026,62.54652594594518 138.55800993996672,62.09827806636167 138.19514597847592,53.656056238818564 137.22114271309692,53.43192075945262 137.06835788709577,51.81315577132045 135.80788307322655,50.21927984303329 134.37552533007693,50.31889752509596 132.56120552215725,49.497049907324254 130.6322970946785,49.84571301685355 130.0020596877439,48.57557968533365 128.20683798310347,48.500865665249876 127.59569867933169,47.52958042481623 127.48111005988903,45.48737289608107 126.67898972367402,45.68661373187206 124.96016043203417,47.1311028279888 125.32302439364139,49.920426447628415 126.83177454967517,49.895521974394796 126.8890688593965,51.06602828527684 127.23283471772447,51.364879672561074 129.96386348130181,51.4644966852502 130.09755020402372,57.06785993318772 131.62539846333675,57.7900577991968 132.713990348042,57.04295650389395 133.7452879230259,56.918439303088235 133.7834841295844,59.35895986363175 135.54050962778274,61.226681593761896 135.6932944537839,62.4469154078688 137.94687063631136,62.521623316875775 138.55800993996672,62.17298612813465 138.21424408163875,53.83038363013475 137.10655409365427,53.35720886755735 136.8964749579318,51.514305169766885 135.61690204078332,50.11966210276296 134.39462343335617,50.3687063443067 132.61849983187858,49.42233629109978 130.65139519795775,49.87061749746499 129.98296158458106,48.57557968533365 128.34052470582537,48.500865665249876 127.63389488577377,47.55448524368694 127.53840436961036,45.53718312687124 126.67898972367402,45.63680354478129 126.16334093629848,46.43376479242579 125.03655284503475,46.98167348903371 125.1893376710359,49.72119055969233 125.34212249692064,49.970235383239924 126.85087265295442,49.920426447628415 127.08004989183974,51.33997541028657 129.94476537802257,51.489400929334806 130.09755020402372,57.06785993318772 131.64449656649958,57.765154475404415 132.69489224487916,57.01805307104951 133.6497974068625,56.86863239730883 134.01266136858612,57.88967105784104 133.7452879230259,59.184638124963385 135.57870583434124,61.226681593761896 135.6932944537839,62.39711011703184 138.17604787508026,62.57142857143481 138.57710804324597,62.24769415719493 138.53891183668748,59.03521934991295 140.3723297480028,58.58696223919105 140.84978232893627,58.16360721923411 140.92617474193685,44.441354687922285 141.42272542614955,44.09268052560219 146.08266261708923,43.968153866240755" stroke="#4dd2ff" stroke-linecap="round" stroke-linejoin="round" stroke-width="0.5"><title>2024-12-04 10.0km</title></polyline><polyline fill="none" points="182.36476764502004,62.34655594549986 183.52451414696407,61.79186802199547 184.02975024684565,61.76188480538258 185.06318772380473,59.72300546273618 185.22394466464175,54.40073927760386 184.12161135586211,52.73653726226621 184.0182676081895,51.98688787226274 184.32829885126557,51.342185003981285 185.54545854631579,50.26267343106156 185.64880229404662,49.31809146160231 184.81056967383483,47.92369261580461 184.69574328750605,47.144020461324544 181.11316003411775,45.56966434531205 178.69032328261528,45.59965230720991 176.89903165586293,45.97450108902558 176.1871080606361,44.984897331829416 176.10672959021758,43.995284002347034 176.31341708556283,42.42087943111255 176.72679207636975,41.92606156176771 176.6004830513848,39.85679726774106 176.76123999222182,39.57189528254821 177.16313234443078,39.45193631454458 185.63731965544866,38.25233889786614 186.57889602333307,37.952437345731596 186.73965296411188,37.47259303356259 186.0162467302871,35.35825222401763 184.982809253328,34.39853701098764 183.52451414696407,34.608475483211805 182.12363223382272,35.10332874875894 180.67681976605672,34.698448982293485 178.01284760324052,33.01893061729788 177.3468545625219,32.26913672955561 175.64742404490244,31.714285714282596 167.2995457588695,32.19415703849518 165.5197367708315,32.68902198380238 162.90169516258175,32.64403436041175 160.84630284726154,33.15389293338376 159.78990009304835,34.05363715690328 159.28466399322497,34.84840463820001 158.97463275014888,36.31795843321743 159.57172995910514,37.12770354389795 160.06548342027236,38.732179552549496 163.60213611915242,38.312319102806214 168.48225753806764,38.342309192041284 170.158722778433,39.04707375905127 170.2965144420159,39.48192606971861 170.14724013983505,40.57654611732141 170.34244499658234,41.10135979441111 171.73184427112574,41.70114355730766 172.65045536175603,42.69077907834435 173.77575394773157,42.81073424856004 174.90105253376532,42.315918264881475 176.17562542203814,42.375896087352885 176.3248997242772,42.750756681052735 176.09524695161963,43.95030135082925 176.2100733378902,45.104849812232715 175.57852821308188,46.064464592316654 174.38433379528578,46.03447676667565 172.76528174808482,45.62964026029658 171.47922622121405,45.824561741086654 168.97601099929307,47.99866077906336 166.23166036605835,48.823306949627295 165.1637749732472,49.542992721479095 163.94661527813878,50.62251188756636 163.5562055646442,51.282212437618 163.4413791782572,52.28674828737712 163.80882361449767,53.396224182222795 164.1877506894525,53.890986581056495 165.97904231614666,54.985452478853404 166.8861707681208,55.899997196145705 168.34446587448474,56.304793067858554 169.28604224236915,56.87450306327082 170.38837555109058,59.03337531451689 171.36439983488526,60.052826934173936 174.17764629988233,59.88791633133951 176.33638236287516,60.637507839091995 177.64540316700004,60.54755714806379 178.97738924843725,59.947883853994426 180.97536837053485,60.08281065160554 181.75618779752403,60.33767189489299 181.99732320883777,60.937342904740945 181.42319127719384,61.61196859032498 181.46912183176028,62.256606756782276 180.56199337966973,62.57142857142753" stroke="#4dd2ff" stroke-linecap="round" stroke-linejoin="round" stroke-width="0.5"><title>2024-11-24 10.6km</title></polyline><polyline fill="none" points="35.75746409985004,96.36194110971701 36.24020391603699,96.85714285714494 38.27460742677795,96.13684861487127 39.286062279716134,94.29107149934862 39.46996316203149,88.76854783786257 38.412533088587224,87.16275817764108 38.24012601142749,86.44239575712709 38.584940165805165,85.69201284788869 39.75730829068925,84.70149898930686 39.91822156275157,83.75599955130019 39.05618617683649,82.27019708378066 38.952741930494085,81.53479192783561 35.332193309383,79.86885459407495 32.90700042358367,79.92888884257263 31.17143584653968,80.28909359451063 30.47031373268692,79.31353612707608 30.366869486344513,78.39800451215706 30.60823939437978,77.58752707212989 30.573757978971116,76.73201614868594 30.976041159010492,76.26673527749517 30.849609302415047,74.1654404941728 31.240398677415214,73.8352331078786 40.86071358475601,72.21419958516344 41.033120661915746,71.94402483642625 40.67681270238245,70.39801117478783 40.06764102965826,69.40734937306115 39.45846935687587,68.82195380316261 39.033198566467036,68.71688244918914 36.53904284979217,69.39233927203168 35.59655082778772,69.21221788830007 33.83799864043249,68.47671894948871 31.61969424725976,66.60042221638287 29.826660644437652,66.0 21.40170147229219,66.5253696318905 20.05692627024837,66.96067385613424 17.459326307231095,66.96067385613424 15.19504669343587,67.45601779123535 13.930728127365,68.55177010364423 13.447988311178051,69.37732916879759 13.252593623765279,70.41302112839912 14.355998917773832,73.05473868919216 18.493768770364113,72.6194603716649 22.87290853104787,72.69450848943961 24.413078420679085,73.41496762166207 24.36710320005659,74.87087997941853 24.573991692683194,75.4412317549577 25.022250093345065,75.77143396250904 25.930260699882638,75.99657122089411 26.907234137295745,77.04720521518902 28.010639431362506,77.15226802173856 29.1370323356241,76.6269529109486 30.493301342939958,76.76203419682861 30.596745589224156,77.12225008797395 30.37836329144193,78.32296057417989 30.493301342939958,79.43360523995216 29.8496482547489,80.39415307514719 28.872674817335792,80.37914458454179 26.849765111575834,79.91388028376969 25.872791674162727,80.10899137688102 25.171669560251758,80.49921244804136 23.57403064495884,82.15013129654108 22.689007648674306,82.61538543785719 20.194851931999438,83.30575865563151 18.298374082893133,84.88159313066717 17.86160948732868,85.48190464808431 17.689202410168946,86.42738815280609 18.217917446861975,87.97315984452143 19.240866104897577,88.84358412215079 20.505184670968447,89.51890820706467 21.229294395190664,90.2542560354268 22.723489064141177,90.71947336353333 23.63149967067875,91.28973688313272 24.608473108091857,93.33065399059706 25.585446545563173,94.41112305477873 28.516366857802495,94.21603920577763 30.83811549731763,95.0113787212249 31.90703937591752,94.89132786933624 33.13687652652152,94.26105858850497 35.63103224319639,94.54618088636926 36.136759669636376,94.80128963811148 36.251697721134406,95.29649893053283 35.11381101165898,96.75210026229615" stroke="#4dd2ff" stroke-linecap="round" stroke-linejoin="round" stroke-width="0.5"><title>2024-11-16 10.6km</title></polyline><polyline fill="none" points="48.142857142855064,81.60083052693335 57.56753987997945,81.63616532532797 63.33885973530414,81.30637146458139 64.08849909053242,81.3446513859617 66.09807447053026,81.30931607649654 66.90642052223848,81.368208224525 69.30662122889771,81.25042375640442 70.7336455436598,81.27398070508934 71.92810102233489,81.24158989354146 72.413560243338,81.26220223418386 72.57161673391238,81.368208224525 72.7748322217667,81.3446513859617 72.89676151449385,81.26514685256006 73.86767995651462,81.23275602681679 74.7550542535173,81.22686678017817 74.8092450502736,81.25925761538565 74.946979992048,81.22392215620857 76.26336476342112,81.25042375640442 78.38583763666975,81.22097753181515 78.93226150404371,81.22981140371485 78.99999999998545,81.26220223418386" stroke="#4dd2ff" stroke-linecap="round" stroke-linejoin="round" stroke-width="0.5"><title>2024-10-12 11.7km</title></polyline><polyline fill="none" points="111.91619751066901,66.30417201489036 111.76777512172703,70.28601512307068 111.00445997866336,70.45192343453527 109.18098491476849,72.27690526288643 105.13117401709314,71.97274284684681 104.5586876597954,72.27690526288643 105.32200280285906,75.65031019430899 105.00395482662134,76.23097219096962 105.3007996045053,90.11102874422795 105.21598681074101,92.01876572227047 104.77071964403149,92.54408122423047 102.71400939754676,92.40584044401476 102.3535550244851,87.04202021824312 101.16617591306567,86.68258353228157 101.0813631194178,84.77479277318344 99.72435842070263,83.0881791318825 98.1977281345753,83.25407622203056 96.22583068185486,82.2863411463768 93.93588525278028,82.7010853561078 93.34219569712877,81.31860112298455 91.41270464111585,81.06975288875401 90.64938949805219,79.85315681141219 90.52217030746397,77.88999665131269 89.52561998192687,78.08354855784273 88.86832083109766,78.94070462169475 87.74455131485593,79.43840636136883 87.91417690226808,82.72873493780207 89.73765196604654,82.75638451540726 90.01329354557674,84.3877024466783 93.13016371289268,84.58124770890572 93.3209924986586,90.74694320648268 94.97484197525773,91.41050384604023 96.28944027703255,90.63634954049485 97.43441299162805,90.49810736696236 97.39200659480412,93.23528361116769 99.06705926975701,95.00475022096361 99.4063104444649,96.49772480764659 102.62919660389889,96.69125768833328 102.33235182601493,87.12496704891964 102.09911664342508,86.7102325323358 101.12376951624174,86.57198749153758 101.1449727145955,84.94068838514795 99.85157761117443,83.19877720813383 99.30029445234686,82.9222818963608 98.09171214257367,83.22642671706853 96.20462748338468,82.31399078866525 93.87227565748617,82.7010853561078 93.38460209395271,81.40155046175641 91.43390783946961,81.20800194809271 90.94623427593615,80.76560460250766 90.52217030746397,79.90845680267375 90.43735751393251,77.88999665131269 89.52561998192687,78.02824803326803 87.65973852132447,79.68725674044981 87.85056730709039,82.72873493780207 89.6952455692226,82.81168365853955 89.6952455692226,84.05591010807257 90.11930953757837,84.4153517819359 93.08775731606875,84.55359839783341 93.3209924986586,90.8022400153859 94.95363877678756,91.49344876249961 96.41665946762078,90.58105268320651 97.37080339633394,90.58105268320651 97.34960019798018,93.23528361116769 98.96104327763896,94.94945463970362 99.42751364281867,96.6083150494087 102.0143038497772,96.85714285714494 102.62919660389889,96.49772480764659 102.31114862754475,87.01437126666133 101.16617591306567,86.51668944700214 101.0813631194178,84.77479277318344 99.51232643646654,83.03288006951334 98.0705089441035,83.30937521978922 95.97139230079483,82.31399078866525 93.82986926066224,82.75638451540726 93.3209924986586,81.3462509066303 91.28548545064405,81.18035214433621 90.56457670440432,80.12965660651389 90.47976391075645,77.88999665131269 89.48321358510293,78.11119881401828 88.86832083109766,78.94070462169475 87.63853532273788,79.49370647387695 87.85056730709039,82.7010853561078 89.63163597404491,82.75638451540726 90.01329354557674,84.3877024466783 93.08775731606875,84.49829976356705 93.25738290336449,90.71929479604296 94.95363877678756,91.46580046103918 96.03500189608894,90.6916463815869 97.28599060256965,90.49810736696236 97.5404289837461,91.5210970598855 97.2011778090382,92.87585868497263 98.9398400792852,94.94945463970362 99.42751364281867,96.6083150494087 102.43836781801656,96.77420029084897 104.07101409626193,94.4517936821212 104.17703008837998,92.6823219035723 105.21598681074101,91.79757981159491 105.40681559650693,76.20332166008302 104.5586876597954,72.13864967976406 106.2337403348647,72.11099855105567 112.36146467737854,66.0" stroke="#4dd2ff" stroke-linecap="round" stroke-linejoin="round" stroke-width="0.5"><title>2024-09-17 10.1km</title></polyline><polyline fill="none" points="121.0,81.59225777575557 130.03121310506685,81.60784678704294 132.5136511216042,81.43636691126812 135.1654368358868,81.31684965640125 135.65953364816232,81.35062635332906 137.635920897279,81.3220460754892 138.1638872491094,81.3688137789486 140.18809031877026,81.27268003285826 142.44738783943467,81.26488538201738 142.60278925619787,81.29346575171985 142.82194510035333,81.26488538201738 143.04110094450152,81.28307289532859 143.19052538370306,81.37141198109566 143.33795749704586,81.35842096659144 143.43956611569592,81.28047468027762 144.18469598583033,81.24929607009835 151.85714285713766,81.25968894623293" stroke="#4dd2ff" stroke-linecap="round" stroke-linejoin="round" stroke-width="0.5"><title>2024-09-14 13.3km</title></polyline><polyline fill="none" points="183.84331149875652,66.0 183.1484598069219,66.97967913687171 183.3174777859822,67.98384430989972 182.96066205226816,69.23291942270589 183.44893621420488,71.29019931892981 182.56628676771652,71.55960315000266 180.63196989579592,74.42505346846883 176.98869345744606,74.2046359521919 177.49574739462696,75.52713670274534 177.2140507629374,76.65370318690839 177.02625300828367,87.94344051057124 177.73988447559532,91.077983271025 177.34550919104367,92.84113782054919 175.7680080528371,93.06153083546087 175.18583501374815,92.81664968992118 174.9604777082568,88.16383996383229 173.89003050723113,87.6740630074346 173.90881028270815,86.2781908318284 172.57544622546993,84.73537122127891 171.20452261704486,84.66190326666401 169.3077652960783,83.92722194934322 167.35466864868067,84.22109486264526 166.84761471149977,83.04560011879948 165.13865514483768,82.92315227560175 164.61282143217977,82.33540138350509 164.29356524941977,80.00886721389543 163.59871355758514,80.13131718564546 161.87097421556246,81.67417916683189 162.13389107212424,84.31905238585023 163.7113922103308,84.36803112612688 163.73017198580783,85.44555978970311 164.12454727035947,85.81289752392331 166.7537158341147,85.88636497412517 166.922733813175,91.44530866456626 168.3687765232753,92.13098057934258 169.458003499778,91.24940188815526 170.35943272162694,91.12696003667952 170.71624845522456,92.1064923449303 170.47211137437262,93.40436383850465 172.16229116532486,95.338908359583 172.27496981807053,96.63675483137195 174.82901928003412,96.85714285714494 175.18583501374815,96.5388045048021 175.24217434006277,95.70622441808518 175.05437658540905,89.14338958420558 174.8102395045571,87.91895166449831 173.8336911809165,87.62508523315773 173.77735185448546,86.03329977809335 172.31252936890814,84.58843527977297 171.18574284168426,84.73537122127891 169.36410462239292,83.95171137842408 167.41100797511172,84.22109486264526 166.99785291508306,83.09457923096488 165.3076731240144,82.84968352680153 164.65038098301739,82.26193237712141 164.38746412668843,80.03335721536132 163.48603490472306,80.20478712575277 161.9273135419935,81.62519963968953 162.17145062296186,84.36803112612688 163.73017198580783,84.34354175778572 164.01186861749738,85.81289752392331 166.71615628316067,85.91085411711538 166.922733813175,91.44530866456626 168.3687765232753,92.08200410698191 169.42044394882396,91.27389024775766 170.39699227246456,91.17593678807316 170.69746867974754,92.15546881016053 170.49089114973322,93.4778279622551 172.2374102671165,95.46134713514766 172.3876484708162,96.6122672551137 175.2797338910168,96.63675483137195 175.2797338910168,90.78412237677549 174.9604777082568,88.26179518343997 173.89003050723113,87.62508523315773 173.6646732017398,85.9843215244764 172.33130914438516,84.56394594367885 171.0730641889386,84.73537122127891 169.51434282609262,83.97620080399793 167.42978775047231,84.31905238585023 166.86639448686037,83.0700896766648 165.10109559400007,83.04560011879948 164.48136300395709,82.01703545656346 164.38746412668843,80.05784721333475 163.5423742311541,80.2292770986387 162.97898096754216,80.98846448377299 161.9273135419935,81.45377118172473 162.19023039843887,84.36803112612688 163.73017198580783,84.36803112612688 163.80529108748306,85.54351659757958 164.12454727035947,85.81289752392331 166.79127538506873,86.05778889956127 166.8851742623374,91.44530866456626 168.42511584970634,92.13098057934258 169.777259682538,91.20042515834211 170.4345518234186,91.20042515834211 170.67868890438695,92.15546881016053 170.4533315988956,93.40436383850465 172.2186304916395,95.46134713514766 172.33130914438516,96.6122672551137 174.71634062728845,96.85714285714494 176.68821705004666,94.72671314049512 176.59431817289442,93.13499510943075 177.49574739462696,92.62074451580702 177.49574739462696,79.02926421978918 178.04036088299472,78.56395079228969 183.22357890859712,78.56395079228969 183.37381711241324,77.68230075619067 182.71652497141622,77.21698358994036 183.27991823502816,76.1883831655141 183.07334070501383,76.11491146514891" stroke="#4dd2ff" stroke-linecap="round" stroke-linejoin="round" stroke-width="0.5"><title>2024-08-08 10.1km</title></polyline><polyline fill="none" points="37.812355887843296,100.28571428571013 37.347656465135515,100.69782705679245 37.830943864770234,105.57037692562153 37.663652072660625,107.75206929291016 37.03166085772682,107.94599611504236 35.377330912975594,109.570124352118 31.696911485283636,109.37619942825404 31.343739924021065,109.59436495169939 32.01290709269233,111.87296549674647 31.752675415948033,112.96377383107028 31.715499462094158,122.97463542727928 32.03149506961927,124.96219226419635 31.77126339287497,127.2648198100942 29.707997956196778,127.36177184792177 29.317650441080332,122.4898618558218 28.27672373421956,122.19899703311967 28.1837838498177,120.5992313950992 27.01274130458478,119.16912481417239 25.581467082723975,119.26608158210001 23.852785230148584,118.44194724956469 21.901047655032016,118.75705791884684 21.473524186061695,117.59356939645659 19.726254356792197,117.47237220629177 19.205791003303602,116.91486399098358 18.926971349748783,114.56361308356281 18.220628227340057,114.66057254244515 17.570049035479315,115.46048591687577 16.51053435180802,115.96951969282236 16.7707660284359,118.82977568056958 18.276392158004455,118.70857939326379 18.35074406559579,119.99325553515519 18.685327649931423,120.23564614476345 21.3619963247329,120.35684131669404 21.436348232324235,125.786294214995 22.142691354849376,126.3195344729902 23.034914246294647,126.44072520174086 23.982901068637148,125.66510300834489 24.875123960198835,125.56814997926995 25.19111956760753,126.48920146848832 24.986651821644045,127.91924496613501 26.733921650913544,129.78555438479816 26.826861535548232,130.90048246449442 29.540706163970754,131.02166984794894 29.726585933123715,126.12562912286376 29.37341437174473,122.5625779817492 28.27672373421956,122.19899703311967 28.313899688073434,120.74466527224286 27.62614454247523,119.70238633628469 26.864037489285693,118.9752111085545 25.618643036461435,119.24184239540773 24.020077022374608,118.44194724956469 21.88245967810508,118.80553643024177 21.492112162988633,117.54509053098445 19.447434703237377,117.22997756015684 19.05708718812093,116.52703108433343 18.94555932667572,114.53937320993282 18.053336435114034,114.70905225072056 16.454770421027206,116.13919727117172 16.75217805162538,118.80553643024177 18.23921620415058,118.70857939326379 18.31356811185833,119.92053828327334 18.703915626974776,120.25988518621307 21.28764441702515,120.28412422406836 21.380584301543422,125.71357950166566 22.86762245418504,126.4649633368972 24.113016907009296,125.56814997926995 24.930887890863232,125.54391171316092 25.19111956760753,126.51343959654332 25.02382777549792,128.08891032605607 26.67815772013273,129.71284142378136 26.938389396877028,130.9974323783099 29.29906246426981,131.09438223548932 29.670822002342902,130.68234495140496 29.41059032571502,122.5625779817492 29.187534602708183,122.24747453900636 28.313899688073434,122.15051951311762 28.33248766500037,120.62347038350708 27.960728126810864,120.01749461200961 26.771097604651004,118.95097187944339 25.5442911288701,119.19336401147302 23.945725114899687,118.41770794254262 21.88245967810508,118.75705791884684 21.473524186061695,117.49661165139696 19.42884672631044,117.20573807609617 19.05708718812093,116.40583311504452 18.964147303602658,114.51513333282492 18.12768834270537,114.6120928201126 17.625812966260128,115.3635269254155 16.566298282472417,115.79984194102872 16.677826143917628,118.49042585301504 16.78935400536284,118.82977568056958 18.31356811185833,118.80553643024177 18.536623834748752,120.18716805111035 21.23188048636075,120.25988518621307 21.473524186061695,125.83477067291096 22.86762245418504,126.44072520174086 23.982901068637148,125.68934125678788 24.893711937125772,125.51967344353034 25.209707544534467,126.4649633368972 24.930887890863232,127.82229325406661 26.715333673986606,129.78555438479816 26.789685581694357,130.90048246449442 29.33623841800727,131.14285714285506 29.670822002342902,130.92471994823427 29.800937840598635,127.6041516946716 31.86420327750966,127.07091556457453 31.919967208057642,113.47281526644656 32.38466663076542,113.08497431449359 37.4963602804346,112.91529361292487" stroke="#4dd2ff" stroke-linecap="round" stroke-linejoin="round" stroke-width="0.5"><title>2024-07-03 10.1km</title></polyline><polyline fill="none" points="48.142857142855064,115.89674174033826 52.05150201457582,115.87375540232279 52.92180343754444,115.90536161016826 54.481736114641535,115.88812186673204 55.14492783189053,115.93409448232887 58.156831743748626,115.90823489927789 58.75612791349704,115.84502244201212 63.72235426122643,115.57780390065454 64.45605141020496,115.61228391646 66.32003876165982,115.58067723761815 67.22559290048957,115.63527056007479 69.17550874687004,115.5404504819926 72.16317641657952,115.51746372754678 72.59281889120757,115.53757713916093 72.71400010200159,115.62665057186678 72.89687356555805,115.63527056007479 73.0400877237771,115.5404504819926 73.84429030448518,115.51459038135908 76.77687560564664,115.50022364409051 77.2087213750201,115.5404504819926 77.51277604937059,115.4944769462436 78.48222573570092,115.4944769462436 78.99999999999272,115.54332382440589" stroke="#4dd2ff" stroke-linecap="round" stroke-linejoin="round" stroke-width="0.5"><title>2024-04-12 12.0km</title></polyline><polyline fill="none" points="84.57142857143481,115.87925505797466 88.50402761794976,115.87636089278931 91.89955614006612,115.93713827283136 92.272398487592,115.89951420241232 94.50723327306332,115.91398500718242 95.13085648529523,115.84163087762317 97.08605951011123,115.75769975626645 97.63422653295856,115.68823924898425 99.99334210093366,115.5811538230937 100.80560578661971,115.61588429491894 102.97830018082459,115.58694223929342 103.55087950025336,115.63324950799142 105.00230149597337,115.58694223929342 105.37736314318317,115.54063486234736 108.68190037811291,115.52326956808429 108.97706723657029,115.53484643262709 109.09469012000773,115.64482630826205 109.31218148939661,115.63035530687193 109.47197106691601,115.53774064769823 110.21321716258535,115.50879847791111 113.1737629459094,115.49432737715688 113.3890350156289,115.52616378485618 114.38106197600428,115.4914331557411 115.42857142856519,115.52616378485618" stroke="#4dd2ff" stroke-linecap="round" stroke-linejoin="round" stroke-width="0.5"><title>2024-04-03 11.9km</title></polyline><polyline fill="none" points="148.8437629303662,100.28571428571013 145.20940131542739,100.28571428571013 146.3501133552054,104.85227141524956 146.3235851682257,107.17011141745024 145.79302142886445,107.96578260540264 146.13788785948418,110.17981010270887 145.87260598980356,119.83134442838491 146.27052879414987,122.32199911431235 145.79302142886445,125.71201479293813 142.82186448818538,125.71201479293813 142.45046987058595,118.79356391176407 140.80572227854282,118.34385760901205 140.80572227854282,116.19909272428777 139.02833375148475,114.05430841569614 137.118304289761,114.26186903644702 134.59812652762048,113.05109618422284 131.86572326975875,113.60459311342856 130.9902930998942,111.73653579295205 129.0006790771149,111.70194199976686 128.25788984191604,111.25222223023593 127.7007979155751,110.21440411807271 127.46204423287418,107.51605574075074 126.34786038007587,107.75821646627446 125.68465570593253,108.76145112009544 124.09296448773239,109.59171106762369 124.3582463572966,113.7429671434511 126.53355768881738,113.46621900229366 127.06412142829504,115.61100863707543 130.96376491279807,115.68019507617282 131.06987766071688,123.56731663491519 133.11254805733915,124.53589240157453 135.9775922500994,123.04843513040396 136.37551505456213,124.67426004486333 136.0571768109221,127.06108916751691 138.68346732098144,129.13657319996855 138.73652369482443,130.83153833461984 142.60963899246417,131.00449327866954 142.79533630120568,122.04526099826035 142.37088530976325,118.86274942102318 140.88530683948193,118.4130432495731 140.56696859572548,115.74938149481022 138.65693913400173,113.88134109278326 137.118304289761,114.19268218307116 134.62465471460018,113.01650258316658 131.91877964360174,113.53540606790921 130.93723672581837,111.77112958091311 128.49664352473337,111.52897295885487 127.7273261025548,110.21440411807271 127.46204423287418,107.51605574075074 126.32133219309617,107.75821646627446 125.60507114499342,108.79604534272221 124.01337992679328,109.66089926530549 124.38477454439271,113.5699995932082 126.61314224975649,113.53540606790921 126.56008587579709,115.29966941135353 127.03759324131534,115.64560185912705 130.93723672581837,115.9223474534956 131.01682128664106,123.56731663491519 133.24518899223767,124.46670854956028 135.15521845396142,123.29057997398195 136.0837049979018,123.29057997398195 136.45509961550124,124.60507623339072 136.1102331848815,126.57680694280134 138.65693913400173,129.24034692413989 138.70999550784472,130.90072032737953 142.79533630120568,130.96990229995572 142.42394168360624,119.07030582755397 142.05254706612322,118.51682167260151 140.88530683948193,118.48222886997974 140.88530683948193,116.30287211759423 139.05486193858087,114.01971496127953 137.0387197288219,114.19268218307116 134.62465471460018,113.01650258316658 131.75961052195635,113.50081253766257 131.2290467824787,111.84031714167213 128.25788984191604,111.35600379137031 127.35593148495536,107.41227249687654 126.21521944517735,107.68902771285502 125.65812751883641,108.72685689249192 124.14602086157538,109.45333461189875 124.25213360961061,113.18947053779266 124.54394366615452,113.63918662849755 126.6396704367362,113.63918662849755 126.61314224975649,115.12670299808087 127.03759324131534,115.68019507617282 130.96376491279807,115.85316108516417 131.01682128664106,123.53272456993 131.73308233497664,124.18997293965367 133.27171717910096,124.43211661605164 134.730767462519,123.35976416952326 136.16328955884092,123.1868036427768 136.24287411978003,126.9573144884489 138.55082638608292,129.1711644463794 138.70999550784472,130.79694733071665 139.18750287336297,131.1082661843684 142.34435712278355,131.14285714285506 142.8749208621448,130.58940120098123 142.39741349662654,119.10489854423213 140.88530683948193,118.4130432495731 140.88530683948193,116.33746523851005 139.2936156212818,114.26186903644702 138.55082638608292,113.8121541282162 136.9856633549789,114.19268218307116 134.6777110885596,113.08568978022959 131.86572326975875,113.53540606790921 131.14946222153958,111.84031714167213 128.25788984191604,111.2176283664885 127.7007979155751,110.17981010270887 127.56815698067658,107.51605574075074 126.21521944517735,107.68902771285502 125.65812751883641,108.76145112009544 124.03990811377298,109.59171106762369 124.3582463572966,113.46621900229366 126.5866140628932,113.5699995932082 127.01106505433563,115.64560185912705 130.80459579091985,115.78397469670745 131.06987766071688,118.06711484426341" stroke="#4dd2ff" stroke-linecap="round" stroke-linejoin="round" stroke-width="0.5"><title>2023-09-29 10.1km</title></polyline><polyline fill="none" points="185.2420821445994,100.59499303718621 182.42253213666845,100.28571428571013 181.55295129294973,100.59499303718621 182.18537372467108,103.8252134713548 182.3171283977572,109.25463298274553 181.97456624743063,119.3915048931085 182.264426528709,125.23289371169813 181.73740783554967,125.81702461621899 179.2604199780617,125.81702461621899 178.70705035026185,118.94480448398099 177.28409987897612,118.46374155633384 177.1786961402977,116.33330819416733 175.33413071464747,114.03104399892618 173.3578106155619,114.23721783049405 171.01257743127644,113.17198442239896 168.16667648858856,113.68742054481118 167.66600873030256,112.03802097767766 165.16266993805766,111.62566927875741 164.21403629041743,110.62914968900441 163.97687787865289,107.60520233340503 162.7910858191317,107.77701856567 162.13231245276984,108.80791332399531 160.47220356960315,109.6669888379256 160.7357129161246,113.61869579374616 163.05459516565315,113.584333410603 163.42350825085305,115.68042959184095 167.32344657962676,115.8522399260255 167.4815521875862,123.6522969334037 169.43152135203127,124.5113182390487 171.09163023519795,123.37740945309633 172.35647509864066,123.13688264436496 172.77809005312156,124.61440058499284 172.4618788373191,126.64167754167283 174.96521762944758,129.2530594016862 175.04427043325268,130.73053893036558 178.78610315429978,131.074137490883 179.18136717414018,130.66181915803463 179.18136717414018,126.19499089931196 178.73340128490236,119.0478892691026 177.25774894433562,118.49810322656413 177.2313980096951,116.36767017563398 175.4922363224905,114.16849324006762 173.4105124847265,114.23721783049405 170.95987556199543,113.10325952072162 168.21937835786957,113.584333410603 167.56060499150772,112.00365836365381 164.66200217965525,111.21331685710174 164.13498348661233,110.18243264043122 163.92417600925546,107.60520233340503 162.68568208056968,107.77701856567 162.07961058348883,108.84227640474273 160.55125637352467,109.49517398620083 160.63030917744618,113.37815900688292 160.86746758932713,113.72178291274759 162.97554236173164,113.584333410603 163.23905170836952,115.57734333105327 167.27074471034575,115.88660197779245 167.29709564510267,123.41177040574257 169.5896269598743,124.58003980804642 171.01257743127644,123.41177040574257 172.43552790256217,123.27432656520978 172.5409316412406,127.01964249977027 174.93886669480707,129.21869930227695 174.96521762944758,130.6961790467758 175.38683258392848,130.93669812694134 178.4962428730214,131.14285714285506 179.2340690434212,130.24950010259636 178.75975221965928,119.0478892691026 177.2313980096951,118.46374155633384 177.2313980096951,116.33330819416733 176.20371155813336,114.8901004382642 175.20237604121212,113.99668167615891 173.384161550086,114.37466695117473 171.01257743127644,113.13762197407777 168.14032555394806,113.68742054481118 167.77141246886458,112.03802097767766 164.63565124489833,111.2820423108351 164.0822816170985,110.25115839543287 163.92417600925546,107.67392884142464 162.73838394973427,107.8457450233982 162.07961058348883,108.80791332399531 160.63030917744618,109.32335900882026 160.60395824280567,113.51560862941551 162.94919142709114,113.54997102255584 162.97554236173164,115.30244641497848 163.47621012013406,115.71479166878271 167.29709564510267,115.81787786920904 167.32344657962676,123.41177040574257 169.5369250905933,124.58003980804642 171.06527930055745,123.41177040574257 172.38282603328116,123.17124363213952 172.77809005312156,124.5456790260796 172.38282603328116,126.5042355881451 175.0179194987286,129.3217795855744 175.0706213680096,130.90233827337215 178.5225938076619,131.14285714285506 179.15501623949967,130.6961790467758 178.75975221965928,118.91044287894329 177.25774894433562,118.46374155633384 177.15234520565718,116.26458421607094 175.30777977989055,114.03104399892618 173.384161550086,114.27158011814754 171.06527930055745,113.17198442239896 168.272080227267,113.72178291274759 167.53425405698363,111.9349331206613 164.9518624608172,111.728757271223 164.16133442113642,110.59478686917282 163.87147414009087,108.22374018229311 164.1086325518554,110.56042404440814 164.8201077876147,111.5913066046196 167.50790312234312,111.86620785757259 168.16667648858856,113.61869579374616 170.98622649663594,113.03453459897719 173.27875781152397,114.27158011814754 175.17602510668803,113.96231934825482 175.99290408100933,114.75265161888092" stroke="#4dd2ff" stroke-linecap="round" stroke-linejoin="round" stroke-width="0.5"><title>2023-09-14 10.0km</title></polyline><polyline fill="none" points="11.714285714289872,150.21544380049454 13.85678433997964,150.205344980468 14.675063935559592,150.24910650195488 14.863500561681576,150.21207752764712 17.511938621857553,150.19861243132073 17.932694376067957,150.23227515738108 18.75871794259001,150.13801940049234 24.30856378019962,149.84515083853512 25.232677645268268,149.89564568376045 25.929635029518977,149.84851716498815 27.579100838920567,149.84515083853512 28.477401467534946,149.90911095712363 31.2445804154122,149.77109153204037 32.86565166471701,149.80475488268712 34.38346996821929,149.75762617801774 34.7603432204487,149.77445786931457 34.935873228329,149.9057446395218 35.132053825378534,149.90237832142157 35.323071775143035,149.78792321351648 36.44852888454625,149.75089349804512 42.57142857143481,149.7609925172619" stroke="#4dd2ff" stroke-linecap="round" stroke-linejoin="round" stroke-width="0.5"><title>2023-09-01 10.2km</title></polyline><polyline fill="none" points="76.27647909638472,134.57142857142026 72.0943999652518,134.6749827696476 72.94140333356336,137.9196579875279 72.54437050467823,153.59012167945912 72.83552791248076,158.5257573659037 72.75612134684343,159.59570675043506 72.25321309675928,159.90633630957745 70.13570467592217,160.04439376028313 69.57985871541314,159.66473557673453 69.15635703131557,153.03787630895386 67.64763228152879,152.55466055087163 67.64763228152879,150.55275616912695 65.8212812684942,148.17115817630838 63.88905483460985,148.37825460676686 61.374513584771194,147.23922199253866 58.62175263767131,147.75696477066958 57.6424049930647,145.8240526108566 54.99551946716383,145.51340453892772 54.46614236186724,144.58145787274407 54.3337980855722,141.6820447375503 53.116230743704364,141.85462984858896 52.37510279624257,142.95917157430085 50.86637804645579,143.684024275688 51.68691255955491,146.54889652376005 53.53973242780194,147.75696477066958 53.80442098027561,149.7588928386831 57.721811559051275,149.7934086911264 58.09237553260755,157.80095019153669 60.0775396770332,158.69833017495694 61.40098244010005,157.52483258793654 62.85676947934553,157.24871466177865 63.28027116355952,158.62930106642307 62.98911375575699,160.6311370262265 65.47718615026679,163.35774838154612 65.63599928177428,164.9798946416413 68.8387307683006,165.4285714285652 69.6592652812833,164.84184007426666 69.606327570742,156.35132917328156 69.12988817610312,152.86529936589068 67.70056999207009,152.48562964767916 67.64763228152879,150.41469317287556 67.03884861047845,149.48276583768893 65.53012386069167,147.9295454445528 63.80964826885611,148.30922248341085 61.29510701901745,147.10115706012584 58.648221493000165,147.75696477066958 57.8541558352299,145.85856903801323 55.18080145388376,145.6514703990979 54.492611217079684,144.44339138732175 54.3867357961135,141.61301065783482 53.089761888375506,141.8891468556394 50.89284690178465,143.92564134865825 51.713381414767355,146.61792916138074 53.46032586193178,147.6534163057222 53.69854555930942,149.6208293785603 57.80121812480502,150.03501951704675 57.827686979901046,157.59386201915913 59.83931997977197,158.66381562317838 61.50685786118265,157.42128840344958 62.98911375575699,157.3177441735752 63.06852032151073,160.90725100009877 65.47718615026679,163.42677610872488 65.8212812684942,165.04892189499515 69.10341932089068,165.25600353436312 69.71220299194101,164.600244387344 69.26223245251458,153.17593777262664 68.97107504447922,152.65820686788356 67.70056999207009,152.45111418845772 67.43588143948,149.86244038092264 65.53012386069167,147.9640615641547 63.968461400363594,148.34373854765727 61.45392015064135,147.17018953635124 58.67469034832902,147.72244862071238 57.98650011152495,145.96211828949163 55.074926032917574,145.37533859809628 54.413204651442356,141.61301065783482 53.14269959880039,141.85462984858896 52.32216508581769,142.9246547234943 50.91931575711351,143.5459572658874 51.21047316491604,147.72244862071238 53.380919296178035,147.72244862071238 53.857358690933324,149.72437698123395 57.721811559051275,150.1040511361498 57.90709354565479,157.6628914300527 59.94519540073816,158.62930106642307 61.48038900597021,157.4558031366032 62.93617604509927,157.21419989825517 63.30674001888838,158.69833017495694 62.88323833467439,160.52759420272196 63.571428571478464,161.70107687804557 65.50365500536282,163.32323451028788 65.71540584752802,165.01440827084298 68.81226191297174,165.32503070723033 69.71220299194101,164.70378542631806 69.28870130761061,153.2104531259247 68.91813733393792,152.55466055087163 67.75350770249497,152.52014510177833 67.48881914990488,149.82792453859292 65.55659271602053,147.9295454445528 63.86258597928099,148.37825460676686 61.50685786118265,147.13567330075603 58.648221493000165,147.72244862071238 57.827686979901046,145.78953617862135 55.10139488813002,145.3408221003483 54.57201778283343,144.27080816715898 54.413204651442356,141.64752770015912 53.036824177834205,141.9236638576549 52.48097821732517,142.85562100680545 50.86637804645579,143.85660792443377 51.898663401720114,146.79051066719694 53.48679471737705,147.72244862071238 53.75148326985072,149.72437698123395 56.61011963803321,149.55179761823092 57.7482804141473,150.06953532916668 57.827686979901046,157.5593473060726 59.9716642559506,158.5257573659037 61.48038900597021,157.4558031366032 62.909707190003246,157.21419989825517 63.30674001888838,158.59478650454548 62.98911375575699,160.87273677103803 65.47718615026679,163.35774838154612 65.55659271602053,165.04892189499515 66.16537638695445,164.9798946416413" stroke="#4dd2ff" stroke-linecap="round" stroke-linejoin="round" stroke-width="0.5"><title>2023-06-19 10.7km</title></polyline><polyline fill="none" points="115.42857142863795,143.853412334327 114.75103065068834,143.65145871433197 114.67359741893597,140.69786005519563 114.26707295211963,140.47065806730825 101.4325147876516,140.64737075040466 100.65818247001152,140.9755509680399 100.60010754619725,155.16243840343668 98.83850152348168,155.59156097988307 98.43197705689818,155.2381659943494 98.02545259008184,150.492506179653 97.01882057718467,150.1895872988971 96.9413873454323,148.5992544635228 95.76053056109231,146.98366326434189 94.09571607818361,147.03415071794007 92.2566768238321,146.17586200086225 90.28212941391394,146.5545193133148 89.81753002339974,145.31756902096095 88.19143215636723,145.06512909800222 87.43645814666525,144.50975996933994 87.16544183553196,142.1115546011133 86.27495967026334,142.28826560617017 85.6361355080735,143.17181792100018 84.76501165085938,143.3990163574781 84.59078687930014,143.80292395145807 85.11346119374502,144.71171258627146 85.1715361175593,145.62049644177023 86.52661767345853,146.63025067618582 86.68148413707968,147.99340953378123 89.6433052518405,148.2710887236026 89.75945509958547,153.82457882573362 91.38555296650156,154.58185910401517 92.43090159527492,153.74885061543318 93.47625022404827,153.64787961670663 93.418175300234,156.02068249092554 95.27657286252361,158.01482141467568 95.31528947839979,159.20119694669847 97.52213658357505,159.42837431110092 98.16096074564848,159.42837431110092 98.41261874884367,159.0497452045529 98.08352751389612,151.27504416425654 97.8899444345152,150.3158035637316 96.98010396130849,150.16434403482708 96.74780426593497,148.3720628637675 95.68309732933994,146.98366326434189 95.23785624664742,146.75646954070544 94.15379100199789,147.00890699302545 92.43090159527492,146.17586200086225 90.32084602979012,146.5292755182454 89.79817171534523,145.29232504522952 88.23014877224341,145.06512909800222 87.43645814666525,144.50975996933994 87.16544183553196,142.13679904150194 86.27495967026334,142.3387544316356 84.57142857147846,143.72719134950603 85.2102527335519,145.67098429363978 86.50725936552044,146.6050068922923 86.62340921314899,147.9176787682809 89.6433052518405,148.3215758010192 89.77881340740714,153.87506428084453 91.32747804268729,154.58185910401517 92.37282667146064,153.74885061543318 93.49560853198636,153.72360787125945 93.37945868435781,155.8692279616953 95.27657286252361,158.04006353204022 95.43143932602834,159.25168083126482 98.3545438250294,159.20119694669847 98.02545259008184,150.56823581694334 96.9413873454323,150.08861422061455 96.57357949460857,148.04389669239754 95.35400609427597,146.75646954070544 94.09571607818361,147.00890699302545 92.39218497939873,146.15061815049557 90.32084602979012,146.5545193133148 89.85624663915951,145.31756902096095 88.21079046430532,145.06512909800222 87.41709983861074,144.38353946391726 87.20415845129173,142.13679904150194 86.33303459407762,142.2377767660946 85.73292704788037,143.09608504247444 84.61014518735465,143.62621449524886 85.1715361175593,145.6457403695822 86.50725936552044,146.5545193133148 86.68148413707968,148.01865311496658 89.66266355989501,148.24584517933545 89.70138017565478,153.7740933559253 90.39827926154248,154.3546753688861 91.42426958249416,154.55661648149544 92.43090159527492,153.69836512344773 93.45689191611018,153.64787961670663 93.45689191611018,156.14689449731668 95.2959311704617,158.06530564578134 95.43143932602834,159.2264388907788 97.8899444345152,159.5293419326772 98.3545438250294,159.2264388907788 98.02545259008184,150.4420197364525 96.9607456533704,150.11385749575857 96.88331242161803,148.44779343018308 95.58630578953307,146.88268831298046 94.1344326940598,147.03415071794007 92.4696182111511,146.15061815049557 91.67592758557294,146.3020811971801 92.37282667146064,146.2011058475182 94.03764115425292,147.08463815686991 95.27657286252361,146.8322008151299 96.26384656748269,147.61475537419028 96.88331242161803,148.42254991178925 96.86395411367994,150.08861422061455 98.04481089801993,150.39153327843815 98.3351855170913,153.24399503189488" stroke="#4dd2ff" stroke-linecap="round" stroke-linejoin="round" stroke-width="0.5"><title>2023-06-02 10.0km</title></polyline><polyline fill="none" points="121.0,150.16984706561743 131.0164776700185,150.20410154209094 131.78478703676228,150.12417433689734 136.37713191255898,149.8729724206023 136.8543155078587,149.87582700596977 137.17170826619986,149.9215003152076 139.01915301127883,149.8729724206023 139.9297418903734,149.932918625831 142.16243577660498,149.8301535899809 144.76724531056243,149.8187352192963 145.2619402304481,149.83300818160387 145.39546408050228,149.9386277786416 145.59684431338974,149.92720947135786 145.71942358556407,149.8301535899809 146.7307025810951,149.79589845791088 151.85714285714494,149.81302603145377" stroke="#4dd2ff" stroke-linecap="round" stroke-linejoin="round" stroke-width="0.5"><title>2023-05-09 12.1km</title></polyline><polyline fill="none" points="188.28571428568102,143.86868429675815 187.85469387751073,143.74094068340492 187.7175510204397,140.36847554343694 185.9738775510341,140.3429263169528 185.4840816326905,140.70061514877307 181.5853061224334,140.3173770866997 173.6702040815726,140.77726266042737 173.415510204155,150.56231910125643 173.65061224484816,155.26303927796835 173.02367346931715,155.64624459268816 171.71102040808182,155.697338571219 171.33877551020123,155.39077447624004 170.96653061220422,150.48567587784783 169.90857142861933,150.10245925650815 169.94775510195177,148.64622843793768 168.69387755100615,146.93450302642304 166.9306122448761,147.01114780605712 165.2653061223682,146.14250500290655 163.11020408163313,146.5001819737663 162.79673469392583,145.35050339302688 160.8767346937675,145.01837261824403 160.1910204080632,144.37965781713137 160.03428571415134,142.10581419164373 159.21142857137602,142.23355899930175 158.56489795900416,143.05112355895108 157.60489795915782,143.35770928347483 157.44816326524597,143.84313558158465 157.93795918370597,145.50379430713656 159.34857142856345,146.5512786242034 159.4465306121856,147.98197877475468 162.52244897955097,148.31410392172984 162.5420408162754,153.93458768677374 164.1485714284936,154.70100329769775 165.28489795909263,153.8323986848991 166.2448979591718,153.70466234862397 166.57795918360353,154.59881474354188 166.34285714279395,156.1827306229534 168.24326530611143,158.17537861448363 168.28244897944387,159.32497289906314 170.71183673467021,159.68262291328574 171.3779591836501,159.17169409764756 171.04489795910195,150.71560544753447 170.8293877550168,150.25574600577238 169.92816326522734,150.0769114519353 169.8889795918949,148.59513239956868 169.14448979590088,147.52211214561248 168.30204081628472,146.73011678301555 167.04816326522268,147.03669605846517 165.36326530599035,146.14250500290655 163.20816326525528,146.5001819737663 162.75755102036055,145.2994063918013 161.03346938779578,144.9672755200154 160.28897959168535,144.43075508699985 160.05387755099218,142.08026521893044 159.11346938775387,142.25910794961965 157.44816326524597,143.74094068340492 158.11428571422584,145.78482730059477 159.40734693862032,146.5768269438413 159.48571428563446,147.95643066051707 162.52244897955097,148.31410392172984 162.56163265299983,153.8579459409957 164.1485714284936,154.64990902808495 165.3240816326579,153.90904044186755 166.32326530606952,153.78130416157364 166.6171428571688,154.70100329769775 166.40163265296724,156.2082775357121 168.223673469387,158.12428535986692 168.360816326458,159.4271586920513 171.41714285709895,159.3760658029496 171.04489795910195,150.48567587784783 169.92816326522734,150.10245925650815 169.9673469386762,148.62068042065948 169.37959183671046,147.70094931173662 168.28244897944387,146.6534718802286 167.04816326522268,146.93450302642304 165.28489795909263,146.0914082331292 163.12979591835756,146.52573030079657 162.63999999989755,145.22276086200145 161.09224489785265,144.99282407102874 160.28897959168535,144.37965781713137 159.9951020408189,141.97806929067883 159.09387755091302,142.23355899930175 157.42857142852154,143.63874572551867 158.03591836732812,145.73373042633466 159.36816326528788,146.5512786242034 159.5053061224753,147.98197877475468 162.46367346926127,148.31410392172984 162.62040816328954,153.8579459409957 164.18775510194246,154.67545616476855 166.26448979589622,153.67911507020472 166.53877551027108,154.67545616476855 166.3624489796348,156.2338244447892 168.18448979582172,158.12428535986692 168.34122448973358,159.3760658029496 170.86857142846566,159.58043726961478 171.41714285709895,159.14614761770645 171.0644897959428,150.53677136385522 169.90857142861933,150.0513636435644 169.84979591832962,148.2885558559501 168.38040816329885,146.7045684858458 167.08734693878796,146.98559954986558 165.22612244891934,146.04031144836335 163.24734693882056,146.5001819737663 162.67918367346283,145.19721234463213 160.66122448979877,144.89062984465272 160.15183673461434,144.09862256565248 160.05387755099218,142.08026521893044 159.1918367346516,142.23355899930175 158.60408163268585,143.05112355895108 157.5853061224334,143.30661170004169 157.42857142852154,143.817586862584 157.87918367341626,145.50379430713656 159.34857142856345,146.5512786242034 159.5053061224753,147.98197877475468 162.50285714282654,148.2885558559501 162.63999999989755,153.93458768677374 164.1485714284936,154.70100329769775 166.28408163262066,153.70466234862397 166.5583673468791,154.80319179207436 166.32326530606952,156.13163678620185 168.223673469387,158.14983198903792 168.32163265300915,159.35051935286901 170.71183673467021,159.63153009895177" stroke="#4dd2ff" stroke-linecap="round" stroke-linejoin="round" stroke-width="0.5"><title>2023-05-07 11.2km</title></polyline><polyline fill="none" points="11.714285714282596,184.44306024991602 13.318281245607068,184.41926026568763 17.57262084699323,184.44041580877092 18.49324533651088,184.4800823854075 18.665608952396724,184.45363801064013 20.904308151591977,184.45892688868662 26.052910748316208,184.16274733832688 26.732226175612595,184.1997700471511 28.920230193674797,184.17068078230295 29.269013039927813,184.22092584677193 31.258291947917314,184.11514660141984 33.93499751218769,184.10456864288426 34.196584646873816,184.11514660141984 34.34055896131758,184.21828137316697 34.5190059989327,184.2077034749109 34.65081346989609,184.1177910900915 35.58360480290139,184.09134618602184 42.57142857142753,184.09399067816594" stroke="#4dd2ff" stroke-linecap="round" stroke-linejoin="round" stroke-width="0.5"><title>2023-05-05 13.0km</title></polyline><polyline fill="none" points="79.0,178.1505009008979 78.54910147038754,177.92041621048702 78.33345434744842,174.64806786926056 68.55091668176465,174.77589512482518 64.37520421121735,175.2616378442035 64.31639135954902,189.55209665489383 62.39517153741326,190.0122351503669 61.98348157550208,189.62878648814512 61.669813033076935,184.79726136253157 60.5523688509129,184.5160573800531 60.53276456694584,182.7521311843011 59.19967326184269,181.19270336441696 57.63133054994978,181.32052583961922 55.92575785075314,180.4768957776687 53.78889090579469,180.86036449181847 53.416409511701204,179.65882637930918 51.554002541233785,179.37761414042325 50.887456888565794,178.68736400190392 50.65220548189245,176.41207574895816 49.82882555807009,176.56546689814422 49.35832274449058,177.28129048357368 48.378108549513854,177.6647661997995 48.16246142669115,178.1505009008979 48.691777091939,179.86334408744005 50.083681248826906,180.9370581337571 50.1620983844623,182.24084490555106 53.22036667261273,182.52205254368891 53.33799237606581,188.22280087225954 54.90633508795872,188.98970351747994 55.98457070242148,188.12054693234677 57.02359774906654,187.9671659104788 57.35687057534233,188.98970351747994 57.12161916855257,190.4979355833202 58.94481757108588,192.46628669614438 59.02323470672127,193.6932995658426 61.45416591025423,193.9489261644485 62.061898711137474,193.38654715486336 61.98348157550208,187.25138603092637 61.70902160089463,184.74613339932694 60.571973134879954,184.4138012744661 60.5131602830952,182.70100262360938 58.94481757108588,181.09044531694963 57.76856053725351,181.37165480358817 55.96496641857084,180.50246038477053 53.80849518964533,180.834799936958 53.49482664722018,179.68439110594045 51.71083681238815,179.42874367201875 50.94626974023413,178.76405859616352 50.76983118522912,176.33538012394274 49.86803412588779,176.53990171596524 49.24069704115391,177.35798569400504 48.39771283348091,177.58807112372597 48.14285714284051,178.12493595018168 48.71138137578964,179.99116753361886 50.06407696485985,180.9370581337571 50.1620983844623,182.2919736005424 52.74986385903321,182.34310228079266 53.25957524043042,182.67543833769741 53.31838809209876,188.19723739293113 54.94554365577642,188.98970351747994 56.00417498627212,188.19723739293113 57.04320203291718,188.0694199399586 57.31766200764105,189.01526688112062 57.10201488470193,190.60018813431088 58.88600471953396,192.44072383658204 59.042838990688324,193.71886224254558 61.53258304588962,193.92336352136044 62.061898711137474,193.56548612669576 61.748230168712325,184.8228253385023 60.611181702581234,184.4138012744661 60.49355599924456,182.67543833769741 59.042838990688324,181.09044531694963 57.748956253402866,181.32052583961922 55.94536213460378,180.4768957776687 53.965329460799694,180.88592904292454 53.4556180795189,179.60769691492897 51.475585405598395,179.32648459386837 50.90706117253285,178.53397471251083 50.71101833356079,176.38651054436923 49.84842984203715,176.53990171596524 49.29950989282224,177.3835507566837 48.14285714284051,177.99711114091042 48.67217280808836,180.09342622329132 50.083681248826906,180.98818720974668 50.1620983844623,182.34310228079266 53.23997095657978,182.6498740479874 53.35759665991645,188.27392781981325 54.92593937180936,189.01526688112062 56.43546923215035,188.04385643822025 57.10201488470193,188.14611042295292 56.964784897398204,190.3956829726667 58.92521328735165,192.49184955196688 59.042838990688324,193.71886224254558 61.92466872383375,193.821112911799 62.061898711137474,190.24230394458573 64.08113995275926,189.83329254586715 64.3948084951844,189.27090031202533 64.47322563070338,175.05711475829594 69.86440370301716,174.62250240697176 74.76547467778437,174.75032968116284" stroke="#4dd2ff" stroke-linecap="round" stroke-linejoin="round" stroke-width="0.5"><title>2023-04-17 10.1km</title></polyline><polyline fill="none" points="84.57142857142753,184.46950196116268 87.89870630332007,184.45227204727962 88.95127993392816,184.49247515618117 89.84530690888641,184.45514370063938 91.84035232589667,184.4982184507444 92.79383429671725,184.46663030989657 94.64794935315149,184.49247515618117 95.44288466831495,184.4091971964899 99.96366639140615,184.16510459233723 100.90173410403804,184.19669321774563 102.82411230386788,184.15361780687635 103.65868428295653,184.21105166705638 105.5612441508274,184.11628570776884 108.69033856317401,184.1047988937662 109.01183594824397,184.11341400489437 109.15496834571968,184.21679504384701 109.34874759151717,184.21392335565906 109.46545554637123,184.12490081385295 110.31103770987829,184.09044036684463 113.28819157720136,184.08182524564654 113.45554638039903,184.12202911223903 113.78144783925381,184.07895353774984 114.55216074868804,184.07321012068314 115.42857142857247,184.11628570776884" stroke="#4dd2ff" stroke-linecap="round" stroke-linejoin="round" stroke-width="0.5"><title>2023-04-14 12.0km</title></polyline><polyline fill="none" points="151.85714285704307,178.2194834685506 151.36641221365426,178.2194834685506 151.4645583422389,174.8405857817561 142.6314067611238,174.78938986116555 137.23336968373042,175.22455470939167 137.19411123229656,189.55879266388365 136.78189749177545,189.9171335901483 135.3097055614926,189.96832509116211 134.87786259537097,189.66117586039763 134.54416575783398,184.7723114588589 133.44492911663838,184.51634621442645 133.42529989092145,182.82696622423828 132.20828789530788,181.26555508375168 131.6194111231016,181.03518177045044 130.63794983644038,181.316749112244 128.6750272627687,180.44644859380787 126.7513631406473,180.80480815430928 126.22137404582463,179.52494921600737 124.47437295527197,179.37136551520962 123.82660850591492,178.75702936593734 123.5321701199282,176.37645644386066 122.72737186471932,176.50444505801715 122.13849509274587,177.34916756696475 121.15703380585182,177.60514328084537 121.19629225740209,180.95839059875289 122.90403489640448,180.8815993934113 123.17884405667428,182.39182025563787 125.61286804801784,182.3406265412341 126.12322791712359,182.62219178536907 126.26063249725848,188.25340166444948 127.79171210457571,188.9188963300985 128.93020719732158,188.04863356653368 129.89203925838228,187.86946128457203 130.20610687020235,188.99568401358556 129.9705561613664,190.35226087263436 131.8157033805037,192.5022857045842 131.87459105777089,193.60288344693254 134.426390403416,193.88443059632846 134.97600872407202,193.34693110037188 134.72082878951915,185.8473614025861 134.50490730640013,184.64432888338342 133.44492911663838,184.26038059616985 133.4645583423553,182.9805468963168 133.09160305338446,182.26383594160143 131.99236641218886,180.95839059875289 130.63794983644038,181.316749112244 128.8713195201708,180.39525431110815 126.82988004363142,180.80480815430928 126.04471101413947,179.37136551520962 124.2191930207191,179.34576821869996 123.6695747000631,178.4498604836408 123.5321701199282,176.29966323051485 121.15703380585182,177.57954572624294 121.52998909493908,179.88331066096725 122.96292257355526,180.85600231743592 123.0610687022563,182.26383594160143 126.06434023985639,182.57099813831155 126.20174481999129,188.20220966241322 127.87022900755983,188.94449222835829 128.83206106862053,188.17661365578533 129.89203925838228,187.97184546814242 129.9705561613664,190.53143061613082 131.85496183193754,192.45109494375356 132.01199563778937,193.70526428081212 134.4852780805668,193.88443059632846 134.93675027252175,193.37252635188634 134.62268266070168,184.92589042606414 134.36750272626523,184.51634621442645 133.5234460196225,184.43955656820617 133.3860414394876,182.6477886033099 131.93347873503808,181.03518177045044 130.61832061072346,181.316749112244 128.8124318427872,180.44644859380787 126.79062159208115,180.8815993934113 126.18211559439078,179.49935194190766 124.25845147215296,179.26897630657186 123.68920392578002,178.29627584054833 123.61068702291232,176.37645644386066 122.82551799342036,176.45324962356244 122.11886586691253,177.34916756696475 121.0,177.86111862082907 121.64776444924064,180.0368939130858 122.90403489640448,180.80480815430928 123.08069792797323,182.26383594160143 126.04471101413947,182.57099813831155 126.29989094869234,188.3301896394405 127.81134133040905,188.9188963300985 129.16575790615752,188.0230375374813 129.9116684840992,188.0230375374813 130.18647764448542,188.94449222835829 129.95092693553306,190.42904792806075 131.79607415478677,192.45109494375356 131.93347873503808,193.6796690779738 134.83860414393712,193.75645467544382 134.9563794983551,190.17309094600205 136.91930207191035,189.84034631044779 137.3118865864817,189.32843025283364 137.4296619410161,174.99417345372785 145.75245365314186,174.68699797510635" stroke="#4dd2ff" stroke-linecap="round" stroke-linejoin="round" stroke-width="0.5"><title>2023-04-03 10.0km</title></polyline><polyline fill="none" points="157.42857142857247,184.4508362795459 161.57941095513524,184.4537079333295 164.43545279383397,184.50252598343832 167.51169832094456,184.48816774599254 168.28241123038606,184.41350474219325 172.98816405174148,184.1636687826467 173.74126066611643,184.2038724847789 175.66363886594627,184.15505369292623 176.18331957059127,184.16941217370004 176.48499862373137,184.2182309298969 178.40957886043907,184.11772159381871 181.5122488301713,184.1033630752736 181.8535645472075,184.11484989094424 182.03413157169416,184.21248755310626 182.21249655931751,184.1981291037955 182.33360858794185,184.11772159381871 183.30911092760653,184.0861328391784 185.50233966418455,184.10623477981608 186.09468758600997,184.07177429756666 186.1937792457975,184.10910648394747 187.29259565096436,184.06890258798921 187.36085879438178,184.1004913703091 188.09193503990537,184.08900454624745 188.2857142857174,184.12920840108927" stroke="#4dd2ff" stroke-linecap="round" stroke-linejoin="round" stroke-width="0.5"><title>2023-03-31 11.9km</title></polyline><polyline fill="none" points="11.714285714282596,217.91380127570665 11.81990057859366,217.9505296424304 19.79382283432642,217.97348482803045 20.46975796593324,217.9092102238301 24.189161437534494,217.71408927906486 24.73483823648712,217.74163591227898 26.5179691956655,217.71638483368042 26.97915410317364,217.7531136618627 28.510569635727734,217.67965591964094 30.892184826014272,217.66588255473926 31.265357346586825,217.68195147928054 31.374492706381716,217.75081811262044 31.485388313914882,217.7600003075886 31.636769619428378,217.67506479934855 32.58378290278051,217.65440474143543 41.087539727814146,217.64981361376158 41.22659929915244,217.68424703859182 41.223078803683165,218.10203324767554 41.16851112378936,218.2259896563537 41.189634096641385,218.48078587002874 41.26532474940905,218.55194443489472 41.40614456849289,218.56342159259657 41.4466302664805,218.68048812236157 41.63321652676677,218.63917062320343 41.79339907097892,218.71721469706154 41.88317170563823,218.69196518617628 41.951821367452794,218.71951010513385 42.05215548854903,218.85493858773953 42.05215548854903,218.99266127136616 42.15601010512182,219.0293871164804 42.198256050847704,219.4930435290953 42.393643549825356,219.46090936743894 42.39716404530918,218.88477860495823 42.42884850460541,218.86182475058558 42.571428571420256,218.8801878367658" stroke="#4dd2ff" stroke-linecap="round" stroke-linejoin="round" stroke-width="0.5"><title>2023-03-15 16.1km</title></polyline><polyline fill="none" points="79.0,212.32734328648075 77.9848363926867,212.37729895878874 77.9848363926867,209.829541061481 77.58260175574105,209.1301498995017 64.21308858739212,209.57975883201289 63.9257781325141,210.95355657828622 64.21308858739212,216.9981355345808 63.75339185958728,219.79555429297034 64.02154828398488,223.66690654757258 63.619313647272065,224.04154888867924 62.04868316045031,224.21638170025835 61.72306464496069,223.89169205076178 61.41660015960224,219.07122704097128 60.30566640070174,218.77150452193746 60.30566640070174,217.22292980444035 59.00319233851042,215.57443162951677 57.432561851572245,215.72429575670685 55.72785315243527,214.8251090233971 53.67837190744467,215.2247481552913 53.18036711891182,213.92591756135516 51.20750199514441,213.6511636715295 50.786113328067586,212.87685487921408 50.65203511575237,210.87862244031567 49.82841181161348,210.9785346169083 49.31125299283303,211.80280784600473 48.35355147649534,212.10254258044006 48.35355147649534,215.2747029811435 49.90502793295309,215.14981588925002 50.28810853953473,216.7233865812741 52.931364724761806,216.82329534267774 53.14205905830022,217.09804413550592 53.161213088664226,222.39311644829286 54.77015163609758,223.1673821493605 55.84277733438648,222.31818732336978 56.83878691145219,222.1433525710163 56.972865123767406,224.8158071259677 58.67757382290438,226.53914352053835 58.77334397449158,227.71300039616472 61.07182761374861,228.0127072433679 61.703910614480264,227.68802480188606 61.703910614480264,221.66880019925884 61.39744612923823,219.07122704097128 60.267358339973725,218.72155071774614 60.28651237033773,217.2479069272813 59.82681564253289,216.4985916547448 58.73503591376357,215.4495447565132 57.50917797291186,215.7492730984377 55.65123703121208,214.87506396591198 53.67837190744467,215.2747029811435 53.35275339183863,214.07578313341946 51.55227454111446,213.8509847261157 50.86272944929078,213.2265431551059 50.709497206727974,210.92857853592432 49.694333599414676,211.02849068331125 49.25379090185743,211.82778576062992 48.181165203568526,212.32734328648075 48.67916999198496,214.35053634100768 50.039106145268306,215.17479331487266 50.268954509170726,216.7233865812741 53.084596967324615,216.84827252381365 53.199521149275824,222.44306917997892 54.78930566646159,223.09245336378808 55.919393455726095,222.29321094116312 56.87709497206379,222.2182817725261 57.126097366330214,223.1424058910925 56.81963288108818,224.54107073335035 58.639265762176365,226.4891919853835 58.77334397449158,227.71300039616472 61.129289704724215,227.96275613858597 61.703910614480264,227.68802480188606 61.703910614480264,221.3690822332137 61.37829209899064,219.07122704097128 60.28651237033773,218.84643520091777 60.30566640070174,217.29786116203468 58.88826815644279,215.54945426226186 57.56664006388746,215.77425043657422 55.65123703121208,214.87506396591198 53.774142059031874,215.29968038860534 53.314445331227034,214.00085036383825 51.28411811660044,213.80102948441345 50.72865123709198,212.80192158422142 50.67118914599996,210.95355657828622 49.79010375100188,211.00351265196514 49.25379090185743,211.82778576062992 48.14285714284051,212.35232112449012 48.698324022465385,214.42546895742998 50.09656823624391,215.29968038860534 50.15403032733593,216.62347776153183 53.10375099768862,216.87324970144255 53.25698324025143,222.4930218970403 54.80845969670918,223.1673821493605 55.919393455726095,222.29321094116312 56.896249002427794,222.2432581657631 56.896249002427794,224.69092700222973 58.639265762176365,226.53914352053835 58.830806065467186,227.78792715717282 61.68475658411626,227.83787831298832 61.78052673593629,224.4411664812069 63.9832402234897,223.66690654757258 64.11731843580492,209.70464999233081 65.38148443738464,209.3549545135611 71.07023144455161,209.32997623772826" stroke="#4dd2ff" stroke-linecap="round" stroke-linejoin="round" stroke-width="0.5"><title>2023-03-06 10.0km</title></polyline><polyline fill="none" points="84.64626578214666,218.64175565314326 84.57142857142753,218.65036696889 84.58023294916347,218.71064607339395 84.72110299287306,218.7565728860336 91.20992938156269,218.74509119293725 92.07055730488355,218.7881475074537 94.23643422702298,218.7479616168439 94.6722509247702,218.7852770894242 95.27975298828824,218.70490521426473 100.32025924001209,218.44369434941655 100.89474488703854,218.4896217860587 102.92635504876671,218.45230575196183 103.65491730611393,218.50110362844498 104.95356302161963,218.47239900989553 105.61609244596184,218.40924870147865 108.61178196937544,218.38915537896173 109.0079789673182,218.4063782280955 109.20607746629685,218.5039740879929 109.35134969888168,218.4896217860587 109.46140442053002,218.40350775428487 110.31763015499018,218.37193251472854 112.45929503835941,218.3690620358957 112.7806548255976,218.39776680541218 112.9281281526055,218.36619155663175 114.977347069791,218.3547096354032 115.42857142856519,218.38915537896173" stroke="#4dd2ff" stroke-linecap="round" stroke-linejoin="round" stroke-width="0.5"><title>2023-03-03 12.1km</title></polyline><polyline fill="none" points="151.8571428571595,212.26179573220725 151.8373117883457,208.9515943958104 142.95299302239437,208.84814960665244 137.73742196103558,209.210206104166 137.36063165625092,209.77915053283505 137.61843554896768,217.8217602452496 137.22181417548563,219.7095224409859 137.63826661766507,220.84734198715887 137.5787734115729,223.95044903695816 135.71465295611415,224.3124746499525 135.0998898273101,224.00216702702164 134.72309952252544,219.0113113718253 133.55306647077668,218.72685422089125 133.5332354020793,217.04596172609308 132.48218876228202,215.57193517337146 131.8277634960832,215.31333275834913 130.75688578770496,215.67537603371602 128.7737789201783,214.7444061155402 126.73117884679232,215.15817112807417 126.3147264047293,213.81343130164896 124.33161953720264,213.29622095623927 123.79618068295531,212.41695990110748 123.6970253395848,210.58084185126063 122.74513404327445,210.7618684207264 122.2295262577245,211.58941609517206 121.23797282401938,211.8480239500641 121.01983106858097,212.33937783364672 121.57510099152569,214.1754776443413 123.0227690046886,215.05472996551543 123.10209327936172,216.60634105608915 125.3826661768835,216.47704065128346 126.13624678656925,216.73564136651112 126.23540212993976,222.55405759523273 126.9691516708117,223.1229591416777 127.92104296723846,223.25225469279394 128.97208960691933,222.45062075398164 130.08262945269234,222.29546537881834 130.042967315414,224.90722940709384 131.9269188393373,226.82077463595488 132.00624311412685,228.11369889353227 132.56151303695515,228.24299080004857 134.70326845382806,228.24299080004857 135.06022769003175,227.95854848118324 134.70326845382806,219.0371710902109 133.59272860805504,218.72685422089125 133.5332354020793,217.07182173144247 132.24421593826264,215.49435448856093 130.6973925816128,215.64951582426147 128.81344105745666,214.7444061155402 126.81050312146544,215.18403140921146 126.33455747331027,213.8910127231211 124.45060594927054,213.52896579868684 123.83584282023367,212.856590974523 123.63753213360906,210.60670280113118 122.74513404327445,210.7618684207264 122.13037091435399,211.66699849131692 121.0,212.2100743123301 121.51560778543353,214.1754776443413 122.9236136614345,215.13231084308063 123.18141755403485,216.6839212536579 124.8273962540552,216.47704065128346 126.09658464929089,216.76150141716062 126.23540212993976,222.60577599317185 127.92104296723846,223.25225469279394 128.93242746964097,222.52819839060248 130.042967315414,222.29546537881834 130.30077120813075,223.4074092294759 130.06279838411137,224.9330882642971 131.90708777075633,226.87249178755155 132.02607418282423,228.08784050094255 134.84208593459334,228.21713242634723 134.96107234666124,222.47647996993328 134.6636063165497,219.06303080478392 133.5332354020793,218.77857373692677 133.5134043333819,217.14940172506613 132.065736320219,215.41677376974258 130.65773044433445,215.67537603371602 128.97208960691933,214.7444061155402 126.83033419027925,215.20989168653614 126.2948953359155,213.8910127231211 124.21263312513474,213.63240785265225 123.63753213360906,212.5721239340637 123.65736320219003,210.65842468947812 122.7847961805528,210.73600749358593 122.15020198305137,211.6152768976608 121.0991553432541,211.9256062329223 121.0,212.52040260477224 121.6742563348962,214.38236093636078 123.00293793599121,215.18403140921146 123.0227690046886,216.60634105608915 126.13624678656925,216.9166616423172 126.25523319863714,222.55405759523273 127.88138082984369,223.35569106569164 128.87293426366523,222.50233918215963 129.98347410943825,222.26960613642586 130.28094013954978,223.35569106569164 130.10246052150615,225.01066481310409 131.90708777075633,226.87249178755155 132.00624311412685,228.11369889353227 134.52478883578442,228.29470753620262 135.04039662133437,227.98440689274867 135.04039662133437,224.6486406277836 137.34080058755353,223.92459003631666 137.43995593092404,209.3136506817973 143.36944546445739,208.8740108095517 148.4660301138647,208.9515943958104" stroke="#4dd2ff" stroke-linecap="round" stroke-linejoin="round" stroke-width="0.5"><title>2023-03-01 10.1km</title></polyline><polyline fill="none" points="188.28571428568102,212.3850467698794 187.54685390216764,212.3089800903108 187.39130434778053,209.24092956102686 178.44720496889204,209.0634373750654 173.72238725353964,209.4437775512779 173.39184445037972,209.97625239782792 173.29462597880047,213.8556626886275 173.66405617061537,222.93263687861327 173.2557385902619,224.04820989207656 171.56413718604017,224.27639439796621 171.1558196055703,223.84537896836991 170.88360788545106,219.20555686797888 169.7364299215842,218.77452884711965 169.69754253304563,217.1518255216797 168.3559276262531,215.50375192944193 166.99486902507488,215.68123752965766 165.06994328915607,214.79380771350407 163.0672427760437,215.22484561949386 162.6005941128824,213.90637336022337 160.32568187941797,213.4499767832167 159.97569538198877,212.68931315466762 159.97569538198877,210.76228370942408 159.10072913835756,210.9651299216639 158.5174183093477,211.7765124001453 157.58412098290864,212.0807798517344 157.4480151226744,212.61324660848186 158.07021334045567,214.3627687371918 159.37294085870963,215.27555589099939 159.45071563578676,216.61937268766633 162.44504455826245,216.89827675680863 162.48393194691744,222.50161811246653 164.05887118540704,223.1861768294184 165.26438023219816,222.34949358648737 166.2365649472922,222.32413948587782 166.48933297314215,223.31294666595932 166.2365649472922,224.6313474776107 168.1420469888253,226.7864041664143 168.20037807174958,227.92730569992273 170.66972724813968,228.10477859787352 171.27248177141882,227.77518592866545 170.90305157972034,219.2309114242089 169.7558736158535,218.74917422432918 169.34755603561644,216.64472762146033 168.25870915455744,215.50375192944193 166.97542533068918,215.75730273140653 165.10883067769464,214.86987330412376 163.14501755323727,215.2502007571311 162.65892519569024,213.98243933969934 160.55900621111505,213.7035305852187 160.01458277064376,212.6639576429152 159.97569538198877,210.86370684520807 159.13961652701255,210.9904856816138 158.67296786385123,211.72580110641138 157.68133945437148,212.0300686468545 157.42857142852154,212.53718002898677 158.12854442326352,214.51490026280226 159.33405347005464,215.27555589099939 159.47015933017246,216.64472762146033 162.46448825264815,216.94898653947166 162.6005941128824,222.6030343889579 164.25330812844913,223.1861768294184 165.22549284354318,222.4002017766179 166.2171212529065,222.22272304636135 166.50877666752785,223.3636545745976 166.2171212529065,224.52993238612544 168.10315960017033,226.68499033385888 168.1809343774803,227.85124583098514 170.6502835538704,228.13013185421005 171.21415068849456,227.57235935970675 170.9419389682589,219.28162052533298 170.72805833106395,218.92665650612616 169.7558736158535,218.74917422432918 169.71698622731492,217.1264706618822 168.58925195783377,215.70659260055982 168.0059411287075,215.40233150489803 166.9365379420342,215.731947667824 165.26438023219816,214.81916291404923 163.12557385896798,215.22484561949386 162.62003780703526,213.95708401687443 160.53956251684576,213.65281985446927 160.07291385356802,212.68931315466762 159.97569538198877,210.81299528473755 159.13961652701255,210.9904856816138 158.61463678081054,211.80186804143887 157.5063462057151,212.23291337746195 157.91466378595214,214.13457119872328 159.37294085870963,215.22484561949386 159.50904671871103,216.67008255170367 162.48393194691744,216.9236316500028 162.65892519569024,222.6030343889579 164.136645962717,223.1861768294184 165.32271131512243,222.37484768335707 166.2560086415615,222.22272304636135 166.50877666752785,223.31294666595932 166.27545233583078,224.68205500124895 168.1614906830946,226.73569725755078 168.25870915455744,227.87659912431263 170.7863894138718,228.13013185421005 171.25303807703312,227.80053923316882 171.29192546580452,224.5045786039991 173.35295706184115,224.02285603959172 173.5862813934218,223.64254780761257 173.54739400476683,211.1933316271461 173.80016203061678,209.41842156543862 187.08020523900632,209.01272528865957" stroke="#4dd2ff" stroke-linecap="round" stroke-linejoin="round" stroke-width="0.5"><title>2023-02-22 10.2km</title></polyline><polyline fill="none" points="11.714285714289872,253.0448920415438 13.70104421240103,253.0323755638965 16.59000222173927,253.08869965570557 19.692512774956413,253.05427939497895 19.949255720959627,253.08244143060438 20.77707176184049,252.98856783453084 25.967118418135215,252.71946124554233 26.72774938904331,252.77265700218595 27.15725394357287,252.72884874161355 28.860875361046055,252.71946124554233 29.74147967119643,252.78517363161154 32.63523661410727,252.65687783328212 35.233859142434085,252.66000700824225 35.60337702734978,252.67565287616344 35.73534770052356,252.78830278782698 35.93690291047096,252.7789153178128 36.0976671850658,252.67252370349524 37.22301710731699,252.63497359579014 39.69446789602807,252.6662653567837 39.896023105990025,252.62871523811373 42.03634747835167,252.62558605858067 42.57142857143481,252.6850403914359" stroke="#4dd2ff" stroke-linecap="round" stroke-linejoin="round" stroke-width="0.5"><title>2023-02-17 11.0km</title></polyline><polyline fill="none" points="48.142857142855064,252.92189728429912 48.55699025706417,252.92465274063397 48.59290996594791,253.0431369822836 49.07676957389049,253.00456079928335 54.215400868641154,253.0210934587958 54.82181007160398,253.05966960799196 55.85925578118622,253.01558257390207 56.0536447939885,253.04589242090515 57.39112571898295,253.04589242090515 62.79387252024753,252.73176982490804 63.51015377391741,252.7703465658542 65.49418945884827,252.73176982490804 66.31400399107224,252.77861300008226 68.57483272684476,252.6739045655395 69.73271510740597,252.6987039841497 70.87580701959814,252.6711490725702 71.27937551355717,252.69594849480745 71.40403803262598,252.7896349067414 71.57307195679459,252.78136847734822 71.72942833665002,252.67941555027028 72.4626129827302,252.65461610629427 79.0,252.6739045655395" stroke="#4dd2ff" stroke-linecap="round" stroke-linejoin="round" stroke-width="0.5"><title>2023-02-03 12.5km</title></polyline><polyline fill="none" points="115.42857142863795,246.70845537136483 114.65714285720605,246.58270769687078 114.31000000005588,243.36353595668334 100.65571428567637,243.64018589233456 100.40500000002794,244.21863432131067 100.75214285717811,250.7826303300535 100.38571428565774,254.42918664532772 100.73285714292433,256.164417357606 100.46285714278929,257.94992635655217 100.13500000012573,258.30199636809994 98.39928571425844,258.37743984826375 98.10999999998603,258.050517861906 97.74357142858207,253.24720788579725 96.66357142862398,252.97057338729792 96.64428571425378,251.36105476148077 95.37142857140861,249.82696831595968 93.88642857142258,249.92756456723146 92.1699999999255,249.04734537549666 90.06785714288708,249.4748809735902 89.62428571435157,248.24256960485945 87.50285714282654,247.7647322111152 87.1171428571688,247.0605483713298 86.94357142865192,244.9982791284856 86.15285714284983,245.17432746729173 85.59357142855879,246.05456646093808 84.6678571428638,246.2306137195701 84.57142857147846,246.73360489519837 85.20785714278463,248.59465946737328 86.51928571425378,249.3742844577646 86.59642857138533,250.7826303300535 89.52785714296624,251.05926834406273 89.7207142857369,256.6673795122915 91.32142857147846,257.39667202685087 92.40142857143655,256.5416391113831 93.46214285714086,256.51649102012743 93.34642857138533,258.80495227855863 95.2557142857695,260.7916137616121 95.33285714290105,262.04898260210757 97.57000000006519,262.27530801834655 98.18714285711758,261.8980988261028 97.8592857143376,253.3478021386254 96.66357142862398,252.89512753783492 96.68285714287776,251.48679894594534 96.10428571433295,250.5562898060889 95.21714285714552,249.6509247347567 93.98285714280792,249.9527136209217 92.18928571429569,249.04734537549666 90.16428571427241,249.4748809735902 89.54714285710361,248.14197236899054 87.79214285709895,248.04137507437554 87.17499999993015,247.08569784376596 87.02071428578347,244.9982791284856 86.22999999998137,245.17432746729173 85.82499999995343,245.9036686674226 84.80285714287311,246.2306137195701 84.57142857147846,246.70845537136483 85.22714285715483,248.6449579604232 86.51928571425378,249.50003009330248 86.61571428575553,250.83292818375048 89.50857142859604,250.93352384732862 89.73999999999069,256.7176756469562 91.30214285710827,257.42181998952583 92.55571428581607,256.46619482676033 93.4042857142631,256.4158986186376 93.32714285713155,258.83010003551317 95.23642857151572,260.8167612284451 95.29428571439348,262.02383531531086 97.33857142855413,262.350749757592 98.07142857136205,262.09927716481616 98.20642857148778,261.7220675869321 98.14857142861001,255.7117501621251 97.80142857145984,253.19691073722788 96.7985714286333,253.02087060184567 96.50928571424447,251.03411945204425 95.33285714290105,249.7263720058836 94.0021428570617,250.00301171712636 92.18928571429569,249.07249455773854 90.12571428576484,249.525179209435 89.73999999999069,248.24256960485945 88.00428571423981,247.99107640500006 87.29071428568568,247.33719236611796 87.04000000003725,245.04857867225655 84.6678571428638,246.45695993046684 85.22714285715483,248.59465946737328 86.55785714287776,249.525179209435 86.63500000000931,250.83292818375048 89.46999999997206,251.00897055631503 89.73999999999069,256.767971766938 91.30214285710827,257.39667202685087 92.53642857144587,256.46619482676033 93.4042857142631,256.4158986186376 93.61642857140396,257.4721159038163 93.32714285713155,258.754656753561 95.21714285714552,260.8167612284451 95.27500000002328,261.9986880248325 97.82071428571362,262.1998662459664 98.28357142861933,261.8226568885002 98.22571428574156,258.7043612139969 100.11571428575553,258.2517006962007 100.55928571429104,257.57270768821763 100.71357142855413,243.6653358644253 114.40642857144121,243.4138359780627" stroke="#4dd2ff" stroke-linecap="round" stroke-linejoin="round" stroke-width="0.5"><title>2023-01-30 10.2km</title></polyline></svg>