<?xml version="1.0" encoding="utf-8" ?>
<svg baseProfile="full" height="300mm" version="1.1" viewBox="0,0,200,300" width="200mm" xmlns="http://www.w3.org/2000/svg" xmlns:ev="http://www.w3.org/2001/xml-events" xmlns:xlink="http://www.w3.org/1999/xlink"><defs /><rect fill="#222222" height="300" width="200" x="0" y="0" /><text fill="#FFFFFF" style="font-size:12px; font-family:Arial; font-weight:bold;" x="10" y="20">Over 10km Runs</text><text fill="#FFFFFF" style="font-size:4px; font-family:Arial" x="10" y="280">ATHLETE</text><text fill="#FFFFFF" style="font-size:9px; font-family:Arial" x="10" y="290">chending</text><text fill="#FFFFFF" style="font-size:4px; font-family:Arial" x="120" y="280">STATISTICS</text><text fill="#FFFFFF" style="font-size:3px; font-family:Arial" x="120" y="285">Number: 12</text><text fill="#FFFFFF" style="font-size:3px; font-family:Arial" x="120" y="290">Weekly: 1.2</text><text fill="#FFFFFF" style="font-size:3px; font-family:Arial" x="141" y="285">Total: 136.1 km</text><text fill="#FFFFFF" style="font-size:3px; font-family:Arial" x="141" y="290">Avg: 11.3 km</text><text fill="#FFFFFF" style="font-size:3px; font-family:Arial" x="167" y="285">Min: 10.0 km</text><text fill="#FFFFFF" style="font-size:3px; font-family:Arial" x="167" y="290">Max: 16.1 km</text><polyline fill="none" points="67.0,49.26337657653494 66.21092757314909,48.86072836833773 65.83354510797653,43.13411877118051 48.714104193029925,43.35781646842952 41.40660736965947,44.20786622734158 41.30368487932719,69.2161691460351 37.94155019056052,70.0214115131239 37.22109275718685,69.35037635423942 36.67217280797195,60.89520738439751 34.71664548921399,60.403100415103836 34.68233799224254,57.31622957251966 32.34942820831202,54.58723088770057 29.604828462470323,54.81092021931545 26.620076238759793,53.33456761090201 22.880559085169807,54.00563786068233 22.228716645389795,51.90294616378378 18.969504447071813,51.410824745718855 17.803049555164762,50.202887003310025 17.391359593369998,46.22113256066223 15.950444726739079,46.48956707175239 15.12706480291672,47.74225834623212 13.411689961794764,48.41334084965638 13.03430749673862,49.26337657653494 13.96060991100967,52.260852153005544 16.396442185388878,54.13985173407127 16.53367217280902,56.4214785846998 21.885641677188687,56.91359195142286 22.091486658202484,66.88990152644692 24.83608640404418,68.23198115557898 26.7229987293249,66.71095713158138 28.541296060895547,66.44254034329788 29.124523506965488,68.23198115557898 28.71283354505431,70.8713872708031 31.90343074942939,74.31600171825266 32.04066073684953,76.46327424020274 36.29479034303222,76.91062078779214 37.358322744606994,75.92645752101089 37.22109275718685,65.18992555412115 36.74078780168202,60.80573344879667 34.75095298595261,60.22415223027929 34.6480304953875,57.22675459130551 31.90343074942939,54.40827930465457 29.84498094022274,54.900395906268386 26.688691232469864,53.3793056733557 22.914866581908427,53.96089988967287 22.36594663269352,51.947684435377596 19.24396442179568,51.50030142601463 17.905972045497037,50.33710254327161 17.597204574150965,46.086915216903435 16.019059720332734,46.44482800291735 14.921219822019339,47.87647496451973 13.445997458533384,48.279124466498615 13.0,49.21863791279611 13.99491740774829,52.48454318381846 16.362134688533843,54.13985173407127 16.53367217280902,56.51095380092738 21.062261753482744,56.60042899136897 21.954256670782343,57.1820170909632 22.057179161231034,66.84516543761129 24.904701397637837,68.23198115557898 26.75730622606352,66.84516543761129 28.575603557634167,66.62148489491665 29.055908513371833,68.27671704193926 28.678526048199274,71.05032923503313 31.800508259097114,74.27126671400038 32.07496823382098,76.50800892445841 36.43202033021953,76.86588616238441 37.358322744606994,76.23960072168848 36.80940279527567,60.93994434236083 34.819567979546264,60.22415223027929 34.6137229987653,57.1820170909632 32.07496823382098,54.40827930465457 29.810673443367705,54.81092021931545 26.65438373561483,53.33456761090201 23.189326556399465,54.05037582508521 22.297331639099866,51.81346960112569 18.832274459884502,51.32134803925874 17.837357051903382,49.93445574687212 17.49428208381869,46.176393452624325 15.984752223594114,46.44482800291735 15.02414231246803,47.92121382418554 13.0,48.994944496575044 13.926302414154634,52.66349589073798 16.396442185388878,54.22932761703851 16.53367217280902,56.60042899136897 21.919949174160138,57.137279583956115 22.125794154941104,66.97937368464773 24.870393900666386,68.27671704193926 27.512071156292222,66.57674876684905 28.678526048199274,66.75569324014941 28.438373570446856,70.69244520214852 31.869123252807185,74.36073671592749 32.07496823382098,76.50800892445841 37.11817026673816,76.68694759564823 37.358322744606994,70.42403190300683 40.891994917416014,69.70826195526752 41.440914866514504,68.7240755460225 41.57814485381823,43.84995082698879 51.01270648022182,43.08937921220786 59.58958068618085,43.313076942024054" stroke="#4dd2ff" stroke-linecap="round" stroke-linejoin="round" stroke-width="0.5"><title>2023-04-17 10.1km</title></polyline><polyline fill="none" points="73.0,60.32162843203696 78.82273603082285,60.2914760827407 80.66473988437792,60.3618315233216 82.22928709055122,60.29650147612119 85.72061657032464,60.371882288804045 87.38921001926064,60.31660304231991 90.6339113680151,60.3618315233216 92.0250481695548,60.21609509385962 99.93641618496622,59.788933036594244 101.57803468206839,59.84421313105486 104.94219653177424,59.768831162033166 106.40269749518484,59.86934041735003 109.73217726395524,59.70349998859456 115.20809248555452,59.683398064094945 115.77071290943422,59.698474508568324 116.02119460501126,59.87939132673273 116.36030828516232,59.87436587240518 116.56454720615875,59.71857642424584 118.04431599228701,59.65827064198311 123.25433526010602,59.64319417988372 123.54720616569102,59.71355094642058 124.11753371870145,59.63816869106449 125.46628131021862,59.628117711195955 127.0,59.70349998859456" stroke="#4dd2ff" stroke-linecap="round" stroke-linejoin="round" stroke-width="0.5"><title>2023-04-14 12.0km</title></polyline><polyline fill="none" points="187.0,49.38409606993082 186.14122137392405,49.38409606993082 186.31297709909268,43.47102511805133 170.85496183205396,43.3814322570106 161.40839694649912,44.142970741406316 161.3396946565481,69.22788716177456 160.61832061060704,69.85498378274497 158.04198473261204,69.94456890953006 157.2862595418701,69.40705775568495 156.70229007629678,60.85154505298124 154.77862595417537,60.403605875209905 154.74427480914164,57.44719089238788 152.6145038168179,54.71472139656544 151.5839694654569,54.31156809825916 149.86641221377067,54.80431094640517 146.43129770993255,53.281285039149225 143.06488549616188,53.90841427000123 142.1374045801349,51.66866112797288 139.08015267166775,51.39988965159864 137.94656488543842,50.324801390379434 137.43129770993255,46.1587987767125 136.022900763317,46.382778851519106 134.99236641230527,47.86104324218468 133.27480916015338,48.30900074145757 133.34351145045366,54.17718354778481 136.33206106862053,54.04279893843341 136.8129770992091,56.68568544732989 141.07251908397302,56.5960964471451 141.9656488550827,57.088835624366766 142.20610687020235,66.94345291276113 144.8854961830657,68.1080685776542 146.87786259537097,66.58510874139029 148.5610687021399,66.27155724799377 149.1106870227959,68.24244702374563 148.69847328250762,70.6164565270883 151.92748091602698,74.37899998301873 152.03053435112815,76.30504603209556 156.496183205978,76.79775354356389 157.45801526715513,75.85712942562532 157.0114503816003,62.732882454496576 156.63358778622933,60.62757554592099 154.77862595417537,59.955666043271776 154.81297709909268,57.71595706851804 154.1603053434519,56.46171289778431 152.23664122144692,54.17718354778481 149.86641221377067,54.80431094640517 146.7748091602698,53.19169504442834 143.20229007629678,53.90841427000123 141.82824427483138,51.39988965159864 138.63358778622933,51.35509438268491 137.67175572516862,49.787255846342305 137.43129770993255,46.02441065336461 133.27480916015338,48.26420502088149 133.9274809161434,52.29579365666723 136.43511450383812,53.998004055494675 136.60687022889033,56.46171289778431 141.8625954197487,56.99924674202339 142.10305343498476,66.85386690919404 145.0229007632006,68.15286139960517 146.70610687020235,66.8090738976025 148.5610687021399,66.45072956921649 148.69847328250762,70.93000357822166 151.996183205978,74.28941615155782 152.2709923662478,76.48421249139938 156.5992366410792,76.79775354356389 157.38931297697127,75.90192111578654 156.83969465643167,61.12030824559042 156.39312977099326,60.403605875209905 154.91603053431027,60.26922399434261 154.6755725190742,57.13363005575957 152.13358778622933,54.31156809825916 149.83206106873695,54.80431094640517 146.6717557250522,53.281285039149225 143.13358778622933,54.04279893843341 142.06870229018386,51.62386589832022 138.70229007629678,51.220708536478924 137.70610687020235,49.51848272094503 137.56870229006745,46.1587987767125 136.19465648848563,46.293186841212446 134.95801526715513,47.86104324218468 133.0,48.75695758644724 134.13358778622933,52.56456434787833 136.33206106862053,53.90841427000123 136.64122137404047,56.46171289778431 141.82824427483138,56.99924674202339 142.2748091602698,67.07783186901361 144.91984732821584,68.1080685776542 147.29007633577567,66.54031569056679 148.59541984729003,66.54031569056679 149.0763358778786,68.15286139960517 148.66412213735748,70.75083387407358 151.89312977087684,74.28941615155782 152.13358778622933,76.43942088642507 157.21755725191906,76.57379568199394 157.4236641221214,70.30290915546357 160.85877862595953,69.72060604326543 161.5458015265176,68.82475294242613 161.75190839683637,43.73980354401283 176.31679389311466,43.20224645640701" stroke="#4dd2ff" stroke-linecap="round" stroke-linejoin="round" stroke-width="0.5"><title>2023-04-03 10.0km</title></polyline><polyline fill="none" points="13.0,120.28896348920534 20.26396917148668,120.29398888332435 25.262042389207636,120.37942047101751 30.645472061660257,120.35429355548695 31.994219653177424,120.22363329883592 40.22928709053667,119.78642036962992 41.547206165705575,119.85677684836264 44.911368015411426,119.77134396261681 45.82080924854381,119.7964713039728 46.34874759153172,119.88190412731637 49.71676300576655,119.7060127891782 55.14643545279978,119.68088538172742 55.74373795760039,119.70098730915197 56.059730250475695,119.87185321793368 56.37186897880747,119.8467259316385 56.58381502889097,119.7060127891782 58.29094412330596,119.65073246856264 62.1290944123175,119.68591086467859 63.165703275517444,119.6256050207412 63.33911368015106,119.69093634690944 65.26204238919308,119.62057952897885 65.38150289017358,119.67585989804138 66.66088631983439,119.65575795593395 67.0,119.72611470190532" stroke="#4dd2ff" stroke-linecap="round" stroke-linejoin="round" stroke-width="0.5"><title>2023-03-31 11.9km</title></polyline><polyline fill="none" points="73.0,118.84915223248754 73.18482601255528,118.91342687425458 87.13918996007123,118.95359844905397 88.32207644038135,118.84111789170493 94.83103251569264,118.49965623836579 95.7859669138561,118.5478628464898 98.90644609242736,118.50367345894301 99.71351968056115,118.56794890826131 102.3934968625399,118.43939785937255 106.56132344552316,118.41529447079483 107.2143753565324,118.44341508874277 107.405362236168,118.56393169708826 107.59942954935832,118.58000053828073 107.86434683400148,118.43136339886223 109.52162007987499,118.39520829751382 124.4031945236784,118.38717382408322 124.64654877352586,118.44743231753819 124.64038790644554,119.17855818343378 124.54489446664229,119.39548189862035 124.58185966912424,119.84137527255189 124.71431831146765,119.9659027610669 124.96075299486984,119.98598778704581 125.03160296635178,120.19085421413365 125.35812892184185,120.11854859060804 125.63844837422948,120.25512571985928 125.79555048487964,120.21093907580871 125.91568739304785,120.25914268398628 126.09127210496808,120.49614252854553 126.09127210496808,120.73715722489214 126.27301768396865,120.80142745384182 126.34694808899076,121.61282617591678 126.68887621219619,121.55659139302043 126.69503707929107,120.54836255867849 126.7504848830722,120.50819331352795 127.0,120.54032871434174" stroke="#4dd2ff" stroke-linecap="round" stroke-linejoin="round" stroke-width="0.5"><title>2023-03-15 16.1km</title></polyline><polyline fill="none" points="187.0,109.07285075128311 185.22346368711442,109.16027317784028 185.22346368711442,104.70169685754809 184.51955307251774,103.47776232409524 161.1229050279362,104.26457795599708 160.62011173181236,106.66872401194996 161.1229050279362,117.24673718548729 160.31843575427774,122.14222001266899 160.78770949703176,128.917086458212 160.0837988826679,129.5727105551341 157.33519553067163,129.87866797542665 156.76536312850658,129.31046108878218 156.2290502792457,120.87464732167427 154.28491620114073,120.35013291335781 154.28491620114073,117.64012715773424 152.0055865922477,114.75525535162888 149.256983240135,115.0175175741897 146.2737430166453,113.44394079089398 142.68715083796997,114.14330927171977 141.81564245803747,111.87035573233152 138.36312849156093,111.38953642515116 137.62569832406007,110.03449603859917 137.39106145256665,106.53758927050512 135.9497206703527,106.71243557953858 135.0446927373996,108.1549137304537 133.36871508392505,108.67944951570826 133.36871508392505,114.23073021695018 136.0837988826679,114.01217780614388 136.75418994412757,116.76592651719693 141.37988826818764,116.94076684964239 141.74860335199628,117.42157723708078 141.7821229051333,126.68795378445066 144.59776536317077,128.04291876131902 146.47486033523455,126.55682781586074 148.2178770948667,126.2508669992385 148.45251396659296,130.92766247040709 151.43575418996625,133.94350116091664 151.60335195541847,135.99775069323368 155.62569832406007,136.52223767587566 156.73184357536957,135.95404340326786 156.73184357536957,125.42040034866659 156.19553072622512,120.87464732167427 154.2178770948667,120.26271375600481 154.25139664800372,117.68383712269133 153.44692737434525,116.37253539575613 151.53631284902804,114.53670332385809 149.39106145256665,115.0612279222114 146.1396648044465,113.53136194028775 142.68715083796997,114.23073021695018 142.11731843580492,112.13262048346223 138.9664804469794,111.73922327064793 137.75977653625887,110.64645052139531 137.49162011174485,106.62501243781298 135.71508379885927,106.79985869574011 134.9441340782214,108.19862508104416 133.06703910627402,109.07285075128311 133.9385474859737,112.61343859671615 136.31843575427774,114.05588830099441 136.72067039099056,116.76592651719693 141.64804469270166,116.9844769166375 141.84916201117449,126.77537106492673 144.63128491630778,127.91179338659276 146.60893854743335,126.51311914698454 148.28491620102432,126.38199310188065 148.72067039110698,127.99921030935366 148.1843575418461,130.44687378330855 151.36871508369222,133.85608597437385 151.60335195541847,135.99775069323368 155.72625698323827,136.4348232424818 156.73184357536957,135.95404340326786 156.73184357536957,124.89589390807669 156.16201117320452,120.87464732167427 154.25139664800372,120.48126160158427 154.28491620114073,117.7712570335134 151.80446927365847,114.71154495890369 149.49162011174485,115.10493826397578 146.1396648044465,113.53136194028775 142.85474860330578,114.27444068001932 142.0502793296473,112.00148813668056 138.49720670399256,111.65180159770534 137.52513966476545,109.90336277234019 137.42458100558724,106.66872401194996 135.88268156419508,106.75614714089897 134.9441340782214,108.19862508104416 133.0,109.11656196782133 133.9720670392271,112.74457067545154 136.41899441333953,114.27444068001932 136.51955307275057,116.59108608262613 141.6815642459551,117.02818697749171 141.9497206704691,126.86278831979143 144.66480446921196,128.04291876131902 146.60893854743335,126.51311914698454 148.31843575416133,126.4257017900527 148.31843575416133,130.70912225387292 151.36871508369222,133.94350116091664 151.70391061459668,136.12887252503424 156.69832402223255,136.21628704768955 156.8659217878012,130.27204134207568 160.72067039110698,128.917086458212 160.9553072626004,104.48313748656074 163.16759776545223,103.8711703986919 173.1229050279362,103.82745841596625" stroke="#4dd2ff" stroke-linecap="round" stroke-linejoin="round" stroke-width="0.5"><title>2023-03-06 10.0km</title></polyline><polyline fill="none" points="13.130965118762106,180.12307239299844 13.0,180.13814219555934 13.015407661048812,180.24363062843622 13.261930237538763,180.32400255055836 24.617376417736523,180.30390958763746 26.123475283558946,180.37925813804395 29.913759897302953,180.30893282947363 30.6764391183533,180.37423490649235 31.73956772951351,180.23358412496236 40.56045367002662,179.7764651114776 41.565803552322905,179.85683812560092 45.121121335352655,179.79153506593138 46.396105285704834,179.87693134977962 48.66873528783617,179.8266982673158 49.82816178044595,179.7161852275858 55.070618446407025,179.6810219131803 55.763963192817755,179.71116189916575 56.110635566030396,179.8819546539853 56.36486197305203,179.85683812560092 56.55745773593662,179.70613856999626 58.055852771241916,179.65088190077222 61.80376631714171,179.645858562817 62.366145944804884,179.69609190947085 62.62422426707053,179.6408352241051 66.2103573721397,179.6207418619524 67.0,179.6810219131803" stroke="#4dd2ff" stroke-linecap="round" stroke-linejoin="round" stroke-width="0.5"><title>2023-03-03 12.1km</title></polyline><polyline fill="none" points="127.0,168.95814253136632 126.96529562980868,163.16529019264271 111.41773778921925,162.98426181162358 102.29048843181226,163.61786068227957 101.63110539852642,164.61351343244314 102.08226221089717,178.6880804291868 101.38817480730359,181.9916642717435 102.11696658097208,183.98284847752075 102.0128534702817,189.41328581466223 98.75064267334528,190.04683063740958 97.67480719799642,189.50379229726968 97.01542416447774,180.76979490066878 94.96786632400472,180.2719948865706 94.93316195369698,177.33043302065926 93.09383033413906,174.7508865534037 91.94858611817472,174.2983323271037 90.07455012842547,174.93190805899212 86.60411311045755,173.30271070217714 83.02956298203208,174.02679947411525 82.30077120824717,171.67350477789296 78.83033419027925,170.76838667341508 77.89331619523,169.22967982693808 77.71979434438981,166.0164732396952 76.0539845759049,166.3332697362639 75.1516709511634,167.7814781665511 73.41645244217943,168.2340419125976 73.03470437019132,169.09391120888176 74.00642673519906,172.30708587757545 76.53984575835057,173.8457774396229 76.67866323899943,176.56109684813418 80.66966580972075,176.33482113972423 81.9884318766417,176.7873723913799 82.16195372748189,186.96960079166456 83.4460154240951,187.96517849792144 85.11182519269641,188.19144571237848 86.95115681225434,186.78858631945332 88.89460154238623,186.51706441291026 88.82519280212,191.08765146241058 92.1221079690149,194.43635561291012 92.2609254498966,196.69897306367056 93.23264781478792,196.92523390008137 96.98071979428641,196.92523390008137 97.60539845761377,196.42745984208887 96.98071979428641,180.81504940785817 95.03727506427094,180.2719948865706 94.93316195369698,177.37568803000613 92.67737789207604,174.61512035498163 89.97043701796792,174.88665269245394 86.67352185072377,173.30271070217714 83.16838046268094,174.07205496609095 82.33547557843849,171.8092722654401 79.03856041119434,171.1756901477056 77.96272493549623,169.9990342053934 77.61568123393226,166.061729901965 76.0539845759049,166.3332697362639 74.97814910032321,167.91724735978642 73.0,168.8676300465595 73.9023136246251,172.30708587757545 76.36632390751038,173.98154397538747 76.81748071976472,176.69686219390132 79.69794344471302,176.33482113972423 81.91902313637547,176.8326274800056 82.16195372748189,187.06010798804346 85.11182519269641,188.19144571237848 86.88174807198811,186.9243471835507 88.82519280212,186.51706441291026 89.27634961437434,188.46296615159372 88.8598971721949,191.1329044625163 92.08740359905642,194.52686062821886 92.29562982008792,196.65372087663854 97.22365038562566,196.8799817460822 97.43187660677359,186.83383994738688 96.91131105402019,180.86030390838278 94.93316195369698,180.36250403962913 94.89845758338924,177.5114530188439 92.36503856035415,174.47935409704223 89.9010282777017,174.93190805899212 86.95115681225434,173.30271070217714 83.20308483298868,174.11731045143097 82.26606683805585,171.8092722654401 78.62210796913132,171.35671374213416 77.61568123393226,169.50121688458603 77.65038560400717,166.15224320656853 76.12339331617113,166.28801311377902 75.01285347039811,167.82673457087367 73.17352185084019,168.36981090760673 73.0,169.41070455833687 74.17994858615566,172.66913163862773 76.50514138804283,174.07205496609095 76.53984575835057,176.56109684813418 81.9884318766417,177.10415787404054 82.19665809767321,186.96960079166456 85.04241645243019,188.37245936496765 86.77763496141415,186.87909356877208 88.72107969154604,186.4718107387598 89.24164524429943,188.37245936496765 88.92930591269396,191.26866342290305 92.08740359905642,194.52686062821886 92.2609254498966,196.69897306367056 96.66838046268094,197.0157381883473 97.57069408742245,196.47271206229925 97.57069408742245,190.63512109863223 101.59640102821868,189.36803256353596 101.76992287917528,163.79888869312708 112.14652956300415,163.02951891670818 121.06555269926321,163.16529019264271" stroke="#4dd2ff" stroke-linecap="round" stroke-linejoin="round" stroke-width="0.5"><title>2023-03-01 10.1km</title></polyline><polyline fill="none" points="187.0,169.1738318472926 185.70699432888068,169.0407151580439 185.43478260864504,163.67162673178245 169.78260869556107,163.3610154063499 161.51417769375257,164.02661071473267 160.93572778825182,164.95844169621705 160.76559546310455,171.74740970510175 161.4120982986642,187.63211453758413 160.69754253292922,189.58436731112306 157.7372400755994,189.9836901964445 157.02268430986442,189.22941319464007 156.54631379956845,181.1097245189594 154.53875236294698,180.3554254824412 154.47069943300448,177.51569466292858 152.12287334597204,174.63156587650883 149.74102079391014,174.94216567691183 146.37240075611044,173.3891634986212 142.8676748580765,174.14347983410698 142.0510396976024,171.83615338039817 138.06994328903966,171.03745937062195 137.45746691862587,169.70629802066833 137.45746691862587,166.3339964914776 135.92627599230036,166.6889773629082 134.9054820414167,168.1088967002579 133.27221172011923,168.64136474052793 133.03402646479663,169.57318156486144 134.12287334597204,172.6348452900711 136.40264650282916,174.23222280925256 136.53875236283056,176.5839022034197 141.77882797713391,177.07198432442965 141.84688090730924,186.8778316968237 144.60302457457874,188.07580945148948 146.712665406405,186.61161377636017 148.41398865776137,186.5672441002971 148.8563327031443,188.29765666543972 148.41398865776137,190.60485808583326 151.7485822305316,194.37620729123591 151.85066162561998,196.3727849748684 156.17202268424444,196.68336254628957 157.22684310015757,196.1065753751609 156.58034026471432,181.15409499238012 154.57277882797644,180.31105489257607 153.85822306235787,176.62827333755558 151.95274102059193,174.63156587650883 149.70699432888068,175.07527977996506 146.44045368605293,173.5222782822093 143.00378071831074,174.1878513249685 142.15311909257434,171.96926884449203 138.47826086950954,171.48117852414725 137.5255198488012,169.66192587511614 137.45746691862587,166.51148697911412 135.9943289224757,166.73334994280594 135.17769376176875,168.02015193621628 133.4423440452665,168.55262013198808 133.0,169.44006505073048 134.22495274082758,172.9010754599003 136.33459357265383,174.23222280925256 136.57277882786002,176.62827333755558 141.8128544422798,177.16072644406813 142.0510396976024,187.05531018067268 144.9432892249897,188.07580945148948 146.64461247622967,186.70035310907406 148.3799621927319,186.38976533114328 148.89035916817375,188.38639550554217 148.3799621927319,190.42738167571952 151.6805293004727,194.19873308425304 151.81663516070694,196.23968020422035 156.1379962193314,196.72773074486759 157.1247637050692,195.75162887948682 156.64839319465682,181.24283591934363 156.2741020793328,180.62164888571715 154.57277882797644,180.31105489257607 154.5047258978011,177.47132365830475 152.5311909262091,174.98653705097968 151.51039697532542,174.45408013355336 149.63894139870536,175.0309084187029 146.712665406405,173.4335350995825 142.96975425328128,174.14347983410698 142.08506616239902,171.92489702953026 138.4442344045965,171.3924347453285 137.62759924377315,169.70629802066833 137.45746691862587,166.42274174827617 135.9943289224757,166.73334994280594 135.07561436656397,168.15326907252893 133.1361058600014,168.90759841055842 133.85066162561998,172.23549959776574 136.40264650282916,174.14347983410698 136.64083175791893,176.67264446549234 141.84688090730924,177.11635538749397 142.15311909257434,187.05531018067268 144.73913043481298,188.07580945148948 146.81474480149336,186.65598344587488 148.44801512290724,186.38976533114328 148.89035916817375,188.29765666543972 148.48204158782028,190.69359625218203 151.78260869556107,194.28747020071023 151.95274102059193,196.28404846752528 156.37618147430476,196.72773074486759 157.1928166350117,196.1509436580236 157.26086956518702,190.3830125569948 160.86767485830933,189.53999806928914 161.27599243854638,188.8744586633402 161.20793950848747,167.0883303474984 161.65028355375398,163.9822377395176 184.89035916829016,163.27226925513241" stroke="#4dd2ff" stroke-linecap="round" stroke-linejoin="round" stroke-width="0.5"><title>2023-02-22 10.2km</title></polyline><polyline fill="none" points="13.0,240.3285610726998 16.476827371690888,240.30665723681886 21.53250388802553,240.40522439748383 26.96189735614462,240.34498894121134 27.411197511668433,240.39427250355584 28.859875583206303,240.22999371042897 37.942457231722074,239.75905717969727 39.273561430803966,239.85214975382405 40.025194401241606,239.77548529782143 43.00653188180877,239.75905717969727 44.54758942457556,239.87405385531747 49.61166407466226,239.64953620824235 54.15925349923782,239.6550122644221 54.805909797840286,239.68239253328284 55.03685847589804,239.87952987869357 55.38958009330963,239.86310180617147 55.670917573865154,239.67691648111577 57.64027993779746,239.61120379262866 61.96531881803821,239.66596437436965 62.3180404354498,239.60025166669584 66.06360808708996,239.59477560251253 67.0,239.69882068501101" stroke="#4dd2ff" stroke-linecap="round" stroke-linejoin="round" stroke-width="0.5"><title>2023-02-17 11.0km</title></polyline><polyline fill="none" points="73.0,240.11332024751755 73.72473294986412,240.11814229610536 73.78759244042158,240.32548971899087 74.63434675431927,240.2579813987395 83.62695152012748,240.28691355289266 84.6881676253106,240.3544218139832 86.50369761708134,240.27726950432407 86.84387838948169,240.33031173657946 89.1844700082147,240.33031173657946 98.63927691044228,239.78059719358498 99.89276910436456,239.8481064902444 103.36483155298629,239.78059719358498 104.7995069843746,239.86257275014214 108.75595727197651,239.67933298969 110.7822514379659,239.72273197225877 112.78266228431312,239.67451087699374 113.48890714872687,239.71790986590713 113.70706655710819,239.88186108679292 114.00287592440145,239.86739483535712 114.27649958914844,239.6889772129689 115.55957271979423,239.64557818601315 127.0,239.67933298969" stroke="#4dd2ff" stroke-linecap="round" stroke-linejoin="round" stroke-width="0.5"><title>2023-02-03 12.5km</title></polyline><polyline fill="none" points="187.0,229.23979689989937 185.6500000001397,229.0197384695348 185.0425000000978,223.38618792418856 161.14749999996275,223.87032531161094 160.7087500001071,224.88261006231187 161.3162500000326,236.36960307759 160.67500000004657,242.75107662932714 161.28250000008848,245.78773037579958 160.80999999993946,248.9123711239954 160.2362500000745,249.5284936441749 157.19874999998137,249.66051973446156 156.69250000000466,249.08840625835 156.05125000001863,240.68261380016338 154.16125000000466,240.19850342778955 154.12749999994412,237.38184583259863 151.89999999990687,234.69719455292216 149.3012499999022,234.87323799266596 146.29749999986961,233.33285440714099 142.61875000002328,234.08104170378647 141.84250000002794,231.92449680849677 138.12999999988824,231.08828136944794 137.4549999999581,229.85595964983804 137.15125000011176,226.24698847485706 135.7674999999581,226.55507306774962 134.78874999994878,228.09549130665255 133.16874999995343,228.40357400928042 133.0,229.2838085666299 134.1137499999022,232.5406540679105 136.40874999994412,233.90499780108803 136.54374999995343,236.36960307759 141.6737500000745,236.85371960210614 142.01124999998137,246.66791414652835 144.8125,247.94417604699265 146.70250000001397,246.44786844492774 148.5587499999674,246.4038592852594 148.35624999995343,250.40866648749216 151.6975000000093,253.88532408283208 151.83250000001863,256.0857195536955 155.74750000005588,256.48178903211374 156.82750000001397,255.8216729456908 156.2537500000326,240.8586537426163 154.16125000000466,240.06647319122567 154.1950000000652,237.60189815540798 153.18249999999534,235.97350716067012 151.63000000000466,234.3891182858497 149.46999999997206,234.9172488366312 146.33124999993015,233.33285440714099 142.78749999997672,234.08104170378647 141.7074999999022,231.748451645748 138.63624999998137,231.57240638017538 137.55624999990687,229.8999712266086 137.28625000012107,226.24698847485706 135.9024999999674,226.55507306774962 135.19374999997672,227.83142016801867 133.40500000002794,228.40357400928042 133.0,229.23979689989937 134.14750000007916,232.62867643072968 136.40874999994412,234.1250526632648 136.57750000001397,236.45762432157062 141.64000000001397,236.63366673281416 142.0450000000419,246.75593238216243 144.77874999993946,247.9881849816884 146.972500000149,246.31584094685968 148.45750000001863,246.22782258261577 148.3224999998929,250.4526750621444 151.6637500000652,253.92933214979712 151.76500000013039,256.04171180180856 155.34250000002794,256.61381207578233 156.625,256.17373503843555 156.8612500000745,255.513618277153 156.7600000000093,244.99556278373348 156.1524999999674,240.59459379015607 154.39750000007916,240.28652355322265 153.89124999998603,236.80970904108835 151.83250000001863,234.5211510102963 149.50374999991618,235.00527050497476 146.33124999993015,233.37686547604972 142.72000000008848,234.1690636165149 142.0450000000419,231.92449680849677 139.00749999994878,231.4843837087683 137.75874999992084,230.3400866407028 137.3200000000652,226.33501267645624 133.16874999995343,228.79967987834243 134.14750000007916,232.5406540679105 136.4762500000652,234.1690636165149 136.6112499999581,236.45762432157062 141.5725000000093,236.76569847358041 142.0450000000419,246.84395059215603 144.77874999993946,247.94417604699265 146.93875000008848,246.31584094685968 148.45750000001863,246.22782258261577 148.82874999998603,248.07620283166762 148.3224999998929,250.3206493187463 151.63000000000466,253.92933214979712 151.73124999995343,255.99770404348965 156.18625000002794,256.3497659304703 156.99625000008382,255.68964955490083 156.89500000001863,250.23263212450547 160.20250000001397,249.4404762183549 160.9787500000093,248.2522384543845 161.24875000002794,223.914337762777 185.21125000005122,223.47421296162065" stroke="#4dd2ff" stroke-linecap="round" stroke-linejoin="round" stroke-width="0.5"><title>2023-01-30 10.2km</title></polyline></svg>