<?xml version="1.0" encoding="utf-8" ?>
<svg baseProfile="full" height="300mm" version="1.1" viewBox="0,0,200,300" width="200mm" xmlns="http://www.w3.org/2000/svg" xmlns:ev="http://www.w3.org/2001/xml-events" xmlns:xlink="http://www.w3.org/1999/xlink"><defs /><rect fill="#222222" height="300" width="200" x="0" y="0" /><text fill="#FFFFFF" style="font-size:12px; font-family:Arial; font-weight:bold;" x="10" y="20">Over 10km Runs</text><text fill="#FFFFFF" style="font-size:4px; font-family:Arial" x="10" y="280">ATHLETE</text><text fill="#FFFFFF" style="font-size:9px; font-family:Arial" x="10" y="290">chending</text><text fill="#FFFFFF" style="font-size:4px; font-family:Arial" x="120" y="280">STATISTICS</text><text fill="#FFFFFF" style="font-size:3px; font-family:Arial" x="120" y="285">Number: 13</text><text fill="#FFFFFF" style="font-size:3px; font-family:Arial" x="120" y="290">Weekly: 1.2</text><text fill="#FFFFFF" style="font-size:3px; font-family:Arial" x="141" y="285">Total: 149.2 km</text><text fill="#FFFFFF" style="font-size:3px; font-family:Arial" x="141" y="290">Avg: 11.5 km</text><text fill="#FFFFFF" style="font-size:3px; font-family:Arial" x="167" y="285">Min: 10.0 km</text><text fill="#FFFFFF" style="font-size:3px; font-family:Arial" x="167" y="290">Max: 16.1 km</text><polyline fill="none" points="12.39999999999418,54.220284349879876 14.645593743844074,54.18696437196195 20.601669185780338,54.216582132277836 21.890543471105048,54.27211533957052 22.131852533348138,54.23509321489473 25.266031412233133,54.24249764415981 32.47407504764851,53.82784627365618 33.42511664585618,53.879678066010456 36.488322271135985,53.83895309522268 36.97661825589603,53.90929618548034 39.76160872708715,53.76120524198632 43.50899651704822,53.74639610003578 43.875218505607336,53.76120524198632 44.07678254584607,53.90559392243449 44.32660839850723,53.89078486487233 44.51113885785162,53.76490752612699 45.81704672405613,53.72788466042948 55.59999999999127,53.73158694943231" stroke="#4dd2ff" stroke-linecap="round" stroke-linejoin="round" stroke-width="0.5"><title>2023-05-05 13.0km</title></polyline><polyline fill="none" points="121.59999999997672,45.41070126123668 120.96874205849599,45.088582694676006 120.6668360864278,40.50729501695605 106.97128335444722,40.686253174746525 101.12528589565773,41.366292981882 101.0429479033919,61.37293531684554 98.3532401524717,62.017129210507846 97.77687420579605,61.48030108338571 97.33773824642412,54.71616590753547 95.77331639139447,54.32248033207725 95.74587039381731,51.85298365801282 93.87954256671946,49.66978471017501 91.68386276997626,49.84873617546691 89.29606099100783,48.66765408874198 86.30444726813585,49.20451028854586 85.78297331638169,47.522356931018294 83.1756035577273,47.128659796580905 82.24243964406196,46.16230960265966 81.91308767464943,42.97690604854142 80.76035578141455,43.191653657399 80.10165184235666,44.19380667699443 78.72935196943581,44.7306726797251 78.42744599736761,45.41070126123668 79.16848792880774,47.808681722410256 81.11715374828782,49.31188138725702 81.22693773824722,51.13718286776566 85.50851334177423,51.53087356114702 85.6731893265387,59.511921221157536 87.86886912328191,60.585584924469 89.37839898339007,59.36876570527966 90.83303684880957,59.154032274658675 91.29961880552582,60.585584924469 90.97026683599688,62.69710981663957 93.52274459961336,65.45280137460213 93.63252858957276,67.17061939218547 97.03583227435593,67.52849663022789 97.88665819575544,66.74116601679998 97.77687420579605,58.151940443291096 97.39263024134561,54.64458675905189 95.80076238885522,54.17932178423507 95.71842439635657,51.781403673041495 93.52274459961336,49.52662344372948 91.87598475220148,49.92031672500889 89.35095298604574,48.70344453868165 86.33189326548018,49.16871991172957 85.89275730622467,47.55814754830499 83.39517153741326,47.200241140817525 82.3247776364442,46.26968203463184 82.07776365929749,42.86953217351402 80.81524777633604,43.15586240233097 79.93697585759219,44.30117997160414 78.75679796689656,44.623299573213444 78.40000000002328,45.37491033025435 79.19593392626848,47.98763454706932 81.08970775082707,49.31188138725702 81.22693773824722,51.20876304076228 84.84980940271635,51.28034319309518 85.56340533657931,51.74561367277056 85.64574332896154,59.47613235010067 87.92376111808699,60.585584924469 89.40584498085082,59.47613235010067 90.86048284603748,59.29718791593041 91.24472681072075,60.62137363356305 90.94282083853614,62.84026338803233 93.44040660734754,65.41701337121776 93.6599745870335,67.20640713957255 97.1456162641989,67.49270892990171 97.88665819575544,66.99168057735369 97.4475222362671,54.7519554738974 95.8556543836603,54.17932178423507 95.69097839901224,51.74561367277056 93.6599745870335,49.52662344372948 91.84853875474073,49.84873617546691 89.32350698846858,48.66765408874198 86.55146124516614,49.24030066007981 85.83786531130318,47.45077568090346 83.06581956788432,47.05707843140408 82.2698856415227,45.947564597503515 81.99542566703167,42.94111476209946 80.78780177887529,43.15586240233097 80.01931384997442,44.336971059354255 78.40000000002328,45.19595559727168 79.14104193134699,48.13079671260493 81.11715374828782,49.38346209363954 81.22693773824722,51.28034319309518 85.5359593393514,51.70982366717362 85.70063532399945,59.58349894772982 87.89631512062624,60.62137363356305 90.00965692498721,59.26139901349961 90.94282083853614,59.40455459212535 90.75069885642733,62.553956161718816 93.49529860226903,65.48858937276236 93.6599745870335,67.20640713957255 97.69453621341381,67.34955807651568 97.88665819575544,62.33922552240256 100.71359593397938,61.76660956420528 101.15273189323489,60.979260436826735 101.26251588307787,41.07996066160558 108.81016518420074,40.471503369757556 115.6716645489214,40.650461553625064" stroke="#4dd2ff" stroke-linecap="round" stroke-linejoin="round" stroke-width="0.5"><title>2023-04-17 10.1km</title></polyline><polyline fill="none" points="144.39999999999418,54.257302745627385 149.0581888246379,54.233180866191105 150.5317919074878,54.289465218655096 151.78342967243225,54.23720118089477 154.5764932562306,54.297505831042145 155.91136801538232,54.25328243385593 158.5071290943888,54.289465218655096 159.6200385356351,54.172876075086606 165.9491329479497,53.83114642927285 167.2624277456489,53.875370504843886 169.95375722540484,53.815064929625805 171.1221579961275,53.89547233387748 173.78574181115255,53.762799990874555 178.16647398842906,53.74671845127341 178.61657032753283,53.75877960685284 178.81695568400028,53.90351306138473 179.0882466281182,53.89949269792123 179.2516377649008,53.77486113939449 180.43545279381215,53.726616513582485 184.60346820806444,53.71455534390407 184.83776493254118,53.770840757133556 185.29402697493788,53.71053495285014 186.37302504816034,53.702494168956036 187.59999999999127,53.762799990874555" stroke="#4dd2ff" stroke-linecap="round" stroke-linejoin="round" stroke-width="0.5"><title>2023-04-14 12.0km</title></polyline><polyline fill="none" points="55.59999999997672,93.50727685597667 54.91297709918581,93.50727685597667 55.05038167920429,88.77682009447017 42.68396946566645,88.70514580562303 35.1267175571993,89.31437659314543 35.071755725191906,109.38230972943711 34.4946564885322,109.8839870262018 32.43358778615948,109.95565512763278 31.829007633496076,109.52564620455087 31.361832060967572,102.68123604240827 29.822900763363577,102.3228847001883 29.795419847243465,99.95775271393359 28.091603053500876,97.77177711726108 27.267175572458655,97.44925447861897 25.893129770993255,97.84344875713577 23.14503816794604,96.6250280313252 20.451908397022635,97.12673141602136 19.70992366410792,95.3349289024045 17.264122137334198,95.11991172129638 16.357251908397302,94.2598411123181 15.945038167992607,90.92703902139328 14.818320610676892,91.10622308122402 13.993893129867502,92.28883459375356 12.619847328169271,92.64720059317187 12.674809160409495,97.34174683825404 15.065648854942992,97.23423915077001 15.450381679343991,99.34854835788428 18.858015267178416,99.27687715773936 19.572519084089436,99.67106849950505 19.764885496115312,107.55476233022637 21.908396946499124,108.48645486214082 23.502290076343343,107.26808699313551 24.848854961805046,107.01724579840084 25.288549618329853,108.59395761901396 24.958778625936247,110.49316522169102 27.541984732844867,113.50319998641498 27.624427480972372,115.04403682569682 31.196946564828977,115.43820283486275 31.96641221374739,114.6857035405119 31.609160305350088,104.18630596362345 31.306870229076594,102.50206043674552 29.822900763363577,101.9645328346378 29.85038167925086,100.17276565483189 29.32824427471496,99.16937031823909 27.789312977110967,97.34174683825404 25.893129770993255,97.84344875713577 23.419847328215837,96.55335603556887 20.56183206103742,97.12673141602136 19.46259541984182,95.11991172129638 16.906870228936896,95.08407550617994 16.1374045801349,93.82980467709422 15.945038167992607,90.81952852271206 12.619847328169271,92.61136401673139 13.141984732937999,95.83663492534833 15.148091603070498,97.19840324440156 15.28549618308898,99.16937031823909 19.490076335845515,99.59939739362744 19.682442747987807,107.48309352737851 22.018320610630326,108.52228911970451 23.36488549609203,107.44725911809655 24.848854961805046,107.16058365539357 24.958778625936247,110.74400286258606 27.59694656485226,113.43153292126954 27.81679389299825,115.1873699931457 31.279389312956482,115.43820283486275 31.91145038162358,114.72153689265542 31.471755725098774,102.89624659650144 31.114503816817887,102.3228847001883 29.93282442749478,102.21537919549155 29.740458015236072,99.7069040446222 27.706870228983462,97.44925447861897 25.86564885498956,97.84344875713577 23.337404579971917,96.6250280313252 20.506870228913613,97.23423915077001 19.654961832100525,95.29909271867655 16.961832061060704,94.97656682920933 16.164885496138595,93.61478617676767 16.054961832007393,90.92703902139328 14.95572519081179,91.03454947298451 13.96641221374739,92.28883459375356 12.400000000023283,93.00556606917235 13.306870228960179,96.05165147832304 15.065648854942992,97.12673141602136 15.312977099209093,99.16937031823909 19.46259541984182,99.59939739362744 19.81984732823912,107.66226549522253 21.935877862619236,108.48645486214082 23.832061068620533,107.23225255247962 24.876335877925158,107.23225255247962 25.261068702326156,108.52228911970451 24.931297709816135,110.60066709927924 27.514503816724755,113.43153292126954 27.706870228983462,115.15153670916334 31.774045801488683,115.25903654561262 31.938931297743693,110.24232732440578 34.68702290079091,109.7764848346269 35.236641221214086,109.05980235396419 35.401526717469096,88.99184283522482 47.053435114445165,88.5617971651518" stroke="#4dd2ff" stroke-linecap="round" stroke-linejoin="round" stroke-width="0.5"><title>2023-04-03 10.0km</title></polyline><polyline fill="none" points="78.39999999999418,102.23117079136318 84.21117533717188,102.23519110665984 88.20963391134865,102.30353637681401 92.51637764931365,102.28343484438847 93.59537572252157,102.17890663907019 100.18342967241188,101.8291362957043 101.23776493254991,101.88542147868975 103.92909441230586,101.81707517009454 104.6566473988205,101.8371770431786 105.07899807320791,101.90552330185346 107.77341040459578,101.76481023134329 112.11714836221654,101.74470830538121 112.59499036606576,101.76078984732158 112.8477842003631,101.89748257434621 113.09749518302851,101.87738074531262 113.26705202310404,101.76481023134329 114.63275529863313,101.72058597485011 117.70327552984236,101.74872869174214 118.5325626203994,101.70048401659187 118.67129094409756,101.75274907752646 120.2096339113341,101.69646362318417 120.30520231211267,101.74068791843274 121.32870905585878,101.72460636474716 121.59999999999127,101.78089176152389" stroke="#4dd2ff" stroke-linecap="round" stroke-linejoin="round" stroke-width="0.5"><title>2023-03-31 11.9km</title></polyline><polyline fill="none" points="144.39999999999418,101.07932178599003 144.5478608100384,101.1307414994044 155.711351968057,101.16287875924354 156.65766115230508,101.07289431336358 161.8648260125483,100.799724990693 162.6287735310907,100.83829027719185 165.12515687393898,100.80293876715405 165.7708157444431,100.85435912660796 167.9147974900261,100.75151828749767 171.24905875642435,100.7322355766355 171.7715002852201,100.75473207099458 171.9242897889344,100.85114535767025 172.07954363948375,100.86400043062531 172.29147746719536,100.74509071909051 173.61729606389417,100.71616663801069 185.5225556189398,100.70973905926803 185.7172390188207,100.75794585402946 185.71231032516516,101.34284654674775 185.635915573308,101.51638551889664 185.6654877352994,101.87310021804115 185.77145464917703,101.97272220885316 185.96860239589296,101.98879022963592 186.02528237308434,102.15268337130692 186.2865031374822,102.09483887248643 186.5107586993836,102.20410057588742 186.6364403878979,102.1687512606477 186.73254991443537,102.2073141471883 186.87301768397447,102.39691402283643 186.87301768397447,102.58972577991335 187.01841414718365,102.6411419630731 187.07755847119552,103.29026094073379 187.35110096975404,103.2452731144167 187.35602966343868,102.43869004694352 187.40038790645485,102.40655465082091 187.59999999999127,102.43226297147339" stroke="#4dd2ff" stroke-linecap="round" stroke-linejoin="round" stroke-width="0.5"><title>2023-03-15 16.1km</title></polyline><polyline fill="none" points="55.59999999997672,141.25828060104686 54.17877094971482,141.32821854228678 54.17877094971482,137.76135748605884 53.615642457967624,136.78220985928783 34.898324022302404,137.41166236480058 34.49608938547317,139.3349792095687 34.898324022302404,147.79738974838983 34.25474860344548,151.71377601013228 34.630167597555555,157.13366916659288 34.06703910615761,157.65816844411893 31.868156424490735,157.90293438035587 31.412290502805263,157.4483688710461 30.983240223373286,150.69971785735106 29.427932960912585,150.2801063306979 29.427932960912585,148.11210172620486 27.60446927382145,145.8042042813031 25.405586592038162,146.01401405937213 23.01899441331625,144.75515263272973 20.149720670306124,145.31464741738455 19.452513966476545,143.49628458588268 16.690502793178894,143.11162914012675 16.100558659178205,142.02759683088516 15.91284916200675,139.2300714164303 14.759776536258869,139.36994846364541 14.035754189942963,140.5239309843746 12.694972067140043,140.94355961259862 12.694972067140043,145.3845841735747 14.86703910608776,145.20974224492966 15.40335195523221,147.412741213775 19.103910614503548,147.5526134797401 19.398882681620307,147.9372617896879 19.425698324106634,155.3503630275809 21.67821229051333,156.4343350090785 23.179888268117793,155.24546225270024 24.574301675893366,155.00069359940244 24.762011173181236,158.7421299763373 27.148603351903148,161.15480092873622 27.282681564218365,162.79820055460732 30.500558659317903,163.21779014071217 31.385474860318936,162.76323472263175 31.385474860318936,154.33632027894782 30.95642458088696,150.69971785735106 29.374301675823517,150.2101710048155 29.40111731842626,148.14706969817053 28.757541899452917,147.0980283166282 27.229050279245712,145.62936265910685 25.512849161983468,146.04898233778658 22.911731843603775,144.82508955225057 20.149720670306124,145.3845841735747 19.69385474862065,143.7060963867698 17.173184357467107,143.3913786165358 16.207821229007095,142.51716041711916 15.993296089349315,139.30000995026785 14.572067039087415,139.43988695660664 13.955307262483984,140.55890006486152 12.453631284995936,141.25828060104686 13.150837988825515,144.0907508773962 15.054748603375629,145.24471064080717 15.376536312745884,147.412741213775 19.318435754161328,147.58758153332747 19.47932960896287,155.42029685195303 21.705027932999656,156.3294347092742 23.287150837946683,155.21049531760218 24.627932960749604,155.10559448153072 24.976536312839016,156.39936824751203 24.547486033523455,158.35749902667885 27.094972066930495,161.08486877952237 27.282681564218365,162.79820055460732 30.58100558654405,163.1478585940058 31.385474860318936,162.76323472263175 31.385474860318936,153.91671512648463 30.92960893851705,150.69971785735106 29.40111731842626,150.38500928127905 29.427932960912585,148.21700562682236 27.443575418903492,145.76923596714914 25.593296089442447,146.08395061119518 22.911731843603775,144.82508955225057 20.28379888262134,145.41955254403 19.640223463764414,143.6011905093619 16.7977653631242,143.32144127816719 16.02011173183564,141.92269021789252 15.939664804376662,139.3349792095687 14.706145251286216,139.40491771274537 13.955307262483984,140.55890006486152 12.400000000023283,141.2932495742716 13.177653631311841,144.1956565403816 15.135195530718192,145.41955254403 15.215642458177172,147.27286886613 19.34525139676407,147.62254958201083 19.559776536305435,155.49023065583606 21.731843575369567,156.4343350090785 23.287150837946683,155.21049531760218 24.654748603352346,155.1405614320538 24.654748603352346,158.56729780310707 27.094972066930495,161.15480092873622 27.363128491677344,162.9030980200332 31.358659217716195,162.97302963816037 31.492737430264242,158.21763307366928 34.57653631281573,157.13366916659288 34.7642458101036,137.5865099892544 36.5340782123385,137.09693631896516 44.49832402227912,137.0619667327992" stroke="#4dd2ff" stroke-linecap="round" stroke-linejoin="round" stroke-width="0.5"><title>2023-03-06 10.0km</title></polyline><polyline fill="none" points="78.50477209500968,150.0984579144024 78.39999999999418,150.1105137564482 78.41232612883323,150.19490450275225 78.60954419001064,150.25920204044814 87.69390113417467,150.2431276701136 88.89878022683843,150.30340651043662 91.9310079178249,150.24714626358218 92.54115129467391,150.29938792519533 93.3916541836079,150.18686729997353 100.44836293600383,149.82117208918498 101.25264284184959,149.88547050048328 104.09689706825884,149.83322805274656 105.11688422855514,149.90154507982515 106.93498823026312,149.86135861385446 107.8625294243393,149.77294818207156 112.05649475712562,149.74481753054715 112.61117055424256,149.76892951933587 112.88850845281559,149.90556372319043 113.09188957842707,149.88547050048328 113.24596618874057,149.76491085599991 114.4446822169848,149.72070552061996 117.443013053693,149.71668685025543 117.89291675583809,149.75687352757814 118.09937941364478,149.71266817928517 120.96828589770303,149.6965934895652 121.59999999999127,149.74481753054715" stroke="#4dd2ff" stroke-linecap="round" stroke-linejoin="round" stroke-width="0.5"><title>2023-03-03 12.1km</title></polyline><polyline fill="none" points="187.59999999997672,141.16651402509888 187.57223650382366,136.53223215413163 175.13419023132883,136.3874094493076 167.83239074540325,136.89428854582366 167.304884318728,137.69081074596033 167.66580976860132,148.9504643433611 167.11053984577302,151.59333141738898 167.69357326475438,153.1862787820137 167.6102827761788,157.53062865174434 165.0005141387228,158.0374645099364 164.13984575832728,157.6030338378332 163.61233933153562,150.6158359205583 161.97429305908736,150.2175959092565 161.9465295629343,147.86434641653614 160.47506426728796,145.80070924272877 159.55886889446992,145.43866586168588 158.05964010278694,145.94552644720534 155.2832904882962,144.64216856175335 152.4236503855791,145.22143957929802 151.84061696659774,143.3388038223202 149.0642673522234,142.61470933872624 148.31465295620728,141.3837438615592 148.17583547555842,138.81317859177943 146.84318766067736,139.0666157890082 146.1213367608143,140.2251825332496 144.73316195362713,140.58723353009555 144.42776349605992,141.27512896711414 145.20514138811268,143.84566870208073 147.23187660658732,145.07662195172452 147.34293059119955,147.24887747853063 150.53573264775332,147.06785691180266 151.59074550122023,147.42989791311265 151.7295629818691,155.57568063333747 152.75681233918294,156.37214279834006 154.089460154064,156.55315656992025 155.56092544971034,155.4308690555772 157.11568123381585,155.21365153034276 157.06015424162615,158.8701211699372 159.6976863751188,161.54908449033974 159.80874035984743,163.3591784509481 160.58611825178377,163.54018712007382 163.58457583538257,163.54018712007382 164.08431876602117,163.1419678736711 163.58457583538257,150.65203952629236 162.02982005139347,150.2175959092565 161.9465295629343,147.90055042401946 160.1419023135677,145.69209628399403 157.97634961432777,145.9093221539806 155.3388174806023,144.64216856175335 152.5347043700749,145.2576439728873 151.8683804627508,143.4474178123637 149.2308483289089,142.94055211817613 148.37017994839698,141.99922736432927 148.09254498709925,138.84938392158074 146.84318766067736,139.0666157890082 145.98251928016543,140.33379788784077 144.40000000002328,141.09410403727088 145.1218508996535,143.84566870208073 147.09305912593845,145.18523518032453 147.45398457569536,147.3574897551298 149.75835475570057,147.06785691180266 151.53521850903053,147.46610198402777 151.7295629818691,155.6480863904435 154.089460154064,156.55315656992025 155.50539845752064,155.5394777468464 157.06015424162615,155.21365153034276 157.42107969138306,156.7703729212808 157.0879177377792,158.90632357001596 159.66992287919857,161.62148850258382 159.8365038560005,163.3229767013254 163.77892030845396,163.5039853968774 163.9455012853723,155.46707195791532 163.52904884307645,150.68824312671495 161.9465295629343,150.29000323171203 161.91876606666483,148.0091624150955 159.8920308483066,145.58348327765998 157.92082262202166,145.94552644720534 155.56092544971034,144.64216856175335 152.56246786634438,145.29384836116515 151.81285347032826,143.4474178123637 148.89768637530506,143.08537099372188 148.09254498709925,141.60097350769502 148.1203084831359,138.9217945652781 146.89871465286706,139.03041049103194 146.0102827763185,140.2613876567193 144.53881748067215,140.6958487260854 144.40000000002328,141.52856364668696 145.34395886887796,144.1353053109051 147.20411311043426,145.2576439728873 147.23187660658732,147.24887747853063 151.59074550122023,147.68332629924407 151.75732647813857,155.57568063333747 154.0339331618743,156.69796749198576 155.42210796906147,155.5032748550293 156.97686375316698,155.17744859101367 157.39331619546283,156.69796749198576 157.14344473008532,159.0149307383399 159.66992287919857,161.62148850258382 159.80874035984743,163.3591784509481 163.33470437012147,163.6125905506924 164.0565552698681,163.17816964985104 164.0565552698681,158.5080968789116 167.27712082257494,157.49442605084914 167.41593830334023,137.03911095451622 175.7172236503102,136.42361513337528 182.85244215931743,136.53223215413163" stroke="#4dd2ff" stroke-linecap="round" stroke-linejoin="round" stroke-width="0.5"><title>2023-03-01 10.1km</title></polyline><polyline fill="none" points="55.59999999997672,189.33906547781953 54.56559546315111,189.23257212642056 54.34782608691603,184.93730138542014 41.826086956541985,184.68881232508284 35.21134215500206,185.2212885717745 34.748582230648026,185.9667533569591 34.6124763705302,191.39792776407558 35.12967863900121,204.10569163004402 34.558034026413225,205.66749384890136 32.18979206052609,205.98695215713815 31.6181474479381,205.38353055570042 31.237051039701328,198.88777961516462 29.63100189040415,198.28434038595879 29.576559546403587,196.01255573033995 27.698298676754348,193.70525270119833 25.792816635221243,193.9537325415149 23.097920604865067,192.71133079889114 20.294139886507764,193.31478386727395 19.640831758151762,191.46892270429817 16.455954631208442,190.82996749649465 15.965973534970544,189.76503841653175 15.965973534970544,187.06719719317334 14.741020793910138,187.35118189032073 13.924385633203201,188.4871173602005 12.61776937614195,188.91309179241944 12.42722117190715,189.6585452518775 13.298298676731065,192.10787623205397 15.122117202263325,193.38577824737877 15.231001890264452,195.26712176272122 19.423062381800264,195.65758745952917 19.477504725800827,203.5022653574415 21.682419659686275,204.46064756117994 23.370132325100712,203.28929102106486 24.73119092627894,203.25379528022313 25.085066162631847,204.63812533234886 24.73119092627894,206.48388646864623 27.39886578451842,209.50096583298 27.480529300519265,211.09822797987727 30.9376181474654,211.34669003701129 31.78147448017262,210.88526030012872 31.264272211818025,198.92327599388955 29.65822306240443,198.2488439140434 29.08657844993286,195.30261867004447 27.56219281652011,193.70525270119833 25.765595463104546,194.06022382396623 23.15236294886563,192.8178226257587 20.40302457474172,193.3502810599748 19.72249527403619,191.57541507556743 16.78260869567748,191.18494281930907 16.020415879087523,189.72954070007836 15.965973534970544,187.20918958327093 14.795463138027117,187.38667995424476 14.142155009438284,188.41612154895847 12.753875236259773,188.84209610559628 12.400000000023283,189.55205204058439 13.37996219273191,192.32086036792316 15.067674858262762,193.38577824737877 15.258223062381148,195.30261867004447 19.45028355391696,195.72858115524286 19.640831758151762,203.64424814454105 21.954631380038336,204.46064756117994 23.31568998110015,203.36028248725052 24.703969754162244,203.1118122649059 25.11228733463213,204.70911640443956 24.703969754162244,206.34190534055233 27.344423440401442,209.35898646739952 27.453308128518984,210.99174416335882 30.91039697546512,211.38218459588825 31.69981096405536,210.60130310356908 31.318714555702172,198.99426873546327 31.01928166358266,198.49731910855917 29.65822306240443,198.2488439140434 29.603780718287453,195.97705892662634 28.024952740990557,193.98922964077792 27.20831758028362,193.56326410683687 25.711153118987568,194.02472673494776 23.370132325100712,192.7468280796602 20.375803402625024,193.31478386727395 19.66805293003563,191.53991762360965 16.7553875236772,191.11394779625698 16.102079395088367,189.76503841653175 15.965973534970544,187.1381933986122 14.795463138027117,187.38667995424476 14.060491493204609,188.5226152580144 12.50888468802441,189.12607872842636 13.080529300495982,191.78839967820386 15.122117202263325,193.31478386727395 15.312665406381711,195.3381155723764 19.477504725800827,195.69308430999808 19.72249527403619,203.64424814454105 21.791304347803816,204.46064756117994 23.451795841217972,203.32478675668244 24.758412098395638,203.1118122649059 25.11228733463213,204.63812533234886 24.785633270279504,206.55487700173398 27.426086956518702,209.42997616056527 27.56219281652011,211.02723877402605 31.10094517946709,211.38218459588825 31.754253308055922,210.9207549264247 31.808695652289316,206.30641004559584 34.69413988664746,205.63199845541385 35.02079395088367,205.0995669306576 34.96635160676669,187.67066427799 35.320226843003184,185.18579019160825 53.912287334678695,184.61781540411175" stroke="#4dd2ff" stroke-linecap="round" stroke-linejoin="round" stroke-width="0.5"><title>2023-02-22 10.2km</title></polyline><polyline fill="none" points="78.39999999999418,198.2628488581613 81.18146189735853,198.24532578945582 85.22600311042333,198.32417951798743 89.56951788491278,198.27599115297016 89.92895800933184,198.31541800284685 91.08790046656213,198.18399496834354 98.35396578538348,197.80724574375927 99.41884914464026,197.88171980306106 100.02015552099328,197.82038823826042 102.4052255054412,197.80724574375927 103.63807153966627,197.89924308425725 107.68933125972399,197.71962896659534 111.32740279939026,197.7240098115417 111.84472783826641,197.74591402662918 112.0294867807097,197.9036239029574 112.3116640746448,197.89048144493972 112.53673405908921,197.74153318489516 114.11222395022924,197.68896303410656 117.57225505443057,197.732771499499 117.85443234836566,197.68020133335995 120.85088646966324,197.6758204820144 121.60000000000582,197.75905654801136" stroke="#4dd2ff" stroke-linecap="round" stroke-linejoin="round" stroke-width="0.5"><title>2023-02-17 11.0km</title></polyline><polyline fill="none" points="144.39999999999418,198.0906561980173 144.9797863598942,198.0945138368861 145.03007395233726,198.2603917751967 145.7074774034554,198.20638511899597 152.90156121610198,198.2295308423145 153.75053410023975,198.28353745118875 155.20295809366507,198.22181560346326 155.47510271158535,198.2642493892672 157.34757600657758,198.2642493892672 164.911421528348,197.8244777548698 165.91421528348292,197.87848519219733 168.69186524239194,197.8244777548698 169.8396055875055,197.89005820011516 173.00476581758994,197.74346639175383 174.62580115038145,197.77818557780847 176.2261298274534,197.7396087015968 176.7911257189844,197.77432789272825 176.96565324568655,197.90548886943725 177.20230073951825,197.89391586828788 177.42119967131293,197.7511817703762 178.4476581758354,197.71646254881307 187.60000000000582,197.74346639175383" stroke="#4dd2ff" stroke-linecap="round" stroke-linejoin="round" stroke-width="0.5"><title>2023-02-03 12.5km</title></polyline><polyline fill="none" points="55.59999999997672,237.39183751991368 54.52000000013504,237.21579077563365 54.0339999999851,232.7089503393654 34.917999999946915,233.09626024929457 34.567000000039116,233.90608804984367 35.05299999995623,243.09568246208073 34.53999999992084,248.2008613034559 35.02600000007078,250.6301843006513 34.64799999992829,253.1298968991905 34.18900000001304,253.62279491535446 31.758999999961816,253.7284157875838 31.353999999933876,253.27072500668874 30.840999999898486,246.54609104011615 29.32900000002701,246.15880274222582 29.30199999990873,243.90547666608472 27.51999999990221,241.75775564234937 25.440999999875203,241.89859039415023 23.037999999825843,240.66628352570115 20.09499999997206,241.264833363035 19.47399999992922,239.53959744681197 16.503999999840744,238.8706250955729 15.963999999919906,237.88476771987916 15.721000000019558,234.99759077989438 14.61399999994319,235.24405845422007 13.830999999889173,236.47639304531913 12.534999999916181,236.72285920740978 12.400000000023283,237.42704685329227 13.29099999985192,240.0325232543255 15.126999999862164,241.12399824087333 15.23499999998603,243.09568246208073 19.33900000003632,243.48297568169073 19.608999999938533,251.33433131722268 21.849999999976717,252.35534083760285 23.36199999996461,251.15829475595092 24.84699999995064,251.1230874282046 24.684999999939464,254.32693318999372 27.35800000000745,257.10825926625694 27.465999999898486,258.86857564296224 30.597999999998137,259.185431225691 31.461999999941327,258.65733835655556 31.00299999990966,246.68692299409304 29.32900000002701,246.0531785529747 29.355999999912456,244.08151852432638 28.54599999997299,242.7788057285361 27.30399999988731,241.51129462868266 25.575999999884516,241.93379906930204 23.06499999994412,240.66628352570115 20.229999999981374,241.264833363035 19.36599999992177,239.39876131659548 16.908999999868684,239.25792510414612 16.04499999980908,237.91997698128398 15.829000000027008,234.99759077989438 14.72199999995064,235.24405845422007 14.154999999911524,236.2651361344033 12.72399999992922,236.72285920740978 12.400000000023283,237.39183751991368 13.317999999970198,240.10294114459248 15.126999999862164,241.30004213062057 15.261999999871477,243.1660994572594 19.311999999918044,243.30693338626588 19.63600000005681,251.40474590573285 21.82299999985844,252.39054798535653 23.578000000095926,251.0526727574761 24.765999999945052,250.98225806609844 24.657999999821186,254.36214004972135 27.331000000005588,257.14346571982605 27.412000000011176,258.83336944144685 30.273999999975786,259.2910496606346 31.29999999993015,258.9389880307572 31.489000000059605,258.4108946217166 31.408000000054017,249.99645022700133 30.921999999904074,246.4756750321394 29.518000000040047,246.22921884259267 29.112999999895692,243.44776723287941 27.465999999898486,241.61692080824287 25.60299999988638,242.0042164039769 23.06499999994412,240.7014923808456 20.17599999997765,241.3352508932294 19.63600000005681,239.53959744681197 17.205999999889173,239.18750696702045 16.20699999993667,238.27206931257388 15.856000000028871,235.06801014117082 12.534999999916181,237.03974390267103 13.317999999970198,240.0325232543255 15.180999999982305,241.3352508932294 15.28899999987334,243.1660994572594 19.25799999991432,243.4125587788585 19.63600000005681,251.47516047372483 21.82299999985844,252.35534083760285 23.55099999997765,251.0526727574761 24.765999999945052,250.98225806609844 25.062999999849126,252.46096226535155 24.657999999821186,254.25651945499703 27.30399999988731,257.14346571982605 27.384999999892898,258.7981632347801 30.94900000002235,259.07981274437043 31.59699999995064,258.55171964391775 31.515999999945052,254.18610569959856 34.162000000011176,253.55238097469555 34.7829999999376,252.6017907635105 34.9989999999525,233.13147021020995 54.16899999999441,232.7793703692878" stroke="#4dd2ff" stroke-linecap="round" stroke-linejoin="round" stroke-width="0.5"><title>2023-01-30 10.2km</title></polyline></svg>