<?xml version="1.0" encoding="utf-8" ?>
<svg baseProfile="full" height="300mm" version="1.1" viewBox="0,0,200,300" width="200mm" xmlns="http://www.w3.org/2000/svg" xmlns:ev="http://www.w3.org/2001/xml-events" xmlns:xlink="http://www.w3.org/1999/xlink"><defs /><rect fill="#222222" height="300" width="200" x="0" y="0" /><text fill="#FFFFFF" style="font-size:12px; font-family:Arial; font-weight:bold;" x="10" y="20">Over 10km Runs</text><text fill="#FFFFFF" style="font-size:4px; font-family:Arial" x="10" y="280">ATHLETE</text><text fill="#FFFFFF" style="font-size:9px; font-family:Arial" x="10" y="290">chending</text><text fill="#FFFFFF" style="font-size:4px; font-family:Arial" x="120" y="280">STATISTICS</text><text fill="#FFFFFF" style="font-size:3px; font-family:Arial" x="120" y="285">Number: 18</text><text fill="#FFFFFF" style="font-size:3px; font-family:Arial" x="120" y="290">Weekly: 1.2</text><text fill="#FFFFFF" style="font-size:3px; font-family:Arial" x="141" y="285">Total: 203.3 km</text><text fill="#FFFFFF" style="font-size:3px; font-family:Arial" x="141" y="290">Avg: 11.3 km</text><text fill="#FFFFFF" style="font-size:3px; font-family:Arial" x="167" y="285">Min: 10.0 km</text><text fill="#FFFFFF" style="font-size:3px; font-family:Arial" x="167" y="290">Max: 16.1 km</text><polyline fill="none" points="12.25,52.7827699881509 15.062029446213273,52.76951528686732 16.136021415426512,52.826952283816354 16.383344487199793,52.778351755037875 19.85941944118531,52.76067881611016 20.41166136857646,52.80486114406449 21.495817299641203,52.68115046314779 28.779989961505635,52.296760475577685 29.992889409404597,52.36303495993707 30.907645976243657,52.30117877904922 33.07256985109416,52.296760475577685 34.251589426145074,52.38070813122613 37.883511795225786,52.19955763580401 40.01116780994926,52.243740783527755 42.00330433328054,52.18188435864977 42.49795047684165,52.20397595347458 42.72833361219091,52.376289839374294 42.98582064581569,52.371871546865805 43.23653170488251,52.22164921774129 44.71369416094967,52.173047716185465 52.75,52.18630267890694" stroke="#4dd2ff" stroke-linecap="round" stroke-linejoin="round" stroke-width="0.5"><title>2023-09-01 10.2km</title></polyline><polyline fill="none" points="94.17537881399039,32.25 88.68639995437115,32.385914885177044 89.79809187538922,36.644551108649466 89.27698628732469,57.21203470430919 89.65913038514555,63.69005654277862 89.55490926769562,65.09436510995147 88.89484218962025,65.50206640633405 86.1156123871915,65.68326681040344 85.3860645639943,65.1849654444668 84.83021860360168,56.48721265551285 82.85001736949198,55.852991973020835 82.85001736949198,53.22549247200368 80.45293166488409,50.099645106412936 77.91688447038177,50.37145917140879 74.61654908000492,48.876478865218814 71.00355033704545,49.55601626151474 69.71815655345563,47.01906905177748 66.24411930062342,46.611343457363546 65.54931184987072,45.388163458002964 65.37560998729896,41.5826837180648 63.77755285112653,41.8092016762821 62.80482242011931,43.25891269129352 60.82462118600961,44.210281861858675 61.901572734466754,47.97042668744689 64.33339881151915,49.55601626151474 64.68080253666267,52.18354685077793 69.82237767113838,52.22884890710702 70.30874288652558,62.73874712639372 72.91427082603332,63.916558354656445 74.65128945268225,62.37634277169127 76.56200994167011,62.013937993586296 77.11785590217914,63.82595764970756 76.7357118044747,66.45336734692683 80.00130682217423,70.03204475078383 80.20974905742332,72.16111171717057 84.41333413333632,72.75 85.49028568179347,71.97991509750136 85.42080493667163,60.83611953994841 84.79547823115718,56.260705417749705 82.91949811461382,55.76238891261164 82.85001736949198,53.04428478941554 82.05098880128935,51.82113016198855 80.07078756717965,49.78252839599736 77.81266335281543,50.280854509503115 74.51232796243858,48.69526864142972 71.03829070948996,49.55601626151474 69.99607953371014,47.06437186241965 66.4873019082006,46.7925548988278 65.58405222243164,45.206951195898 65.4450907324208,41.49207648841548 63.742812478449196,41.854505248047644 60.85936155857053,44.527404270134866 61.93631310691126,48.0610320243286 64.22917769383639,49.42010890127858 64.54184104665183,52.00233855936676 69.92659878882114,52.54596311613568 69.96133916114923,62.466943900159094 72.60160747345071,63.87125800544163 74.79025094280951,62.240441029542126 76.7357118044747,62.10453922781744 76.83993292204104,66.81576693765237 80.00130682217423,70.12264364270959 80.45293166488409,72.25170998720569 84.76073785871267,72.52350463886978 85.5597664269153,71.66282075841445 84.96918009384535,56.668418326589745 84.58703599590808,55.98889651411446 82.91949811461382,55.717087372380774 82.57209438935388,52.3194529999746 80.07078756717965,49.8278308029694 78.02110558806453,50.32615684380289 74.72077019768767,48.78587376646465 71.07303108216729,49.51071381469956 70.16978139639832,47.200280254968675 66.34834041830618,46.430131910019554 65.47983110498171,41.49207648841548 63.81229322345462,41.8092016762821 62.73534167511389,43.21360932462267 60.894101931131445,44.02906891150633 61.2762460289523,49.51071381469956 64.12495657627005,49.51071381469956 64.75028328190092,52.13824478787137 69.82237767113838,52.63656711622025 70.06556027871557,62.55754500196781 72.74056896346156,63.82595764970756 74.75551057024859,62.28574161679717 76.66623105923645,61.96863736648811 77.15259627485648,63.916558354656445 76.59675031423103,66.31746739108348 77.5,67.85766340245027 80.03604719450232,69.98674529476557 80.31397017487325,72.20641085549141 84.3785937607754,72.61410280325799 85.5597664269153,71.79871837203973 85.00392046617344,56.71371972779161 84.51755525090266,55.852991973020835 82.98897885961924,55.80769044609042 82.64157513424288,52.274150956916856 80.10552793974057,49.78252839599736 77.88214409782086,50.37145917140879 74.79025094280951,48.74057120725047 71.03829070948996,49.51071381469956 69.96133916114923,46.97376623447053 66.38308079063427,46.38482900671079 65.68827333999798,44.98043571942253 65.47983110498171,41.537380106485216 63.67333173332736,41.89980881320662 62.943783910246566,43.12300257146126 60.82462118600961,44.436797900823876 62.17949571472127,48.287545250728726 64.26391806651372,49.51071381469956 64.61132179165725,52.13824478787137 68.36328202486038,51.911734373949 69.85711804358289,52.59126511955401 69.96133916114923,62.42164333924302 72.77530933602247,63.69005654277862 74.75551057024859,62.28574161679717 76.63149068679195,61.96863736648811 77.15259627485648,63.780657287250506 76.7357118044747,66.7704670120147 80.00130682217423,70.03204475078383 80.10552793974057,72.25170998720569 80.9045565079432,72.16111171717057" stroke="#4dd2ff" stroke-linecap="round" stroke-linejoin="round" stroke-width="0.5"><title>2023-06-19 10.7km</title></polyline><polyline fill="none" points="142.75,44.43260368882329 141.86072772892658,44.167539562578895 141.7590966122225,40.290941322469735 141.22553324955516,39.992738713364815 124.38017565873452,40.22467410992249 123.36386449181009,40.65541064557328 123.28764115425292,59.275700404527015 120.97553324955516,59.83892378612654 120.44196988712065,59.37509286761633 119.90840652445331,53.14641436081729 118.58720200741664,52.74883332983882 118.48557089082897,50.66152148338733 116.9356963612372,48.54105803447601 114.75062735262327,48.60732281731907 112.33688833122142,47.480818876152625 109.74529485567473,47.97780659876298 109.13550815556664,46.35430934003671 107.00125470513012,46.02298194116156 106.01035131735262,45.29405995977868 105.65464240906294,42.14641541398305 104.4858845671406,42.37834860813746 103.6474278542446,43.53801102134457 102.50407779158559,43.83620896920911 102.2754077790305,44.366337686311454 102.96141781681217,45.559122769511305 103.03764115425292,46.751901579860714 104.81618569628336,48.077204012530274 105.01944792980794,49.86635001312243 108.90683814301156,50.23080394975841 109.05928481800947,57.51975970879721 111.19353826832958,58.51369007404719 112.5655583437765,57.42036643279425 113.93757841887418,57.28784199694928 113.86135508154985,60.40214576935978 116.3005018819822,63.0194531067973 116.35131744027603,64.57657099256176 119.24780426593497,64.87474128334725 120.08626097859815,64.87474128334725 120.41656210785732,64.37779058099841 119.98462986189406,54.17349546561309 119.73055207019206,52.914492177427746 118.5363864491228,52.71570154573419 118.23149309901055,50.36333250872849 116.83406524464954,48.54105803447601 116.24968632368837,48.24286627219408 114.8268506899476,48.57419042836409 112.5655583437765,47.480818876152625 109.79611041396856,47.94467411772348 109.11010037630331,46.3211766218883 107.05207026342396,46.02298194116156 106.01035131735262,45.29405995977868 105.65464240906294,42.179548742002225 104.4858845671406,42.4446151915472 102.25,44.26693864625122 103.08845671266317,46.818166885423125 104.79077791713644,48.0440715461591 104.94322459213436,49.76695338339778 108.90683814301156,50.29706823886954 109.08469259715639,57.58602186862845 111.11731493100524,58.51369007404719 112.48933500621933,57.42036643279425 113.96298619813751,57.38723533105804 113.8105395231396,60.20336169975053 116.3005018819822,63.05258338582644 116.50376411539037,64.642831091056 120.34033877030015,64.57657099256176 119.90840652445331,53.24580950976815 118.48557089082897,52.61630616459297 118.00282308657188,49.932614408797235 116.40213299856987,48.24286627219408 114.75062735262327,48.57419042836409 112.51474278536625,47.447686322557274 109.79611041396856,47.97780659876298 109.18632371386047,46.35430934003671 107.02666248427704,46.02298194116156 105.9849435382057,45.12839554641687 105.70545796735678,42.179548742002225 104.56210790458135,42.31208200551919 103.77446675032843,43.43861161827226 102.30081555829383,44.13440652504505 103.03764115425292,46.78503423510119 104.79077791713644,47.97780659876298 105.01944792980794,49.89948221342638 108.93224592227489,50.19767179789778 108.98306148056872,57.45349752967013 109.89774153067265,58.21551142168755 111.24435382685624,58.48055913198914 112.5655583437765,57.35410422454879 113.91217063984368,57.28784199694928 113.91217063984368,60.56779902774724 116.32590966112912,63.08571366011165 116.50376411539037,64.60970104417356 119.73055207019206,65.00726128664974 120.34033877030015,64.60970104417356 119.90840652445331,53.080150904119364 118.51097866997588,52.649437963205855 118.4093475532718,50.4627288771444 116.70702634868212,48.40852841081505 114.80144291080069,48.60732281731907 112.61637390207034,47.447686322557274 111.574654955999,47.6464815713116 112.48933500621933,47.51395142490219 114.67440401494969,48.67358758090995 116.3005018819822,48.34226356988074 117.59629861975554,49.369366428640205 118.4093475532718,50.42959675924794 118.38393977412488,52.61630616459297 119.93381430360023,53.01388742798008 120.31493099103682,56.75774347939296" stroke="#4dd2ff" stroke-linecap="round" stroke-linejoin="round" stroke-width="0.5"><title>2023-06-02 10.0km</title></polyline><polyline fill="none" points="147.25,52.722924273621175 160.39662694190338,52.76788327399299 161.40503298574185,52.662978817175826 167.4324856352323,52.33327630203894 168.05878910406318,52.337022945333956 168.4753670993814,52.39696916370849 170.90013832729892,52.33327630203894 172.09528623110964,52.41195569639967 175.02569695679995,52.277076586846306 178.44450947010773,52.26208997532376 179.09379655246448,52.28082323835406 179.26904660566652,52.419448959466536 179.53335816132312,52.40446243115548 179.69424345604784,52.277076586846306 181.02154713768687,52.23211672600701 187.75,52.25459666628194" stroke="#4dd2ff" stroke-linecap="round" stroke-linejoin="round" stroke-width="0.5"><title>2023-05-09 12.1km</title></polyline><polyline fill="none" points="52.75,93.20264813950052 52.184285714291036,93.03498464697623 52.00428571435623,88.60862415077281 49.71571428573225,88.57509079101146 49.072857142891735,89.04455738278921 43.955714285722934,88.54155742631701 33.567142857122235,89.14515724183002 33.23285714292433,101.98804382041271 33.541428571450524,108.15773905233073 32.718571428442374,108.66069602791686 30.995714285760187,108.72775687473768 30.50714285718277,108.32539150006778 30.018571428605355,101.88744958968891 28.630000000004657,101.38447777417605 28.68142857134808,99.47317482481594 27.035714285681024,97.22653522218752 24.721428571501747,97.32713149547635 22.535714285681024,96.18703781631484 19.707142857136205,96.65648884057009 19.295714285806753,95.1475357033487 16.77571428567171,94.71161406145256 15.875714285648428,93.87330088499584 15.669999999925494,90.88888112654968 14.589999999967404,91.05654618659173 13.741428571287543,92.12959967114148 12.48142857151106,92.53199343457527 12.275714285671711,93.16911545082985 12.918571428628638,95.34873002812674 14.770000000018626,96.72355319427152 14.898571428493597,98.60134714188462 18.935714285820723,99.03726139727223 18.96142857137602,106.41414633889508 21.069999999948777,107.42006682824285 22.561428571352735,106.2800232739537 23.821428571478464,106.11236933257896 24.258571428596042,107.28594435090781 23.949999999953434,109.36483394262905 26.44428571430035,111.98018443150795 26.49571428564377,113.4890269300231 29.684285714291036,113.95844257369754 30.558571428526193,113.28784850318334 30.121428571408615,102.18923214990355 29.838571428554133,101.5856666325999 28.655714285676368,101.35094628066872 28.604285714332946,99.406111274453 27.627142857178114,97.99777219111274 26.521428571431898,96.95827827771427 24.875714285648428,97.36066357673553 22.66428571427241,96.18703781631484 19.835714285611175,96.65648884057009 19.2442857142305,95.08047088925377 16.981428571394645,94.64454912004294 16.004285714123398,93.94036605169822 15.69571428571362,90.85534809985256 14.461428571492434,91.09007918389398 12.275714285671711,93.03498464697623 13.149999999906868,95.71758583205519 14.84714285703376,96.75708536378806 14.949999999953434,98.56781524192775 18.935714285820723,99.03726139727223 18.987142857164145,106.31355404756323 21.069999999948777,107.35300559937605 22.612857142812572,106.38061557995388 23.924285714281723,106.21296171208087 24.31000000005588,107.42006682824285 24.027142857084982,109.39836426562397 26.418571428512223,111.91312453482533 26.598571428563446,113.62314578333462 30.60999999998603,113.55608636638499 30.121428571408615,101.88744958968891 28.655714285676368,101.38447777417605 28.707142857136205,99.43964305213012 27.935714285704307,98.23249597166432 26.49571428564377,96.85768184279732 24.875714285648428,97.22653522218752 22.561428571352735,96.11997330599115 19.73285714292433,96.69002101980732 19.089999999967404,94.97987363138236 17.058571428526193,94.6780815932434 16.004285714123398,93.87330088499584 15.618571428582072,90.72121594402415 14.435714285704307,91.05654618659173 12.25,92.90085376476054 13.047142857103609,95.65052118456515 14.795714285690337,96.72355319427152 14.97571428574156,98.60134714188462 18.85857142857276,99.03726139727223 19.064285714295693,106.31355404756323 21.121428571408615,107.386536216276 23.84714285726659,106.07883852966188 24.20714285725262,107.386536216276 23.97571428574156,109.43189458378765 26.367142857052386,111.91312453482533 26.572857142891735,113.55608636638499 29.89000000001397,113.82432391637121 30.60999999998603,113.25431874825153 30.14714285719674,101.95451241506089 28.630000000004657,101.31741478218464 28.552857142756693,99.00372956093634 26.624285714351572,96.92474613769446 24.927142857108265,97.29359940921131 22.484285714221187,96.05290877597872 19.887142857187428,96.65648884057009 19.14142857142724,94.9463412023324 16.49285714281723,94.54395167111943 15.82428571418859,93.50444211742433 15.69571428571362,90.85534809985256 14.564285714295693,91.05654618659173 13.792857142863795,92.12959967114148 12.455714285722934,92.46492785631563 12.25,93.13558275715332 12.84142857149709,95.34873002812674 14.770000000018626,96.72355319427152 14.97571428574156,98.60134714188462 18.910000000032596,99.00372956093634 19.089999999967404,106.41414633889508 21.069999999948777,107.42006682824285 23.872857142821886,106.11236933257896 24.232857142807916,107.55418922711397 23.924285714281723,109.29777328189812 26.418571428512223,111.94665448562591 26.547142857220024,113.52255665065604 29.684285714291036,113.89138325488602" stroke="#4dd2ff" stroke-linecap="round" stroke-linejoin="round" stroke-width="0.5"><title>2023-05-07 11.2km</title></polyline><polyline fill="none" points="57.25,101.45651657801318 59.35524413485837,101.42527909871569 64.93906486166816,101.45304574901093 66.14738450416189,101.50510813084657 66.37361175000842,101.47039988896358 69.31190444895765,101.47734154140016 76.0694453571632,101.08860588155221 76.96104685548926,101.13719818688332 79.83280212919635,101.09901852677285 80.29057961489889,101.16496517388805 82.90150818163238,101.02612991436217 86.41468423473998,101.01224634378377 86.75801734901324,101.02612991436217 86.94698363672069,101.16149430228143 87.18119537360326,101.14761081081815 87.35419267923862,101.02960080574485 88.57848130380444,100.99489186915343 97.75,100.99836276509268" stroke="#4dd2ff" stroke-linecap="round" stroke-linejoin="round" stroke-width="0.5"><title>2023-05-05 13.0km</title></polyline><polyline fill="none" points="142.75,93.19753243243031 142.15819567989092,92.8955462762824 141.8751588310115,88.60058907841449 129.03557814483065,88.76836235132942 123.55495552730281,89.40589967054257 123.4777636595536,108.1621268595627 120.9561626430368,108.76605863486475 120.41581956797745,108.26278226569411 120.00412960606627,101.92140553831996 118.5374841169687,101.55232531133515 118.51175349426921,99.2371721794043 116.76207115629222,97.19042316579726 114.70362134685274,97.35819016450841 112.46505717909895,96.25092570821289 109.66041931393556,96.7542283955263 109.17153748415876,95.17720962285239 106.72712833539117,94.8081185593037 105.85228716640268,93.90216525251162 105.5435196950566,90.9158494205185 104.46283354505431,91.11717530382157 103.84529860224575,92.0566937597032 102.55876747134607,92.56000563724956 102.27573062258307,93.19753243243031 102.97045743325725,95.44563911478326 104.79733163909987,96.85488880057528 104.90025412966497,98.56610893855395 108.91423125797883,98.93519396359625 109.06861499371007,106.41742614484974 111.12706480303314,107.42398586671334 112.54224904696457,106.28321784871514 113.90597204572987,106.08190525750979 114.34339263022412,107.42398586671334 114.03462515876163,109.40354045311688 116.42757306213025,111.98700128871133 116.53049555269536,113.59745568018116 119.72109275730327,113.93296559085138 120.51874205854256,113.19484314076544 120.41581956797745,105.14244416559814 120.05559085134882,101.85430008661933 118.56321473955177,101.41811417274585 118.48602287156973,99.1700659434864 116.42757306213025,97.05620947851276 114.88373570516706,97.42529692972312 112.5165184243815,96.28447925503133 109.68614993651863,96.72067491726193 109.27445997460745,95.21076332655502 106.93297331640497,94.8752260695328 105.92947903415188,94.00282690748281 105.69790343067143,90.8151864126994 104.51429479033686,91.08362100220984 103.6909148665145,92.15735622339707 102.58449809392914,92.45934334989579 102.25,93.16397843463346 102.99618805584032,95.61340738789295 104.77160101640038,96.85488880057528 104.90025412966497,98.63321535072464 108.29669631517027,98.70032174354128 108.96569250314496,99.13651281823695 109.04288437101059,106.38387407823757 111.17852604831569,107.42398586671334 112.56797966954764,106.38387407823757 113.93170266819652,106.21611367119476 114.29193138505798,107.45753778149083 114.00889453617856,109.5377469262894 116.35038119438104,111.95345003552211 116.55622617539484,113.63100669336563 119.82401524775196,113.89941462180286 120.51874205854256,113.42970054129546 120.10705209651496,101.95495825679973 118.6146759847179,101.41811417274585 118.46029224910308,99.13651281823695 116.55622617539484,97.05620947851276 114.85800508258399,97.35819016450841 112.49078780168202,96.25092570821289 109.89199491741601,96.78778186884301 109.22299872944131,95.1101022008661 106.62420584494248,94.7410110294586 105.87801778898574,93.70084181017592 105.62071156292222,90.8822950894828 104.4885641677538,91.08362100220984 103.76810673438013,92.19091036816826 102.25,92.99620837245311 102.94472681067418,95.74762191808259 104.79733163909987,96.92199571280798 104.90025412966497,98.70032174354128 108.93996188067831,99.10295968799619 109.09434561629314,106.48453026352217 111.1527954256162,107.45753778149083 113.13405336719006,106.18256157517317 114.00889453617856,106.31676993014116 113.82878017786425,109.26933390162594 116.4018424396636,112.02055253696744 116.55622617539484,113.63100669336563 120.33862770011183,113.76521069674345 120.51874205854256,109.06802392727695 123.16899618820753,108.53119646645791 123.5806861500023,107.79305665954598 123.68360864045098,89.13746312026342 130.75952986022457,88.56703440916317 137.19218551472295,88.73480770653987" stroke="#4dd2ff" stroke-linecap="round" stroke-linejoin="round" stroke-width="0.5"><title>2023-04-17 10.1km</title></polyline><polyline fill="none" points="147.25,101.49122132402772 151.61705202310986,101.46860706205553 152.99855491328344,101.52137364249029 154.17196531791706,101.4723761070909 156.79046242774348,101.52891171660303 158.04190751444548,101.48745228174084 160.4754335260077,101.52137364249029 161.51878612716973,101.41207132039563 167.45231213873194,101.09169977744386 168.6835260115622,101.13315984829205 171.20664739883796,101.07662337152578 172.30202312138863,101.15200531301343 174.79913294797007,101.02762499144774 178.9060693641659,101.01254854806939 179.32803468208294,101.02385588142533 179.51589595376572,101.15954349505046 179.77023121387174,101.15577440430388 179.92341040461906,101.03893231818438 181.0332369942189,100.99370298148642 184.94075144507224,100.98239563491188 185.1604046242719,101.03516320981544 185.5881502890261,100.97862651829746 186.5997109826567,100.97108828339879 187.75,101.02762499144774" stroke="#4dd2ff" stroke-linecap="round" stroke-linejoin="round" stroke-width="0.5"><title>2023-04-14 12.0km</title></polyline><polyline fill="none" points="52.75,142.03807205246994 52.105916030472144,142.03807205246994 52.234732824377716,137.60326883856033 40.64122137404047,137.5360741927725 33.55629770993255,138.107228056062 33.50477099244017,156.92091537134547 32.96374045801349,157.39123783705872 31.03148854954634,157.4584266821621 30.464694656431675,157.0552933167637 30.026717557222582,150.63865878975776 28.583969465689734,150.30270440642198 28.558206106885336,148.08539316931274 26.96087786264252,146.03604104742408 26.187977099209093,145.73367607370892 24.899809160269797,146.10323320981115 22.32347328250762,144.96096377937647 19.79866412212141,145.43131070252275 19.10305343521759,143.75149584600877 16.810114503838122,143.54991723870626 15.959923664107919,142.74360104279185 15.57347328250762,139.6190990825562 14.517175572458655,139.7870841386466 13.744274809258059,140.89578243164578 12.456106870202348,141.23175055609317 12.507633587927558,145.63288766086043 14.749045801581815,145.53209920384688 15.109732824377716,147.51426408551924 18.30438931309618,147.44707233537338 18.974236641312018,147.8166267182969 19.15458015270997,155.20758968457812 21.16412213735748,156.0810514332552 22.65839694661554,154.93883155606454 23.920801526634023,154.7036679360026 24.333015267155133,156.18183526782377 24.02385496185161,157.96234239534533 26.445610687020235,160.78424998726405 26.522900763433427,162.2287845240935 29.872137404512614,162.5983151576802 30.593511450337246,161.89284706923354 30.258587786229327,152.04966184089426 29.975190839730203,150.47068165944074 28.583969465689734,149.96674953246838 28.609732824377716,148.28696780141036 28.12022900755983,147.3462846733455 26.677480916143395,145.63288766086043 24.899809160269797,146.10323320981115 22.581106870202348,144.89377128334309 19.901717557222582,145.43131070252275 18.87118320609443,143.54991723870626 16.475190839730203,143.5163207870355 15.753816793905571,142.34044188477856 15.57347328250762,139.5183079900453 12.456106870202348,141.19815376568295 12.94561068713665,144.22184524251497 14.826335877878591,145.49850304162828 14.955152671667747,147.3462846733455 18.896946564898826,147.74943505652482 19.077290076296777,155.14040018191736 21.267175572458655,156.11464604971115 22.529580152593553,155.10680542321643 23.920801526634023,154.8380471769342 24.02385496185161,158.19750268367352 26.497137404512614,160.71706211367564 26.70324427471496,162.36315936857136 29.949427480925806,162.5983151576802 30.541984732844867,161.92644083686173 30.129770992323756,150.84023118420737 29.794847328332253,150.30270440642198 28.687022900790907,150.2019179957715 28.506679389392957,147.85022254183423 26.600190839730203,145.73367607370892 24.874045801581815,146.10323320981115 22.503816793789156,144.96096377937647 19.850190839730203,145.53209920384688 19.051526717608795,143.717899423762 16.526717557338998,143.41553140238102 15.779580152709968,142.13886204072332 15.676526717608795,139.6190990825562 14.645992366480641,139.7198901309166 13.718511450337246,140.89578243164578 12.25,141.56771818984998 13.100190839730203,144.42342326091602 14.749045801581815,145.43131070252275 14.98091603058856,147.3462846733455 18.87118320609443,147.74943505652482 19.206106870202348,155.3083739017602 21.189885496161878,156.0810514332552 22.96755725191906,154.9052367679542 23.946564885554835,154.9052367679542 24.307251908350736,156.11464604971115 23.998091603047214,158.063125405577 26.419847328215837,160.71706211367564 26.600190839730203,162.32956566484063 30.413167938939296,162.43034676151 30.567748091649264,157.7271818666195 33.144083969527856,157.29045453245635 33.65935114491731,156.6185647068487 33.81393129762728,137.80485265802417 44.7375954198651,137.4016848423198" stroke="#4dd2ff" stroke-linecap="round" stroke-linejoin="round" stroke-width="0.5"><title>2023-04-03 10.0km</title></polyline><polyline fill="none" points="57.25,150.216722616904 62.69797687861137,150.22049166249417 66.44653179190936,150.28456535326404 70.48410404624883,150.2657201666152 71.49566473987943,150.16772497412785 77.6719653179025,149.83981527722426 78.6604046242719,149.8925826362738 81.18352601156221,149.82850797196443 81.86560693640786,149.84735347798232 82.26156069364515,149.9114280954891 84.78757225432491,149.77950959188638 88.85982658959983,149.76066403629557 89.3078034682112,149.77574048186398 89.5447976878495,149.90388991345208 89.77890173411288,149.8850444487307 89.93786127166823,149.77950959188638 91.21820809248311,149.7380493514229 94.09682080923812,149.76443314850803 94.87427745663445,149.7192037655568 95.00433526012057,149.76820226018208 96.44653179189481,149.71543464673596 96.53612716762291,149.75689492353195 97.49566473987943,149.74181846695137 97.75,149.79458602642808" stroke="#4dd2ff" stroke-linecap="round" stroke-linejoin="round" stroke-width="0.5"><title>2023-03-31 11.9km</title></polyline><polyline fill="none" points="102.25,149.13686417436475 102.38861950940918,149.18507015569048 112.85439247006434,149.21519883678957 113.74155733030057,149.13083841877778 118.62327438677312,148.8747421787739 119.33947518540663,148.9108971348669 121.67983456932416,148.87775509420499 122.2851397604245,148.92596168119417 124.29512264690129,148.8295483945294 127.42099258414237,148.81147085309567 127.91078151740658,148.83256131655617 128.05402167713328,148.9229487728153 128.19957216201874,148.93500040370964 128.39826012549747,148.82352254914622 129.64121505990624,148.7964062231331 140.80239589276607,148.79038036806196 140.98491158014804,148.83557423815182 140.98029092984507,149.38391863757533 140.90867084998172,149.54661142396435 140.93639475184318,149.88103145441346 141.03573873361165,149.97442707079972 141.22056474615238,149.9894908402839 141.2737022247602,150.14314066059887 141.51859669138503,150.08891144295376 141.7288362806721,150.1913442898931 141.846662863667,150.15820430685562 141.93676554478589,150.1943570129879 142.06845407873334,150.3721068964078 142.06845407873334,150.5528679186682 142.20476326298376,150.6010705903809 142.26021106675034,151.20961963193804 142.51665715915442,151.16744354476396 142.52127780947194,150.41127191900887 142.56286366230051,150.3811449851437 142.75,150.4052465357545" stroke="#4dd2ff" stroke-linecap="round" stroke-linejoin="round" stroke-width="0.5"><title>2023-03-15 16.1km</title></polyline><polyline fill="none" points="187.75,141.80463806349144 186.4175977653358,141.87020488339476 186.4175977653358,138.5262726431829 185.8896648043301,137.60832174308598 168.34217877092306,138.1984334669978 167.96508379885927,140.00154300896975 168.34217877092306,147.93505288912274 167.7388268157374,151.60666500950174 168.0907821226865,156.68781484368083 167.56284916191362,157.1795329163724 165.50139664800372,157.40900098158454 165.07402234640904,156.98284581660118 164.67178770934697,150.65598549126298 163.21368715085555,150.2625996850402 163.21368715085555,148.23009536831523 161.50418994412757,146.06644151372893 159.44273743010126,146.26313818065682 157.20530726248398,145.08295559318503 154.51536312839016,145.60748195380438 153.8617318435572,143.9027667992632 151.2723463686416,143.54215231887065 150.71927374298684,142.52587202895666 150.54329608939588,139.90319195290795 149.4622905027354,140.03432668467576 148.7835195530206,141.11618529785483 147.52653631288558,141.5095871368103 147.52653631288558,145.67304766272719 149.56284916191362,145.50913335462974 150.06564245803747,147.57444488791225 153.53491620114073,147.70557513725362 153.8114525139099,148.06618292782514 153.83659217879176,155.01596533835982 155.94832402234897,156.03218907101837 157.35614525142591,154.91762086190283 158.66340782120824,154.6881502494507 158.83938547491562,158.1957468528126 161.07681564241648,160.45762587069476 161.20251396647654,161.99831301993981 164.21927374298684,162.39167825691402 165.04888268152718,161.96553255246545 165.04888268152718,154.0653002615145 164.64664804458153,150.65598549126298 163.16340782109182,150.19703531701816 163.1885474859737,148.2628778420476 162.58519553067163,147.27940154683893 161.15223463671282,145.9025274929154 159.54329608939588,146.2959209416731 157.10474860330578,145.14852145523764 154.51536312839016,145.67304766272719 154.08798882679548,144.09946536259667 151.72486033511814,143.80441745300777 150.81983240216505,142.98483789105376 150.61871508380864,139.96875932838884 149.28631284914445,140.0998940218269 148.70810055860784,141.14896881079767 147.3002793296473,141.80463806349144 147.95391061448026,144.46007894756622 149.738826815621,145.54191622576036 150.0405027931556,147.57444488791225 153.73603351949714,147.7383576874854 153.88687150832266,155.08152829870232 155.97346368711442,155.93384503995185 157.45670391060412,154.88483936025295 158.71368715073913,154.78649482643232 159.04050279327203,155.99940773204435 158.63826815632638,157.8351553375105 161.02653631276917,160.3920644808095 161.20251396647654,161.99831301993981 164.2946927373996,162.32611743189045 165.04888268152718,161.96553255246545 165.04888268152718,153.67192043107934 164.62150837981608,150.65598549126298 163.1885474859737,150.36094620119547 163.21368715085555,148.3284427751496 161.35335195518564,146.0336587191996 159.61871508380864,146.3287036979891 157.10474860330578,145.14852145523764 154.64106145245023,145.70583051003632 154.0377094972646,144.0011161025177 151.3729050279362,143.73885119828628 150.64385474857409,142.42752207927697 150.56843575416133,140.00154300896975 149.4120111730881,140.06711035569606 148.70810055860784,141.14896881079767 147.25,141.83742147588055 147.97905027936213,144.55842800661048 149.81424581003375,145.70583051003632 149.88966480456293,147.4433145619987 153.761173184379,147.77114023313334 153.96229050285183,155.14709123985085 155.99860335187986,156.03218907101837 157.45670391060412,154.88483936025295 158.738826815621,154.8192763425468 158.738826815621,158.03184169041924 161.02653631276917,160.45762587069476 161.2779329608893,162.09665439378296 165.0237430166453,162.16221528577444 165.1494413408218,157.70403100656404 168.04050279327203,156.68781484368083 168.216480446863,138.36235311492055 169.87569832406007,137.9033777990262 177.34217877092306,137.8705938119965" stroke="#4dd2ff" stroke-linecap="round" stroke-linejoin="round" stroke-width="0.5"><title>2023-03-06 10.0km</title></polyline><polyline fill="none" points="12.348223839086131,198.84230429475247 12.25,198.85360664667132 12.261555745790247,198.9327229713308 12.44644767815771,198.9930019129206 20.963032313302392,198.97793219073174 22.09260646266921,199.03444360353387 24.935319922980852,198.98169962210886 25.507329338768614,199.03067617987108 26.304675797146047,198.9251880937245 32.920340252516326,198.58234883361 33.67435266425309,198.64262859420342 36.34084100151085,198.59365129945036 37.2970789642859,198.65769851233563 39.00155146588804,198.62002370048867 39.8711213353381,198.5371389206921 43.80296383480891,198.51076643488705 44.322972394613316,198.53337142437704 44.58297667453007,198.6614659904917 44.77364647979266,198.64262859420342 44.91809330195247,198.52960392749992 46.04188957843871,198.48816142558098 48.85282473785628,198.48439392211367 49.27460945860366,198.52206893210496 49.46816820029926,198.48062641808065 52.15776802910841,198.46555639646613 52.75,198.51076643488705" stroke="#4dd2ff" stroke-linecap="round" stroke-linejoin="round" stroke-width="0.5"><title>2023-03-03 12.1km</title></polyline><polyline fill="none" points="97.75,190.46860689853202 97.7239717222983,186.12396764451114 86.06330334185623,185.98819635873951 79.21786632377189,186.46339551171695 78.7233290488366,187.2101350743469 79.06169665802736,197.76606032189738 78.54113110539038,200.24374820380763 79.08772493572906,201.73713635814784 79.00964010262396,205.80996436100395 76.56298200495075,206.28512297806446 75.75610539841,205.87784422296681 75.2615681233583,199.32734617551614 73.72589974291623,198.95399616492796 73.69987146521453,196.747824765509 72.32037275051698,194.8131649150746 71.46143958857283,194.47374924532778 70.05591259629,194.94893104425864 67.45308483275585,193.7270330266474 64.77217223646585,194.2700996055937 64.22557840612717,192.50512858343427 61.62275064259302,191.8262900050613 60.919987146393396,190.6722598702181 60.78984575823415,188.2623549298005 59.540488431812264,188.49995230221248 58.86375321331434,189.58610862493515 57.562339331489056,189.9255314344773 57.27602827758528,190.5704334066686 58.00482005125377,192.9803144082107 59.90488431870472,194.134333079739 60.008997429162264,196.17082263612247 63.00224935717415,196.001115854815 63.99132390739396,196.34052929354948 64.12146529555321,203.9772005937557 65.0845115679549,204.72388387344836 66.33386889449321,204.8935842843057 67.71336760907434,203.84143973961181 69.17095115676057,203.63779830970452 69.11889460147358,207.06573859682248 71.59158097673208,209.57726670970442 71.69569408730604,211.27422979776748 72.42448586109094,211.44392542507558 75.2355398456566,211.44392542507558 75.70404884312302,211.07059488157392 75.2355398456566,199.3612870559009 73.77795629808679,198.95399616492796 73.69987146521453,196.78176602252643 72.00803341902792,194.71134026625077 69.97782776341774,194.914989519355 67.50514138792641,193.7270330266474 64.8762853469234,194.30404122459004 64.25160668371245,192.6069541991019 61.77892030833755,192.13176761078648 60.97204370156396,191.24927565407415 60.71176092536189,188.29629742649558 59.540488431812264,188.49995230221248 58.733611825155094,189.68793551986164 57.25,190.40072253494873 57.92673521838151,192.9803144082107 59.77474293054547,194.23615798156243 60.113110539736226,196.27264664543327 62.27345758350566,196.001115854815 63.939267352223396,196.37447061002604 64.12146529555321,204.04508099105442 66.33386889449321,204.8935842843057 67.66131105390377,203.94326038766303 69.11889460147358,203.63779830970452 69.45726221066434,205.09722461370984 69.14492287905887,207.09967834690178 71.56555269914679,209.6451454711787 71.72172236500774,211.24029065750074 75.41773778910283,211.4099863095762 75.57390745496377,203.87537996054743 75.18348329036962,199.39522793129436 73.69987146521453,199.02187802972912 73.67384318751283,196.88358976415475 71.7737789201783,194.60951557281078 69.92577120813075,194.94893104425864 67.71336760907434,193.7270330266474 64.9023136246251,194.33798283859505 64.19955012842547,192.6069541991019 61.46658097684849,192.26753530661517 60.71176092536189,190.87591266346863 60.73778920294717,188.36418240494095 59.59254498698283,188.4660098353488 58.75964010274038,189.62005092817708 57.38014138804283,190.02735818071233 57.25,190.80802841877448 58.134961439529434,193.25184872897808 59.87885604100302,194.30404122459004 59.90488431870472,196.17082263612247 63.99132390739396,196.57811840555223 64.1474935732549,203.9772005937557 66.28181233920623,205.02934452373302 67.58322622103151,203.9093201765936 69.04080976860132,203.60385805407714 69.43123393319547,205.02934452373302 69.19697943446226,207.20149756719184 71.56555269914679,209.6451454711787 71.69569408730604,211.27422979776748 75.0012853469234,211.51180364127504 75.67802056553774,211.104534046739 75.67802056553774,206.72634082398145 78.6973007711349,205.77602442266652 78.82744215929415,186.59916651986714 86.6098971721949,186.02213918753841 93.2991645244183,186.12396764451114" stroke="#4dd2ff" stroke-linecap="round" stroke-linejoin="round" stroke-width="0.5"><title>2023-03-01 10.1km</title></polyline><polyline fill="none" points="142.75,190.63037388546218 141.78024574671872,190.53053636853292 141.57608695642557,186.50372004884412 129.836956521729,186.2707615547697 123.63563327037264,186.7699580360495 123.20179584121797,187.4688312721555 123.07419659732841,192.56055727883358 123.55907372396905,204.47408590317355 123.02315689972602,205.93827548334957 120.80293005669955,206.2377676473261 120.26701323245652,205.67205989598006 119.90973534970544,199.5822933892341 118.40406427218113,199.01656911184546 118.35302457469516,196.886770997211 116.59215500950813,194.7236744073889 114.80576559551992,194.95662425766932 112.27930056711193,193.79187262395862 109.65075614361558,194.35760987557296 109.0382797732018,192.62711503529863 106.05245746672153,192.02809452796646 105.5931001889985,191.02972351550125 105.5931001889985,188.50049736861547 104.44470699422527,188.76673302218842 103.67911153112072,189.83167252519343 102.45415879006032,190.23102355540323 102.27551984856836,190.92988617364608 103.09215500939172,193.2261339675606 104.80198487709276,194.42416710693215 104.90406427206472,196.18792665256478 108.83412098290864,196.55398824330769 108.88516068039462,203.90837377260323 110.95226843096316,204.80685708860983 112.53449905477464,203.70871033225558 113.81049149332102,203.67543307521555 114.14224952738732,204.9732424990798 113.81049149332102,206.70364356436767 116.31143667292781,209.53215546841966 116.38799621921498,211.02958873113676 119.62901701324154,211.2625219097099 120.42013232514728,210.82993153137795 119.93525519850664,199.6155712442851 118.42958412098233,198.98329116942477 117.8936672967393,196.2212050031667 116.46455576550215,194.7236744073889 114.7802457466023,195.0564598349738 112.33034026459791,193.89170871165697 109.75283553870395,194.39088849372638 109.11483931937255,192.72695163336175 106.35869565210305,192.36088389311044 105.6441398866009,190.9964444063371 105.5931001889985,188.63361523432832 104.49574669182766,188.80001245711173 103.88327032129746,189.7651139521622 102.58175803394988,190.1644650990056 102.25,190.83004878804786 103.16871455567889,193.42580659492523 104.75094517949037,194.42416710693215 104.92958412086591,196.2212050031667 108.85964083170984,196.62054483304382 109.0382797732018,204.04148263551178 111.20746691874228,204.80685708860983 112.48345935717225,203.77526483181282 113.78497164451983,203.54232399835018 114.16776937618852,205.0397966291639 113.78497164451983,206.57053625678236 116.26039697532542,209.39904981320433 116.3624763705302,210.92976015315799 119.60349716444034,211.2957980586507 120.34357277874369,210.56372165960784 119.98629489599261,199.68212693950045 119.70557655952871,199.21623666428786 118.42958412098233,198.98329116942477 118.37854442337994,196.85349274372857 116.89839319465682,194.98990278823476 116.13279773155227,194.5905601001723 114.72920604899991,195.02318131402717 112.53449905477464,193.8251513246796 109.72731568990275,194.35760987557296 109.06379962188657,192.6936727721477 106.33317580341827,192.29432605899638 105.72069943277165,191.02972351550125 105.5931001889985,188.56705631120712 104.49574669182766,188.80001245711173 103.80671077489387,189.8649518043967 102.35207939508837,190.43069880790426 102.88799621921498,192.92662469831703 104.80198487709276,194.35760987557296 104.98062381835189,196.25448334911198 108.88516068039462,196.58726654063503 109.11483931937255,204.04148263551178 111.05434782605153,204.80685708860983 112.61105860106181,203.74198758440616 113.83601134223863,203.54232399835018 114.16776937618852,204.9732424990798 113.861531190807,206.77019718913652 116.33695652161259,209.46560265053995 116.46455576550215,210.96303635064396 119.78213610569946,211.2957980586507 120.39461247622967,210.86320774353226 120.44565217394847,206.5372594177461 123.150756143732,205.90499855196686 123.45699432888068,205.4058439974906 123.4059546313947,189.0662477606238 123.73771266522817,186.73667830464547 141.16776937618852,186.20420194136386" stroke="#4dd2ff" stroke-linecap="round" stroke-linejoin="round" stroke-width="0.5"><title>2023-02-22 10.2km</title></polyline><polyline fill="none" points="147.25,198.9964208045276 149.85762052876817,198.97999292761597 153.64937791600823,199.05391829811379 157.72142301710846,199.00874170591123 158.0583981337404,199.0457043776696 159.14490668740473,198.92249528282446 165.95684292378428,198.56929288477477 166.95517107308842,198.63911231536986 167.51889580092393,198.58161397337062 169.75489891135658,198.56929288477477 170.91069206842803,198.65554039149174 174.70874805600033,198.48715215618358 178.1194401244138,198.49125919832113 178.60443234836566,198.51179439996486 178.77764385692717,198.65964740902382 179.0421850699786,198.64732635463224 179.25318818038795,198.50768736083955 180.73020995334082,198.45840284447513 183.97398911352502,198.49947328078088 184.238530326591,198.45018875002643 187.04770606530656,198.44608170188803 187.75,198.524115513761" stroke="#4dd2ff" stroke-linecap="round" stroke-linejoin="round" stroke-width="0.5"><title>2023-02-17 11.0km</title></polyline><polyline fill="none" points="12.25,247.58499018563998 12.79354971239809,247.58860672207993 12.840694330312544,247.74411728924497 13.475760065732175,247.69348604905645 20.220213640088332,247.71518516466858 21.016125718975672,247.76581636048832 22.37777321280737,247.70795212824487 22.63290879210399,247.74773380243641 24.38835250615375,247.74773380243641 31.47945768282807,247.33544789518965 32.419576828266145,247.3860798676833 35.02362366473244,247.33544789518965 36.09963023828459,247.3969295626066 39.06696795398602,247.2594997422675 40.58668857847806,247.29204897919408 42.0869967132312,247.2558831577462 42.616680361534236,247.28843239943308 42.78029991782387,247.4113958150956 43.00215694330109,247.40054612651875 43.20737469186133,247.26673290972758 44.16967953983112,247.23418363951168 52.75,247.2594997422675" stroke="#4dd2ff" stroke-linecap="round" stroke-linejoin="round" stroke-width="0.5"><title>2023-02-03 12.5km</title></polyline><polyline fill="none" points="97.75,239.42984767492453 96.73750000004657,239.26480385215837 96.28187499998603,235.03964094315597 78.36062499997206,235.4027439837082 78.03156250005122,236.1619575467339 78.48718749999534,244.7772023081925 78.00624999997672,249.56330747199536 78.46187500003725,251.84079778185696 78.1074999999255,254.18427834298927 77.67718750005588,254.64637023313844 75.39906249998603,254.74538980085345 75.0193750000326,254.31630469376978 74.53843749989755,248.01196035010798 73.1209375000326,247.64887757084216 73.09562499995809,245.53638437445625 71.42499999993015,243.52289591469162 69.47593749989755,243.65492849450675 67.22312499990221,242.4996408053412 64.46406250004657,243.06078127784713 63.88187499996275,241.44337260637258 61.09749999991618,240.81621102709323 60.591249999939464,239.89196973737853 60.36343750008382,237.18524135615735 59.325624999939464,237.4163048008195 58.59156249987427,238.57161847998213 57.37656249990687,238.80268050695304 57.25,239.46285642495786 58.085312499897555,241.9054905509256 59.806562499841675,242.9287483508233 59.90781250002328,244.7772023081925 63.75531250005588,245.1402897015796 64.00843749998603,252.50093560988898 66.109375,253.4581320352445 67.52687499998137,252.33590133370308 68.91906250000466,252.30289446393726 68.76718749990687,255.30649986561912 71.27312499994878,257.9139930621168 71.37437500001397,259.56428966527164 74.31062500004191,259.8613417740853 75.12062499998137,259.3662547092681 74.69031249999534,248.14399030695495 73.1209375000326,247.54985489341198 73.14624999999069,245.70142361655599 72.3868749999674,244.48013037048804 71.22249999991618,243.29183871438727 69.60249999992084,243.68793662746612 67.24843749997672,242.4996408053412 64.59062499995343,243.06078127784713 63.780624999897555,241.31133873431827 61.47718749998603,241.17930478512426 60.66718749993015,239.92497841994918 60.464687500032596,237.18524135615735 59.42687499988824,237.4163048008195 58.895312499953434,238.37356512600672 57.55374999996275,238.80268050695304 57.25,239.42984767492453 58.11062499997206,241.97150732306181 59.806562499841675,243.09378949746315 59.93312499998137,244.84321824117796 63.72999999998137,244.97525004962517 64.03375000006054,252.5669492866291 66.0840624999255,253.4911387362663 67.72937500011176,252.2368807101302 68.84312499989755,252.1708669369691 68.74187499983236,255.33950629661558 71.24781249999069,257.9469991123333 71.32374999998137,259.53128385134914 74.00687499996275,259.960359056844 74.96874999988358,259.6303012788412 75.14593750005588,259.13521370786475 75.07000000006519,251.2466720878001 74.61437500000466,247.94594534262433 73.29812499997206,247.71489266492426 72.91843749990221,245.10728178083082 71.37437500001397,243.39086325772223 69.62781249987893,243.75395287873107 67.24843749997672,242.53264910703 64.54000000003725,243.12679771239345 64.03375000006054,241.44337260637258 61.75562499987427,241.1132877815835 60.819062499911524,240.25506498053437 60.48999999999069,237.2512595073349 57.37656249990687,239.09975990875682 58.11062499997206,241.9054905509256 59.85718749999069,243.12679771239345 59.958437499939464,244.84321824117796 63.67937499994878,245.07427385517803 64.03375000006054,252.63296294411703 66.0840624999255,253.4581320352445 67.70406250003725,252.2368807101302 68.84312499989755,252.1708669369691 69.12156249990221,253.557152123758 68.74187499983236,255.24048698905972 71.22249999991618,257.9469991123333 71.29843749990687,259.49827803260996 74.63968750007916,259.76232444784546 75.24718750000466,259.26723716616107 75.17125000001397,255.1744740933791 77.65187499998137,254.58035716378072 78.23406249994878,253.68917884079565 78.43656249996275,235.43575332207547 96.40843750000931,235.1056597212155" stroke="#4dd2ff" stroke-linecap="round" stroke-linejoin="round" stroke-width="0.5"><title>2023-01-30 10.2km</title></polyline></svg>