<?xml version="1.0" encoding="utf-8" ?>
<svg baseProfile="full" height="300mm" version="1.1" viewBox="0,0,200,300" width="200mm" xmlns="http://www.w3.org/2000/svg" xmlns:ev="http://www.w3.org/2001/xml-events" xmlns:xlink="http://www.w3.org/1999/xlink"><defs /><rect fill="#222222" height="300" width="200" x="0" y="0" /><text fill="#FFFFFF" style="font-size:12px; font-family:Arial; font-weight:bold;" x="10" y="20">Over 10km Runs</text><text fill="#FFFFFF" style="font-size:4px; font-family:Arial" x="10" y="280">ATHLETE</text><text fill="#FFFFFF" style="font-size:9px; font-family:Arial" x="10" y="290">chending</text><text fill="#FFFFFF" style="font-size:4px; font-family:Arial" x="120" y="280">STATISTICS</text><text fill="#FFFFFF" style="font-size:3px; font-family:Arial" x="120" y="285">Number: 20</text><text fill="#FFFFFF" style="font-size:3px; font-family:Arial" x="120" y="290">Weekly: 1.2</text><text fill="#FFFFFF" style="font-size:3px; font-family:Arial" x="141" y="285">Total: 223.5 km</text><text fill="#FFFFFF" style="font-size:3px; font-family:Arial" x="141" y="290">Avg: 11.2 km</text><text fill="#FFFFFF" style="font-size:3px; font-family:Arial" x="167" y="285">Min: 10.0 km</text><text fill="#FFFFFF" style="font-size:3px; font-family:Arial" x="167" y="290">Max: 16.1 km</text><polyline fill="none" points="48.79493884614203,32.25 44.024839226622134,32.25 45.52202377875801,38.24360623251414 45.487205533427186,41.28577123541618 44.79084062541369,42.33008966958732 45.24347781564575,45.236000759818126 44.895295361639,57.903639562253375 45.41756904241629,61.17262383754132 44.79084062541369,65.6220194157213 40.89119714091066,65.6220194157213 40.403741705347784,56.54155263421126 38.24501049076207,55.95131311181467 38.24501049076207,53.13630920063588 35.91218804894015,50.32127979560755 33.40527438034769,50.593703110323986 30.097541067632847,49.00456374179339 26.51126179168932,49.73102846136317 25.362259693676606,47.279203228245024 22.750891288742423,47.233798874687636 21.77598041773308,46.64354167718557 21.044797264272347,45.28140540496679 20.73143305571284,41.73982315973262 19.269066749024205,42.05765911200433 18.398610614123754,43.374404595117085 16.30951589019969,44.464120776276104 16.657698344090022,49.91264437578502 19.51279446668923,49.549412440508604 20.209159374702722,52.364448836189695 25.327441448229365,52.455256037501385 25.466714429785497,62.807103083323454 28.14771932538133,64.07835877707112 31.908089828444645,62.12607110865065 32.430363509221934,64.25996630889131 32.01254456443712,67.39267953237868 35.45955085894093,70.11675232494599 35.52918734960258,72.34139406419126 40.61265117768198,72.56839742825832 40.85637889534701,60.80940506022307 40.29928696912248,56.632358615112025 38.34946522698738,56.04211926506832 37.93164628196973,52.54606321195024 35.42473261337727,50.09426018429804 33.40527438034769,50.502895365294535 30.132359312963672,48.959159640420694 26.580898282350972,49.64022046411992 25.29262320266571,47.32460757496301 22.089344626292586,47.00677700850065 21.079615509719588,45.28140540496679 20.73143305571284,41.73982315973262 19.23424850346055,42.05765911200433 18.294155877898447,43.41980951232836 16.205061153974384,44.55493028572528 16.692516589537263,49.685624466103036 19.617249202914536,49.64022046411992 19.54761271213647,51.955816102417884 20.174341129371896,52.40985244009062 25.29262320266571,52.773081032704795 25.397077938891016,62.807103083323454 28.321810552384704,63.987554971303325 30.828724220977165,62.443886215856764 32.04736280988436,62.443886215856764 32.534818245563656,64.16916255632532 32.0821810553316,66.75705911242403 35.42473261337727,70.25295533795725 35.49436910415534,72.43219542969018 40.85637889534701,72.52299676867551 40.36892345978413,56.904776398674585 39.88146802445408,56.178328445297666 38.34946522698738,56.13292539186659 38.34946522698738,53.27251965436153 35.94700629450381,50.27587588666938 33.3008196442388,50.502895365294535 30.132359312963672,48.959159640420694 26.37198881013319,49.59481645570486 25.675623902119696,47.41541624846286 21.77598041773308,46.77975497615989 20.59216007415671,41.603607652155915 19.094975521904416,41.966848873125855 18.363792368560098,43.328999671386555 16.379152380977757,44.28250167812803 16.518425362650305,49.186180080869235 16.901426061987877,49.77643244990031 19.652067448361777,49.77643244990031 19.617249202914536,51.7287976849766 20.174341129371896,52.455256037501385 25.327441448229365,52.68227392429253 25.397077938891016,62.7617009980313 26.337170564802364,63.62433948329999 28.356628797599114,63.94215305856778 30.27163229463622,62.5346904725011 32.151817545993254,62.30767978116637 32.25627228221856,67.25647526609828 35.28545963182114,70.16215333589935 35.49436910415534,72.2959933715756 36.121097521390766,72.70459936698899 40.26446872379165,72.75 40.96083363168873,72.02358907629969 40.3341052144533,56.950179339328315 38.34946522698738,56.04211926506832 38.34946522698738,53.31792312554899 36.260370503063314,50.593703110323986 35.28545963182114,50.00345229328377 33.231183153460734,50.502895365294535 30.201995803858154,49.04996783655952 26.51126179168932,49.64022046411992 25.57116916589439,47.41541624846286 21.77598041773308,46.59813723101979 21.044797264272347,45.236000759818126 20.870706037268974,41.73982315973262 19.094975521904416,41.966848873125855 18.363792368560098,43.374404595117085 16.239879399421625,44.464120776276104 16.657698344090022,49.549412440508604 19.58243095758371,49.685624466103036 20.13952288380824,52.40985244009062 25.11853197577875,52.591466789424885 25.466714429785497,55.58808823308209" stroke="#4dd2ff" stroke-linecap="round" stroke-linejoin="round" stroke-width="0.5"><title>2023-09-29 10.1km</title></polyline><polyline fill="none" points="93.75523281493224,32.65592836131691 90.05457342939917,32.25 88.91324857226573,32.65592836131691 89.74330301384907,36.89559268116136 89.91623102221638,44.021705789869884 89.46661819983274,57.326350172195816 89.84705981903244,64.99317299661925 89.15534778428264,65.75984480881016 85.90430122136604,65.75984480881016 85.17800358484965,56.74005588522414 83.31038109131623,56.108660792699084 83.17203868436627,53.31246700484189 80.75104656314943,50.29074524861062 78.1571264329832,50.561348402523436 75.07900787866674,49.16322955439682 71.3437628914835,49.839739465067396 70.6866364586167,47.674902533210116 67.4010042938171,47.133690928370925 66.15592263138387,45.82575896682101 65.84465221583378,41.856828062591376 64.28830013773404,42.08233686746098 63.42366009450052,43.43538623774657 61.24476718518417,44.56292284978554 61.59062320261728,49.749538229283644 64.63415615505073,49.704437601409154 65.11835457931738,52.455563839292154 70.23702363588382,52.68106490292121 70.44453724636696,62.918639725103276 73.0038717747666,64.04610518875415 75.18276468385011,62.55784990719985 76.8428735670168,62.24215847073356 77.39624319481663,64.18140076781856 76.98121597408317,66.8422017734556 80.26684813876636,70.26964046471403 80.37060494383331,72.20883234610665 85.28176039026584,72.65980545678758 85.80054441618267,72.11863764491864 85.80054441618267,66.25592555536423 85.21258918661624,56.87535466570989 83.27579548954964,56.153760484885424 83.24120988789946,53.3575671055296 80.95856017339975,50.471147377596935 78.22629763639998,50.561348402523436 75.00983667524997,49.07302812093985 71.41293409478385,49.704437601409154 70.54829405155033,47.62980160227744 66.7438778609503,46.59247837495059 66.05216582631692,45.23944284056779 65.77548101230059,41.856828062591376 64.1499577309005,42.08233686746098 63.35448889096733,43.480487781227566 61.348523990483955,44.33741585689131 61.452280795550905,49.433833696559304 61.76355121121742,49.88484007297666 64.53039934986737,49.704437601409154 64.87625536741689,52.32026312203379 70.16785243246704,52.72616509583895 70.20243803435005,62.60294865752803 73.21138538501691,64.13630224808003 75.07900787866674,62.60294865752803 76.94663037231658,62.42255361683783 77.08497277926654,67.33828078093939 80.23226253699977,70.22454283424304 80.26684813876636,72.16373499890324 80.8202177665662,72.47941629160778 84.90131877106614,72.75 85.86971561971586,71.57746888467227 85.24717478838284,56.87535466570989 83.24120988789946,56.108660792699084 83.24120988789946,53.31246700484189 81.89237142016646,51.41825682524359 80.57811855420005,50.245644699956756 78.1917120347498,50.741750373417744 75.07900787866674,49.118128840986174 71.3091772897169,49.839739465067396 70.82497886556666,47.674902533210116 66.70929225918371,46.68268053297652 65.98299462266732,45.32964539399836 65.77548101230059,41.947031604358926 64.21912893420085,42.172540343221044 63.35448889096733,43.43538623774657 61.452280795550905,44.11190869906568 61.41769519378431,49.6142363261024 64.49581374821719,49.65933696710272 64.53039934986737,51.95946091966471 65.18752578285057,52.50066406530095 70.20243803435005,52.635964703338686 70.23702363588382,62.60294865752803 73.14221418148372,64.13630224808003 75.14817908219993,62.60294865752803 76.8774591688998,62.28725726719131 77.39624319481663,64.09120372173493 76.8774591688998,66.66180920944316 80.33601934229955,70.35983570606913 80.40519054559991,72.43431898381095 84.93590437271632,72.75 85.76595881441608,72.16373499890324 85.24717478838284,56.69495627860306 83.27579548954964,56.108660792699084 83.13745308248326,53.222266783588566 80.71646096126642,50.29074524861062 78.1917120347498,50.60644890507683 75.14817908219993,49.16322955439682 71.48210529854987,49.88484007297666 70.51370844990015,47.53959972085431 67.12431948003359,47.268993918492924 66.08675142785069,45.78065776580479 65.70630980900023,42.6686589892779 66.01758022443391,45.73555655826931 66.95139147143345,47.08858991856687 70.47912284813356,47.449397813063115 71.3437628914835,49.749538229283644 75.04442227701657,48.98282666114392 78.05336962779984,50.60644890507683 80.54353295266628,50.20054414457991 81.61568660638295,51.237855249783024" stroke="#4dd2ff" stroke-linecap="round" stroke-linejoin="round" stroke-width="0.5"><title>2023-09-14 10.0km</title></polyline><polyline fill="none" points="102.25,52.7827699881509 105.06202944621327,52.76951528686732 106.13602141542651,52.826952283816354 106.38334448719979,52.778351755037875 109.85941944118531,52.76067881611016 110.41166136857646,52.80486114406449 111.4958172996412,52.68115046314779 118.77998996150563,52.296760475577685 119.9928894094046,52.36303495993707 120.90764597624366,52.30117877904922 123.07256985109416,52.296760475577685 124.25158942614507,52.38070813122613 127.88351179522579,52.19955763580401 130.01116780994926,52.243740783527755 132.00330433328054,52.18188435864977 132.49795047684165,52.20397595347458 132.7283336121909,52.376289839374294 132.9858206458157,52.371871546865805 133.2365317048825,52.22164921774129 134.71369416094967,52.173047716185465 142.75,52.18630267890694" stroke="#4dd2ff" stroke-linecap="round" stroke-linejoin="round" stroke-width="0.5"><title>2023-09-01 10.2km</title></polyline><polyline fill="none" points="184.1753788139904,32.25 178.68639995437115,32.385914885177044 179.79809187538922,36.644551108649466 179.2769862873247,57.21203470430919 179.65913038514555,63.69005654277862 179.55490926769562,65.09436510995147 178.89484218962025,65.50206640633405 176.1156123871915,65.68326681040344 175.3860645639943,65.1849654444668 174.83021860360168,56.48721265551285 172.85001736949198,55.852991973020835 172.85001736949198,53.22549247200368 170.4529316648841,50.099645106412936 167.91688447038177,50.37145917140879 164.61654908000492,48.876478865218814 161.00355033704545,49.55601626151474 159.71815655345563,47.01906905177748 156.24411930062342,46.611343457363546 155.54931184987072,45.388163458002964 155.37560998729896,41.5826837180648 153.77755285112653,41.8092016762821 152.8048224201193,43.25891269129352 150.8246211860096,44.210281861858675 151.90157273446675,47.97042668744689 154.33339881151915,49.55601626151474 154.68080253666267,52.18354685077793 159.82237767113838,52.22884890710702 160.30874288652558,62.73874712639372 162.91427082603332,63.916558354656445 164.65128945268225,62.37634277169127 166.5620099416701,62.013937993586296 167.11785590217914,63.82595764970756 166.7357118044747,66.45336734692683 170.00130682217423,70.03204475078383 170.20974905742332,72.16111171717057 174.41333413333632,72.75 175.49028568179347,71.97991509750136 175.42080493667163,60.83611953994841 174.79547823115718,56.260705417749705 172.91949811461382,55.76238891261164 172.85001736949198,53.04428478941554 172.05098880128935,51.82113016198855 170.07078756717965,49.78252839599736 167.81266335281543,50.280854509503115 164.51232796243858,48.69526864142972 161.03829070948996,49.55601626151474 159.99607953371014,47.06437186241965 156.4873019082006,46.7925548988278 155.58405222243164,45.206951195898 155.4450907324208,41.49207648841548 153.7428124784492,41.854505248047644 150.85936155857053,44.527404270134866 151.93631310691126,48.0610320243286 154.2291776938364,49.42010890127858 154.54184104665183,52.00233855936676 159.92659878882114,52.54596311613568 159.96133916114923,62.466943900159094 162.6016074734507,63.87125800544163 164.7902509428095,62.240441029542126 166.7357118044747,62.10453922781744 166.83993292204104,66.81576693765237 170.00130682217423,70.12264364270959 170.4529316648841,72.25170998720569 174.76073785871267,72.52350463886978 175.5597664269153,71.66282075841445 174.96918009384535,56.668418326589745 174.58703599590808,55.98889651411446 172.91949811461382,55.717087372380774 172.57209438935388,52.3194529999746 170.07078756717965,49.8278308029694 168.02110558806453,50.32615684380289 164.72077019768767,48.78587376646465 161.0730310821673,49.51071381469956 160.16978139639832,47.200280254968675 156.34834041830618,46.430131910019554 155.4798311049817,41.49207648841548 153.81229322345462,41.8092016762821 152.7353416751139,43.21360932462267 150.89410193113144,44.02906891150633 151.2762460289523,49.51071381469956 154.12495657627005,49.51071381469956 154.75028328190092,52.13824478787137 159.82237767113838,52.63656711622025 160.06556027871557,62.55754500196781 162.74056896346156,63.82595764970756 164.7555105702486,62.28574161679717 166.66623105923645,61.96863736648811 167.15259627485648,63.916558354656445 166.59675031423103,66.31746739108348 167.5,67.85766340245027 170.03604719450232,69.98674529476557 170.31397017487325,72.20641085549141 174.3785937607754,72.61410280325799 175.5597664269153,71.79871837203973 175.00392046617344,56.71371972779161 174.51755525090266,55.852991973020835 172.98897885961924,55.80769044609042 172.64157513424288,52.274150956916856 170.10552793974057,49.78252839599736 167.88214409782086,50.37145917140879 164.7902509428095,48.74057120725047 161.03829070948996,49.51071381469956 159.96133916114923,46.97376623447053 156.38308079063427,46.38482900671079 155.68827333999798,44.98043571942253 155.4798311049817,41.537380106485216 153.67333173332736,41.89980881320662 152.94378391024657,43.12300257146126 150.8246211860096,44.436797900823876 152.17949571472127,48.287545250728726 154.26391806651372,49.51071381469956 154.61132179165725,52.13824478787137 158.36328202486038,51.911734373949 159.8571180435829,52.59126511955401 159.96133916114923,62.42164333924302 162.77530933602247,63.69005654277862 164.7555105702486,62.28574161679717 166.63149068679195,61.96863736648811 167.15259627485648,63.780657287250506 166.7357118044747,66.7704670120147 170.00130682217423,70.03204475078383 170.10552793974057,72.25170998720569 170.9045565079432,72.16111171717057" stroke="#4dd2ff" stroke-linecap="round" stroke-linejoin="round" stroke-width="0.5"><title>2023-06-19 10.7km</title></polyline><polyline fill="none" points="52.75,93.18260368882329 51.86072772892658,92.9175395625789 51.75909661222249,89.04094132246973 51.225533249555156,88.74273871336482 34.380175658734515,88.97467410992249 33.36386449181009,89.40541064557328 33.287641154252924,108.02570040452702 30.975533249555156,108.58892378612654 30.44196988712065,108.12509286761633 29.908406524453312,101.89641436081729 28.587202007416636,101.49883332983882 28.485570890828967,99.41152148338733 26.935696361237206,97.29105803447601 24.75062735262327,97.35732281731907 22.336888331221417,96.23081887615263 19.74529485567473,96.72780659876298 19.13550815556664,95.1043093400367 17.001254705130123,94.77298194116156 16.010351317352615,94.04405995977868 15.654642409062944,90.89641541398305 14.485884567140602,91.12834860813746 13.647427854244597,92.28801102134457 12.504077791585587,92.58620896920911 12.275407779030502,93.11633768631145 12.961417816812173,94.3091227695113 13.037641154252924,95.50190157986071 14.816185696283355,96.82720401253027 15.019447929807939,98.61635001312243 18.906838143011555,98.98080394975841 19.059284818009473,106.26975970879721 21.193538268329576,107.26369007404719 22.5655583437765,106.17036643279425 23.937578418874182,106.03784199694928 23.861355081549846,109.15214576935978 26.3005018819822,111.7694531067973 26.351317440276034,113.32657099256176 29.247804265934974,113.62474128334725 30.086260978598148,113.62474128334725 30.416562107857317,113.12779058099841 29.984629861894064,102.92349546561309 29.73055207019206,101.66449217742775 28.5363864491228,101.46570154573419 28.23149309901055,99.11333250872849 26.834065244649537,97.29105803447601 26.249686323688366,96.99286627219408 24.826850689947605,97.32419042836409 22.5655583437765,96.23081887615263 19.796110413968563,96.69467411772348 19.110100376303308,95.0711766218883 17.052070263423957,94.77298194116156 16.010351317352615,94.04405995977868 15.654642409062944,90.92954874200223 14.485884567140602,91.1946151915472 12.25,93.01693864625122 13.088456712663174,95.56816688542312 14.790777917136438,96.7940715461591 14.943224592134356,98.51695338339778 18.906838143011555,99.04706823886954 19.08469259715639,106.33602186862845 21.11731493100524,107.26369007404719 22.489335006219335,106.17036643279425 23.962986198137514,106.13723533105804 23.810539523139596,108.95336169975053 26.3005018819822,111.80258338582644 26.503764115390368,113.392831091056 30.34033877030015,113.32657099256176 29.908406524453312,101.99580950976815 28.485570890828967,101.36630616459297 28.00282308657188,98.68261440879724 26.40213299856987,96.99286627219408 24.75062735262327,97.32419042836409 22.514742785366252,96.19768632255727 19.796110413968563,96.72780659876298 19.186323713860475,95.1043093400367 17.02666248427704,94.77298194116156 15.984943538205698,93.87839554641687 15.705457967356779,90.92954874200223 14.562107904581353,91.06208200551919 13.774466750328429,92.18861161827226 12.300815558293834,92.88440652504505 13.037641154252924,95.5350342351012 14.790777917136438,96.72780659876298 15.019447929807939,98.64948221342638 18.932245922274888,98.94767179789778 18.983061480568722,106.20349752967013 19.897741530672647,106.96551142168755 21.24435382685624,107.23055913198914 22.5655583437765,106.10410422454879 23.91217063984368,106.03784199694928 23.91217063984368,109.31779902774724 26.325909661129117,111.83571366011165 26.503764115390368,113.35970104417356 29.73055207019206,113.75726128664974 30.34033877030015,113.35970104417356 29.908406524453312,101.83015090411936 28.510978669975884,101.39943796320586 28.4093475532718,99.2127288771444 26.70702634868212,97.15852841081505 24.801442910800688,97.35732281731907 22.616373902070336,96.19768632255727 21.574654955998994,96.3964815713116 22.489335006219335,96.26395142490219 24.674404014949687,97.42358758090995 26.3005018819822,97.09226356988074 27.596298619755544,98.1193664286402 28.4093475532718,99.17959675924794 28.383939774124883,101.36630616459297 29.93381430360023,101.76388742798008 30.314930991036817,105.50774347939296" stroke="#4dd2ff" stroke-linecap="round" stroke-linejoin="round" stroke-width="0.5"><title>2023-06-02 10.0km</title></polyline><polyline fill="none" points="57.25,101.47292427362117 70.39662694190338,101.517883273993 71.40503298574185,101.41297881717583 77.4324856352323,101.08327630203894 78.05878910406318,101.08702294533396 78.4753670993814,101.14696916370849 80.90013832729892,101.08327630203894 82.09528623110964,101.16195569639967 85.02569695679995,101.0270765868463 88.44450947010773,101.01208997532376 89.09379655246448,101.03082323835406 89.26904660566652,101.16944895946654 89.53335816132312,101.15446243115548 89.69424345604784,101.0270765868463 91.02154713768687,100.982116726007 97.75,101.00459666628194" stroke="#4dd2ff" stroke-linecap="round" stroke-linejoin="round" stroke-width="0.5"><title>2023-05-09 12.1km</title></polyline><polyline fill="none" points="142.75,93.20264813950052 142.18428571429104,93.03498464697623 142.00428571435623,88.60862415077281 139.71571428573225,88.57509079101146 139.07285714289173,89.04455738278921 133.95571428572293,88.54155742631701 123.56714285712224,89.14515724183002 123.23285714292433,101.98804382041271 123.54142857145052,108.15773905233073 122.71857142844237,108.66069602791686 120.99571428576019,108.72775687473768 120.50714285718277,108.32539150006778 120.01857142860536,101.88744958968891 118.63000000000466,101.38447777417605 118.68142857134808,99.47317482481594 117.03571428568102,97.22653522218752 114.72142857150175,97.32713149547635 112.53571428568102,96.18703781631484 109.7071428571362,96.65648884057009 109.29571428580675,95.1475357033487 106.77571428567171,94.71161406145256 105.87571428564843,93.87330088499584 105.6699999999255,90.88888112654968 104.5899999999674,91.05654618659173 103.74142857128754,92.12959967114148 102.48142857151106,92.53199343457527 102.27571428567171,93.16911545082985 102.91857142862864,95.34873002812674 104.77000000001863,96.72355319427152 104.8985714284936,98.60134714188462 108.93571428582072,99.03726139727223 108.96142857137602,106.41414633889508 111.06999999994878,107.42006682824285 112.56142857135274,106.2800232739537 113.82142857147846,106.11236933257896 114.25857142859604,107.28594435090781 113.94999999995343,109.36483394262905 116.44428571430035,111.98018443150795 116.49571428564377,113.4890269300231 119.68428571429104,113.95844257369754 120.5585714285262,113.28784850318334 120.12142857140861,102.18923214990355 119.83857142855413,101.5856666325999 118.65571428567637,101.35094628066872 118.60428571433295,99.406111274453 117.62714285717811,97.99777219111274 116.5214285714319,96.95827827771427 114.87571428564843,97.36066357673553 112.66428571427241,96.18703781631484 109.83571428561118,96.65648884057009 109.2442857142305,95.08047088925377 106.98142857139464,94.64454912004294 106.0042857141234,93.94036605169822 105.69571428571362,90.85534809985256 104.46142857149243,91.09007918389398 102.27571428567171,93.03498464697623 103.14999999990687,95.71758583205519 104.84714285703376,96.75708536378806 104.94999999995343,98.56781524192775 108.93571428582072,99.03726139727223 108.98714285716414,106.31355404756323 111.06999999994878,107.35300559937605 112.61285714281257,106.38061557995388 113.92428571428172,106.21296171208087 114.31000000005588,107.42006682824285 114.02714285708498,109.39836426562397 116.41857142851222,111.91312453482533 116.59857142856345,113.62314578333462 120.60999999998603,113.55608636638499 120.12142857140861,101.88744958968891 118.65571428567637,101.38447777417605 118.7071428571362,99.43964305213012 117.93571428570431,98.23249597166432 116.49571428564377,96.85768184279732 114.87571428564843,97.22653522218752 112.56142857135274,96.11997330599115 109.73285714292433,96.69002101980732 109.0899999999674,94.97987363138236 107.0585714285262,94.6780815932434 106.0042857141234,93.87330088499584 105.61857142858207,90.72121594402415 104.43571428570431,91.05654618659173 102.25,92.90085376476054 103.04714285710361,95.65052118456515 104.79571428569034,96.72355319427152 104.97571428574156,98.60134714188462 108.85857142857276,99.03726139727223 109.06428571429569,106.31355404756323 111.12142857140861,107.386536216276 113.84714285726659,106.07883852966188 114.20714285725262,107.386536216276 113.97571428574156,109.43189458378765 116.36714285705239,111.91312453482533 116.57285714289173,113.55608636638499 119.89000000001397,113.82432391637121 120.60999999998603,113.25431874825153 120.14714285719674,101.95451241506089 118.63000000000466,101.31741478218464 118.5528571427567,99.00372956093634 116.62428571435157,96.92474613769446 114.92714285710827,97.29359940921131 112.48428571422119,96.05290877597872 109.88714285718743,96.65648884057009 109.14142857142724,94.9463412023324 106.49285714281723,94.54395167111943 105.82428571418859,93.50444211742433 105.69571428571362,90.85534809985256 104.56428571429569,91.05654618659173 103.7928571428638,92.12959967114148 102.45571428572293,92.46492785631563 102.25,93.13558275715332 102.84142857149709,95.34873002812674 104.77000000001863,96.72355319427152 104.97571428574156,98.60134714188462 108.9100000000326,99.00372956093634 109.0899999999674,106.41414633889508 111.06999999994878,107.42006682824285 113.87285714282189,106.11236933257896 114.23285714280792,107.55418922711397 113.92428571428172,109.29777328189812 116.41857142851222,111.94665448562591 116.54714285722002,113.52255665065604 119.68428571429104,113.89138325488602" stroke="#4dd2ff" stroke-linecap="round" stroke-linejoin="round" stroke-width="0.5"><title>2023-05-07 11.2km</title></polyline><polyline fill="none" points="147.25,101.45651657801318 149.35524413485837,101.42527909871569 154.93906486166816,101.45304574901093 156.1473845041619,101.50510813084657 156.37361175000842,101.47039988896358 159.31190444895765,101.47734154140016 166.0694453571632,101.08860588155221 166.96104685548926,101.13719818688332 169.83280212919635,101.09901852677285 170.2905796148989,101.16496517388805 172.90150818163238,101.02612991436217 176.41468423473998,101.01224634378377 176.75801734901324,101.02612991436217 176.9469836367207,101.16149430228143 177.18119537360326,101.14761081081815 177.35419267923862,101.02960080574485 178.57848130380444,100.99489186915343 187.75,100.99836276509268" stroke="#4dd2ff" stroke-linecap="round" stroke-linejoin="round" stroke-width="0.5"><title>2023-05-05 13.0km</title></polyline><polyline fill="none" points="52.75,141.9475324324303 52.15819567989092,141.6455462762824 51.875158831011504,137.3505890784145 39.03557814483065,137.51836235132942 33.55495552730281,138.15589967054257 33.4777636595536,156.9121268595627 30.956162643036805,157.51605863486475 30.41581956797745,157.0127822656941 30.00412960606627,150.67140553831996 28.5374841169687,150.30232531133515 28.511753494269215,147.9871721794043 26.762071156292222,145.94042316579726 24.703621346852742,146.10819016450841 22.46505717909895,145.0009257082129 19.660419313935563,145.5042283955263 19.171537484158762,143.9272096228524 16.72712833539117,143.5581185593037 15.852287166402675,142.65216525251162 15.543519695056602,139.6658494205185 14.462833545054309,139.86717530382157 13.845298602245748,140.8066937597032 12.558767471346073,141.31000563724956 12.275730622583069,141.9475324324303 12.970457433257252,144.19563911478326 14.797331639099866,145.60488880057528 14.900254129664972,147.31610893855395 18.914231257978827,147.68519396359625 19.06861499371007,155.16742614484974 21.127064803033136,156.17398586671334 22.54224904696457,155.03321784871514 23.905972045729868,154.8319052575098 24.343392630224116,156.17398586671334 24.034625158761628,158.15354045311688 26.42757306213025,160.73700128871133 26.530495552695356,162.34745568018116 29.721092757303268,162.68296559085138 30.518742058542557,161.94484314076544 30.41581956797745,153.89244416559814 30.055590851348825,150.60430008661933 28.563214739551768,150.16811417274585 28.48602287156973,147.9200659434864 26.42757306213025,145.80620947851276 24.883735705167055,146.17529692972312 22.516518424381502,145.03447925503133 19.686149936518632,145.47067491726193 19.274459974607453,143.96076332655502 16.93297331640497,143.6252260695328 15.929479034151882,142.7528269074828 15.697903430671431,139.5651864126994 14.514294790336862,139.83362100220984 13.690914866514504,140.90735622339707 12.584498093929142,141.2093433498958 12.25,141.91397843463346 12.99618805584032,144.36340738789295 14.771601016400382,145.60488880057528 14.900254129664972,147.38321535072464 18.296696315170266,147.45032174354128 18.965692503144965,147.88651281823695 19.042884371010587,155.13387407823757 21.17852604831569,156.17398586671334 22.56797966954764,155.13387407823757 23.93170266819652,154.96611367119476 24.29193138505798,156.20753778149083 24.00889453617856,158.2877469262894 26.350381194381043,160.7034500355221 26.55622617539484,162.38100669336563 29.82401524775196,162.64941462180286 30.518742058542557,162.17970054129546 30.107052096514963,150.70495825679973 28.614675984717906,150.16811417274585 28.460292249103077,147.88651281823695 26.55622617539484,145.80620947851276 24.858005082583986,146.10819016450841 22.490787801682018,145.0009257082129 19.891994917416014,145.537781868843 19.222998729441315,143.8601022008661 16.62420584494248,143.4910110294586 15.878017788985744,142.45084181017592 15.620711562922224,139.6322950894828 14.488564167753793,139.83362100220984 13.768106734380126,140.94091036816826 12.25,141.7462083724531 12.944726810674183,144.4976219180826 14.797331639099866,145.67199571280798 14.900254129664972,147.45032174354128 18.93996188067831,147.8529596879962 19.09434561629314,155.23453026352217 21.152795425616205,156.20753778149083 23.134053367190063,154.93256157517317 24.00889453617856,155.06676993014116 23.828780177864246,158.01933390162594 26.401842439663596,160.77055253696744 26.55622617539484,162.38100669336563 30.33862770011183,162.51521069674345 30.518742058542557,157.81802392727695 33.16899618820753,157.2811964664579 33.58068615000229,156.54305665954598 33.683608640450984,137.88746312026342 40.759529860224575,137.31703440916317 47.19218551472295,137.48480770653987" stroke="#4dd2ff" stroke-linecap="round" stroke-linejoin="round" stroke-width="0.5"><title>2023-04-17 10.1km</title></polyline><polyline fill="none" points="57.25,150.24122132402772 61.61705202310986,150.21860706205553 62.99855491328344,150.2713736424903 64.17196531791706,150.2223761070909 66.79046242774348,150.27891171660303 68.04190751444548,150.23745228174084 70.47543352600769,150.2713736424903 71.51878612716973,150.16207132039563 77.45231213873194,149.84169977744386 78.68352601156221,149.88315984829205 81.20664739883796,149.82662337152578 82.30202312138863,149.90200531301343 84.79913294797007,149.77762499144774 88.90606936416589,149.7625485480694 89.32803468208294,149.77385588142533 89.51589595376572,149.90954349505046 89.77023121387174,149.90577440430388 89.92341040461906,149.78893231818438 91.0332369942189,149.74370298148642 94.94075144507224,149.73239563491188 95.1604046242719,149.78516320981544 95.58815028902609,149.72862651829746 96.59971098265669,149.72108828339879 97.75,149.77762499144774" stroke="#4dd2ff" stroke-linecap="round" stroke-linejoin="round" stroke-width="0.5"><title>2023-04-14 12.0km</title></polyline><polyline fill="none" points="142.75,142.03807205246994 142.10591603047214,142.03807205246994 142.23473282437772,137.60326883856033 130.64122137404047,137.5360741927725 123.55629770993255,138.107228056062 123.50477099244017,156.92091537134547 122.96374045801349,157.39123783705872 121.03148854954634,157.4584266821621 120.46469465643167,157.0552933167637 120.02671755722258,150.63865878975776 118.58396946568973,150.30270440642198 118.55820610688534,148.08539316931274 116.96087786264252,146.03604104742408 116.18797709920909,145.73367607370892 114.8998091602698,146.10323320981115 112.32347328250762,144.96096377937647 109.79866412212141,145.43131070252275 109.10305343521759,143.75149584600877 106.81011450383812,143.54991723870626 105.95992366410792,142.74360104279185 105.57347328250762,139.6190990825562 104.51717557245865,139.7870841386466 103.74427480925806,140.89578243164578 102.45610687020235,141.23175055609317 102.50763358792756,145.63288766086043 104.74904580158181,145.53209920384688 105.10973282437772,147.51426408551924 108.30438931309618,147.44707233537338 108.97423664131202,147.8166267182969 109.15458015270997,155.20758968457812 111.16412213735748,156.0810514332552 112.65839694661554,154.93883155606454 113.92080152663402,154.7036679360026 114.33301526715513,156.18183526782377 114.02385496185161,157.96234239534533 116.44561068702023,160.78424998726405 116.52290076343343,162.2287845240935 119.87213740451261,162.5983151576802 120.59351145033725,161.89284706923354 120.25858778622933,152.04966184089426 119.9751908397302,150.47068165944074 118.58396946568973,149.96674953246838 118.60973282437772,148.28696780141036 118.12022900755983,147.3462846733455 116.6774809161434,145.63288766086043 114.8998091602698,146.10323320981115 112.58110687020235,144.89377128334309 109.90171755722258,145.43131070252275 108.87118320609443,143.54991723870626 106.4751908397302,143.5163207870355 105.75381679390557,142.34044188477856 105.57347328250762,139.5183079900453 102.45610687020235,141.19815376568295 102.94561068713665,144.22184524251497 104.82633587787859,145.49850304162828 104.95515267166775,147.3462846733455 108.89694656489883,147.74943505652482 109.07729007629678,155.14040018191736 111.26717557245865,156.11464604971115 112.52958015259355,155.10680542321643 113.92080152663402,154.8380471769342 114.02385496185161,158.19750268367352 116.49713740451261,160.71706211367564 116.70324427471496,162.36315936857136 119.9494274809258,162.5983151576802 120.54198473284487,161.92644083686173 120.12977099232376,150.84023118420737 119.79484732833225,150.30270440642198 118.68702290079091,150.2019179957715 118.50667938939296,147.85022254183423 116.6001908397302,145.73367607370892 114.87404580158181,146.10323320981115 112.50381679378916,144.96096377937647 109.8501908397302,145.53209920384688 109.0515267176088,143.717899423762 106.526717557339,143.41553140238102 105.77958015270997,142.13886204072332 105.6765267176088,139.6190990825562 104.64599236648064,139.7198901309166 103.71851145033725,140.89578243164578 102.25,141.56771818984998 103.1001908397302,144.42342326091602 104.74904580158181,145.43131070252275 104.98091603058856,147.3462846733455 108.87118320609443,147.74943505652482 109.20610687020235,155.3083739017602 111.18988549616188,156.0810514332552 112.96755725191906,154.9052367679542 113.94656488555484,154.9052367679542 114.30725190835074,156.11464604971115 113.99809160304721,158.063125405577 116.41984732821584,160.71706211367564 116.6001908397302,162.32956566484063 120.4131679389393,162.43034676151 120.56774809164926,157.7271818666195 123.14408396952786,157.29045453245635 123.65935114491731,156.6185647068487 123.81393129762728,137.80485265802417 134.7375954198651,137.4016848423198" stroke="#4dd2ff" stroke-linecap="round" stroke-linejoin="round" stroke-width="0.5"><title>2023-04-03 10.0km</title></polyline><polyline fill="none" points="147.25,150.216722616904 152.69797687861137,150.22049166249417 156.44653179190936,150.28456535326404 160.48410404624883,150.2657201666152 161.49566473987943,150.16772497412785 167.6719653179025,149.83981527722426 168.6604046242719,149.8925826362738 171.1835260115622,149.82850797196443 171.86560693640786,149.84735347798232 172.26156069364515,149.9114280954891 174.7875722543249,149.77950959188638 178.85982658959983,149.76066403629557 179.3078034682112,149.77574048186398 179.5447976878495,149.90388991345208 179.77890173411288,149.8850444487307 179.93786127166823,149.77950959188638 181.2182080924831,149.7380493514229 184.09682080923812,149.76443314850803 184.87427745663445,149.7192037655568 185.00433526012057,149.76820226018208 186.4465317918948,149.71543464673596 186.5361271676229,149.75689492353195 187.49566473987943,149.74181846695137 187.75,149.79458602642808" stroke="#4dd2ff" stroke-linecap="round" stroke-linejoin="round" stroke-width="0.5"><title>2023-03-31 11.9km</title></polyline><polyline fill="none" points="12.25,197.88686417436475 12.388619509409182,197.93507015569048 22.85439247006434,197.96519883678957 23.741557330300566,197.88083841877778 28.62327438677312,197.6247421787739 29.339475185406627,197.6608971348669 31.679834569324157,197.62775509420499 32.2851397604245,197.67596168119417 34.29512264690129,197.5795483945294 37.42099258414237,197.56147085309567 37.910781517406576,197.58256131655617 38.05402167713328,197.6729487728153 38.19957216201874,197.68500040370964 38.39826012549747,197.57352254914622 39.641215059906244,197.5464062231331 50.80239589276607,197.54038036806196 50.98491158014804,197.58557423815182 50.98029092984507,198.13391863757533 50.90867084998172,198.29661142396435 50.93639475184318,198.63103145441346 51.03573873361165,198.72442707079972 51.22056474615238,198.7394908402839 51.2737022247602,198.89314066059887 51.51859669138503,198.83891144295376 51.72883628067211,198.9413442898931 51.84666286366701,198.90820430685562 51.936765544785885,198.9443570129879 52.06845407873334,199.1221068964078 52.06845407873334,199.3028679186682 52.20476326298376,199.3510705903809 52.260211066750344,199.95961963193804 52.51665715915442,199.91744354476396 52.52127780947194,199.16127191900887 52.562863662300515,199.1311449851437 52.75,199.1552465357545" stroke="#4dd2ff" stroke-linecap="round" stroke-linejoin="round" stroke-width="0.5"><title>2023-03-15 16.1km</title></polyline><polyline fill="none" points="97.75,190.55463806349144 96.41759776533581,190.62020488339476 96.41759776533581,187.2762726431829 95.8896648043301,186.35832174308598 78.34217877092306,186.9484334669978 77.96508379885927,188.75154300896975 78.34217877092306,196.68505288912274 77.73882681573741,200.35666500950174 78.0907821226865,205.43781484368083 77.56284916191362,205.9295329163724 75.50139664800372,206.15900098158454 75.07402234640904,205.73284581660118 74.67178770934697,199.40598549126298 73.21368715085555,199.0125996850402 73.21368715085555,196.98009536831523 71.50418994412757,194.81644151372893 69.44273743010126,195.01313818065682 67.20530726248398,193.83295559318503 64.51536312839016,194.35748195380438 63.86173184355721,192.6527667992632 61.27234636864159,192.29215231887065 60.71927374298684,191.27587202895666 60.54329608939588,188.65319195290795 59.462290502735414,188.78432668467576 58.7835195530206,189.86618529785483 57.52653631288558,190.2595871368103 57.52653631288558,194.42304766272719 59.56284916191362,194.25913335462974 60.06564245803747,196.32444488791225 63.53491620114073,196.45557513725362 63.8114525139099,196.81618292782514 63.83659217879176,203.76596533835982 65.94832402234897,204.78218907101837 67.35614525142591,203.66762086190283 68.66340782120824,203.4381502494507 68.83938547491562,206.9457468528126 71.07681564241648,209.20762587069476 71.20251396647654,210.74831301993981 74.21927374298684,211.14167825691402 75.04888268152718,210.71553255246545 75.04888268152718,202.8153002615145 74.64664804458153,199.40598549126298 73.16340782109182,198.94703531701816 73.18854748597369,197.0128778420476 72.58519553067163,196.02940154683893 71.15223463671282,194.6525274929154 69.54329608939588,195.0459209416731 67.10474860330578,193.89852145523764 64.51536312839016,194.42304766272719 64.08798882679548,192.84946536259667 61.72486033511814,192.55441745300777 60.81983240216505,191.73483789105376 60.61871508380864,188.71875932838884 59.28631284914445,188.8498940218269 58.70810055860784,189.89896881079767 57.30027932964731,190.55463806349144 57.953910614480264,193.21007894756622 59.738826815620996,194.29191622576036 60.04050279315561,196.32444488791225 63.73603351949714,196.4883576874854 63.886871508322656,203.83152829870232 65.97346368711442,204.68384503995185 67.45670391060412,203.63483936025295 68.71368715073913,203.53649482643232 69.04050279327203,204.74940773204435 68.63826815632638,206.5851553375105 71.02653631276917,209.1420644808095 71.20251396647654,210.74831301993981 74.2946927373996,211.07611743189045 75.04888268152718,210.71553255246545 75.04888268152718,202.42192043107934 74.62150837981608,199.40598549126298 73.18854748597369,199.11094620119547 73.21368715085555,197.0784427751496 71.35335195518564,194.7836587191996 69.61871508380864,195.0787036979891 67.10474860330578,193.89852145523764 64.64106145245023,194.45583051003632 64.03770949726459,192.7511161025177 61.37290502793621,192.48885119828628 60.643854748574086,191.17752207927697 60.56843575416133,188.75154300896975 59.4120111730881,188.81711035569606 58.70810055860784,189.89896881079767 57.25,190.58742147588055 57.97905027936213,193.30842800661048 59.81424581003375,194.45583051003632 59.889664804562926,196.1933145619987 63.761173184379004,196.52114023313334 63.96229050285183,203.89709123985085 65.99860335187986,204.78218907101837 67.45670391060412,203.63483936025295 68.738826815621,203.5692763425468 68.738826815621,206.78184169041924 71.02653631276917,209.20762587069476 71.2779329608893,210.84665439378296 75.02374301664531,210.91221528577444 75.1494413408218,206.45403100656404 78.04050279327203,205.43781484368083 78.21648044686299,187.11235311492055 79.87569832406007,186.6533777990262 87.34217877092306,186.6205938119965" stroke="#4dd2ff" stroke-linecap="round" stroke-linejoin="round" stroke-width="0.5"><title>2023-03-06 10.0km</title></polyline><polyline fill="none" points="102.34822383908613,198.84230429475247 102.25,198.85360664667132 102.26155574579025,198.9327229713308 102.44644767815771,198.9930019129206 110.96303231330239,198.97793219073174 112.09260646266921,199.03444360353387 114.93531992298085,198.98169962210886 115.50732933876861,199.03067617987108 116.30467579714605,198.9251880937245 122.92034025251633,198.58234883361 123.67435266425309,198.64262859420342 126.34084100151085,198.59365129945036 127.2970789642859,198.65769851233563 129.00155146588804,198.62002370048867 129.8711213353381,198.5371389206921 133.8029638348089,198.51076643488705 134.32297239461332,198.53337142437704 134.58297667453007,198.6614659904917 134.77364647979266,198.64262859420342 134.91809330195247,198.52960392749992 136.0418895784387,198.48816142558098 138.85282473785628,198.48439392211367 139.27460945860366,198.52206893210496 139.46816820029926,198.48062641808065 142.1577680291084,198.46555639646613 142.75,198.51076643488705" stroke="#4dd2ff" stroke-linecap="round" stroke-linejoin="round" stroke-width="0.5"><title>2023-03-03 12.1km</title></polyline><polyline fill="none" points="187.75,190.46860689853202 187.7239717222983,186.12396764451114 176.06330334185623,185.98819635873951 169.2178663237719,186.46339551171695 168.7233290488366,187.2101350743469 169.06169665802736,197.76606032189738 168.54113110539038,200.24374820380763 169.08772493572906,201.73713635814784 169.00964010262396,205.80996436100395 166.56298200495075,206.28512297806446 165.75610539841,205.87784422296681 165.2615681233583,199.32734617551614 163.72589974291623,198.95399616492796 163.69987146521453,196.747824765509 162.32037275051698,194.8131649150746 161.46143958857283,194.47374924532778 160.05591259629,194.94893104425864 157.45308483275585,193.7270330266474 154.77217223646585,194.2700996055937 154.22557840612717,192.50512858343427 151.62275064259302,191.8262900050613 150.9199871463934,190.6722598702181 150.78984575823415,188.2623549298005 149.54048843181226,188.49995230221248 148.86375321331434,189.58610862493515 147.56233933148906,189.9255314344773 147.27602827758528,190.5704334066686 148.00482005125377,192.9803144082107 149.90488431870472,194.134333079739 150.00899742916226,196.17082263612247 153.00224935717415,196.001115854815 153.99132390739396,196.34052929354948 154.1214652955532,203.9772005937557 155.0845115679549,204.72388387344836 156.3338688944932,204.8935842843057 157.71336760907434,203.84143973961181 159.17095115676057,203.63779830970452 159.11889460147358,207.06573859682248 161.59158097673208,209.57726670970442 161.69569408730604,211.27422979776748 162.42448586109094,211.44392542507558 165.2355398456566,211.44392542507558 165.70404884312302,211.07059488157392 165.2355398456566,199.3612870559009 163.7779562980868,198.95399616492796 163.69987146521453,196.78176602252643 162.00803341902792,194.71134026625077 159.97782776341774,194.914989519355 157.50514138792641,193.7270330266474 154.8762853469234,194.30404122459004 154.25160668371245,192.6069541991019 151.77892030833755,192.13176761078648 150.97204370156396,191.24927565407415 150.7117609253619,188.29629742649558 149.54048843181226,188.49995230221248 148.7336118251551,189.68793551986164 147.25,190.40072253494873 147.9267352183815,192.9803144082107 149.77474293054547,194.23615798156243 150.11311053973623,196.27264664543327 152.27345758350566,196.001115854815 153.9392673522234,196.37447061002604 154.1214652955532,204.04508099105442 156.3338688944932,204.8935842843057 157.66131105390377,203.94326038766303 159.11889460147358,203.63779830970452 159.45726221066434,205.09722461370984 159.14492287905887,207.09967834690178 161.5655526991468,209.6451454711787 161.72172236500774,211.24029065750074 165.41773778910283,211.4099863095762 165.57390745496377,203.87537996054743 165.18348329036962,199.39522793129436 163.69987146521453,199.02187802972912 163.67384318751283,196.88358976415475 161.7737789201783,194.60951557281078 159.92577120813075,194.94893104425864 157.71336760907434,193.7270330266474 154.9023136246251,194.33798283859505 154.19955012842547,192.6069541991019 151.4665809768485,192.26753530661517 150.7117609253619,190.87591266346863 150.73778920294717,188.36418240494095 149.59254498698283,188.4660098353488 148.75964010274038,189.62005092817708 147.38014138804283,190.02735818071233 147.25,190.80802841877448 148.13496143952943,193.25184872897808 149.87885604100302,194.30404122459004 149.90488431870472,196.17082263612247 153.99132390739396,196.57811840555223 154.1474935732549,203.9772005937557 156.28181233920623,205.02934452373302 157.5832262210315,203.9093201765936 159.04080976860132,203.60385805407714 159.43123393319547,205.02934452373302 159.19697943446226,207.20149756719184 161.5655526991468,209.6451454711787 161.69569408730604,211.27422979776748 165.0012853469234,211.51180364127504 165.67802056553774,211.104534046739 165.67802056553774,206.72634082398145 168.6973007711349,205.77602442266652 168.82744215929415,186.59916651986714 176.6098971721949,186.02213918753841 183.2991645244183,186.12396764451114" stroke="#4dd2ff" stroke-linecap="round" stroke-linejoin="round" stroke-width="0.5"><title>2023-03-01 10.1km</title></polyline><polyline fill="none" points="52.75,239.38037388546218 51.78024574671872,239.28053636853292 51.57608695642557,235.25372004884412 39.83695652172901,235.0207615547697 33.63563327037264,235.5199580360495 33.20179584121797,236.2188312721555 33.07419659732841,241.31055727883358 33.55907372396905,253.22408590317355 33.02315689972602,254.68827548334957 30.80293005669955,254.9877676473261 30.26701323245652,254.42205989598006 29.909735349705443,248.3322933892341 28.40406427218113,247.76656911184546 28.353024574695155,245.636770997211 26.592155009508133,243.4736744073889 24.805765595519915,243.70662425766932 22.27930056711193,242.54187262395862 19.65075614361558,243.10760987557296 19.038279773201793,241.37711503529863 16.052457466721535,240.77809452796646 15.593100188998505,239.77972351550125 15.593100188998505,237.25049736861547 14.444706994225271,237.51673302218842 13.679111531120725,238.58167252519343 12.454158790060319,238.98102355540323 12.275519848568365,239.67988617364608 13.092155009391718,241.9761339675606 14.801984877092764,243.17416710693215 14.904064272064716,244.93792665256478 18.834120982908644,245.30398824330769 18.88516068039462,252.65837377260323 20.95226843096316,253.55685708860983 22.534499054774642,252.45871033225558 23.810491493321024,252.42543307521555 24.14224952738732,253.7232424990798 23.810491493321024,255.45364356436767 26.31143667292781,258.28215546841966 26.387996219214983,259.77958873113676 29.629017013241537,260.0125219097099 30.42013232514728,259.57993153137795 29.93525519850664,248.3655712442851 28.429584120982327,247.73329116942477 27.893667296739295,244.9712050031667 26.464555765502155,243.4736744073889 24.780245746602304,243.8064598349738 22.330340264597908,242.64170871165697 19.75283553870395,243.14088849372638 19.11483931937255,241.47695163336175 16.35869565210305,241.11088389311044 15.644139886600897,239.7464444063371 15.593100188998505,237.38361523432832 14.495746691827662,237.55001245711173 13.88327032129746,238.5151139521622 12.581758033949882,238.9144650990056 12.25,239.58004878804786 13.16871455567889,242.17580659492523 14.750945179490373,243.17416710693215 14.929584120865911,244.9712050031667 18.85964083170984,245.37054483304382 19.038279773201793,252.79148263551178 21.207466918742284,253.55685708860983 22.48345935717225,252.52526483181282 23.78497164451983,252.29232399835018 24.167769376188517,253.7897966291639 23.78497164451983,255.32053625678236 26.26039697532542,258.14904981320433 26.362476370530203,259.679760153158 29.60349716444034,260.0457980586507 30.34357277874369,259.31372165960784 29.986294895992614,248.43212693950045 29.70557655952871,247.96623666428786 28.429584120982327,247.73329116942477 28.378544423379935,245.60349274372857 26.89839319465682,243.73990278823476 26.132797731552273,243.3405601001723 24.729206048999913,243.77318131402717 22.534499054774642,242.5751513246796 19.727315689902753,243.10760987557296 19.063799621886574,241.4436727721477 16.33317580341827,241.04432605899638 15.720699432771653,239.77972351550125 15.593100188998505,237.31705631120712 14.495746691827662,237.55001245711173 13.806710774893872,238.6149518043967 12.352079395088367,239.18069880790426 12.887996219214983,241.67662469831703 14.801984877092764,243.10760987557296 14.980623818351887,245.00448334911198 18.88516068039462,245.33726654063503 19.11483931937255,252.79148263551178 21.054347826051526,253.55685708860983 22.611058601061814,252.49198758440616 23.836011342238635,252.29232399835018 24.167769376188517,253.7232424990798 23.861531190807,255.52019718913652 26.336956521612592,258.21560265053995 26.464555765502155,259.71303635064396 29.782136105699465,260.0457980586507 30.394612476229668,259.61320774353226 30.445652173948474,255.2872594177461 33.150756143731996,254.65499855196686 33.45699432888068,254.1558439974906 33.40595463139471,237.8162477606238 33.73771266522817,235.48667830464547 51.16776937618852,234.95420194136386" stroke="#4dd2ff" stroke-linecap="round" stroke-linejoin="round" stroke-width="0.5"><title>2023-02-22 10.2km</title></polyline><polyline fill="none" points="57.25,247.7464208045276 59.857620528768166,247.72999292761597 63.649377916008234,247.80391829811379 67.72142301710846,247.75874170591123 68.05839813374041,247.7957043776696 69.14490668740473,247.67249528282446 75.95684292378428,247.31929288477477 76.95517107308842,247.38911231536986 77.51889580092393,247.33161397337062 79.75489891135658,247.31929288477477 80.91069206842803,247.40554039149174 84.70874805600033,247.23715215618358 88.11944012441381,247.24125919832113 88.60443234836566,247.26179439996486 88.77764385692717,247.40964740902382 89.04218506997859,247.39732635463224 89.25318818038795,247.25768736083955 90.73020995334082,247.20840284447513 93.97398911352502,247.24947328078088 94.23853032659099,247.20018875002643 97.04770606530656,247.19608170188803 97.75,247.274115513761" stroke="#4dd2ff" stroke-linecap="round" stroke-linejoin="round" stroke-width="0.5"><title>2023-02-17 11.0km</title></polyline><polyline fill="none" points="102.25,247.58499018563998 102.79354971239809,247.58860672207993 102.84069433031254,247.74411728924497 103.47576006573217,247.69348604905645 110.22021364008833,247.71518516466858 111.01612571897567,247.76581636048832 112.37777321280737,247.70795212824487 112.63290879210399,247.74773380243641 114.38835250615375,247.74773380243641 121.47945768282807,247.33544789518965 122.41957682826614,247.3860798676833 125.02362366473244,247.33544789518965 126.09963023828459,247.3969295626066 129.06696795398602,247.2594997422675 130.58668857847806,247.29204897919408 132.0869967132312,247.2558831577462 132.61668036153424,247.28843239943308 132.78029991782387,247.4113958150956 133.0021569433011,247.40054612651875 133.20737469186133,247.26673290972758 134.16967953983112,247.23418363951168 142.75,247.2594997422675" stroke="#4dd2ff" stroke-linecap="round" stroke-linejoin="round" stroke-width="0.5"><title>2023-02-03 12.5km</title></polyline><polyline fill="none" points="187.75,239.42984767492453 186.73750000004657,239.26480385215837 186.28187499998603,235.03964094315597 168.36062499997206,235.4027439837082 168.03156250005122,236.1619575467339 168.48718749999534,244.7772023081925 168.00624999997672,249.56330747199536 168.46187500003725,251.84079778185696 168.1074999999255,254.18427834298927 167.67718750005588,254.64637023313844 165.39906249998603,254.74538980085345 165.0193750000326,254.31630469376978 164.53843749989755,248.01196035010798 163.1209375000326,247.64887757084216 163.0956249999581,245.53638437445625 161.42499999993015,243.52289591469162 159.47593749989755,243.65492849450675 157.2231249999022,242.4996408053412 154.46406250004657,243.06078127784713 153.88187499996275,241.44337260637258 151.09749999991618,240.81621102709323 150.59124999993946,239.89196973737853 150.36343750008382,237.18524135615735 149.32562499993946,237.4163048008195 148.59156249987427,238.57161847998213 147.37656249990687,238.80268050695304 147.25,239.46285642495786 148.08531249989755,241.9054905509256 149.80656249984168,242.9287483508233 149.90781250002328,244.7772023081925 153.75531250005588,245.1402897015796 154.00843749998603,252.50093560988898 156.109375,253.4581320352445 157.52687499998137,252.33590133370308 158.91906250000466,252.30289446393726 158.76718749990687,255.30649986561912 161.27312499994878,257.9139930621168 161.37437500001397,259.56428966527164 164.3106250000419,259.8613417740853 165.12062499998137,259.3662547092681 164.69031249999534,248.14399030695495 163.1209375000326,247.54985489341198 163.1462499999907,245.70142361655599 162.3868749999674,244.48013037048804 161.22249999991618,243.29183871438727 159.60249999992084,243.68793662746612 157.24843749997672,242.4996408053412 154.59062499995343,243.06078127784713 153.78062499989755,241.31133873431827 151.47718749998603,241.17930478512426 150.66718749993015,239.92497841994918 150.4646875000326,237.18524135615735 149.42687499988824,237.4163048008195 148.89531249995343,238.37356512600672 147.55374999996275,238.80268050695304 147.25,239.42984767492453 148.11062499997206,241.97150732306181 149.80656249984168,243.09378949746315 149.93312499998137,244.84321824117796 153.72999999998137,244.97525004962517 154.03375000006054,252.5669492866291 156.0840624999255,253.4911387362663 157.72937500011176,252.2368807101302 158.84312499989755,252.1708669369691 158.74187499983236,255.33950629661558 161.2478124999907,257.9469991123333 161.32374999998137,259.53128385134914 164.00687499996275,259.960359056844 164.96874999988358,259.6303012788412 165.14593750005588,259.13521370786475 165.0700000000652,251.2466720878001 164.61437500000466,247.94594534262433 163.29812499997206,247.71489266492426 162.9184374999022,245.10728178083082 161.37437500001397,243.39086325772223 159.62781249987893,243.75395287873107 157.24843749997672,242.53264910703 154.54000000003725,243.12679771239345 154.03375000006054,241.44337260637258 151.75562499987427,241.1132877815835 150.81906249991152,240.25506498053437 150.4899999999907,237.2512595073349 147.37656249990687,239.09975990875682 148.11062499997206,241.9054905509256 149.8571874999907,243.12679771239345 149.95843749993946,244.84321824117796 153.67937499994878,245.07427385517803 154.03375000006054,252.63296294411703 156.0840624999255,253.4581320352445 157.70406250003725,252.2368807101302 158.84312499989755,252.1708669369691 159.1215624999022,253.557152123758 158.74187499983236,255.24048698905972 161.22249999991618,257.9469991123333 161.29843749990687,259.49827803260996 164.63968750007916,259.76232444784546 165.24718750000466,259.26723716616107 165.17125000001397,255.1744740933791 167.65187499998137,254.58035716378072 168.23406249994878,253.68917884079565 168.43656249996275,235.43575332207547 186.4084375000093,235.1056597212155" stroke="#4dd2ff" stroke-linecap="round" stroke-linejoin="round" stroke-width="0.5"><title>2023-01-30 10.2km</title></polyline></svg>