<?xml version="1.0" encoding="utf-8" ?>
<svg baseProfile="full" height="300mm" version="1.1" viewBox="0,0,200,300" width="200mm" xmlns="http://www.w3.org/2000/svg" xmlns:ev="http://www.w3.org/2001/xml-events" xmlns:xlink="http://www.w3.org/1999/xlink"><defs /><rect fill="#222222" height="300" width="200" x="0" y="0" /><text fill="#FFFFFF" style="font-size:12px; font-family:Arial; font-weight:bold;" x="10" y="20">Over 10km Runs</text><text fill="#FFFFFF" style="font-size:4px; font-family:Arial" x="10" y="280">ATHLETE</text><text fill="#FFFFFF" style="font-size:9px; font-family:Arial" x="10" y="290">chending</text><text fill="#FFFFFF" style="font-size:4px; font-family:Arial" x="120" y="280">STATISTICS</text><text fill="#FFFFFF" style="font-size:3px; font-family:Arial" x="120" y="285">Number: 14</text><text fill="#FFFFFF" style="font-size:3px; font-family:Arial" x="120" y="290">Weekly: 1.3</text><text fill="#FFFFFF" style="font-size:3px; font-family:Arial" x="141" y="285">Total: 160.3 km</text><text fill="#FFFFFF" style="font-size:3px; font-family:Arial" x="141" y="290">Avg: 11.5 km</text><text fill="#FFFFFF" style="font-size:3px; font-family:Arial" x="167" y="285">Min: 10.0 km</text><text fill="#FFFFFF" style="font-size:3px; font-family:Arial" x="167" y="290">Max: 16.1 km</text><polyline fill="none" points="55.60000000009313,45.416158015446854 54.996571428724565,45.23731695675815 54.80457142868545,40.51586576081172 52.363428571494296,40.480096843719366 51.67771428578999,40.980861208285205 46.21942857152317,40.44432792138832 35.138285714318044,41.088167724592495 34.78171428584028,54.78724674176192 35.11085714295041,61.36825498913822 34.23314285709057,61.90474242976052 32.395428571500815,61.97627399969497 31.874285714351572,61.547084266727325 31.35314285720233,54.679946228978224 29.87200000009034,54.143442959102686 29.92685714282561,52.10471981311275 28.17142857145518,49.70830423699226 25.702857143012807,49.815606928488705 23.37142857152503,48.5995070040517 20.354285714332946,49.10025476325245 19.915428571519442,47.49070475023473 17.227428571437486,47.02572166553 16.267428571358323,46.1315209439781 16.04799999995157,42.94813986829831 14.896000000066124,43.12698259901663 13.990857142722234,44.271572982528596 12.646857142914087,44.700792996867676 12.427428571507335,45.380389814206865 13.113142857211642,47.70531202998245 15.087999999988824,49.171790073873126 15.225142857176252,51.17477028466237 19.531428571557626,51.63974549040722 19.558857142808847,59.50842276147159 21.8080000000773,60.581404616779764 23.398857142892666,59.365358158858726 24.742857142933644,59.18652728806774 25.2091428572312,60.43834064096154 24.880000000004657,62.65582287212601 27.54057142860256,65.44553006027127 27.595428571337834,67.05496205868258 30.99657142860815,67.55567207859713 31.92914285720326,66.84037173670367 31.462857142905705,55.00184762655408 31.161142857163213,54.35804440808715 29.899428571457975,54.10767603269778 29.844571428722702,52.03318535939616 28.8022857143078,50.5309570038371 27.6228571429383,49.422163496215944 25.867428571451455,49.85137448183377 23.508571428596042,48.5995070040517 20.491428571403958,49.10025476325245 19.860571428667754,47.41916894851602 17.446857142960653,46.95418572802737 16.404571428429335,46.20305712179106 16.075428571552038,42.91237130649097 14.758857142995112,43.162751129464596 12.427428571507335,45.23731695675815 13.35999999998603,48.09875822083268 15.170285714208148,49.207557721369085 15.28000000002794,51.13900292471226 19.531428571557626,51.63974549040722 19.5862857142929,59.40112431738817 21.8080000000773,60.509872639304376 23.453714285744354,59.47265661860001 24.85257142863702,59.29382582620019 25.264000000082888,60.581404616779764 24.962285714340396,62.69158854999114 27.513142857234925,65.37399950380495 27.705142857157625,67.19802216887183 31.984000000054948,67.12649212412362 31.462857142905705,54.679946228978224 29.899428571457975,54.143442959102686 29.954285714309663,52.068952588917455 29.131428571534343,50.78132903642836 27.595428571337834,49.31486063230841 25.867428571451455,49.70830423699226 23.398857142892666,48.52797152637504 20.381714285816997,49.136022421109374 19.695999999996275,47.3118652067933 17.529142857179977,46.98995369943441 16.404571428429335,46.1315209439781 15.993142857216299,42.7692970069329 14.731428571394645,43.12698259901663 12.400000000023283,45.094244015723234 13.250285714282654,48.02722259685106 15.115428571472876,49.171790073873126 15.307428571511991,51.17477028466237 19.44914285710547,51.63974549040722 19.66857142862864,59.40112431738817 21.862857142812572,60.54563863067597 24.770285714417696,59.15076109828078 25.15428571437951,60.54563863067597 24.90742857148871,62.72735422269034 27.45828571426682,65.37399950380495 27.67771428578999,67.12649212412362 31.2160000000149,67.41261217744614 31.984000000054948,66.8046066647803 31.490285714389756,54.75147990939149 29.87200000009034,54.07190910098143 29.789714285638183,51.60397819832724 27.732571428641677,49.386395880181226 25.92228571441956,49.77983936981764 23.316571428556927,48.456436027699965 20.54628571437206,49.10025476325245 19.750857142964378,47.27609728247626 16.92571428581141,46.84688178250508 16.21257142862305,45.73807159191347 16.075428571552038,42.91237130649097 14.868571428698488,43.12698259901663 14.045714285806753,44.271572982528596 12.619428571430035,44.62925638005254 12.400000000023283,45.34462160761177 13.030857142875902,47.70531202998245 15.087999999988824,49.171790073873126 15.307428571511991,51.17477028466237 19.504000000073574,51.60397819832724 19.695999999996275,59.50842276147159 21.8080000000773,60.581404616779764 24.797714285668917,59.18652728806774 25.181714285630733,60.72446850890992 24.85257142863702,62.58429150066513 27.513142857234925,65.40976478465018 27.650285714422353,67.09072709402244 30.99657142860815,67.48414213853539" stroke="#4dd2ff" stroke-linecap="round" stroke-linejoin="round" stroke-width="0.5"><title>2023-05-07 11.2km</title></polyline><polyline fill="none" points="78.39999999999418,54.220284349879876 80.64559374384407,54.18696437196195 86.60166918578034,54.216582132277836 87.89054347110505,54.27211533957052 88.13185253334814,54.23509321489473 91.26603141223313,54.24249764415981 98.47407504764851,53.82784627365618 99.42511664585618,53.879678066010456 102.48832227113598,53.83895309522268 102.97661825589603,53.90929618548034 105.76160872708715,53.76120524198632 109.50899651704822,53.74639610003578 109.87521850560734,53.76120524198632 110.07678254584607,53.90559392243449 110.32660839850723,53.89078486487233 110.51113885785162,53.76490752612699 111.81704672405613,53.72788466042948 121.59999999999127,53.73158694943231" stroke="#4dd2ff" stroke-linecap="round" stroke-linejoin="round" stroke-width="0.5"><title>2023-05-05 13.0km</title></polyline><polyline fill="none" points="187.59999999997672,45.41070126123668 186.968742058496,45.088582694676006 186.6668360864278,40.50729501695605 172.97128335444722,40.686253174746525 167.12528589565773,41.366292981882 167.0429479033919,61.37293531684554 164.3532401524717,62.017129210507846 163.77687420579605,61.48030108338571 163.33773824642412,54.71616590753547 161.77331639139447,54.32248033207725 161.7458703938173,51.85298365801282 159.87954256671946,49.66978471017501 157.68386276997626,49.84873617546691 155.29606099100783,48.66765408874198 152.30444726813585,49.20451028854586 151.78297331638169,47.522356931018294 149.1756035577273,47.128659796580905 148.24243964406196,46.16230960265966 147.91308767464943,42.97690604854142 146.76035578141455,43.191653657399 146.10165184235666,44.19380667699443 144.7293519694358,44.7306726797251 144.4274459973676,45.41070126123668 145.16848792880774,47.808681722410256 147.11715374828782,49.31188138725702 147.22693773824722,51.13718286776566 151.50851334177423,51.53087356114702 151.6731893265387,59.511921221157536 153.8688691232819,60.585584924469 155.37839898339007,59.36876570527966 156.83303684880957,59.154032274658675 157.29961880552582,60.585584924469 156.97026683599688,62.69710981663957 159.52274459961336,65.45280137460213 159.63252858957276,67.17061939218547 163.03583227435593,67.52849663022789 163.88665819575544,66.74116601679998 163.77687420579605,58.151940443291096 163.3926302413456,54.64458675905189 161.80076238885522,54.17932178423507 161.71842439635657,51.781403673041495 159.52274459961336,49.52662344372948 157.87598475220148,49.92031672500889 155.35095298604574,48.70344453868165 152.33189326548018,49.16871991172957 151.89275730622467,47.55814754830499 149.39517153741326,47.200241140817525 148.3247776364442,46.26968203463184 148.0777636592975,42.86953217351402 146.81524777633604,43.15586240233097 145.9369758575922,44.30117997160414 144.75679796689656,44.623299573213444 144.40000000002328,45.37491033025435 145.19593392626848,47.98763454706932 147.08970775082707,49.31188138725702 147.22693773824722,51.20876304076228 150.84980940271635,51.28034319309518 151.5634053365793,51.74561367277056 151.64574332896154,59.47613235010067 153.923761118087,60.585584924469 155.40584498085082,59.47613235010067 156.86048284603748,59.29718791593041 157.24472681072075,60.62137363356305 156.94282083853614,62.84026338803233 159.44040660734754,65.41701337121776 159.6599745870335,67.20640713957255 163.1456162641989,67.49270892990171 163.88665819575544,66.99168057735369 163.4475222362671,54.7519554738974 161.8556543836603,54.17932178423507 161.69097839901224,51.74561367277056 159.6599745870335,49.52662344372948 157.84853875474073,49.84873617546691 155.32350698846858,48.66765408874198 152.55146124516614,49.24030066007981 151.83786531130318,47.45077568090346 149.06581956788432,47.05707843140408 148.2698856415227,45.947564597503515 147.99542566703167,42.94111476209946 146.7878017788753,43.15586240233097 146.01931384997442,44.336971059354255 144.40000000002328,45.19595559727168 145.141041931347,48.13079671260493 147.11715374828782,49.38346209363954 147.22693773824722,51.28034319309518 151.5359593393514,51.70982366717362 151.70063532399945,59.58349894772982 153.89631512062624,60.62137363356305 156.0096569249872,59.26139901349961 156.94282083853614,59.40455459212535 156.75069885642733,62.553956161718816 159.49529860226903,65.48858937276236 159.6599745870335,67.20640713957255 163.6945362134138,67.34955807651568 163.88665819575544,62.33922552240256 166.71359593397938,61.76660956420528 167.1527318932349,60.979260436826735 167.26251588307787,41.07996066160558 174.81016518420074,40.471503369757556 181.6716645489214,40.650461553625064" stroke="#4dd2ff" stroke-linecap="round" stroke-linejoin="round" stroke-width="0.5"><title>2023-04-17 10.1km</title></polyline><polyline fill="none" points="12.39999999999418,102.25730274562738 17.05818882463791,102.2331808661911 18.531791907487786,102.2894652186551 19.78342967243225,102.23720118089477 22.576493256230606,102.29750583104214 23.911368015382322,102.25328243385593 26.5071290943888,102.2894652186551 27.620038535635103,102.1728760750866 33.94913294794969,101.83114642927285 35.26242774564889,101.87537050484389 37.95375722540484,101.8150649296258 39.1221579961275,101.89547233387748 41.78574181115255,101.76279999087456 46.16647398842906,101.74671845127341 46.61657032753283,101.75877960685284 46.81695568400028,101.90351306138473 47.08824662811821,101.89949269792123 47.251637764900806,101.77486113939449 48.435452793812146,101.72661651358248 52.60346820806444,101.71455534390407 52.83776493254118,101.77084075713356 53.29402697493788,101.71053495285014 54.37302504816034,101.70249416895604 55.59999999999127,101.76279999087456" stroke="#4dd2ff" stroke-linecap="round" stroke-linejoin="round" stroke-width="0.5"><title>2023-04-14 12.0km</title></polyline><polyline fill="none" points="121.59999999997672,93.50727685597667 120.91297709918581,93.50727685597667 121.05038167920429,88.77682009447017 108.68396946566645,88.70514580562303 101.1267175571993,89.31437659314543 101.0717557251919,109.38230972943711 100.4946564885322,109.8839870262018 98.43358778615948,109.95565512763278 97.82900763349608,109.52564620455087 97.36183206096757,102.68123604240827 95.82290076336358,102.3228847001883 95.79541984724347,99.95775271393359 94.09160305350088,97.77177711726108 93.26717557245865,97.44925447861897 91.89312977099326,97.84344875713577 89.14503816794604,96.6250280313252 86.45190839702263,97.12673141602136 85.70992366410792,95.3349289024045 83.2641221373342,95.11991172129638 82.3572519083973,94.2598411123181 81.9450381679926,90.92703902139328 80.81832061067689,91.10622308122402 79.9938931298675,92.28883459375356 78.61984732816927,92.64720059317187 78.6748091604095,97.34174683825404 81.06564885494299,97.23423915077001 81.45038167934399,99.34854835788428 84.85801526717842,99.27687715773936 85.57251908408944,99.67106849950505 85.76488549611531,107.55476233022637 87.90839694649912,108.48645486214082 89.50229007634334,107.26808699313551 90.84885496180505,107.01724579840084 91.28854961832985,108.59395761901396 90.95877862593625,110.49316522169102 93.54198473284487,113.50319998641498 93.62442748097237,115.04403682569682 97.19694656482898,115.43820283486275 97.96641221374739,114.6857035405119 97.60916030535009,104.18630596362345 97.3068702290766,102.50206043674552 95.82290076336358,101.9645328346378 95.85038167925086,100.17276565483189 95.32824427471496,99.16937031823909 93.78931297711097,97.34174683825404 91.89312977099326,97.84344875713577 89.41984732821584,96.55335603556887 86.56183206103742,97.12673141602136 85.46259541984182,95.11991172129638 82.9068702289369,95.08407550617994 82.1374045801349,93.82980467709422 81.9450381679926,90.81952852271206 78.61984732816927,92.61136401673139 79.141984732938,95.83663492534833 81.1480916030705,97.19840324440156 81.28549618308898,99.16937031823909 85.49007633584552,99.59939739362744 85.6824427479878,107.48309352737851 88.01832061063033,108.52228911970451 89.36488549609203,107.44725911809655 90.84885496180505,107.16058365539357 90.95877862593625,110.74400286258606 93.59694656485226,113.43153292126954 93.81679389299825,115.1873699931457 97.27938931295648,115.43820283486275 97.91145038162358,114.72153689265542 97.47175572509877,102.89624659650144 97.11450381681789,102.3228847001883 95.93282442749478,102.21537919549155 95.74045801523607,99.7069040446222 93.70687022898346,97.44925447861897 91.86564885498956,97.84344875713577 89.33740457997192,96.6250280313252 86.50687022891361,97.23423915077001 85.65496183210053,95.29909271867655 82.9618320610607,94.97656682920933 82.1648854961386,93.61478617676767 82.0549618320074,90.92703902139328 80.95572519081179,91.03454947298451 79.96641221374739,92.28883459375356 78.40000000002328,93.00556606917235 79.30687022896018,96.05165147832304 81.06564885494299,97.12673141602136 81.31297709920909,99.16937031823909 85.46259541984182,99.59939739362744 85.81984732823912,107.66226549522253 87.93587786261924,108.48645486214082 89.83206106862053,107.23225255247962 90.87633587792516,107.23225255247962 91.26106870232616,108.52228911970451 90.93129770981614,110.60066709927924 93.51450381672475,113.43153292126954 93.70687022898346,115.15153670916334 97.77404580148868,115.25903654561262 97.9389312977437,110.24232732440578 100.68702290079091,109.7764848346269 101.23664122121409,109.05980235396419 101.4015267174691,88.99184283522482 113.05343511444516,88.5617971651518" stroke="#4dd2ff" stroke-linecap="round" stroke-linejoin="round" stroke-width="0.5"><title>2023-04-03 10.0km</title></polyline><polyline fill="none" points="144.39999999999418,102.23117079136318 150.21117533717188,102.23519110665984 154.20963391134865,102.30353637681401 158.51637764931365,102.28343484438847 159.59537572252157,102.17890663907019 166.18342967241188,101.8291362957043 167.2377649325499,101.88542147868975 169.92909441230586,101.81707517009454 170.6566473988205,101.8371770431786 171.0789980732079,101.90552330185346 173.77341040459578,101.76481023134329 178.11714836221654,101.74470830538121 178.59499036606576,101.76078984732158 178.8477842003631,101.89748257434621 179.0974951830285,101.87738074531262 179.26705202310404,101.76481023134329 180.63275529863313,101.72058597485011 183.70327552984236,101.74872869174214 184.5325626203994,101.70048401659187 184.67129094409756,101.75274907752646 186.2096339113341,101.69646362318417 186.30520231211267,101.74068791843274 187.32870905585878,101.72460636474716 187.59999999999127,101.78089176152389" stroke="#4dd2ff" stroke-linecap="round" stroke-linejoin="round" stroke-width="0.5"><title>2023-03-31 11.9km</title></polyline><polyline fill="none" points="12.39999999999418,149.07932178599003 12.5478608100384,149.1307414994044 23.711351968056988,149.16287875924354 24.65766115230508,149.07289431336358 29.864826012548292,148.799724990693 30.6287735310907,148.83829027719185 33.12515687393898,148.80293876715405 33.7708157444431,148.85435912660796 35.9147974900261,148.75151828749767 39.24905875642435,148.7322355766355 39.7715002852201,148.75473207099458 39.9242897889344,148.85114535767025 40.079543639483745,148.8640004306253 40.291477467195364,148.7450907190905 41.61729606389417,148.7161666380107 53.522555618939805,148.70973905926803 53.71723901882069,148.75794585402946 53.71231032516516,149.34284654674775 53.63591557330801,149.51638551889664 53.66548773529939,149.87310021804115 53.77145464917703,149.97272220885316 53.96860239589296,149.98879022963592 54.02528237308434,150.15268337130692 54.286503137482214,150.09483887248643 54.51075869938359,150.20410057588742 54.63644038789789,150.1687512606477 54.73254991443537,150.2073141471883 54.87301768397447,150.39691402283643 54.87301768397447,150.58972577991335 55.01841414718365,150.6411419630731 55.077558471195516,151.2902609407338 55.35110096975404,151.2452731144167 55.356029663438676,150.43869004694352 55.40038790645485,150.4065546508209 55.59999999999127,150.4322629714734" stroke="#4dd2ff" stroke-linecap="round" stroke-linejoin="round" stroke-width="0.5"><title>2023-03-15 16.1km</title></polyline><polyline fill="none" points="121.59999999997672,141.25828060104686 120.17877094971482,141.32821854228678 120.17877094971482,137.76135748605884 119.61564245796762,136.78220985928783 100.8983240223024,137.41166236480058 100.49608938547317,139.3349792095687 100.8983240223024,147.79738974838983 100.25474860344548,151.71377601013228 100.63016759755556,157.13366916659288 100.06703910615761,157.65816844411893 97.86815642449073,157.90293438035587 97.41229050280526,157.4483688710461 96.98324022337329,150.69971785735106 95.42793296091259,150.2801063306979 95.42793296091259,148.11210172620486 93.60446927382145,145.8042042813031 91.40558659203816,146.01401405937213 89.01899441331625,144.75515263272973 86.14972067030612,145.31464741738455 85.45251396647654,143.49628458588268 82.6905027931789,143.11162914012675 82.1005586591782,142.02759683088516 81.91284916200675,139.2300714164303 80.75977653625887,139.36994846364541 80.03575418994296,140.5239309843746 78.69497206714004,140.94355961259862 78.69497206714004,145.3845841735747 80.86703910608776,145.20974224492966 81.40335195523221,147.412741213775 85.10391061450355,147.5526134797401 85.39888268162031,147.9372617896879 85.42569832410663,155.3503630275809 87.67821229051333,156.4343350090785 89.1798882681178,155.24546225270024 90.57430167589337,155.00069359940244 90.76201117318124,158.7421299763373 93.14860335190315,161.15480092873622 93.28268156421836,162.79820055460732 96.5005586593179,163.21779014071217 97.38547486031894,162.76323472263175 97.38547486031894,154.33632027894782 96.95642458088696,150.69971785735106 95.37430167582352,150.2101710048155 95.40111731842626,148.14706969817053 94.75754189945292,147.0980283166282 93.22905027924571,145.62936265910685 91.51284916198347,146.04898233778658 88.91173184360377,144.82508955225057 86.14972067030612,145.3845841735747 85.69385474862065,143.7060963867698 83.17318435746711,143.3913786165358 82.2078212290071,142.51716041711916 81.99329608934931,139.30000995026785 80.57206703908741,139.43988695660664 79.95530726248398,140.55890006486152 78.45363128499594,141.25828060104686 79.15083798882551,144.0907508773962 81.05474860337563,145.24471064080717 81.37653631274588,147.412741213775 85.31843575416133,147.58758153332747 85.47932960896287,155.42029685195303 87.70502793299966,156.3294347092742 89.28715083794668,155.21049531760218 90.6279329607496,155.10559448153072 90.97653631283902,156.39936824751203 90.54748603352346,158.35749902667885 93.0949720669305,161.08486877952237 93.28268156421836,162.79820055460732 96.58100558654405,163.1478585940058 97.38547486031894,162.76323472263175 97.38547486031894,153.91671512648463 96.92960893851705,150.69971785735106 95.40111731842626,150.38500928127905 95.42793296091259,148.21700562682236 93.44357541890349,145.76923596714914 91.59329608944245,146.08395061119518 88.91173184360377,144.82508955225057 86.28379888262134,145.41955254403 85.64022346376441,143.6011905093619 82.7977653631242,143.32144127816719 82.02011173183564,141.92269021789252 81.93966480437666,139.3349792095687 80.70614525128622,139.40491771274537 79.95530726248398,140.55890006486152 78.40000000002328,141.2932495742716 79.17765363131184,144.1956565403816 81.13519553071819,145.41955254403 81.21564245817717,147.27286886613 85.34525139676407,147.62254958201083 85.55977653630544,155.49023065583606 87.73184357536957,156.4343350090785 89.28715083794668,155.21049531760218 90.65474860335235,155.1405614320538 90.65474860335235,158.56729780310707 93.0949720669305,161.15480092873622 93.36312849167734,162.9030980200332 97.3586592177162,162.97302963816037 97.49273743026424,158.21763307366928 100.57653631281573,157.13366916659288 100.7642458101036,137.5865099892544 102.5340782123385,137.09693631896516 110.49832402227912,137.0619667327992" stroke="#4dd2ff" stroke-linecap="round" stroke-linejoin="round" stroke-width="0.5"><title>2023-03-06 10.0km</title></polyline><polyline fill="none" points="144.50477209500968,150.0984579144024 144.39999999999418,150.1105137564482 144.41232612883323,150.19490450275225 144.60954419001064,150.25920204044814 153.69390113417467,150.2431276701136 154.89878022683843,150.30340651043662 157.9310079178249,150.24714626358218 158.5411512946739,150.29938792519533 159.3916541836079,150.18686729997353 166.44836293600383,149.82117208918498 167.2526428418496,149.88547050048328 170.09689706825884,149.83322805274656 171.11688422855514,149.90154507982515 172.93498823026312,149.86135861385446 173.8625294243393,149.77294818207156 178.05649475712562,149.74481753054715 178.61117055424256,149.76892951933587 178.88850845281559,149.90556372319043 179.09188957842707,149.88547050048328 179.24596618874057,149.76491085599991 180.4446822169848,149.72070552061996 183.443013053693,149.71668685025543 183.8929167558381,149.75687352757814 184.09937941364478,149.71266817928517 186.96828589770303,149.6965934895652 187.59999999999127,149.74481753054715" stroke="#4dd2ff" stroke-linecap="round" stroke-linejoin="round" stroke-width="0.5"><title>2023-03-03 12.1km</title></polyline><polyline fill="none" points="55.59999999997672,189.16651402509888 55.57223650382366,184.53223215413163 43.13419023132883,184.3874094493076 35.832390745403245,184.89428854582366 35.304884318728,185.69081074596033 35.66580976860132,196.9504643433611 35.11053984577302,199.59333141738898 35.69357326475438,201.1862787820137 35.61028277617879,205.53062865174434 33.00051413872279,206.0374645099364 32.13984575832728,205.6030338378332 31.612339331535622,198.6158359205583 29.97429305908736,198.2175959092565 29.946529562934302,195.86434641653614 28.475064267287962,193.80070924272877 27.558868894469924,193.43866586168588 26.059640102786943,193.94552644720534 23.28329048829619,192.64216856175335 20.423650385579094,193.22143957929802 19.840616966597736,191.3388038223202 17.064267352223396,190.61470933872624 16.314652956207283,189.3837438615592 16.175835475558415,186.81317859177943 14.843187660677359,187.0666157890082 14.121336760814302,188.2251825332496 12.733161953627132,188.58723353009555 12.427763496059924,189.27512896711414 13.20514138811268,191.84566870208073 15.23187660658732,193.07662195172452 15.342930591199547,195.24887747853063 18.53573264775332,195.06785691180266 19.590745501220226,195.42989791311265 19.729562981869094,203.57568063333747 20.756812339182943,204.37214279834006 22.089460154064,204.55315656992025 23.56092544971034,203.4308690555772 25.11568123381585,203.21365153034276 25.06015424162615,206.8701211699372 27.697686375118792,209.54908449033974 27.808740359847434,211.3591784509481 28.586118251783773,211.54018712007382 31.584575835382566,211.54018712007382 32.08431876602117,211.1419678736711 31.584575835382566,198.65203952629236 30.02982005139347,198.2175959092565 29.946529562934302,195.90055042401946 28.141902313567698,193.69209628399403 25.976349614327773,193.9093221539806 23.3388174806023,192.64216856175335 20.534704370074905,193.2576439728873 19.868380462750793,191.4474178123637 17.230848328908905,190.94055211817613 16.37017994839698,189.99922736432927 16.092544987099245,186.84938392158074 14.843187660677359,187.0666157890082 13.982519280165434,188.33379788784077 12.400000000023283,189.09410403727088 13.12185089965351,191.84566870208073 15.093059125938453,193.18523518032453 15.453984575695358,195.3574897551298 17.758354755700566,195.06785691180266 19.53521850903053,195.46610198402777 19.729562981869094,203.6480863904435 22.089460154064,204.55315656992025 23.50539845752064,203.5394777468464 25.06015424162615,203.21365153034276 25.421079691383056,204.7703729212808 25.087917737779208,206.90632357001596 27.669922879198566,209.62148850258382 27.83650385600049,211.3229767013254 31.778920308453962,211.5039853968774 31.945501285372302,203.46707195791532 31.529048843076453,198.68824312671495 29.946529562934302,198.29000323171203 29.91876606666483,196.0091624150955 27.892030848306604,193.58348327765998 25.92082262202166,193.94552644720534 23.56092544971034,192.64216856175335 20.562467866344377,193.29384836116515 19.812853470328264,191.4474178123637 16.897686375305057,191.08537099372188 16.092544987099245,189.60097350769502 16.120308483135886,186.9217945652781 14.898714652867056,187.03041049103194 14.01028277631849,188.2613876567193 12.53881748067215,188.6958487260854 12.400000000023283,189.52856364668696 13.343958868877962,192.1353053109051 15.204113110434264,193.2576439728873 15.23187660658732,195.24887747853063 19.590745501220226,195.68332629924407 19.757326478138566,203.57568063333747 22.0339331618743,204.69796749198576 23.42210796906147,203.5032748550293 24.97686375316698,203.17744859101367 25.39331619546283,204.69796749198576 25.14344473008532,207.0149307383399 27.669922879198566,209.62148850258382 27.808740359847434,211.3591784509481 31.33470437012147,211.6125905506924 32.05655526986811,211.17816964985104 32.05655526986811,206.5080968789116 35.27712082257494,205.49442605084914 35.415938303340226,185.03911095451622 43.71722365031019,184.42361513337528 50.852442159317434,184.53223215413163" stroke="#4dd2ff" stroke-linecap="round" stroke-linejoin="round" stroke-width="0.5"><title>2023-03-01 10.1km</title></polyline><polyline fill="none" points="121.59999999997672,189.33906547781953 120.56559546315111,189.23257212642056 120.34782608691603,184.93730138542014 107.82608695654199,184.68881232508284 101.21134215500206,185.2212885717745 100.74858223064803,185.9667533569591 100.6124763705302,191.39792776407558 101.12967863900121,204.10569163004402 100.55803402641322,205.66749384890136 98.18979206052609,205.98695215713815 97.6181474479381,205.38353055570042 97.23705103970133,198.88777961516462 95.63100189040415,198.28434038595879 95.57655954640359,196.01255573033995 93.69829867675435,193.70525270119833 91.79281663522124,193.9537325415149 89.09792060486507,192.71133079889114 86.29413988650776,193.31478386727395 85.64083175815176,191.46892270429817 82.45595463120844,190.82996749649465 81.96597353497054,189.76503841653175 81.96597353497054,187.06719719317334 80.74102079391014,187.35118189032073 79.9243856332032,188.4871173602005 78.61776937614195,188.91309179241944 78.42722117190715,189.6585452518775 79.29829867673106,192.10787623205397 81.12211720226333,193.38577824737877 81.23100189026445,195.26712176272122 85.42306238180026,195.65758745952917 85.47750472580083,203.5022653574415 87.68241965968627,204.46064756117994 89.37013232510071,203.28929102106486 90.73119092627894,203.25379528022313 91.08506616263185,204.63812533234886 90.73119092627894,206.48388646864623 93.39886578451842,209.50096583298 93.48052930051927,211.09822797987727 96.9376181474654,211.34669003701129 97.78147448017262,210.88526030012872 97.26427221181802,198.92327599388955 95.65822306240443,198.2488439140434 95.08657844993286,195.30261867004447 93.56219281652011,193.70525270119833 91.76559546310455,194.06022382396623 89.15236294886563,192.8178226257587 86.40302457474172,193.3502810599748 85.72249527403619,191.57541507556743 82.78260869567748,191.18494281930907 82.02041587908752,189.72954070007836 81.96597353497054,187.20918958327093 80.79546313802712,187.38667995424476 80.14215500943828,188.41612154895847 78.75387523625977,188.84209610559628 78.40000000002328,189.55205204058439 79.37996219273191,192.32086036792316 81.06767485826276,193.38577824737877 81.25822306238115,195.30261867004447 85.45028355391696,195.72858115524286 85.64083175815176,203.64424814454105 87.95463138003834,204.46064756117994 89.31568998110015,203.36028248725052 90.70396975416224,203.1118122649059 91.11228733463213,204.70911640443956 90.70396975416224,206.34190534055233 93.34442344040144,209.35898646739952 93.45330812851898,210.99174416335882 96.91039697546512,211.38218459588825 97.69981096405536,210.60130310356908 97.31871455570217,198.99426873546327 97.01928166358266,198.49731910855917 95.65822306240443,198.2488439140434 95.60378071828745,195.97705892662634 94.02495274099056,193.98922964077792 93.20831758028362,193.56326410683687 91.71115311898757,194.02472673494776 89.37013232510071,192.7468280796602 86.37580340262502,193.31478386727395 85.66805293003563,191.53991762360965 82.7553875236772,191.11394779625698 82.10207939508837,189.76503841653175 81.96597353497054,187.1381933986122 80.79546313802712,187.38667995424476 80.06049149320461,188.5226152580144 78.50888468802441,189.12607872842636 79.08052930049598,191.78839967820386 81.12211720226333,193.31478386727395 81.31266540638171,195.3381155723764 85.47750472580083,195.69308430999808 85.72249527403619,203.64424814454105 87.79130434780382,204.46064756117994 89.45179584121797,203.32478675668244 90.75841209839564,203.1118122649059 91.11228733463213,204.63812533234886 90.7856332702795,206.55487700173398 93.4260869565187,209.42997616056527 93.56219281652011,211.02723877402605 97.10094517946709,211.38218459588825 97.75425330805592,210.9207549264247 97.80869565228932,206.30641004559584 100.69413988664746,205.63199845541385 101.02079395088367,205.0995669306576 100.9663516067667,187.67066427799 101.32022684300318,185.18579019160825 119.9122873346787,184.61781540411175" stroke="#4dd2ff" stroke-linecap="round" stroke-linejoin="round" stroke-width="0.5"><title>2023-02-22 10.2km</title></polyline><polyline fill="none" points="144.39999999999418,198.2628488581613 147.18146189735853,198.24532578945582 151.22600311042333,198.32417951798743 155.56951788491278,198.27599115297016 155.92895800933184,198.31541800284685 157.08790046656213,198.18399496834354 164.35396578538348,197.80724574375927 165.41884914464026,197.88171980306106 166.02015552099328,197.82038823826042 168.4052255054412,197.80724574375927 169.63807153966627,197.89924308425725 173.68933125972399,197.71962896659534 177.32740279939026,197.7240098115417 177.8447278382664,197.74591402662918 178.0294867807097,197.9036239029574 178.3116640746448,197.89048144493972 178.5367340590892,197.74153318489516 180.11222395022924,197.68896303410656 183.57225505443057,197.732771499499 183.85443234836566,197.68020133335995 186.85088646966324,197.6758204820144 187.60000000000582,197.75905654801136" stroke="#4dd2ff" stroke-linecap="round" stroke-linejoin="round" stroke-width="0.5"><title>2023-02-17 11.0km</title></polyline><polyline fill="none" points="12.39999999999418,246.0906561980173 12.979786359894206,246.0945138368861 13.030073952337261,246.2603917751967 13.707477403455414,246.20638511899597 20.90156121610198,246.2295308423145 21.750534100239747,246.28353745118875 23.202958093665075,246.22181560346326 23.47510271158535,246.2642493892672 25.347576006577583,246.2642493892672 32.911421528348,245.8244777548698 33.91421528348292,245.87848519219733 36.69186524239194,245.8244777548698 37.8396055875055,245.89005820011516 41.00476581758994,245.74346639175383 42.62580115038145,245.77818557780847 44.226129827453406,245.7396087015968 44.791125718984404,245.77432789272825 44.96565324568655,245.90548886943725 45.20230073951825,245.89391586828788 45.421199671312934,245.7511817703762 46.447658175835386,245.71646254881307 55.60000000000582,245.74346639175383" stroke="#4dd2ff" stroke-linecap="round" stroke-linejoin="round" stroke-width="0.5"><title>2023-02-03 12.5km</title></polyline><polyline fill="none" points="121.59999999997672,237.39183751991368 120.52000000013504,237.21579077563365 120.0339999999851,232.7089503393654 100.91799999994691,233.09626024929457 100.56700000003912,233.90608804984367 101.05299999995623,243.09568246208073 100.53999999992084,248.2008613034559 101.02600000007078,250.6301843006513 100.64799999992829,253.1298968991905 100.18900000001304,253.62279491535446 97.75899999996182,253.7284157875838 97.35399999993388,253.27072500668874 96.84099999989849,246.54609104011615 95.32900000002701,246.15880274222582 95.30199999990873,243.90547666608472 93.51999999990221,241.75775564234937 91.4409999998752,241.89859039415023 89.03799999982584,240.66628352570115 86.09499999997206,241.264833363035 85.47399999992922,239.53959744681197 82.50399999984074,238.8706250955729 81.9639999999199,237.88476771987916 81.72100000001956,234.99759077989438 80.61399999994319,235.24405845422007 79.83099999988917,236.47639304531913 78.53499999991618,236.72285920740978 78.40000000002328,237.42704685329227 79.29099999985192,240.0325232543255 81.12699999986216,241.12399824087333 81.23499999998603,243.09568246208073 85.33900000003632,243.48297568169073 85.60899999993853,251.33433131722268 87.84999999997672,252.35534083760285 89.36199999996461,251.15829475595092 90.84699999995064,251.1230874282046 90.68499999993946,254.32693318999372 93.35800000000745,257.10825926625694 93.46599999989849,258.86857564296224 96.59799999999814,259.185431225691 97.46199999994133,258.65733835655556 97.00299999990966,246.68692299409304 95.32900000002701,246.0531785529747 95.35599999991246,244.08151852432638 94.54599999997299,242.7788057285361 93.30399999988731,241.51129462868266 91.57599999988452,241.93379906930204 89.06499999994412,240.66628352570115 86.22999999998137,241.264833363035 85.36599999992177,239.39876131659548 82.90899999986868,239.25792510414612 82.04499999980908,237.91997698128398 81.82900000002701,234.99759077989438 80.72199999995064,235.24405845422007 80.15499999991152,236.2651361344033 78.72399999992922,236.72285920740978 78.40000000002328,237.39183751991368 79.3179999999702,240.10294114459248 81.12699999986216,241.30004213062057 81.26199999987148,243.1660994572594 85.31199999991804,243.30693338626588 85.63600000005681,251.40474590573285 87.82299999985844,252.39054798535653 89.57800000009593,251.0526727574761 90.76599999994505,250.98225806609844 90.65799999982119,254.36214004972135 93.33100000000559,257.14346571982605 93.41200000001118,258.83336944144685 96.27399999997579,259.2910496606346 97.29999999993015,258.9389880307572 97.4890000000596,258.4108946217166 97.40800000005402,249.99645022700133 96.92199999990407,246.4756750321394 95.51800000004005,246.22921884259267 95.11299999989569,243.44776723287941 93.46599999989849,241.61692080824287 91.60299999988638,242.0042164039769 89.06499999994412,240.7014923808456 86.17599999997765,241.3352508932294 85.63600000005681,239.53959744681197 83.20599999988917,239.18750696702045 82.20699999993667,238.27206931257388 81.85600000002887,235.06801014117082 78.53499999991618,237.03974390267103 79.3179999999702,240.0325232543255 81.1809999999823,241.3352508932294 81.28899999987334,243.1660994572594 85.25799999991432,243.4125587788585 85.63600000005681,251.47516047372483 87.82299999985844,252.35534083760285 89.55099999997765,251.0526727574761 90.76599999994505,250.98225806609844 91.06299999984913,252.46096226535155 90.65799999982119,254.25651945499703 93.30399999988731,257.14346571982605 93.3849999998929,258.7981632347801 96.94900000002235,259.07981274437043 97.59699999995064,258.55171964391775 97.51599999994505,254.18610569959856 100.16200000001118,253.55238097469555 100.7829999999376,252.6017907635105 100.9989999999525,233.13147021020995 120.16899999999441,232.7793703692878" stroke="#4dd2ff" stroke-linecap="round" stroke-linejoin="round" stroke-width="0.5"><title>2023-01-30 10.2km</title></polyline></svg>