<?xml version="1.0" encoding="utf-8" ?>
<svg baseProfile="full" height="300mm" version="1.1" viewBox="0,0,200,300" width="200mm" xmlns="http://www.w3.org/2000/svg" xmlns:ev="http://www.w3.org/2001/xml-events" xmlns:xlink="http://www.w3.org/1999/xlink"><defs /><rect fill="#222222" height="300" width="200" x="0" y="0" /><text fill="#FFFFFF" style="font-size:12px; font-family:Arial; font-weight:bold;" x="10" y="20">Over 10km Runs</text><text fill="#FFFFFF" style="font-size:4px; font-family:Arial" x="10" y="280">ATHLETE</text><text fill="#FFFFFF" style="font-size:9px; font-family:Arial" x="10" y="290">chending</text><text fill="#FFFFFF" style="font-size:4px; font-family:Arial" x="120" y="280">STATISTICS</text><text fill="#FFFFFF" style="font-size:3px; font-family:Arial" x="120" y="285">Number: 31</text><text fill="#FFFFFF" style="font-size:3px; font-family:Arial" x="120" y="290">Weekly: 1.1</text><text fill="#FFFFFF" style="font-size:3px; font-family:Arial" x="141" y="285">Total: 343.9 km</text><text fill="#FFFFFF" style="font-size:3px; font-family:Arial" x="141" y="290">Avg: 11.1 km</text><text fill="#FFFFFF" style="font-size:3px; font-family:Arial" x="167" y="285">Min: 10.0 km</text><text fill="#FFFFFF" style="font-size:3px; font-family:Arial" x="167" y="290">Max: 16.1 km</text><polyline fill="none" points="34.385303503484465,31.714285714289872 33.72689928882755,31.766325868826243 34.385303503484465,34.83666806902329 36.42037107585929,37.880938157832134 36.859307218925096,37.620746166896424 35.04370771814138,39.31198731288896 30.714201216003858,39.31198731288896 31.372605430544354,41.65367930910725 31.073330787592568,42.876550669403514 31.053379144752398,58.27880723014823 28.85869842930697,58.356855814214214 28.49956885771826,53.12752506377001 27.42218014295213,52.971423278489965 27.342373571475036,51.25429461107706 26.10537171375472,49.66723672798253 24.429433712968603,49.719271636902704 22.71359242638573,48.83467611775268 20.518911711056717,49.250956909381784 20.079975567990914,47.95007620519027 17.845391566865146,47.45573904637422 17.446358709479682,46.77927544763952 17.32664885232225,44.6978328749974 16.428824923350476,44.82792374842393 15.91008220880758,45.60846699369722 14.712983636767603,46.23289912690234 14.99230663687922,49.30299193991232 16.628341351985,49.250956909381784 16.927615995053202,50.812001212572795 19.840555853559636,50.968104890402174 20.00016899651382,56.76986121562368 21.676106997183524,57.49831950823136 22.67368914070539,56.639779064120376 23.79098114115186,56.5357132745703 24.070304141379893,57.5503521294595 23.8308844268322,58.95522715615516 25.706338856369257,61.08853471255861 25.74624214216601,62.28525703359628 28.77889185794629,62.38931946417142 28.918553357943892,56.22351554101624 28.61927871487569,53.335660564596765 27.42218014295213,52.893372334568994 27.4421317857923,51.25429461107706 26.205129928071983,49.719271636902704 25.626532284892164,49.43307944970729 24.50924028432928,49.74528908562206 22.7335440692259,48.83467611775268 20.538863353896886,49.276974426582456 20.099927210831083,47.9760939124244 18.204521138453856,47.767952148395125 17.66582678107079,47.221578860640875 17.36655213800259,44.6978328749974 16.448776566190645,44.85394191168598 15.810323994490318,45.634485042930464 14.732935279607773,46.076791298837634 14.912500065402128,49.12086926653865 16.628341351985,49.30299193991232 16.86776106641628,50.812001212572795 19.80065256776288,50.94208762027847 20.00016899651382,56.7438447928871 21.556397140142508,57.49831950823136 22.793398997746408,56.639779064120376 23.77102949831169,56.50969681770948 24.03040085558314,57.60238473539357 23.75107785547152,58.98124325585377 25.706338856369257,61.062518920662114 25.74624214216601,62.25924141648284 28.140439286245964,62.57142857143481 28.81879514362663,62.20721017078904 28.918553357943892,61.21861361521587 28.61927871487569,53.335660564596765 28.399810643400997,52.945406300976174 27.382276857155375,52.893372334568994 27.482035071472637,51.28031183563871 26.145274999551475,49.61520180387015 25.566677356371656,49.43307944970729 24.48928864148911,49.74528908562206 22.7335440692259,48.80865853599971 20.518911711056717,49.250956909381784 20.159782139468007,47.9760939124244 18.204521138453856,47.68989892418904 17.5860202095937,47.06547189906996 17.32664885232225,44.67181468885974 16.349018351873383,44.87996007114998 15.71056578005664,45.68652113004646 14.693031993927434,46.154845229990315 14.912500065402128,49.22493938835396 16.568486423348077,49.250956909381784 16.907664352096617,50.78598391963169 19.70089435344562,50.94208762027847 20.00016899651382,56.7438447928871 21.556397140142508,57.49831950823136 22.67368914070539,56.6657955020346 23.691222926834598,56.45766389246273 24.070304141379893,57.57636843435466 23.810932784108445,59.033275443769526 25.686387213529088,61.08853471255861 25.74624214216601,62.25924141648284 28.379859000560828,62.54541299605626 30.21541014430113,60.07391601210111 30.315168358618394,58.591001361302915 31.252895573386922,57.9145800522092 31.392557073384523,43.318863774460624 39.592682291637175,43.006642873137025" stroke="#4dd2ff" stroke-linecap="round" stroke-linejoin="round" stroke-width="0.5"><title>2025-01-23 10.1km</title></polyline><polyline fill="none" points="74.5432888836367,31.714285714289872 74.10403250914533,32.86000990231696 75.13533008412924,37.34320444484183 75.03983956784941,38.14020446460927 72.59528235299513,40.05797049208195 69.38680100848433,39.80891118802538 68.66107308526989,40.082876402448164 69.31040859548375,41.95080931206758 69.27221238892525,43.220991999987746 68.85205411759671,43.220991999987746 69.10032945987768,44.83983857155545 68.87115222087596,46.78243416675832 69.38680100848433,52.112005849034176 69.11942756304052,54.30355707941635 69.48229152464774,55.997009190774406 68.12632619449869,58.71147822146304 65.75816139252856,58.761284588923445 64.97513915970922,53.85528752858227 63.88654727477115,53.631152311194455 63.905645378050394,52.03729337872937 62.68336677062325,50.34380193648394 61.193714717868716,50.66755895393726 59.436689219553955,49.646477041605976 57.33589786302764,50.14456654332753 56.820249075535685,48.67519832777907 55.15871409350075,48.57557968533365 54.60486909956671,47.92805709030654 54.45208427356556,45.61189844580076 53.53537531802431,45.83604420590564 53.077020840137266,46.558289650827646 52.007527058711275,46.98167348903371 52.40858722664416,49.9453309172095 54.05102410551626,49.9453309172095 54.10831841523759,51.14074118119606 54.41388806712348,51.33997541028657 57.06852441758383,51.43959243748395 57.22130924358498,57.01805307104951 58.844648019061424,57.71534781692026 59.89504369732458,56.96824619434483 60.8308507562615,56.81882547700661 60.945439375704154,59.383862954578944 62.60697435773909,61.10216744826175 62.89344590634573,62.4469154078688 65.31890501792077,62.54652594594518 65.70086708280724,62.09827806636167 65.33800312131643,53.656056238818564 64.36399985593744,53.43192075945262 64.21121502993628,51.81315577132045 62.95074021606706,50.21927984303329 61.51838247291744,50.31889752509596 59.704062664997764,49.497049907324254 57.77515423751902,49.84571301685355 57.14491683058441,48.57557968533365 55.34969512594398,48.500865665249876 54.7385558221722,47.52958042481623 54.623967202729546,45.48737289608107 53.821846866514534,45.68661373187206 52.103017574874684,47.1311028279888 52.4658815364819,49.920426447628415 53.974631692515686,49.895521974394796 54.031926002237014,51.06602828527684 54.375691860564984,51.364879672561074 57.106720624142326,51.4644966852502 57.24040734686423,57.06785993318772 58.76825560617726,57.7900577991968 59.8568474908825,57.04295650389395 60.88814506586641,56.918439303088235 60.92634127242491,59.35895986363175 62.68336677062325,61.226681593761896 62.836151596624404,62.4469154078688 65.08972777915187,62.521623316875775 65.70086708280724,62.17298612813465 65.35710122447927,53.83038363013475 64.24941123649478,53.35720886755735 64.0393321007723,51.514305169766885 62.75975918362383,50.11966210276296 61.537480576196685,50.3687063443067 59.76135697471909,49.42233629109978 57.794252340798266,49.87061749746499 57.125818727421574,48.57557968533365 55.483381848665886,48.500865665249876 54.77675202861428,47.55448524368694 54.681261512450874,45.53718312687124 53.821846866514534,45.63680354478129 53.306198079138994,46.43376479242579 52.17940998787526,46.98167348903371 52.33219481387641,49.72119055969233 52.48497963976115,49.970235383239924 53.993729795794934,49.920426447628415 54.22290703468025,51.33997541028657 57.08762252086308,51.489400929334806 57.24040734686423,57.06785993318772 58.787353709340096,57.765154475404415 59.83774938771967,57.01805307104951 60.792654549703,56.86863239730883 61.155518511426635,57.88967105784104 60.88814506586641,59.184638124963385 62.72156297718175,61.226681593761896 62.836151596624404,62.39711011703184 65.31890501792077,62.57142857143481 65.71996518608648,62.24769415719493 65.68176897952799,59.03521934991295 67.51518689084332,58.58696223919105 67.99263947177678,58.16360721923411 68.06903188477736,44.441354687922285 68.56558256899007,44.09268052560219 73.22551975992974,43.968153866240755" stroke="#4dd2ff" stroke-linecap="round" stroke-linejoin="round" stroke-width="0.5"><title>2024-12-04 10.0km</title></polyline><polyline fill="none" points="109.50762478786055,62.34655594549986 110.66737128980458,61.79186802199547 111.17260738968616,61.76188480538258 112.20604486664524,59.72300546273618 112.36680180748226,54.40073927760386 111.26446849870263,52.73653726226621 111.16112475103,51.98688787226274 111.47115599410608,51.342185003981285 112.6883156891563,50.26267343106156 112.79165943688713,49.31809146160231 111.95342681667535,47.92369261580461 111.83860043034656,47.144020461324544 108.25601717695827,45.56966434531205 105.8331804254558,45.59965230720991 104.04188879870344,45.97450108902558 103.3299652034766,44.984897331829416 103.2495867330581,43.995284002347034 103.45627422840334,42.42087943111255 103.86964921921026,41.92606156176771 103.74334019422531,39.85679726774106 103.90409713506233,39.57189528254821 104.30598948727129,39.45193631454458 112.78017679828918,38.25233889786614 113.72175316617358,37.952437345731596 113.8825101069524,37.47259303356259 113.1591038731276,35.35825222401763 112.12566639616853,34.39853701098764 110.66737128980458,34.608475483211805 109.26648937666323,35.10332874875894 107.81967690889724,34.698448982293485 105.15570474608103,33.01893061729788 104.48971170536242,32.26913672955561 102.79028118774295,31.714285714282596 94.44240290171001,32.19415703849518 92.66259391367203,32.68902198380238 90.04455230542226,32.64403436041175 87.98915999010205,33.15389293338376 86.93275723588886,34.05363715690328 86.42752113606548,34.84840463820001 86.1174898929894,36.31795843321743 86.71458710194565,37.12770354389795 87.20834056311287,38.732179552549496 90.74499326199293,38.312319102806214 95.62511468090815,38.342309192041284 97.30157992127351,39.04707375905127 97.43937158485642,39.48192606971861 97.29009728267556,40.57654611732141 97.48530213942286,41.10135979441111 98.87470141396625,41.70114355730766 99.79331250459654,42.69077907834435 100.91861109057209,42.81073424856004 102.04390967660584,42.315918264881475 103.31848256487865,42.375896087352885 103.46775686711771,42.750756681052735 103.23810409446014,43.95030135082925 103.35293048073072,45.104849812232715 102.7213853559224,46.064464592316654 101.5271909381263,46.03447676667565 99.90813889092533,45.62964026029658 98.62208336405456,45.824561741086654 96.11886814213358,47.99866077906336 93.37451750889886,48.823306949627295 92.30663211608771,49.542992721479095 91.08947242097929,50.62251188756636 90.6990627074847,51.282212437618 90.5842363210977,52.28674828737712 90.95168075733818,53.396224182222795 91.33060783229303,53.890986581056495 93.12189945898717,54.985452478853404 94.0290279109613,55.899997196145705 95.48732301732525,56.304793067858554 96.42889938520966,56.87450306327082 97.53123269393109,59.03337531451689 98.50725697772577,60.052826934173936 101.32050344272284,59.88791633133951 103.47923950571567,60.637507839091995 104.78826030984055,60.54755714806379 106.12024639127776,59.947883853994426 108.11822551337536,60.08281065160554 108.89904494036455,60.33767189489299 109.14018035167828,60.937342904740945 108.56604842003435,61.61196859032498 108.61197897460079,62.256606756782276 107.70485052251024,62.57142857142753" stroke="#4dd2ff" stroke-linecap="round" stroke-linejoin="round" stroke-width="0.5"><title>2024-11-24 10.6km</title></polyline><polyline fill="none" points="145.04317838558927,62.076226823999605 145.52591820177622,62.57142857142753 147.56032171251718,61.851134329153865 148.57177656545537,60.005357213631214 148.75567744777072,54.482833552145166 147.69824737432646,52.87704389192368 147.52584029716672,52.156681471409684 147.8706544515444,51.40629856217129 149.04302257642848,50.41578470358945 149.2039358484908,49.47028526558279 148.34190046257572,47.984482798063254 148.23845621623332,47.24907764211821 144.61790759512223,45.58314030835754 142.1927147093229,45.64317455685523 140.4571501322789,46.00337930879323 139.75602801842615,45.02782184135867 139.65258377208374,44.112290226439654 139.893953680119,43.30181278641248 139.85947226471035,42.44630186296854 140.26175544474972,41.98102099177777 140.13532358815428,39.879726208455395 140.52611296315445,39.54951882216119 150.14642787049524,37.92848529944604 150.31883494765498,37.65831055070885 149.96252698812168,36.11229688907042 149.3533553153975,35.12163508734375 148.7441836426151,34.53623951744521 148.31891285220627,34.43116816347174 145.8247571355314,35.10662498631427 144.88226511352696,34.92650360258267 143.12371292617172,34.19100466377131 140.905408532999,32.31470793066546 139.11237493017688,31.714285714282596 130.68741575803142,32.239655346173095 129.3426405559876,32.67495957041683 126.74504059297033,32.67495957041683 124.4807609791751,33.17030350551795 123.21644241310423,34.266055817926826 122.73370259691728,35.09161488308018 122.53830790950451,36.12730684268172 123.64171320351306,38.76902440347476 127.77948305610335,38.333746085947496 132.1586228167871,38.40879420372221 133.69879270641832,39.12925333594467 133.65281748579582,40.58516569370113 133.85970597842243,41.155517469240294 134.3079643790843,41.48571967679163 135.21597498562187,41.71085693517671 136.19294842303498,42.76149092947162 137.29635371710174,42.86655373602116 138.42274662136333,42.3412386252312 139.7790156286792,42.476319911111204 139.8824598749634,42.83653580225655 139.66407757718116,44.037246288462484 139.7790156286792,45.147890954234754 139.13536254048813,46.10843878942978 138.15838910307502,46.09343029882439 136.13547939731507,45.62816599805228 135.15850595990196,45.82327709116362 134.457383845991,46.21349816232396 132.85974493069807,47.86441701082367 131.97472193441354,48.32967115213978 129.48056621773867,49.0200443699141 127.58408836863237,50.595878844949766 127.14732377306791,51.196190362366906 126.97491669590818,52.141673867088684 127.5036317326012,53.68744555880403 128.5265803906368,54.55786983643338 129.79089895670768,55.233193921347265 130.5150086809299,55.9685417497094 132.0092033498804,56.43375907781592 132.91721395641798,57.004022597415315 133.8941873938311,59.04493970487965 134.8711608313024,60.12540876906132 137.80208114354173,59.93032492006023 140.12382978305686,60.7256644355075 141.19275366165675,60.60561358361883 142.42259081226075,59.97534430278756 144.91674652893562,60.26046660065185 145.4224739553756,60.51557535239408 145.53741200687364,61.01078464481543 144.3995252973982,62.46638597657875" stroke="#4dd2ff" stroke-linecap="round" stroke-linejoin="round" stroke-width="0.5"><title>2024-11-16 10.6km</title></polyline><polyline fill="none" points="157.4285714285652,47.315116241217765 166.85325416568958,47.35045103961238 172.62457402101427,47.020657178865804 173.37421337624255,47.05893710024611 175.3837887562404,47.02360179078096 176.1921348079486,47.08249393880942 178.59233551460784,46.96470947068883 180.01935982936993,46.98826641937376 181.213815308045,46.955875607825874 181.69927452904813,46.976487948468275 181.8573310196225,47.08249393880942 182.06054650747683,47.05893710024611 182.18247580020397,46.97943256684448 183.15339424222475,46.9470417411012 184.04076853922743,46.941152494462585 184.09495933598373,46.973543329670065 184.23269427775813,46.93820787049299 185.54907904913125,46.96470947068883 187.67155192237988,46.93526324609957 188.21797578975384,46.94409711799926 188.28571428569558,46.976487948468275" stroke="#4dd2ff" stroke-linecap="round" stroke-linejoin="round" stroke-width="0.5"><title>2024-10-12 11.7km</title></polyline><polyline fill="none" points="39.05905465350952,66.30417201489036 38.91063226456754,70.28601512307068 38.147317121503875,70.45192343453527 36.323842057609,72.27690526288643 32.27403115993366,71.97274284684681 31.701544802635908,72.27690526288643 32.46485994569957,75.65031019430899 32.14681196946185,76.23097219096962 32.44365674734581,90.11102874422795 32.35884395358153,92.01876572227047 31.913576786872,92.54408122423047 29.856866540387273,92.40584044401476 29.496412167325616,87.04202021824312 28.309033055906184,86.68258353228157 28.224220262258314,84.77479277318344 26.86721556354314,83.0881791318825 25.340585277415812,83.25407622203056 23.36868782469537,82.2863411463768 21.078742395620793,82.7010853561078 20.485052839969285,81.31860112298455 18.555561783956364,81.06975288875401 17.7922466408927,79.85315681141219 17.66502745030448,77.88999665131269 16.668477124767378,78.08354855784273 16.011177973938175,78.94070462169475 14.887408457696438,79.43840636136883 15.057034045108594,82.72873493780207 16.880509108887054,82.75638451540726 17.156150688417256,84.3877024466783 20.273020855733193,84.58124770890572 20.46384964149911,90.74694320648268 22.117699118098244,91.41050384604023 23.432297419873066,90.63634954049485 24.577270134468563,90.49810736696236 24.534863737644628,93.23528361116769 26.209916412597522,95.00475022096361 26.54916758730542,96.49772480764659 29.772053746739402,96.69125768833328 29.47520896885544,87.12496704891964 29.24197378626559,86.7102325323358 28.26662665908225,86.57198749153758 28.28782985743601,84.94068838514795 26.994434754014947,83.19877720813383 26.443151595187373,82.9222818963608 25.23456928541418,83.22642671706853 23.347484626225196,82.31399078866525 21.015132800326683,82.7010853561078 20.52745923679322,81.40155046175641 18.576764982310124,81.20800194809271 18.08909141877666,80.76560460250766 17.66502745030448,79.90845680267375 17.580214656773023,77.88999665131269 16.668477124767378,78.02824803326803 14.802595664164983,79.68725674044981 14.993424449930899,82.72873493780207 16.83810271206312,82.81168365853955 16.83810271206312,84.05591010807257 17.262166680418886,84.4153517819359 20.23061445890926,84.55359839783341 20.46384964149911,90.8022400153859 22.09649591962807,91.49344876249961 23.559516610461287,90.58105268320651 24.513660539174452,90.58105268320651 24.492457340820692,93.23528361116769 26.103900420479476,94.94945463970362 26.57037078565918,96.6083150494087 29.15716099261772,96.85714285714494 29.772053746739402,96.49772480764659 29.454005770385265,87.01437126666133 28.309033055906184,86.51668944700214 28.224220262258314,84.77479277318344 26.65518357930705,83.03288006951334 25.213366086944006,83.30937521978922 23.114249443635345,82.31399078866525 20.972726403502747,82.75638451540726 20.46384964149911,81.3462509066303 18.428342593484558,81.18035214433621 17.70743384724483,80.12965660651389 17.62262105359696,77.88999665131269 16.626070727943443,78.11119881401828 16.011177973938175,78.94070462169475 14.781392465578392,79.49370647387695 14.993424449930899,82.7010853561078 16.774493116885424,82.75638451540726 17.156150688417256,84.3877024466783 20.23061445890926,84.49829976356705 20.400240046205,90.71929479604296 22.09649591962807,91.46580046103918 23.177859038929455,90.6916463815869 24.428847745410167,90.49810736696236 24.68328612658661,91.5210970598855 24.34403495187871,92.87585868497263 26.082697222125717,94.94945463970362 26.57037078565918,96.6083150494087 29.58122496085707,96.77420029084897 31.213871239102446,94.4517936821212 31.31988723122049,92.6823219035723 32.35884395358153,91.79757981159491 32.54967273934744,76.20332166008302 31.701544802635908,72.13864967976406 33.37659747770522,72.11099855105567 39.50432182021905,66.0" stroke="#4dd2ff" stroke-linecap="round" stroke-linejoin="round" stroke-width="0.5"><title>2024-09-17 10.1km</title></polyline><polyline fill="none" points="48.142857142855064,81.59225777575557 57.17407024792192,81.60784678704294 59.65650826445926,81.43636691126812 62.30829397874186,81.31684965640125 62.80239079101739,81.35062635332906 64.77877804013406,81.3220460754892 65.30674439196446,81.3688137789486 67.33094746162533,81.27268003285826 69.59024498228973,81.26488538201738 69.74564639905293,81.29346575171985 69.9648022432084,81.26488538201738 70.18395808735659,81.28307289532859 70.33338252655813,81.37141198109566 70.48081463990093,81.35842096659144 70.58242325855099,81.28047468027762 71.3275531286854,81.24929607009835 78.99999999999272,81.25968894623293" stroke="#4dd2ff" stroke-linecap="round" stroke-linejoin="round" stroke-width="0.5"><title>2024-09-14 13.3km</title></polyline><polyline fill="none" points="110.98616864159703,66.0 110.2913169497624,66.97967913687171 110.4603349288227,67.98384430989972 110.10351919510867,69.23291942270589 110.59179335704539,71.29019931892981 109.70914391055703,71.55960315000266 107.77482703863643,74.42505346846883 104.13155060028657,74.2046359521919 104.63860453746747,75.52713670274534 104.35690790577792,76.65370318690839 104.16911015112419,87.94344051057124 104.88274161843583,91.077983271025 104.48836633388419,92.84113782054919 102.91086519567762,93.06153083546087 102.32869215658866,92.81664968992118 102.10333485109732,88.16383996383229 101.03288765007164,87.6740630074346 101.05166742554866,86.2781908318284 99.71830336831044,84.73537122127891 98.34737975988537,84.66190326666401 96.4506224389188,83.92722194934322 94.49752579152118,84.22109486264526 93.99047185434029,83.04560011879948 92.2815122876782,82.92315227560175 91.75567857502028,82.33540138350509 91.43642239226028,80.00886721389543 90.74157070042565,80.13131718564546 89.01383135840297,81.67417916683189 89.27674821496475,84.31905238585023 90.85424935317133,84.36803112612688 90.87302912864834,85.44555978970311 91.26740441319998,85.81289752392331 93.89657297695521,85.88636497412517 94.06559095601551,91.44530866456626 95.51163366611581,92.13098057934258 96.6008606426185,91.24940188815526 97.50228986446746,91.12696003667952 97.85910559806507,92.1064923449303 97.61496851721313,93.40436383850465 99.30514830816537,95.338908359583 99.41782696091104,96.63675483137195 101.97187642287463,96.85714285714494 102.32869215658866,96.5388045048021 102.38503148290329,95.70622441808518 102.19723372824956,89.14338958420558 101.95309664739762,87.91895166449831 100.97654832375702,87.62508523315773 100.92020899732597,86.03329977809335 99.45538651174866,84.58843527977297 98.32859998452477,84.73537122127891 96.50696176523343,83.95171137842408 94.55386511795223,84.22109486264526 94.14071005792357,83.09457923096488 92.45053026685491,82.84968352680153 91.7932381258579,82.26193237712141 91.53032126952894,80.03335721536132 90.62889204756357,80.20478712575277 89.07017068483401,81.62519963968953 89.31430776580237,84.36803112612688 90.87302912864834,84.34354175778572 91.1547257603379,85.81289752392331 93.85901342600118,85.91085411711538 94.06559095601551,91.44530866456626 95.51163366611581,92.08200410698191 96.56330109166447,91.27389024775766 97.53984941530507,91.17593678807316 97.84032582258806,92.15546881016053 97.63374829257373,93.4778279622551 99.38026740995701,95.46134713514766 99.53050561365671,96.6122672551137 102.42259103385732,96.63675483137195 102.42259103385732,90.78412237677549 102.10333485109732,88.26179518343997 101.03288765007164,87.62508523315773 100.8075303445803,85.9843215244764 99.47416628722567,84.56394594367885 98.2159213317791,84.73537122127891 96.65719996893313,83.97620080399793 94.57264489331283,84.31905238585023 94.00925162970088,83.0700896766648 92.24395273684058,83.04560011879948 91.6242201467976,82.01703545656346 91.53032126952894,80.05784721333475 90.68523137399461,80.2292770986387 90.12183811038267,80.98846448377299 89.07017068483401,81.45377118172473 89.33308754127938,84.36803112612688 90.87302912864834,84.36803112612688 90.94814823032357,85.54351659757958 91.26740441319998,85.81289752392331 93.93413252790924,86.05778889956127 94.0280314051779,91.44530866456626 95.56797299254686,92.13098057934258 96.9201168253785,91.20042515834211 97.5774089662591,91.20042515834211 97.82154604722746,92.15546881016053 97.59618874173611,93.40436383850465 99.36148763448,95.46134713514766 99.47416628722567,96.6122672551137 101.85919777012896,96.85714285714494 103.83107419288717,94.72671314049512 103.73717531573493,93.13499510943075 104.63860453746747,92.62074451580702 104.63860453746747,79.02926421978918 105.18321802583523,78.56395079228969 110.36643605143763,78.56395079228969 110.51667425525375,77.68230075619067 109.85938211425673,77.21698358994036 110.42277537786867,76.1883831655141 110.21619784785435,76.11491146514891" stroke="#4dd2ff" stroke-linecap="round" stroke-linejoin="round" stroke-width="0.5"><title>2024-08-08 10.1km</title></polyline><polyline fill="none" points="147.09807017352432,66.0 146.63337075081654,66.41211277108232 147.11665815045126,71.2846626399114 146.94936635834165,73.46635500720004 146.31737514340784,73.66028182933223 144.66304519865662,75.28441006640787 140.98262577096466,75.09048514254391 140.6294542097021,75.30865066598926 141.29862137837335,77.58725121103635 141.03838970162906,78.67805954536016 141.00121374777518,88.68892114156915 141.3172093553003,90.67647797848622 141.056977678556,92.97910552438407 138.9937122418778,93.07605756221164 138.60336472676136,88.20414757011167 137.56243801990058,87.91328274740954 137.46949813549872,86.31351710938907 136.2984555902658,84.88341052846226 134.867181368405,84.98036729638989 133.1384995158296,84.15623296385456 131.18676194071304,84.47134363313671 130.75923847174272,83.30785511074646 129.01196864247322,83.18665792058164 128.49150528898463,82.62914970527345 128.2126856354298,80.27789879785269 127.50634251302108,80.37485825673502 126.85576332116034,81.17477163116564 125.79624863748904,81.68380540711223 126.05648031411693,84.54406139485945 127.56210644368548,84.42286510755366 127.63645835127681,85.70754124944506 127.97104193561245,85.94993185905332 130.64771061041392,86.07112703098392 130.72206251800526,91.50057992928487 131.4284056405304,92.03382018728007 132.32062853197567,92.15501091603073 133.26861535431817,91.37938872263476 134.16083824587986,91.28243569355982 134.47683385328855,92.20348718277819 134.27236610732507,93.63353068042488 136.01963593659457,95.49984009908803 136.11257582122926,96.61476817878429 138.82642044965178,96.73595556223881 139.01230021880474,91.83991483715363 138.65912865742575,88.27686369603907 137.56243801990058,87.91328274740954 137.59961397375446,86.45895098653273 136.91185882815626,85.41667205057456 136.14975177496672,84.68949682284438 134.90435732214246,84.9561281096976 133.30579130805563,84.15623296385456 131.1681739637861,84.51982214453164 130.77782644866966,83.25937624527432 128.7331489889184,82.94426327444671 128.34280147380196,82.2413167986233 128.23127361235674,80.25365892422269 127.33905072079506,80.42333796501043 125.74048470670823,81.8534829854616 126.0378923373064,84.51982214453164 127.5249304898316,84.42286510755366 127.59928239753935,85.63482399756322 127.9896299126558,85.97417090050294 130.57335870270617,85.99840993835824 130.66629858722445,91.42786521595553 132.15333673986606,92.17924905118707 133.39873119269032,91.28243569355982 134.21660217654426,91.2581974274508 134.47683385328855,92.2277253108332 134.30954206117895,93.80319604034594 135.96387200581376,95.42712713807123 136.22410368255805,96.71171809259977 138.58477674995083,96.80866794977919 138.95653628802393,96.39663066569483 138.69630461139604,88.27686369603907 138.4732488883892,87.96176025329623 137.59961397375446,87.86480522740749 137.6182019506814,86.33775609779696 137.2464424124919,85.73178032629949 136.05681189033203,84.66525759373326 134.83000541455112,84.9076497257629 133.2314394005807,84.13199365683249 131.1681739637861,84.47134363313671 130.75923847174272,83.21089736568683 128.71456101199146,82.92002379038604 128.34280147380196,82.12011882933439 128.24986158928368,80.22941904711479 127.4134026283864,80.32637853440247 126.91152725194115,81.07781263970537 125.85201256815344,81.51412765531859 125.96354042959865,84.20471156730491 126.07506829104386,84.54406139485945 127.59928239753935,84.51982214453164 127.82233812042978,85.90145376540022 130.51759477204178,85.97417090050294 130.75923847174272,91.54905638720084 132.15333673986606,92.15501091603073 133.26861535431817,91.40362697107776 134.1794262228068,91.23395915782021 134.4954218302155,92.17924905118707 134.21660217654426,93.53657896835648 136.00104795966763,95.49984009908803 136.07539986737538,96.61476817878429 138.6219527036883,96.85714285714494 138.95653628802393,96.63900566252414 139.08665212627966,93.31843740896147 141.14991756319068,92.7852012788644 141.20568149373867,79.18710098073643 141.67038091644645,78.79926002878346 146.78207456611563,78.62957932721474" stroke="#4dd2ff" stroke-linecap="round" stroke-linejoin="round" stroke-width="0.5"><title>2024-07-03 10.1km</title></polyline><polyline fill="none" points="157.42857142857247,81.61102745462449 161.33721630029322,81.58804111660902 162.20751772326184,81.61964732445449 163.76745040035894,81.60240758101827 164.43064211760793,81.64838019661511 167.44254602946603,81.62252061356412 168.04184219921444,81.55930815629836 173.00806854694383,81.29208961494078 173.74176569592237,81.32656963074623 175.60575304737722,81.29496295190438 176.51130718620698,81.34955627436102 178.46122303258744,81.25473619627883 181.44889070229692,81.23174944183302 181.87853317692498,81.25186285344716 181.999714387719,81.34093628615301 182.18258785127546,81.34955627436102 182.3258020094945,81.25473619627883 183.1300045902026,81.22887609564532 186.06258989136404,81.21450935837674 186.4944356607375,81.25473619627883 186.798490335088,81.20876266052983 187.76794002141833,81.20876266052983 188.28571428571013,81.25760953869212" stroke="#4dd2ff" stroke-linecap="round" stroke-linejoin="round" stroke-width="0.5"><title>2024-04-12 12.0km</title></polyline><polyline fill="none" points="11.714285714289872,115.87925505797466 15.646884760804824,115.87636089278931 19.04241328292119,115.93713827283136 19.415255630447064,115.89951420241232 21.650090415918385,115.91398500718242 22.27371362815029,115.84163087762317 24.22891665296629,115.75769975626645 24.77708367581363,115.68823924898425 27.136199243788724,115.5811538230937 27.948462929474772,115.61588429491894 30.121157323679654,115.58694223929342 30.693736643108423,115.63324950799142 32.145158638828434,115.58694223929342 32.52022028603824,115.54063486234736 35.82475752096798,115.52326956808429 36.119924379425356,115.53484643262709 36.23754726286279,115.64482630826205 36.45503863225167,115.63035530687193 36.614828209771076,115.53774064769823 37.356074305440416,115.50879847791111 40.316620088764466,115.49432737715688 40.53189215848397,115.52616378485618 41.52391911885934,115.4914331557411 42.571428571420256,115.52616378485618" stroke="#4dd2ff" stroke-linecap="round" stroke-linejoin="round" stroke-width="0.5"><title>2024-04-03 11.9km</title></polyline><polyline fill="none" points="75.98662007320672,100.28571428571013 72.3522584582679,100.28571428571013 73.4929704980459,104.85227141524956 73.4664423110662,107.17011141745024 72.93587857170496,107.96578260540264 73.2807450023247,110.17981010270887 73.01546313264407,119.83134442838491 73.41338593699038,122.32199911431235 72.93587857170496,125.71201479293813 69.9647216310259,125.71201479293813 69.59332701342646,118.79356391176407 67.94857942138333,118.34385760901205 67.94857942138333,116.19909272428777 66.17119089432526,114.05430841569614 64.26116143260151,114.26186903644702 61.74098367046099,113.05109618422284 59.00858041259926,113.60459311342856 58.1331502427347,111.73653579295205 56.14353621995542,111.70194199976686 55.40074698475655,111.25222223023593 54.84365505841561,110.21440411807271 54.60490137571469,107.51605574075074 53.490717522916384,107.75821646627446 52.82751284877304,108.76145112009544 51.2358216305729,109.59171106762369 51.501103500137106,113.7429671434511 53.676414831657894,113.46621900229366 54.20697857113555,115.61100863707543 58.10662205563858,115.68019507617282 58.212734803557396,123.56731663491519 60.255405200179666,124.53589240157453 63.12044939293992,123.04843513040396 63.51837219740264,124.67426004486333 63.20003395376261,127.06108916751691 65.82632446382195,129.13657319996855 65.87938083766494,130.83153833461984 69.75249613530468,131.00449327866954 69.93819344404619,122.04526099826035 69.51374245260376,118.86274942102318 68.02816398232244,118.4130432495731 67.709825738566,115.74938149481022 65.79979627684224,113.88134109278326 64.26116143260151,114.19268218307116 61.767511857440695,113.01650258316658 59.06163678644225,113.53540606790921 58.08009386865888,111.77112958091311 55.639500667573884,111.52897295885487 54.87018324539531,110.21440411807271 54.60490137571469,107.51605574075074 53.46418933593668,107.75821646627446 52.74792828783393,108.79604534272221 51.15623706963379,109.66089926530549 51.527631687233225,113.5699995932082 53.755999392597005,113.53540606790921 53.7029430186376,115.29966941135353 54.18045038415585,115.64560185912705 58.08009386865888,115.9223474534956 58.15967842948157,123.56731663491519 60.388046135078184,124.46670854956028 62.29807559680194,123.29057997398195 63.22656214074232,123.29057997398195 63.59795675834175,124.60507623339072 63.25309032772202,126.57680694280134 65.79979627684224,129.24034692413989 65.85285265068524,130.90072032737953 69.93819344404619,130.96990229995572 69.56679882644676,119.07030582755397 69.19540420896374,118.51682167260151 68.02816398232244,118.48222886997974 68.02816398232244,116.30287211759423 66.19771908142138,114.01971496127953 64.1815768716624,114.19268218307116 61.767511857440695,113.01650258316658 58.90246766479686,113.50081253766257 58.3719039253192,111.84031714167213 55.40074698475655,111.35600379137031 54.498788627795875,107.41227249687654 53.358076588017866,107.68902771285502 52.80098466167692,108.72685689249192 51.28887800441589,109.45333461189875 51.39499075245112,113.18947053779266 51.68680080899503,113.63918662849755 53.78252757957671,113.63918662849755 53.755999392597005,115.12670299808087 54.18045038415585,115.68019507617282 58.10662205563858,115.85316108516417 58.15967842948157,123.53272456993 58.875939477817155,124.18997293965367 60.41457432194147,124.43211661605164 61.87362460535951,123.35976416952326 63.30614670168143,123.1868036427768 63.38573126262054,126.9573144884489 65.69368352892343,129.1711644463794 65.85285265068524,130.79694733071665 66.33036001620349,131.1082661843684 69.48721426562406,131.14285714285506 70.0177780049853,130.58940120098123 69.54027063946705,119.10489854423213 68.02816398232244,118.4130432495731 68.02816398232244,116.33746523851005 66.4364727641223,114.26186903644702 65.69368352892343,113.8121541282162 64.12852049781941,114.19268218307116 61.8205682314001,113.08568978022959 59.00858041259926,113.53540606790921 58.29231936438009,111.84031714167213 55.40074698475655,111.2176283664885 54.84365505841561,110.17981010270887 54.71101412351709,107.51605574075074 53.358076588017866,107.68902771285502 52.80098466167692,108.76145112009544 51.18276525661349,109.59171106762369 51.501103500137106,113.46621900229366 53.72947120573372,113.5699995932082 54.15392219717614,115.64560185912705 57.94745293376036,115.78397469670745 58.212734803557396,118.06711484426341" stroke="#4dd2ff" stroke-linecap="round" stroke-linejoin="round" stroke-width="0.5"><title>2023-09-29 10.1km</title></polyline><polyline fill="none" points="112.38493928743992,100.59499303718621 109.56538927950896,100.28571428571013 108.69580843579024,100.59499303718621 109.32823086751159,103.8252134713548 109.4599855405977,109.25463298274553 109.11742339027114,119.3915048931085 109.40728367154952,125.23289371169813 108.88026497839019,125.81702461621899 106.4032771209022,125.81702461621899 105.84990749310236,118.94480448398099 104.42695702181663,118.46374155633384 104.3215532831382,116.33330819416733 102.47698785748798,114.03104399892618 100.50066775840241,114.23721783049405 98.15543457411695,113.17198442239896 95.30953363142908,113.68742054481118 94.80886587314308,112.03802097767766 92.30552708089817,111.62566927875741 91.35689343325794,110.62914968900441 91.1197350214934,107.60520233340503 89.9339429619722,107.77701856567 89.27516959561035,108.80791332399531 87.61506071244366,109.6669888379256 87.87857005896512,113.61869579374616 90.19745230849367,113.584333410603 90.56636539369356,115.68042959184095 94.46630372246727,115.8522399260255 94.62440933042672,123.6522969334037 96.57437849487178,124.5113182390487 98.23448737803847,123.37740945309633 99.49933224148117,123.13688264436496 99.92094719596207,124.61440058499284 99.6047359801596,126.64167754167283 102.10807477228809,129.2530594016862 102.18712757609319,130.73053893036558 105.92896029714029,131.074137490883 106.32422431698069,130.66181915803463 106.32422431698069,126.19499089931196 105.87625842774287,119.0478892691026 104.40060608717613,118.49810322656413 104.37425515253562,116.36767017563398 102.63509346533101,114.16849324006762 100.55336962756701,114.23721783049405 98.10273270483594,113.10325952072162 95.36223550071009,113.584333410603 94.70346213434823,112.00365836365381 91.80485932249576,111.21331685710174 91.27784062945284,110.18243264043122 91.06703315209597,107.60520233340503 89.82853922341019,107.77701856567 89.22246772632934,108.84227640474273 87.69411351636518,109.49517398620083 87.77316632028669,113.37815900688292 88.01032473216765,113.72178291274759 90.11839950457215,113.584333410603 90.38190885121003,115.57734333105327 94.41360185318626,115.88660197779245 94.43995278794318,123.41177040574257 96.7324841027148,124.58003980804642 98.15543457411695,123.41177040574257 99.57838504540268,123.27432656520978 99.68378878408112,127.01964249977027 102.08172383764759,129.21869930227695 102.10807477228809,130.6961790467758 102.52968972676899,130.93669812694134 105.63910001586191,131.14285714285506 106.3769261862617,130.24950010259636 105.90260936249979,119.0478892691026 104.37425515253562,118.46374155633384 104.37425515253562,116.33330819416733 103.34656870097388,114.8901004382642 102.34523318405263,113.99668167615891 100.5270186929265,114.37466695117473 98.15543457411695,113.13762197407777 95.28318269678857,113.68742054481118 94.9142696117051,112.03802097767766 91.77850838773884,111.2820423108351 91.225138759939,110.25115839543287 91.06703315209597,107.67392884142464 89.88124109257478,107.8457450233982 89.22246772632934,108.80791332399531 87.77316632028669,109.32335900882026 87.74681538564619,113.51560862941551 90.09204856993165,113.54997102255584 90.11839950457215,115.30244641497848 90.61906726297457,115.71479166878271 94.43995278794318,115.81787786920904 94.46630372246727,123.41177040574257 96.6797822334338,124.58003980804642 98.20813644339796,123.41177040574257 99.52568317612167,123.17124363213952 99.92094719596207,124.5456790260796 99.52568317612167,126.5042355881451 102.1607766415691,129.3217795855744 102.21347851085011,130.90233827337215 105.66545095050242,131.14285714285506 106.29787338234019,130.6961790467758 105.90260936249979,118.91044287894329 104.40060608717613,118.46374155633384 104.2952023484977,116.26458421607094 102.45063692273106,114.03104399892618 100.5270186929265,114.27158011814754 98.20813644339796,113.17198442239896 95.41493737010751,113.72178291274759 94.67711119982414,111.9349331206613 92.09471960365772,111.728757271223 91.30419156397693,110.59478686917282 91.01433128293138,108.22374018229311 91.25148969469592,110.56042404440814 91.9629649304552,111.5913066046196 94.65076026518364,111.86620785757259 95.30953363142908,113.61869579374616 98.12908363947645,113.03453459897719 100.42161495436449,114.27158011814754 102.31888224952854,113.96231934825482 103.13576122384984,114.75265161888092" stroke="#4dd2ff" stroke-linecap="round" stroke-linejoin="round" stroke-width="0.5"><title>2023-09-14 10.0km</title></polyline><polyline fill="none" points="121.0,115.92972951478077 123.14249862568977,115.91963069475423 123.96077822126972,115.96339221624112 124.1492148473917,115.92636324193336 126.79765290756768,115.91289814560696 127.21840866177808,115.94656087166732 128.04443222830014,115.85230511477857 133.59427806590975,115.55943655282135 134.5183919309784,115.60993139804668 135.2153493152291,115.56280287927439 136.8648151246307,115.55943655282135 137.76311575324507,115.62339667140986 140.53029470112233,115.4853772463266 142.15136595042713,115.51904059697335 143.66918425392942,115.47191189230398 144.04605750615883,115.48874358360081 144.22158751403913,115.62003035380803 144.41776811108866,115.6166640357078 144.60878606085316,115.50220892780271 145.73424317025638,115.46517921233135 151.85714285714494,115.47527823154815" stroke="#4dd2ff" stroke-linecap="round" stroke-linejoin="round" stroke-width="0.5"><title>2023-09-01 10.2km</title></polyline><polyline fill="none" points="185.56219338218216,100.28571428571013 181.38011425104924,100.38926848393749 182.2271176193608,103.63394370181777 181.83008479047567,119.30440739374899 182.1212421982782,124.24004308019357 182.04183563264087,125.30999246472493 181.53892738255672,125.62062202386733 179.4214189617196,125.758679474573 178.86557300121058,125.3790212910244 178.442071317113,118.75216202324373 176.93334656732623,118.2689462651615 176.93334656732623,116.26704188341682 175.10699555429164,113.88544389059825 173.1747691204073,114.09254032105673 170.66022787056863,112.95350770682853 167.90746692346875,113.47125048495946 166.92811927886214,111.53833832514647 164.28123375296127,111.22769025321759 163.75185664766468,110.29574358703394 163.61951237136964,107.39633045184019 162.4019450295018,107.56891556287883 161.66081708204,108.67345728859073 160.15209233225323,109.39830998997786 160.97262684535235,112.26318223804992 162.82544671359938,113.47125048495946 163.09013526607305,115.47317855297297 167.00752584484871,115.50769440541626 167.378089818405,123.51523590582656 169.36325396283064,124.41261588924681 170.6866967258975,123.23911830222642 172.14248376514297,122.96300037606852 172.56598544935696,124.34358678071294 172.27482804155443,126.34542274051637 174.76290043606423,129.072034095836 174.92171356757171,130.69418035593117 178.12444505409803,131.14285714285506 178.94497956708074,130.55612578855653 178.89204185653944,122.06561488757143 178.41560246190056,118.57958508018055 176.98628427786753,118.19991536196903 176.93334656732623,116.12897888716543 176.3245628962759,115.1970515519788 174.8158381464891,113.64383115884266 173.09536255465355,114.02350819770072 170.5808213048149,112.81544277441571 167.9339357787976,113.47125048495946 167.13987012102734,111.5728547523031 164.4665157396812,111.36575611338776 163.77832550287712,110.15767710161163 163.67245008191094,107.32729637212469 162.37547617417295,107.60343256992928 160.1785611875821,109.63992706294812 160.9990957005648,112.33221487567062 162.74604014772922,113.36770202001208 162.98425984510686,115.33511509285017 167.08693241060246,115.74930523133662 167.11340126569849,123.308147733449 169.1250342655694,124.37810133746825 170.7925721469801,123.13557411773945 172.27482804155443,123.03202988786506 172.35423460730817,126.62153671438864 174.76290043606423,129.14106182301475 175.10699555429164,130.76320760928502 178.38913360668812,130.970289248653 178.99791727773845,130.31453010163386 178.54794673831202,118.89022348691651 178.25678933027666,118.37249258217344 176.98628427786753,118.1653999027476 176.72159572527744,115.5767260952125 174.8158381464891,113.67834727844456 173.25417568616103,114.05802426194714 170.7396344364388,112.88447525064112 167.96040463412646,113.43673433500226 167.2722143973224,111.6764040037815 164.360640318715,111.08962431238615 163.6989189372398,107.32729637212469 162.42841388459783,107.56891556287883 161.60787937161513,108.63894043778419 160.20503004291095,109.26024298017728 160.49618745071348,113.43673433500226 162.66663358197547,113.43673433500226 163.14307297673076,115.43866269552382 167.00752584484871,115.81833685043966 167.19280783145223,123.37717714434257 169.2309096865356,124.34358678071294 170.76610329176765,123.17008885089308 172.2218903308967,122.92848561254505 172.59245430468582,124.41261588924681 172.16895262047183,126.24187991701183 172.8571428572759,127.41536259233544 174.78936929116026,129.03752022457775 175.00112013332546,130.72869398513285 178.09797619876917,131.0393164215202 178.99791727773845,130.41807114060794 178.57441559340805,118.92473884021456 178.20385161973536,118.2689462651615 177.0392219882924,118.2344308160682 176.77453343570232,115.5422102528828 174.84230700181797,113.64383115884266 173.14830026507843,114.09254032105673 170.7925721469801,112.8499590150459 167.9339357787976,113.43673433500226 167.11340126569849,111.50382189291122 164.38710917392746,111.05510781463818 163.85773206863087,109.98509388144885 163.6989189372398,107.36181341444899 162.32253846363164,107.63794957194477 161.7666925031226,108.56990672109532 160.15209233225323,109.57089363872365 161.18437768751755,112.50479638148681 162.7725090031745,113.43673433500226 163.03719755564816,115.43866269552382 165.89583392383065,115.2660833325208 167.03399469994474,115.78382104345656 167.11340126569849,123.27363302036247 169.25737854174804,124.24004308019357 170.76610329176765,123.17008885089308 172.19542147580069,122.92848561254505 172.59245430468582,124.30907221883535 172.27482804155443,126.5870224853279 174.76290043606423,129.072034095836 174.84230700181797,130.76320760928502 175.4510906727519,130.69418035593117" stroke="#4dd2ff" stroke-linecap="round" stroke-linejoin="round" stroke-width="0.5"><title>2023-06-19 10.7km</title></polyline><polyline fill="none" points="42.571428571478464,143.853412334327 41.89388779352885,143.65145871433197 41.81645456177648,140.69786005519563 41.409930094960146,140.47065806730825 28.57537193049211,140.64737075040466 27.801039612852037,140.9755509680399 27.742964689037763,155.16243840343668 25.981358666322194,155.59156097988307 25.57483419973869,155.2381659943494 25.168309732922353,150.492506179653 24.16167772002518,150.1895872988971 24.084244488272816,148.5992544635228 22.90338770393282,146.98366326434189 21.238573221024126,147.03415071794007 19.399533966672607,146.17586200086225 17.424986556754448,146.5545193133148 16.960387166240253,145.31756902096095 15.33428929920774,145.06512909800222 14.579315289505757,144.50975996933994 14.308298978372477,142.1115546011133 13.417816813103855,142.28826560617017 12.778992650914006,143.17181792100018 11.90786879369989,143.3990163574781 11.733644022140652,143.80292395145807 12.256318336585537,144.71171258627146 12.314393260399811,145.62049644177023 13.669474816299044,146.63025067618582 13.82434127992019,147.99340953378123 16.786162394681014,148.2710887236026 16.902312242425978,153.82457882573362 18.528410109342076,154.58185910401517 19.57375873811543,153.74885061543318 20.619107366888784,153.64787961670663 20.56103244307451,156.02068249092554 22.41943000536412,158.01482141467568 22.458146621240303,159.20119694669847 24.66499372641556,159.42837431110092 25.303817888488993,159.42837431110092 25.555475891684182,159.0497452045529 25.226384656736627,151.27504416425654 25.032801577355713,150.3158035637316 24.122961104149,150.16434403482708 23.890661408775486,148.3720628637675 22.825954472180456,146.98366326434189 22.380713389487937,146.75646954070544 21.2966481448384,147.00890699302545 19.57375873811543,146.17586200086225 17.46370317263063,146.5292755182454 16.941028858185746,145.29232504522952 15.373005915083922,145.06512909800222 14.579315289505757,144.50975996933994 14.308298978372477,142.13679904150194 13.417816813103855,142.3387544316356 11.714285714318976,143.72719134950603 12.35310987639241,145.67098429363978 13.650116508360952,146.6050068922923 13.7662663559895,147.9176787682809 16.786162394681014,148.3215758010192 16.921670550247654,153.87506428084453 18.4703351855278,154.58185910401517 19.515683814301156,153.74885061543318 20.638465674826875,153.72360787125945 20.522315827198327,155.8692279616953 22.41943000536412,158.04006353204022 22.57429646886885,159.25168083126482 25.497400967869908,159.20119694669847 25.168309732922353,150.56823581694334 24.084244488272816,150.08861422061455 23.71643663744908,148.04389669239754 22.496863237116486,146.75646954070544 21.238573221024126,147.00890699302545 19.535042122239247,146.15061815049557 17.46370317263063,146.5545193133148 16.99910378200002,145.31756902096095 15.353647607145831,145.06512909800222 14.55995698145125,144.38353946391726 14.347015594132245,142.13679904150194 13.475891736918129,142.2377767660946 12.875784190720879,143.09608504247444 11.753002330195159,143.62621449524886 12.314393260399811,145.6457403695822 13.650116508360952,146.5545193133148 13.82434127992019,148.01865311496658 16.80552070273552,148.24584517933545 16.84423731849529,153.7740933559253 17.541136404382996,154.3546753688861 18.567126725334674,154.55661648149544 19.57375873811543,153.69836512344773 20.599749058950692,153.64787961670663 20.599749058950692,156.14689449731668 22.43878831330221,158.06530564578134 22.57429646886885,159.2264388907788 25.032801577355713,159.5293419326772 25.497400967869908,159.2264388907788 25.168309732922353,150.4420197364525 24.103602796210907,150.11385749575857 24.02616956445854,148.44779343018308 22.729162932373583,146.88268831298046 21.27728983690031,147.03415071794007 19.612475353991613,146.15061815049557 18.818784728413448,146.3020811971801 19.515683814301156,146.2011058475182 21.180498297093436,147.08463815686991 22.41943000536412,146.8322008151299 23.4067037103232,147.61475537419028 24.02616956445854,148.42254991178925 24.00681125652045,150.08861422061455 25.187668040860444,150.39153327843815 25.478042659931816,153.24399503189488" stroke="#4dd2ff" stroke-linecap="round" stroke-linejoin="round" stroke-width="0.5"><title>2023-06-02 10.0km</title></polyline><polyline fill="none" points="48.142857142855064,150.16984706561743 58.15933481287357,150.20410154209094 58.927644179617346,150.12417433689734 63.519989055414044,149.8729724206023 63.997172650713765,149.87582700596977 64.31456540905492,149.9215003152076 66.1620101541339,149.8729724206023 67.07259903322847,149.932918625831 69.30529291946004,149.8301535899809 71.9101024534175,149.8187352192963 72.40479737330315,149.83300818160387 72.53832122335734,149.9386277786416 72.7397014562448,149.92720947135786 72.86228072841914,149.8301535899809 73.87355972395017,149.79589845791088 79.0,149.81302603145377" stroke="#4dd2ff" stroke-linecap="round" stroke-linejoin="round" stroke-width="0.5"><title>2023-05-09 12.1km</title></polyline><polyline fill="none" points="115.42857142863795,143.86868429675815 114.99755102046765,143.74094068340492 114.86040816339664,140.36847554343694 113.11673469399102,140.3429263169528 112.62693877564743,140.70061514877307 108.72816326539032,140.3173770866997 100.81306122452952,140.77726266042737 100.55836734711193,150.56231910125643 100.79346938780509,155.26303927796835 100.16653061227407,155.64624459268816 98.85387755103875,155.697338571219 98.48163265315816,155.39077447624004 98.10938775516115,150.48567587784783 97.05142857157625,150.10245925650815 97.0906122449087,148.64622843793768 95.83673469396308,146.93450302642304 94.07346938783303,147.01114780605712 92.40816326532513,146.14250500290655 90.25306122459006,146.5001819737663 89.93959183688276,145.35050339302688 88.01959183672443,145.01837261824403 87.33387755102012,144.37965781713137 87.17714285710827,142.10581419164373 86.35428571433295,142.23355899930175 85.70775510196108,143.05112355895108 84.74775510211475,143.35770928347483 84.5910204082029,143.84313558158465 85.0808163266629,145.50379430713656 86.49142857152037,146.5512786242034 86.58938775514252,147.98197877475468 89.6653061225079,148.31410392172984 89.68489795923233,153.93458768677374 91.29142857145052,154.70100329769775 92.42775510204956,153.8323986848991 93.38775510212872,153.70466234862397 93.72081632656045,154.59881474354188 93.48571428575087,156.1827306229534 95.38612244906835,158.17537861448363 95.4253061224008,159.32497289906314 97.85469387762714,159.68262291328574 98.52081632660702,159.17169409764756 98.18775510205887,150.71560544753447 97.97224489797372,150.25574600577238 97.07102040818427,150.0769114519353 97.03183673485182,148.59513239956868 96.28734693885781,147.52211214561248 95.44489795924164,146.73011678301555 94.19102040817961,147.03669605846517 92.50612244894728,146.14250500290655 90.35102040821221,146.5001819737663 89.90040816331748,145.2994063918013 88.1763265307527,144.9672755200154 87.43183673464227,144.43075508699985 87.19673469394911,142.08026521893044 86.2563265307108,142.25910794961965 84.5910204082029,143.74094068340492 85.25714285718277,145.78482730059477 86.55020408157725,146.5768269438413 86.62857142859139,147.95643066051707 89.6653061225079,148.31410392172984 89.70448979595676,153.8579459409957 91.29142857145052,154.64990902808495 92.46693877561484,153.90904044186755 93.46612244902644,153.78130416157364 93.76000000012573,154.70100329769775 93.54448979592416,156.2082775357121 95.36653061234392,158.12428535986692 95.50367346941493,159.4271586920513 98.56000000005588,159.3760658029496 98.18775510205887,150.48567587784783 97.07102040818427,150.10245925650815 97.11020408163313,148.62068042065948 96.52244897966739,147.70094931173662 95.4253061224008,146.6534718802286 94.19102040817961,146.93450302642304 92.42775510204956,146.0914082331292 90.27265306131449,146.52573030079657 89.78285714285448,145.22276086200145 88.23510204080958,144.99282407102874 87.43183673464227,144.37965781713137 87.13795918377582,141.97806929067883 86.23673469386995,142.23355899930175 84.57142857147846,143.63874572551867 85.17877551028505,145.73373042633466 86.5110204082448,146.5512786242034 86.64816326543223,147.98197877475468 89.6065306122182,148.31410392172984 89.76326530624647,153.8579459409957 91.33061224489938,154.67545616476855 93.40734693885315,153.67911507020472 93.68163265322801,154.67545616476855 93.50530612259172,156.2338244447892 95.32734693877865,158.12428535986692 95.4840816326905,159.3760658029496 98.01142857142258,159.58043726961478 98.56000000005588,159.14614761770645 98.20734693889972,150.53677136385522 97.05142857157625,150.0513636435644 96.99265306128655,148.2885558559501 95.52326530625578,146.7045684858458 94.23020408174489,146.98559954986558 92.36897959187627,146.04031144836335 90.39020408177748,146.5001819737663 89.82204081641976,145.19721234463213 87.8040816327557,144.89062984465272 87.29469387757126,144.09862256565248 87.19673469394911,142.08026521893044 86.33469387760852,142.23355899930175 85.74693877564277,143.05112355895108 84.72816326539032,143.30661170004169 84.57142857147846,143.817586862584 85.02204081637319,145.50379430713656 86.49142857152037,146.5512786242034 86.64816326543223,147.98197877475468 89.64571428578347,148.2885558559501 89.78285714285448,153.93458768677374 91.29142857145052,154.70100329769775 93.42693877557758,153.70466234862397 93.70122448983602,154.80319179207436 93.46612244902644,156.13163678620185 95.36653061234392,158.14983198903792 95.46448979596607,159.35051935286901 97.85469387762714,159.63153009895177" stroke="#4dd2ff" stroke-linecap="round" stroke-linejoin="round" stroke-width="0.5"><title>2023-05-07 11.2km</title></polyline><polyline fill="none" points="121.0,150.15734596420043 122.60399553132447,150.13354597997204 126.85833513271064,150.15470152305534 127.77895962222829,150.19436809969193 127.95132323811413,150.16792372492455 130.19002243730938,150.17321260297103 135.3386250340336,149.8770330526113 136.01794046133,149.91405576143552 138.2059444793922,149.88496649658737 138.55472732564522,149.93521156105635 140.54400623363472,149.82943231570425 143.2207117979051,149.81885435716868 143.48229893259122,149.82943231570425 143.626273247035,149.9325670874514 143.8047202846501,149.9219891891953 143.9365277556135,149.8320768043759 144.8693190886188,149.80563190030625 151.85714285714494,149.80827639245035" stroke="#4dd2ff" stroke-linecap="round" stroke-linejoin="round" stroke-width="0.5"><title>2023-05-05 13.0km</title></polyline><polyline fill="none" points="188.28571428568102,143.86478661518777 187.83481575606856,143.6347019247769 187.61916863312945,140.36235358355043 177.83663096744567,140.49018083911506 173.66091849689838,140.97592355849338 173.60210564523004,155.2663823691837 171.6808858230943,155.72652086465678 171.2691958611831,155.343072202435 170.95552731875796,150.51154707682144 169.83808313659392,150.23034309434297 169.81847885262687,148.46641689859098 168.48538754752371,146.90698907870683 166.9170448356308,147.0348115539091 165.21147213643417,146.19118149195856 163.0746051914757,146.57465020610834 162.70212379738223,145.37311209359905 160.8397168269148,145.09189985471312 160.17317117424682,144.4016497161938 159.93791976757348,142.12636146324803 159.11453984375112,142.2797526124341 158.6440370301716,142.99557619786356 157.66382283519488,143.37905191408936 157.44817571237218,143.86478661518777 157.97749137762003,145.57762980172993 159.36939553450793,146.65134384804696 159.44781267014332,147.95513061984093 162.50608095829375,148.2363382579788 162.62370666174684,153.9370865865494 164.19204937363975,154.7039892317698 165.2702849881025,153.83483264663664 166.30931203474756,153.68145162476867 166.64258486102335,154.7039892317698 166.4073334542336,156.21222129761009 168.2305318567669,158.18057241043425 168.3089489924023,159.40758528013248 170.73988019593526,159.66321187873837 171.3476129968185,159.10083286915324 171.2691958611831,152.96567174521624 170.99473588657565,150.4604191136168 169.85768742056098,150.12808698875597 169.79887456877623,148.41528833789926 168.2305318567669,146.8047310312395 167.05427482293453,147.08594051787804 165.25068070425186,146.2167460990604 163.09420947532635,146.54908565124788 162.7805409329012,145.39867682023032 160.99655109806918,145.14302938630863 160.23198402591515,144.4783443104534 160.05554547091015,142.0496658382326 159.1537484115688,142.25418743025512 158.52641132683493,143.0722714082949 157.68342711916193,143.30235683801584 157.42857142852154,143.83922166447155 157.99709566147067,145.70545324790874 159.34979125054087,146.65134384804696 159.44781267014332,148.00625931483228 162.03557814471424,148.05738799508254 162.54528952611145,148.3897240519873 162.60410237777978,153.911523107221 164.23125794145744,154.7039892317698 165.28988927195314,153.911523107221 166.3289163185982,153.78370565424848 166.60337629332207,154.7295525954105 166.38772917038295,156.31447384860076 168.17171900521498,158.1550095508719 168.32855327636935,159.43314795683546 170.81829733157065,159.63764923565031 171.3476129968185,159.27977184098563 171.03394445439335,150.53711105279217 169.89689598826226,150.12808698875597 169.7792702849256,148.3897240519873 168.32855327636935,146.8047310312395 167.0346705390839,147.0348115539091 165.2310764202848,146.19118149195856 163.25104374648072,146.60021475721442 162.74133236519992,145.32198262921884 160.76129969127942,145.04077030815824 160.19277545821387,144.2482604268007 159.9967326192418,142.1007962586591 159.13414412771817,142.25418743025512 158.58522417850327,143.09783647097356 157.42857142852154,143.7113968552003 157.9578870937694,145.8077119375812 159.36939553450793,146.70247292403656 159.44781267014332,148.05738799508254 162.5256852422608,148.36415976227727 162.64331094559748,153.98821353410312 164.2116536574904,154.7295525954105 165.72118351783138,153.75814215251012 166.38772917038295,153.8603961372428 166.25049918307923,156.10996868695656 168.21092757303268,158.20613526625675 168.32855327636935,159.43314795683546 171.21038300951477,159.53539862608886 171.3476129968185,155.9565896588756 173.36685423844028,155.54757826015702 173.68052278086543,154.9851860263152 173.7589399163844,140.7714004725858 179.15011798869818,140.33678812126163 184.0511889634654,140.4646153954527" stroke="#4dd2ff" stroke-linecap="round" stroke-linejoin="round" stroke-width="0.5"><title>2023-04-17 10.1km</title></polyline><polyline fill="none" points="11.714285714282596,184.46950196116268 15.041563446175132,184.45227204727962 16.094137076783227,184.49247515618117 16.988164051741478,184.45514370063938 18.98320946875174,184.4982184507444 19.936691439572314,184.46663030989657 21.790806496006553,184.49247515618117 22.58574181117001,184.4091971964899 27.106523534261214,184.16510459233723 28.044591246893106,184.19669321774563 29.966969446722942,184.15361780687635 30.801541425811592,184.21105166705638 32.70410129368247,184.11628570776884 35.83319570602907,184.1047988937662 36.154693091099034,184.11341400489437 36.297825488574745,184.21679504384701 36.49160473437223,184.21392335565906 36.608312689226295,184.12490081385295 37.453894852733356,184.09044036684463 40.431048720056424,184.08182524564654 40.59840352325409,184.12202911223903 40.92430498210888,184.07895353774984 41.6950178915431,184.07321012068314 42.57142857142753,184.11628570776884" stroke="#4dd2ff" stroke-linecap="round" stroke-linejoin="round" stroke-width="0.5"><title>2023-04-14 12.0km</title></polyline><polyline fill="none" points="78.99999999988358,178.2194834685506 78.50926935649477,178.2194834685506 78.6074154850794,174.8405857817561 69.77426390396431,174.78938986116555 64.37622682657093,175.22455470939167 64.33696837513708,189.55879266388365 63.924754634615965,189.9171335901483 62.452562704333104,189.96832509116211 62.02071973821148,189.66117586039763 61.68702290067449,184.7723114588589 60.58778625947889,184.51634621442645 60.56815703376196,182.82696622423828 59.35114503814839,181.26555508375168 58.76226826594211,181.03518177045044 57.7808069792809,181.316749112244 55.81788440560922,180.44644859380787 53.89422028348781,180.80480815430928 53.364231188665144,179.52494921600737 51.617230098112486,179.37136551520962 50.96946564875543,178.75702936593734 50.67502726276871,176.37645644386066 49.87022900755983,176.50444505801715 49.28135223558638,177.34916756696475 48.29989094869234,177.60514328084537 48.339149400242604,180.95839059875289 50.046892039244995,180.8815993934113 50.32170119951479,182.39182025563787 52.75572519085836,182.3406265412341 53.2660850599641,182.62219178536907 53.403489640099,188.25340166444948 54.93456924741622,188.9188963300985 56.07306434016209,188.04863356653368 57.034896401222795,187.86946128457203 57.34896401304286,188.99568401358556 57.113413304206915,190.35226087263436 58.958560523344204,192.5022857045842 59.0174482006114,193.60288344693254 61.56924754625652,193.88443059632846 62.11886586691253,193.34693110037188 61.86368593235966,185.8473614025861 61.64776444924064,184.64432888338342 60.58778625947889,184.26038059616985 60.607415485195816,182.9805468963168 60.23446019622497,182.26383594160143 59.13522355502937,180.95839059875289 57.7808069792809,181.316749112244 56.01417666301131,180.39525431110815 53.97273718647193,180.80480815430928 53.18756815697998,179.37136551520962 51.362050163559616,179.34576821869996 50.81243184290361,178.4498604836408 50.67502726276871,176.29966323051485 48.29989094869234,177.57954572624294 48.672846237779595,179.88331066096725 50.10577971639577,180.85600231743592 50.20392584509682,182.26383594160143 53.207197382696904,182.57099813831155 53.3446019628318,188.20220966241322 55.01308615040034,188.94449222835829 55.974918211461045,188.17661365578533 57.034896401222795,187.97184546814242 57.113413304206915,190.53143061613082 58.997818974778056,192.45109494375356 59.15485278062988,193.70526428081212 61.6281352234073,193.88443059632846 62.07960741536226,193.37252635188634 61.7655398035422,184.92589042606414 61.51035986910574,184.51634621442645 60.66630316246301,184.43955656820617 60.52889858232811,182.6477886033099 59.07633587787859,181.03518177045044 57.76117775356397,181.316749112244 55.9552889856277,180.44644859380787 53.933478734921664,180.8815993934113 53.32497273723129,179.49935194190766 51.40130861499347,179.26897630657186 50.83206106862053,178.29627584054833 50.75354416575283,176.37645644386066 49.968375136260875,176.45324962356244 49.26172300975304,177.34916756696475 48.14285714284051,177.86111862082907 48.79062159208115,180.0368939130858 50.046892039244995,180.80480815430928 50.223555070813745,182.26383594160143 53.18756815697998,182.57099813831155 53.44274809153285,188.3301896394405 54.95419847324956,188.9188963300985 56.308615048998035,188.0230375374813 57.05452562693972,188.0230375374813 57.329334787325934,188.94449222835829 57.093784078373574,190.42904792806075 58.93893129762728,192.45109494375356 59.07633587787859,193.6796690779738 61.98146128677763,193.75645467544382 62.0992366411956,190.17309094600205 64.06215921475086,189.84034631044779 64.45474372932222,189.32843025283364 64.5725190838566,174.99417345372785 72.89531079598237,174.68699797510635" stroke="#4dd2ff" stroke-linecap="round" stroke-linejoin="round" stroke-width="0.5"><title>2023-04-03 10.0km</title></polyline><polyline fill="none" points="84.57142857142753,184.4508362795459 88.72226809799031,184.4537079333295 91.57830993668904,184.50252598343832 94.65455546379962,184.48816774599254 95.42526837324112,184.41350474219325 100.13102119459654,184.1636687826467 100.8841178089715,184.2038724847789 102.80649600880133,184.15505369292623 103.32617671344633,184.16941217370004 103.62785576658644,184.2182309298969 105.55243600329413,184.11772159381871 108.65510597302637,184.1033630752736 108.99642169006256,184.11484989094424 109.17698871454922,184.21248755310626 109.35535370217258,184.1981291037955 109.47646573079692,184.11772159381871 110.45196807046159,184.0861328391784 112.64519680703961,184.10623477981608 113.23754472886503,184.07177429756666 113.33663638865255,184.10910648394747 114.43545279381942,184.06890258798921 114.50371593723685,184.1004913703091 115.23479218276043,184.08900454624745 115.42857142857247,184.12920840108927" stroke="#4dd2ff" stroke-linecap="round" stroke-linejoin="round" stroke-width="0.5"><title>2023-03-31 11.9km</title></polyline><polyline fill="none" points="121.0,183.62808698999197 121.10561486431106,183.66481535671574 129.07953712004382,183.68777054231577 129.75547225165064,183.6234959381154 133.4748757232519,183.4283749933502 134.02055252220453,183.4559216265643 135.8036834813829,183.43067054796575 136.26486838889105,183.46739937614802 137.79628392144514,183.39394163392626 140.17789911173168,183.38016826902458 140.55107163230423,183.39623719356587 140.66020699209912,183.46510382690576 140.7711025996323,183.47428602187392 140.92248390514578,183.38935051363387 141.86949718849792,183.36869045572075 150.37325401353155,183.3640993280469 150.51231358486984,183.39853275287714 150.50879308940057,183.81631896196086 150.45422540950676,183.94027537063903 150.4753483823588,184.19507158431406 150.55103903512645,184.26623014918005 150.6918588542103,184.2777073068819 150.7323445521979,184.3947738366469 150.91893081248418,184.35345633748875 151.07911335669633,184.43150041134686 151.16888599135564,184.4062509004616 151.2375356531702,184.43379581941917 151.33786977426644,184.56922430202485 151.33786977426644,184.70694698565148 151.44172439083923,184.74367283076572 151.4839703365651,185.20732924338063 151.67935783554276,185.17519508172427 151.6828783310266,184.59906431924355 151.71456279032282,184.5761104648709 151.85714285713766,184.59447355105112" stroke="#4dd2ff" stroke-linecap="round" stroke-linejoin="round" stroke-width="0.5"><title>2023-03-15 16.1km</title></polyline><polyline fill="none" points="188.28571428568102,178.04162900077063 187.27055067836773,178.09158467307861 187.27055067836773,175.54382677577087 186.86831604142208,174.84443561379157 173.49880287307315,175.29404454630276 173.21149241819512,176.6678422925761 173.49880287307315,182.71242124887067 173.0391061452683,185.5098400072602 173.3072625696659,189.38119226186245 172.9050279329531,189.75583460296912 171.33439744613133,189.93066741454822 171.0087789306417,189.60597776505165 170.70231444528326,184.78551275526115 169.59138068638276,184.48579023622733 169.59138068638276,182.93721551873023 168.28890662419144,181.28871734380664 166.71827613725327,181.43858147099672 165.0135674381163,180.53939473768696 162.9640861931257,180.93903386958118 162.46608140459284,179.64020327564504 160.49321628082544,179.36544938581937 160.0718276137486,178.59114059350395 159.9377494014334,176.59290815460554 159.1141260972945,176.69282033119816 158.59696727851406,177.5170935602946 157.63926576217636,177.81682829472993 157.63926576217636,180.98898869543336 159.1907422186341,180.8641016035399 159.57382282521576,182.43767229556397 162.21707901044283,182.5375810569676 162.42777334398124,182.8123298497958 162.44692737434525,188.10740216258273 164.0558659217786,188.88166786365036 165.1284916200675,188.03247303765966 166.1245011971332,187.85763828530617 166.25857940944843,190.53009284025757 167.9632881085854,192.25342923482822 168.0590582601726,193.4272861104546 170.35754189942963,193.72699295765779 170.9896249001613,193.40231051617593 170.9896249001613,187.3830859135487 170.68316041491926,184.78551275526115 169.55307262565475,184.435836432036 169.57222665601876,182.96219264157116 169.11252992821392,182.2128773690347 168.0207501994446,181.16383047080308 166.79489225859288,181.46355881272757 164.9369513168931,180.58934968020185 162.9640861931257,180.98898869543336 162.63846767751966,179.79006884770934 160.83798882679548,179.56527044040558 160.1484437349718,178.94082886939577 159.995211492409,176.6428642502142 158.9800478850957,176.74277639760112 158.53950518753845,177.5420714749198 157.46687948924955,178.04162900077063 157.964884277666,180.06482205529755 159.32482043094933,180.88907902916253 159.55466879485175,182.43767229556397 162.37031125300564,182.56255823810352 162.48523543495685,188.1573548942688 164.0750199521426,188.80673907807795 165.20510774140712,188.007496655453 166.1628092577448,187.93256748681597 166.41181165201124,188.85669160538237 166.1053471667692,190.25535644764022 167.9249800478574,192.20347769967339 168.0590582601726,193.4272861104546 170.41500399040524,193.67704185287585 170.9896249001613,193.40231051617593 170.9896249001613,187.08336794750358 170.66400638467167,184.78551275526115 169.57222665601876,184.56072091520764 169.59138068638276,183.01214687632455 168.17398244212382,181.26373997655173 166.8523543495685,181.4885361508641 164.9369513168931,180.58934968020185 163.0598563447129,181.0139661028952 162.60015961690806,179.71513607812813 160.56983240228146,179.51531519870332 160.014365522773,178.5162072985113 159.95690343168098,176.6678422925761 159.0758180366829,176.717798366255 158.53950518753845,177.5420714749198 157.42857142852154,178.06660683878 157.9840383081464,180.13975467171986 159.38228252192494,181.0139661028952 159.43974461301696,182.3377634758217 162.38946528336965,182.58753541573242 162.54269752593245,188.20730761133018 164.0941739823902,188.88166786365036 165.20510774140712,188.007496655453 166.18196328810882,187.95754388005298 166.18196328810882,190.4052127165196 167.9249800478574,192.25342923482822 168.1165203511482,193.5022128714627 170.97047086979728,193.5521640272782 171.06624102161732,190.15545219549676 173.26895450917073,189.38119226186245 173.40303272148594,175.4189357066207 174.66719872306567,175.06924022785097 180.35594573023263,175.04426195201813" stroke="#4dd2ff" stroke-linecap="round" stroke-linejoin="round" stroke-width="0.5"><title>2023-03-06 10.0km</title></polyline><polyline fill="none" points="11.78912292500172,218.64175565314326 11.714285714282596,218.65036696889 11.723090092018538,218.71064607339395 11.86396013572812,218.7565728860336 18.352786524417752,218.74509119293725 19.213414447738614,218.7881475074537 21.379291369878047,218.7479616168439 21.81510806762526,218.7852770894242 22.4226101311433,218.70490521426473 27.463116382867156,218.44369434941655 28.037602029893606,218.4896217860587 30.069212191621773,218.45230575196183 30.797774448968994,218.50110362844498 32.096420164474694,218.47239900989553 32.758949588816904,218.40924870147865 35.75463911223051,218.38915537896173 36.15083611017326,218.4063782280955 36.34893460915191,218.5039740879929 36.49420684173674,218.4896217860587 36.60426156338508,218.40350775428487 37.46048729784525,218.37193251472854 39.60215218121448,218.3690620358957 39.92351196845266,218.39776680541218 40.07098529546056,218.36619155663175 42.12020421264606,218.3547096354032 42.571428571420256,218.38915537896173" stroke="#4dd2ff" stroke-linecap="round" stroke-linejoin="round" stroke-width="0.5"><title>2023-03-03 12.1km</title></polyline><polyline fill="none" points="79.0,212.26179573220725 78.9801689311862,208.9515943958104 70.09585016523488,208.84814960665244 64.88027910387609,209.210206104166 64.50348879909143,209.77915053283505 64.7612926918082,217.8217602452496 64.36467131832615,219.7095224409859 64.78112376050558,220.84734198715887 64.72163055441342,223.95044903695816 62.85751009895466,224.3124746499525 62.24274697015062,224.00216702702164 61.86595666536596,219.0113113718253 60.6959236136172,218.72685422089125 60.67609254491981,217.04596172609308 59.62504590512253,215.57193517337146 58.97062063892372,215.31333275834913 57.89974293054547,215.67537603371602 55.916636063018814,214.7444061155402 53.87403598963283,215.15817112807417 53.45758354756981,213.81343130164896 51.47447668004315,213.29622095623927 50.93903782579582,212.41695990110748 50.83988248242531,210.58084185126063 49.88799118611496,210.7618684207264 49.37238340056501,211.58941609517206 48.38082996685989,211.8480239500641 48.16268821142148,212.33937783364672 48.7179581343662,214.1754776443413 50.16562614752911,215.05472996551543 50.24495042220224,216.60634105608915 52.525523319724016,216.47704065128346 53.27910392940976,216.73564136651112 53.37825927278027,222.55405759523273 54.11200881365221,223.1229591416777 55.063900110078976,223.25225469279394 56.11494674975984,222.45062075398164 57.22548659553286,222.29546537881834 57.1858244582545,224.90722940709384 59.069775982177816,226.82077463595488 59.14910025696736,228.11369889353227 59.70437017979566,228.24299080004857 61.84612559666857,228.24299080004857 62.203084832872264,227.95854848118324 61.84612559666857,219.0371710902109 60.73558575089555,218.72685422089125 60.67609254491981,217.07182173144247 59.38707308110315,215.49435448856093 57.840249724453315,215.64951582426147 55.95629820029717,214.7444061155402 53.95336026430596,215.18403140921146 53.47741461615078,213.8910127231211 51.59346309211105,213.52896579868684 50.97869996307418,212.856590974523 50.78038927644957,210.60670280113118 49.88799118611496,210.7618684207264 49.2732280571945,211.66699849131692 48.14285714284051,212.2100743123301 48.65846492827404,214.1754776443413 50.06647080427501,215.13231084308063 50.324274696875364,216.6839212536579 51.970253396895714,216.47704065128346 53.2394417921314,216.76150141716062 53.37825927278027,222.60577599317185 55.063900110078976,223.25225469279394 56.07528461248148,222.52819839060248 57.1858244582545,222.29546537881834 57.44362835097127,223.4074092294759 57.20565552695189,224.9330882642971 59.049944913596846,226.87249178755155 59.168931325664744,228.08784050094255 61.984943077433854,228.21713242634723 62.10392948950175,222.47647996993328 61.806463459390216,219.06303080478392 60.67609254491981,218.77857373692677 60.656261476222426,217.14940172506613 59.208593463059515,215.41677376974258 57.80058758717496,215.67537603371602 56.11494674975984,214.7444061155402 53.97319133311976,215.20989168653614 53.43775247875601,213.8910127231211 51.355490267975256,213.63240785265225 50.78038927644957,212.5721239340637 50.80022034503054,210.65842468947812 49.927653323393315,210.73600749358593 49.29305912589189,211.6152768976608 48.24201248609461,211.9256062329223 48.14285714284051,212.52040260477224 48.81711347773671,214.38236093636078 50.145795078831725,215.18403140921146 50.16562614752911,216.60634105608915 53.27910392940976,216.9166616423172 53.398090341477655,222.55405759523273 55.024237972684205,223.35569106569164 56.01579140650574,222.50233918215963 57.12633125227876,222.26960613642586 57.4237972823903,223.35569106569164 57.24531766434666,225.01066481310409 59.049944913596846,226.87249178755155 59.14910025696736,228.11369889353227 61.66764597862493,228.29470753620262 62.18325376417488,227.98440689274867 62.18325376417488,224.6486406277836 64.48365773039404,223.92459003631666 64.58281307376456,209.3136506817973 70.5123026072979,208.8740108095517 75.6088872567052,208.9515943958104" stroke="#4dd2ff" stroke-linecap="round" stroke-linejoin="round" stroke-width="0.5"><title>2023-03-01 10.1km</title></polyline><polyline fill="none" points="115.42857142863795,212.3850467698794 114.68971104512457,212.3089800903108 114.53416149073746,209.24092956102686 105.59006211184897,209.0634373750654 100.86524439649656,209.4437775512779 100.53470159333665,209.97625239782792 100.4374831217574,213.8556626886275 100.8069133135723,222.93263687861327 100.39859573321883,224.04820989207656 98.7069943289971,224.27639439796621 98.29867674852721,223.84537896836991 98.02646502840798,219.20555686797888 96.87928706454113,218.77452884711965 96.84039967600256,217.1518255216797 95.49878476921003,215.50375192944193 94.1377261680318,215.68123752965766 92.212800432113,214.79380771350407 90.21009991900064,215.22484561949386 89.74345125583932,213.90637336022337 87.4685390223749,213.4499767832167 87.1185525249457,212.68931315466762 87.1185525249457,210.76228370942408 86.24358628131449,210.9651299216639 85.66027545230463,211.7765124001453 84.72697812586557,212.0807798517344 84.59087226563133,212.61324660848186 85.2130704834126,214.3627687371918 86.51579800166655,215.27555589099939 86.59357277874369,216.61937268766633 89.58790170121938,216.89827675680863 89.62678908987436,222.50161811246653 91.20172832836397,223.1861768294184 92.40723737515509,222.34949358648737 93.37942209024914,222.32413948587782 93.63219011609908,223.31294666595932 93.37942209024914,224.6313474776107 95.28490413178224,226.7864041664143 95.34323521470651,227.92730569992273 97.8125843910966,228.10477859787352 98.41533891437575,227.77518592866545 98.04590872267727,219.2309114242089 96.89873075881042,218.74917422432918 96.49041317857336,216.64472762146033 95.40156629751436,215.50375192944193 94.1182824736461,215.75730273140653 92.25168782065157,214.86987330412376 90.2878746961942,215.2502007571311 89.80178233864717,213.98243933969934 87.70186335407197,213.7035305852187 87.15743991360068,212.6639576429152 87.1185525249457,210.86370684520807 86.28247366996948,210.9904856816138 85.81582500680815,211.72580110641138 84.82419659732841,212.0300686468545 84.57142857147846,212.53718002898677 85.27140156622045,214.51490026280226 86.47691061301157,215.27555589099939 86.61301647312939,216.64472762146033 89.60734539560508,216.94898653947166 89.74345125583932,222.6030343889579 91.39616527140606,223.1861768294184 92.3683499865001,222.4002017766179 93.35997839586344,222.22272304636135 93.65163381048478,223.3636545745976 93.35997839586344,224.52993238612544 95.24601674312726,226.68499033385888 95.32379152043723,227.85124583098514 97.79314069682732,228.13013185421005 98.35700783145148,227.57235935970675 98.08479611121584,219.28162052533298 97.87091547402088,218.92665650612616 96.89873075881042,218.74917422432918 96.85984337027185,217.1264706618822 95.7321091007907,215.70659260055982 95.14879827166442,215.40233150489803 94.07939508499112,215.731947667824 92.40723737515509,214.81916291404923 90.26843100192491,215.22484561949386 89.76289494999219,213.95708401687443 87.68241965980269,213.65281985446927 87.21577099652495,212.68931315466762 87.1185525249457,210.81299528473755 86.28247366996948,210.9904856816138 85.75749392376747,211.80186804143887 84.64920334867202,212.23291337746195 85.05752092890907,214.13457119872328 86.51579800166655,215.22484561949386 86.65190386166796,216.67008255170367 89.62678908987436,216.9236316500028 89.80178233864717,222.6030343889579 91.27950310567394,223.1861768294184 92.46556845807936,222.37484768335707 93.39886578451842,222.22272304636135 93.65163381048478,223.31294666595932 93.4183094787877,224.68205500124895 95.30434782605153,226.73569725755078 95.40156629751436,227.87659912431263 97.92924655682873,228.13013185421005 98.39589521999005,227.80053923316882 98.43478260876145,224.5045786039991 100.49581420479808,224.02285603959172 100.72913853637874,223.64254780761257 100.69025114772376,211.1933316271461 100.9430191735737,209.41842156543862 114.22306238196325,209.01272528865957" stroke="#4dd2ff" stroke-linecap="round" stroke-linejoin="round" stroke-width="0.5"><title>2023-02-22 10.2km</title></polyline><polyline fill="none" points="121.0,218.7591777558282 122.98675849811116,218.7466612781809 125.8757165074494,218.80298536998998 128.97822706066654,218.76856510926336 129.23497000666976,218.7967271448888 130.06278604755062,218.70285354881526 135.25283270384534,218.43374695982675 136.01346367475344,218.48694271647037 136.442968229283,218.44313445589796 138.14658964675618,218.43374695982675 139.02719395690656,218.49945934589596 141.9209508998174,218.37116354756654 144.5195734281442,218.37429272252666 144.8890913130599,218.38993859044785 145.0210619862337,218.5025885021114 145.2226171961811,218.4932010320972 145.38338147077593,218.38680941777966 146.50873139302712,218.34925931007456 148.9801821817382,218.3805510710681 149.18173739170015,218.34300095239814 151.3220617640618,218.33987177286508 151.85714285714494,218.39932610572032" stroke="#4dd2ff" stroke-linecap="round" stroke-linejoin="round" stroke-width="0.5"><title>2023-02-17 11.0km</title></polyline><polyline fill="none" points="157.42857142857247,218.63618299858354 157.84270454278158,218.6389384549184 157.87862425166531,218.75742269656803 158.3624838596079,218.71884651356777 163.50111515435856,218.73537917308022 164.10752435732138,218.77395532227638 165.14497006690362,218.72986828818648 165.3393590797059,218.76017813518956 166.67684000470035,218.76017813518956 172.07958680596494,218.44605553919246 172.7958680596348,218.4846322801386 174.77990374456567,218.44605553919246 175.59971827678964,218.49289871436667 177.86054701256217,218.3881902798239 179.01842939312337,218.4129896984341 180.16152130531555,218.3854347868546 180.56508979927457,218.41023420909187 180.68975231834338,218.50392062102583 180.858786242512,218.49565419163264 181.01514262236742,218.3937012645547 181.7483272684476,218.36890182057869 188.2857142857174,218.3881902798239" stroke="#4dd2ff" stroke-linecap="round" stroke-linejoin="round" stroke-width="0.5"><title>2023-02-03 12.5km</title></polyline><polyline fill="none" points="42.571428571478464,246.70845537136483 41.800000000046566,246.58270769687078 41.45285714289639,243.36353595668334 27.79857142851688,243.64018589233456 27.54785714286845,244.21863432131067 27.895000000018626,250.7826303300535 27.528571428498253,254.42918664532772 27.875714285764843,256.164417357606 27.6057142856298,257.94992635655217 27.27785714296624,258.30199636809994 25.542142857098952,258.37743984826375 25.252857142826542,258.050517861906 24.886428571422584,253.24720788579725 23.806428571464494,252.97057338729792 23.787142857094295,251.36105476148077 22.514285714249127,249.82696831595968 21.029285714263096,249.92756456723146 19.312857142766006,249.04734537549666 17.21071428572759,249.4748809735902 16.767142857192084,248.24256960485945 14.645714285667054,247.7647322111152 14.260000000009313,247.0605483713298 14.086428571492434,244.9982791284856 13.295714285690337,245.17432746729173 12.736428571399301,246.05456646093808 11.810714285704307,246.2306137195701 11.714285714318976,246.73360489519837 12.350714285625145,248.59465946737328 13.662142857094295,249.3742844577646 13.739285714225844,250.7826303300535 16.670714285806753,251.05926834406273 16.863571428577416,256.6673795122915 18.464285714318976,257.39667202685087 19.544285714277066,256.5416391113831 20.604999999981374,256.51649102012743 20.489285714225844,258.80495227855863 22.398571428610012,260.7916137616121 22.47571428574156,262.04898260210757 24.712857142905705,262.27530801834655 25.32999999995809,261.8980988261028 25.002142857178114,253.3478021386254 23.806428571464494,252.89512753783492 23.825714285718277,251.48679894594534 23.247142857173458,250.5562898060889 22.35999999998603,249.6509247347567 21.125714285648428,249.9527136209217 19.332142857136205,249.04734537549666 17.30714285711292,249.4748809735902 16.68999999994412,248.14197236899054 14.934999999939464,248.04137507437554 14.317857142770663,247.08569784376596 14.163571428623982,244.9982791284856 13.372857142821886,245.17432746729173 12.967857142793946,245.9036686674226 11.94571428571362,246.2306137195701 11.714285714318976,246.70845537136483 12.369999999995343,248.6449579604232 13.662142857094295,249.50003009330248 13.758571428596042,250.83292818375048 16.651428571436554,250.93352384732862 16.8828571428312,256.7176756469562 18.444999999948777,257.42181998952583 19.698571428656578,256.46619482676033 20.54714285710361,256.4158986186376 20.46999999997206,258.83010003551317 22.37928571435623,260.8167612284451 22.437142857233994,262.02383531531086 24.481428571394645,262.350749757592 25.21428571420256,262.09927716481616 25.34928571432829,261.7220675869321 25.291428571450524,255.7117501621251 24.94428571430035,253.19691073722788 23.941428571473807,253.02087060184567 23.652142857084982,251.03411945204425 22.47571428574156,249.7263720058836 21.14499999990221,250.00301171712636 19.332142857136205,249.07249455773854 17.268571428605355,249.525179209435 16.8828571428312,248.24256960485945 15.147142857080325,247.99107640500006 14.433571428526193,247.33719236611796 14.182857142877765,245.04857867225655 11.810714285704307,246.45695993046684 12.369999999995343,248.59465946737328 13.700714285718277,249.525179209435 13.777857142849825,250.83292818375048 16.612857142812572,251.00897055631503 16.8828571428312,256.767971766938 18.444999999948777,257.39667202685087 19.67928571428638,256.46619482676033 20.54714285710361,256.4158986186376 20.75928571424447,257.4721159038163 20.46999999997206,258.754656753561 22.35999999998603,260.8167612284451 22.417857142863795,261.9986880248325 24.963571428554133,262.1998662459664 25.426428571459837,261.8226568885002 25.368571428582072,258.7043612139969 27.258571428596042,258.2517006962007 27.70214285713155,257.57270768821763 27.856428571394645,243.6653358644253 41.54928571428172,243.4138359780627" stroke="#4dd2ff" stroke-linecap="round" stroke-linejoin="round" stroke-width="0.5"><title>2023-01-30 10.2km</title></polyline></svg>