<?xml version="1.0" encoding="utf-8" ?>
<svg baseProfile="full" height="300mm" version="1.1" viewBox="0,0,200,300" width="200mm" xmlns="http://www.w3.org/2000/svg" xmlns:ev="http://www.w3.org/2001/xml-events" xmlns:xlink="http://www.w3.org/1999/xlink"><defs /><rect fill="#222222" height="300" width="200" x="0" y="0" /><text fill="#FFFFFF" style="font-size:12px; font-family:Arial; font-weight:bold;" x="10" y="20">Over 10km Runs</text><text fill="#FFFFFF" style="font-size:4px; font-family:Arial" x="10" y="280">ATHLETE</text><text fill="#FFFFFF" style="font-size:9px; font-family:Arial" x="10" y="290">chending</text><text fill="#FFFFFF" style="font-size:4px; font-family:Arial" x="120" y="280">STATISTICS</text><text fill="#FFFFFF" style="font-size:3px; font-family:Arial" x="120" y="285">Number: 30</text><text fill="#FFFFFF" style="font-size:3px; font-family:Arial" x="120" y="290">Weekly: 1.1</text><text fill="#FFFFFF" style="font-size:3px; font-family:Arial" x="141" y="285">Total: 333.8 km</text><text fill="#FFFFFF" style="font-size:3px; font-family:Arial" x="141" y="290">Avg: 11.1 km</text><text fill="#FFFFFF" style="font-size:3px; font-family:Arial" x="167" y="285">Min: 10.0 km</text><text fill="#FFFFFF" style="font-size:3px; font-family:Arial" x="167" y="290">Max: 16.1 km</text><polyline fill="none" points="39.52045332768466,31.80000000000291 39.05923413450364,33.003010397427715 40.14209658827167,37.71036466708756 40.04183154623024,38.547214687831 37.475046470644884,40.56086901668459 34.106141058844514,40.299356747433194 33.344126739539206,40.5870202225633 34.02592902525794,42.54834977767314 33.985823008348234,43.88204159997986 33.54465682350565,43.88204159997986 33.805345932836644,45.58183050013031 33.564709831844084,47.621555875084596 34.106141058844514,53.21760614147934 33.82539894117508,55.51873493338644 34.20640610076953,57.29685965030512 32.78264250420034,60.1470521325391 30.296069462085143,60.19934881836525 29.473896117531694,55.04805190501793 28.330874638515525,54.812709926758544 28.350927646970376,53.13915804766293 27.06753510911949,51.36099203331105 25.503400453715585,51.700936901630484 23.658523680525832,50.62880089368264 21.452692756196484,51.1517948704859 20.911261529196054,49.60895824416366 19.166649798164144,49.50435866959742 18.58511255448684,48.82445994482259 18.424688487197272,46.392493368082796 17.462144083925523,46.627846416202374 16.980871882173233,47.38620413336321 15.857903411611915,47.830757163479575 16.27901658799965,50.94259746305761 18.003575310693122,50.94259746305761 18.063734335941263,52.19777824025368 18.384582470403984,52.406974180805264 21.171950638410635,52.51157205934578 21.332374705700204,58.36895572459616 23.03688042005524,59.10111520776991 24.139795882161707,58.31665850405989 25.122393294004723,58.15976675086131 25.24271134438459,60.853056102307164 26.987323075532913,62.65727582067484 27.288118201540783,64.06926117827243 29.834850268787704,64.17385224324244 30.235910436837003,63.703191969689215 29.854903277242556,54.838859050752944 28.83219984860625,54.603516797418706 28.671775781433098,52.90381355989666 27.34827722690534,51.23024383519078 25.844301596516743,51.334842401352944 23.939265798195265,50.47190240268537 21.913911949377507,50.83799866770278 21.252162672113627,49.50435866959742 19.367179882130586,49.425908948498545 18.725483613205142,48.40605944606068 18.605165562825277,46.26174154087494 17.762939209816977,46.470944418455474 15.958168453536928,47.98765796938096 16.33917561324779,50.91644777001056 17.923363277106546,50.89029807312181 17.983522302354686,52.11932969954796 18.344476453610696,52.43312365618476 21.21205665532034,52.537721519503975 21.352427714155056,58.421252929838374 22.956668386468664,59.17956068915373 24.09968986536842,58.39510432908719 25.182552319136448,58.2643612682441 25.222658336046152,60.826907856811886 27.06753510911949,62.78801567344635 27.22795917640906,64.06926117827243 29.594214168027975,64.14770448271884 30.235910436837003,63.781635434526834 29.874956285697408,55.021902811626205 28.711881798226386,54.52506931092648 28.491298705805093,52.59002042825159 27.147747142706066,51.125645207896014 25.86435460485518,51.38714166151476 23.99942482332699,50.39345310564386 21.933964957715943,50.86414837233315 21.23210966377519,49.50435866959742 19.507550941081718,49.425908948498545 18.76558962999843,48.432209505859646 18.665324588073418,46.31404228322208 17.762939209816977,46.418643722019624 17.221507983049378,47.255453032048536 16.038380487123504,47.830757163479575 16.198804554413073,50.70725008768204 16.35922862170264,50.96874715240847 17.943416285444982,50.91644777001056 18.184052386321127,52.406974180805264 21.192003646865487,52.56387097580591 21.352427714155056,58.421252929838374 22.9767213948071,59.153412199171726 24.079636857029982,58.36895572459616 25.08228727709502,58.21206401716336 25.463294436922297,59.28415461072291 25.182552319136448,60.643870031199185 27.107641126029193,62.78801567344635 27.22795917640906,64.01696562288271 29.834850268787704,64.19999999999709 30.255963445291854,63.86007886505104 30.21585742838215,60.48698031740787 32.140946235274896,60.01631035114406 32.64227144536562,59.571787580192904 32.7224834789522,45.16342242230894 33.24386169749778,44.79731455187721 38.136795747908764,44.6665615595557" stroke="#4dd2ff" stroke-linecap="round" stroke-linejoin="round" stroke-width="0.5"><title>2024-12-04 10.0km</title></polyline><polyline fill="none" points="73.98300602729432,63.9638837427774 75.20073985436466,63.38146142309415 75.73123775917338,63.349979045655346 76.81634710996877,61.20915573587263 76.9851418978651,55.620776241485146 75.82769192365231,53.87336412537843 75.71918098861352,53.08623226587224 76.0447137937881,52.40929425417562 77.32273147365777,51.27580710261827 77.43124240875477,50.28399603468279 76.55109815753531,48.819877246591204 76.43053045187844,48.001221484388225 72.66881803586148,46.34814756257401 70.12483944674022,46.379634922566765 68.24398323864443,46.773226143479405 67.49646346369991,45.7341421984238 67.41206606972264,44.6950482024622 67.62908793985844,43.04192340266309 68.06313168018823,42.52236463985173 67.9305072039715,40.349637131126656 68.09930199186783,40.05049004666944 68.52128896163777,39.924533130266354 77.4191856381949,38.66495584275981 78.40784082451137,38.3500592130149 78.57663561234949,37.84622268524254 77.8170590668451,35.626164835215604 76.73194971604971,34.61846386153775 75.20073985436466,34.83889925737458 73.72981384547893,35.35849518619216 72.21066075435374,34.93337143140525 69.4134899834171,33.169877148160595 68.71419729065383,32.382593566027936 66.92979524715338,31.799999999995634 58.164523046812974,32.30386489041848 56.29572360939346,32.82347308299359 53.54677992069628,32.7762360784327 51.388617989607155,33.3115875800504 50.27939509775024,34.256319014741166 49.748897192883305,35.09082487010892 49.42336438765051,36.633856354877935 50.05031645705458,37.48408872109576 50.56875759124523,39.168788530172606 54.282242925080936,38.72793505794107 59.40637041500304,38.75942465164553 61.16665891738376,39.499427447000926 61.311340164160356,39.95602237320418 61.1546021468821,41.105373423182755 61.35956724639982,41.656427784131665 62.81843648466747,42.286200735172315 63.782978129864205,43.3253180322572 64.96454164513852,43.45127096099168 66.14610516041284,42.93171417812118 67.48440669314004,42.994690891719074 67.64114471047651,43.38829451510537 67.40000929916278,44.647816418371804 67.52057700476144,45.86009230284253 66.85745462373598,46.867687821926665 65.60355048504425,46.836200605008344 63.903545835462864,46.411122273311776 62.55318753229221,46.61578982813808 59.9248115492519,48.89859381801216 57.043243384337984,49.76447229710175 55.921963721862994,50.52014235754905 54.64394604205154,51.65363748194068 54.23401584284147,52.34632305949344 54.113448137184605,53.40108570174198 54.49926479527494,54.56603539133357 54.89713822392514,55.0855359101115 56.777994431962725,56.2347251027968 57.730479306483176,57.19499705595081 59.26168916822644,57.62003272125003 60.250344354484696,58.21822821642854 61.407794328639284,60.485044080240186 62.432619826635346,61.55546828087972 65.38652861485025,61.382312147907214 67.65320148103638,62.16938323104114 69.02767332538497,62.07493500546843 70.42625871085329,61.44527804669633 72.52413678908488,61.58695118418109 73.3439971874468,61.854555489640916 73.5971893692622,62.484210049973626 72.99435084103607,63.19256701983977 73.04257792333374,63.86943709461775 72.09009304869687,64.19999999999709" stroke="#4dd2ff" stroke-linecap="round" stroke-linejoin="round" stroke-width="0.5"><title>2024-11-24 10.6km</title></polyline><polyline fill="none" points="109.04533730488038,63.68003816519922 109.55221411184175,64.19999999999709 111.68833779811393,63.44369104561338 112.75036539370194,61.505625074314594 112.94346132013015,55.70697522975388 111.8331597429933,54.020896086520224 111.6521323119523,53.264515544979076 112.01418717409251,52.476613490282034 113.2451737052179,51.4365739387722 113.41413264087168,50.443799528860836 112.50899548566667,48.88370693796605 112.40037902700715,48.11153152422048 108.59880297485506,46.362297323779785 106.0523504447774,46.42533328470017 104.23000763886375,46.803548274234345 103.49382941931253,45.77921293342661 103.385212960653,44.81790473775618 103.63865136407549,43.96690342573129 103.60244587791385,43.068616956115875 104.02484321699012,42.580072041360836 103.89208976755617,40.373712518878165 104.30241861124523,40.02699476326961 114.40374926402,38.32490956442052 114.5847766950028,38.04122607824684 114.21065333747538,36.41791173352249 113.57102308113826,35.37771684171457 112.93139282468474,34.763051493318926 112.48485849477584,34.65272657164314 109.86599499225849,35.36195623563253 108.87637836916838,35.17282878271362 107.0298985724803,34.400554896958056 104.70067895960528,32.43044332719728 102.81799367663916,31.799999999995634 93.97178654593881,32.351638113483205 92.55977258377243,32.8087075489384 89.83229262259556,32.8087075489384 87.45479902811348,33.3288186807913 86.12726453371579,34.47935860882717 85.62038772675442,35.34619562723674 85.41522330493899,36.433672184815805 86.5737988636829,39.20747562364704 90.91845720884157,38.75043339023978 95.51655395759735,38.829233913907956 97.13373234169558,39.58571600273717 97.08545836003032,41.11442397838982 97.30269127734937,41.71329334270558 97.77336259803269,42.06000566063449 98.72677373490296,42.29639978193882 99.75259584415471,43.39956547594193 100.91117140295682,43.50988142281858 102.09388395241695,42.95830055649276 103.51796641008696,43.100135906664946 103.62658286868827,43.478362592366466 103.39728145604022,44.73910860288743 103.51796641008696,45.90528550194722 102.84213066747179,46.913860728906 101.81630855816184,46.89810181376379 99.69225336716045,46.40957429795526 98.6664312579087,46.61444094571925 97.93025303824106,47.02417307043652 96.25273217720678,48.757637861366675 95.32345803111093,49.246154709748225 92.70459452859359,49.97104658841272 90.71329278702615,51.62567278720235 90.25468996167183,52.25599988048634 90.07366253068903,53.24875756044639 90.62881331919925,54.871817836741684 91.70290941011626,55.78576332825469 93.03044390451396,56.494853617412446 93.79075911495602,57.266968837197055 95.35966351733077,57.75544703171181 96.31307465420105,58.354223727292265 97.338896763511,60.49718669012509 98.36471887282096,61.631679207515845 101.44218520069262,61.42684116606688 103.88002127216896,62.26194765728724 105.00239134469302,62.13589426280669 106.29372035281267,61.47411151792767 108.91258385538822,61.77348993068881 109.44359765312402,62.041354120017786 109.56428260717075,62.56132387705293 108.36950156226521,64.08970527540805" stroke="#4dd2ff" stroke-linecap="round" stroke-linejoin="round" stroke-width="0.5"><title>2024-11-16 10.6km</title></polyline><polyline fill="none" points="119.80000000000291,48.18087205327902 129.69591687398497,48.21797359159427 135.75580272208026,47.87169003781128 136.54292404507578,47.91188395525933 138.6529781940626,47.87478188032037 139.50174154835986,47.936618635749255 142.02195229034987,47.812944944224 143.52032782085007,47.83767974034345 144.77450607345963,47.80366938821862 145.28423825551,47.8253123458926 145.450197570608,47.936618635749255 145.6635738328623,47.91188395525933 145.7915995902149,47.82840419518652 146.81106395434472,47.7943938281569 147.7428069661837,47.78821011918626 147.79970730279456,47.82222049615484 147.94432899165258,47.78511826401882 149.32653300160018,47.812944944224 151.5551295184996,47.78202640840573 152.1288745792408,47.79130197389895 152.1999999999971,47.8253123458926" stroke="#4dd2ff" stroke-linecap="round" stroke-linejoin="round" stroke-width="0.5"><title>2024-10-12 11.7km</title></polyline><polyline fill="none" points="184.51200738619082,32.119380615637056 184.356163877761,36.300315879212576 183.554682977614,36.47451960625767 181.64003416046035,38.39075052602857 177.38773271790706,38.07137998918188 176.7866220427677,38.39075052602857 177.5881029429147,41.93282570403244 177.25415256794076,42.542520800518105 177.565839584684,57.11658018143498 177.4767861511791,59.1197040083789 177.00925562623888,59.67128528543981 174.84970986738335,59.52613246619876 174.47123277571518,53.894121229153825 173.22448470862582,53.516712708893465 173.13543127535377,51.513532411830965 171.71057634160388,49.74258808846935 170.10761454119347,49.91678003313427 168.03712221584283,48.900658203696366 165.63267951540183,49.33613962390518 165.00930548191536,47.88453117912286 162.98333987314254,47.62324053319753 162.18185897287913,46.345814651984256 162.04827882279642,44.28449648387323 161.00190098106395,44.48772598573123 160.31173687253613,45.3877398527693 159.13177888048813,45.91032667942636 159.30988574726507,49.36517168469436 161.2245345643023,49.39420374117617 161.51395822281484,51.10708756900567 164.78667189844418,51.31031009434082 164.98704212356824,57.78429036680609 166.72358407394495,58.48102903833205 168.10391229088418,57.66816701751668 169.3061336411629,57.523012735298835 169.26160692446865,60.39704779171734 171.02041223319247,62.25498773199797 171.37662596662994,63.82261104803183 174.76065643399488,64.02582057274412 174.44896941725165,53.98121540136344 174.20407247543335,53.54574415895331 173.179957992048,53.40058686611883 173.2022213502787,51.687722804403165 171.8441564916866,49.85871606854198 171.26530917489436,49.56839599116938 169.9962977495743,49.8877480529045 168.0148588574957,48.929690328091965 165.56588944036048,49.33613962390518 165.05383219849318,47.97162798483623 163.00560323137324,47.768402045505354 162.49354598962236,47.303884832625045 162.04827882279642,46.403879642806714 161.95922538952436,44.28449648387323 161.00190098106395,44.42966043492197 159.04272544721607,46.1716195774643 159.24309567234013,49.36517168469436 161.18000784772448,49.45226784146507 161.18000784772448,50.75870561347983 161.625275014434,51.13611937103269 164.74214518186636,51.281278317721444 164.98704212356824,57.842352016145014 166.70132071559783,58.56812120061659 168.2374924409669,57.61010531736247 169.23934356612153,57.61010531736247 169.21708020777442,60.39704779171734 170.90909544145688,62.19692737168225 171.39888932497706,63.93873080187768 174.1150190422777,64.19999999999709 174.76065643399488,63.82261104803183 174.42670605890453,53.865089829982026 173.22448470862582,53.342523919345695 173.13543127535377,51.513532411830965 171.48794275824912,49.684524072974455 169.9740343913436,49.974843980773585 167.76996191579383,48.929690328091965 165.52136272366624,49.39420374117617 164.98704212356824,47.913563451962546 162.84975972305983,47.73936975155084 162.09280553960707,46.63613943684322 162.0037521062186,44.28449648387323 160.9573742642533,44.51675875471847 160.31173687253613,45.3877398527693 159.02046208886895,45.96839179756353 159.24309567234013,49.33613962390518 161.11321777268313,49.39420374117617 161.51395822281484,51.10708756900567 164.74214518186636,51.22321475173521 164.9202520485269,57.755259535842924 166.70132071559783,58.53909048407513 167.83675199083518,57.726228700674255 169.15029013273306,57.523012735298835 169.41745043289848,58.59715191287978 169.061236699461,60.01965161920816 170.88683208310977,62.19692737168225 171.39888932497706,63.93873080187768 174.56028620887082,64.11291030539724 176.27456480101682,61.674383366218535 176.3858815927524,59.816437998757465 177.4767861511791,58.88745880217175 177.67715637630317,42.513487743082806 176.7866220427677,38.2455821637559 178.54542735160794,38.216548478609184 184.97953791124746,31.80000000000291" stroke="#4dd2ff" stroke-linecap="round" stroke-linejoin="round" stroke-width="0.5"><title>2024-09-17 10.1km</title></polyline><polyline fill="none" points="11.80000000000291,88.97187066454535 21.282773760336568,88.98823912639637 23.889333677689137,88.8081852568339 26.673708677692048,88.68269213922213 27.1925103305839,88.71815767099724 29.26771694215131,88.68814837926402 29.822081611571775,88.73725446789831 31.94749483471969,88.63631403450381 34.31975723140931,88.6281296511188 34.482928719015035,88.65813903930575 34.713042355375364,88.6281296511188 34.94315599173569,88.64722654009711 35.10005165289476,88.73998258015126 35.25485537190252,88.72634201492292 35.36154442148836,88.64449841429087 36.1439307851324,88.611760873604 44.200000000004366,88.62267339354548" stroke="#4dd2ff" stroke-linecap="round" stroke-linejoin="round" stroke-width="0.5"><title>2024-09-14 13.3km</title></polyline><polyline fill="none" points="75.53547707363032,72.59999999999127 74.80588279722724,73.6286630937102 74.98335167521145,74.68303652539907 74.60869515489321,75.99456539384846 75.12138302484527,78.1547092848632 74.19460110610817,78.43758330750279 72.16356839053333,81.44630614189373 68.3381281303009,81.21486774978985 68.87053476436995,82.60349353787024 68.57475330098532,83.78638834624144 68.37756565865129,95.64061253609543 69.12687869940419,98.93188243456825 68.71278465050273,100.78319471157738 67.05640845547896,101.01460737721936 66.44512676435988,100.75748217442015 66.20850159355905,95.87203196201881 65.08453203260433,95.35776615780196 65.10425079683773,93.89210037342855 63.70421853661537,92.2721397823334 62.264748747926205,92.1949984299863 60.27315356081817,91.42358304680965 58.22240208112635,91.7321496057848 57.689995446940884,90.49788012473437 55.895587902050465,90.36930988938548 55.343462503748015,89.75217145268107 55.008243511780165,87.30931057457929 54.2786492354935,87.43788304492773 52.46452292636968,89.0578881251713 52.74058562563732,91.83500500513765 54.396961820777506,91.88643268242595 54.41668058501091,93.01783777917444 54.830774633795954,93.40354240011948 57.59140162577387,93.48068322283507 57.768870503874496,99.31757409778947 59.28721534938086,100.03752960830752 60.430903674685396,99.11187198254629 61.377404357655905,98.98330803851422 61.752060877974145,100.011816962171 61.49571694305632,101.37458203043207 63.27040572348051,103.40585377755633 63.388718308880925,104.76859257294564 66.07047024404164,105.0 66.44512676435988,104.66574473003857 66.50428305706009,103.7915356389858 66.30709541472606,96.90055906341877 66.05075147980824,95.61489924771013 65.02537573990412,95.30633949481125 64.96621944720391,93.63496476699947 63.42815583734773,92.11785704376234 62.2450299836928,92.2721397823334 60.332309853401966,91.44929694735038 58.281558373826556,91.7321496057848 57.84774556080811,90.54930819250876 56.07305678015109,90.29216770314088 55.382900032098405,89.67502899597457 55.10683733294718,87.33502507612866 54.16033664997667,87.51502648204041 52.52367921906989,89.00645962166891 52.78002315410413,91.88643268242595 54.41668058501091,91.86071884568082 54.71246204839554,93.40354240011948 57.551964097307064,93.50639682296605 57.768870503874496,99.31757409778947 59.28721534938086,99.98610431232373 60.39146614621859,99.13758476014482 61.416841886006296,99.03473362747172 61.73234211374074,100.06324225066055 61.51543570717331,101.45171936036786 63.349280780530535,103.53441449190723 63.50703089428134,104.74288061786501 66.5437205855269,104.76859257294564 66.5437205855269,98.62332849561062 66.20850159355905,95.97488494259596 65.08453203260433,95.30633949481125 64.8479068618035,93.58353760068712 63.447874601581134,92.09214324085042 62.126717398292385,92.2721397823334 60.49005996726919,91.47501084419491 58.30127713794354,91.83500500513765 57.70971421117429,90.52359416050604 55.856150373700075,90.49788012473437 55.205431154114194,89.41788722938509 55.10683733294718,87.3607395739964 54.21949294267688,87.54074095356918 53.62793001590762,88.33788770795218 52.52367921906989,88.82645974079787 52.799741918221116,91.88643268242595 54.41668058501091,91.88643268242595 54.495555641828105,93.12069242744474 54.830774633795954,93.40354240011948 57.63083915435709,93.66067834453133 57.72943297540769,99.31757409778947 59.34637164208107,100.03752960830752 60.76612266653683,99.06044641624612 61.45627941458952,99.06044641624612 61.71262334950734,100.06324225066055 61.475998178706504,101.37458203043207 63.32956201618072,103.53441449190723 63.447874601581134,104.74288061786501 65.95215765864123,105.0 68.02262790256646,102.7630487975257 67.92403408151586,101.09174486491247 68.87053476436995,100.55178174159664 68.87053476436995,86.28072743077064 69.44237892702222,85.79214833190781 74.88475785404444,85.79214833190781 75.04250796791166,84.86641579399293 74.35235121985897,84.37783276943082 74.94391414674465,83.29780232379562 74.72700774029363,83.22065703841508" stroke="#4dd2ff" stroke-linecap="round" stroke-linejoin="round" stroke-width="0.5"><title>2024-08-08 10.1km</title></polyline><polyline fill="none" points="111.20297368220054,72.59999999999127 110.71503928839229,73.03271840962407 111.2224910579389,78.14889577189751 111.04683467617724,80.4396727575513 110.38324390060734,80.64329592078866 108.64619745861273,82.34863056971517 104.78175705950707,82.1450093996682 104.41092692012899,82.37408319927636 105.11355244729202,84.76661377157143 104.84030918672215,85.91196252263035 104.80127443524543,96.42336719864397 105.13306982303038,98.5103018774098 104.85982656246051,100.92806080059381 102.69339785387274,101.02986044030695 102.28353296313435,95.91435494861798 101.19055992097128,95.60894688476401 101.09297304216307,93.92919296484615 99.86337836971506,92.42758105487155 98.36054043681361,92.52938566119701 96.54542449163273,91.66404461204365 94.49610003770795,91.99491081478482 94.04720039537642,90.77324786626559 92.2125670745736,90.6459908165998 91.66608055343386,90.06060719052039 91.37331991724204,87.59179373773804 90.63165963860229,87.69360116955067 89.94855148717761,88.53351021271374 88.83606106927618,89.06799567745475 89.10930432984605,92.07126446459733 90.69021176593378,91.94400836293062 90.7682812687708,93.29291831191222 91.11959403241053,93.5474284519878 93.93009614094626,93.67468338251638 94.00816564378329,99.37560892573674 94.74982592253946,99.93551119664335 95.68665995856281,100.06276146181335 96.68204612203408,99.24835815875849 97.61888015805744,99.14655747821962 97.9506755459588,100.1136615419091 97.73598441260401,101.6152072144323 99.57061773340683,103.57483210404462 99.66820461221505,104.74550658771477 102.51774147211108,104.87275334034348 102.71291522972751,99.7319105790084 102.34208509034943,95.99070688082429 101.19055992097128,95.60894688476401 101.229594672448,94.08189853584918 100.5074517695466,92.98750565310183 99.70723936380818,92.22397166397423 98.39957518829033,92.50393451515993 96.7210808735108,91.66404461204365 94.47658266196959,92.0458132517524 94.06671777111478,90.72234505752567 91.91980643838178,90.3914764381625 91.50994154752698,89.6533826385421 91.3928372929804,87.56634187043528 90.45600325684063,87.74450486325077 88.7775089420611,89.24615713472303 89.0897869541077,92.0458132517524 90.65117701434065,91.94400836293062 90.72924651729409,93.216565197421 91.13911140826531,93.57287944552081 93.8520266378764,93.59833043527033 93.9496135165682,99.2992584767344 95.51100357680116,100.08821150373842 96.81866775231902,99.14655747821962 97.67743228538893,99.12110729880806 97.9506755459588,100.13911157636903 97.77501916419715,101.79335584235378 99.51206560619175,103.49848349497188 99.78530886664521,104.84730399723048 102.26401558739599,104.94910134725797 102.65436310239602,104.51646219896793 102.38111984194256,95.99070688082429 102.146911332733,95.6598482659465 101.229594672448,95.55804548876768 101.24911204818636,93.95464390267443 100.85876453318633,93.31836934261082 99.60965248488355,92.19852047340828 98.32150568522047,92.45303221204085 96.64301137055736,91.63859333965229 94.47658266196959,91.99491081478482 94.04720039537642,90.67144223395735 91.90028906252701,90.36602497989952 91.50994154752698,89.52612477079674 91.41235466871876,87.54088999946543 90.53407275979407,87.64269746110949 90.0071036145091,88.431703271679 88.89461319660768,88.88983403806924 89.01171745115425,91.71494714566506 89.12882170558441,92.07126446459733 90.72924651729409,92.0458132517524 90.96345502638724,93.49652645365859 93.79347451054491,93.57287944552081 94.04720039537642,99.42650920654705 95.51100357680116,100.06276146181335 96.68204612203408,99.27380831961636 97.63839753391221,99.0956571157003 97.97019292169716,100.08821150373842 97.67743228538893,101.51340791677649 99.55110035766847,103.57483210404462 99.62916986073833,104.74550658771477 102.30305033887271,105.0 102.65436310239602,104.77095594564162 102.79098473268095,101.28435927939427 104.95741344126873,100.72446134279016 105.01596556848381,86.4464560297638 105.50389996229205,86.0392230302241 110.87117829441559,85.86105829356529" stroke="#4dd2ff" stroke-linecap="round" stroke-linejoin="round" stroke-width="0.5"><title>2024-07-03 10.1km</title></polyline><polyline fill="none" points="119.80000000000291,88.99157882735562 123.90407711530861,88.96744317243792 124.81789360941912,89.00062969067585 126.45582292038307,88.98252796006818 127.15217422349087,89.0307992064445 130.31467333094042,89.0036466442416 130.9439343091799,88.93727356411364 136.15847197429684,88.65669409568727 136.92885398071667,88.69289811228373 138.886040699741,88.65971109949896 139.83687254552206,88.71703408807844 141.884284184227,88.61747300609204 145.02133523741213,88.59333691392385 145.4724598357716,88.61445599611943 145.59970010710822,88.70798310045939 145.7917172438465,88.71703408807844 145.94209210996632,88.61747300609204 146.78650481971272,88.59031990042604 149.86571938592533,88.57523482629585 150.31915744378057,88.61747300609204 150.63841485184093,88.56920079355586 151.65633702249033,88.56920079355586 152.1999999999971,88.62049001562627" stroke="#4dd2ff" stroke-linecap="round" stroke-linejoin="round" stroke-width="0.5"><title>2024-04-12 12.0km</title></polyline><polyline fill="none" points="155.8000000000029,88.97321781087521 159.9292289988516,88.97017893743032 163.49453394707234,89.03399518647348 163.88601841196942,88.99448991253485 166.2325949367223,89.00968425754218 166.88739930956217,88.93371242150533 168.94036248563498,88.84558474408004 169.5159378596145,88.772651211435 171.9930092059949,88.66021151425048 172.8458860759565,88.69667850966653 175.12721518987382,88.66628935125846 175.7284234752733,88.7149119833939 177.25241657078732,88.66628935125846 177.6462313003576,88.6176666054671 181.11599539702001,88.59943304648914 181.42592059839808,88.61158875426008 181.54942462600593,88.7270676236767 181.77779056387953,88.7118730722159 181.945569620264,88.6146276800846 182.72387802072626,88.58423840180876 185.83245109321433,88.56904374601436 186.05848676641472,88.6024719740999 187.10011507481977,88.5660048135287 188.20000000001164,88.6024719740999" stroke="#4dd2ff" stroke-linecap="round" stroke-linejoin="round" stroke-width="0.5"><title>2024-04-03 11.9km</title></polyline><polyline fill="none" points="41.03595107689034,113.39999999999418 37.21987138129771,113.39999999999418 38.417619022889994,118.19488498602004 38.389764426625334,120.62861698833876 37.83267250028439,121.4640717356815 38.194782252423465,123.78880060785741 37.9162362893112,133.92291164981725 38.33405523386318,136.53809907005052 37.83267250028439,140.0976155325916 34.71295771258883,140.0976155325916 34.322993364185095,132.83324210737192 32.596008392516524,132.36105048947502 32.596008392516524,130.10904736051452 30.72975043905899,127.85702383649186 28.724219504278153,128.07496248827374 26.078032854013145,126.80365099344635 23.209009433281608,127.38482276910509 22.289807754801586,125.42336258260184 20.200713030877523,125.38703909976175 19.42078433407005,124.91483334175427 18.83583781134803,123.8251243239938 18.585146444500424,120.99185852780647 17.415253399056382,121.24612728960346 16.718888491159305,122.29952367610531 15.04761271213647,123.17129662101797 15.32615867513232,127.53011550063093 17.61023557325825,127.23952995240688 18.16732749971561,129.49155906894885 22.26195315842051,129.56420482999238 22.373371543711983,137.84568246666458 24.518175460165367,138.86268702165398 27.526471862685867,137.30085688692634 27.94429080723785,139.00797304711887 27.610035651479848,141.51414362591458 30.367640687036328,143.69340185997135 30.42334987956565,145.47311525137047 34.4901209421223,145.65471794262703 34.685103116207756,136.2475240481872 34.23942957515828,132.9058868920838 32.67957218142692,132.4336954120663 32.34531702543609,129.63685056955728 30.339786090655252,127.67540814743552 28.724219504278153,128.0023162922298 26.105887450277805,126.76732771233947 23.26471862581093,127.3121763713134 22.234098562039435,125.45968605997041 19.671475700917654,125.20542160680634 18.863692407729104,123.8251243239938 18.585146444500424,120.99185852780647 17.387398802675307,121.24612728960346 16.63532470224891,122.3358476098656 14.964048923109658,123.24394422858313 15.354013271513395,127.34849957287952 17.693799362285063,127.3121763713134 17.638090169639327,129.16465288192558 18.139472903334536,129.52788195208996 22.234098562039435,129.8184648261813 22.317662351066247,137.84568246666458 24.657448441837914,138.79004397704557 26.662979376735166,137.55510897269414 27.637890247744508,137.55510897269414 28.02785459626466,138.93533004506025 27.665744844125584,141.00564728994505 30.339786090655252,143.8023642703629 30.395495283184573,145.5457563437667 34.685103116207756,145.61839741496078 34.29513876780402,133.12382111893385 33.90517441940028,132.54266275624104 32.67957218142692,132.50634031348454 32.67957218142692,130.2180157234834 30.757605035440065,127.82070070935879 28.64065571525134,128.0023162922298 26.105887450277805,126.76732771233947 23.097591047990136,127.2758531645668 22.54049912164919,125.5323329987732 19.42078433407005,125.02380398094829 18.473728059208952,120.88288612173346 17.27598041750025,121.17347909852106 16.69103389477823,122.26319973712089 15.10332190466579,123.02600134249951 15.214740290073678,126.94894406470121 15.521140849450603,127.42114595993189 17.721653958549723,127.42114595993189 17.693799362285063,128.9830381479842 18.139472903334536,129.56420482999238 22.26195315842051,129.74581913943985 22.317662351066247,137.80936079843377 23.069736451725475,138.49947158664872 24.68530303798616,138.75372244685423 26.217305835569277,137.62775237801543 27.72145403677132,137.44614382492728 27.805017825681716,141.40518021289608 30.22836770536378,143.72972266870784 30.395495283184573,145.4367946972634 30.896878016996197,145.763679493597 34.21157497889362,145.8000000000029 34.76866690523457,145.21887126103684 34.26728417153936,133.16014347145392 32.67957218142692,132.4336954120663 32.67957218142692,130.25433850045374 31.008296402404085,128.07496248827374 30.22836770536378,127.60276183464157 28.58494652272202,128.0023162922298 26.161596643039957,126.8399742692418 23.209009433281608,127.3121763713134 22.45693533262238,125.5323329987732 19.42078433407005,124.87850978483038 18.83583781134803,123.78880060785741 18.696564829791896,120.99185852780647 17.27598041750025,121.17347909852106 16.69103389477823,122.29952367610531 14.991903519374318,123.17129662101797 15.32615867513232,127.23952995240688 17.665944766020402,127.34849957287952 18.11161830695346,129.52788195208996 22.094825580483302,129.67317343155446 22.373371543711983,132.0704705864773" stroke="#4dd2ff" stroke-linecap="round" stroke-linejoin="round" stroke-width="0.5"><title>2023-09-29 10.1km</title></polyline><polyline fill="none" points="77.00418625189923,113.72474268905353 74.04365874349605,113.39999999999418 73.13059885776602,113.72474268905353 73.79464241093956,117.116474144932 73.9329848177731,122.81736463189009 73.5732945598429,133.4610801377712 73.87764785520267,139.59453839728667 73.32427822740283,140.20787584703066 70.72344097704627,140.20787584703066 70.142402867903,132.99204470819677 68.64830487291329,132.48692863415636 68.53763094742317,130.24997360388807 66.60083725047298,127.8325961988885 64.52570114634,128.0490787220333 62.063206302933395,126.93058364352328 59.07501031307038,127.47179157206847 58.5493091668468,125.73992202656518 55.92080343503039,125.30695274269965 54.92473810503725,124.26060717346263 54.67572177259717,121.08546245007892 53.43064011016395,121.26586949396005 52.738928075530566,122.34830899020017 50.99581374810077,123.25033827981679 51.27249856200069,127.39963058344438 53.70732492406387,127.36355008113605 54.09468366345391,129.56445107143372 58.18961890868377,129.74485192233988 58.355629796977155,137.9349117800739 60.40309741976671,138.83688415100914 62.14621174708009,137.64627992575697 63.47429885354359,137.39372677658685 63.91699455585331,138.94512061425485 63.584972779266536,141.0737614187674 66.21347851096652,143.8157123717683 66.2964839549968,145.3670658768824 70.22540831216611,145.72784436542133 70.64043553289957,145.29491011594655 70.64043553289957,140.60474044427974 70.17007134924643,133.100283732565 68.62063639156986,132.5230083878996 68.59296791022643,130.28605368440913 66.76684813864995,127.97691790208046 64.58103810902685,128.0490787220333 62.00786934013013,126.85842249674897 59.130347275873646,127.36355008113605 58.43863524124026,125.7038412818365 55.395102288690396,124.87398269996629 54.84173266100697,123.79155427245132 54.620384809793904,121.08546245007892 53.31996618467383,121.26586949396005 52.6835911127273,122.38439022497914 51.07881919236388,123.06993268552469 51.16182463639416,127.14706695722998 51.410840968834236,127.50787205838424 53.624319479917176,127.36355008113605 53.901004293817095,129.4562104976212 58.13428194599692,129.7809320766828 58.16195042745676,137.68235892603116 60.56910830794368,138.9090417984553 62.063206302933395,137.68235892603116 63.557304297806695,137.53804289347318 63.66797822341323,141.47062462476606 66.1858100296231,143.77963426739734 66.21347851096652,145.33098799911386 66.65617421315983,145.58353303329204 69.92105501680635,145.8000000000029 70.69577249570284,144.8619751077349 70.19773983070627,133.100283732565 68.59296791022643,132.48692863415636 68.59296791022643,130.24997360388807 67.5138971360866,128.73460546018032 66.4624948434066,127.79651575996832 64.55336962768342,128.19340029874002 62.063206302933395,126.89450307279185 59.04734183172695,127.47179157206847 58.659983092336915,125.73992202656518 55.367433807230555,124.94614442638704 54.78639569808729,123.8637163152016 54.620384809793904,121.15762528349296 53.37530314736068,121.3380322745652 52.6835911127273,122.34830899020017 51.16182463639416,122.88952695926127 51.13415615505073,127.29138906089065 53.596650998457335,127.3274695736909 53.624319479917176,129.16756873572012 54.150020626257174,129.60053125223203 58.16195042745676,129.7087717626855 58.18961890868377,137.68235892603116 60.51377134514041,138.9090417984553 62.11854326573666,137.68235892603116 63.50196733500343,137.42980581375014 63.91699455585331,138.87296297738794 63.50196733500343,140.92944736755453 66.26881547376979,143.8878685648524 66.32415243645664,145.54745518704294 69.94872349814977,145.8000000000029 70.61276705155615,145.33098799911386 70.19773983070627,132.95596502289118 68.62063639156986,132.48692863415636 68.50996246596333,130.17781342686794 66.57316876901314,127.8325961988885 64.55336962768342,128.08515912404982 62.11854326573666,126.93058364352328 59.18568423879333,127.50787205838424 58.41096675989684,125.63167977669218 55.69945558393374,125.41519513478852 54.86940114223398,124.22452621263801 54.56504784710705,121.73492719141359 54.81406417954713,124.18844524663291 55.5611131771002,125.27087193484476 58.383298278436996,125.55951825046213 59.07501031307038,127.39963058344438 62.035537821473554,126.7862613289326 64.4426957021933,128.08515912404982 66.43482636206318,127.76043531567848 67.29254928510636,128.59028419983224" stroke="#4dd2ff" stroke-linecap="round" stroke-linejoin="round" stroke-width="0.5"><title>2023-09-14 10.0km</title></polyline><polyline fill="none" points="83.80000000000291,129.82621599052072 86.04962355697353,129.81561222949313 86.90881713235285,129.86156182705236 87.10667558976274,129.82268140402812 89.88753555295989,129.8085430528863 90.32932909487863,129.84388891525123 91.1966538397246,129.74492037051823 97.02399196921033,129.43740838046142 97.99431152753823,129.49042796794856 98.72611678100657,129.44094302323902 100.45805588088115,129.43740838046142 101.40127154091897,129.50456650498018 104.30680943619518,129.35964610864175 106.00893424796232,129.39499262682148 107.60264346662734,129.34550748691981 107.99836038147623,129.36318076277894 108.18266688975564,129.50103187149944 108.38865651666129,129.497497237493 108.5892253639031,129.37731937419267 109.77095532877138,129.33843817294655 116.20000000001164,129.3490421431252" stroke="#4dd2ff" stroke-linecap="round" stroke-linejoin="round" stroke-width="0.5"><title>2023-09-01 10.2km</title></polyline><polyline fill="none" points="149.34030305116903,113.40000000000873 144.94911996356677,113.50873190815037 145.83847350033466,116.91564088693121 145.42158902995288,133.36962776344444 145.72730430809315,138.55204523421708 145.64392741420306,139.67549208797573 145.1158737516962,140.0016531250876 142.8924899097765,140.14661344831984 142.3088516512653,139.747972355588 141.86417488299776,132.78977012442192 140.28001389559358,132.2823935784254 140.28001389559358,130.18039397761459 138.36234533193056,127.67971608514199 136.33350757637527,127.89716733712703 133.69323926407378,126.70118309218378 130.80284026963636,127.24481300922344 129.77452524274122,125.21525524141907 126.9952954405453,124.88907476588793 126.43944948003627,123.91053076639946 126.30048798990902,120.8661469744402 125.02204228087794,121.04736134104314 124.24385793611873,122.20713015303772 122.65969694883097,122.96822548948694 123.52125818759669,125.97634134996042 125.46671904926188,127.24481300922344 125.74464202928357,129.34683748062525 129.85790213698056,129.383079125706 130.24699430924375,137.79099770112953 132.33141666091979,138.73324668372516 133.72103156219237,137.50107421736175 135.24960795335937,137.2111503948836 135.69428472185973,138.6607661197777 135.38856944360305,140.7626938775502 138.00104545778595,143.6256358006358 138.16779924591538,145.3288893737481 141.5306673067389,145.8000000000029 142.3922285453882,145.18393207799818 142.33664394938387,136.2688956319762 141.8363825849956,132.6085643342085 140.33559849171434,132.20991113007767 140.28001389559358,130.03542783153534 139.64079104107805,129.05690412959666 138.0566300537903,127.42602271681244 136.25013068225235,127.82468360759958 133.60986236995086,126.55621491315833 130.83063256763853,127.24481300922344 129.9968636271078,125.25149748993863 127.18984152656049,125.03404391906224 126.46724177792203,123.76556095671549 126.35607258602977,120.79366119074984 124.99424998287577,121.08360419844394 122.68748924683314,123.22192341611662 123.54905048559885,126.04882561946579 125.38334215513896,127.1360871210345 125.63347283739131,129.20187084750796 129.94127903110348,129.63677049292892 129.96907132898923,137.573555120136 132.08128597878385,138.69700640435622 133.83220075420104,137.39235282364825 135.38856944360305,137.28363138226268 135.47194633772597,141.05261355012772 138.00104545778595,143.6981149141793 138.36234533193056,145.40136798976164 141.80859028699342,145.61880371109874 142.44781314150896,144.93025660673447 141.97534407512285,132.93473466127762 141.66962879686616,132.3911172113003 140.33559849171434,132.17366989789298 140.05767551145982,129.45556239997677 138.0566300537903,127.46226464238134 136.4168844704982,127.86092547506269 133.7766161581967,126.62869901317754 130.85842486575712,127.20857105177129 130.13582511711866,125.36022420397785 127.07867233466823,124.74410552802146 126.38386488403194,120.79366119074984 125.0498345787637,121.04736134104314 124.18827334011439,122.17088745969522 122.71528154495172,122.82325512920215 123.0209968232084,127.20857105177129 125.29996526101604,127.20857105177129 125.80022662552074,129.31059583030583 129.85790213698056,129.70925369298493 130.05244822299574,137.64603600157716 132.19245517079253,138.6607661197777 133.8044084563153,137.4285932934581 135.33298484736588,137.1749098931905 135.7220770198619,138.73324668372516 135.27740025136154,140.65397391287843 136.0,141.88613072196313 138.0288377556717,143.5893962358241 138.25117613992188,145.3651286844106 141.50287500862032,145.6912822426093 142.44781314150896,145.03897469764343 142.0031363730086,132.97097578224202 141.6140442007454,132.2823935784254 140.39118308771867,132.24615235687816 140.11326010746416,129.41932076554804 138.08442235190887,127.42602271681244 136.30571527825668,127.89716733712703 133.83220075420104,126.5924569658091 130.83063256763853,127.20857105177129 129.96907132898923,125.17901298757351 127.10646463255398,124.707863205389 126.55061867204495,123.58434857554676 126.38386488403194,120.82990408519981 124.93866538675502,121.11984705056238 124.35502712824382,122.09840205716318 122.65969694883097,123.14943832067365 123.74359657184687,126.23003620057716 125.41113445325755,127.20857105177129 125.68905743339565,129.31059583030583 128.69062561995815,129.12938749915338 129.8856944348663,129.67301209564903 129.96907132898923,137.53731467139733 132.2202474687947,138.55204523421708 133.8044084563153,137.4285932934581 135.30519254948013,137.1749098931905 135.7220770198619,138.6245258298004 135.38856944360305,141.01637360961467 138.00104545778595,143.6256358006358 138.08442235190887,145.40136798976164 138.7236452064244,145.3288893737481" stroke="#4dd2ff" stroke-linecap="round" stroke-linejoin="round" stroke-width="0.5"><title>2023-06-19 10.7km</title></polyline><polyline fill="none" points="188.19999999995343,123.14608295106154 187.48858218314126,122.93403165007476 187.407277289778,119.83275305798452 186.98042659962084,119.59419097068894 173.5041405269876,119.77973928794381 172.69109159347136,120.12432851646736 172.6301129234489,135.02056032362452 170.7804265996674,135.4711390289158 170.35357590962667,135.10007429409598 169.92672521946952,130.11713148865965 168.86976160597987,129.79906666386523 168.78845671273302,128.12921718672442 167.5485570890596,126.43284642758954 165.80050188209862,126.48585825385817 163.86951066495385,125.58465510093083 161.79623588453978,125.98224527901039 161.3084065244766,124.6834474720381 159.60100376408082,124.41838555292634 158.80828105390538,123.83524796782876 158.52371392725036,121.31713233119808 157.5887076536892,121.50267888650706 156.91794228344224,122.43040881707566 156.00326223333832,122.6689671753702 155.82032622327097,123.0930701490579 156.36913425347302,124.04729821560613 156.43011292349547,125.00152126388275 157.85294855711982,126.0617632100184 158.01555834384635,127.49308001050667 161.12547051440924,127.78464315981546 161.24742785445414,133.61580776705523 162.9548306147335,134.41095205924648 164.0524466750212,133.53629314624413 165.15006273519248,133.43027359756525 165.08908406517003,135.92171661549946 167.0404015056556,138.01556248543784 167.08105395222083,139.26125679405231 169.3982434127247,139.49979302668362 170.06900878285524,139.49979302668362 170.33324968628585,139.10223246480746 169.98770388949197,130.9387963725021 169.78444165620022,129.9315937419451 168.82910915929824,129.77256123659026 168.58519447920844,127.89066600699152 167.46725219569635,126.43284642758954 166.99974905897398,126.19429301776108 165.86148055200465,126.45935234268836 164.0524466750212,125.58465510093083 161.83688833122142,125.95573929417878 161.28808030101936,124.65694129750773 159.64165621076245,124.41838555292634 158.80828105390538,123.83524796782876 158.52371392725036,121.34363899361051 157.5887076536892,121.55569215325522 155.80000000004657,123.0135509170068 156.4707653701771,125.05453350834432 157.832622333779,126.03525723693019 157.95457967370749,127.41356270672986 161.12547051440924,127.83765459110145 161.26775407779496,133.66881749490858 162.89385194482747,134.41095205924648 163.99146800499875,133.53629314624413 165.1703889585333,133.5097882648406 165.0484316184884,135.76268935980625 167.0404015056556,138.04206670865824 167.20301129226573,139.31426487285353 170.2722710162634,139.26125679405231 169.92672521946952,130.19664760782325 168.78845671273302,129.69304493167147 168.4022584692575,127.54609152705234 167.12170639890246,126.19429301776108 165.80050188209862,126.45935234268836 164.01179422833957,125.55814905805164 161.83688833122142,125.98224527901039 161.3490589710418,124.6834474720381 159.62132998742163,124.41838555292634 158.78795483056456,123.70271643713932 158.56436637381557,121.34363899361051 157.64968632371165,121.44966560442117 157.01957340026274,122.35088929462654 155.84065244661178,122.90752522004186 156.43011292349547,125.0280273880926 157.832622333779,125.98224527901039 158.01555834384635,127.51958577074402 161.14579673775006,127.75813743832987 161.1864491844317,133.56279802374775 161.91819322446827,134.17240913736168 162.99548306153156,134.38444730559422 164.0524466750212,133.48328337963903 165.12973651196808,133.43027359756525 165.12973651196808,136.05423922221235 167.06072772899643,138.06857092809514 167.20301129226573,139.28776083534467 169.78444165620022,139.6058090293227 170.2722710162634,139.28776083534467 169.92672521946952,130.0641207232984 168.80878293595742,129.71955037057342 168.72747804271057,127.97018310171552 167.36562107899226,126.32682272866077 165.84115432866383,126.48585825385817 164.09309912158642,125.55814905805164 163.25972396484576,125.71718525706092 163.99146800499875,125.61116113992466 165.73952321195975,126.53887006474542 167.0404015056556,126.27381085591333 168.07703889580444,127.09549314292963 168.72747804271057,127.94367740739835 168.70715181925334,129.69304493167147 169.94705144281033,130.01110994238115 170.25194479280617,133.0061947835202" stroke="#4dd2ff" stroke-linecap="round" stroke-linejoin="round" stroke-width="0.5"><title>2023-06-02 10.0km</title></polyline><polyline fill="none" points="11.80000000000291,170.57833941889658 22.317301553528523,170.6143066191944 23.124026388599304,170.53038305373957 27.945988508188748,170.26662104163188 28.447031283256365,170.26961835626753 28.780293679519673,170.31757533096788 30.720110661844956,170.26662104163188 31.676228984899353,170.32956455711974 34.02055756543996,170.2216612694774 36.75560757609492,170.20967198025937 37.275037241968676,170.22465859068325 37.415237284541945,170.3355591675736 37.62668652906723,170.3235699449251 37.75539476485574,170.2216612694774 38.817237710158224,170.18569338080488 44.20000000001164,170.20367733302555" stroke="#4dd2ff" stroke-linecap="round" stroke-linejoin="round" stroke-width="0.5"><title>2023-05-09 12.1km</title></polyline><polyline fill="none" points="80.20000000006985,163.9621185115975 79.74742857157253,163.82798771758098 79.60342857148498,160.28689932062116 77.77257142867893,160.26007263280917 77.2582857144298,160.63564590622263 73.16457142867148,160.2332459410536 64.85371428576764,160.71612579346402 64.58628571440931,170.99043505633017 64.8331428571837,175.9261912418733 64.17485714284703,176.3285568223364 62.796571428654715,176.38220549978723 62.40571428579278,176.06031320005422 62.01485714293085,170.9099596717424 60.90400000009686,170.5075822193321 60.94514285714831,168.97853985984693 59.628571428591385,167.18122817775293 57.7771428572014,167.26170519637526 56.02857142861467,166.34963025305478 53.76571428577881,166.72519107245898 53.436571428668685,165.51802856268478 51.42057142860722,165.16929124915623 50.70057142851874,164.49864070799958 50.53599999996368,162.11110490123974 49.67200000002049,162.24523694926756 48.99314285709988,163.1036797369161 47.985142857185565,163.42559474766313 47.8205714286305,163.93529236066388 48.33485714287963,165.67898402249557 49.81599999999162,166.7788425554172 49.91885714291129,168.28107771350187 53.14857142872643,168.62980911781779 53.16914285719395,174.53131707111606 54.85600000002887,175.3360534625972 56.0491428571986,174.42401861916005 57.05714285722934,174.28989546606317 57.4068571429234,175.22875548072625 57.160000000032596,176.89186715410324 59.15542857151013,178.98414754521218 59.19657142856158,180.1912215440243 61.74742857145611,180.5667540589493 62.44685714296065,180.03027880254376 62.097142857150175,171.15138571991702 61.870857142843306,170.6685333060741 60.92457142868079,170.48075702453207 60.88342857151292,168.9248890195595 60.10171428578906,167.7982177528902 59.21714285714552,166.96662262217433 57.90057142858859,167.28853086139134 56.13142857141793,166.34963025305478 53.86857142858207,166.72519107245898 53.395428571500815,165.46437671140302 51.58514285716228,165.11563929602562 50.803428571322,164.55229284135567 50.55657142866403,162.08427847988787 49.56914285721723,162.2720633471181 47.8205714286305,163.82798771758098 48.52000000001863,165.97406866564415 49.87771428562701,166.80566829103918 49.96000000007916,168.25425219355384 53.14857142872643,168.62980911781779 53.18971428577788,174.4508432380535 54.85600000002887,175.28240447949793 56.09028571436647,174.50449246396602 57.13942857144866,174.37036936965887 57.44800000009127,175.3360534625972 57.2217142857844,176.91869141250208 59.134857142926194,178.93049962786608 59.27885714289732,180.29851662667352 62.48800000012852,180.24486909310508 62.097142857150175,170.9099596717424 60.92457142868079,170.5075822193321 60.96571428573225,168.9517144417041 60.34857142867986,167.98599677733728 59.19657142856158,166.88614547424368 57.90057142858859,167.18122817775293 56.0491428571986,166.29597864479 53.78628571436275,166.75201681585168 53.271999999997206,165.38389890511462 51.64685714291409,165.1424652745918 50.803428571322,164.49864070799958 50.494857142912224,161.97697275521932 49.548571428633295,162.24523694926756 47.800000000046566,163.72068301180843 48.4377142857993,165.92041694765794 49.83657142857555,166.7788425554172 49.9805714286631,168.28107771350187 53.08685714285821,168.62980911781779 53.25142857152969,174.4508432380535 54.89714285719674,175.30922897302662 57.07771428581327,174.2630708237266 57.365714285871945,175.30922897302662 57.18057142861653,176.94551566703012 59.093714285758324,178.93049962786608 59.25828571431339,180.24486909310508 61.912000000011176,180.45945913309697 62.48800000012852,180.00345499860123 62.117714285850525,170.9636099320487 60.90400000009686,170.4539318257448 60.84228571422864,168.6029836487578 59.29942857148126,166.93979691015556 57.94171428575646,167.23487952737196 55.9874285714468,166.24232702078007 53.90971428586636,166.72519107245898 53.313142857165076,165.35707296186592 51.19428571430035,165.03516133689845 50.65942857146729,164.20355369393656 50.55657142866403,162.08427847988787 49.65142857155297,162.24523694926756 49.03428571438417,163.1036797369161 47.96457142860163,163.3719422850554 47.800000000046566,163.90846620572847 48.27314285724424,165.67898402249557 49.81599999999162,166.7788425554172 49.9805714286631,168.28107771350187 53.12800000002608,168.6029836487578 53.271999999997206,174.53131707111606 54.85600000002887,175.3360534625972 57.09828571428079,174.28989546606317 57.38628571422305,175.44335138169117 57.13942857144866,176.8382186255185 59.134857142926194,178.95732358850364 59.23771428584587,180.21804532052192 61.74742857145611,180.51310660391755" stroke="#4dd2ff" stroke-linecap="round" stroke-linejoin="round" stroke-width="0.5"><title>2023-05-07 11.2km</title></polyline><polyline fill="none" points="83.80000000000291,170.5652132624109 85.48419530789397,170.54022327897292 89.95125188934617,170.562436599208 90.9179076033397,170.60408650467798 91.09888940001838,170.5763199111716 93.44952355918213,170.58187323312086 98.85555628574366,170.27088470524177 99.56883748440305,170.30975854950702 101.86624170337018,170.27921482141755 102.2324636919293,170.3319721391108 104.321206545319,170.2209039314912 107.13174738780071,170.20979707502738 107.40641387922369,170.2209039314912 107.55758690938819,170.3291954418255 107.74495629889134,170.31808864865525 107.88335414339963,170.22368064459624 108.86278504304937,170.1959134953231 116.20000000000437,170.19869021207523" stroke="#4dd2ff" stroke-linecap="round" stroke-linejoin="round" stroke-width="0.5"><title>2023-05-05 13.0km</title></polyline><polyline fill="none" points="152.19999999995343,163.9580259459326 151.7265565439593,163.71643702100846 151.50012706476264,160.28047126272577 141.22846251586452,160.4146898810577 136.8439644217724,160.9247197364166 136.78221092757303,175.9297014876356 134.76493011438288,176.41284690787143 134.33265565440524,176.01022581254074 134.0033036848763,170.93712443065306 132.82998729357496,170.6418602490594 132.8094027953921,168.7897377435147 131.4096569250105,167.15233853262907 129.7628970774822,167.286552131598 127.97204574325588,166.40074056654703 125.72833545110188,166.80338271640358 125.33722998725716,165.5417676982761 123.38170266826637,165.24649484743713 122.68182973307557,164.52173220200348 122.43481575604528,162.13267953640025 121.57026683609001,162.29374024305434 121.0762388817966,163.0453550077509 120.04701397707686,163.448004509788 119.82058449811302,163.9580259459326 120.3763659466058,165.75651129180915 121.83786531130318,166.88391104043694 121.92020330368541,168.2528871508257 125.13138500635978,168.54815517086536 125.25489199487492,174.53394091587688 126.90165184240323,175.3391886933532 128.03379923757166,174.42657427895756 129.12477763660718,174.2655242059991 129.47471410420258,175.3391886933532 129.22770012705587,176.92283236248477 131.14205844968092,178.98960103096033 131.22439644217957,180.27796454413328 133.77687420579605,180.54637247267237 134.41499364678748,179.95587451261235 134.33265565440524,173.51395533246978 134.0444726810092,170.88344006928673 132.8505717916414,170.53449133818503 132.78881829720922,168.73605275478621 131.14205844968092,167.04496758279856 129.9069885641802,167.34023754375812 128.0132147395052,166.42758340401633 125.74891994916834,166.776539933795 125.4195679796394,165.5686106612411 123.54637865314726,165.3001808556146 122.74358322727494,164.6022615259717 122.55832274456043,162.05214913014788 121.61143583222292,162.26689680175332 120.95273189316504,163.12588497871184 120.06759847514331,163.3674746799079 119.80000000004657,163.93118274769222 120.39695044467226,165.8907259102998 121.8172808131203,166.88391104043694 121.92020330368541,168.30657228056225 124.63735705206636,168.3602573948301 125.17255400249269,168.7092102545721 125.23430749680847,174.50709926258423 126.94282083865255,175.3391886933532 128.0543837356381,174.50709926258423 129.14536213455722,174.3728909369529 129.43354510806967,175.36603022518102 129.2071156289894,177.0301975410257 131.08030495548155,178.96276002841478 131.24498094036244,180.30480535468087 133.85921219817828,180.51953169742774 134.41499364678748,180.14376043301309 134.08564167714212,170.96396660542814 132.89174078777432,170.53449133818503 132.76823379925918,168.7092102545721 131.24498094036244,167.04496758279856 129.88640406611376,167.286552131598 127.99263024132233,166.40074056654703 125.91359593393281,166.8302254950686 125.37839898350649,165.4880817606754 123.29936467588414,165.19280882355815 122.70241423114203,164.3606734481291 122.49656925036106,162.10583607158333 121.59085133415647,162.26689680175332 121.01448538748082,163.15272829451715 119.80000000004657,163.79696669794794 120.35578144853935,165.99809753445152 121.83786531130318,166.93759657023475 121.92020330368541,168.3602573948301 125.15196950454265,168.6823677503853 125.27547649294138,174.5876242108061 126.92223634046968,175.36603022518102 128.50724269379862,174.34604926011525 129.2071156289894,174.45341594409547 129.0630241422914,176.81546712129784 131.12147395173088,179.0164420295623 131.24498094036244,180.30480535468087 134.27090216008946,180.41216855739185 134.41499364678748,176.654419141807 136.53519695054274,176.22495717316633 136.86454891995527,175.63444532762514 136.9468869123375,160.709970496202 142.60762388817966,160.25362752733054 147.75374841166195,160.38784616522025" stroke="#4dd2ff" stroke-linecap="round" stroke-linejoin="round" stroke-width="0.5"><title>2023-04-17 10.1km</title></polyline><polyline fill="none" points="155.8000000000029,170.59297705922108 159.29364161849662,170.57488564964478 160.39884393062675,170.61709891399187 161.33757225432782,170.57790088567162 163.43236994219478,170.6231293732817 164.43352601154766,170.58996182539158 166.38034682080615,170.61709891399187 167.21502890172997,170.52965705631505 171.96184971097682,170.27335982195473 172.94682080924395,170.30652787863255 174.96531791906455,170.2612986972199 175.8416184971138,170.32160425041002 177.83930635837896,170.22209999315783 181.1248554913327,170.21003883845515 181.46242774566053,170.21908470514063 181.61271676300385,170.32763479604 181.8161849711032,170.32461952344238 181.93872832368652,170.2311458545464 182.82658959536639,170.19496238518877 185.95260115606652,170.1859165079295 186.12832369942043,170.22813056785162 186.47052023121796,170.18290121463906 187.27976878613117,170.17687062671757 188.1999999999971,170.22209999315783" stroke="#4dd2ff" stroke-linecap="round" stroke-linejoin="round" stroke-width="0.5"><title>2023-04-14 12.0km</title></polyline><polyline fill="none" points="44.20000000006985,204.83045764197595 43.684732824447565,204.83045764197595 43.78778625954874,201.282615070857 34.51297709927894,201.228859354218 28.845038167899475,201.68578244485252 28.803816793952137,216.7367322970822 28.370992366457358,217.1129902696557 26.82519083970692,217.1667413457326 26.371755725238472,216.84423465341388 26.021374045871198,211.7109270318033 24.867175572551787,211.44216352514923 24.846564885461703,209.66831453544728 23.568702290183865,208.02883283795381 22.95038167934399,207.78694085897587 21.919847328332253,208.08258656784892 19.85877862595953,207.16877102349827 17.838931297766976,207.54504856202402 17.282442748197354,206.2011966768041 15.448091603117064,206.03993379097665 14.767938931356184,205.3948808342393 14.458778626052663,202.8952792660566 13.613740458036773,203.02966731092602 12.99541984742973,203.91662594531954 11.964885496185161,204.18540044488327 12.006106870365329,207.70631012869126 13.799236641265452,207.6256793630746 14.087786259595305,209.21141126842122 16.643511450500228,209.1576578683016 17.17938931309618,209.45330137464043 17.32366412214469,215.36607174767414 18.93129770993255,216.06484114660998 20.126717557315715,215.15106524486328 21.136641221353784,214.962934348805 21.46641221374739,216.14546821426484 21.21908396948129,217.56987391627626 23.156488549662754,219.82739998982288 23.218320610700175,220.98302761928062 25.89770992367994,221.27865212614415 26.474809160339646,220.71427765539556 26.206870229099877,212.83972947271832 25.980152671807446,211.57654532756715 24.867175572551787,211.17339962598635 24.887786259525456,209.82957424112828 24.49618320609443,209.0770277386764 23.341984732891433,207.70631012869126 21.919847328332253,208.08258656784892 20.064885496278293,207.11501702667738 17.92137404589448,207.54504856202402 17.096946564968675,206.03993379097665 15.18015267176088,206.01305662964296 14.60305343521759,205.07235350782867 14.458778626052663,202.81464639204205 11.964885496185161,204.15852301254927 12.356488549732603,206.57747619401198 13.861068702302873,207.59880243330554 13.964122137404047,209.0770277386764 17.117557251942344,209.39954804522858 17.26183206110727,215.31232014553098 19.01374045794364,216.0917168397864 20.023664122098126,215.28544433857314 21.136641221353784,215.07043774155318 21.21908396948129,217.75800214694755 23.197709923726507,219.77364969094924 23.3625954198651,221.09052749486 25.95954198471736,221.27865212614415 26.433587786275893,220.7411526694923 26.103816793882288,211.87218494738045 25.83587786264252,211.44216352514923 24.949618320679292,211.36153439662303 24.805343511514366,209.48017803346738 23.28015267185401,207.78694085897587 21.899236641358584,208.08258656784892 20.003053435124457,207.16877102349827 17.88015267183073,207.6256793630746 17.241221374133602,206.1743195390154 15.221374045824632,205.93242512190773 14.623664122191258,204.9110896325874 14.541221374063753,202.8952792660566 13.716793893137947,202.9759121047391 12.974809160339646,203.91662594531954 11.800000000046566,204.45417455188 12.480152671807446,206.73873860873573 13.799236641265452,207.54504856202402 13.984732824494131,209.0770277386764 17.096946564968675,209.39954804522858 17.364885496208444,215.44669912141399 18.951908397022635,216.06484114660998 20.374045801581815,215.12418941436044 21.157251908443868,215.12418941436044 21.44580152677372,216.0917168397864 21.19847328250762,217.65050032446743 23.13587786257267,219.77364969094924 23.28015267185401,221.0636525318696 26.33053435117472,221.14427740921383 26.454198473365977,217.38174549330142 28.515267175622284,217.0323636259709 28.927480915910564,216.49485176548478 29.051145038218237,201.44388212641934 37.79007633589208,201.12134787386458" stroke="#4dd2ff" stroke-linecap="round" stroke-linejoin="round" stroke-width="0.5"><title>2023-04-03 10.0km</title></polyline><polyline fill="none" points="47.80000000000291,211.37337809352357 52.158381502886186,211.37639332999606 55.15722543351876,211.42765228261123 58.387283236996154,211.41257613329253 59.196531791909365,211.33417997930337 64.13757225433073,211.0718522217794 64.92832369942334,211.11406610901759 66.94682080924395,211.06280637757118 67.49248554912629,211.07788278238513 67.80924855491321,211.12914247639128 69.83005780346866,211.0236076735091 73.08786127167696,211.00853122903754 73.44624277456023,211.0205923854919 73.6358381502796,211.1231119307613 73.82312138727866,211.10803555898383 73.95028901733167,211.0236076735091 74.9745664739894,210.9904394811383 77.27745664739632,211.01154651880643 77.89942196531047,210.9753630124451 78.00346820808772,211.01456180814603 79.15722543351876,210.9723477173884 79.22890173409542,211.00551593882483 79.99653179189772,210.9934547735611 80.19999999999709,211.0356688211432" stroke="#4dd2ff" stroke-linecap="round" stroke-linejoin="round" stroke-width="0.5"><title>2023-03-31 11.9km</title></polyline><polyline fill="none" points="83.80000000000291,210.50949133949143 83.9108956075288,210.5480561245513 92.28351397604274,210.57215906943202 92.99324586423609,210.50467073502114 96.8986195094185,210.2997937430191 97.47158014831803,210.3287177078928 99.34386765545787,210.302204075364 99.82811180833232,210.34076934495533 101.43609811751958,210.2636387156217 103.93679406731826,210.2491766824769 104.32862521392235,210.2660490532453 104.44321734170808,210.33835901825114 104.55965772961645,210.34800032296698 104.7186081004038,210.25881803931588 105.71297204792063,210.23712497850647 114.64191671420849,210.23230429444993 114.78792926411552,210.26845939052146 114.78423274387023,210.7071349100588 114.72693667998101,210.83728913917184 114.74911580147455,211.1048251635293 114.82859098687914,211.17954165664014 114.97645179692336,211.19159267222676 115.01896177980962,211.3145125284791 115.21487735310802,211.27112915436373 115.38306902453769,211.35307543191448 115.4773302909307,211.32656344548377 115.54941243583016,211.35548561039104 115.65476326298813,211.49768551712623 115.65476326298813,211.64229433493347 115.7638106103841,211.6808564723051 115.808168853393,212.1676957055497 116.01332572731917,212.1339548358119 116.017022247579,211.52901753520564 116.05029092984478,211.5049159881146 116.19999999999709,211.52419722860395" stroke="#4dd2ff" stroke-linecap="round" stroke-linejoin="round" stroke-width="0.5"><title>2023-03-15 16.1km</title></polyline><polyline fill="none" points="152.19999999995343,204.64371045079315 151.13407821231522,204.6961639067158 151.13407821231522,202.02101811453758 150.71173184353393,201.28665739446296 136.673743016785,201.75874677360116 136.37206703913398,203.20123440718453 136.673743016785,209.54804231130402 136.1910614526132,212.4853320076072 136.47262569819577,216.55025187494175 136.0502793296473,216.94362633310084 134.40111731842626,217.12720078526763 134.05921787710395,216.78627665327804 133.73743016750086,211.72478839301039 132.57094972068444,211.4100797480205 132.57094972068444,209.784076294658 131.2033519553952,208.05315321098897 129.55418994405773,208.21051054452255 127.76424580998719,207.26636447454803 125.6122905027587,207.68598556304642 125.0893854747992,206.32221343941637 123.01787709491327,206.03372185509943 122.57541899441276,205.22069762316823 122.43463687156327,203.12255356232345 121.56983240216505,203.2274613477348 121.02681564248633,204.0929482382926 120.02122905035503,204.40766970944242 120.02122905035503,207.73843813018175 121.65027932962403,207.60730668369797 122.05251396645326,209.25955591033562 124.82793296093587,209.3644601098058 125.04916201124433,209.65294634226302 125.06927374307998,215.21277227069368 126.7586592178559,216.02575125680596 127.88491620111745,215.13409668952227 128.93072625692002,214.95052019954892 129.07150837988593,217.75659748225007 130.86145251395646,219.5661006965529 130.96201117325108,220.79865041594894 133.37541899445932,221.11334260553122 134.0391061452683,220.77242604197818 134.0391061452683,214.4522402092116 133.71731843566522,211.72478839301039 132.53072625689674,211.3576282536087 132.5508379888488,209.81030227363226 132.06815642456058,209.02352123746823 130.9217877094634,207.92202199433814 129.6346368715167,208.2367367533443 127.68379888264462,207.31881716419593 125.6122905027587,207.73843813018175 125.27039106143638,206.47957229007443 123.37988826818764,206.24353396240622 122.65586592175532,205.5878703128401 122.4949720670702,203.17500746270525 121.42905027931556,203.2799152174557 120.96648044686299,204.11917504864687 119.84022346371785,204.64371045079315 120.36312849156093,206.76806315804424 121.79106145258993,207.63353298061702 122.0324022345012,209.25955591033562 124.988826815621,209.3906861499854 125.10949720675126,215.26522263896186 126.77877094980795,215.9470760319673 127.96536312846001,215.10787148820236 128.9709497205913,215.02919586114876 129.23240223468747,215.99952618562384 128.91061452508438,217.4681242700026 130.82122905028518,219.51365158463886 130.96201117325108,220.79865041594894 133.43575418996625,221.06089394551236 134.0391061452683,220.77242604197818 134.0391061452683,214.13753634486056 133.697206703946,211.72478839301039 132.5508379888488,211.48875696095638 132.57094972068444,209.86275422011386 131.08268156426493,208.02692697536258 129.69497206702363,208.2629629583971 127.68379888264462,207.31881716419593 125.7128491619369,207.76466440802324 125.2301675977651,206.4008928820258 123.09832402237225,206.19108095862612 122.51508379890583,205.14201766341284 122.4547486032825,203.20123440718453 121.52960893849377,203.25368828455976 120.96648044686299,204.11917504864687 119.80000000004657,204.66993718070444 120.38324022351298,206.84674240527966 121.85139664798044,207.76466440802324 121.91173184360377,209.15465164958732 125.00893854757305,209.41691218649794 125.16983240225818,215.31767299187777 126.79888268152718,216.02575125680596 127.96536312846001,215.10787148820236 128.99106145254336,215.05542107403744 128.99106145254336,217.6254733523383 130.82122905028518,219.5661006965529 131.022346368758,220.87732351502927 134.01899441331625,220.92977222861373 134.11955307261087,217.36322480525996 136.4324022346409,216.55025187494175 136.5731843576068,201.88988249194517 137.90055865922477,201.52270223922096 143.87374301673844,201.49647504960012" stroke="#4dd2ff" stroke-linecap="round" stroke-linejoin="round" stroke-width="0.5"><title>2023-03-06 10.0km</title></polyline><polyline fill="none" points="155.87857907125726,211.2738434357998 155.8000000000029,211.28288531733415 155.8092445966322,211.34617837706173 155.95715814251162,211.39440153033502 162.7704258506419,211.3823457525832 163.67408517013246,211.42755488282637 165.94825593837595,211.38535969768418 166.40586347100907,211.4245409438936 167.04374063770229,211.34015047497815 172.33627220201015,211.06587906688583 172.93948213139083,211.1141028753609 175.07267280120868,211.07492103955883 175.83766317142,211.12615880986777 177.2012411727046,211.0960189603884 177.89689706826175,211.02971113655076 181.04237106784421,211.00861314790745 181.45837791568192,211.02669713949945 181.66638133961533,211.12917279239082 181.81891718383122,211.1141028753609 181.93447464155906,211.02368314199703 182.83351166274224,210.99052914046297 185.08225979027338,210.98751513768912 185.41968756688584,211.0176551456825 185.5745345602336,210.98450113446233 187.7262144232809,210.97244511717145 188.1999999999971,211.00861314790745" stroke="#4dd2ff" stroke-linecap="round" stroke-linejoin="round" stroke-width="0.5"><title>2023-03-03 12.1km</title></polyline><polyline fill="none" points="44.20000000006985,245.37488551880233 44.17917737795506,241.89917411559145 34.85064267355483,241.79055708697706 29.37429305911064,242.1707164093532 28.978663239162415,242.76810805946297 29.249357326538302,251.21284825750627 28.832904884358868,253.19499856303446 29.270179948653094,254.38970908650663 29.2077120821923,257.64797148879734 27.250385604100302,258.0280983824341 26.60488431889098,257.7022753783531 26.209254498709925,252.46187694040418 24.98071979440283,252.1631969319278 24.959897172288038,250.3982598123839 23.856298200553283,248.8505319320393 23.169151670997962,248.5789993962535 22.044730077148415,248.95914483538945 19.96246786636766,247.98162642130046 17.81773778924253,248.41607968446624 17.380462725064717,247.0041028667183 15.298200514167547,246.4610320040374 14.735989717184566,245.5378078961512 14.631876606727019,243.60988394382002 13.632390745566227,243.79996184175252 13.091002570698038,244.66888689993357 12.04987146530766,244.94042514756438 11.820822622161359,245.45634672531742 12.403856041142717,247.38425152654236 13.923907455056906,248.30746646376792 14.007197943516076,249.93665810888342 16.401799485902302,249.80089268383745 17.193059126031585,250.07242343483085 17.297172236489132,256.1817604749813 18.067609254503623,256.77910709874413 19.067095115664415,256.91486742741836 20.17069408739917,256.073151791672 21.336760925478302,255.91023864774616 21.295115681365132,258.65259087744926 23.27326478145551,260.66181336774025 23.35655526991468,262.0193838381965 23.939588688896038,262.1551403400372 26.188431876595132,262.1551403400372 26.56323907454498,261.85647590523877 26.188431876595132,252.489029644712 25.022365038632415,252.1631969319278 24.959897172288038,250.42541281800368 23.60642673529219,248.76907221297733 21.982262210804038,248.93199161546363 20.00411311048083,247.98162642130046 17.9010282777017,248.44323297965457 17.401285347063094,247.08556335925823 15.423136246739887,246.70541408861754 14.777634961414151,245.99942052323604 14.569408740382642,243.63703794116736 13.632390745566227,243.79996184175252 12.98688946024049,244.75034841586603 11.800000000046566,245.3205780279386 12.34138817479834,247.38425152654236 13.819794344599359,248.38892638523248 14.09048843185883,250.01811731632915 15.818766066920944,249.80089268383745 17.151413881802,250.09957648800628 17.297172236489132,256.236064792829 19.067095115664415,256.91486742741836 20.129048843286,256.15460831011296 21.295115681365132,255.91023864774616 21.565809768624604,257.07777969093877 21.31593830336351,258.67974267750105 23.252442159457132,260.7161163769197 23.377377892145887,261.9922325259831 26.33419023139868,262.1279890476435 26.459125964087434,256.10030396841466 26.146786632481962,252.51618234501802 24.959897172288038,252.21750242376584 24.93907455005683,250.50687181130343 23.419023136259057,248.68761245821952 21.940616966690868,248.95914483538945 20.17069408739917,247.98162642130046 17.92185089981649,248.47038627085567 17.35964010283351,247.08556335925823 15.173264781595208,246.8140282452805 14.569408740382642,245.7007301307458 14.590231362497434,243.69134592394403 13.674035989679396,243.77280786825577 13.007712082355283,244.6960407425213 11.904113110620528,245.0218865445495 11.800000000046566,245.64642273500795 12.50796915171668,247.6014789831679 13.903084832942113,248.44323297965457 13.923907455056906,249.93665810888342 17.193059126031585,250.2624947244185 17.31799485872034,256.1817604749813 19.025449871551245,257.02347561897477 20.066580976941623,256.1274561412574 21.232647815020755,255.88308644323843 21.544987146626227,257.02347561897477 21.357583547593094,258.76119805374765 23.252442159457132,260.7161163769197 23.35655526991468,262.0193838381965 26.001028277678415,262.2094429130084 26.542416452546604,261.88362723737373 26.542416452546604,258.3810726591619 28.957840616931207,257.62081953811867 29.06195372750517,242.27933321587625 35.28791773784906,241.81771135001327 40.63933161960449,241.89917411559145" stroke="#4dd2ff" stroke-linecap="round" stroke-linejoin="round" stroke-width="0.5"><title>2023-03-01 10.1km</title></polyline><polyline fill="none" points="80.20000000006985,245.50429910837556 79.42419659742154,245.42442909482634 79.26086956530344,242.20297603907238 69.86956521740649,242.01660924381576 64.90850661636796,242.41596642883087 64.56143667304423,242.97506501771568 64.45935727795586,247.04844582306396 64.84725897933822,256.57926872254757 64.41852551989723,257.75062038667966 62.642344045452774,257.9902141178609 62.21361058601178,257.53764791678987 61.9277882798342,252.66583471138438 60.72325141786132,252.21325528947636 60.682419659919105,250.50941679776588 59.27372400765307,248.7789395259024 57.84461247641593,248.96529940613254 55.82344045373611,248.03349809917563 53.72060491493903,248.48608790045546 53.23062381870113,247.10169202822726 50.84196597349364,246.62247562236735 50.47448015131522,245.82377881239518 50.47448015131522,243.80039789488364 49.555765595519915,244.01338641774782 48.94328922498971,244.86533802015765 47.96332703216467,245.18481884431094 47.82041587901767,245.74390893890813 48.473724007606506,247.5809071740514 49.84158790181391,248.53933368554863 49.923251417814754,249.95034132205183 53.0672967863502,250.24319059464324 53.10812854440883,256.1266990180884 54.76181474479381,256.84548567088495 56.027599243912846,255.96696826579864 57.04839319479652,255.94034646017826 57.31379962200299,256.978593999258 57.04839319479652,258.3629148514883 59.049149338388816,260.62572437473864 59.11039697553497,261.8236709849152 61.70321361068636,262.0100175277621 62.33610586018767,261.66394522509654 61.948204158921726,252.69245699542807 60.74366729683243,252.18663293553982 60.31493383750785,249.97696400253335 59.17164461244829,248.7789395259024 57.824196597444825,249.04516786798195 55.864272211678326,248.11336696932267 53.80226843105629,248.5127107949811 53.291871455614455,247.1815613066865 51.08695652184542,246.88870711448544 50.51531190937385,245.79715552506968 50.47448015131522,243.90689218745683 49.596597353578545,244.04000996568357 49.10661625710782,244.81209116172977 48.06540642725304,245.1315720792045 47.800000000046566,245.6640390304383 48.534971644636244,247.740645275946 49.80075614375528,248.53933368554863 49.94366729678586,249.97696400253335 53.08771266543772,250.29643586643215 53.23062381870113,256.2331861084094 54.96597353508696,256.84548567088495 55.986767485854216,256.0202118654415 57.027977315708995,255.83385919868306 57.334215500974096,257.0318373033224 57.027977315708995,258.25642900541425 59.008317580330186,260.51923985056055 59.089981096447445,261.7438081225264 61.682797731715254,262.0366384469089 62.274858223157935,261.45097732768045 61.98903591686394,252.74570155159745 61.7644612477161,252.37298933141574 60.74366729683243,252.18663293553982 60.7028355387738,250.48279419497703 59.51871455588844,248.99192223059072 58.906238185358234,248.67244808013493 57.783364839386195,249.01854505122174 56.027599243912846,248.06012105973787 53.781852552085184,248.48608790045546 53.251039697555825,247.15493821771815 51.066540642874315,246.8354608472 50.57655954628717,245.82377881239518 50.47448015131522,243.8536450489628 49.596597353578545,244.04000996568357 49.045368619961664,244.89196144351445 47.881663516163826,245.3445590463234 48.3103969754884,247.34129975865653 49.84158790181391,248.48608790045546 49.98449905484449,250.00358667928958 53.10812854440883,250.2698132325022 53.291871455614455,256.2331861084094 54.84347826091107,256.84548567088495 56.08884688094258,255.9935900675191 57.06880907388404,255.83385919868306 57.334215500974096,256.978593999258 57.08922495273873,258.4161577513005 59.06956521747634,260.5724821204203 59.17164461244829,261.77042908051226 61.825708884745836,262.0366384469089 62.31568998110015,261.69056619481125 62.356521739275195,258.2298075341969 64.52060491510201,257.72399884156766 64.76559546322096,257.32467519798956 64.72476370516233,244.25299820849614 64.9901701323688,242.38934264371346 78.93421550106723,241.9633615530911" stroke="#4dd2ff" stroke-linecap="round" stroke-linejoin="round" stroke-width="0.5"><title>2023-02-22 10.2km</title></polyline><polyline fill="none" points="83.80000000000291,252.1971366436228 85.88609642301162,252.18399434209277 88.91950233280659,252.24313463849103 92.17713841368095,252.206993364729 92.44671850699524,252.23656350213605 93.31592534991796,252.13799622625993 98.76547433903033,251.85543430782127 99.56413685847656,251.91128985229625 100.01511664074496,251.86529117869577 101.80391912907362,251.85543430782127 102.72855365474243,251.9244323131934 105.76699844478571,251.7897217249465 108.49555209952814,251.7930073586558 108.88354587869253,251.80943551997188 109.02211508553592,251.92771792721942 109.23374805597996,251.91786108370616 109.40255054431327,251.80614988867273 110.58416796267556,251.76672227558083 113.17919129082293,251.7995786246247 113.39082426126697,251.76015100002041 115.63816485225107,251.7568653615108 116.19999999999709,251.81929241100988" stroke="#4dd2ff" stroke-linecap="round" stroke-linejoin="round" stroke-width="0.5"><title>2023-02-17 11.0km</title></polyline><polyline fill="none" points="119.80000000000291,252.06799214851162 120.23483976992429,252.07088537766322 120.27255546425295,252.19529383139525 120.78060805259156,252.15478883924516 126.17617091207649,252.1721481317345 126.81290057518345,252.21265308839065 127.9022185702488,252.16636170259517 128.106327033689,252.1981870419495 129.5106820049259,252.1981870419495 135.18356614626828,251.8683583161528 135.93566146261583,251.90886389414663 138.0188989317976,251.8683583161528 138.87970419062185,251.91754365008455 141.25357436318882,251.807599793814 142.46935086278245,251.83363918335453 143.66959737057914,251.80470652619624 144.09334428924194,251.83074591954573 144.22423993426492,251.92911665207612 144.40172555463505,251.920436901215 144.56589975349198,251.8133863277817 145.33574363187654,251.78734691160935 152.1999999999971,251.807599793814" stroke="#4dd2ff" stroke-linecap="round" stroke-linejoin="round" stroke-width="0.5"><title>2023-02-03 12.5km</title></polyline><polyline fill="none" points="188.20000000006985,245.54387813992798 187.39000000013039,245.41184308171796 187.02550000010524,242.03171275451314 172.6885000000475,242.3221951869491 172.42525000008754,242.92956603737548 172.78974999999627,249.82176184654236 172.40500000002794,253.65064597758465 172.76950000005309,255.47263822547393 172.48600000003353,257.3474226743856 172.141750000068,257.71709618650493 170.31924999994226,257.79631184067694 170.0154999999795,257.4530437550129 169.63075000001118,252.40956828008348 168.49675000004936,252.1191020566621 168.47649999998976,250.42910749955627 167.14000000001397,248.81831673174747 165.5807499999646,248.92394279559085 163.7784999998985,247.9997126442613 161.57125000003725,248.44862502226897 161.10550000006333,247.15469808509806 158.87799999990966,246.65296882166876 158.47299999999814,245.91357578989118 158.29075000004377,243.74819308491715 157.4605000000447,243.93304384064686 156.87324999994598,244.8572947839857 155.90124999999534,245.0421444055537 155.80000000004657,245.5702851399692 156.46825000003446,247.52439244074048 157.84525000001304,248.3429986806441 157.92625000001863,249.82176184654236 161.00425000011455,250.11223176126077 161.2067500000121,256.00074848790246 162.88750000006985,256.7665056281985 164.02150000003166,255.868721066945 165.1352500000503,255.84231557113526 165.0137500000419,258.2451998924953 167.0185000000056,260.3311944496818 167.09950000001118,261.65143173219985 169.4485000000568,261.8890734192537 170.0964999999851,261.49300376740575 169.75225000001956,252.51519224555523 168.49675000004936,252.03988391472376 168.51699999999255,250.56113889323024 167.90950000006706,249.58410429638752 166.9780000000028,248.63347097150108 165.6820000000298,248.9503493019729 163.7987499999581,247.9997126442613 161.67249999998603,248.44862502226897 161.02449999994133,247.04907098744297 159.18174999998882,246.94344382808777 158.53374999994412,245.9399827359448 158.37175000004936,243.74819308491715 157.5415000000503,243.93304384064686 157.11625000007916,244.69885210080247 156.04300000006333,245.0421444055537 155.80000000004657,245.54387813992798 156.48850000009406,247.57720585844072 157.84525000001304,248.4750315979618 157.94649999996182,249.87457459293364 160.98400000005495,249.9802000396885 161.2270000000717,256.0535594292887 162.86725000001024,256.7929109890101 164.18350000004284,255.78950456810708 165.0744999999879,255.73669354956655 164.9934999999823,258.27160503728373 166.9982500000624,260.35759928986954 167.0590000001248,261.6250270810706 169.20550000004005,261.9682872454723 169.97499999997672,261.70424102306424 170.1167500000447,261.30817096628016 170.05600000009872,254.99733767024009 169.69149999995716,252.35675627409364 168.63850000000093,252.1719141319336 168.33475000003818,250.08582542465592 167.09950000001118,248.71269060617487 165.702249999973,249.00316230297904 163.7987499999581,248.02611928561237 161.63200000009965,248.5014381699002 161.2270000000717,247.15469808509806 159.40449999994598,246.89063022525806 158.6552499999525,246.20405198441586 158.39199999999255,243.80100760587084 155.90124999999534,245.27980792699964 156.48850000009406,247.52439244074048 157.88575000013225,248.5014381699002 157.96675000002142,249.87457459293364 160.94350000005215,250.0594190841366 161.2270000000717,256.10637035527907 162.86725000001024,256.7665056281985 164.16325000009965,255.78950456810708 165.0744999999879,255.73669354956655 165.29724999994505,256.84572169899184 164.9934999999823,258.1923895912332 166.9780000000028,260.35759928986954 167.0387500000652,261.5986224260705 169.71175000001676,261.80985955827055 170.1977500000503,261.4137897329201 170.1370000001043,258.13957927469164 172.12150000000838,257.6642857310071 172.58725000009872,256.95134307262197 172.74924999999348,242.34860265765747 187.12675000005402,242.08452777695493" stroke="#4dd2ff" stroke-linecap="round" stroke-linejoin="round" stroke-width="0.5"><title>2023-01-30 10.2km</title></polyline></svg>