<?xml version="1.0" encoding="utf-8" ?>
<svg baseProfile="full" height="300mm" version="1.1" viewBox="0,0,200,300" width="200mm" xmlns="http://www.w3.org/2000/svg" xmlns:ev="http://www.w3.org/2001/xml-events" xmlns:xlink="http://www.w3.org/1999/xlink"><defs /><rect fill="#222222" height="300" width="200" x="0" y="0" /><text fill="#FFFFFF" style="font-size:12px; font-family:Arial; font-weight:bold;" x="10" y="20">Over 10km Runs</text><text fill="#FFFFFF" style="font-size:4px; font-family:Arial" x="10" y="280">ATHLETE</text><text fill="#FFFFFF" style="font-size:9px; font-family:Arial" x="10" y="290">chending</text><text fill="#FFFFFF" style="font-size:4px; font-family:Arial" x="120" y="280">STATISTICS</text><text fill="#FFFFFF" style="font-size:3px; font-family:Arial" x="120" y="285">Number: 32</text><text fill="#FFFFFF" style="font-size:3px; font-family:Arial" x="120" y="290">Weekly: 1.1</text><text fill="#FFFFFF" style="font-size:3px; font-family:Arial" x="141" y="285">Total: 354.0 km</text><text fill="#FFFFFF" style="font-size:3px; font-family:Arial" x="141" y="290">Avg: 11.1 km</text><text fill="#FFFFFF" style="font-size:3px; font-family:Arial" x="167" y="285">Min: 10.0 km</text><text fill="#FFFFFF" style="font-size:3px; font-family:Arial" x="167" y="290">Max: 16.1 km</text><polyline fill="none" points="38.82515406352468,31.714285714289872 38.07970211771317,31.825391521822894 37.88801447453443,35.63072623053449 37.142562528839335,35.852933202899294 35.48126962129027,37.630579631979344 30.64648128754925,37.79723313251452 31.072453828062862,39.24155735145905 31.2641414712416,56.267090864799684 31.093752455082722,57.79459275555564 30.710377168725245,58.211182050727075 28.665708974702284,58.10009166125383 28.261035061324947,52.628809667148744 27.04701332130935,52.37884886120446 27.004416067153215,50.573566616963944 25.577408056822605,48.76826723209524 23.9800110302167,49.04600671472144 22.06313459854573,47.99059452247457 19.80548013432417,48.54607535393734 19.145222696708515,46.96295070598717 17.164450383745134,47.10182181665732 16.482894319226034,45.90752695078845 16.3338039299706,43.51891471329145 15.354067087057047,43.74111246643588 14.736406903364696,44.62990088209335 13.54368379036896,45.157617038159515 13.820565941627137,48.46275333261292 15.56705335737206,48.296109180533676 15.971727270632982,49.99031792083406 19.081326815648936,50.156960587977665 19.209118577768095,56.40595518016198 20.849112858297303,57.155820730433334 23.170663203462027,56.07268065298558 23.49014260887634,57.10027523551253 23.2984549656976,58.79440553054155 25.321824532584287,61.07173722681182 25.385720413643867,62.293708844372304 28.410125450463966,62.488112695878954 28.64441034779884,57.73904744729225 28.261035061324947,52.712129862746224 27.089610575232655,52.37884886120446 27.04701332130935,50.60134031972848 26.30156137549784,49.57371061386948 25.470914921723306,48.71271928687929 24.001309657352977,48.99045885063242 22.148329106508754,47.96282043827523 19.69898699922487,48.46275333261292 19.230417204787955,47.0184991624119 16.994061367586255,46.740756718150806 16.4402970650699,45.85197816982691 16.355102557106875,43.54668944662262 15.332768460153602,43.713337761422736 14.92809454665985,44.46325337066082 13.799267314607278,44.796548247511964 13.47978790930938,45.35203841063776 13.777968687587418,48.40720529825194 15.545754730235785,48.351657247461844 15.886532762437128,50.01809170880006 18.54886114015244,50.01809170880006 19.017430934589356,50.3513768484554 19.166521323728375,56.378182325162925 20.785216977237724,57.155820730433334 22.127030479488894,56.267090864799684 23.213260457618162,56.183772226955625 23.49014260887634,57.32245711774158 23.191961830481887,58.62777043317328 25.194032770465128,61.01619287574431 25.385720413643867,62.37702480511507 27.85636114794761,62.54365661701013 28.68700760183856,62.182620840045274 28.303632315364666,52.65658306978003 27.04701332130935,52.26775506416743 27.068311948212795,50.65688771317946 26.450651764753275,49.71257981765666 25.42831766756717,48.65717132545251 23.937413776293397,48.90713702405628 22.105731852469034,47.93504635001591 19.76288288028445,48.40720529825194 19.251715831807815,46.99072493620042 17.10055450280197,46.79630523938977 16.41899843805004,45.685331729473546 16.3338039299706,43.51891471329145 15.354067087057047,43.68556305243692 14.736406903364696,44.51880255740252 13.5223851633491,45.12984254019102 13.735371433547698,48.212787049866165 15.56705335737206,48.351657247461844 15.822636881493963,49.99031792083406 18.9322364263935,50.21250811124628 19.230417204787955,56.43372803099919 20.891710112337023,57.155820730433334 21.99923871748615,56.32263660314493 23.106767322518863,56.04490774938313 23.49014260887634,57.23913894238649 23.234559084521607,58.766633024511975 25.257928651524708,61.09950939624105 25.343123159604147,62.293708844372304 27.96285428304691,62.57142857143481 28.750903482781723,62.07153277074394 29.98622385005001,60.127481052899384 30.15661286620889,58.32227237521147 31.178946963045746,57.65572945440363 31.32803735230118,42.10239793256915 40.80592637625523,41.68577334153815 40.74203049519565,41.26914783750544 38.441778777050786,41.40802310699655" stroke="#4dd2ff" stroke-linecap="round" stroke-linejoin="round" stroke-width="0.5"><title>2025-01-27 10.1km</title></polyline><polyline fill="none" points="70.81387493212242,31.714285714289872 70.1554707174655,31.766325868826243 70.81387493212242,34.83666806902329 72.84894250449724,37.880938157832134 73.28787864756305,37.620746166896424 71.47227914677933,39.31198731288896 67.14277264464181,39.31198731288896 67.8011768591823,41.65367930910725 67.50190221623052,42.876550669403514 67.48195057339035,58.27880723014823 65.28726985794492,58.356855814214214 64.92814028635621,53.12752506377001 63.85075157159008,52.971423278489965 63.77094500011299,51.25429461107706 62.53394314239267,49.66723672798253 60.858005141606554,49.719271636902704 59.14216385502368,48.83467611775268 56.94748313969467,49.250956909381784 56.508546996628866,47.95007620519027 54.2739629955031,47.45573904637422 53.874930138117634,46.77927544763952 53.7552202809602,44.6978328749974 52.85739635198843,44.82792374842393 52.33865363744553,45.60846699369722 51.141555065405555,46.23289912690234 51.42087806551717,49.30299193991232 53.05691278062295,49.250956909381784 53.35618742369115,50.812001212572795 56.26912728219759,50.968104890402174 56.42874042515177,56.76986121562368 58.104678425821476,57.49831950823136 59.10226056934334,56.639779064120376 60.21955256978981,56.5357132745703 60.498875570017844,57.5503521294595 60.25945585547015,58.95522715615516 62.13491028500721,61.08853471255861 62.17481357080396,62.28525703359628 65.20746328658424,62.38931946417142 65.34712478658184,56.22351554101624 65.04785014351364,53.335660564596765 63.85075157159008,52.893372334568994 63.87070321443025,51.25429461107706 62.633701356709935,49.719271636902704 62.055103713530116,49.43307944970729 60.93781171296723,49.74528908562206 59.16211549786385,48.83467611775268 56.96743478253484,49.276974426582456 56.528498639469035,47.9760939124244 54.63309256709181,47.767952148395125 54.09439820970874,47.221578860640875 53.79512356664054,44.6978328749974 52.8773479948286,44.85394191168598 52.23889542312827,45.634485042930464 51.161506708245724,46.076791298837634 51.34107149404008,49.12086926653865 53.05691278062295,49.30299193991232 53.29633249505423,50.812001212572795 56.22922399640083,50.94208762027847 56.42874042515177,56.7438447928871 57.98496856878046,57.49831950823136 59.22197042638436,56.639779064120376 60.19960092694964,56.50969681770948 60.45897228422109,57.60238473539357 60.17964928410947,58.98124325585377 62.13491028500721,61.062518920662114 62.17481357080396,62.25924141648284 64.56901071488392,62.57142857143481 65.24736657226458,62.20721017078904 65.34712478658184,61.21861361521587 65.04785014351364,53.335660564596765 64.82838207203895,52.945406300976174 63.81084828579333,52.893372334568994 63.91060650011059,51.28031183563871 62.57384642818943,49.61520180387015 61.99524878500961,49.43307944970729 60.91786007012706,49.74528908562206 59.16211549786385,48.80865853599971 56.94748313969467,49.250956909381784 56.58835356810596,47.9760939124244 54.63309256709181,47.68989892418904 54.01459163823165,47.06547189906996 53.7552202809602,44.67181468885974 52.777589780511335,44.87996007114998 52.13913720869459,45.68652113004646 51.121603422565386,46.154845229990315 51.34107149404008,49.22493938835396 52.99705785198603,49.250956909381784 53.33623578073457,50.78598391963169 56.12946578208357,50.94208762027847 56.42874042515177,56.7438447928871 57.98496856878046,57.49831950823136 59.10226056934334,56.6657955020346 60.11979435547255,56.45766389246273 60.498875570017844,57.57636843435466 60.2395042127464,59.033275443769526 62.11495864216704,61.08853471255861 62.17481357080396,62.25924141648284 64.80843042919878,62.54541299605626 66.64398157293908,60.07391601210111 66.74373978725635,58.591001361302915 67.68146700202487,57.9145800522092 67.82112850202248,43.318863774460624 76.02125372027513,43.006642873137025" stroke="#4dd2ff" stroke-linecap="round" stroke-linejoin="round" stroke-width="0.5"><title>2025-01-23 10.1km</title></polyline><polyline fill="none" points="110.97186031215824,31.714285714289872 110.53260393766686,32.86000990231696 111.56390151265077,37.34320444484183 111.46841099637095,38.14020446460927 109.02385378151666,40.05797049208195 105.81537243700586,39.80891118802538 105.08964451379143,40.082876402448164 105.73898002400529,41.95080931206758 105.70078381744679,43.220991999987746 105.28062554611824,43.220991999987746 105.52890088839922,44.83983857155545 105.29972364939749,46.78243416675832 105.81537243700586,52.112005849034176 105.54799899156205,54.30355707941635 105.91086295316927,55.997009190774406 104.55489762302022,58.71147822146304 102.1867328210501,58.761284588923445 101.40371058823075,53.85528752858227 100.31511870329268,53.631152311194455 100.33421680657193,52.03729337872937 99.11193819914479,50.34380193648394 97.62228614639025,50.66755895393726 95.86526064807549,49.646477041605976 93.76446929154918,50.14456654332753 93.24882050405722,48.67519832777907 91.58728552202228,48.57557968533365 91.03344052808825,47.92805709030654 90.8806557020871,45.61189844580076 89.96394674654584,45.83604420590564 89.5055922686588,46.558289650827646 88.43609848723281,46.98167348903371 88.8371586551657,49.9453309172095 90.4795955340378,49.9453309172095 90.53688984375913,51.14074118119606 90.84245949564502,51.33997541028657 93.49709584610537,51.43959243748395 93.64988067210652,57.01805307104951 95.27321944758296,57.71534781692026 96.32361512584612,56.96824619434483 97.25942218478303,56.81882547700661 97.37401080422569,59.383862954578944 99.03554578626063,61.10216744826175 99.32201733486727,62.4469154078688 101.7474764464423,62.54652594594518 102.12943851132877,62.09827806636167 101.76657454983797,53.656056238818564 100.79257128445897,53.43192075945262 100.63978645845782,51.81315577132045 99.3793116445886,50.21927984303329 97.94695390143897,50.31889752509596 96.1326340935193,49.497049907324254 94.20372566604055,49.84571301685355 93.57348825910594,48.57557968533365 91.77826655446552,48.500865665249876 91.16712725069374,47.52958042481623 91.05253863125108,45.48737289608107 90.25041829503607,45.68661373187206 88.53158900339622,47.1311028279888 88.89445296500344,49.920426447628415 90.40320312103722,49.895521974394796 90.46049743075855,51.06602828527684 90.80426328908652,51.364879672561074 93.53529205266386,51.4644966852502 93.66897877538577,57.06785993318772 95.1968270346988,57.7900577991968 96.28541891940404,57.04295650389395 97.31671649438795,56.918439303088235 97.35491270094644,59.35895986363175 99.11193819914479,61.226681593761896 99.26472302514594,62.4469154078688 101.51829920767341,62.521623316875775 102.12943851132877,62.17298612813465 101.7856726530008,53.83038363013475 100.67798266501632,53.35720886755735 100.46790352929384,51.514305169766885 99.18833061214536,50.11966210276296 97.96605200471822,50.3687063443067 96.18992840324063,49.42233629109978 94.2228237693198,49.87061749746499 93.55439015594311,48.57557968533365 91.91195327718742,48.500865665249876 91.20532345713582,47.55448524368694 91.10983294097241,45.53718312687124 90.25041829503607,45.63680354478129 89.73476950766053,46.43376479242579 88.6079814163968,46.98167348903371 88.76076624239795,49.72119055969233 88.91355106828269,49.970235383239924 90.42230122431647,49.920426447628415 90.65147846320178,51.33997541028657 93.51619394938461,51.489400929334806 93.66897877538577,57.06785993318772 95.21592513786163,57.765154475404415 96.2663208162412,57.01805307104951 97.22122597822454,56.86863239730883 97.58408993994817,57.88967105784104 97.31671649438795,59.184638124963385 99.15013440570328,61.226681593761896 99.26472302514594,62.39711011703184 101.7474764464423,62.57142857143481 102.14853661460802,62.24769415719493 102.11034040804952,59.03521934991295 103.94375831936486,58.58696223919105 104.42121090029832,58.16360721923411 104.4976033132989,44.441354687922285 104.9941539975116,44.09268052560219 109.65409118845128,43.968153866240755" stroke="#4dd2ff" stroke-linecap="round" stroke-linejoin="round" stroke-width="0.5"><title>2024-12-04 10.0km</title></polyline><polyline fill="none" points="145.9361962164403,62.34655594549986 147.09594271838432,61.79186802199547 147.6011788182659,61.76188480538258 148.634616295225,59.72300546273618 148.795373236062,54.40073927760386 147.69303992728237,52.73653726226621 147.58969617960975,51.98688787226274 147.89972742268583,51.342185003981285 149.11688711773604,50.26267343106156 149.22023086546687,49.31809146160231 148.3819982452551,47.92369261580461 148.2671718589263,47.144020461324544 144.684588605538,45.56966434531205 142.26175185403554,45.59965230720991 140.47046022728318,45.97450108902558 139.75853663205635,44.984897331829416 139.67815816163784,43.995284002347034 139.8848456569831,42.42087943111255 140.29822064779,41.92606156176771 140.17191162280506,39.85679726774106 140.33266856364207,39.57189528254821 140.73456091585103,39.45193631454458 149.20874822686892,38.25233889786614 150.15032459475333,37.952437345731596 150.31108153553214,37.47259303356259 149.58767530170735,35.35825222401763 148.55423782474827,34.39853701098764 147.09594271838432,34.608475483211805 145.69506080524297,35.10332874875894 144.24824833747698,34.698448982293485 141.58427617466077,33.01893061729788 140.91828313394217,32.26913672955561 139.2188526163227,31.714285714282596 130.87097433028976,32.19415703849518 129.09116534225177,32.68902198380238 126.473123734002,32.64403436041175 124.4177314186818,33.15389293338376 123.3613286644686,34.05363715690328 122.85609256464522,34.84840463820001 122.54606132156914,36.31795843321743 123.1431585305254,37.12770354389795 123.63691199169261,38.732179552549496 127.17356469057268,38.312319102806214 132.0536861094879,38.342309192041284 133.73015134985326,39.04707375905127 133.86794301343616,39.48192606971861 133.7186687112553,40.57654611732141 133.9138735680026,41.10135979441111 135.303272842546,41.70114355730766 136.2218839331763,42.69077907834435 137.34718251915183,42.81073424856004 138.47248110518558,42.315918264881475 139.7470539934584,42.375896087352885 139.89632829569746,42.750756681052735 139.66667552303988,43.95030135082925 139.78150190931046,45.104849812232715 139.14995678450214,46.064464592316654 137.95576236670604,46.03447676667565 136.33671031950507,45.62964026029658 135.0506547926343,45.824561741086654 132.54743957071332,47.99866077906336 129.8030889374786,48.823306949627295 128.73520354466746,49.542992721479095 127.51804384955904,50.62251188756636 127.12763413606444,51.282212437618 127.01280774967745,52.28674828737712 127.38025218591793,53.396224182222795 127.75917926087277,53.890986581056495 129.55047088756692,54.985452478853404 130.45759933954105,55.899997196145705 131.915894445905,56.304793067858554 132.8574708137894,56.87450306327082 133.95980412251083,59.03337531451689 134.93582840630552,60.052826934173936 137.74907487130258,59.88791633133951 139.9078109342954,60.637507839091995 141.2168317384203,60.54755714806379 142.5488178198575,59.947883853994426 144.5467969419551,60.08281065160554 145.3276163689443,60.33767189489299 145.56875178025803,60.937342904740945 144.9946198486141,61.61196859032498 145.04055040318053,62.256606756782276 144.13342195108999,62.57142857142753" stroke="#4dd2ff" stroke-linecap="round" stroke-linejoin="round" stroke-width="0.5"><title>2024-11-24 10.6km</title></polyline><polyline fill="none" points="181.47174981416902,62.076226823999605 181.95448963035597,62.57142857142753 183.98889314109692,61.851134329153865 185.0003479940351,60.005357213631214 185.18424887635047,54.482833552145166 184.1268188029062,52.87704389192368 183.95441172574647,52.156681471409684 184.29922588012414,51.40629856217129 185.47159400500823,50.41578470358945 185.63250727707054,49.47028526558279 184.77047189115547,47.984482798063254 184.66702764481306,47.24907764211821 181.04647902370198,45.58314030835754 178.62128613790264,45.64317455685523 176.88572156085866,46.00337930879323 176.1845994470059,45.02782184135867 176.0811552006635,44.112290226439654 176.32252510869876,43.30181278641248 176.2880436932901,42.44630186296854 176.69032687332947,41.98102099177777 176.56389501673402,39.879726208455395 176.9546843917342,39.54951882216119 186.574999299075,37.92848529944604 186.74740637623472,37.65831055070885 186.39109841670142,36.11229688907042 185.78192674397724,35.12163508734375 185.17275507119484,34.53623951744521 184.747484280786,34.43116816347174 182.25332856411114,35.10662498631427 181.3108365421067,34.92650360258267 179.55228435475146,34.19100466377131 177.33397996157873,32.31470793066546 175.54094635875663,31.714285714282596 167.11598718661116,32.239655346173095 165.77121198456734,32.67495957041683 163.17361202155007,32.67495957041683 160.90933240775485,33.17030350551795 159.64501384168398,34.266055817926826 159.16227402549703,35.09161488308018 158.96687933808425,36.12730684268172 160.0702846320928,38.76902440347476 164.2080544846831,38.333746085947496 168.58719424536685,38.40879420372221 170.12736413499806,39.12925333594467 170.08138891437557,40.58516569370113 170.28827740700217,41.155517469240294 170.73653580766404,41.48571967679163 171.6445464142016,41.71085693517671 172.62151985161472,42.76149092947162 173.72492514568148,42.86655373602116 174.85131804994307,42.3412386252312 176.20758705725893,42.476319911111204 176.31103130354313,42.83653580225655 176.0926490057609,44.037246288462484 176.20758705725893,45.147890954234754 175.56393396906788,46.10843878942978 174.58696053165477,46.09343029882439 172.5640508258948,45.62816599805228 171.5870773884817,45.82327709116362 170.88595527457073,46.21349816232396 169.28831635927781,47.86441701082367 168.40329336299328,48.32967115213978 165.9091376463184,49.0200443699141 164.0126597972121,50.595878844949766 163.57589520164765,51.196190362366906 163.40348812448792,52.141673867088684 163.93220316118095,53.68744555880403 164.95515181921655,54.55786983643338 166.21947038528742,55.233193921347265 166.94358010950964,55.9685417497094 168.43777477846015,56.43375907781592 169.34578538499773,57.004022597415315 170.32275882241083,59.04493970487965 171.29973225988215,60.12540876906132 174.23065257212147,59.93032492006023 176.5524012116366,60.7256644355075 177.6213250902365,60.60561358361883 178.8511622408405,59.97534430278756 181.34531795751536,60.26046660065185 181.85104538395535,60.51557535239408 181.96598343545338,61.01078464481543 180.82809672597796,62.46638597657875" stroke="#4dd2ff" stroke-linecap="round" stroke-linejoin="round" stroke-width="0.5"><title>2024-11-16 10.6km</title></polyline><polyline fill="none" points="11.714285714289872,81.60083052693335 21.138968451414257,81.63616532532797 26.91028830673895,81.30637146458139 27.65992766196723,81.3446513859617 29.669503041965072,81.30931607649654 30.477849093673285,81.368208224525 32.87804980033252,81.25042375640442 34.30507411509461,81.27398070508934 35.499529593769694,81.24158989354146 35.984988814772805,81.26220223418386 36.14304530534719,81.368208224525 36.34626079320151,81.3446513859617 36.468190085928654,81.26514685256006 37.43910852794943,81.23275602681679 38.32648282495211,81.22686678017817 38.38067362170841,81.25925761538565 38.51840856348281,81.22392215620857 39.83479333485593,81.25042375640442 41.957266208104556,81.22097753181515 42.50369007547852,81.22981140371485 42.571428571420256,81.26220223418386" stroke="#4dd2ff" stroke-linecap="round" stroke-linejoin="round" stroke-width="0.5"><title>2024-10-12 11.7km</title></polyline><polyline fill="none" points="75.48762608203106,66.30417201489036 75.33920369308908,70.28601512307068 74.57588855002541,70.45192343453527 72.75241348613054,72.27690526288643 68.70260258845519,71.97274284684681 68.13011623115744,72.27690526288643 68.89343137422111,75.65031019430899 68.57538339798339,76.23097219096962 68.87222817586735,90.11102874422795 68.78741538210306,92.01876572227047 68.34214821539354,92.54408122423047 66.28543796890881,92.40584044401476 65.92498359584715,87.04202021824312 64.73760448442772,86.68258353228157 64.65279169077985,84.77479277318344 63.29578699206468,83.0881791318825 61.76915670593735,83.25407622203056 59.79725925321691,82.2863411463768 57.50731382414233,82.7010853561078 56.91362426849082,81.31860112298455 54.9841332124779,81.06975288875401 54.220818069414236,79.85315681141219 54.093598878826015,77.88999665131269 53.097048553288914,78.08354855784273 52.43974940245971,78.94070462169475 51.315979886217974,79.43840636136883 51.48560547363013,82.72873493780207 53.30908053740859,82.75638451540726 53.58472211693879,84.3877024466783 56.70159228425473,84.58124770890572 56.892421070020646,90.74694320648268 58.54627054661978,91.41050384604023 59.8608688483946,90.63634954049485 61.0058415629901,90.49810736696236 60.963435166166164,93.23528361116769 62.63848784111906,95.00475022096361 62.977739015826955,96.49772480764659 66.20062517526094,96.69125768833328 65.90378039737698,87.12496704891964 65.67054521478713,86.7102325323358 64.69519808760379,86.57198749153758 64.71640128595755,84.94068838514795 63.42300618253648,83.19877720813383 62.87172302370891,82.9222818963608 61.66314071393572,83.22642671706853 59.77605605474673,82.31399078866525 57.44370422884822,82.7010853561078 56.956030665314756,81.40155046175641 55.00533641083166,81.20800194809271 54.5176628472982,80.76560460250766 54.093598878826015,79.90845680267375 54.00878608529456,77.88999665131269 53.097048553288914,78.02824803326803 51.23116709268652,79.68725674044981 51.421995878452435,82.72873493780207 53.266674140584655,82.81168365853955 53.266674140584655,84.05591010807257 53.69073810894042,84.4153517819359 56.659185887430795,84.55359839783341 56.892421070020646,90.8022400153859 58.525067348149605,91.49344876249961 59.98808803898282,90.58105268320651 60.94223196769599,90.58105268320651 60.92102876934223,93.23528361116769 62.53247184900101,94.94945463970362 62.998942214180715,96.6083150494087 65.58573242113926,96.85714285714494 66.20062517526094,96.49772480764659 65.8825771989068,87.01437126666133 64.73760448442772,86.51668944700214 64.65279169077985,84.77479277318344 63.083755007828586,83.03288006951334 61.64193751546554,83.30937521978922 59.54282087215688,82.31399078866525 57.401297832024284,82.75638451540726 56.892421070020646,81.3462509066303 54.856914022006094,81.18035214433621 54.136005275766365,80.12965660651389 54.051192482118495,77.88999665131269 53.05464215646498,78.11119881401828 52.43974940245971,78.94070462169475 51.20996389409993,79.49370647387695 51.421995878452435,82.7010853561078 53.20306454540696,82.75638451540726 53.58472211693879,84.3877024466783 56.659185887430795,84.49829976356705 56.828811474726535,90.71929479604296 58.525067348149605,91.46580046103918 59.60643046745099,90.6916463815869 60.8574191739317,90.49810736696236 61.111857555108145,91.5210970598855 60.77260638040025,92.87585868497263 62.51126865064725,94.94945463970362 62.998942214180715,96.6083150494087 66.00979638937861,96.77420029084897 67.64244266762398,94.4517936821212 67.74845865974203,92.6823219035723 68.78741538210306,91.79757981159491 68.97824416786898,76.20332166008302 68.13011623115744,72.13864967976406 69.80516890622675,72.11099855105567 75.93289324874058,66.0" stroke="#4dd2ff" stroke-linecap="round" stroke-linejoin="round" stroke-width="0.5"><title>2024-09-17 10.1km</title></polyline><polyline fill="none" points="84.57142857142753,81.59225777575557 93.60264167649439,81.60784678704294 96.08507969303173,81.43636691126812 98.73686540731433,81.31684965640125 99.23096221958986,81.35062635332906 101.20734946870652,81.3220460754892 101.73531582053693,81.3688137789486 103.7595188901978,81.27268003285826 106.0188164108622,81.26488538201738 106.1742178276254,81.29346575171985 106.39337367178086,81.26488538201738 106.61252951592905,81.28307289532859 106.7619539551306,81.37141198109566 106.9093860684734,81.35842096659144 107.01099468712346,81.28047468027762 107.75612455725786,81.24929607009835 115.42857142856519,81.25968894623293" stroke="#4dd2ff" stroke-linecap="round" stroke-linejoin="round" stroke-width="0.5"><title>2024-09-14 13.3km</title></polyline><polyline fill="none" points="147.41474007023498,66.0 146.71988837840036,66.97967913687171 146.88890635746066,67.98384430989972 146.53209062374663,69.23291942270589 147.02036478568334,71.29019931892981 146.13771533919498,71.55960315000266 144.20339846727438,74.42505346846883 140.56012202892452,74.2046359521919 141.06717596610542,75.52713670274534 140.78547933441587,76.65370318690839 140.59768157976214,87.94344051057124 141.31131304707378,91.077983271025 140.91693776252214,92.84113782054919 139.33943662431557,93.06153083546087 138.7572635852266,92.81664968992118 138.53190627973527,88.16383996383229 137.4614590787096,87.6740630074346 137.4802388541866,86.2781908318284 136.1468747969484,84.73537122127891 134.77595118852332,84.66190326666401 132.87919386755675,83.92722194934322 130.92609722015914,84.22109486264526 130.41904328297824,83.04560011879948 128.71008371631615,82.92315227560175 128.18425000365824,82.33540138350509 127.86499382089823,80.00886721389543 127.1701421290636,80.13131718564546 125.44240278704092,81.67417916683189 125.7053196436027,84.31905238585023 127.28282078180928,84.36803112612688 127.30160055728629,85.44555978970311 127.69597584183794,85.81289752392331 130.32514440559316,85.88636497412517 130.49416238465346,91.44530866456626 131.94020509475376,92.13098057934258 133.02943207125645,91.24940188815526 133.9308612931054,91.12696003667952 134.28767702670302,92.1064923449303 134.04353994585108,93.40436383850465 135.73371973680332,95.338908359583 135.846398389549,96.63675483137195 138.40044785151258,96.85714285714494 138.7572635852266,96.5388045048021 138.81360291154124,95.70622441808518 138.6258051568875,89.14338958420558 138.38166807603557,87.91895166449831 137.40511975239497,87.62508523315773 137.34878042596392,86.03329977809335 135.8839579403866,84.58843527977297 134.75717141316272,84.73537122127891 132.93553319387138,83.95171137842408 130.98243654659018,84.22109486264526 130.56928148656152,83.09457923096488 128.87910169549286,82.84968352680153 128.22180955449585,82.26193237712141 127.95889269816689,80.03335721536132 127.05746347620152,80.20478712575277 125.49874211347196,81.62519963968953 125.74287919444032,84.36803112612688 127.30160055728629,84.34354175778572 127.58329718897585,85.81289752392331 130.28758485463914,85.91085411711538 130.49416238465346,91.44530866456626 131.94020509475376,92.08200410698191 132.99187252030242,91.27389024775766 133.96842084394302,91.17593678807316 134.268897251226,92.15546881016053 134.06231972121168,93.4778279622551 135.80883883859497,95.46134713514766 135.95907704229467,96.6122672551137 138.85116246249527,96.63675483137195 138.85116246249527,90.78412237677549 138.53190627973527,88.26179518343997 137.4614590787096,87.62508523315773 137.23610177321825,85.9843215244764 135.90273771586362,84.56394594367885 134.64449276041705,84.73537122127891 133.08577139757108,83.97620080399793 131.00121632195078,84.31905238585023 130.43782305833884,83.0700896766648 128.67252416547853,83.04560011879948 128.05279157543555,82.01703545656346 127.95889269816689,80.05784721333475 127.11380280263256,80.2292770986387 126.55040953902062,80.98846448377299 125.49874211347196,81.45377118172473 125.76165896991733,84.36803112612688 127.30160055728629,84.36803112612688 127.37671965896152,85.54351659757958 127.69597584183794,85.81289752392331 130.3627039565472,86.05778889956127 130.45660283381585,91.44530866456626 131.9965444211848,92.13098057934258 133.34868825401645,91.20042515834211 134.00598039489705,91.20042515834211 134.2501174758654,92.15546881016053 134.02476017037407,93.40436383850465 135.79005906311795,95.46134713514766 135.90273771586362,96.6122672551137 138.2877691987669,96.85714285714494 140.25964562152512,94.72671314049512 140.16574674437288,93.13499510943075 141.06717596610542,92.62074451580702 141.06717596610542,79.02926421978918 141.61178945447318,78.56395079228969 146.79500748007558,78.56395079228969 146.9452456838917,77.68230075619067 146.28795354289468,77.21698358994036 146.85134680650663,76.1883831655141 146.6447692764923,76.11491146514891" stroke="#4dd2ff" stroke-linecap="round" stroke-linejoin="round" stroke-width="0.5"><title>2024-08-08 10.1km</title></polyline><polyline fill="none" points="183.52664160204586,66.0 183.06194217933808,66.41211277108232 183.5452295789728,71.2846626399114 183.37793778686319,73.46635500720004 182.74594657192938,73.66028182933223 181.09161662717815,75.28441006640787 177.4111971994862,75.09048514254391 177.05802563822363,75.30865066598926 177.7271928068949,77.58725121103635 177.4669611301506,78.67805954536016 177.42978517629672,88.68892114156915 177.74578078382183,90.67647797848622 177.48554910707753,92.97910552438407 175.42228367039934,93.07605756221164 175.0319361552829,88.20414757011167 173.99100944842212,87.91328274740954 173.89806956402026,86.31351710938907 172.72702701878734,84.88341052846226 171.29575279692654,84.98036729638989 169.56707094435114,84.15623296385456 167.61533336923458,84.47134363313671 167.18780990026426,83.30785511074646 165.44054007099476,83.18665792058164 164.92007671750616,82.62914970527345 164.64125706395134,80.27789879785269 163.93491394154262,80.37485825673502 163.28433474968188,81.17477163116564 162.22482006601058,81.68380540711223 162.48505174263846,84.54406139485945 163.99067787220702,84.42286510755366 164.06502977979835,85.70754124944506 164.39961336413398,85.94993185905332 167.07628203893546,86.07112703098392 167.1506339465268,91.50057992928487 167.85697706905194,92.03382018728007 168.7491999604972,92.15501091603073 169.6971867828397,91.37938872263476 170.5894096744014,91.28243569355982 170.9054052818101,92.20348718277819 170.7009375358466,93.63353068042488 172.4482073651161,95.49984009908803 172.5411472497508,96.61476817878429 175.2549918781733,96.73595556223881 175.44087164732628,91.83991483715363 175.0877000859473,88.27686369603907 173.99100944842212,87.91328274740954 174.028185402276,86.45895098653273 173.3404302566778,85.41667205057456 172.57832320348825,84.68949682284438 171.332928750664,84.9561281096976 169.73436273657717,84.15623296385456 167.59674539230764,84.51982214453164 167.2063978771912,83.25937624527432 165.16172041743994,82.94426327444671 164.7713729023235,82.2413167986233 164.65984504087828,80.25365892422269 163.7676221493166,80.42333796501043 162.16905613522977,81.8534829854616 162.46646376582794,84.51982214453164 163.95350191835314,84.42286510755366 164.0278538260609,85.63482399756322 164.41820134117734,85.97417090050294 167.0019301312277,85.99840993835824 167.09487001574598,91.42786521595553 168.5819081683876,92.17924905118707 169.82730262121186,91.28243569355982 170.6451736050658,91.2581974274508 170.9054052818101,92.2277253108332 170.73811348970048,93.80319604034594 172.3924434343353,95.42712713807123 172.6526751110796,96.71171809259977 175.01334817847237,96.80866794977919 175.38510771654546,96.39663066569483 175.12487603991758,88.27686369603907 174.90182031691074,87.96176025329623 174.028185402276,87.86480522740749 174.04677337920293,86.33775609779696 173.67501384101342,85.73178032629949 172.48538331885356,84.66525759373326 171.25857684307266,84.9076497257629 169.66001082910225,84.13199365683249 167.59674539230764,84.47134363313671 167.18780990026426,83.21089736568683 165.143132440513,82.92002379038604 164.7713729023235,82.12011882933439 164.67843301780522,80.22941904711479 163.84197405690793,80.32637853440247 163.3400986804627,81.07781263970537 162.28058399667498,81.51412765531859 162.3921118581202,84.20471156730491 162.5036397195654,84.54406139485945 164.0278538260609,84.51982214453164 164.2509095489513,85.90145376540022 166.9461662005633,85.97417090050294 167.18780990026426,91.54905638720084 168.5819081683876,92.15501091603073 169.6971867828397,91.40362697107776 170.60799765132833,91.23395915782021 170.92399325873703,92.17924905118707 170.6451736050658,93.53657896835648 172.42961938818917,95.49984009908803 172.50397129589692,96.61476817878429 175.05052413220983,96.85714285714494 175.38510771654546,96.63900566252414 175.5152235548012,93.31843740896147 177.57848899171222,92.7852012788644 177.6342529222602,79.18710098073643 178.09895234496798,78.79926002878346 183.21064599463716,78.62957932721474" stroke="#4dd2ff" stroke-linecap="round" stroke-linejoin="round" stroke-width="0.5"><title>2024-07-03 10.1km</title></polyline><polyline fill="none" points="11.714285714282596,115.89674174033826 15.62293058600335,115.87375540232279 16.493232008971972,115.90536161016826 18.053164686069067,115.88812186673204 18.71635640331806,115.93409448232887 21.728260315176158,115.90823489927789 22.32755648492457,115.84502244201212 27.29378283265396,115.57780390065454 28.027479981632496,115.61228391646 29.89146733308735,115.58067723761815 30.797021471917105,115.63527056007479 32.74693731829757,115.5404504819926 35.73460498800705,115.51746372754678 36.1642474626351,115.53757713916093 36.285428673429124,115.62665057186678 36.468302136985585,115.63527056007479 36.61151629520464,115.5404504819926 37.41571887591272,115.51459038135908 40.34830417707417,115.50022364409051 40.78014994644764,115.5404504819926 41.08420462079812,115.4944769462436 42.053654307128454,115.4944769462436 42.571428571420256,115.54332382440589" stroke="#4dd2ff" stroke-linecap="round" stroke-linejoin="round" stroke-width="0.5"><title>2024-04-12 12.0km</title></polyline><polyline fill="none" points="48.142857142855064,115.87925505797466 52.075456189370016,115.87636089278931 55.47098471148638,115.93713827283136 55.843827059012256,115.89951420241232 58.07866184448358,115.91398500718242 58.70228505671548,115.84163087762317 60.65748808153148,115.75769975626645 61.20565510437882,115.68823924898425 63.564770672353916,115.5811538230937 64.37703435803996,115.61588429491894 66.54972875224485,115.58694223929342 67.12230807167361,115.63324950799142 68.57373006739363,115.58694223929342 68.94879171460343,115.54063486234736 72.25332894953317,115.52326956808429 72.54849580799055,115.53484643262709 72.66611869142798,115.64482630826205 72.88361006081686,115.63035530687193 73.04339963833627,115.53774064769823 73.78464573400561,115.50879847791111 76.74519151732966,115.49432737715688 76.96046358704916,115.52616378485618 77.95249054742453,115.4914331557411 78.99999999998545,115.52616378485618" stroke="#4dd2ff" stroke-linecap="round" stroke-linejoin="round" stroke-width="0.5"><title>2024-04-03 11.9km</title></polyline><polyline fill="none" points="112.41519150184467,100.28571428571013 108.78082988690585,100.28571428571013 109.92154192668386,104.85227141524956 109.89501373970415,107.17011141745024 109.36445000034291,107.96578260540264 109.70931643096264,110.17981010270887 109.44403456128202,119.83134442838491 109.84195736562833,122.32199911431235 109.36445000034291,125.71201479293813 106.39329305966385,125.71201479293813 106.02189844206441,118.79356391176407 104.37715085002128,118.34385760901205 104.37715085002128,116.19909272428777 102.59976232296322,114.05430841569614 100.68973286123946,114.26186903644702 98.16955509909894,113.05109618422284 95.43715184123721,113.60459311342856 94.56172167137265,111.73653579295205 92.57210764859337,111.70194199976686 91.8293184133945,111.25222223023593 91.27222648705356,110.21440411807271 91.03347280435264,107.51605574075074 89.91928895155434,107.75821646627446 89.25608427741099,108.76145112009544 87.66439305921085,109.59171106762369 87.92967492877506,113.7429671434511 90.10498626029585,113.46621900229366 90.6355499997735,115.61100863707543 94.53519348427653,115.68019507617282 94.64130623219535,123.56731663491519 96.68397662881762,124.53589240157453 99.54902082157787,123.04843513040396 99.94694362604059,124.67426004486333 99.62860538240056,127.06108916751691 102.2548958924599,129.13657319996855 102.30795226630289,130.83153833461984 106.18106756394263,131.00449327866954 106.36676487268414,122.04526099826035 105.94231388124172,118.86274942102318 104.45673541096039,118.4130432495731 104.13839716720395,115.74938149481022 102.2283677054802,113.88134109278326 100.68973286123946,114.19268218307116 98.19608328607865,113.01650258316658 95.4902082150802,113.53540606790921 94.50866529729683,111.77112958091311 92.06807209621184,111.52897295885487 91.29875467403326,110.21440411807271 91.03347280435264,107.51605574075074 89.89276076457463,107.75821646627446 89.17649971647188,108.79604534272221 87.58480849827174,109.66089926530549 87.95620311587118,113.5699995932082 90.18457082123496,113.53540606790921 90.13151444727555,115.29966941135353 90.6090218127938,115.64560185912705 94.50866529729683,115.9223474534956 94.58824985811953,123.56731663491519 96.81661756371614,124.46670854956028 98.72664702543989,123.29057997398195 99.65513356938027,123.29057997398195 100.0265281869797,124.60507623339072 99.68166175635997,126.57680694280134 102.2283677054802,129.24034692413989 102.28142407932319,130.90072032737953 106.36676487268414,130.96990229995572 105.99537025508471,119.07030582755397 105.62397563760169,118.51682167260151 104.45673541096039,118.48222886997974 104.45673541096039,116.30287211759423 102.62629051005933,114.01971496127953 100.61014830030035,114.19268218307116 98.19608328607865,113.01650258316658 95.33103909343481,113.50081253766257 94.80047535395715,111.84031714167213 91.8293184133945,111.35600379137031 90.92736005643383,107.41227249687654 89.78664801665582,107.68902771285502 89.22955609031487,108.72685689249192 87.71744943305384,109.45333461189875 87.82356218108907,113.18947053779266 88.11537223763298,113.63918662849755 90.21109900821466,113.63918662849755 90.18457082123496,115.12670299808087 90.6090218127938,115.68019507617282 94.53519348427653,115.85316108516417 94.58824985811953,123.53272456993 95.3045109064551,124.18997293965367 96.84314575057942,124.43211661605164 98.30219603399746,123.35976416952326 99.73471813031938,123.1868036427768 99.81430269125849,126.9573144884489 102.12225495756138,129.1711644463794 102.28142407932319,130.79694733071665 102.75893144484144,131.1082661843684 105.91578569426201,131.14285714285506 106.44634943362325,130.58940120098123 105.968842068105,119.10489854423213 104.45673541096039,118.4130432495731 104.45673541096039,116.33746523851005 102.86504419276025,114.26186903644702 102.12225495756138,113.8121541282162 100.55709192645736,114.19268218307116 98.24913966003805,113.08568978022959 95.43715184123721,113.53540606790921 94.72089079301804,111.84031714167213 91.8293184133945,111.2176283664885 91.27222648705356,110.17981010270887 91.13958555215504,107.51605574075074 89.78664801665582,107.68902771285502 89.22955609031487,108.76145112009544 87.61133668525144,109.59171106762369 87.92967492877506,113.46621900229366 90.15804263437167,113.5699995932082 90.5824936258141,115.64560185912705 94.37602436239831,115.78397469670745 94.64130623219535,118.06711484426341" stroke="#4dd2ff" stroke-linecap="round" stroke-linejoin="round" stroke-width="0.5"><title>2023-09-29 10.1km</title></polyline><polyline fill="none" points="148.81351071607787,100.59499303718621 145.99396070814691,100.28571428571013 145.1243798644282,100.59499303718621 145.75680229614954,103.8252134713548 145.88855696923565,109.25463298274553 145.5459948189091,119.3915048931085 145.83585510018747,125.23289371169813 145.30883640702814,125.81702461621899 142.83184854954015,125.81702461621899 142.27847892174032,118.94480448398099 140.85552845045459,118.46374155633384 140.75012471177615,116.33330819416733 138.90555928612594,114.03104399892618 136.92923918704037,114.23721783049405 134.5840060027549,113.17198442239896 131.73810506006703,113.68742054481118 131.23743730178103,112.03802097767766 128.73409850953612,111.62566927875741 127.78546486189589,110.62914968900441 127.54830645013135,107.60520233340503 126.36251439061016,107.77701856567 125.7037410242483,108.80791332399531 124.04363214108162,109.6669888379256 124.30714148760308,113.61869579374616 126.62602373713162,113.584333410603 126.99493682233151,115.68042959184095 130.89487515110523,115.8522399260255 131.05298075906467,123.6522969334037 133.00294992350973,124.5113182390487 134.66305880667642,123.37740945309633 135.92790367011912,123.13688264436496 136.34951862460002,124.61440058499284 136.03330740879755,126.64167754167283 138.53664620092604,129.2530594016862 138.61569900473114,130.73053893036558 142.35753172577824,131.074137490883 142.75279574561864,130.66181915803463 142.75279574561864,126.19499089931196 142.30482985638082,119.0478892691026 140.82917751581408,118.49810322656413 140.80282658117358,116.36767017563398 139.06366489396896,114.16849324006762 136.98194105620496,114.23721783049405 134.5313041334739,113.10325952072162 131.79080692934804,113.584333410603 131.13203356298618,112.00365836365381 128.2334307511337,111.21331685710174 127.70641205809079,110.18243264043122 127.49560458073393,107.60520233340503 126.25711065204814,107.77701856567 125.6510391549673,108.84227640474273 124.12268494500313,109.49517398620083 124.20173774892464,113.37815900688292 124.4388961608056,113.72178291274759 126.5469709332101,113.584333410603 126.81048027984798,115.57734333105327 130.84217328182422,115.88660197779245 130.86852421658114,123.41177040574257 133.16105553135276,124.58003980804642 134.5840060027549,123.41177040574257 136.00695647404063,123.27432656520978 136.11236021271907,127.01964249977027 138.51029526628554,129.21869930227695 138.53664620092604,130.6961790467758 138.95826115540694,130.93669812694134 142.06767144449987,131.14285714285506 142.80549761489965,130.24950010259636 142.33118079113774,119.0478892691026 140.80282658117358,118.46374155633384 140.80282658117358,116.33330819416733 139.77514012961183,114.8901004382642 138.77380461269058,113.99668167615891 136.95559012156446,114.37466695117473 134.5840060027549,113.13762197407777 131.71175412542652,113.68742054481118 131.34284104034305,112.03802097767766 128.2070798163768,111.2820423108351 127.65371018857695,110.25115839543287 127.49560458073393,107.67392884142464 126.30981252121273,107.8457450233982 125.6510391549673,108.80791332399531 124.20173774892464,109.32335900882026 124.17538681428414,113.51560862941551 126.5206199985696,113.54997102255584 126.5469709332101,115.30244641497848 127.04763869161252,115.71479166878271 130.86852421658114,115.81787786920904 130.89487515110523,123.41177040574257 133.10835366207175,124.58003980804642 134.6367078720359,123.41177040574257 135.95425460475963,123.17124363213952 136.34951862460002,124.5456790260796 135.95425460475963,126.5042355881451 138.58934807020705,129.3217795855744 138.64204993948806,130.90233827337215 142.09402237914037,131.14285714285506 142.72644481097814,130.6961790467758 142.33118079113774,118.91044287894329 140.82917751581408,118.46374155633384 140.72377377713565,116.26458421607094 138.87920835136902,114.03104399892618 136.95559012156446,114.27158011814754 134.6367078720359,113.17198442239896 131.84350879874546,113.72178291274759 131.1056826284621,111.9349331206613 128.52329103229567,111.728757271223 127.73276299261488,110.59478686917282 127.44290271156933,108.22374018229311 127.68006112333387,110.56042404440814 128.39153635909315,111.5913066046196 131.0793316938216,111.86620785757259 131.73810506006703,113.61869579374616 134.5576550681144,113.03453459897719 136.85018638300244,114.27158011814754 138.7474536781665,113.96231934825482 139.5643326524878,114.75265161888092" stroke="#4dd2ff" stroke-linecap="round" stroke-linejoin="round" stroke-width="0.5"><title>2023-09-14 10.0km</title></polyline><polyline fill="none" points="157.4285714285652,115.92972951478077 159.57107005425496,115.91963069475423 160.3893496498349,115.96339221624112 160.5777862759569,115.92636324193336 163.22622433613287,115.91289814560696 163.64698009034328,115.94656087166732 164.47300365686533,115.85230511477857 170.02284949447494,115.55943655282135 170.9469633595436,115.60993139804668 171.6439207437943,115.56280287927439 173.2933865531959,115.55943655282135 174.19168718181027,115.62339667140986 176.95886612968752,115.4853772463266 178.57993737899233,115.51904059697335 180.0977556824946,115.47191189230398 180.47462893472402,115.48874358360081 180.65015894260432,115.62003035380803 180.84633953965385,115.6166640357078 181.03735748941835,115.50220892780271 182.16281459882157,115.46517921233135 188.28571428571013,115.47527823154815" stroke="#4dd2ff" stroke-linecap="round" stroke-linejoin="round" stroke-width="0.5"><title>2023-09-01 10.2km</title></polyline><polyline fill="none" points="39.84790766786318,134.57142857142026 35.66582853673026,134.6749827696476 36.51283190504182,137.9196579875279 36.11579907615669,153.59012167945912 36.40695648395922,158.5257573659037 36.32754991832189,159.59570675043506 35.824641668237746,159.90633630957745 33.707133247400634,160.04439376028313 33.1512872868916,159.66473557673453 32.72778560279403,153.03787630895386 31.21906085300725,152.55466055087163 31.21906085300725,150.55275616912695 29.392709839972667,148.17115817630838 27.460483406088315,148.37825460676686 24.945942156249657,147.23922199253866 22.19318120914977,147.75696477066958 21.213833564543165,145.8240526108566 18.566948038642295,145.51340453892772 18.037570933345705,144.58145787274407 17.90522665705066,141.6820447375503 16.687659315182827,141.85462984858896 15.946531367721036,142.95917157430085 14.437806617934257,143.684024275688 15.258341131033376,146.54889652376005 17.1111609992804,147.75696477066958 17.375849551754072,149.7588928386831 21.29324013052974,149.7934086911264 21.66380410408601,157.80095019153669 23.648968248511665,158.69833017495694 24.972411011578515,157.52483258793654 26.428198050823994,157.24871466177865 26.851699735037982,158.62930106642307 26.560542327235453,160.6311370262265 29.048614721745253,163.35774838154612 29.20742785325274,164.9798946416413 32.41015933977906,165.4285714285652 33.23069385276176,164.84184007426666 33.17775614222046,156.35132917328156 32.701316747581586,152.86529936589068 31.27199856354855,152.48562964767916 31.21906085300725,150.41469317287556 30.610277181956917,149.48276583768893 29.101552432170138,147.9295454445528 27.381076840334572,148.30922248341085 24.866535590495914,147.10115706012584 22.21965006447863,147.75696477066958 21.425584406708367,145.85856903801323 18.752230025362223,145.6514703990979 18.064039788558148,144.44339138732175 17.958164367591962,141.61301065783482 16.66119045985397,141.8891468556394 14.464275473263115,143.92564134865825 15.284809986245818,146.61792916138074 17.031754433410242,147.6534163057222 17.269974130787887,149.6208293785603 21.372646696283482,150.03501951704675 21.39911555137951,157.59386201915913 23.410748551250435,158.66381562317838 25.078286432661116,157.42128840344958 26.560542327235453,157.3177441735752 26.639948892989196,160.90725100009877 29.048614721745253,163.42677610872488 29.392709839972667,165.04892189499515 32.674847892369144,165.25600353436312 33.283631563419476,164.600244387344 32.833661023993045,153.17593777262664 32.542503615957685,152.65820686788356 31.27199856354855,152.45111418845772 31.007310010958463,149.86244038092264 29.101552432170138,147.9640615641547 27.539889971842058,148.34373854765727 25.025348722119816,147.17018953635124 22.246118919807486,147.72244862071238 21.55792868300341,145.96211828949163 18.646354604396038,145.37533859809628 17.98463322292082,141.61301065783482 16.714128170278855,141.85462984858896 15.893593657296151,142.9246547234943 14.490744328591973,143.5459572658874 14.781901736394502,147.72244862071238 16.9523478676565,147.72244862071238 17.428787262411788,149.72437698123395 21.29324013052974,150.1040511361498 21.478522117133252,157.6628914300527 23.51662397221662,158.62930106642307 25.051817577448674,157.4558031366032 26.507604616577737,157.21419989825517 26.87816859036684,158.69833017495694 26.454666906152852,160.52759420272196 27.142857142956927,161.70107687804557 29.07508357684128,163.32323451028788 29.28683441900648,165.01440827084298 32.3836904844502,165.32503070723033 33.283631563419476,164.70378542631806 32.86012987908907,153.2104531259247 32.489565905416384,152.55466055087163 31.324936273973435,152.52014510177833 31.060247721383348,149.82792453859292 29.128021287498996,147.9295454445528 27.434014550759457,148.37825460676686 25.078286432661116,147.13567330075603 22.21965006447863,147.72244862071238 21.39911555137951,145.78953617862135 18.67282345960848,145.3408221003483 18.14344635431189,144.27080816715898 17.98463322292082,141.64752770015912 16.60825274931267,141.9236638576549 16.052406788803637,142.85562100680545 14.437806617934257,143.85660792443377 15.470091973198578,146.79051066719694 17.058223288855515,147.72244862071238 17.322911841329187,149.72437698123395 20.181548209511675,149.55179761823092 21.319708985625766,150.06953532916668 21.39911555137951,157.5593473060726 23.543092827429064,158.5257573659037 25.051817577448674,157.4558031366032 26.48113576148171,157.21419989825517 26.87816859036684,158.59478650454548 26.560542327235453,160.87273677103803 29.048614721745253,163.35774838154612 29.128021287498996,165.04892189499515 29.736804958432913,164.9798946416413" stroke="#4dd2ff" stroke-linecap="round" stroke-linejoin="round" stroke-width="0.5"><title>2023-06-19 10.7km</title></polyline><polyline fill="none" points="79.0,143.853412334327 78.32245922205038,143.65145871433197 78.24502599029802,140.69786005519563 77.83850152348168,140.47065806730825 65.00394335901365,140.64737075040466 64.22961104137357,140.9755509680399 64.1715361175593,155.16243840343668 62.40993009484373,155.59156097988307 62.003405628260225,155.2381659943494 61.59688116144389,150.492506179653 60.59024914854672,150.1895872988971 60.51281591679435,148.5992544635228 59.33195913245436,146.98366326434189 57.66714464954566,147.03415071794007 55.82810539519414,146.17586200086225 53.853557985275984,146.5545193133148 53.38895859476179,145.31756902096095 51.762860727729276,145.06512909800222 51.007886718027294,144.50975996933994 50.73687040689401,142.1115546011133 49.84638824162539,142.28826560617017 49.20756407943554,143.17181792100018 48.33644022222143,143.3990163574781 48.16221545066219,143.80292395145807 48.68488976510707,144.71171258627146 48.74296468892135,145.62049644177023 50.09804624482058,146.63025067618582 50.25291270844173,147.99340953378123 53.21473382320255,148.2710887236026 53.330883670947514,153.82457882573362 54.95698153786361,154.58185910401517 56.002330166636966,153.74885061543318 57.04767879541032,153.64787961670663 56.989603871596046,156.02068249092554 58.848001433885656,158.01482141467568 58.88671804976184,159.20119694669847 61.093565154937096,159.42837431110092 61.73238931701053,159.42837431110092 61.98404732020572,159.0497452045529 61.65495608525816,151.27504416425654 61.46137300587725,150.3158035637316 60.551532532670535,150.16434403482708 60.31923283729702,148.3720628637675 59.25452590070199,146.98366326434189 58.80928481800947,146.75646954070544 57.72521957335994,147.00890699302545 56.002330166636966,146.17586200086225 53.89227460115217,146.5292755182454 53.36960028670728,145.29232504522952 51.80157734360546,145.06512909800222 51.007886718027294,144.50975996933994 50.73687040689401,142.13679904150194 49.84638824162539,142.3387544316356 48.14285714284051,143.72719134950603 48.781681304913945,145.67098429363978 50.07868793688249,146.6050068922923 50.19483778451104,147.9176787682809 53.21473382320255,148.3215758010192 53.35024197876919,153.87506428084453 54.89890661404934,154.58185910401517 55.94425524282269,153.74885061543318 57.06703710334841,153.72360787125945 56.95088725571986,155.8692279616953 58.848001433885656,158.04006353204022 59.00286789739039,159.25168083126482 61.925972396391444,159.20119694669847 61.59688116144389,150.56823581694334 60.51281591679435,150.08861422061455 60.145008065970615,148.04389669239754 58.92543466563802,146.75646954070544 57.66714464954566,147.00890699302545 55.96361355076078,146.15061815049557 53.89227460115217,146.5545193133148 53.427675210521556,145.31756902096095 51.78221903566737,145.06512909800222 50.98852840997279,144.38353946391726 50.77558702265378,142.13679904150194 49.904463165439665,142.2377767660946 49.304355619242415,143.09608504247444 48.181573758716695,143.62621449524886 48.74296468892135,145.6457403695822 50.07868793688249,146.5545193133148 50.25291270844173,148.01865311496658 53.23409213125706,148.24584517933545 53.272808747016825,153.7740933559253 53.96970783290453,154.3546753688861 54.99569815385621,154.55661648149544 56.002330166636966,153.69836512344773 57.02832048747223,153.64787961670663 57.02832048747223,156.14689449731668 58.86735974182375,158.06530564578134 59.00286789739039,159.2264388907788 61.46137300587725,159.5293419326772 61.925972396391444,159.2264388907788 61.59688116144389,150.4420197364525 60.532174224732444,150.11385749575857 60.45474099298008,148.44779343018308 59.15773436089512,146.88268831298046 57.705861265421845,147.03415071794007 56.04104678251315,146.15061815049557 55.247356156934984,146.3020811971801 55.94425524282269,146.2011058475182 57.60906972561497,147.08463815686991 58.848001433885656,146.8322008151299 59.835275138844736,147.61475537419028 60.45474099298008,148.42254991178925 60.435382685041986,150.08861422061455 61.61623946938198,150.39153327843815 61.90661408845335,153.24399503189488" stroke="#4dd2ff" stroke-linecap="round" stroke-linejoin="round" stroke-width="0.5"><title>2023-06-02 10.0km</title></polyline><polyline fill="none" points="84.57142857142753,150.16984706561743 94.58790624144603,150.20410154209094 95.35621560818981,150.12417433689734 99.94856048398651,149.8729724206023 100.42574407928623,149.87582700596977 100.74313683762739,149.9215003152076 102.59058158270636,149.8729724206023 103.50117046180094,149.932918625831 105.73386434803251,149.8301535899809 108.33867388198996,149.8187352192963 108.83336880187562,149.83300818160387 108.96689265192981,149.9386277786416 109.16827288481727,149.92720947135786 109.2908521569916,149.8301535899809 110.30213115252263,149.79589845791088 115.42857142857247,149.81302603145377" stroke="#4dd2ff" stroke-linecap="round" stroke-linejoin="round" stroke-width="0.5"><title>2023-05-09 12.1km</title></polyline><polyline fill="none" points="151.8571428571595,143.86868429675815 151.4261224489892,143.74094068340492 151.28897959191818,140.36847554343694 149.54530612251256,140.3429263169528 149.05551020416897,140.70061514877307 145.15673469391186,140.3173770866997 137.24163265305106,140.77726266042737 136.98693877563346,150.56231910125643 137.22204081632663,155.26303927796835 136.5951020407956,155.64624459268816 135.2824489795603,155.697338571219 134.9102040816797,155.39077447624004 134.5379591836827,150.48567587784783 133.4800000000978,150.10245925650815 133.51918367343023,148.64622843793768 132.26530612248462,146.93450302642304 130.50204081635457,147.01114780605712 128.83673469384667,146.14250500290655 126.68163265311159,146.5001819737663 126.36816326540429,145.35050339302688 124.44816326524597,145.01837261824403 123.76244897954166,144.37965781713137 123.6057142856298,142.10581419164373 122.78285714285448,142.23355899930175 122.13632653048262,143.05112355895108 121.17632653063629,143.35770928347483 121.01959183672443,143.84313558158465 121.50938775518443,145.50379430713656 122.92000000004191,146.5512786242034 123.01795918366406,147.98197877475468 126.09387755102944,148.31410392172984 126.11346938775387,153.93458768677374 127.71999999997206,154.70100329769775 128.8563265305711,153.8323986848991 129.81632653065026,153.70466234862397 130.149387755082,154.59881474354188 129.9142857142724,156.1827306229534 131.8146938775899,158.17537861448363 131.85387755092233,159.32497289906314 134.28326530614868,159.68262291328574 134.94938775512855,159.17169409764756 134.6163265305804,150.71560544753447 134.40081632649526,150.25574600577238 133.4995918367058,150.0769114519353 133.46040816337336,148.59513239956868 132.71591836737934,147.52211214561248 131.87346938776318,146.73011678301555 130.61959183670115,147.03669605846517 128.93469387746882,146.14250500290655 126.77959183673374,146.5001819737663 126.32897959183902,145.2994063918013 124.60489795927424,144.9672755200154 123.86040816316381,144.43075508699985 123.62530612247065,142.08026521893044 122.68489795923233,142.25910794961965 121.01959183672443,143.74094068340492 121.68571428570431,145.78482730059477 122.97877551009879,146.5768269438413 123.05714285711292,147.95643066051707 126.09387755102944,148.31410392172984 126.1330612244783,153.8579459409957 127.71999999997206,154.64990902808495 128.89551020413637,153.90904044186755 129.89469387754798,153.78130416157364 130.18857142864726,154.70100329769775 129.9730612244457,156.2082775357121 131.79510204086546,158.12428535986692 131.93224489793647,159.4271586920513 134.98857142857742,159.3760658029496 134.6163265305804,150.48567587784783 133.4995918367058,150.10245925650815 133.53877551015466,148.62068042065948 132.95102040818892,147.70094931173662 131.85387755092233,146.6534718802286 130.61959183670115,146.93450302642304 128.8563265305711,146.0914082331292 126.70122448983602,146.52573030079657 126.21142857137602,145.22276086200145 124.66367346933112,144.99282407102874 123.86040816316381,144.37965781713137 123.56653061229736,141.97806929067883 122.66530612239148,142.23355899930175 121.0,143.63874572551867 121.60734693880659,145.73373042633466 122.93959183676634,146.5512786242034 123.07673469395377,147.98197877475468 126.03510204073973,148.31410392172984 126.191836734768,153.8579459409957 127.75918367342092,154.67545616476855 129.8359183673747,153.67911507020472 130.11020408174954,154.67545616476855 129.93387755111326,156.2338244447892 131.75591836730018,158.12428535986692 131.91265306121204,159.3760658029496 134.43999999994412,159.58043726961478 134.98857142857742,159.14614761770645 134.63591836742125,150.53677136385522 133.4800000000978,150.0513636435644 133.42122448980808,148.2885558559501 131.95183673477732,146.7045684858458 130.65877551026642,146.98559954986558 128.7975510203978,146.04031144836335 126.81877551029902,146.5001819737663 126.2506122449413,145.19721234463213 124.23265306127723,144.89062984465272 123.7232653060928,144.09862256565248 123.62530612247065,142.08026521893044 122.76326530613005,142.23355899930175 122.17551020416431,143.05112355895108 121.15673469391186,143.30661170004169 121.0,143.817586862584 121.45061224489473,145.50379430713656 122.92000000004191,146.5512786242034 123.07673469395377,147.98197877475468 126.074285714305,148.2885558559501 126.21142857137602,153.93458768677374 127.71999999997206,154.70100329769775 129.85551020409912,153.70466234862397 130.12979591835756,154.80319179207436 129.89469387754798,156.13163678620185 131.79510204086546,158.14983198903792 131.8930612244876,159.35051935286901 134.28326530614868,159.63153009895177" stroke="#4dd2ff" stroke-linecap="round" stroke-linejoin="round" stroke-width="0.5"><title>2023-05-07 11.2km</title></polyline><polyline fill="none" points="157.42857142857247,150.15734596420043 159.03256695989694,150.13354597997204 163.2869065612831,150.15470152305534 164.20753105080075,150.19436809969193 164.3798946666866,150.16792372492455 166.61859386588185,150.17321260297103 171.76719646260608,149.8770330526113 172.44651188990247,149.91405576143552 174.63451590796467,149.88496649658737 174.98329875421769,149.93521156105635 176.9725776622072,149.82943231570425 179.64928322647756,149.81885435716868 179.9108703611637,149.82943231570425 180.05484467560746,149.9325670874514 180.23329171322257,149.9219891891953 180.36509918418596,149.8320768043759 181.29789051719126,149.80563190030625 188.2857142857174,149.80827639245035" stroke="#4dd2ff" stroke-linecap="round" stroke-linejoin="round" stroke-width="0.5"><title>2023-05-05 13.0km</title></polyline><polyline fill="none" points="42.571428571478464,178.1505009008979 42.120530041866004,177.92041621048702 41.90488291892689,174.64806786926056 32.12234525324311,174.77589512482518 27.946632782695815,175.2616378442035 27.88781993102748,189.55209665489383 25.966600108891726,190.0122351503669 25.554910146980546,189.62878648814512 25.2412416045554,184.79726136253157 24.123797422391362,184.5160573800531 24.104193138424307,182.7521311843011 22.771101833321154,181.19270336441696 21.202759121428244,181.32052583961922 19.497186422231607,180.4768957776687 17.36031947727315,180.86036449181847 16.987838083179668,179.65882637930918 15.12543111271225,179.37761414042325 14.458885460044257,178.68736400190392 14.223634053370915,176.41207574895816 13.400254129548557,176.56546689814422 12.929751315969042,177.28129048357368 11.949537120992318,177.6647661997995 11.733889998169616,178.1505009008979 12.263205663417466,179.86334408744005 13.65510982030537,180.9370581337571 13.73352695594076,182.24084490555106 16.79179524409119,182.52205254368891 16.909420947544277,188.22280087225954 18.477763659437187,188.98970351747994 19.555999273899943,188.12054693234677 20.595026320545003,187.9671659104788 20.92829914682079,188.98970351747994 20.693047740031034,190.4979355833202 22.51624614256434,192.46628669614438 22.594663278199732,193.6932995658426 25.025594481732696,193.9489261644485 25.633327282615937,193.38654715486336 25.554910146980546,187.25138603092637 25.280450172373094,184.74613339932694 24.143401706358418,184.4138012744661 24.084588854573667,182.70100262360938 22.51624614256434,181.09044531694963 21.33998910873197,181.37165480358817 19.536394990049303,180.50246038477053 17.37992376112379,180.834799936958 17.066255218698643,179.68439110594045 15.282265383866616,179.42874367201875 14.517698311712593,178.76405859616352 14.341259756707586,176.33538012394274 13.439462697366253,176.53990171596524 12.812125612632371,177.35798569400504 11.969141404959373,177.58807112372597 11.714285714318976,178.12493595018168 12.282809947268106,179.99116753361886 13.635505536338314,180.9370581337571 13.73352695594076,182.2919736005424 16.321292430511676,182.34310228079266 16.831003811908886,182.67543833769741 16.88981666357722,188.19723739293113 18.516972227254882,188.98970351747994 19.575603557750583,188.19723739293113 20.614630604395643,188.0694199399586 20.88909057911951,189.01526688112062 20.673443456180394,190.60018813431088 22.45743329101242,192.44072383658204 22.614267562166788,193.71886224254558 25.104011617368087,193.92336352136044 25.633327282615937,193.56548612669576 25.31965874019079,184.8228253385023 24.182610274059698,184.4138012744661 24.064984570723027,182.67543833769741 22.614267562166788,181.09044531694963 21.32038482488133,181.32052583961922 19.516790706082247,180.4768957776687 17.536758032278158,180.88592904292454 17.027046650997363,179.60769691492897 15.047013977076858,179.32648459386837 14.478489744011313,178.53397471251083 14.28244690503925,176.38651054436923 13.419858413515612,176.53990171596524 12.870938464300707,177.3835507566837 11.714285714318976,177.99711114091042 12.243601379566826,180.09342622329132 13.65510982030537,180.98818720974668 13.73352695594076,182.34310228079266 16.811399528058246,182.6498740479874 16.929025231394917,188.27392781981325 18.497367943287827,189.01526688112062 20.006897803628817,188.04385643822025 20.673443456180394,188.14611042295292 20.536213468876667,190.3956829726667 22.496641858830117,192.49184955196688 22.614267562166788,193.71886224254558 25.49609729531221,193.821112911799 25.633327282615937,190.24230394458573 27.652568524237722,189.83329254586715 27.96623706666287,189.27090031202533 28.044654202181846,175.05711475829594 33.435832274495624,174.62250240697176 38.33690324926283,174.75032968116284" stroke="#4dd2ff" stroke-linecap="round" stroke-linejoin="round" stroke-width="0.5"><title>2023-04-17 10.1km</title></polyline><polyline fill="none" points="48.142857142855064,184.46950196116268 51.4701348747476,184.45227204727962 52.522708505355695,184.49247515618117 53.416735480313946,184.45514370063938 55.411780897324206,184.4982184507444 56.36526286814478,184.46663030989657 58.21937792457902,184.49247515618117 59.01431323974248,184.4091971964899 63.53509496283368,184.16510459233723 64.47316267546557,184.19669321774563 66.39554087529541,184.15361780687635 67.23011285438406,184.21105166705638 69.13267272225494,184.11628570776884 72.26176713460154,184.1047988937662 72.5832645196715,184.11341400489437 72.72639691714721,184.21679504384701 72.9201761629447,184.21392335565906 73.03688411779876,184.12490081385295 73.88246628130582,184.09044036684463 76.85962014862889,184.08182524564654 77.02697495182656,184.12202911223903 77.35287641068135,184.07895353774984 78.12358932011557,184.07321012068314 79.0,184.11628570776884" stroke="#4dd2ff" stroke-linecap="round" stroke-linejoin="round" stroke-width="0.5"><title>2023-04-14 12.0km</title></polyline><polyline fill="none" points="115.42857142852154,178.2194834685506 114.93784078513272,178.2194834685506 115.03598691371735,174.8405857817561 106.20283533260226,174.78938986116555 100.80479825520888,175.22455470939167 100.76553980377503,189.55879266388365 100.35332606325392,189.9171335901483 98.88113413297106,189.96832509116211 98.44929116684943,189.66117586039763 98.11559432931244,184.7723114588589 97.01635768811684,184.51634621442645 96.99672846239991,182.82696622423828 95.77971646678634,181.26555508375168 95.19083969458006,181.03518177045044 94.20937840791885,181.316749112244 92.24645583424717,180.44644859380787 90.32279171212576,180.80480815430928 89.7928026173031,179.52494921600737 88.04580152675044,179.37136551520962 87.39803707739338,178.75702936593734 87.10359869140666,176.37645644386066 86.29880043619778,176.50444505801715 85.70992366422433,177.34916756696475 84.72846237733029,177.60514328084537 84.76772082888056,180.95839059875289 86.47546346788295,180.8815993934113 86.75027262815274,182.39182025563787 89.18429661949631,182.3406265412341 89.69465648860205,182.62219178536907 89.83206106873695,188.25340166444948 91.36314067605417,188.9188963300985 92.50163576880004,188.04863356653368 93.46346782986075,187.86946128457203 93.77753544168081,188.99568401358556 93.54198473284487,190.35226087263436 95.38713195198216,192.5022857045842 95.44601962924935,193.60288344693254 97.99781897489447,193.88443059632846 98.54743729555048,193.34693110037188 98.29225736099761,185.8473614025861 98.07633587787859,184.64432888338342 97.01635768811684,184.26038059616985 97.03598691383377,182.9805468963168 96.66303162486292,182.26383594160143 95.56379498366732,180.95839059875289 94.20937840791885,181.316749112244 92.44274809164926,180.39525431110815 90.40130861510988,180.80480815430928 89.61613958561793,179.37136551520962 87.79062159219757,179.34576821869996 87.24100327154156,178.4498604836408 87.10359869140666,176.29966323051485 84.72846237733029,177.57954572624294 85.10141766641755,179.88331066096725 86.53435114503372,180.85600231743592 86.63249727373477,182.26383594160143 89.63576881133486,182.57099813831155 89.77317339146975,188.20220966241322 91.44165757903829,188.94449222835829 92.403489640099,188.17661365578533 93.46346782986075,187.97184546814242 93.54198473284487,190.53143061613082 95.42639040341601,192.45109494375356 95.58342420926783,193.70526428081212 98.05670665204525,193.88443059632846 98.50817884400021,193.37252635188634 98.19411123218015,184.92589042606414 97.9389312977437,184.51634621442645 97.09487459110096,184.43955656820617 96.95747001096606,182.6477886033099 95.50490730651654,181.03518177045044 94.18974918220192,181.316749112244 92.38386041426565,180.44644859380787 90.36205016355962,180.8815993934113 89.75354416586924,179.49935194190766 87.82988004363142,179.26897630657186 87.26063249725848,178.29627584054833 87.18211559439078,176.37645644386066 86.39694656489883,176.45324962356244 85.69029443839099,177.34916756696475 84.57142857147846,177.86111862082907 85.2191930207191,180.0368939130858 86.47546346788295,180.80480815430928 86.6521264994517,182.26383594160143 89.61613958561793,182.57099813831155 89.8713195201708,188.3301896394405 91.38276990188751,188.9188963300985 92.73718647763599,188.0230375374813 93.48309705557767,188.0230375374813 93.75790621596389,188.94449222835829 93.52235550701153,190.42904792806075 95.36750272626523,192.45109494375356 95.50490730651654,193.6796690779738 98.41003271541558,193.75645467544382 98.52780806983355,190.17309094600205 100.49073064338882,189.84034631044779 100.88331515796017,189.32843025283364 101.00109051249456,174.99417345372785 109.32388222462032,174.68699797510635" stroke="#4dd2ff" stroke-linecap="round" stroke-linejoin="round" stroke-width="0.5"><title>2023-04-03 10.0km</title></polyline><polyline fill="none" points="121.0,184.4508362795459 125.15083952656278,184.4537079333295 128.0068813652615,184.50252598343832 131.0831268923721,184.48816774599254 131.8538398018136,184.41350474219325 136.559592623169,184.1636687826467 137.31268923754396,184.2038724847789 139.2350674373738,184.15505369292623 139.7547481420188,184.16941217370004 140.0564271951589,184.2182309298969 141.9810074318666,184.11772159381871 145.08367740159883,184.1033630752736 145.42499311863503,184.11484989094424 145.6055601431217,184.21248755310626 145.78392513074505,184.1981291037955 145.90503715936939,184.11772159381871 146.88053949903406,184.0861328391784 149.07376823561208,184.10623477981608 149.6661161574375,184.07177429756666 149.76520781722502,184.10910648394747 150.8640242223919,184.06890258798921 150.93228736580932,184.1004913703091 151.6633636113329,184.08900454624745 151.85714285714494,184.12920840108927" stroke="#4dd2ff" stroke-linecap="round" stroke-linejoin="round" stroke-width="0.5"><title>2023-03-31 11.9km</title></polyline><polyline fill="none" points="157.42857142857247,183.62808698999197 157.53418629288353,183.66481535671574 165.5081085486163,183.68777054231577 166.1840436802231,183.6234959381154 169.90344715182437,183.4283749933502 170.449123950777,183.4559216265643 172.23225490995537,183.43067054796575 172.6934398174635,183.46739937614802 174.2248553500176,183.39394163392626 176.60647054030414,183.38016826902458 176.9796430608767,183.39623719356587 177.0887784206716,183.46510382690576 177.19967402820475,183.47428602187392 177.35105533371825,183.38935051363387 178.29806861707038,183.36869045572075 186.80182544210402,183.3640993280469 186.9408850134423,183.39853275287714 186.93736451797304,183.81631896196086 186.88279683807923,183.94027537063903 186.90391981093126,184.19507158431406 186.97961046369892,184.26623014918005 187.12043028278276,184.2777073068819 187.16091598077037,184.3947738366469 187.34750224105665,184.35345633748875 187.5076847852688,184.43150041134686 187.5974574199281,184.4062509004616 187.66610708174267,184.43379581941917 187.7664412028389,184.56922430202485 187.7664412028389,184.70694698565148 187.8702958194117,184.74367283076572 187.91254176513758,185.20732924338063 188.10792926411523,185.17519508172427 188.11144975959905,184.59906431924355 188.14313421889528,184.5761104648709 188.28571428571013,184.59447355105112" stroke="#4dd2ff" stroke-linecap="round" stroke-linejoin="round" stroke-width="0.5"><title>2023-03-15 16.1km</title></polyline><polyline fill="none" points="42.571428571478464,212.32734328648075 41.556264964165166,212.37729895878874 41.556264964165166,209.829541061481 41.154030327219516,209.1301498995017 27.784517158870585,209.57975883201289 27.49720670399256,210.95355657828622 27.784517158870585,216.9981355345808 27.324820431065746,219.79555429297034 27.59297685546335,223.66690654757258 27.19074221875053,224.04154888867924 25.620111731928773,224.21638170025835 25.29449321643915,223.89169205076178 24.988028731080703,219.07122704097128 23.877094972180203,218.77150452193746 23.877094972180203,217.22292980444035 22.57462090998888,215.57443162951677 21.00399042305071,215.72429575670685 19.299281723913737,214.8251090233971 17.249800478923135,215.2247481552913 16.75179569039028,213.92591756135516 14.778930566622876,213.6511636715295 14.35754189954605,212.87685487921408 14.223463687230833,210.87862244031567 13.399840383091941,210.9785346169083 12.882681564311497,211.80280784600473 11.924980047973804,212.10254258044006 11.924980047973804,215.2747029811435 13.476456504431553,215.14981588925002 13.859537111013196,216.7233865812741 16.50279329624027,216.82329534267774 16.713487629778683,217.09804413550592 16.73264166014269,222.39311644829286 18.341580207576044,223.1673821493605 19.414205905864947,222.31818732336978 20.410215482930653,222.1433525710163 20.54429369524587,224.8158071259677 22.249002394382842,226.53914352053835 22.344772545970045,227.71300039616472 24.643256185227074,228.0127072433679 25.275339185958728,227.68802480188606 25.275339185958728,221.66880019925884 24.968874700716697,219.07122704097128 23.83878691145219,218.72155071774614 23.857940941816196,217.2479069272813 23.398244214011356,216.4985916547448 22.30646448524203,215.4495447565132 21.08060654439032,215.7492730984377 19.22266560269054,214.87506396591198 17.249800478923135,215.2747029811435 16.924181963317096,214.07578313341946 15.12370311259292,213.8509847261157 14.434158020769246,213.2265431551059 14.280925778206438,210.92857853592432 13.26576217089314,211.02849068331125 12.825219473335892,211.82778576062992 11.75259377504699,212.32734328648075 12.250598563463427,214.35053634100768 13.61053471674677,215.17479331487266 13.84038308064919,216.7233865812741 16.65602553880308,216.84827252381365 16.770949720754288,222.44306917997892 18.36073423794005,223.09245336378808 19.49082202720456,222.29321094116312 20.44852354354225,222.2182817725261 20.697525937808678,223.1424058910925 20.391061452566646,224.54107073335035 22.21069433365483,226.4891919853835 22.344772545970045,227.71300039616472 24.70071827620268,227.96275613858597 25.275339185958728,227.68802480188606 25.275339185958728,221.3690822332137 24.949720670469105,219.07122704097128 23.857940941816196,218.84643520091777 23.877094972180203,217.29786116203468 22.459696727921255,215.54945426226186 21.138068635365926,215.77425043657422 19.22266560269054,214.87506396591198 17.345570630510338,215.29968038860534 16.885873902705498,214.00085036383825 14.855546688078903,213.80102948441345 14.300079808570445,212.80192158422142 14.242617717478424,210.95355657828622 13.361532322480343,211.00351265196514 12.825219473335892,211.82778576062992 11.714285714318976,212.35232112449012 12.26975259394385,214.42546895742998 13.667996807722375,215.29968038860534 13.725458898814395,216.62347776153183 16.675179569167085,216.87324970144255 16.828411811729893,222.4930218970403 18.379888268187642,223.1673821493605 19.49082202720456,222.29321094116312 20.467677573906258,222.2432581657631 20.467677573906258,224.69092700222973 22.21069433365483,226.53914352053835 22.40223463694565,227.78792715717282 25.25618515559472,227.83787831298832 25.351955307414755,224.4411664812069 27.554668794968165,223.66690654757258 27.688747007283382,209.70464999233081 28.952913008863106,209.3549545135611 34.64166001603007,209.32997623772826" stroke="#4dd2ff" stroke-linecap="round" stroke-linejoin="round" stroke-width="0.5"><title>2023-03-06 10.0km</title></polyline><polyline fill="none" points="48.21769435357419,218.64175565314326 48.142857142855064,218.65036696889 48.151661520591006,218.71064607339395 48.29253156430059,218.7565728860336 54.78135795299022,218.74509119293725 55.64198587631108,218.7881475074537 57.807862798450515,218.7479616168439 58.24367949619773,218.7852770894242 58.85118155971577,218.70490521426473 63.891687811439624,218.44369434941655 64.46617345846607,218.4896217860587 66.49778362019424,218.45230575196183 67.22634587754146,218.50110362844498 68.52499159304716,218.47239900989553 69.18752101738937,218.40924870147865 72.18321054080297,218.38915537896173 72.57940753874573,218.4063782280955 72.77750603772438,218.5039740879929 72.92277827030921,218.4896217860587 73.03283299195755,218.40350775428487 73.88905872641772,218.37193251472854 76.03072360978695,218.3690620358957 76.35208339702513,218.39776680541218 76.49955672403303,218.36619155663175 78.54877564121853,218.3547096354032 78.99999999999272,218.38915537896173" stroke="#4dd2ff" stroke-linecap="round" stroke-linejoin="round" stroke-width="0.5"><title>2023-03-03 12.1km</title></polyline><polyline fill="none" points="115.42857142863795,212.26179573220725 115.40874035982415,208.9515943958104 106.52442159387283,208.84814960665244 101.30885053251404,209.210206104166 100.93206022772938,209.77915053283505 101.18986412044615,217.8217602452496 100.7932427469641,219.7095224409859 101.20969518914353,220.84734198715887 101.15020198305137,223.95044903695816 99.28608152759261,224.3124746499525 98.67131839878857,224.00216702702164 98.29452809400391,219.0113113718253 97.12449504225515,218.72685422089125 97.10466397355776,217.04596172609308 96.05361733376049,215.57193517337146 95.39919206756167,215.31333275834913 94.32831435918342,215.67537603371602 92.34520749165677,214.7444061155402 90.30260741827078,215.15817112807417 89.88615497620776,213.81343130164896 87.9030481086811,213.29622095623927 87.36760925443377,212.41695990110748 87.26845391106326,210.58084185126063 86.31656261475291,210.7618684207264 85.80095482920296,211.58941609517206 84.80940139549784,211.8480239500641 84.59125964005943,212.33937783364672 85.14652956300415,214.1754776443413 86.59419757616706,215.05472996551543 86.67352185084019,216.60634105608915 88.95409474836197,216.47704065128346 89.70767535804771,216.73564136651112 89.80683070141822,222.55405759523273 90.54058024229016,223.1229591416777 91.49247153871693,223.25225469279394 92.54351817839779,222.45062075398164 93.65405802417081,222.29546537881834 93.61439588689245,224.90722940709384 95.49834741081577,226.82077463595488 95.57767168560531,228.11369889353227 96.13294160843361,228.24299080004857 98.27469702530652,228.24299080004857 98.63165626151022,227.95854848118324 98.27469702530652,219.0371710902109 97.1641571795335,218.72685422089125 97.10466397355776,217.07182173144247 95.8156445097411,215.49435448856093 94.26882115309127,215.64951582426147 92.38486962893512,214.7444061155402 90.38193169294391,215.18403140921146 89.90598604478873,213.8910127231211 88.022034520749,213.52896579868684 87.40727139171213,212.856590974523 87.20896070508752,210.60670280113118 86.31656261475291,210.7618684207264 85.70179948583245,211.66699849131692 84.57142857147846,212.2100743123301 85.087036356912,214.1754776443413 86.49504223291297,215.13231084308063 86.75284612551332,216.6839212536579 88.39882482553367,216.47704065128346 89.66801322076935,216.76150141716062 89.80683070141822,222.60577599317185 91.49247153871693,223.25225469279394 92.50385604111943,222.52819839060248 93.61439588689245,222.29546537881834 93.87219977960922,223.4074092294759 93.63422695558984,224.9330882642971 95.4785163422348,226.87249178755155 95.5975027543027,228.08784050094255 98.4135145060718,228.21713242634723 98.5325009181397,222.47647996993328 98.23503488802817,219.06303080478392 97.10466397355776,218.77857373692677 97.08483290486038,217.14940172506613 95.63716489169747,215.41677376974258 94.22915901581291,215.67537603371602 92.54351817839779,214.7444061155402 90.40176276175771,215.20989168653614 89.86632390739396,213.8910127231211 87.78406169661321,213.63240785265225 87.20896070508752,212.5721239340637 87.22879177366849,210.65842468947812 86.35622475203127,210.73600749358593 85.72163055452984,211.6152768976608 84.67058391473256,211.9256062329223 84.57142857147846,212.52040260477224 85.24568490637466,214.38236093636078 86.57436650746968,215.18403140921146 86.59419757616706,216.60634105608915 89.70767535804771,216.9166616423172 89.8266617701156,222.55405759523273 91.45280940132216,223.35569106569164 92.44436283514369,222.50233918215963 93.55490268091671,222.26960613642586 93.85236871102825,223.35569106569164 93.67388909298461,225.01066481310409 95.4785163422348,226.87249178755155 95.57767168560531,228.11369889353227 98.09621740726288,228.29470753620262 98.61182519281283,227.98440689274867 98.61182519281283,224.6486406277836 100.912229159032,223.92459003631666 101.0113845024025,209.3136506817973 106.94087403593585,208.8740108095517 112.03745868534315,208.9515943958104" stroke="#4dd2ff" stroke-linecap="round" stroke-linejoin="round" stroke-width="0.5"><title>2023-03-01 10.1km</title></polyline><polyline fill="none" points="151.8571428571595,212.3850467698794 151.1182824736461,212.3089800903108 150.962732919259,209.24092956102686 142.0186335403705,209.0634373750654 137.2938158250181,209.4437775512779 136.96327302185819,209.97625239782792 136.86605455027893,213.8556626886275 137.23548474209383,222.93263687861327 136.82716716174036,224.04820989207656 135.13556575751863,224.27639439796621 134.72724817704875,223.84537896836991 134.45503645692952,219.20555686797888 133.30785849306267,218.77452884711965 133.2689711045241,217.1518255216797 131.92735619773157,215.50375192944193 130.56629759655334,215.68123752965766 128.64137186063454,214.79380771350407 126.63867134752218,215.22484561949386 126.17202268436085,213.90637336022337 123.89711045089643,213.4499767832167 123.54712395346723,212.68931315466762 123.54712395346723,210.76228370942408 122.67215770983603,210.9651299216639 122.08884688082617,211.7765124001453 121.15554955438711,212.0807798517344 121.01944369415287,212.61324660848186 121.64164191193413,214.3627687371918 122.94436943018809,215.27555589099939 123.02214420726523,216.61937268766633 126.01647312974092,216.89827675680863 126.0553605183959,222.50161811246653 127.6302997568855,223.1861768294184 128.83580880367663,222.34949358648737 129.80799351877067,222.32413948587782 130.06076154462062,223.31294666595932 129.80799351877067,224.6313474776107 131.71347556030378,226.7864041664143 131.77180664322805,227.92730569992273 134.24115581961814,228.10477859787352 134.8439103428973,227.77518592866545 134.4744801511988,219.2309114242089 133.32730218733195,218.74917422432918 132.9189846070949,216.64472762146033 131.8301377260359,215.50375192944193 130.54685390216764,215.75730273140653 128.6802592491731,214.86987330412376 126.71644612471573,215.2502007571311 126.23035376716871,213.98243933969934 124.13043478259351,213.7035305852187 123.58601134212222,212.6639576429152 123.54712395346723,210.86370684520807 122.71104509849101,210.9904856816138 122.24439643532969,211.72580110641138 121.25276802584995,212.0300686468545 121.0,212.53718002898677 121.69997299474198,214.51490026280226 122.9054820415331,215.27555589099939 123.04158790165093,216.64472762146033 126.03591682412662,216.94898653947166 126.17202268436085,222.6030343889579 127.8247366999276,223.1861768294184 128.79692141502164,222.4002017766179 129.78854982438497,222.22272304636135 130.08020523900632,223.3636545745976 129.78854982438497,224.52993238612544 131.6745881716488,226.68499033385888 131.75236294895876,227.85124583098514 134.22171212534886,228.13013185421005 134.78557925997302,227.57235935970675 134.51336753973737,219.28162052533298 134.2994869025424,218.92665650612616 133.32730218733195,218.74917422432918 133.28841479879338,217.1264706618822 132.16068052931223,215.70659260055982 131.57736970018595,215.40233150489803 130.50796651351266,215.731947667824 128.83580880367663,214.81916291404923 126.69700243044645,215.22484561949386 126.19146637851372,213.95708401687443 124.11099108832423,213.65281985446927 123.64434242504649,212.68931315466762 123.54712395346723,210.81299528473755 122.71104509849101,210.9904856816138 122.186065352289,211.80186804143887 121.07777477719355,212.23291337746195 121.4860923574306,214.13457119872328 122.94436943018809,215.22484561949386 123.0804752901895,216.67008255170367 126.0553605183959,216.9236316500028 126.23035376716871,222.6030343889579 127.70807453419548,223.1861768294184 128.8941398866009,222.37484768335707 129.82743721303996,222.22272304636135 130.08020523900632,223.31294666595932 129.84688090730924,224.68205500124895 131.73291925457306,226.73569725755078 131.8301377260359,227.87659912431263 134.35781798535027,228.13013185421005 134.8244666485116,227.80053923316882 134.863354037283,224.5045786039991 136.92438563331962,224.02285603959172 137.15770996490028,223.64254780761257 137.1188225762453,211.1933316271461 137.37159060209524,209.41842156543862 150.65163381048478,209.01272528865957" stroke="#4dd2ff" stroke-linecap="round" stroke-linejoin="round" stroke-width="0.5"><title>2023-02-22 10.2km</title></polyline><polyline fill="none" points="157.4285714285652,218.7591777558282 159.41532992667635,218.7466612781809 162.3042879360146,218.80298536998998 165.40679848923173,218.76856510926336 165.66354143523495,218.7967271448888 166.4913574761158,218.70285354881526 171.68140413241053,218.43374695982675 172.44203510331863,218.48694271647037 172.8715396578482,218.44313445589796 174.57516107532138,218.43374695982675 175.45576538547175,218.49945934589596 178.3495223283826,218.37116354756654 180.9481448567094,218.37429272252666 181.3176627416251,218.38993859044785 181.44963341479888,218.5025885021114 181.65118862474628,218.4932010320972 181.81195289934112,218.38680941777966 182.9373028215923,218.34925931007456 185.4087536103034,218.3805510710681 185.61030882026535,218.34300095239814 187.750633192627,218.33987177286508 188.28571428571013,218.39932610572032" stroke="#4dd2ff" stroke-linecap="round" stroke-linejoin="round" stroke-width="0.5"><title>2023-02-17 11.0km</title></polyline><polyline fill="none" points="11.714285714282596,252.92189728429912 12.128418828491704,252.92465274063397 12.164338537375443,253.0431369822836 12.64819814531802,253.00456079928335 17.786829440068686,253.0210934587958 18.39323864303151,253.05966960799196 19.430684352613753,253.01558257390207 19.62507336541603,253.04589242090515 20.96255429041048,253.04589242090515 26.365301091675065,252.73176982490804 27.08158234534494,252.7703465658542 29.0656180302758,252.73176982490804 29.885432562499773,252.77861300008226 32.14626129827229,252.6739045655395 33.3041436788335,252.6987039841497 34.447235591025674,252.6711490725702 34.8508040849847,252.69594849480745 34.97546660405351,252.7896349067414 35.144500528222125,252.78136847734822 35.30085690807755,252.67941555027028 36.03404155415774,252.65461610629427 42.57142857142753,252.6739045655395" stroke="#4dd2ff" stroke-linecap="round" stroke-linejoin="round" stroke-width="0.5"><title>2023-02-03 12.5km</title></polyline><polyline fill="none" points="79.0,246.70845537136483 78.2285714285681,246.58270769687078 77.88142857141793,243.36353595668334 64.22714285703842,243.64018589233456 63.97642857138999,244.21863432131067 64.32357142854016,250.7826303300535 63.95714285701979,254.42918664532772 64.30428571428638,256.164417357606 64.03428571415134,257.94992635655217 63.70642857148778,258.30199636809994 61.97071428562049,258.37743984826375 61.68142857134808,258.050517861906 61.31499999994412,253.24720788579725 60.23499999998603,252.97057338729792 60.21571428561583,251.36105476148077 58.94285714277066,249.82696831595968 57.45785714278463,249.92756456723146 55.74142857128754,249.04734537549666 53.63928571424913,249.4748809735902 53.19571428571362,248.24256960485945 51.07428571418859,247.7647322111152 50.68857142853085,247.0605483713298 50.51500000001397,244.9982791284856 49.724285714211874,245.17432746729173 49.16499999992084,246.05456646093808 48.23928571422584,246.2306137195701 48.14285714284051,246.73360489519837 48.77928571414668,248.59465946737328 50.09071428561583,249.3742844577646 50.16785714274738,250.7826303300535 53.09928571432829,251.05926834406273 53.29214285709895,256.6673795122915 54.89285714284051,257.39667202685087 55.9728571427986,256.5416391113831 57.03357142850291,256.51649102012743 56.91785714274738,258.80495227855863 58.82714285713155,260.7916137616121 58.9042857142631,262.04898260210757 61.14142857142724,262.27530801834655 61.75857142847963,261.8980988261028 61.43071428569965,253.3478021386254 60.23499999998603,252.89512753783492 60.25428571423981,251.48679894594534 59.675714285694994,250.5562898060889 58.78857142850757,249.6509247347567 57.554285714169964,249.9527136209217 55.76071428565774,249.04734537549666 53.73571428563446,249.4748809735902 53.11857142846566,248.14197236899054 51.363571428461,248.04137507437554 50.7464285712922,247.08569784376596 50.59214285714552,244.9982791284856 49.80142857134342,245.17432746729173 49.39642857131548,245.9036686674226 48.37428571423516,246.2306137195701 48.14285714284051,246.70845537136483 48.79857142851688,248.6449579604232 50.09071428561583,249.50003009330248 50.18714285711758,250.83292818375048 53.07999999995809,250.93352384732862 53.311428571352735,256.7176756469562 54.87357142847031,257.42181998952583 56.127142857178114,256.46619482676033 56.975714285625145,256.4158986186376 56.8985714284936,258.83010003551317 58.807857142877765,260.8167612284451 58.86571428575553,262.02383531531086 60.90999999991618,262.350749757592 61.6428571427241,262.09927716481616 61.777857142849825,261.7220675869321 61.71999999997206,255.7117501621251 61.372857142821886,253.19691073722788 60.36999999999534,253.02087060184567 60.08071428560652,251.03411945204425 58.9042857142631,249.7263720058836 57.57357142842375,250.00301171712636 55.76071428565774,249.07249455773854 53.69714285712689,249.525179209435 53.311428571352735,248.24256960485945 51.57571428560186,247.99107640500006 50.86214285704773,247.33719236611796 50.6114285713993,245.04857867225655 48.23928571422584,246.45695993046684 48.79857142851688,248.59465946737328 50.12928571423981,249.525179209435 50.20642857137136,250.83292818375048 53.04142857133411,251.00897055631503 53.311428571352735,256.767971766938 54.87357142847031,257.39667202685087 56.107857142807916,256.46619482676033 56.975714285625145,256.4158986186376 57.187857142766006,257.4721159038163 56.8985714284936,258.754656753561 58.78857142850757,260.8167612284451 58.84642857138533,261.9986880248325 61.39214285707567,262.1998662459664 61.85499999998137,261.8226568885002 61.79714285710361,258.7043612139969 63.68714285711758,258.2517006962007 64.13071428565308,257.57270768821763 64.28499999991618,243.6653358644253 77.97785714280326,243.4138359780627" stroke="#4dd2ff" stroke-linecap="round" stroke-linejoin="round" stroke-width="0.5"><title>2023-01-30 10.2km</title></polyline></svg>