<?xml version="1.0" encoding="utf-8" ?>
<svg baseProfile="full" height="200mm" version="1.1" viewBox="0,0,200,200" width="200mm" xmlns="http://www.w3.org/2000/svg" xmlns:ev="http://www.w3.org/2001/xml-events" xmlns:xlink="http://www.w3.org/1999/xlink"><defs /><rect fill="#1a1a1a" height="200" width="200" x="0" y="0" /><text alignment-baseline="middle" fill="#e1ed5e" style="dominant-baseline: central; font-size:9.0px; font-family:Arial;" text-anchor="middle" x="100.0" y="100.0">2025</text><line stroke="#e1ed5e" stroke-width="0.3" x1="100.0" x2="100.0" y1="15.0" y2="10.0" /><path d="M 100.0 14.0 a86.0,86.0 0 0,1 42.46469731375804,11.215312516191453" fill="none" id="id25" stroke="none" /><text fill="#e1ed5e" style="font-size:6.75px; font-family:Arial;" text-anchor="middle"><textPath startOffset="22.20632615414155" xlink:href="#id25">January</textPath></text><path d="M 101.08401301168833 79.027996857942 l 2.0852906034216177 -40.343354383679696 a61.39721128775953,61.39721128775953 0 0,0 1.0549735203826953,0.06363888375720073 l -2.779426172643925 40.30148223054219" fill="#ff0000" stroke="none" /><path d="M 102.16513564639614 79.11191278185805 l 4.730730547863011 -45.63959419991541 a66.88411893291007,66.88411893291007 0 0,0 1.1441429774817562,0.1285577946993262 l -5.515640228854492 45.55140045174548" fill="#ffcd13" stroke="none" /><path d="M 103.59715602781102 79.31037775812273 l 10.515927456919275 -60.48405043443244 a82.39140890413051,82.39140890413051 0 0,0 1.3951803326435575,0.2549602880223522 l -11.555502910665734 60.29407466505935" fill="#48fbff" stroke="none" /><path d="M 104.307194497241 79.44645832069477 l 12.710246834512345 -60.65214566807833 a82.96961472153933,82.96961472153933 0 0,0 1.3953011006233416,0.304958777366142 l -13.752390659289215 60.42437339261632" fill="#49ecff" stroke="none" /><path d="M 105.01212808612495 79.60689891045804 l 14.754753308552658 -60.03341706400812 a82.82001220945679,82.82001220945679 0 0,0 1.3814816245700197,0.352170426074394 l -15.785943821807702 59.77054364176486" fill="#49f0ff" stroke="none" /><path d="M 105.71112130821622 79.79150937346287 l 12.708534653447577 -44.96845532798384 a67.72974243052016,67.72974243052016 0 0,0 1.1191849130696743,0.3267207661960707 l -13.480709784240679 44.743036232869066" fill="#ffea16" stroke="none" /><path d="M 107.08798089147638 80.2323363322302 l 20.89938909090863 -58.286287835192816 a82.91991451851445,82.91991451851445 0 0,0 1.3394238357193924,0.4933211025581946 l -21.899595252400598 57.91790346482829" fill="#49edff" stroke="none" /><path d="M 107.76421540070413 80.48803036053334 l 23.258247820175026 -58.44946358563035 a83.90696213546323,83.90696213546323 0 0,0 1.3373816038369497,0.5455515358573388 l -24.260913293600364 58.04045116358943" fill="#4dd4ff" stroke="none" /><path d="M 109.08828744355905 81.06846463323043 l 27.264862330677165 -56.79460610030869 a84.0,84.0 0 0,0 1.2981149319582728,0.6369793594606721 l -28.23844852964587 56.31687158071319" fill="#4dd2ff" stroke="none" /><path d="M 109.73455568895987 81.39251694778311 l 29.19896079518208 -55.813453176387306 a83.98984733265638,83.98984733265638 0 0,0 1.2752656601594476,0.6812027504105373 l -30.15537150186984 55.30257169947501" fill="#4dd2ff" stroke="none" /><path d="M 110.36928655335952 81.73862282372117 l 24.524891379195175 -43.1908491850533 a70.66809590156785,70.66809590156785 0 0,0 1.0526291099268554,0.6097507229773989 l -25.264717221587357 42.76229430468585" fill="#b4ff20" stroke="none" /><line stroke="#e1ed5e" stroke-width="0.3" x1="143.23703022742887" x2="145.7803849466894" y1="26.81831364943548" y2="22.513508569990506" /><path d="M 143.74570117128098 25.957352633546492 a86.0,86.0 0 0,1 28.547481713284135,27.462654790039103" fill="none" id="id26" stroke="none" /><text fill="#e1ed5e" style="font-size:6.75px; font-family:Arial;" text-anchor="middle"><textPath startOffset="19.985693538727396" xlink:href="#id26">February</textPath></text><path d="M 111.2981086023043 82.29822771554956 l 31.29575743243018 -49.03390390718035 a79.16999368788092,79.16999368788092 0 0,0 1.1424342217084915,0.7430709966745098 l -32.13515867992295 48.48793398634632" fill="#3dffa9" stroke="none" /><path d="M 111.90073688211348 82.69761687909136 l 35.226354010249786 -51.215305327366934 a83.16030499145626,83.16030499145626 0 0,0 1.1724369871760227,0.8213670350286653 l -36.10272213700946 50.60135344957434" fill="#4ae7ff" stroke="none" /><path d="M 113.06298171725822 83.55741782278167 l 25.23540479774183 -31.764204080148556 a61.56834130391847,61.56834130391847 0 0,0 0.8241262617406165,0.6663861228543674 l -25.778434458046938 31.32511186003006" fill="#ff0701" stroke="none" /><line stroke="#e1ed5e" stroke-width="0.3" x1="172.23445277983987" x2="176.4835382374775" y1="55.19839476539836" y2="52.563006222186495" /><path d="M 173.08426987136738 54.67131705675599 a86.0,86.0 0 0,1 12.851231095245387,41.99856678651699" fill="none" id="id27" stroke="none" /><text fill="#e1ed5e" style="font-size:6.75px; font-family:Arial;" text-anchor="middle"><textPath startOffset="22.20632615414155" xlink:href="#id27">March</textPath></text><line stroke="#e1ed5e" stroke-width="0.3" x1="184.98032266829074" x2="189.97916517819016" y1="98.17113171792111" y2="98.06355123074" /><path d="M 185.9800911702706 98.14961562048488 a86.0,86.0 0 0,1 -9.607161424134198,41.387399972396054" fill="none" id="id28" stroke="none" /><text fill="#e1ed5e" style="font-size:6.75px; font-family:Arial;" text-anchor="middle"><textPath startOffset="21.466115282336823" xlink:href="#id28">April</textPath></text><line stroke="#e1ed5e" stroke-width="0.3" x1="174.80103733775053" x2="179.2010983576182" y1="140.37084112569926" y2="142.7455964860345" /><path d="M 175.68104954172406 140.8457921977663 a86.0,86.0 0 0,1 -30.038265399797805,32.042727171017184" fill="none" id="id29" stroke="none" /><text fill="#e1ed5e" style="font-size:6.75px; font-family:Arial;" text-anchor="middle"><textPath startOffset="22.206326154141568" xlink:href="#id29">May</textPath></text><line stroke="#e1ed5e" stroke-width="0.3" x1="143.8653032363475" x2="146.44561519142675" y1="172.8068346515853" y2="177.08958963109032" /><path d="M 144.38136562736335 173.6633856474863 a86.0,86.0 0 0,1 -40.68145358897372,12.25698825130547" fill="none" id="id30" stroke="none" /><text fill="#e1ed5e" style="font-size:6.75px; font-family:Arial;" text-anchor="middle"><textPath startOffset="21.466115282336833" xlink:href="#id30">June</textPath></text><line stroke="#e1ed5e" stroke-width="0.3" x1="102.19456741930631" x2="102.32365962044197" y1="184.97166512339345" y2="189.96999836594603" /><path d="M 102.22038585953345 185.97133177190398 a86.0,86.0 0 0,1 -42.740103519485714,-10.115201625700543" fill="none" id="id31" stroke="none" /><text fill="#e1ed5e" style="font-size:6.75px; font-family:Arial;" text-anchor="middle"><textPath startOffset="22.20632615414155" xlink:href="#id31">July</textPath></text><line stroke="#e1ed5e" stroke-width="0.3" x1="58.666819895761336" x2="56.23545636021788" y1="174.27360380694188" y2="178.64263932499728" /><path d="M 58.180547188652646 175.14741091055294 a86.0,86.0 0 0,1 -31.652253787137756,-30.449443065178592" fill="none" id="id32" stroke="none" /><text fill="#e1ed5e" style="font-size:6.75px; font-family:Arial;" text-anchor="middle"><textPath startOffset="22.20632615414155" xlink:href="#id32">August</textPath></text><line stroke="#e1ed5e" stroke-width="0.3" x1="26.63291911575756" x2="22.317208475507996" y1="142.92168965132927" y2="145.44649492493687" /><path d="M 25.769776987707644 143.4266507060508 a86.0,86.0 0 0,1 -11.730757126820373,-40.83630448921669" fill="none" id="id33" stroke="none" /><text fill="#e1ed5e" style="font-size:6.75px; font-family:Arial;" text-anchor="middle"><textPath startOffset="21.46611528233685" xlink:href="#id33">September</textPath></text><line stroke="#e1ed5e" stroke-width="0.3" x1="15.007084014347285" x2="10.007500721073583" y1="101.09737516637583" y2="101.16192664675087" /><path d="M 14.007167355692545 101.11028546245083 a86.0,86.0 0 0,1 10.666146001902534,-42.60595125391555" fill="none" id="id34" stroke="none" /><text fill="#e1ed5e" style="font-size:6.75px; font-family:Arial;" text-anchor="middle"><textPath startOffset="22.20632615414155" xlink:href="#id34">October</textPath></text><line stroke="#e1ed5e" stroke-width="0.3" x1="26.266209847984243" x2="21.928928074336255" y1="57.711370442889674" y2="55.22380399835377" /><path d="M 25.398753493254645 57.213857153982495 a86.0,86.0 0 0,1 29.58750427330803,-30.492523968695096" fill="none" id="id35" stroke="none" /><text fill="#e1ed5e" style="font-size:6.75px; font-family:Arial;" text-anchor="middle"><textPath startOffset="21.46611528233685" xlink:href="#id35">November</textPath></text><line stroke="#e1ed5e" stroke-width="0.3" x1="56.762969772571076" x2="54.21961505331055" y1="26.818313649435495" y2="22.513508569990535" /><path d="M 56.25429882871897 25.957352633546506 a86.0,86.0 0 0,1 42.265352541879196,-11.944610805530505" fill="none" id="id36" stroke="none" /><text fill="#e1ed5e" style="font-size:6.75px; font-family:Arial;" text-anchor="middle"><textPath startOffset="22.20632615414155" xlink:href="#id36">December</textPath></text></svg>