<?xml version="1.0" encoding="utf-8" ?>
<svg baseProfile="full" height="300mm" version="1.1" viewBox="0,0,200,300" width="200mm" xmlns="http://www.w3.org/2000/svg" xmlns:ev="http://www.w3.org/2001/xml-events" xmlns:xlink="http://www.w3.org/1999/xlink"><defs /><rect fill="#222222" height="300" width="200" x="0" y="0" /><text fill="#FFFFFF" style="font-size:12px; font-family:Arial; font-weight:bold;" x="10" y="20">Over 10km Runs</text><text fill="#FFFFFF" style="font-size:4px; font-family:Arial" x="10" y="280">ATHLETE</text><text fill="#FFFFFF" style="font-size:9px; font-family:Arial" x="10" y="290">chending</text><text fill="#FFFFFF" style="font-size:4px; font-family:Arial" x="120" y="280">STATISTICS</text><text fill="#FFFFFF" style="font-size:3px; font-family:Arial" x="120" y="285">Number: 8</text><text fill="#FFFFFF" style="font-size:3px; font-family:Arial" x="120" y="290">Weekly: 1.3</text><text fill="#FFFFFF" style="font-size:3px; font-family:Arial" x="141" y="285">Total: 92.2 km</text><text fill="#FFFFFF" style="font-size:3px; font-family:Arial" x="141" y="290">Avg: 11.5 km</text><text fill="#FFFFFF" style="font-size:3px; font-family:Arial" x="167" y="285">Min: 10.0 km</text><text fill="#FFFFFF" style="font-size:3px; font-family:Arial" x="167" y="290">Max: 16.1 km</text><polyline fill="none" points="13.0,58.84915223248754 13.184826012555277,58.91342687425458 27.139189960071235,58.95359844905397 28.322076440381352,58.841117891704926 34.83103251569264,58.49965623836579 35.7859669138561,58.54786284648981 38.90644609242736,58.50367345894301 39.71351968056115,58.567948908261315 42.393496862539905,58.43939785937255 46.56132344552316,58.415294470794834 47.2143753565324,58.44341508874277 47.405362236168,58.563931697088265 47.59942954935832,58.58000053828073 47.86434683400148,58.43136339886223 49.52162007987499,58.39520829751382 64.4031945236784,58.38717382408322 64.64654877352586,58.44743231753819 64.64038790644554,59.17855818343378 64.54489446664229,59.395481898620346 64.58185966912424,59.841375272551886 64.71431831146765,59.9659027610669 64.96075299486984,59.985987787045815 65.03160296635178,60.19085421413365 65.35812892184185,60.11854859060804 65.63844837422948,60.25512571985928 65.79555048487964,60.21093907580871 65.91568739304785,60.25914268398628 66.09127210496808,60.49614252854553 66.09127210496808,60.737157224892144 66.27301768396865,60.801427453841825 66.34694808899076,61.61282617591678 66.68887621219619,61.556591393020426 66.69503707929107,60.54836255867849 66.7504848830722,60.508193313527954 67.0,60.54032871434174" stroke="#4dd2ff" stroke-linecap="round" stroke-linejoin="round" stroke-width="0.5"><title>2023-03-15 16.1km</title></polyline><polyline fill="none" points="187.0,49.07285075128311 185.22346368711442,49.16027317784028 185.22346368711442,44.701696857548086 184.51955307251774,43.47776232409524 161.1229050279362,44.26457795599708 160.62011173181236,46.66872401194996 161.1229050279362,57.24673718548729 160.31843575427774,62.142220012668986 160.78770949703176,68.917086458212 160.0837988826679,69.57271055513411 157.33519553067163,69.87866797542665 156.76536312850658,69.31046108878218 156.2290502792457,60.874647321674274 154.28491620114073,60.35013291335781 154.28491620114073,57.64012715773424 152.0055865922477,54.755255351628875 149.256983240135,55.0175175741897 146.2737430166453,53.443940790893976 142.68715083796997,54.14330927171977 141.81564245803747,51.87035573233152 138.36312849156093,51.389536425151164 137.62569832406007,50.03449603859917 137.39106145256665,46.53758927050512 135.9497206703527,46.71243557953858 135.0446927373996,48.1549137304537 133.36871508392505,48.67944951570826 133.36871508392505,54.23073021695018 136.0837988826679,54.01217780614388 136.75418994412757,56.76592651719693 141.37988826818764,56.94076684964239 141.74860335199628,57.42157723708078 141.7821229051333,66.68795378445066 144.59776536317077,68.04291876131902 146.47486033523455,66.55682781586074 148.2178770948667,66.2508669992385 148.45251396659296,70.92766247040709 151.43575418996625,73.94350116091664 151.60335195541847,75.99775069323368 155.62569832406007,76.52223767587566 156.73184357536957,75.95404340326786 156.73184357536957,65.42040034866659 156.19553072622512,60.874647321674274 154.2178770948667,60.262713756004814 154.25139664800372,57.68383712269133 153.44692737434525,56.37253539575613 151.53631284902804,54.53670332385809 149.39106145256665,55.0612279222114 146.1396648044465,53.53136194028775 142.68715083796997,54.23073021695018 142.11731843580492,52.13262048346223 138.9664804469794,51.739223270647926 137.75977653625887,50.64645052139531 137.49162011174485,46.625012437812984 135.71508379885927,46.79985869574011 134.9441340782214,48.198625081044156 133.06703910627402,49.07285075128311 133.9385474859737,52.61343859671615 136.31843575427774,54.05588830099441 136.72067039099056,56.76592651719693 141.64804469270166,56.984476916637504 141.84916201117449,66.77537106492673 144.63128491630778,67.91179338659276 146.60893854743335,66.51311914698454 148.28491620102432,66.38199310188065 148.72067039110698,67.99921030935366 148.1843575418461,70.44687378330855 151.36871508369222,73.85608597437385 151.60335195541847,75.99775069323368 155.72625698323827,76.4348232424818 156.73184357536957,75.95404340326786 156.73184357536957,64.89589390807669 156.16201117320452,60.874647321674274 154.25139664800372,60.481261601584265 154.28491620114073,57.77125703351339 151.80446927365847,54.71154495890369 149.49162011174485,55.10493826397578 146.1396648044465,53.53136194028775 142.85474860330578,54.274440680019325 142.0502793296473,52.001488136680564 138.49720670399256,51.651801597705344 137.52513966476545,49.90336277234019 137.42458100558724,46.66872401194996 135.88268156419508,46.756147140898975 134.9441340782214,48.198625081044156 133.0,49.116561967821326 133.9720670392271,52.74457067545154 136.41899441333953,54.274440680019325 136.51955307275057,56.591086082626134 141.6815642459551,57.028186977491714 141.9497206704691,66.86278831979143 144.66480446921196,68.04291876131902 146.60893854743335,66.51311914698454 148.31843575416133,66.4257017900527 148.31843575416133,70.70912225387292 151.36871508369222,73.94350116091664 151.70391061459668,76.12887252503424 156.69832402223255,76.21628704768955 156.8659217878012,70.27204134207568 160.72067039110698,68.917086458212 160.9553072626004,44.483137486560736 163.16759776545223,43.8711703986919 173.1229050279362,43.82745841596625" stroke="#4dd2ff" stroke-linecap="round" stroke-linejoin="round" stroke-width="0.5"><title>2023-03-06 10.0km</title></polyline><polyline fill="none" points="13.130965118762106,120.12307239299844 13.0,120.13814219555934 13.015407661048812,120.24363062843622 13.261930237538763,120.32400255055836 24.617376417736523,120.30390958763746 26.123475283558946,120.37925813804395 29.913759897302953,120.30893282947363 30.6764391183533,120.37423490649235 31.73956772951351,120.23358412496236 40.56045367002662,119.77646511147759 41.565803552322905,119.85683812560092 45.121121335352655,119.79153506593138 46.396105285704834,119.87693134977962 48.66873528783617,119.8266982673158 49.82816178044595,119.71618522758581 55.070618446407025,119.6810219131803 55.763963192817755,119.71116189916575 56.110635566030396,119.8819546539853 56.36486197305203,119.85683812560092 56.55745773593662,119.70613856999626 58.055852771241916,119.65088190077222 61.80376631714171,119.64585856281701 62.366145944804884,119.69609190947085 62.62422426707053,119.6408352241051 66.2103573721397,119.62074186195241 67.0,119.6810219131803" stroke="#4dd2ff" stroke-linecap="round" stroke-linejoin="round" stroke-width="0.5"><title>2023-03-03 12.1km</title></polyline><polyline fill="none" points="187.0,108.95814253136632 186.96529562980868,103.16529019264271 171.41773778921925,102.98426181162358 162.29048843181226,103.61786068227957 161.63110539852642,104.61351343244314 162.08226221089717,118.68808042918681 161.38817480730359,121.9916642717435 162.11696658097208,123.98284847752075 162.0128534702817,129.41328581466223 158.75064267334528,130.04683063740958 157.67480719799642,129.50379229726968 157.01542416447774,120.76979490066878 154.96786632400472,120.27199488657061 154.93316195369698,117.33043302065926 153.09383033413906,114.75088655340369 151.94858611817472,114.29833232710371 150.07455012842547,114.93190805899212 146.60411311045755,113.30271070217714 143.02956298203208,114.02679947411525 142.30077120824717,111.67350477789296 138.83033419027925,110.76838667341508 137.89331619523,109.22967982693808 137.7197943443898,106.01647323969519 136.0539845759049,106.3332697362639 135.1516709511634,107.7814781665511 133.41645244217943,108.2340419125976 133.03470437019132,109.09391120888176 134.00642673519906,112.30708587757545 136.53984575835057,113.8457774396229 136.67866323899943,116.56109684813418 140.66966580972075,116.33482113972423 141.9884318766417,116.7873723913799 142.1619537274819,126.96960079166456 143.4460154240951,127.96517849792144 145.11182519269641,128.19144571237848 146.95115681225434,126.78858631945332 148.89460154238623,126.51706441291026 148.82519280212,131.08765146241058 152.1221079690149,134.43635561291012 152.2609254498966,136.69897306367056 153.23264781478792,136.92523390008137 156.98071979428641,136.92523390008137 157.60539845761377,136.42745984208887 156.98071979428641,120.81504940785817 155.03727506427094,120.27199488657061 154.93316195369698,117.37568803000613 152.67737789207604,114.61512035498163 149.97043701796792,114.88665269245394 146.67352185072377,113.30271070217714 143.16838046268094,114.07205496609095 142.3354755784385,111.80927226544009 139.03856041119434,111.17569014770561 137.96272493549623,109.9990342053934 137.61568123393226,106.06172990196501 136.0539845759049,106.3332697362639 134.9781491003232,107.91724735978642 133.0,108.8676300465595 133.9023136246251,112.30708587757545 136.36632390751038,113.98154397538747 136.81748071976472,116.69686219390132 139.69794344471302,116.33482113972423 141.91902313637547,116.83262748000561 142.1619537274819,127.06010798804346 145.11182519269641,128.19144571237848 146.8817480719881,126.92434718355071 148.82519280212,126.51706441291026 149.27634961437434,128.46296615159372 148.8598971721949,131.1329044625163 152.08740359905642,134.52686062821886 152.29562982008792,136.65372087663854 157.22365038562566,136.8799817460822 157.43187660677359,126.83383994738688 156.9113110540202,120.86030390838278 154.93316195369698,120.36250403962913 154.89845758338924,117.5114530188439 152.36503856035415,114.47935409704223 149.9010282777017,114.93190805899212 146.95115681225434,113.30271070217714 143.20308483298868,114.11731045143097 142.26606683805585,111.80927226544009 138.62210796913132,111.35671374213416 137.61568123393226,109.50121688458603 137.65038560400717,106.15224320656853 136.12339331617113,106.28801311377902 135.0128534703981,107.82673457087367 133.1735218508402,108.36981090760673 133.0,109.41070455833687 134.17994858615566,112.66913163862773 136.50514138804283,114.07205496609095 136.53984575835057,116.56109684813418 141.9884318766417,117.10415787404054 142.1966580976732,126.96960079166456 145.0424164524302,128.37245936496765 146.77763496141415,126.87909356877208 148.72107969154604,126.47181073875981 149.24164524429943,128.37245936496765 148.92930591269396,131.26866342290305 152.08740359905642,134.52686062821886 152.2609254498966,136.69897306367056 156.66838046268094,137.0157381883473 157.57069408742245,136.47271206229925 157.57069408742245,130.63512109863223 161.59640102821868,129.36803256353596 161.76992287917528,103.79888869312708 172.14652956300415,103.02951891670818 181.0655526992632,103.16529019264271" stroke="#4dd2ff" stroke-linecap="round" stroke-linejoin="round" stroke-width="0.5"><title>2023-03-01 10.1km</title></polyline><polyline fill="none" points="67.0,169.1738318472926 65.70699432888068,169.0407151580439 65.43478260864504,163.67162673178245 49.782608695561066,163.3610154063499 41.51417769375257,164.02661071473267 40.935727788251825,164.95844169621705 40.765595463104546,171.74740970510175 41.412098298664205,187.63211453758413 40.69754253292922,189.58436731112306 37.7372400755994,189.9836901964445 37.02268430986442,189.22941319464007 36.54631379956845,181.1097245189594 34.53875236294698,180.3554254824412 34.470699433004484,177.51569466292858 32.12287334597204,174.63156587650883 29.74102079391014,174.94216567691183 26.372400756110437,173.3891634986212 22.867674858076498,174.14347983410698 22.05103969760239,171.83615338039817 18.069943289039657,171.03745937062195 17.45746691862587,169.70629802066833 17.45746691862587,166.3339964914776 15.926275992300361,166.6889773629082 14.90548204141669,168.1088967002579 13.27221172011923,168.64136474052793 13.034026464796625,169.57318156486144 14.122873345972039,172.6348452900711 16.402646502829157,174.23222280925256 16.538752362830564,176.5839022034197 21.778827977133915,177.07198432442965 21.84688090730924,186.8778316968237 24.60302457457874,188.07580945148948 26.712665406404994,186.61161377636017 28.413988657761365,186.5672441002971 28.85633270314429,188.29765666543972 28.413988657761365,190.60485808583326 31.74858223053161,194.37620729123591 31.850661625619978,196.3727849748684 36.17202268424444,196.68336254628957 37.226843100157566,196.1065753751609 36.58034026471432,181.15409499238012 34.572778827976435,180.31105489257607 33.858223062357865,176.62827333755558 31.95274102059193,174.63156587650883 29.706994328880683,175.07527977996506 26.440453686052933,173.5222782822093 23.003780718310736,174.1878513249685 22.153119092574343,171.96926884449203 18.47826086950954,171.48117852414725 17.525519848801196,169.66192587511614 17.45746691862587,166.51148697911412 15.994328922475688,166.73334994280594 15.17769376176875,168.02015193621628 13.442344045266509,168.55262013198808 13.0,169.44006505073048 14.224952740827575,172.9010754599003 16.33459357265383,174.23222280925256 16.57277882786002,176.62827333755558 21.812854442279786,177.16072644406813 22.05103969760239,187.05531018067268 24.943289224989712,188.07580945148948 26.644612476229668,186.70035310907406 28.37996219273191,186.38976533114328 28.890359168173745,188.38639550554217 28.37996219273191,190.42738167571952 31.6805293004727,194.19873308425304 31.816635160706937,196.23968020422035 36.1379962193314,196.72773074486759 37.1247637050692,195.75162887948682 36.64839319465682,181.24283591934363 36.274102079332806,180.62164888571715 34.572778827976435,180.31105489257607 34.50472589780111,177.47132365830475 32.53119092620909,174.98653705097968 31.51039697532542,174.45408013355336 29.638941398705356,175.0309084187029 26.712665406404994,173.4335350995825 22.96975425328128,174.14347983410698 22.085066162399016,171.92489702953026 18.4442344045965,171.3924347453285 17.627599243773147,169.70629802066833 17.45746691862587,166.42274174827617 15.994328922475688,166.73334994280594 15.075614366563968,168.15326907252893 13.136105860001408,168.90759841055842 13.850661625619978,172.23549959776574 16.402646502829157,174.14347983410698 16.64083175791893,176.67264446549234 21.84688090730924,177.11635538749397 22.153119092574343,187.05531018067268 24.739130434812978,188.07580945148948 26.81474480149336,186.65598344587488 28.448015122907236,186.38976533114328 28.890359168173745,188.29765666543972 28.482041587820277,190.69359625218203 31.782608695561066,194.28747020071023 31.95274102059193,196.28404846752528 36.37618147430476,196.72773074486759 37.192816635011695,196.1509436580236 37.26086956518702,190.3830125569948 40.86767485830933,189.53999806928914 41.27599243854638,188.8744586633402 41.20793950848747,167.0883303474984 41.65028355375398,163.9822377395176 64.89035916829016,163.27226925513241" stroke="#4dd2ff" stroke-linecap="round" stroke-linejoin="round" stroke-width="0.5"><title>2023-02-22 10.2km</title></polyline><polyline fill="none" points="133.0,180.3285610726998 136.4768273716909,180.30665723681886 141.53250388802553,180.40522439748383 146.96189735614462,180.34498894121134 147.41119751166843,180.39427250355584 148.8598755832063,180.22999371042897 157.94245723172207,179.75905717969727 159.27356143080397,179.85214975382405 160.0251944012416,179.77548529782143 163.00653188180877,179.75905717969727 164.54758942457556,179.87405385531747 169.61166407466226,179.64953620824235 174.15925349923782,179.6550122644221 174.8059097978403,179.68239253328284 175.03685847589804,179.87952987869357 175.38958009330963,179.86310180617147 175.67091757386515,179.67691648111577 177.64027993779746,179.61120379262866 181.9653188180382,179.66596437436965 182.3180404354498,179.60025166669584 186.06360808708996,179.59477560251253 187.0,179.69882068501101" stroke="#4dd2ff" stroke-linecap="round" stroke-linejoin="round" stroke-width="0.5"><title>2023-02-17 11.0km</title></polyline><polyline fill="none" points="13.0,240.11332024751755 13.72473294986412,240.11814229610536 13.787592440421577,240.32548971899087 14.634346754319267,240.2579813987395 23.626951520127477,240.28691355289266 24.688167625310598,240.3544218139832 26.503697617081343,240.27726950432407 26.843878389481688,240.33031173657946 29.184470008214703,240.33031173657946 38.63927691044228,239.78059719358498 39.89276910436456,239.8481064902444 43.36483155298629,239.78059719358498 44.7995069843746,239.86257275014214 48.75595727197651,239.67933298969 50.7822514379659,239.72273197225877 52.78266228431312,239.67451087699374 53.48890714872687,239.71790986590713 53.70706655710819,239.88186108679292 54.00287592440145,239.86739483535712 54.27649958914844,239.6889772129689 55.55957271979423,239.64557818601315 67.0,239.67933298969" stroke="#4dd2ff" stroke-linecap="round" stroke-linejoin="round" stroke-width="0.5"><title>2023-02-03 12.5km</title></polyline><polyline fill="none" points="187.0,229.23979689989937 185.6500000001397,229.0197384695348 185.0425000000978,223.38618792418856 161.14749999996275,223.87032531161094 160.7087500001071,224.88261006231187 161.3162500000326,236.36960307759 160.67500000004657,242.75107662932714 161.28250000008848,245.78773037579958 160.80999999993946,248.9123711239954 160.2362500000745,249.5284936441749 157.19874999998137,249.66051973446156 156.69250000000466,249.08840625835 156.05125000001863,240.68261380016338 154.16125000000466,240.19850342778955 154.12749999994412,237.38184583259863 151.89999999990687,234.69719455292216 149.3012499999022,234.87323799266596 146.29749999986961,233.33285440714099 142.61875000002328,234.08104170378647 141.84250000002794,231.92449680849677 138.12999999988824,231.08828136944794 137.4549999999581,229.85595964983804 137.15125000011176,226.24698847485706 135.7674999999581,226.55507306774962 134.78874999994878,228.09549130665255 133.16874999995343,228.40357400928042 133.0,229.2838085666299 134.1137499999022,232.5406540679105 136.40874999994412,233.90499780108803 136.54374999995343,236.36960307759 141.6737500000745,236.85371960210614 142.01124999998137,246.66791414652835 144.8125,247.94417604699265 146.70250000001397,246.44786844492774 148.5587499999674,246.4038592852594 148.35624999995343,250.40866648749216 151.6975000000093,253.88532408283208 151.83250000001863,256.0857195536955 155.74750000005588,256.48178903211374 156.82750000001397,255.8216729456908 156.2537500000326,240.8586537426163 154.16125000000466,240.06647319122567 154.1950000000652,237.60189815540798 153.18249999999534,235.97350716067012 151.63000000000466,234.3891182858497 149.46999999997206,234.9172488366312 146.33124999993015,233.33285440714099 142.78749999997672,234.08104170378647 141.7074999999022,231.748451645748 138.63624999998137,231.57240638017538 137.55624999990687,229.8999712266086 137.28625000012107,226.24698847485706 135.9024999999674,226.55507306774962 135.19374999997672,227.83142016801867 133.40500000002794,228.40357400928042 133.0,229.23979689989937 134.14750000007916,232.62867643072968 136.40874999994412,234.1250526632648 136.57750000001397,236.45762432157062 141.64000000001397,236.63366673281416 142.0450000000419,246.75593238216243 144.77874999993946,247.9881849816884 146.972500000149,246.31584094685968 148.45750000001863,246.22782258261577 148.3224999998929,250.4526750621444 151.6637500000652,253.92933214979712 151.76500000013039,256.04171180180856 155.34250000002794,256.61381207578233 156.625,256.17373503843555 156.8612500000745,255.513618277153 156.7600000000093,244.99556278373348 156.1524999999674,240.59459379015607 154.39750000007916,240.28652355322265 153.89124999998603,236.80970904108835 151.83250000001863,234.5211510102963 149.50374999991618,235.00527050497476 146.33124999993015,233.37686547604972 142.72000000008848,234.1690636165149 142.0450000000419,231.92449680849677 139.00749999994878,231.4843837087683 137.75874999992084,230.3400866407028 137.3200000000652,226.33501267645624 133.16874999995343,228.79967987834243 134.14750000007916,232.5406540679105 136.4762500000652,234.1690636165149 136.6112499999581,236.45762432157062 141.5725000000093,236.76569847358041 142.0450000000419,246.84395059215603 144.77874999993946,247.94417604699265 146.93875000008848,246.31584094685968 148.45750000001863,246.22782258261577 148.82874999998603,248.07620283166762 148.3224999998929,250.3206493187463 151.63000000000466,253.92933214979712 151.73124999995343,255.99770404348965 156.18625000002794,256.3497659304703 156.99625000008382,255.68964955490083 156.89500000001863,250.23263212450547 160.20250000001397,249.4404762183549 160.9787500000093,248.2522384543845 161.24875000002794,223.914337762777 185.21125000005122,223.47421296162065" stroke="#4dd2ff" stroke-linecap="round" stroke-linejoin="round" stroke-width="0.5"><title>2023-01-30 10.2km</title></polyline></svg>