<?xml version="1.0" encoding="utf-8" ?>
<svg baseProfile="full" height="300mm" version="1.1" viewBox="0,0,200,300" width="200mm" xmlns="http://www.w3.org/2000/svg" xmlns:ev="http://www.w3.org/2001/xml-events" xmlns:xlink="http://www.w3.org/1999/xlink"><defs /><rect fill="#222222" height="300" width="200" x="0" y="0" /><text fill="#FFFFFF" style="font-size:12px; font-family:Arial; font-weight:bold;" x="10" y="20">Over 10km Runs</text><text fill="#FFFFFF" style="font-size:4px; font-family:Arial" x="10" y="280">ATHLETE</text><text fill="#FFFFFF" style="font-size:9px; font-family:Arial" x="10" y="290">chending</text><text fill="#FFFFFF" style="font-size:4px; font-family:Arial" x="120" y="280">STATISTICS</text><text fill="#FFFFFF" style="font-size:3px; font-family:Arial" x="120" y="285">Number: 17</text><text fill="#FFFFFF" style="font-size:3px; font-family:Arial" x="120" y="290">Weekly: 1.2</text><text fill="#FFFFFF" style="font-size:3px; font-family:Arial" x="141" y="285">Total: 193.1 km</text><text fill="#FFFFFF" style="font-size:3px; font-family:Arial" x="141" y="290">Avg: 11.4 km</text><text fill="#FFFFFF" style="font-size:3px; font-family:Arial" x="167" y="285">Min: 10.0 km</text><text fill="#FFFFFF" style="font-size:3px; font-family:Arial" x="167" y="290">Max: 16.1 km</text><polyline fill="none" points="49.17537881399039,32.25 43.686399954371154,32.385914885177044 44.79809187538922,36.644551108649466 44.27698628732469,57.21203470430919 44.659130385145545,63.69005654277862 44.55490926769562,65.09436510995147 43.89484218962025,65.50206640633405 41.115612387191504,65.68326681040344 40.386064563994296,65.1849654444668 39.83021860360168,56.48721265551285 37.85001736949198,55.852991973020835 37.85001736949198,53.22549247200368 35.45293166488409,50.099645106412936 32.916884470381774,50.37145917140879 29.616549080004916,48.876478865218814 26.003550337045453,49.55601626151474 24.71815655345563,47.01906905177748 21.244119300623424,46.611343457363546 20.54931184987072,45.388163458002964 20.375609987298958,41.5826837180648 18.77755285112653,41.8092016762821 17.804822420119308,43.25891269129352 15.824621186009608,44.210281861858675 16.901572734466754,47.97042668744689 19.333398811519146,49.55601626151474 19.680802536662668,52.18354685077793 24.822377671138383,52.22884890710702 25.30874288652558,62.73874712639372 27.914270826033317,63.916558354656445 29.65128945268225,62.37634277169127 31.562009941670112,62.013937993586296 32.117855902179144,63.82595764970756 31.735711804474704,66.45336734692683 35.00130682217423,70.03204475078383 35.20974905742332,72.16111171717057 39.41333413333632,72.75 40.490285681793466,71.97991509750136 40.42080493667163,60.83611953994841 39.795478231157176,56.260705417749705 37.919498114613816,55.76238891261164 37.85001736949198,53.04428478941554 37.05098880128935,51.82113016198855 35.07078756717965,49.78252839599736 32.812663352815434,50.280854509503115 29.512327962438576,48.69526864142972 26.038290709489956,49.55601626151474 24.996079533710144,47.06437186241965 21.487301908200607,46.7925548988278 20.584052222431637,45.206951195898 20.445090732420795,41.49207648841548 18.742812478449196,41.854505248047644 15.859361558570527,44.527404270134866 16.936313106911257,48.0610320243286 19.22917769383639,49.42010890127858 19.541841046651825,52.00233855936676 24.92659878882114,52.54596311613568 24.961339161149226,62.466943900159094 27.601607473450713,63.87125800544163 29.790250942809507,62.240441029542126 31.735711804474704,62.10453922781744 31.839932922041044,66.81576693765237 35.00130682217423,70.12264364270959 35.45293166488409,72.25170998720569 39.76073785871267,72.52350463886978 40.5597664269153,71.66282075841445 39.96918009384535,56.668418326589745 39.58703599590808,55.98889651411446 37.919498114613816,55.717087372380774 37.57209438935388,52.3194529999746 35.07078756717965,49.8278308029694 33.02110558806453,50.32615684380289 29.72077019768767,48.78587376646465 26.07303108216729,49.51071381469956 25.16978139639832,47.200280254968675 21.34834041830618,46.430131910019554 20.479831104981713,41.49207648841548 18.812293223454617,41.8092016762821 17.735341675113887,43.21360932462267 15.894101931131445,44.02906891150633 16.2762460289523,49.51071381469956 19.12495657627005,49.51071381469956 19.75028328190092,52.13824478787137 24.822377671138383,52.63656711622025 25.065560278715566,62.55754500196781 27.740568963461556,63.82595764970756 29.75551057024859,62.28574161679717 31.666231059236452,61.96863736648811 32.15259627485648,63.916558354656445 31.59675031423103,66.31746739108348 32.5,67.85766340245027 35.036047194502316,69.98674529476557 35.31397017487325,72.20641085549141 39.3785937607754,72.61410280325799 40.5597664269153,71.79871837203973 40.00392046617344,56.71371972779161 39.51755525090266,55.852991973020835 37.98897885961924,55.80769044609042 37.641575134242885,52.274150956916856 35.10552793974057,49.78252839599736 32.882144097820856,50.37145917140879 29.790250942809507,48.74057120725047 26.038290709489956,49.51071381469956 24.961339161149226,46.97376623447053 21.383080790634267,46.38482900671079 20.688273339997977,44.98043571942253 20.479831104981713,41.537380106485216 18.67333173332736,41.89980881320662 17.943783910246566,43.12300257146126 15.824621186009608,44.436797900823876 17.17949571472127,48.287545250728726 19.263918066513725,49.51071381469956 19.611321791657247,52.13824478787137 23.363282024860382,51.911734373949 24.857118043582886,52.59126511955401 24.961339161149226,62.42164333924302 27.775309336022474,63.69005654277862 29.75551057024859,62.28574161679717 31.63149068679195,61.96863736648811 32.15259627485648,63.780657287250506 31.735711804474704,66.7704670120147 35.00130682217423,70.03204475078383 35.10552793974057,72.25170998720569 35.9045565079432,72.16111171717057" stroke="#4dd2ff" stroke-linecap="round" stroke-linejoin="round" stroke-width="0.5"><title>2023-06-19 10.7km</title></polyline><polyline fill="none" points="97.75,44.43260368882329 96.86072772892658,44.167539562578895 96.75909661222249,40.290941322469735 96.22553324955516,39.992738713364815 79.38017565873452,40.22467410992249 78.36386449181009,40.65541064557328 78.28764115425292,59.275700404527015 75.97553324955516,59.83892378612654 75.44196988712065,59.37509286761633 74.90840652445331,53.14641436081729 73.58720200741664,52.74883332983882 73.48557089082897,50.66152148338733 71.9356963612372,48.54105803447601 69.75062735262327,48.60732281731907 67.33688833122142,47.480818876152625 64.74529485567473,47.97780659876298 64.13550815556664,46.35430934003671 62.00125470513012,46.02298194116156 61.010351317352615,45.29405995977868 60.654642409062944,42.14641541398305 59.4858845671406,42.37834860813746 58.6474278542446,43.53801102134457 57.50407779158559,43.83620896920911 57.2754077790305,44.366337686311454 57.96141781681217,45.559122769511305 58.037641154252924,46.751901579860714 59.816185696283355,48.077204012530274 60.01944792980794,49.86635001312243 63.906838143011555,50.23080394975841 64.05928481800947,57.51975970879721 66.19353826832958,58.51369007404719 67.5655583437765,57.42036643279425 68.93757841887418,57.28784199694928 68.86135508154985,60.40214576935978 71.3005018819822,63.0194531067973 71.35131744027603,64.57657099256176 74.24780426593497,64.87474128334725 75.08626097859815,64.87474128334725 75.41656210785732,64.37779058099841 74.98462986189406,54.17349546561309 74.73055207019206,52.914492177427746 73.5363864491228,52.71570154573419 73.23149309901055,50.36333250872849 71.83406524464954,48.54105803447601 71.24968632368837,48.24286627219408 69.8268506899476,48.57419042836409 67.5655583437765,47.480818876152625 64.79611041396856,47.94467411772348 64.11010037630331,46.3211766218883 62.05207026342396,46.02298194116156 61.010351317352615,45.29405995977868 60.654642409062944,42.179548742002225 59.4858845671406,42.4446151915472 57.25,44.26693864625122 58.088456712663174,46.818166885423125 59.79077791713644,48.0440715461591 59.94322459213436,49.76695338339778 63.906838143011555,50.29706823886954 64.08469259715639,57.58602186862845 66.11731493100524,58.51369007404719 67.48933500621933,57.42036643279425 68.96298619813751,57.38723533105804 68.8105395231396,60.20336169975053 71.3005018819822,63.05258338582644 71.50376411539037,64.642831091056 75.34033877030015,64.57657099256176 74.90840652445331,53.24580950976815 73.48557089082897,52.61630616459297 73.00282308657188,49.932614408797235 71.40213299856987,48.24286627219408 69.75062735262327,48.57419042836409 67.51474278536625,47.447686322557274 64.79611041396856,47.97780659876298 64.18632371386047,46.35430934003671 62.02666248427704,46.02298194116156 60.9849435382057,45.12839554641687 60.70545796735678,42.179548742002225 59.56210790458135,42.31208200551919 58.77446675032843,43.43861161827226 57.300815558293834,44.13440652504505 58.037641154252924,46.78503423510119 59.79077791713644,47.97780659876298 60.01944792980794,49.89948221342638 63.93224592227489,50.19767179789778 63.98306148056872,57.45349752967013 64.89774153067265,58.21551142168755 66.24435382685624,58.48055913198914 67.5655583437765,57.35410422454879 68.91217063984368,57.28784199694928 68.91217063984368,60.56779902774724 71.32590966112912,63.08571366011165 71.50376411539037,64.60970104417356 74.73055207019206,65.00726128664974 75.34033877030015,64.60970104417356 74.90840652445331,53.080150904119364 73.51097866997588,52.649437963205855 73.4093475532718,50.4627288771444 71.70702634868212,48.40852841081505 69.80144291080069,48.60732281731907 67.61637390207034,47.447686322557274 66.574654955999,47.6464815713116 67.48933500621933,47.51395142490219 69.67440401494969,48.67358758090995 71.3005018819822,48.34226356988074 72.59629861975554,49.369366428640205 73.4093475532718,50.42959675924794 73.38393977412488,52.61630616459297 74.93381430360023,53.01388742798008 75.31493099103682,56.75774347939296" stroke="#4dd2ff" stroke-linecap="round" stroke-linejoin="round" stroke-width="0.5"><title>2023-06-02 10.0km</title></polyline><polyline fill="none" points="102.25,52.722924273621175 115.39662694190338,52.76788327399299 116.40503298574185,52.662978817175826 122.4324856352323,52.33327630203894 123.05878910406318,52.337022945333956 123.4753670993814,52.39696916370849 125.90013832729892,52.33327630203894 127.09528623110964,52.41195569639967 130.02569695679995,52.277076586846306 133.44450947010773,52.26208997532376 134.09379655246448,52.28082323835406 134.26904660566652,52.419448959466536 134.53335816132312,52.40446243115548 134.69424345604784,52.277076586846306 136.02154713768687,52.23211672600701 142.75,52.25459666628194" stroke="#4dd2ff" stroke-linecap="round" stroke-linejoin="round" stroke-width="0.5"><title>2023-05-09 12.1km</title></polyline><polyline fill="none" points="187.75,44.452648139500525 187.18428571429104,44.28498464697623 187.00428571435623,39.85862415077281 184.71571428573225,39.82509079101146 184.07285714289173,40.29455738278921 178.95571428572293,39.79155742631701 168.56714285712224,40.39515724183002 168.23285714292433,53.23804382041271 168.54142857145052,59.407739052330726 167.71857142844237,59.910696027916856 165.9957142857602,59.97775687473768 165.50714285718277,59.57539150006778 165.01857142860536,53.13744958968891 163.63000000000466,52.63447777417605 163.68142857134808,50.72317482481594 162.03571428568102,48.47653522218752 159.72142857150175,48.57713149547635 157.53571428568102,47.43703781631484 154.7071428571362,47.90648884057009 154.29571428580675,46.397535703348694 151.7757142856717,45.961614061452565 150.87571428564843,45.12330088499584 150.6699999999255,42.13888112654968 149.5899999999674,42.30654618659173 148.74142857128754,43.37959967114148 147.48142857151106,43.78199343457527 147.2757142856717,44.41911545082985 147.91857142862864,46.59873002812674 149.77000000001863,47.97355319427152 149.8985714284936,49.85134714188462 153.93571428582072,50.28726139727223 153.96142857137602,57.66414633889508 156.06999999994878,58.67006682824285 157.56142857135274,57.5300232739537 158.82142857147846,57.362369332578965 159.25857142859604,58.53594435090781 158.94999999995343,60.61483394262905 161.44428571430035,63.23018443150795 161.49571428564377,64.7390269300231 164.68428571429104,65.20844257369754 165.5585714285262,64.53784850318334 165.12142857140861,53.439232149903546 164.83857142855413,52.835666632599896 163.65571428567637,52.60094628066872 163.60428571433295,50.656111274452996 162.62714285717811,49.247772191112745 161.5214285714319,48.20827827771427 159.87571428564843,48.61066357673553 157.6642857142724,47.43703781631484 154.83571428561118,47.90648884057009 154.2442857142305,46.330470889253775 151.98142857139464,45.89454912004294 151.0042857141234,45.19036605169822 150.69571428571362,42.10534809985256 149.46142857149243,42.34007918389398 147.2757142856717,44.28498464697623 148.14999999990687,46.96758583205519 149.84714285703376,48.007085363788065 149.94999999995343,49.81781524192775 153.93571428582072,50.28726139727223 153.98714285716414,57.56355404756323 156.06999999994878,58.60300559937605 157.61285714281257,57.63061557995388 158.92428571428172,57.46296171208087 159.31000000005588,58.67006682824285 159.02714285708498,60.64836426562397 161.41857142851222,63.16312453482533 161.59857142856345,64.87314578333462 165.60999999998603,64.80608636638499 165.12142857140861,53.13744958968891 163.65571428567637,52.63447777417605 163.7071428571362,50.68964305213012 162.9357142857043,49.48249597166432 161.49571428564377,48.10768184279732 159.87571428564843,48.47653522218752 157.56142857135274,47.36997330599115 154.73285714292433,47.94002101980732 154.0899999999674,46.22987363138236 152.0585714285262,45.928081593243405 151.0042857141234,45.12330088499584 150.61857142858207,41.97121594402415 149.4357142857043,42.30654618659173 147.25,44.15085376476054 148.0471428571036,46.90052118456515 149.79571428569034,47.97355319427152 149.97571428574156,49.85134714188462 153.85857142857276,50.28726139727223 154.0642857142957,57.56355404756323 156.12142857140861,58.636536216276 158.8471428572666,57.32883852966188 159.20714285725262,58.636536216276 158.97571428574156,60.68189458378765 161.3671428570524,63.16312453482533 161.57285714289173,64.80608636638499 164.89000000001397,65.07432391637121 165.60999999998603,64.50431874825153 165.14714285719674,53.20451241506089 163.63000000000466,52.56741478218464 163.5528571427567,50.253729560936335 161.62428571435157,48.174746137694456 159.92714285710827,48.54359940921131 157.4842857142212,47.30290877597872 154.88714285718743,47.90648884057009 154.14142857142724,46.196341202332405 151.49285714281723,45.79395167111943 150.8242857141886,44.75444211742433 150.69571428571362,42.10534809985256 149.5642857142957,42.30654618659173 148.7928571428638,43.37959967114148 147.45571428572293,43.714927856315626 147.25,44.385582757153315 147.8414285714971,46.59873002812674 149.77000000001863,47.97355319427152 149.97571428574156,49.85134714188462 153.9100000000326,50.253729560936335 154.0899999999674,57.66414633889508 156.06999999994878,58.67006682824285 158.87285714282189,57.362369332578965 159.23285714280792,58.804189227113966 158.92428571428172,60.54777328189812 161.41857142851222,63.19665448562591 161.54714285722002,64.77255665065604 164.68428571429104,65.14138325488602" stroke="#4dd2ff" stroke-linecap="round" stroke-linejoin="round" stroke-width="0.5"><title>2023-05-07 11.2km</title></polyline><polyline fill="none" points="12.25,101.45651657801318 14.355244134858367,101.42527909871569 19.939064861668157,101.45304574901093 21.14738450416189,101.50510813084657 21.373611750008422,101.47039988896358 24.311904448957648,101.47734154140016 31.069445357163204,101.08860588155221 31.961046855489258,101.13719818688332 34.83280212919635,101.09901852677285 35.29057961489889,101.16496517388805 37.90150818163238,101.02612991436217 41.41468423473998,101.01224634378377 41.758017349013244,101.02612991436217 41.94698363672069,101.16149430228143 42.18119537360326,101.14761081081815 42.35419267923862,101.02960080574485 43.57848130380444,100.99489186915343 52.75,100.99836276509268" stroke="#4dd2ff" stroke-linecap="round" stroke-linejoin="round" stroke-width="0.5"><title>2023-05-05 13.0km</title></polyline><polyline fill="none" points="97.75,93.19753243243031 97.15819567989092,92.8955462762824 96.8751588310115,88.60058907841449 84.03557814483065,88.76836235132942 78.55495552730281,89.40589967054257 78.4777636595536,108.1621268595627 75.9561626430368,108.76605863486475 75.41581956797745,108.26278226569411 75.00412960606627,101.92140553831996 73.5374841169687,101.55232531133515 73.51175349426921,99.2371721794043 71.76207115629222,97.19042316579726 69.70362134685274,97.35819016450841 67.46505717909895,96.25092570821289 64.66041931393556,96.7542283955263 64.17153748415876,95.17720962285239 61.72712833539117,94.8081185593037 60.852287166402675,93.90216525251162 60.5435196950566,90.9158494205185 59.46283354505431,91.11717530382157 58.84529860224575,92.0566937597032 57.55876747134607,92.56000563724956 57.27573062258307,93.19753243243031 57.97045743325725,95.44563911478326 59.797331639099866,96.85488880057528 59.90025412966497,98.56610893855395 63.91423125797883,98.93519396359625 64.06861499371007,106.41742614484974 66.12706480303314,107.42398586671334 67.54224904696457,106.28321784871514 68.90597204572987,106.08190525750979 69.34339263022412,107.42398586671334 69.03462515876163,109.40354045311688 71.42757306213025,111.98700128871133 71.53049555269536,113.59745568018116 74.72109275730327,113.93296559085138 75.51874205854256,113.19484314076544 75.41581956797745,105.14244416559814 75.05559085134882,101.85430008661933 73.56321473955177,101.41811417274585 73.48602287156973,99.1700659434864 71.42757306213025,97.05620947851276 69.88373570516706,97.42529692972312 67.5165184243815,96.28447925503133 64.68614993651863,96.72067491726193 64.27445997460745,95.21076332655502 61.93297331640497,94.8752260695328 60.92947903415188,94.00282690748281 60.69790343067143,90.8151864126994 59.51429479033686,91.08362100220984 58.690914866514504,92.15735622339707 57.58449809392914,92.45934334989579 57.25,93.16397843463346 57.99618805584032,95.61340738789295 59.77160101640038,96.85488880057528 59.90025412966497,98.63321535072464 63.296696315170266,98.70032174354128 63.965692503144965,99.13651281823695 64.04288437101059,106.38387407823757 66.17852604831569,107.42398586671334 67.56797966954764,106.38387407823757 68.93170266819652,106.21611367119476 69.29193138505798,107.45753778149083 69.00889453617856,109.5377469262894 71.35038119438104,111.95345003552211 71.55622617539484,113.63100669336563 74.82401524775196,113.89941462180286 75.51874205854256,113.42970054129546 75.10705209651496,101.95495825679973 73.6146759847179,101.41811417274585 73.46029224910308,99.13651281823695 71.55622617539484,97.05620947851276 69.85800508258399,97.35819016450841 67.49078780168202,96.25092570821289 64.89199491741601,96.78778186884301 64.22299872944131,95.1101022008661 61.62420584494248,94.7410110294586 60.878017788985744,93.70084181017592 60.620711562922224,90.8822950894828 59.48856416775379,91.08362100220984 58.768106734380126,92.19091036816826 57.25,92.99620837245311 57.94472681067418,95.74762191808259 59.797331639099866,96.92199571280798 59.90025412966497,98.70032174354128 63.93996188067831,99.10295968799619 64.09434561629314,106.48453026352217 66.1527954256162,107.45753778149083 68.13405336719006,106.18256157517317 69.00889453617856,106.31676993014116 68.82878017786425,109.26933390162594 71.4018424396636,112.02055253696744 71.55622617539484,113.63100669336563 75.33862770011183,113.76521069674345 75.51874205854256,109.06802392727695 78.16899618820753,108.53119646645791 78.5806861500023,107.79305665954598 78.68360864045098,89.13746312026342 85.75952986022457,88.56703440916317 92.19218551472295,88.73480770653987" stroke="#4dd2ff" stroke-linecap="round" stroke-linejoin="round" stroke-width="0.5"><title>2023-04-17 10.1km</title></polyline><polyline fill="none" points="102.25,101.49122132402772 106.61705202310986,101.46860706205553 107.99855491328344,101.52137364249029 109.17196531791706,101.4723761070909 111.79046242774348,101.52891171660303 113.04190751444548,101.48745228174084 115.47543352600769,101.52137364249029 116.51878612716973,101.41207132039563 122.45231213873194,101.09169977744386 123.68352601156221,101.13315984829205 126.20664739883796,101.07662337152578 127.30202312138863,101.15200531301343 129.79913294797007,101.02762499144774 133.9060693641659,101.01254854806939 134.32803468208294,101.02385588142533 134.51589595376572,101.15954349505046 134.77023121387174,101.15577440430388 134.92341040461906,101.03893231818438 136.0332369942189,100.99370298148642 139.94075144507224,100.98239563491188 140.1604046242719,101.03516320981544 140.5881502890261,100.97862651829746 141.5997109826567,100.97108828339879 142.75,101.02762499144774" stroke="#4dd2ff" stroke-linecap="round" stroke-linejoin="round" stroke-width="0.5"><title>2023-04-14 12.0km</title></polyline><polyline fill="none" points="187.75,93.28807205246994 187.10591603047214,93.28807205246994 187.23473282437772,88.85326883856033 175.64122137404047,88.7860741927725 168.55629770993255,89.35722805606201 168.50477099244017,108.17091537134547 167.9637404580135,108.64123783705872 166.03148854954634,108.7084266821621 165.46469465643167,108.30529331676371 165.02671755722258,101.88865878975776 163.58396946568973,101.55270440642198 163.55820610688534,99.33539316931274 161.96087786264252,97.28604104742408 161.1879770992091,96.98367607370892 159.8998091602698,97.35323320981115 157.32347328250762,96.21096377937647 154.7986641221214,96.68131070252275 154.1030534352176,95.00149584600877 151.81011450383812,94.79991723870626 150.95992366410792,93.99360104279185 150.57347328250762,90.8690990825562 149.51717557245865,91.0370841386466 148.74427480925806,92.14578243164578 147.45610687020235,92.48175055609317 147.50763358792756,96.88288766086043 149.74904580158181,96.78209920384688 150.10973282437772,98.76426408551924 153.30438931309618,98.69707233537338 153.97423664131202,99.0666267182969 154.15458015270997,106.45758968457812 156.16412213735748,107.3310514332552 157.65839694661554,106.18883155606454 158.92080152663402,105.9536679360026 159.33301526715513,107.43183526782377 159.0238549618516,109.21234239534533 161.44561068702023,112.03424998726405 161.52290076343343,113.4787845240935 164.8721374045126,113.84831515768019 165.59351145033725,113.14284706923354 165.25858778622933,103.29966184089426 164.9751908397302,101.72068165944074 163.58396946568973,101.21674953246838 163.60973282437772,99.53696780141036 163.12022900755983,98.59628467334551 161.6774809161434,96.88288766086043 159.8998091602698,97.35323320981115 157.58110687020235,96.14377128334309 154.90171755722258,96.68131070252275 153.87118320609443,94.79991723870626 151.4751908397302,94.76632078703551 150.75381679390557,93.59044188477856 150.57347328250762,90.76830799004529 147.45610687020235,92.44815376568295 147.94561068713665,95.47184524251497 149.8263358778786,96.74850304162828 149.95515267166775,98.59628467334551 153.89694656489883,98.99943505652482 154.07729007629678,106.39040018191736 156.26717557245865,107.36464604971115 157.52958015259355,106.35680542321643 158.92080152663402,106.0880471769342 159.0238549618516,109.44750268367352 161.4971374045126,111.96706211367564 161.70324427471496,113.61315936857136 164.9494274809258,113.84831515768019 165.54198473284487,113.17644083686173 165.12977099232376,102.09023118420737 164.79484732833225,101.55270440642198 163.6870229007909,101.45191799577151 163.50667938939296,99.10022254183423 161.6001908397302,96.98367607370892 159.87404580158181,97.35323320981115 157.50381679378916,96.21096377937647 154.8501908397302,96.78209920384688 154.0515267176088,94.96789942376199 151.526717557339,94.66553140238102 150.77958015270997,93.38886204072332 150.6765267176088,90.8690990825562 149.64599236648064,90.96989013091661 148.71851145033725,92.14578243164578 147.25,92.81771818984998 148.1001908397302,95.67342326091602 149.74904580158181,96.68131070252275 149.98091603058856,98.59628467334551 153.87118320609443,98.99943505652482 154.20610687020235,106.5583739017602 156.18988549616188,107.3310514332552 157.96755725191906,106.1552367679542 158.94656488555484,106.1552367679542 159.30725190835074,107.36464604971115 158.99809160304721,109.31312540557701 161.41984732821584,111.96706211367564 161.6001908397302,113.57956566484063 165.4131679389393,113.68034676151001 165.56774809164926,108.9771818666195 168.14408396952786,108.54045453245635 168.6593511449173,107.8685647068487 168.81393129762728,89.05485265802417 179.7375954198651,88.65168484231981" stroke="#4dd2ff" stroke-linecap="round" stroke-linejoin="round" stroke-width="0.5"><title>2023-04-03 10.0km</title></polyline><polyline fill="none" points="12.25,150.216722616904 17.69797687861137,150.22049166249417 21.446531791909365,150.28456535326404 25.48410404624883,150.2657201666152 26.49566473987943,150.16772497412785 32.671965317902504,149.83981527722426 33.660404624271905,149.8925826362738 36.18352601156221,149.82850797196443 36.86560693640786,149.84735347798232 37.26156069364515,149.9114280954891 39.787572254324914,149.77950959188638 43.859826589599834,149.76066403629557 44.307803468211205,149.77574048186398 44.544797687849496,149.90388991345208 44.77890173411288,149.8850444487307 44.937861271668226,149.77950959188638 46.21820809248311,149.7380493514229 49.096820809238125,149.76443314850803 49.874277456634445,149.7192037655568 50.00433526012057,149.76820226018208 51.44653179189481,149.71543464673596 51.53612716762291,149.75689492353195 52.49566473987943,149.74181846695137 52.75,149.79458602642808" stroke="#4dd2ff" stroke-linecap="round" stroke-linejoin="round" stroke-width="0.5"><title>2023-03-31 11.9km</title></polyline><polyline fill="none" points="57.25,149.13686417436475 57.38861950940918,149.18507015569048 67.85439247006434,149.21519883678957 68.74155733030057,149.13083841877778 73.62327438677312,148.8747421787739 74.33947518540663,148.9108971348669 76.67983456932416,148.87775509420499 77.2851397604245,148.92596168119417 79.29512264690129,148.8295483945294 82.42099258414237,148.81147085309567 82.91078151740658,148.83256131655617 83.05402167713328,148.9229487728153 83.19957216201874,148.93500040370964 83.39826012549747,148.82352254914622 84.64121505990624,148.7964062231331 95.80239589276607,148.79038036806196 95.98491158014804,148.83557423815182 95.98029092984507,149.38391863757533 95.90867084998172,149.54661142396435 95.93639475184318,149.88103145441346 96.03573873361165,149.97442707079972 96.22056474615238,149.9894908402839 96.2737022247602,150.14314066059887 96.51859669138503,150.08891144295376 96.72883628067211,150.1913442898931 96.846662863667,150.15820430685562 96.93676554478589,150.1943570129879 97.06845407873334,150.3721068964078 97.06845407873334,150.5528679186682 97.20476326298376,150.6010705903809 97.26021106675034,151.20961963193804 97.51665715915442,151.16744354476396 97.52127780947194,150.41127191900887 97.56286366230051,150.3811449851437 97.75,150.4052465357545" stroke="#4dd2ff" stroke-linecap="round" stroke-linejoin="round" stroke-width="0.5"><title>2023-03-15 16.1km</title></polyline><polyline fill="none" points="142.75,141.80463806349144 141.4175977653358,141.87020488339476 141.4175977653358,138.5262726431829 140.8896648043301,137.60832174308598 123.34217877092306,138.1984334669978 122.96508379885927,140.00154300896975 123.34217877092306,147.93505288912274 122.73882681573741,151.60666500950174 123.0907821226865,156.68781484368083 122.56284916191362,157.1795329163724 120.50139664800372,157.40900098158454 120.07402234640904,156.98284581660118 119.67178770934697,150.65598549126298 118.21368715085555,150.2625996850402 118.21368715085555,148.23009536831523 116.50418994412757,146.06644151372893 114.44273743010126,146.26313818065682 112.20530726248398,145.08295559318503 109.51536312839016,145.60748195380438 108.86173184355721,143.9027667992632 106.27234636864159,143.54215231887065 105.71927374298684,142.52587202895666 105.54329608939588,139.90319195290795 104.46229050273541,140.03432668467576 103.7835195530206,141.11618529785483 102.52653631288558,141.5095871368103 102.52653631288558,145.67304766272719 104.56284916191362,145.50913335462974 105.06564245803747,147.57444488791225 108.53491620114073,147.70557513725362 108.8114525139099,148.06618292782514 108.83659217879176,155.01596533835982 110.94832402234897,156.03218907101837 112.35614525142591,154.91762086190283 113.66340782120824,154.6881502494507 113.83938547491562,158.1957468528126 116.07681564241648,160.45762587069476 116.20251396647654,161.99831301993981 119.21927374298684,162.39167825691402 120.04888268152718,161.96553255246545 120.04888268152718,154.0653002615145 119.64664804458153,150.65598549126298 118.16340782109182,150.19703531701816 118.18854748597369,148.2628778420476 117.58519553067163,147.27940154683893 116.15223463671282,145.9025274929154 114.54329608939588,146.2959209416731 112.10474860330578,145.14852145523764 109.51536312839016,145.67304766272719 109.08798882679548,144.09946536259667 106.72486033511814,143.80441745300777 105.81983240216505,142.98483789105376 105.61871508380864,139.96875932838884 104.28631284914445,140.0998940218269 103.70810055860784,141.14896881079767 102.30027932964731,141.80463806349144 102.95391061448026,144.46007894756622 104.738826815621,145.54191622576036 105.04050279315561,147.57444488791225 108.73603351949714,147.7383576874854 108.88687150832266,155.08152829870232 110.97346368711442,155.93384503995185 112.45670391060412,154.88483936025295 113.71368715073913,154.78649482643232 114.04050279327203,155.99940773204435 113.63826815632638,157.8351553375105 116.02653631276917,160.3920644808095 116.20251396647654,161.99831301993981 119.2946927373996,162.32611743189045 120.04888268152718,161.96553255246545 120.04888268152718,153.67192043107934 119.62150837981608,150.65598549126298 118.18854748597369,150.36094620119547 118.21368715085555,148.3284427751496 116.35335195518564,146.0336587191996 114.61871508380864,146.3287036979891 112.10474860330578,145.14852145523764 109.64106145245023,145.70583051003632 109.03770949726459,144.0011161025177 106.37290502793621,143.73885119828628 105.64385474857409,142.42752207927697 105.56843575416133,140.00154300896975 104.4120111730881,140.06711035569606 103.70810055860784,141.14896881079767 102.25,141.83742147588055 102.97905027936213,144.55842800661048 104.81424581003375,145.70583051003632 104.88966480456293,147.4433145619987 108.761173184379,147.77114023313334 108.96229050285183,155.14709123985085 110.99860335187986,156.03218907101837 112.45670391060412,154.88483936025295 113.738826815621,154.8192763425468 113.738826815621,158.03184169041924 116.02653631276917,160.45762587069476 116.2779329608893,162.09665439378296 120.02374301664531,162.16221528577444 120.1494413408218,157.70403100656404 123.04050279327203,156.68781484368083 123.21648044686299,138.36235311492055 124.87569832406007,137.9033777990262 132.34217877092306,137.8705938119965" stroke="#4dd2ff" stroke-linecap="round" stroke-linejoin="round" stroke-width="0.5"><title>2023-03-06 10.0km</title></polyline><polyline fill="none" points="147.34822383908613,150.09230429475247 147.25,150.10360664667132 147.26155574579025,150.1827229713308 147.4464476781577,150.2430019129206 155.9630323133024,150.22793219073174 157.0926064626692,150.28444360353387 159.93531992298085,150.23169962210886 160.5073293387686,150.28067617987108 161.30467579714605,150.1751880937245 167.92034025251633,149.83234883361 168.6743526642531,149.89262859420342 171.34084100151085,149.84365129945036 172.2970789642859,149.90769851233563 174.00155146588804,149.87002370048867 174.8711213353381,149.7871389206921 178.8029638348089,149.76076643488705 179.32297239461332,149.78337142437704 179.58297667453007,149.9114659904917 179.77364647979266,149.89262859420342 179.91809330195247,149.77960392749992 181.0418895784387,149.73816142558098 183.85282473785628,149.73439392211367 184.27460945860366,149.77206893210496 184.46816820029926,149.73062641808065 187.1577680291084,149.71555639646613 187.75,149.76076643488705" stroke="#4dd2ff" stroke-linecap="round" stroke-linejoin="round" stroke-width="0.5"><title>2023-03-03 12.1km</title></polyline><polyline fill="none" points="52.75,190.46860689853202 52.7239717222983,186.12396764451114 41.063303341856226,185.98819635873951 34.21786632377189,186.46339551171695 33.723329048836604,187.2101350743469 34.06169665802736,197.76606032189738 33.54113110539038,200.24374820380763 34.08772493572906,201.73713635814784 34.00964010262396,205.80996436100395 31.562982004950754,206.28512297806446 30.75610539841,205.87784422296681 30.261568123358302,199.32734617551614 28.725899742916226,198.95399616492796 28.699871465214528,196.747824765509 27.32037275051698,194.8131649150746 26.46143958857283,194.47374924532778 25.05591259629,194.94893104425864 22.45308483275585,193.7270330266474 19.77217223646585,194.2700996055937 19.22557840612717,192.50512858343427 16.62275064259302,191.8262900050613 15.919987146393396,190.6722598702181 15.78984575823415,188.2623549298005 14.540488431812264,188.49995230221248 13.86375321331434,189.58610862493515 12.562339331489056,189.9255314344773 12.276028277585283,190.5704334066686 13.004820051253773,192.9803144082107 14.904884318704717,194.134333079739 15.008997429162264,196.17082263612247 18.00224935717415,196.001115854815 18.991323907393962,196.34052929354948 19.121465295553207,203.9772005937557 20.084511567954905,204.72388387344836 21.333868894493207,204.8935842843057 22.71336760907434,203.84143973961181 24.170951156760566,203.63779830970452 24.118894601473585,207.06573859682248 26.591580976732075,209.57726670970442 26.695694087306038,211.27422979776748 27.424485861090943,211.44392542507558 30.235539845656604,211.44392542507558 30.70404884312302,211.07059488157392 30.235539845656604,199.3612870559009 28.777956298086792,198.95399616492796 28.699871465214528,196.78176602252643 27.008033419027925,194.71134026625077 24.977827763417736,194.914989519355 22.505141387926415,193.7270330266474 19.876285346923396,194.30404122459004 19.251606683712453,192.6069541991019 16.778920308337547,192.13176761078648 15.972043701563962,191.24927565407415 15.711760925361887,188.29629742649558 14.540488431812264,188.49995230221248 13.733611825155094,189.68793551986164 12.25,190.40072253494873 12.92673521838151,192.9803144082107 14.774742930545472,194.23615798156243 15.113110539736226,196.27264664543327 17.27345758350566,196.001115854815 18.939267352223396,196.37447061002604 19.121465295553207,204.04508099105442 21.333868894493207,204.8935842843057 22.661311053903773,203.94326038766303 24.118894601473585,203.63779830970452 24.45726221066434,205.09722461370984 24.144922879058868,207.09967834690178 26.565552699146792,209.6451454711787 26.721722365007736,211.24029065750074 30.41773778910283,211.4099863095762 30.573907454963773,203.87537996054743 30.183483290369622,199.39522793129436 28.699871465214528,199.02187802972912 28.67384318751283,196.88358976415475 26.7737789201783,194.60951557281078 24.925771208130755,194.94893104425864 22.71336760907434,193.7270330266474 19.902313624625094,194.33798283859505 19.19955012842547,192.6069541991019 16.46658097684849,192.26753530661517 15.711760925361887,190.87591266346863 15.73778920294717,188.36418240494095 14.59254498698283,188.4660098353488 13.759640102740377,189.62005092817708 12.38014138804283,190.02735818071233 12.25,190.80802841877448 13.134961439529434,193.25184872897808 14.878856041003019,194.30404122459004 14.904884318704717,196.17082263612247 18.991323907393962,196.57811840555223 19.147493573254906,203.9772005937557 21.281812339206226,205.02934452373302 22.58322622103151,203.9093201765936 24.04080976860132,203.60385805407714 24.43123393319547,205.02934452373302 24.196979434462264,207.20149756719184 26.565552699146792,209.6451454711787 26.695694087306038,211.27422979776748 30.001285346923396,211.51180364127504 30.678020565537736,211.104534046739 30.678020565537736,206.72634082398145 33.697300771134906,205.77602442266652 33.82744215929415,186.59916651986714 41.609897172194906,186.02213918753841 48.2991645244183,186.12396764451114" stroke="#4dd2ff" stroke-linecap="round" stroke-linejoin="round" stroke-width="0.5"><title>2023-03-01 10.1km</title></polyline><polyline fill="none" points="97.75,190.63037388546218 96.78024574671872,190.53053636853292 96.57608695642557,186.50372004884412 84.83695652172901,186.2707615547697 78.63563327037264,186.7699580360495 78.20179584121797,187.4688312721555 78.07419659732841,192.56055727883358 78.55907372396905,204.47408590317355 78.02315689972602,205.93827548334957 75.80293005669955,206.2377676473261 75.26701323245652,205.67205989598006 74.90973534970544,199.5822933892341 73.40406427218113,199.01656911184546 73.35302457469516,196.886770997211 71.59215500950813,194.7236744073889 69.80576559551992,194.95662425766932 67.27930056711193,193.79187262395862 64.65075614361558,194.35760987557296 64.0382797732018,192.62711503529863 61.052457466721535,192.02809452796646 60.593100188998505,191.02972351550125 60.593100188998505,188.50049736861547 59.44470699422527,188.76673302218842 58.679111531120725,189.83167252519343 57.45415879006032,190.23102355540323 57.275519848568365,190.92988617364608 58.09215500939172,193.2261339675606 59.801984877092764,194.42416710693215 59.904064272064716,196.18792665256478 63.834120982908644,196.55398824330769 63.88516068039462,203.90837377260323 65.95226843096316,204.80685708860983 67.53449905477464,203.70871033225558 68.81049149332102,203.67543307521555 69.14224952738732,204.9732424990798 68.81049149332102,206.70364356436767 71.31143667292781,209.53215546841966 71.38799621921498,211.02958873113676 74.62901701324154,211.2625219097099 75.42013232514728,210.82993153137795 74.93525519850664,199.6155712442851 73.42958412098233,198.98329116942477 72.8936672967393,196.2212050031667 71.46455576550215,194.7236744073889 69.7802457466023,195.0564598349738 67.33034026459791,193.89170871165697 64.75283553870395,194.39088849372638 64.11483931937255,192.72695163336175 61.35869565210305,192.36088389311044 60.6441398866009,190.9964444063371 60.593100188998505,188.63361523432832 59.49574669182766,188.80001245711173 58.88327032129746,189.7651139521622 57.58175803394988,190.1644650990056 57.25,190.83004878804786 58.16871455567889,193.42580659492523 59.75094517949037,194.42416710693215 59.92958412086591,196.2212050031667 63.85964083170984,196.62054483304382 64.0382797732018,204.04148263551178 66.20746691874228,204.80685708860983 67.48345935717225,203.77526483181282 68.78497164451983,203.54232399835018 69.16776937618852,205.0397966291639 68.78497164451983,206.57053625678236 71.26039697532542,209.39904981320433 71.3624763705302,210.92976015315799 74.60349716444034,211.2957980586507 75.34357277874369,210.56372165960784 74.98629489599261,199.68212693950045 74.70557655952871,199.21623666428786 73.42958412098233,198.98329116942477 73.37854442337994,196.85349274372857 71.89839319465682,194.98990278823476 71.13279773155227,194.5905601001723 69.72920604899991,195.02318131402717 67.53449905477464,193.8251513246796 64.72731568990275,194.35760987557296 64.06379962188657,192.6936727721477 61.33317580341827,192.29432605899638 60.72069943277165,191.02972351550125 60.593100188998505,188.56705631120712 59.49574669182766,188.80001245711173 58.80671077489387,189.8649518043967 57.35207939508837,190.43069880790426 57.88799621921498,192.92662469831703 59.801984877092764,194.35760987557296 59.98062381835189,196.25448334911198 63.88516068039462,196.58726654063503 64.11483931937255,204.04148263551178 66.05434782605153,204.80685708860983 67.61105860106181,203.74198758440616 68.83601134223863,203.54232399835018 69.16776937618852,204.9732424990798 68.861531190807,206.77019718913652 71.33695652161259,209.46560265053995 71.46455576550215,210.96303635064396 74.78213610569946,211.2957980586507 75.39461247622967,210.86320774353226 75.44565217394847,206.5372594177461 78.150756143732,205.90499855196686 78.45699432888068,205.4058439974906 78.4059546313947,189.0662477606238 78.73771266522817,186.73667830464547 96.16776937618852,186.20420194136386" stroke="#4dd2ff" stroke-linecap="round" stroke-linejoin="round" stroke-width="0.5"><title>2023-02-22 10.2km</title></polyline><polyline fill="none" points="102.25,198.9964208045276 104.85762052876817,198.97999292761597 108.64937791600823,199.05391829811379 112.72142301710846,199.00874170591123 113.05839813374041,199.0457043776696 114.14490668740473,198.92249528282446 120.95684292378428,198.56929288477477 121.95517107308842,198.63911231536986 122.51889580092393,198.58161397337062 124.75489891135658,198.56929288477477 125.91069206842803,198.65554039149174 129.70874805600033,198.48715215618358 133.1194401244138,198.49125919832113 133.60443234836566,198.51179439996486 133.77764385692717,198.65964740902382 134.0421850699786,198.64732635463224 134.25318818038795,198.50768736083955 135.73020995334082,198.45840284447513 138.97398911352502,198.49947328078088 139.238530326591,198.45018875002643 142.04770606530656,198.44608170188803 142.75,198.524115513761" stroke="#4dd2ff" stroke-linecap="round" stroke-linejoin="round" stroke-width="0.5"><title>2023-02-17 11.0km</title></polyline><polyline fill="none" points="147.25,198.83499018563998 147.7935497123981,198.83860672207993 147.84069433031254,198.99411728924497 148.47576006573217,198.94348604905645 155.22021364008833,198.96518516466858 156.01612571897567,199.01581636048832 157.37777321280737,198.95795212824487 157.632908792104,198.99773380243641 159.38835250615375,198.99773380243641 166.47945768282807,198.58544789518965 167.41957682826614,198.6360798676833 170.02362366473244,198.58544789518965 171.0996302382846,198.6469295626066 174.06696795398602,198.5094997422675 175.58668857847806,198.54204897919408 177.0869967132312,198.5058831577462 177.61668036153424,198.53843239943308 177.78029991782387,198.6613958150956 178.0021569433011,198.65054612651875 178.20737469186133,198.51673290972758 179.16967953983112,198.48418363951168 187.75,198.5094997422675" stroke="#4dd2ff" stroke-linecap="round" stroke-linejoin="round" stroke-width="0.5"><title>2023-02-03 12.5km</title></polyline><polyline fill="none" points="52.75,239.42984767492453 51.737500000046566,239.26480385215837 51.28187499998603,235.03964094315597 33.36062499997206,235.4027439837082 33.03156250005122,236.1619575467339 33.48718749999534,244.7772023081925 33.00624999997672,249.56330747199536 33.46187500003725,251.84079778185696 33.107499999925494,254.18427834298927 32.67718750005588,254.64637023313844 30.39906249998603,254.74538980085345 30.019375000032596,254.31630469376978 29.538437499897555,248.01196035010798 28.120937500032596,247.64887757084216 28.09562499995809,245.53638437445625 26.42499999993015,243.52289591469162 24.475937499897555,243.65492849450675 22.22312499990221,242.4996408053412 19.464062500046566,243.06078127784713 18.881874999962747,241.44337260637258 16.09749999991618,240.81621102709323 15.591249999939464,239.89196973737853 15.363437500083819,237.18524135615735 14.325624999939464,237.4163048008195 13.591562499874271,238.57161847998213 12.376562499906868,238.80268050695304 12.25,239.46285642495786 13.085312499897555,241.9054905509256 14.806562499841675,242.9287483508233 14.907812500023283,244.7772023081925 18.75531250005588,245.1402897015796 19.00843749998603,252.50093560988898 21.109375,253.4581320352445 22.526874999981374,252.33590133370308 23.919062500004657,252.30289446393726 23.767187499906868,255.30649986561912 26.273124999948777,257.9139930621168 26.37437500001397,259.56428966527164 29.31062500004191,259.8613417740853 30.120624999981374,259.3662547092681 29.690312499995343,248.14399030695495 28.120937500032596,247.54985489341198 28.146249999990687,245.70142361655599 27.386874999967404,244.48013037048804 26.22249999991618,243.29183871438727 24.602499999920838,243.68793662746612 22.248437499976717,242.4996408053412 19.590624999953434,243.06078127784713 18.780624999897555,241.31133873431827 16.47718749998603,241.17930478512426 15.66718749993015,239.92497841994918 15.464687500032596,237.18524135615735 14.426874999888241,237.4163048008195 13.895312499953434,238.37356512600672 12.553749999962747,238.80268050695304 12.25,239.42984767492453 13.11062499997206,241.97150732306181 14.806562499841675,243.09378949746315 14.933124999981374,244.84321824117796 18.729999999981374,244.97525004962517 19.033750000060536,252.5669492866291 21.084062499925494,253.4911387362663 22.72937500011176,252.2368807101302 23.843124999897555,252.1708669369691 23.741874999832362,255.33950629661558 26.247812499990687,257.9469991123333 26.323749999981374,259.53128385134914 29.006874999962747,259.960359056844 29.968749999883585,259.6303012788412 30.14593750005588,259.13521370786475 30.070000000065193,251.2466720878001 29.614375000004657,247.94594534262433 28.29812499997206,247.71489266492426 27.91843749990221,245.10728178083082 26.37437500001397,243.39086325772223 24.627812499878928,243.75395287873107 22.248437499976717,242.53264910703 19.540000000037253,243.12679771239345 19.033750000060536,241.44337260637258 16.75562499987427,241.1132877815835 15.819062499911524,240.25506498053437 15.489999999990687,237.2512595073349 12.376562499906868,239.09975990875682 13.11062499997206,241.9054905509256 14.857187499990687,243.12679771239345 14.958437499939464,244.84321824117796 18.679374999948777,245.07427385517803 19.033750000060536,252.63296294411703 21.084062499925494,253.4581320352445 22.704062500037253,252.2368807101302 23.843124999897555,252.1708669369691 24.12156249990221,253.557152123758 23.741874999832362,255.24048698905972 26.22249999991618,257.9469991123333 26.298437499906868,259.49827803260996 29.639687500079162,259.76232444784546 30.247187500004657,259.26723716616107 30.17125000001397,255.1744740933791 32.65187499998137,254.58035716378072 33.23406249994878,253.68917884079565 33.43656249996275,235.43575332207547 51.40843750000931,235.1056597212155" stroke="#4dd2ff" stroke-linecap="round" stroke-linejoin="round" stroke-width="0.5"><title>2023-01-30 10.2km</title></polyline></svg>