<?xml version="1.0" encoding="utf-8" ?>
<svg baseProfile="full" height="300mm" version="1.1" viewBox="0,0,200,300" width="200mm" xmlns="http://www.w3.org/2000/svg" xmlns:ev="http://www.w3.org/2001/xml-events" xmlns:xlink="http://www.w3.org/1999/xlink"><defs /><rect fill="#222222" height="300" width="200" x="0" y="0" /><text fill="#FFFFFF" style="font-size:12px; font-family:Arial; font-weight:bold;" x="10" y="20">Over 10km Runs</text><text fill="#FFFFFF" style="font-size:4px; font-family:Arial" x="10" y="280">ATHLETE</text><text fill="#FFFFFF" style="font-size:9px; font-family:Arial" x="10" y="290">chending</text><text fill="#FFFFFF" style="font-size:4px; font-family:Arial" x="120" y="280">STATISTICS</text><text fill="#FFFFFF" style="font-size:3px; font-family:Arial" x="120" y="285">Number: 11</text><text fill="#FFFFFF" style="font-size:3px; font-family:Arial" x="120" y="290">Weekly: 1.2</text><text fill="#FFFFFF" style="font-size:3px; font-family:Arial" x="141" y="285">Total: 126.1 km</text><text fill="#FFFFFF" style="font-size:3px; font-family:Arial" x="141" y="290">Avg: 11.5 km</text><text fill="#FFFFFF" style="font-size:3px; font-family:Arial" x="167" y="285">Min: 10.0 km</text><text fill="#FFFFFF" style="font-size:3px; font-family:Arial" x="167" y="290">Max: 16.1 km</text><polyline fill="none" points="13.0,60.32162843203696 18.822736030822853,60.2914760827407 20.664739884377923,60.3618315233216 22.229287090551225,60.29650147612119 25.720616570324637,60.371882288804045 27.389210019260645,60.31660304231991 30.633911368015106,60.3618315233216 32.02504816955479,60.21609509385962 39.93641618496622,59.788933036594244 41.57803468206839,59.84421313105486 44.94219653177424,59.768831162033166 46.40269749518484,59.86934041735003 49.732177263955236,59.70349998859456 55.208092485554516,59.683398064094945 55.77071290943422,59.698474508568324 56.02119460501126,59.87939132673273 56.36030828516232,59.87436587240518 56.56454720615875,59.71857642424584 58.04431599228701,59.65827064198311 63.25433526010602,59.64319417988372 63.54720616569102,59.71355094642058 64.11753371870145,59.63816869106449 65.46628131021862,59.628117711195955 67.0,59.70349998859456" stroke="#4dd2ff" stroke-linecap="round" stroke-linejoin="round" stroke-width="0.5"><title>2023-04-14 12.0km</title></polyline><polyline fill="none" points="127.0,49.38409606993082 126.14122137392405,49.38409606993082 126.31297709909268,43.47102511805133 110.85496183205396,43.3814322570106 101.40839694649912,44.142970741406316 101.33969465654809,69.22788716177456 100.61832061060704,69.85498378274497 98.04198473261204,69.94456890953006 97.2862595418701,69.40705775568495 96.70229007629678,60.85154505298124 94.77862595417537,60.403605875209905 94.74427480914164,57.44719089238788 92.61450381681789,54.71472139656544 91.5839694654569,54.31156809825916 89.86641221377067,54.80431094640517 86.43129770993255,53.281285039149225 83.06488549616188,53.90841427000123 82.1374045801349,51.66866112797288 79.08015267166775,51.39988965159864 77.94656488543842,50.324801390379434 77.43129770993255,46.1587987767125 76.02290076331701,46.382778851519106 74.99236641230527,47.86104324218468 73.27480916015338,48.30900074145757 73.34351145045366,54.17718354778481 76.33206106862053,54.04279893843341 76.81297709920909,56.68568544732989 81.07251908397302,56.5960964471451 81.96564885508269,57.088835624366766 82.20610687020235,66.94345291276113 84.8854961830657,68.1080685776542 86.87786259537097,66.58510874139029 88.56106870213989,66.27155724799377 89.1106870227959,68.24244702374563 88.69847328250762,70.6164565270883 91.92748091602698,74.37899998301873 92.03053435112815,76.30504603209556 96.49618320597801,76.79775354356389 97.45801526715513,75.85712942562532 97.0114503816003,62.732882454496576 96.63358778622933,60.62757554592099 94.77862595417537,59.955666043271776 94.81297709909268,57.71595706851804 94.16030534345191,56.46171289778431 92.23664122144692,54.17718354778481 89.86641221377067,54.80431094640517 86.7748091602698,53.19169504442834 83.20229007629678,53.90841427000123 81.82824427483138,51.39988965159864 78.63358778622933,51.35509438268491 77.67175572516862,49.787255846342305 77.43129770993255,46.02441065336461 73.27480916015338,48.26420502088149 73.9274809161434,52.29579365666723 76.43511450383812,53.998004055494675 76.60687022889033,56.46171289778431 81.86259541974869,56.99924674202339 82.10305343498476,66.85386690919404 85.0229007632006,68.15286139960517 86.70610687020235,66.8090738976025 88.56106870213989,66.45072956921649 88.69847328250762,70.93000357822166 91.99618320597801,74.28941615155782 92.27099236624781,76.48421249139938 96.59923664107919,76.79775354356389 97.38931297697127,75.90192111578654 96.83969465643167,61.12030824559042 96.39312977099326,60.403605875209905 94.91603053431027,60.26922399434261 94.6755725190742,57.13363005575957 92.13358778622933,54.31156809825916 89.83206106873695,54.80431094640517 86.67175572505221,53.281285039149225 83.13358778622933,54.04279893843341 82.06870229018386,51.62386589832022 78.70229007629678,51.220708536478924 77.70610687020235,49.51848272094503 77.56870229006745,46.1587987767125 76.19465648848563,46.293186841212446 74.95801526715513,47.86104324218468 73.0,48.75695758644724 74.13358778622933,52.56456434787833 76.33206106862053,53.90841427000123 76.64122137404047,56.46171289778431 81.82824427483138,56.99924674202339 82.2748091602698,67.07783186901361 84.91984732821584,68.1080685776542 87.29007633577567,66.54031569056679 88.59541984729003,66.54031569056679 89.07633587787859,68.15286139960517 88.66412213735748,70.75083387407358 91.89312977087684,74.28941615155782 92.13358778622933,76.43942088642507 97.21755725191906,76.57379568199394 97.42366412212141,70.30290915546357 100.85877862595953,69.72060604326543 101.54580152651761,68.82475294242613 101.75190839683637,43.73980354401283 116.31679389311466,43.20224645640701" stroke="#4dd2ff" stroke-linecap="round" stroke-linejoin="round" stroke-width="0.5"><title>2023-04-03 10.0km</title></polyline><polyline fill="none" points="133.0,60.288963489205344 140.26396917148668,60.293988883324346 145.26204238920764,60.37942047101751 150.64547206166026,60.35429355548695 151.99421965317742,60.22363329883592 160.22928709053667,59.78642036962992 161.54720616570557,59.85677684836264 164.91136801541143,59.77134396261681 165.8208092485438,59.796471303972794 166.34874759153172,59.881904127316375 169.71676300576655,59.7060127891782 175.14643545279978,59.68088538172742 175.7437379576004,59.70098730915197 176.0597302504757,59.871853217933676 176.37186897880747,59.8467259316385 176.58381502889097,59.7060127891782 178.29094412330596,59.65073246856264 182.1290944123175,59.68591086467859 183.16570327551744,59.625605020741204 183.33911368015106,59.69093634690944 185.26204238919308,59.62057952897885 185.38150289017358,59.67585989804138 186.6608863198344,59.65575795593395 187.0,59.72611470190532" stroke="#4dd2ff" stroke-linecap="round" stroke-linejoin="round" stroke-width="0.5"><title>2023-03-31 11.9km</title></polyline><polyline fill="none" points="13.0,118.84915223248754 13.184826012555277,118.91342687425458 27.139189960071235,118.95359844905397 28.322076440381352,118.84111789170493 34.83103251569264,118.49965623836579 35.7859669138561,118.5478628464898 38.90644609242736,118.50367345894301 39.71351968056115,118.56794890826131 42.393496862539905,118.43939785937255 46.56132344552316,118.41529447079483 47.2143753565324,118.44341508874277 47.405362236168,118.56393169708826 47.59942954935832,118.58000053828073 47.86434683400148,118.43136339886223 49.52162007987499,118.39520829751382 64.4031945236784,118.38717382408322 64.64654877352586,118.44743231753819 64.64038790644554,119.17855818343378 64.54489446664229,119.39548189862035 64.58185966912424,119.84137527255189 64.71431831146765,119.9659027610669 64.96075299486984,119.98598778704581 65.03160296635178,120.19085421413365 65.35812892184185,120.11854859060804 65.63844837422948,120.25512571985928 65.79555048487964,120.21093907580871 65.91568739304785,120.25914268398628 66.09127210496808,120.49614252854553 66.09127210496808,120.73715722489214 66.27301768396865,120.80142745384182 66.34694808899076,121.61282617591678 66.68887621219619,121.55659139302043 66.69503707929107,120.54836255867849 66.7504848830722,120.50819331352795 67.0,120.54032871434174" stroke="#4dd2ff" stroke-linecap="round" stroke-linejoin="round" stroke-width="0.5"><title>2023-03-15 16.1km</title></polyline><polyline fill="none" points="127.0,109.07285075128311 125.22346368711442,109.16027317784028 125.22346368711442,104.70169685754809 124.51955307251774,103.47776232409524 101.12290502793621,104.26457795599708 100.62011173181236,106.66872401194996 101.12290502793621,117.24673718548729 100.31843575427774,122.14222001266899 100.78770949703176,128.917086458212 100.0837988826679,129.5727105551341 97.33519553067163,129.87866797542665 96.76536312850658,129.31046108878218 96.22905027924571,120.87464732167427 94.28491620114073,120.35013291335781 94.28491620114073,117.64012715773424 92.00558659224771,114.75525535162888 89.25698324013501,115.0175175741897 86.27374301664531,113.44394079089398 82.68715083796997,114.14330927171977 81.81564245803747,111.87035573233152 78.36312849156093,111.38953642515116 77.62569832406007,110.03449603859917 77.39106145256665,106.53758927050512 75.94972067035269,106.71243557953858 75.0446927373996,108.1549137304537 73.36871508392505,108.67944951570826 73.36871508392505,114.23073021695018 76.0837988826679,114.01217780614388 76.75418994412757,116.76592651719693 81.37988826818764,116.94076684964239 81.74860335199628,117.42157723708078 81.78212290513329,126.68795378445066 84.59776536317077,128.04291876131902 86.47486033523455,126.55682781586074 88.21787709486671,126.2508669992385 88.45251396659296,130.92766247040709 91.43575418996625,133.94350116091664 91.60335195541847,135.99775069323368 95.62569832406007,136.52223767587566 96.73184357536957,135.95404340326786 96.73184357536957,125.42040034866659 96.19553072622512,120.87464732167427 94.21787709486671,120.26271375600481 94.25139664800372,117.68383712269133 93.44692737434525,116.37253539575613 91.53631284902804,114.53670332385809 89.39106145256665,115.0612279222114 86.13966480444651,113.53136194028775 82.68715083796997,114.23073021695018 82.11731843580492,112.13262048346223 78.9664804469794,111.73922327064793 77.75977653625887,110.64645052139531 77.49162011174485,106.62501243781298 75.71508379885927,106.79985869574011 74.9441340782214,108.19862508104416 73.06703910627402,109.07285075128311 73.93854748597369,112.61343859671615 76.31843575427774,114.05588830099441 76.72067039099056,116.76592651719693 81.64804469270166,116.9844769166375 81.84916201117449,126.77537106492673 84.63128491630778,127.91179338659276 86.60893854743335,126.51311914698454 88.28491620102432,126.38199310188065 88.72067039110698,127.99921030935366 88.18435754184611,130.44687378330855 91.36871508369222,133.85608597437385 91.60335195541847,135.99775069323368 95.72625698323827,136.4348232424818 96.73184357536957,135.95404340326786 96.73184357536957,124.89589390807669 96.16201117320452,120.87464732167427 94.25139664800372,120.48126160158427 94.28491620114073,117.7712570335134 91.80446927365847,114.71154495890369 89.49162011174485,115.10493826397578 86.13966480444651,113.53136194028775 82.85474860330578,114.27444068001932 82.05027932964731,112.00148813668056 78.49720670399256,111.65180159770534 77.52513966476545,109.90336277234019 77.42458100558724,106.66872401194996 75.88268156419508,106.75614714089897 74.9441340782214,108.19862508104416 73.0,109.11656196782133 73.97206703922711,112.74457067545154 76.41899441333953,114.27444068001932 76.51955307275057,116.59108608262613 81.68156424595509,117.02818697749171 81.9497206704691,126.86278831979143 84.66480446921196,128.04291876131902 86.60893854743335,126.51311914698454 88.31843575416133,126.4257017900527 88.31843575416133,130.70912225387292 91.36871508369222,133.94350116091664 91.70391061459668,136.12887252503424 96.69832402223255,136.21628704768955 96.8659217878012,130.27204134207568 100.72067039110698,128.917086458212 100.9553072626004,104.48313748656074 103.16759776545223,103.8711703986919 113.12290502793621,103.82745841596625" stroke="#4dd2ff" stroke-linecap="round" stroke-linejoin="round" stroke-width="0.5"><title>2023-03-06 10.0km</title></polyline><polyline fill="none" points="133.1309651187621,120.12307239299844 133.0,120.13814219555934 133.0154076610488,120.24363062843622 133.26193023753876,120.32400255055836 144.61737641773652,120.30390958763746 146.12347528355895,120.37925813804395 149.91375989730295,120.30893282947363 150.6764391183533,120.37423490649235 151.7395677295135,120.23358412496236 160.56045367002662,119.77646511147759 161.5658035523229,119.85683812560092 165.12112133535265,119.79153506593138 166.39610528570483,119.87693134977962 168.66873528783617,119.8266982673158 169.82816178044595,119.71618522758581 175.07061844640702,119.6810219131803 175.76396319281776,119.71116189916575 176.1106355660304,119.8819546539853 176.36486197305203,119.85683812560092 176.55745773593662,119.70613856999626 178.05585277124192,119.65088190077222 181.8037663171417,119.64585856281701 182.36614594480488,119.69609190947085 182.62422426707053,119.6408352241051 186.2103573721397,119.62074186195241 187.0,119.6810219131803" stroke="#4dd2ff" stroke-linecap="round" stroke-linejoin="round" stroke-width="0.5"><title>2023-03-03 12.1km</title></polyline><polyline fill="none" points="67.0,168.95814253136632 66.96529562980868,163.16529019264271 51.417737789219245,162.98426181162358 42.290488431812264,163.61786068227957 41.631105398526415,164.61351343244314 42.08226221089717,178.6880804291868 41.388174807303585,181.9916642717435 42.116966580972075,183.98284847752075 42.0128534702817,189.41328581466223 38.75064267334528,190.04683063740958 37.674807197996415,189.50379229726968 37.015424164477736,180.76979490066878 34.96786632400472,180.2719948865706 34.93316195369698,177.33043302065926 33.09383033413906,174.7508865534037 31.948586118174717,174.2983323271037 30.07455012842547,174.93190805899212 26.604113110457547,173.30271070217714 23.029562982032076,174.02679947411525 22.30077120824717,171.67350477789296 18.830334190279245,170.76838667341508 17.89331619523,169.22967982693808 17.71979434438981,166.0164732396952 16.053984575904906,166.3332697362639 15.151670951163396,167.7814781665511 13.416452442179434,168.2340419125976 13.03470437019132,169.09391120888176 14.006426735199057,172.30708587757545 16.539845758350566,173.8457774396229 16.678663238999434,176.56109684813418 20.669665809720755,176.33482113972423 21.988431876641698,176.7873723913799 22.161953727481887,186.96960079166456 23.446015424095094,187.96517849792144 25.111825192696415,188.19144571237848 26.95115681225434,186.78858631945332 28.894601542386226,186.51706441291026 28.82519280212,191.08765146241058 32.122107969014905,194.43635561291012 32.260925449896604,196.69897306367056 33.232647814787924,196.92523390008137 36.980719794286415,196.92523390008137 37.605398457613774,196.42745984208887 36.980719794286415,180.81504940785817 35.03727506427094,180.2719948865706 34.93316195369698,177.37568803000613 32.67737789207604,174.61512035498163 29.970437017967924,174.88665269245394 26.673521850723773,173.30271070217714 23.168380462680943,174.07205496609095 22.33547557843849,171.8092722654401 19.03856041119434,171.1756901477056 17.962724935496226,169.9990342053934 17.615681233932264,166.061729901965 16.053984575904906,166.3332697362639 14.978149100323208,167.91724735978642 13.0,168.8676300465595 13.902313624625094,172.30708587757545 16.366323907510377,173.98154397538747 16.817480719764717,176.69686219390132 19.69794344471302,176.33482113972423 21.919023136375472,176.8326274800056 22.161953727481887,187.06010798804346 25.111825192696415,188.19144571237848 26.881748071988113,186.9243471835507 28.82519280212,186.51706441291026 29.27634961437434,188.46296615159372 28.859897172194906,191.1329044625163 32.087403599056415,194.52686062821886 32.295629820087925,196.65372087663854 37.22365038562566,196.8799817460822 37.431876606773585,186.83383994738688 36.91131105402019,180.86030390838278 34.93316195369698,180.36250403962913 34.898457583389245,177.5114530188439 32.36503856035415,174.47935409704223 29.9010282777017,174.93190805899212 26.95115681225434,173.30271070217714 23.20308483298868,174.11731045143097 22.26606683805585,171.8092722654401 18.62210796913132,171.35671374213416 17.615681233932264,169.50121688458603 17.65038560400717,166.15224320656853 16.123393316171132,166.28801311377902 15.012853470398113,167.82673457087367 13.173521850840189,168.36981090760673 13.0,169.41070455833687 14.17994858615566,172.66913163862773 16.50514138804283,174.07205496609095 16.539845758350566,176.56109684813418 21.988431876641698,177.10415787404054 22.196658097673208,186.96960079166456 25.04241645243019,188.37245936496765 26.77763496141415,186.87909356877208 28.721079691546038,186.4718107387598 29.241645244299434,188.37245936496765 28.929305912693962,191.26866342290305 32.087403599056415,194.52686062821886 32.260925449896604,196.69897306367056 36.66838046268094,197.0157381883473 37.57069408742245,196.47271206229925 37.57069408742245,190.63512109863223 41.59640102821868,189.36803256353596 41.76992287917528,163.79888869312708 52.14652956300415,163.02951891670818 61.06555269926321,163.16529019264271" stroke="#4dd2ff" stroke-linecap="round" stroke-linejoin="round" stroke-width="0.5"><title>2023-03-01 10.1km</title></polyline><polyline fill="none" points="127.0,169.1738318472926 125.70699432888068,169.0407151580439 125.43478260864504,163.67162673178245 109.78260869556107,163.3610154063499 101.51417769375257,164.02661071473267 100.93572778825182,164.95844169621705 100.76559546310455,171.74740970510175 101.4120982986642,187.63211453758413 100.69754253292922,189.58436731112306 97.7372400755994,189.9836901964445 97.02268430986442,189.22941319464007 96.54631379956845,181.1097245189594 94.53875236294698,180.3554254824412 94.47069943300448,177.51569466292858 92.12287334597204,174.63156587650883 89.74102079391014,174.94216567691183 86.37240075611044,173.3891634986212 82.8676748580765,174.14347983410698 82.05103969760239,171.83615338039817 78.06994328903966,171.03745937062195 77.45746691862587,169.70629802066833 77.45746691862587,166.3339964914776 75.92627599230036,166.6889773629082 74.90548204141669,168.1088967002579 73.27221172011923,168.64136474052793 73.03402646479663,169.57318156486144 74.12287334597204,172.6348452900711 76.40264650282916,174.23222280925256 76.53875236283056,176.5839022034197 81.77882797713391,177.07198432442965 81.84688090730924,186.8778316968237 84.60302457457874,188.07580945148948 86.712665406405,186.61161377636017 88.41398865776137,186.5672441002971 88.85633270314429,188.29765666543972 88.41398865776137,190.60485808583326 91.74858223053161,194.37620729123591 91.85066162561998,196.3727849748684 96.17202268424444,196.68336254628957 97.22684310015757,196.1065753751609 96.58034026471432,181.15409499238012 94.57277882797644,180.31105489257607 93.85822306235787,176.62827333755558 91.95274102059193,174.63156587650883 89.70699432888068,175.07527977996506 86.44045368605293,173.5222782822093 83.00378071831074,174.1878513249685 82.15311909257434,171.96926884449203 78.47826086950954,171.48117852414725 77.5255198488012,169.66192587511614 77.45746691862587,166.51148697911412 75.99432892247569,166.73334994280594 75.17769376176875,168.02015193621628 73.44234404526651,168.55262013198808 73.0,169.44006505073048 74.22495274082758,172.9010754599003 76.33459357265383,174.23222280925256 76.57277882786002,176.62827333755558 81.81285444227979,177.16072644406813 82.05103969760239,187.05531018067268 84.94328922498971,188.07580945148948 86.64461247622967,186.70035310907406 88.37996219273191,186.38976533114328 88.89035916817375,188.38639550554217 88.37996219273191,190.42738167571952 91.6805293004727,194.19873308425304 91.81663516070694,196.23968020422035 96.1379962193314,196.72773074486759 97.1247637050692,195.75162887948682 96.64839319465682,181.24283591934363 96.2741020793328,180.62164888571715 94.57277882797644,180.31105489257607 94.50472589780111,177.47132365830475 92.53119092620909,174.98653705097968 91.51039697532542,174.45408013355336 89.63894139870536,175.0309084187029 86.712665406405,173.4335350995825 82.96975425328128,174.14347983410698 82.08506616239902,171.92489702953026 78.4442344045965,171.3924347453285 77.62759924377315,169.70629802066833 77.45746691862587,166.42274174827617 75.99432892247569,166.73334994280594 75.07561436656397,168.15326907252893 73.13610586000141,168.90759841055842 73.85066162561998,172.23549959776574 76.40264650282916,174.14347983410698 76.64083175791893,176.67264446549234 81.84688090730924,177.11635538749397 82.15311909257434,187.05531018067268 84.73913043481298,188.07580945148948 86.81474480149336,186.65598344587488 88.44801512290724,186.38976533114328 88.89035916817375,188.29765666543972 88.48204158782028,190.69359625218203 91.78260869556107,194.28747020071023 91.95274102059193,196.28404846752528 96.37618147430476,196.72773074486759 97.1928166350117,196.1509436580236 97.26086956518702,190.3830125569948 100.86767485830933,189.53999806928914 101.27599243854638,188.8744586633402 101.20793950848747,167.0883303474984 101.65028355375398,163.9822377395176 124.89035916829016,163.27226925513241" stroke="#4dd2ff" stroke-linecap="round" stroke-linejoin="round" stroke-width="0.5"><title>2023-02-22 10.2km</title></polyline><polyline fill="none" points="133.0,180.3285610726998 136.4768273716909,180.30665723681886 141.53250388802553,180.40522439748383 146.96189735614462,180.34498894121134 147.41119751166843,180.39427250355584 148.8598755832063,180.22999371042897 157.94245723172207,179.75905717969727 159.27356143080397,179.85214975382405 160.0251944012416,179.77548529782143 163.00653188180877,179.75905717969727 164.54758942457556,179.87405385531747 169.61166407466226,179.64953620824235 174.15925349923782,179.6550122644221 174.8059097978403,179.68239253328284 175.03685847589804,179.87952987869357 175.38958009330963,179.86310180617147 175.67091757386515,179.67691648111577 177.64027993779746,179.61120379262866 181.9653188180382,179.66596437436965 182.3180404354498,179.60025166669584 186.06360808708996,179.59477560251253 187.0,179.69882068501101" stroke="#4dd2ff" stroke-linecap="round" stroke-linejoin="round" stroke-width="0.5"><title>2023-02-17 11.0km</title></polyline><polyline fill="none" points="13.0,240.11332024751755 13.72473294986412,240.11814229610536 13.787592440421577,240.32548971899087 14.634346754319267,240.2579813987395 23.626951520127477,240.28691355289266 24.688167625310598,240.3544218139832 26.503697617081343,240.27726950432407 26.843878389481688,240.33031173657946 29.184470008214703,240.33031173657946 38.63927691044228,239.78059719358498 39.89276910436456,239.8481064902444 43.36483155298629,239.78059719358498 44.7995069843746,239.86257275014214 48.75595727197651,239.67933298969 50.7822514379659,239.72273197225877 52.78266228431312,239.67451087699374 53.48890714872687,239.71790986590713 53.70706655710819,239.88186108679292 54.00287592440145,239.86739483535712 54.27649958914844,239.6889772129689 55.55957271979423,239.64557818601315 67.0,239.67933298969" stroke="#4dd2ff" stroke-linecap="round" stroke-linejoin="round" stroke-width="0.5"><title>2023-02-03 12.5km</title></polyline><polyline fill="none" points="127.0,229.23979689989937 125.6500000001397,229.0197384695348 125.04250000009779,223.38618792418856 101.14749999996275,223.87032531161094 100.7087500001071,224.88261006231187 101.3162500000326,236.36960307759 100.67500000004657,242.75107662932714 101.28250000008848,245.78773037579958 100.80999999993946,248.9123711239954 100.2362500000745,249.5284936441749 97.19874999998137,249.66051973446156 96.69250000000466,249.08840625835 96.05125000001863,240.68261380016338 94.16125000000466,240.19850342778955 94.12749999994412,237.38184583259863 91.89999999990687,234.69719455292216 89.30124999990221,234.87323799266596 86.29749999986961,233.33285440714099 82.61875000002328,234.08104170378647 81.84250000002794,231.92449680849677 78.12999999988824,231.08828136944794 77.45499999995809,229.85595964983804 77.15125000011176,226.24698847485706 75.76749999995809,226.55507306774962 74.78874999994878,228.09549130665255 73.16874999995343,228.40357400928042 73.0,229.2838085666299 74.11374999990221,232.5406540679105 76.40874999994412,233.90499780108803 76.54374999995343,236.36960307759 81.6737500000745,236.85371960210614 82.01124999998137,246.66791414652835 84.8125,247.94417604699265 86.70250000001397,246.44786844492774 88.5587499999674,246.4038592852594 88.35624999995343,250.40866648749216 91.69750000000931,253.88532408283208 91.83250000001863,256.0857195536955 95.74750000005588,256.48178903211374 96.82750000001397,255.8216729456908 96.2537500000326,240.8586537426163 94.16125000000466,240.06647319122567 94.19500000006519,237.60189815540798 93.18249999999534,235.97350716067012 91.63000000000466,234.3891182858497 89.46999999997206,234.9172488366312 86.33124999993015,233.33285440714099 82.78749999997672,234.08104170378647 81.70749999990221,231.748451645748 78.63624999998137,231.57240638017538 77.55624999990687,229.8999712266086 77.28625000012107,226.24698847485706 75.9024999999674,226.55507306774962 75.19374999997672,227.83142016801867 73.40500000002794,228.40357400928042 73.0,229.23979689989937 74.14750000007916,232.62867643072968 76.40874999994412,234.1250526632648 76.57750000001397,236.45762432157062 81.64000000001397,236.63366673281416 82.04500000004191,246.75593238216243 84.77874999993946,247.9881849816884 86.97250000014901,246.31584094685968 88.45750000001863,246.22782258261577 88.3224999998929,250.4526750621444 91.66375000006519,253.92933214979712 91.76500000013039,256.04171180180856 95.34250000002794,256.61381207578233 96.625,256.17373503843555 96.8612500000745,255.513618277153 96.76000000000931,244.99556278373348 96.1524999999674,240.59459379015607 94.39750000007916,240.28652355322265 93.89124999998603,236.80970904108835 91.83250000001863,234.5211510102963 89.50374999991618,235.00527050497476 86.33124999993015,233.37686547604972 82.72000000008848,234.1690636165149 82.04500000004191,231.92449680849677 79.00749999994878,231.4843837087683 77.75874999992084,230.3400866407028 77.32000000006519,226.33501267645624 73.16874999995343,228.79967987834243 74.14750000007916,232.5406540679105 76.47625000006519,234.1690636165149 76.61124999995809,236.45762432157062 81.57250000000931,236.76569847358041 82.04500000004191,246.84395059215603 84.77874999993946,247.94417604699265 86.93875000008848,246.31584094685968 88.45750000001863,246.22782258261577 88.82874999998603,248.07620283166762 88.3224999998929,250.3206493187463 91.63000000000466,253.92933214979712 91.73124999995343,255.99770404348965 96.18625000002794,256.3497659304703 96.99625000008382,255.68964955490083 96.89500000001863,250.23263212450547 100.20250000001397,249.4404762183549 100.97875000000931,248.2522384543845 101.24875000002794,223.914337762777 125.21125000005122,223.47421296162065" stroke="#4dd2ff" stroke-linecap="round" stroke-linejoin="round" stroke-width="0.5"><title>2023-01-30 10.2km</title></polyline></svg>