<?xml version="1.0" encoding="utf-8" ?>
<svg baseProfile="full" height="300mm" version="1.1" viewBox="0,0,200,300" width="200mm" xmlns="http://www.w3.org/2000/svg" xmlns:ev="http://www.w3.org/2001/xml-events" xmlns:xlink="http://www.w3.org/1999/xlink"><defs /><rect fill="#222222" height="300" width="200" x="0" y="0" /><text fill="#FFFFFF" style="font-size:12px; font-family:Arial; font-weight:bold;" x="10" y="20">Over 10km Runs</text><text fill="#FFFFFF" style="font-size:4px; font-family:Arial" x="10" y="280">ATHLETE</text><text fill="#FFFFFF" style="font-size:9px; font-family:Arial" x="10" y="290">chending</text><text fill="#FFFFFF" style="font-size:4px; font-family:Arial" x="120" y="280">STATISTICS</text><text fill="#FFFFFF" style="font-size:3px; font-family:Arial" x="120" y="285">Number: 19</text><text fill="#FFFFFF" style="font-size:3px; font-family:Arial" x="120" y="290">Weekly: 1.2</text><text fill="#FFFFFF" style="font-size:3px; font-family:Arial" x="141" y="285">Total: 213.4 km</text><text fill="#FFFFFF" style="font-size:3px; font-family:Arial" x="141" y="290">Avg: 11.2 km</text><text fill="#FFFFFF" style="font-size:3px; font-family:Arial" x="167" y="285">Min: 10.0 km</text><text fill="#FFFFFF" style="font-size:3px; font-family:Arial" x="167" y="290">Max: 16.1 km</text><polyline fill="none" points="48.75523281493224,32.65592836131691 45.05457342939917,32.25 43.91324857226573,32.65592836131691 44.74330301384907,36.89559268116136 44.91623102221638,44.021705789869884 44.46661819983274,57.326350172195816 44.84705981903244,64.99317299661925 44.15534778428264,65.75984480881016 40.90430122136604,65.75984480881016 40.17800358484965,56.74005588522414 38.31038109131623,56.108660792699084 38.17203868436627,53.31246700484189 35.75104656314943,50.29074524861062 33.157126432983205,50.561348402523436 30.079007878666744,49.16322955439682 26.343762891483493,49.839739465067396 25.686636458616704,47.674902533210116 22.401004293817095,47.133690928370925 21.155922631383874,45.82575896682101 20.844652215833776,41.856828062591376 19.28830013773404,42.08233686746098 18.42366009450052,43.43538623774657 16.244767185184173,44.56292284978554 16.59062320261728,49.749538229283644 19.634156155050732,49.704437601409154 20.118354579317383,52.455563839292154 25.237023635883816,52.68106490292121 25.444537246366963,62.918639725103276 28.003871774766594,64.04610518875415 30.18276468385011,62.55784990719985 31.842873567016795,62.24215847073356 32.396243194816634,64.18140076781856 31.98121597408317,66.8422017734556 35.26684813876636,70.26964046471403 35.370604943833314,72.20883234610665 40.281760390265845,72.65980545678758 40.800544416182674,72.11863764491864 40.800544416182674,66.25592555536423 40.21258918661624,56.87535466570989 38.27579548954964,56.153760484885424 38.24120988789946,53.3575671055296 35.958560173399746,50.471147377596935 33.22629763639998,50.561348402523436 30.00983667524997,49.07302812093985 26.41293409478385,49.704437601409154 25.54829405155033,47.62980160227744 21.743877860950306,46.59247837495059 21.052165826316923,45.23944284056779 20.775481012300588,41.856828062591376 19.149957730900496,42.08233686746098 18.354488890967332,43.480487781227566 16.348523990483955,44.33741585689131 16.452280795550905,49.433833696559304 16.76355121121742,49.88484007297666 19.530399349867366,49.704437601409154 19.87625536741689,52.32026312203379 25.167852432467043,52.72616509583895 25.202438034350052,62.60294865752803 28.21138538501691,64.13630224808003 30.079007878666744,62.60294865752803 31.946630372316577,62.42255361683783 32.084972779266536,67.33828078093939 35.23226253699977,70.22454283424304 35.26684813876636,72.16373499890324 35.8202177665662,72.47941629160778 39.901318771066144,72.75 40.86971561971586,71.57746888467227 40.247174788382836,56.87535466570989 38.24120988789946,56.108660792699084 38.24120988789946,53.31246700484189 36.892371420166455,51.41825682524359 35.578118554200046,50.245644699956756 33.1917120347498,50.741750373417744 30.079007878666744,49.118128840986174 26.3091772897169,49.839739465067396 25.824978865566663,47.674902533210116 21.709292259183712,46.68268053297652 20.98299462266732,45.32964539399836 20.775481012300588,41.947031604358926 19.219128934200853,42.172540343221044 18.354488890967332,43.43538623774657 16.452280795550905,44.11190869906568 16.41769519378431,49.6142363261024 19.495813748217188,49.65933696710272 19.530399349867366,51.95946091966471 20.18752578285057,52.50066406530095 25.202438034350052,52.635964703338686 25.237023635883816,62.60294865752803 28.142214181483723,64.13630224808003 30.14817908219993,62.60294865752803 31.877459168899804,62.28725726719131 32.396243194816634,64.09120372173493 31.877459168899804,66.66180920944316 35.33601934229955,70.35983570606913 35.40519054559991,72.43431898381095 39.93590437271632,72.75 40.76595881441608,72.16373499890324 40.247174788382836,56.69495627860306 38.27579548954964,56.108660792699084 38.13745308248326,53.222266783588566 35.71646096126642,50.29074524861062 33.1917120347498,50.60644890507683 30.14817908219993,49.16322955439682 26.482105298549868,49.88484007297666 25.51370844990015,47.53959972085431 22.12431948003359,47.268993918492924 21.086751427850686,45.78065776580479 20.70630980900023,42.6686589892779 21.017580224433914,45.73555655826931 21.951391471433453,47.08858991856687 25.479122848133557,47.449397813063115 26.343762891483493,49.749538229283644 30.044422277016565,48.98282666114392 33.05336962779984,50.60644890507683 35.54353295266628,50.20054414457991 36.61568660638295,51.237855249783024" stroke="#4dd2ff" stroke-linecap="round" stroke-linejoin="round" stroke-width="0.5"><title>2023-09-14 10.0km</title></polyline><polyline fill="none" points="57.25,52.7827699881509 60.06202944621327,52.76951528686732 61.13602141542651,52.826952283816354 61.38334448719979,52.778351755037875 64.85941944118531,52.76067881611016 65.41166136857646,52.80486114406449 66.4958172996412,52.68115046314779 73.77998996150563,52.296760475577685 74.9928894094046,52.36303495993707 75.90764597624366,52.30117877904922 78.07256985109416,52.296760475577685 79.25158942614507,52.38070813122613 82.88351179522579,52.19955763580401 85.01116780994926,52.243740783527755 87.00330433328054,52.18188435864977 87.49795047684165,52.20397595347458 87.72833361219091,52.376289839374294 87.98582064581569,52.371871546865805 88.23653170488251,52.22164921774129 89.71369416094967,52.173047716185465 97.75,52.18630267890694" stroke="#4dd2ff" stroke-linecap="round" stroke-linejoin="round" stroke-width="0.5"><title>2023-09-01 10.2km</title></polyline><polyline fill="none" points="139.1753788139904,32.25 133.68639995437115,32.385914885177044 134.79809187538922,36.644551108649466 134.2769862873247,57.21203470430919 134.65913038514555,63.69005654277862 134.55490926769562,65.09436510995147 133.89484218962025,65.50206640633405 131.1156123871915,65.68326681040344 130.3860645639943,65.1849654444668 129.83021860360168,56.48721265551285 127.85001736949198,55.852991973020835 127.85001736949198,53.22549247200368 125.45293166488409,50.099645106412936 122.91688447038177,50.37145917140879 119.61654908000492,48.876478865218814 116.00355033704545,49.55601626151474 114.71815655345563,47.01906905177748 111.24411930062342,46.611343457363546 110.54931184987072,45.388163458002964 110.37560998729896,41.5826837180648 108.77755285112653,41.8092016762821 107.80482242011931,43.25891269129352 105.82462118600961,44.210281861858675 106.90157273446675,47.97042668744689 109.33339881151915,49.55601626151474 109.68080253666267,52.18354685077793 114.82237767113838,52.22884890710702 115.30874288652558,62.73874712639372 117.91427082603332,63.916558354656445 119.65128945268225,62.37634277169127 121.56200994167011,62.013937993586296 122.11785590217914,63.82595764970756 121.7357118044747,66.45336734692683 125.00130682217423,70.03204475078383 125.20974905742332,72.16111171717057 129.41333413333632,72.75 130.49028568179347,71.97991509750136 130.42080493667163,60.83611953994841 129.79547823115718,56.260705417749705 127.91949811461382,55.76238891261164 127.85001736949198,53.04428478941554 127.05098880128935,51.82113016198855 125.07078756717965,49.78252839599736 122.81266335281543,50.280854509503115 119.51232796243858,48.69526864142972 116.03829070948996,49.55601626151474 114.99607953371014,47.06437186241965 111.4873019082006,46.7925548988278 110.58405222243164,45.206951195898 110.4450907324208,41.49207648841548 108.7428124784492,41.854505248047644 105.85936155857053,44.527404270134866 106.93631310691126,48.0610320243286 109.22917769383639,49.42010890127858 109.54184104665183,52.00233855936676 114.92659878882114,52.54596311613568 114.96133916114923,62.466943900159094 117.60160747345071,63.87125800544163 119.79025094280951,62.240441029542126 121.7357118044747,62.10453922781744 121.83993292204104,66.81576693765237 125.00130682217423,70.12264364270959 125.45293166488409,72.25170998720569 129.76073785871267,72.52350463886978 130.5597664269153,71.66282075841445 129.96918009384535,56.668418326589745 129.58703599590808,55.98889651411446 127.91949811461382,55.717087372380774 127.57209438935388,52.3194529999746 125.07078756717965,49.8278308029694 123.02110558806453,50.32615684380289 119.72077019768767,48.78587376646465 116.07303108216729,49.51071381469956 115.16978139639832,47.200280254968675 111.34834041830618,46.430131910019554 110.47983110498171,41.49207648841548 108.81229322345462,41.8092016762821 107.73534167511389,43.21360932462267 105.89410193113144,44.02906891150633 106.2762460289523,49.51071381469956 109.12495657627005,49.51071381469956 109.75028328190092,52.13824478787137 114.82237767113838,52.63656711622025 115.06556027871557,62.55754500196781 117.74056896346156,63.82595764970756 119.75551057024859,62.28574161679717 121.66623105923645,61.96863736648811 122.15259627485648,63.916558354656445 121.59675031423103,66.31746739108348 122.5,67.85766340245027 125.03604719450232,69.98674529476557 125.31397017487325,72.20641085549141 129.3785937607754,72.61410280325799 130.5597664269153,71.79871837203973 130.00392046617344,56.71371972779161 129.51755525090266,55.852991973020835 127.98897885961924,55.80769044609042 127.64157513424288,52.274150956916856 125.10552793974057,49.78252839599736 122.88214409782086,50.37145917140879 119.79025094280951,48.74057120725047 116.03829070948996,49.51071381469956 114.96133916114923,46.97376623447053 111.38308079063427,46.38482900671079 110.68827333999798,44.98043571942253 110.47983110498171,41.537380106485216 108.67333173332736,41.89980881320662 107.94378391024657,43.12300257146126 105.82462118600961,44.436797900823876 107.17949571472127,48.287545250728726 109.26391806651372,49.51071381469956 109.61132179165725,52.13824478787137 113.36328202486038,51.911734373949 114.85711804358289,52.59126511955401 114.96133916114923,62.42164333924302 117.77530933602247,63.69005654277862 119.75551057024859,62.28574161679717 121.63149068679195,61.96863736648811 122.15259627485648,63.780657287250506 121.7357118044747,66.7704670120147 125.00130682217423,70.03204475078383 125.10552793974057,72.25170998720569 125.9045565079432,72.16111171717057" stroke="#4dd2ff" stroke-linecap="round" stroke-linejoin="round" stroke-width="0.5"><title>2023-06-19 10.7km</title></polyline><polyline fill="none" points="187.75,44.43260368882329 186.86072772892658,44.167539562578895 186.7590966122225,40.290941322469735 186.22553324955516,39.992738713364815 169.38017565873452,40.22467410992249 168.3638644918101,40.65541064557328 168.28764115425292,59.275700404527015 165.97553324955516,59.83892378612654 165.44196988712065,59.37509286761633 164.9084065244533,53.14641436081729 163.58720200741664,52.74883332983882 163.48557089082897,50.66152148338733 161.9356963612372,48.54105803447601 159.75062735262327,48.60732281731907 157.33688833122142,47.480818876152625 154.74529485567473,47.97780659876298 154.13550815556664,46.35430934003671 152.00125470513012,46.02298194116156 151.01035131735262,45.29405995977868 150.65464240906294,42.14641541398305 149.4858845671406,42.37834860813746 148.6474278542446,43.53801102134457 147.5040777915856,43.83620896920911 147.2754077790305,44.366337686311454 147.96141781681217,45.559122769511305 148.03764115425292,46.751901579860714 149.81618569628336,48.077204012530274 150.01944792980794,49.86635001312243 153.90683814301156,50.23080394975841 154.05928481800947,57.51975970879721 156.19353826832958,58.51369007404719 157.5655583437765,57.42036643279425 158.93757841887418,57.28784199694928 158.86135508154985,60.40214576935978 161.3005018819822,63.0194531067973 161.35131744027603,64.57657099256176 164.24780426593497,64.87474128334725 165.08626097859815,64.87474128334725 165.41656210785732,64.37779058099841 164.98462986189406,54.17349546561309 164.73055207019206,52.914492177427746 163.5363864491228,52.71570154573419 163.23149309901055,50.36333250872849 161.83406524464954,48.54105803447601 161.24968632368837,48.24286627219408 159.8268506899476,48.57419042836409 157.5655583437765,47.480818876152625 154.79611041396856,47.94467411772348 154.1101003763033,46.3211766218883 152.05207026342396,46.02298194116156 151.01035131735262,45.29405995977868 150.65464240906294,42.179548742002225 149.4858845671406,42.4446151915472 147.25,44.26693864625122 148.08845671266317,46.818166885423125 149.79077791713644,48.0440715461591 149.94322459213436,49.76695338339778 153.90683814301156,50.29706823886954 154.0846925971564,57.58602186862845 156.11731493100524,58.51369007404719 157.48933500621933,57.42036643279425 158.96298619813751,57.38723533105804 158.8105395231396,60.20336169975053 161.3005018819822,63.05258338582644 161.50376411539037,64.642831091056 165.34033877030015,64.57657099256176 164.9084065244533,53.24580950976815 163.48557089082897,52.61630616459297 163.00282308657188,49.932614408797235 161.40213299856987,48.24286627219408 159.75062735262327,48.57419042836409 157.51474278536625,47.447686322557274 154.79611041396856,47.97780659876298 154.18632371386047,46.35430934003671 152.02666248427704,46.02298194116156 150.9849435382057,45.12839554641687 150.70545796735678,42.179548742002225 149.56210790458135,42.31208200551919 148.77446675032843,43.43861161827226 147.30081555829383,44.13440652504505 148.03764115425292,46.78503423510119 149.79077791713644,47.97780659876298 150.01944792980794,49.89948221342638 153.9322459222749,50.19767179789778 153.98306148056872,57.45349752967013 154.89774153067265,58.21551142168755 156.24435382685624,58.48055913198914 157.5655583437765,57.35410422454879 158.91217063984368,57.28784199694928 158.91217063984368,60.56779902774724 161.32590966112912,63.08571366011165 161.50376411539037,64.60970104417356 164.73055207019206,65.00726128664974 165.34033877030015,64.60970104417356 164.9084065244533,53.080150904119364 163.51097866997588,52.649437963205855 163.4093475532718,50.4627288771444 161.70702634868212,48.40852841081505 159.8014429108007,48.60732281731907 157.61637390207034,47.447686322557274 156.574654955999,47.6464815713116 157.48933500621933,47.51395142490219 159.6744040149497,48.67358758090995 161.3005018819822,48.34226356988074 162.59629861975554,49.369366428640205 163.4093475532718,50.42959675924794 163.38393977412488,52.61630616459297 164.93381430360023,53.01388742798008 165.31493099103682,56.75774347939296" stroke="#4dd2ff" stroke-linecap="round" stroke-linejoin="round" stroke-width="0.5"><title>2023-06-02 10.0km</title></polyline><polyline fill="none" points="12.25,101.47292427362117 25.396626941903378,101.517883273993 26.405032985741855,101.41297881717583 32.4324856352323,101.08327630203894 33.05878910406318,101.08702294533396 33.4753670993814,101.14696916370849 35.90013832729892,101.08327630203894 37.09528623110964,101.16195569639967 40.02569695679995,101.0270765868463 43.44450947010773,101.01208997532376 44.09379655246448,101.03082323835406 44.26904660566652,101.16944895946654 44.53335816132312,101.15446243115548 44.69424345604784,101.0270765868463 46.021547137686866,100.982116726007 52.75,101.00459666628194" stroke="#4dd2ff" stroke-linecap="round" stroke-linejoin="round" stroke-width="0.5"><title>2023-05-09 12.1km</title></polyline><polyline fill="none" points="97.75,93.20264813950052 97.18428571429104,93.03498464697623 97.00428571435623,88.60862415077281 94.71571428573225,88.57509079101146 94.07285714289173,89.04455738278921 88.95571428572293,88.54155742631701 78.56714285712224,89.14515724183002 78.23285714292433,101.98804382041271 78.54142857145052,108.15773905233073 77.71857142844237,108.66069602791686 75.99571428576019,108.72775687473768 75.50714285718277,108.32539150006778 75.01857142860536,101.88744958968891 73.63000000000466,101.38447777417605 73.68142857134808,99.47317482481594 72.03571428568102,97.22653522218752 69.72142857150175,97.32713149547635 67.53571428568102,96.18703781631484 64.7071428571362,96.65648884057009 64.29571428580675,95.1475357033487 61.77571428567171,94.71161406145256 60.87571428564843,93.87330088499584 60.669999999925494,90.88888112654968 59.589999999967404,91.05654618659173 58.74142857128754,92.12959967114148 57.48142857151106,92.53199343457527 57.27571428567171,93.16911545082985 57.91857142862864,95.34873002812674 59.77000000001863,96.72355319427152 59.8985714284936,98.60134714188462 63.93571428582072,99.03726139727223 63.96142857137602,106.41414633889508 66.06999999994878,107.42006682824285 67.56142857135274,106.2800232739537 68.82142857147846,106.11236933257896 69.25857142859604,107.28594435090781 68.94999999995343,109.36483394262905 71.44428571430035,111.98018443150795 71.49571428564377,113.4890269300231 74.68428571429104,113.95844257369754 75.5585714285262,113.28784850318334 75.12142857140861,102.18923214990355 74.83857142855413,101.5856666325999 73.65571428567637,101.35094628066872 73.60428571433295,99.406111274453 72.62714285717811,97.99777219111274 71.5214285714319,96.95827827771427 69.87571428564843,97.36066357673553 67.66428571427241,96.18703781631484 64.83571428561118,96.65648884057009 64.2442857142305,95.08047088925377 61.981428571394645,94.64454912004294 61.0042857141234,93.94036605169822 60.69571428571362,90.85534809985256 59.46142857149243,91.09007918389398 57.27571428567171,93.03498464697623 58.14999999990687,95.71758583205519 59.84714285703376,96.75708536378806 59.949999999953434,98.56781524192775 63.93571428582072,99.03726139727223 63.987142857164145,106.31355404756323 66.06999999994878,107.35300559937605 67.61285714281257,106.38061557995388 68.92428571428172,106.21296171208087 69.31000000005588,107.42006682824285 69.02714285708498,109.39836426562397 71.41857142851222,111.91312453482533 71.59857142856345,113.62314578333462 75.60999999998603,113.55608636638499 75.12142857140861,101.88744958968891 73.65571428567637,101.38447777417605 73.7071428571362,99.43964305213012 72.93571428570431,98.23249597166432 71.49571428564377,96.85768184279732 69.87571428564843,97.22653522218752 67.56142857135274,96.11997330599115 64.73285714292433,96.69002101980732 64.0899999999674,94.97987363138236 62.05857142852619,94.6780815932434 61.0042857141234,93.87330088499584 60.61857142858207,90.72121594402415 59.43571428570431,91.05654618659173 57.25,92.90085376476054 58.04714285710361,95.65052118456515 59.79571428569034,96.72355319427152 59.97571428574156,98.60134714188462 63.85857142857276,99.03726139727223 64.06428571429569,106.31355404756323 66.12142857140861,107.386536216276 68.84714285726659,106.07883852966188 69.20714285725262,107.386536216276 68.97571428574156,109.43189458378765 71.36714285705239,111.91312453482533 71.57285714289173,113.55608636638499 74.89000000001397,113.82432391637121 75.60999999998603,113.25431874825153 75.14714285719674,101.95451241506089 73.63000000000466,101.31741478218464 73.5528571427567,99.00372956093634 71.62428571435157,96.92474613769446 69.92714285710827,97.29359940921131 67.48428571422119,96.05290877597872 64.88714285718743,96.65648884057009 64.14142857142724,94.9463412023324 61.49285714281723,94.54395167111943 60.82428571418859,93.50444211742433 60.69571428571362,90.85534809985256 59.56428571429569,91.05654618659173 58.792857142863795,92.12959967114148 57.455714285722934,92.46492785631563 57.25,93.13558275715332 57.84142857149709,95.34873002812674 59.77000000001863,96.72355319427152 59.97571428574156,98.60134714188462 63.910000000032596,99.00372956093634 64.0899999999674,106.41414633889508 66.06999999994878,107.42006682824285 68.87285714282189,106.11236933257896 69.23285714280792,107.55418922711397 68.92428571428172,109.29777328189812 71.41857142851222,111.94665448562591 71.54714285722002,113.52255665065604 74.68428571429104,113.89138325488602" stroke="#4dd2ff" stroke-linecap="round" stroke-linejoin="round" stroke-width="0.5"><title>2023-05-07 11.2km</title></polyline><polyline fill="none" points="102.25,101.45651657801318 104.35524413485837,101.42527909871569 109.93906486166816,101.45304574901093 111.14738450416189,101.50510813084657 111.37361175000842,101.47039988896358 114.31190444895765,101.47734154140016 121.0694453571632,101.08860588155221 121.96104685548926,101.13719818688332 124.83280212919635,101.09901852677285 125.29057961489889,101.16496517388805 127.90150818163238,101.02612991436217 131.41468423473998,101.01224634378377 131.75801734901324,101.02612991436217 131.9469836367207,101.16149430228143 132.18119537360326,101.14761081081815 132.35419267923862,101.02960080574485 133.57848130380444,100.99489186915343 142.75,100.99836276509268" stroke="#4dd2ff" stroke-linecap="round" stroke-linejoin="round" stroke-width="0.5"><title>2023-05-05 13.0km</title></polyline><polyline fill="none" points="187.75,93.19753243243031 187.15819567989092,92.8955462762824 186.8751588310115,88.60058907841449 174.03557814483065,88.76836235132942 168.5549555273028,89.40589967054257 168.4777636595536,108.1621268595627 165.9561626430368,108.76605863486475 165.41581956797745,108.26278226569411 165.00412960606627,101.92140553831996 163.5374841169687,101.55232531133515 163.51175349426921,99.2371721794043 161.76207115629222,97.19042316579726 159.70362134685274,97.35819016450841 157.46505717909895,96.25092570821289 154.66041931393556,96.7542283955263 154.17153748415876,95.17720962285239 151.72712833539117,94.8081185593037 150.85228716640268,93.90216525251162 150.5435196950566,90.9158494205185 149.4628335450543,91.11717530382157 148.84529860224575,92.0566937597032 147.55876747134607,92.56000563724956 147.27573062258307,93.19753243243031 147.97045743325725,95.44563911478326 149.79733163909987,96.85488880057528 149.90025412966497,98.56610893855395 153.91423125797883,98.93519396359625 154.06861499371007,106.41742614484974 156.12706480303314,107.42398586671334 157.54224904696457,106.28321784871514 158.90597204572987,106.08190525750979 159.34339263022412,107.42398586671334 159.03462515876163,109.40354045311688 161.42757306213025,111.98700128871133 161.53049555269536,113.59745568018116 164.72109275730327,113.93296559085138 165.51874205854256,113.19484314076544 165.41581956797745,105.14244416559814 165.05559085134882,101.85430008661933 163.56321473955177,101.41811417274585 163.48602287156973,99.1700659434864 161.42757306213025,97.05620947851276 159.88373570516706,97.42529692972312 157.5165184243815,96.28447925503133 154.68614993651863,96.72067491726193 154.27445997460745,95.21076332655502 151.93297331640497,94.8752260695328 150.92947903415188,94.00282690748281 150.69790343067143,90.8151864126994 149.51429479033686,91.08362100220984 148.6909148665145,92.15735622339707 147.58449809392914,92.45934334989579 147.25,93.16397843463346 147.99618805584032,95.61340738789295 149.77160101640038,96.85488880057528 149.90025412966497,98.63321535072464 153.29669631517027,98.70032174354128 153.96569250314496,99.13651281823695 154.0428843710106,106.38387407823757 156.1785260483157,107.42398586671334 157.56797966954764,106.38387407823757 158.93170266819652,106.21611367119476 159.29193138505798,107.45753778149083 159.00889453617856,109.5377469262894 161.35038119438104,111.95345003552211 161.55622617539484,113.63100669336563 164.82401524775196,113.89941462180286 165.51874205854256,113.42970054129546 165.10705209651496,101.95495825679973 163.6146759847179,101.41811417274585 163.46029224910308,99.13651281823695 161.55622617539484,97.05620947851276 159.858005082584,97.35819016450841 157.49078780168202,96.25092570821289 154.891994917416,96.78778186884301 154.22299872944131,95.1101022008661 151.62420584494248,94.7410110294586 150.87801778898574,93.70084181017592 150.62071156292222,90.8822950894828 149.4885641677538,91.08362100220984 148.76810673438013,92.19091036816826 147.25,92.99620837245311 147.94472681067418,95.74762191808259 149.79733163909987,96.92199571280798 149.90025412966497,98.70032174354128 153.9399618806783,99.10295968799619 154.09434561629314,106.48453026352217 156.1527954256162,107.45753778149083 158.13405336719006,106.18256157517317 159.00889453617856,106.31676993014116 158.82878017786425,109.26933390162594 161.4018424396636,112.02055253696744 161.55622617539484,113.63100669336563 165.33862770011183,113.76521069674345 165.51874205854256,109.06802392727695 168.16899618820753,108.53119646645791 168.5806861500023,107.79305665954598 168.68360864045098,89.13746312026342 175.75952986022457,88.56703440916317 182.19218551472295,88.73480770653987" stroke="#4dd2ff" stroke-linecap="round" stroke-linejoin="round" stroke-width="0.5"><title>2023-04-17 10.1km</title></polyline><polyline fill="none" points="12.25,150.24122132402772 16.617052023109864,150.21860706205553 17.998554913283442,150.2713736424903 19.171965317917056,150.2223761070909 21.790462427743478,150.27891171660303 23.041907514445484,150.23745228174084 25.47543352600769,150.2713736424903 26.518786127169733,150.16207132039563 32.45231213873194,149.84169977744386 33.68352601156221,149.88315984829205 36.20664739883796,149.82662337152578 37.30202312138863,149.90200531301343 39.799132947970065,149.77762499144774 43.90606936416589,149.7625485480694 44.328034682082944,149.77385588142533 44.51589595376572,149.90954349505046 44.77023121387174,149.90577440430388 44.92341040461906,149.78893231818438 46.033236994218896,149.74370298148642 49.94075144507224,149.73239563491188 50.160404624271905,149.78516320981544 50.58815028902609,149.72862651829746 51.59971098265669,149.72108828339879 52.75,149.77762499144774" stroke="#4dd2ff" stroke-linecap="round" stroke-linejoin="round" stroke-width="0.5"><title>2023-04-14 12.0km</title></polyline><polyline fill="none" points="97.75,142.03807205246994 97.10591603047214,142.03807205246994 97.23473282437772,137.60326883856033 85.64122137404047,137.5360741927725 78.55629770993255,138.107228056062 78.50477099244017,156.92091537134547 77.96374045801349,157.39123783705872 76.03148854954634,157.4584266821621 75.46469465643167,157.0552933167637 75.02671755722258,150.63865878975776 73.58396946568973,150.30270440642198 73.55820610688534,148.08539316931274 71.96087786264252,146.03604104742408 71.18797709920909,145.73367607370892 69.8998091602698,146.10323320981115 67.32347328250762,144.96096377937647 64.79866412212141,145.43131070252275 64.10305343521759,143.75149584600877 61.81011450383812,143.54991723870626 60.95992366410792,142.74360104279185 60.57347328250762,139.6190990825562 59.517175572458655,139.7870841386466 58.74427480925806,140.89578243164578 57.45610687020235,141.23175055609317 57.50763358792756,145.63288766086043 59.749045801581815,145.53209920384688 60.109732824377716,147.51426408551924 63.30438931309618,147.44707233537338 63.97423664131202,147.8166267182969 64.15458015270997,155.20758968457812 66.16412213735748,156.0810514332552 67.65839694661554,154.93883155606454 68.92080152663402,154.7036679360026 69.33301526715513,156.18183526782377 69.02385496185161,157.96234239534533 71.44561068702023,160.78424998726405 71.52290076343343,162.2287845240935 74.87213740451261,162.5983151576802 75.59351145033725,161.89284706923354 75.25858778622933,152.04966184089426 74.9751908397302,150.47068165944074 73.58396946568973,149.96674953246838 73.60973282437772,148.28696780141036 73.12022900755983,147.3462846733455 71.6774809161434,145.63288766086043 69.8998091602698,146.10323320981115 67.58110687020235,144.89377128334309 64.90171755722258,145.43131070252275 63.87118320609443,143.54991723870626 61.4751908397302,143.5163207870355 60.75381679390557,142.34044188477856 60.57347328250762,139.5183079900453 57.45610687020235,141.19815376568295 57.94561068713665,144.22184524251497 59.82633587787859,145.49850304162828 59.95515267166775,147.3462846733455 63.896946564898826,147.74943505652482 64.07729007629678,155.14040018191736 66.26717557245865,156.11464604971115 67.52958015259355,155.10680542321643 68.92080152663402,154.8380471769342 69.02385496185161,158.19750268367352 71.49713740451261,160.71706211367564 71.70324427471496,162.36315936857136 74.9494274809258,162.5983151576802 75.54198473284487,161.92644083686173 75.12977099232376,150.84023118420737 74.79484732833225,150.30270440642198 73.68702290079091,150.2019179957715 73.50667938939296,147.85022254183423 71.6001908397302,145.73367607370892 69.87404580158181,146.10323320981115 67.50381679378916,144.96096377937647 64.8501908397302,145.53209920384688 64.0515267176088,143.717899423762 61.526717557339,143.41553140238102 60.77958015270997,142.13886204072332 60.676526717608795,139.6190990825562 59.64599236648064,139.7198901309166 58.718511450337246,140.89578243164578 57.25,141.56771818984998 58.1001908397302,144.42342326091602 59.749045801581815,145.43131070252275 59.98091603058856,147.3462846733455 63.87118320609443,147.74943505652482 64.20610687020235,155.3083739017602 66.18988549616188,156.0810514332552 67.96755725191906,154.9052367679542 68.94656488555484,154.9052367679542 69.30725190835074,156.11464604971115 68.99809160304721,158.063125405577 71.41984732821584,160.71706211367564 71.6001908397302,162.32956566484063 75.4131679389393,162.43034676151 75.56774809164926,157.7271818666195 78.14408396952786,157.29045453245635 78.65935114491731,156.6185647068487 78.81393129762728,137.80485265802417 89.7375954198651,137.4016848423198" stroke="#4dd2ff" stroke-linecap="round" stroke-linejoin="round" stroke-width="0.5"><title>2023-04-03 10.0km</title></polyline><polyline fill="none" points="102.25,150.216722616904 107.69797687861137,150.22049166249417 111.44653179190936,150.28456535326404 115.48410404624883,150.2657201666152 116.49566473987943,150.16772497412785 122.6719653179025,149.83981527722426 123.6604046242719,149.8925826362738 126.18352601156221,149.82850797196443 126.86560693640786,149.84735347798232 127.26156069364515,149.9114280954891 129.7875722543249,149.77950959188638 133.85982658959983,149.76066403629557 134.3078034682112,149.77574048186398 134.5447976878495,149.90388991345208 134.77890173411288,149.8850444487307 134.93786127166823,149.77950959188638 136.2182080924831,149.7380493514229 139.09682080923812,149.76443314850803 139.87427745663445,149.7192037655568 140.00433526012057,149.76820226018208 141.4465317918948,149.71543464673596 141.5361271676229,149.75689492353195 142.49566473987943,149.74181846695137 142.75,149.79458602642808" stroke="#4dd2ff" stroke-linecap="round" stroke-linejoin="round" stroke-width="0.5"><title>2023-03-31 11.9km</title></polyline><polyline fill="none" points="147.25,149.13686417436475 147.38861950940918,149.18507015569048 157.85439247006434,149.21519883678957 158.74155733030057,149.13083841877778 163.62327438677312,148.8747421787739 164.33947518540663,148.9108971348669 166.67983456932416,148.87775509420499 167.2851397604245,148.92596168119417 169.2951226469013,148.8295483945294 172.42099258414237,148.81147085309567 172.91078151740658,148.83256131655617 173.05402167713328,148.9229487728153 173.19957216201874,148.93500040370964 173.39826012549747,148.82352254914622 174.64121505990624,148.7964062231331 185.80239589276607,148.79038036806196 185.98491158014804,148.83557423815182 185.98029092984507,149.38391863757533 185.90867084998172,149.54661142396435 185.93639475184318,149.88103145441346 186.03573873361165,149.97442707079972 186.22056474615238,149.9894908402839 186.2737022247602,150.14314066059887 186.51859669138503,150.08891144295376 186.7288362806721,150.1913442898931 186.846662863667,150.15820430685562 186.93676554478589,150.1943570129879 187.06845407873334,150.3721068964078 187.06845407873334,150.5528679186682 187.20476326298376,150.6010705903809 187.26021106675034,151.20961963193804 187.51665715915442,151.16744354476396 187.52127780947194,150.41127191900887 187.56286366230051,150.3811449851437 187.75,150.4052465357545" stroke="#4dd2ff" stroke-linecap="round" stroke-linejoin="round" stroke-width="0.5"><title>2023-03-15 16.1km</title></polyline><polyline fill="none" points="52.75,190.55463806349144 51.41759776533581,190.62020488339476 51.41759776533581,187.2762726431829 50.889664804330096,186.35832174308598 33.342178770923056,186.9484334669978 32.96508379885927,188.75154300896975 33.342178770923056,196.68505288912274 32.73882681573741,200.35666500950174 33.090782122686505,205.43781484368083 32.56284916191362,205.9295329163724 30.50139664800372,206.15900098158454 30.074022346409038,205.73284581660118 29.671787709346972,199.40598549126298 28.21368715085555,199.0125996850402 28.21368715085555,196.98009536831523 26.504189944127575,194.81644151372893 24.44273743010126,195.01313818065682 22.205307262483984,193.83295559318503 19.515363128390163,194.35748195380438 18.86173184355721,192.6527667992632 16.272346368641593,192.29215231887065 15.719273742986843,191.27587202895666 15.54329608939588,188.65319195290795 14.462290502735414,188.78432668467576 13.783519553020597,189.86618529785483 12.526536312885582,190.2595871368103 12.526536312885582,194.42304766272719 14.562849161913618,194.25913335462974 15.065642458037473,196.32444488791225 18.53491620114073,196.45557513725362 18.8114525139099,196.81618292782514 18.83659217879176,203.76596533835982 20.94832402234897,204.78218907101837 22.356145251425914,203.66762086190283 23.66340782120824,203.4381502494507 23.839385474915616,206.9457468528126 26.076815642416477,209.20762587069476 26.202513966476545,210.74831301993981 29.219273742986843,211.14167825691402 30.048882681527175,210.71553255246545 30.048882681527175,202.8153002615145 29.646648044581525,199.40598549126298 28.163407821091823,198.94703531701816 28.188547485973686,197.0128778420476 27.585195530671626,196.02940154683893 26.15223463671282,194.6525274929154 24.54329608939588,195.0459209416731 22.10474860330578,193.89852145523764 19.515363128390163,194.42304766272719 19.08798882679548,192.84946536259667 16.724860335118137,192.55441745300777 15.819832402165048,191.73483789105376 15.618715083808638,188.71875932838884 14.286312849144451,188.8498940218269 13.708100558607839,189.89896881079767 12.30027932964731,190.55463806349144 12.953910614480264,193.21007894756622 14.738826815620996,194.29191622576036 15.04050279315561,196.32444488791225 18.73603351949714,196.4883576874854 18.886871508322656,203.83152829870232 20.973463687114418,204.68384503995185 22.45670391060412,203.63483936025295 23.713687150739133,203.53649482643232 24.040502793272026,204.74940773204435 23.638268156326376,206.5851553375105 26.026536312769167,209.1420644808095 26.202513966476545,210.74831301993981 29.2946927373996,211.07611743189045 30.048882681527175,210.71553255246545 30.048882681527175,202.42192043107934 29.621508379816078,199.40598549126298 28.188547485973686,199.11094620119547 28.21368715085555,197.0784427751496 26.353351955185644,194.7836587191996 24.618715083808638,195.0787036979891 22.10474860330578,193.89852145523764 19.64106145245023,194.45583051003632 19.037709497264586,192.7511161025177 16.372905027936213,192.48885119828628 15.643854748574086,191.17752207927697 15.568435754161328,188.75154300896975 14.412011173088104,188.81711035569606 13.708100558607839,189.89896881079767 12.25,190.58742147588055 12.979050279362127,193.30842800661048 14.814245810033754,194.45583051003632 14.889664804562926,196.1933145619987 18.761173184379004,196.52114023313334 18.96229050285183,203.89709123985085 20.998603351879865,204.78218907101837 22.45670391060412,203.63483936025295 23.738826815620996,203.5692763425468 23.738826815620996,206.78184169041924 26.026536312769167,209.20762587069476 26.277932960889302,210.84665439378296 30.023743016645312,210.91221528577444 30.149441340821795,206.45403100656404 33.040502793272026,205.43781484368083 33.21648044686299,187.11235311492055 34.87569832406007,186.6533777990262 42.342178770923056,186.6205938119965" stroke="#4dd2ff" stroke-linecap="round" stroke-linejoin="round" stroke-width="0.5"><title>2023-03-06 10.0km</title></polyline><polyline fill="none" points="57.34822383908613,198.84230429475247 57.25,198.85360664667132 57.26155574579025,198.9327229713308 57.44644767815771,198.9930019129206 65.96303231330239,198.97793219073174 67.09260646266921,199.03444360353387 69.93531992298085,198.98169962210886 70.50732933876861,199.03067617987108 71.30467579714605,198.9251880937245 77.92034025251633,198.58234883361 78.67435266425309,198.64262859420342 81.34084100151085,198.59365129945036 82.2970789642859,198.65769851233563 84.00155146588804,198.62002370048867 84.8711213353381,198.5371389206921 88.8029638348089,198.51076643488705 89.32297239461332,198.53337142437704 89.58297667453007,198.6614659904917 89.77364647979266,198.64262859420342 89.91809330195247,198.52960392749992 91.04188957843871,198.48816142558098 93.85282473785628,198.48439392211367 94.27460945860366,198.52206893210496 94.46816820029926,198.48062641808065 97.15776802910841,198.46555639646613 97.75,198.51076643488705" stroke="#4dd2ff" stroke-linecap="round" stroke-linejoin="round" stroke-width="0.5"><title>2023-03-03 12.1km</title></polyline><polyline fill="none" points="142.75,190.46860689853202 142.7239717222983,186.12396764451114 131.06330334185623,185.98819635873951 124.21786632377189,186.46339551171695 123.7233290488366,187.2101350743469 124.06169665802736,197.76606032189738 123.54113110539038,200.24374820380763 124.08772493572906,201.73713635814784 124.00964010262396,205.80996436100395 121.56298200495075,206.28512297806446 120.75610539841,205.87784422296681 120.2615681233583,199.32734617551614 118.72589974291623,198.95399616492796 118.69987146521453,196.747824765509 117.32037275051698,194.8131649150746 116.46143958857283,194.47374924532778 115.05591259629,194.94893104425864 112.45308483275585,193.7270330266474 109.77217223646585,194.2700996055937 109.22557840612717,192.50512858343427 106.62275064259302,191.8262900050613 105.9199871463934,190.6722598702181 105.78984575823415,188.2623549298005 104.54048843181226,188.49995230221248 103.86375321331434,189.58610862493515 102.56233933148906,189.9255314344773 102.27602827758528,190.5704334066686 103.00482005125377,192.9803144082107 104.90488431870472,194.134333079739 105.00899742916226,196.17082263612247 108.00224935717415,196.001115854815 108.99132390739396,196.34052929354948 109.12146529555321,203.9772005937557 110.0845115679549,204.72388387344836 111.33386889449321,204.8935842843057 112.71336760907434,203.84143973961181 114.17095115676057,203.63779830970452 114.11889460147358,207.06573859682248 116.59158097673208,209.57726670970442 116.69569408730604,211.27422979776748 117.42448586109094,211.44392542507558 120.2355398456566,211.44392542507558 120.70404884312302,211.07059488157392 120.2355398456566,199.3612870559009 118.77795629808679,198.95399616492796 118.69987146521453,196.78176602252643 117.00803341902792,194.71134026625077 114.97782776341774,194.914989519355 112.50514138792641,193.7270330266474 109.8762853469234,194.30404122459004 109.25160668371245,192.6069541991019 106.77892030833755,192.13176761078648 105.97204370156396,191.24927565407415 105.71176092536189,188.29629742649558 104.54048843181226,188.49995230221248 103.7336118251551,189.68793551986164 102.25,190.40072253494873 102.92673521838151,192.9803144082107 104.77474293054547,194.23615798156243 105.11311053973623,196.27264664543327 107.27345758350566,196.001115854815 108.9392673522234,196.37447061002604 109.12146529555321,204.04508099105442 111.33386889449321,204.8935842843057 112.66131105390377,203.94326038766303 114.11889460147358,203.63779830970452 114.45726221066434,205.09722461370984 114.14492287905887,207.09967834690178 116.56555269914679,209.6451454711787 116.72172236500774,211.24029065750074 120.41773778910283,211.4099863095762 120.57390745496377,203.87537996054743 120.18348329036962,199.39522793129436 118.69987146521453,199.02187802972912 118.67384318751283,196.88358976415475 116.7737789201783,194.60951557281078 114.92577120813075,194.94893104425864 112.71336760907434,193.7270330266474 109.9023136246251,194.33798283859505 109.19955012842547,192.6069541991019 106.46658097684849,192.26753530661517 105.71176092536189,190.87591266346863 105.73778920294717,188.36418240494095 104.59254498698283,188.4660098353488 103.75964010274038,189.62005092817708 102.38014138804283,190.02735818071233 102.25,190.80802841877448 103.13496143952943,193.25184872897808 104.87885604100302,194.30404122459004 104.90488431870472,196.17082263612247 108.99132390739396,196.57811840555223 109.1474935732549,203.9772005937557 111.28181233920623,205.02934452373302 112.58322622103151,203.9093201765936 114.04080976860132,203.60385805407714 114.43123393319547,205.02934452373302 114.19697943446226,207.20149756719184 116.56555269914679,209.6451454711787 116.69569408730604,211.27422979776748 120.0012853469234,211.51180364127504 120.67802056553774,211.104534046739 120.67802056553774,206.72634082398145 123.6973007711349,205.77602442266652 123.82744215929415,186.59916651986714 131.6098971721949,186.02213918753841 138.2991645244183,186.12396764451114" stroke="#4dd2ff" stroke-linecap="round" stroke-linejoin="round" stroke-width="0.5"><title>2023-03-01 10.1km</title></polyline><polyline fill="none" points="187.75,190.63037388546218 186.78024574671872,190.53053636853292 186.57608695642557,186.50372004884412 174.836956521729,186.2707615547697 168.63563327037264,186.7699580360495 168.20179584121797,187.4688312721555 168.0741965973284,192.56055727883358 168.55907372396905,204.47408590317355 168.02315689972602,205.93827548334957 165.80293005669955,206.2377676473261 165.26701323245652,205.67205989598006 164.90973534970544,199.5822933892341 163.40406427218113,199.01656911184546 163.35302457469516,196.886770997211 161.59215500950813,194.7236744073889 159.80576559551992,194.95662425766932 157.27930056711193,193.79187262395862 154.65075614361558,194.35760987557296 154.0382797732018,192.62711503529863 151.05245746672153,192.02809452796646 150.5931001889985,191.02972351550125 150.5931001889985,188.50049736861547 149.44470699422527,188.76673302218842 148.67911153112072,189.83167252519343 147.45415879006032,190.23102355540323 147.27551984856836,190.92988617364608 148.09215500939172,193.2261339675606 149.80198487709276,194.42416710693215 149.90406427206472,196.18792665256478 153.83412098290864,196.55398824330769 153.88516068039462,203.90837377260323 155.95226843096316,204.80685708860983 157.53449905477464,203.70871033225558 158.81049149332102,203.67543307521555 159.14224952738732,204.9732424990798 158.81049149332102,206.70364356436767 161.3114366729278,209.53215546841966 161.38799621921498,211.02958873113676 164.62901701324154,211.2625219097099 165.42013232514728,210.82993153137795 164.93525519850664,199.6155712442851 163.42958412098233,198.98329116942477 162.8936672967393,196.2212050031667 161.46455576550215,194.7236744073889 159.7802457466023,195.0564598349738 157.3303402645979,193.89170871165697 154.75283553870395,194.39088849372638 154.11483931937255,192.72695163336175 151.35869565210305,192.36088389311044 150.6441398866009,190.9964444063371 150.5931001889985,188.63361523432832 149.49574669182766,188.80001245711173 148.88327032129746,189.7651139521622 147.58175803394988,190.1644650990056 147.25,190.83004878804786 148.1687145556789,193.42580659492523 149.75094517949037,194.42416710693215 149.9295841208659,196.2212050031667 153.85964083170984,196.62054483304382 154.0382797732018,204.04148263551178 156.20746691874228,204.80685708860983 157.48345935717225,203.77526483181282 158.78497164451983,203.54232399835018 159.16776937618852,205.0397966291639 158.78497164451983,206.57053625678236 161.26039697532542,209.39904981320433 161.3624763705302,210.92976015315799 164.60349716444034,211.2957980586507 165.3435727787437,210.56372165960784 164.98629489599261,199.68212693950045 164.7055765595287,199.21623666428786 163.42958412098233,198.98329116942477 163.37854442337994,196.85349274372857 161.89839319465682,194.98990278823476 161.13279773155227,194.5905601001723 159.7292060489999,195.02318131402717 157.53449905477464,193.8251513246796 154.72731568990275,194.35760987557296 154.06379962188657,192.6936727721477 151.33317580341827,192.29432605899638 150.72069943277165,191.02972351550125 150.5931001889985,188.56705631120712 149.49574669182766,188.80001245711173 148.80671077489387,189.8649518043967 147.35207939508837,190.43069880790426 147.88799621921498,192.92662469831703 149.80198487709276,194.35760987557296 149.9806238183519,196.25448334911198 153.88516068039462,196.58726654063503 154.11483931937255,204.04148263551178 156.05434782605153,204.80685708860983 157.6110586010618,203.74198758440616 158.83601134223863,203.54232399835018 159.16776937618852,204.9732424990798 158.861531190807,206.77019718913652 161.3369565216126,209.46560265053995 161.46455576550215,210.96303635064396 164.78213610569946,211.2957980586507 165.39461247622967,210.86320774353226 165.44565217394847,206.5372594177461 168.150756143732,205.90499855196686 168.45699432888068,205.4058439974906 168.4059546313947,189.0662477606238 168.73771266522817,186.73667830464547 186.16776937618852,186.20420194136386" stroke="#4dd2ff" stroke-linecap="round" stroke-linejoin="round" stroke-width="0.5"><title>2023-02-22 10.2km</title></polyline><polyline fill="none" points="12.25,247.7464208045276 14.857620528768166,247.72999292761597 18.649377916008234,247.80391829811379 22.721423017108464,247.75874170591123 23.05839813374041,247.7957043776696 24.144906687404728,247.67249528282446 30.95684292378428,247.31929288477477 31.955171073088422,247.38911231536986 32.51889580092393,247.33161397337062 34.75489891135658,247.31929288477477 35.910692068428034,247.40554039149174 39.70874805600033,247.23715215618358 43.11944012441381,247.24125919832113 43.60443234836566,247.26179439996486 43.77764385692717,247.40964740902382 44.042185069978586,247.39732635463224 44.25318818038795,247.25768736083955 45.73020995334082,247.20840284447513 48.97398911352502,247.24947328078088 49.23853032659099,247.20018875002643 52.047706065306556,247.19608170188803 52.75,247.274115513761" stroke="#4dd2ff" stroke-linecap="round" stroke-linejoin="round" stroke-width="0.5"><title>2023-02-17 11.0km</title></polyline><polyline fill="none" points="57.25,247.58499018563998 57.79354971239809,247.58860672207993 57.840694330312544,247.74411728924497 58.475760065732175,247.69348604905645 65.22021364008833,247.71518516466858 66.01612571897567,247.76581636048832 67.37777321280737,247.70795212824487 67.63290879210399,247.74773380243641 69.38835250615375,247.74773380243641 76.47945768282807,247.33544789518965 77.41957682826614,247.3860798676833 80.02362366473244,247.33544789518965 81.09963023828459,247.3969295626066 84.06696795398602,247.2594997422675 85.58668857847806,247.29204897919408 87.0869967132312,247.2558831577462 87.61668036153424,247.28843239943308 87.78029991782387,247.4113958150956 88.00215694330109,247.40054612651875 88.20737469186133,247.26673290972758 89.16967953983112,247.23418363951168 97.75,247.2594997422675" stroke="#4dd2ff" stroke-linecap="round" stroke-linejoin="round" stroke-width="0.5"><title>2023-02-03 12.5km</title></polyline><polyline fill="none" points="142.75,239.42984767492453 141.73750000004657,239.26480385215837 141.28187499998603,235.03964094315597 123.36062499997206,235.4027439837082 123.03156250005122,236.1619575467339 123.48718749999534,244.7772023081925 123.00624999997672,249.56330747199536 123.46187500003725,251.84079778185696 123.1074999999255,254.18427834298927 122.67718750005588,254.64637023313844 120.39906249998603,254.74538980085345 120.0193750000326,254.31630469376978 119.53843749989755,248.01196035010798 118.1209375000326,247.64887757084216 118.09562499995809,245.53638437445625 116.42499999993015,243.52289591469162 114.47593749989755,243.65492849450675 112.22312499990221,242.4996408053412 109.46406250004657,243.06078127784713 108.88187499996275,241.44337260637258 106.09749999991618,240.81621102709323 105.59124999993946,239.89196973737853 105.36343750008382,237.18524135615735 104.32562499993946,237.4163048008195 103.59156249987427,238.57161847998213 102.37656249990687,238.80268050695304 102.25,239.46285642495786 103.08531249989755,241.9054905509256 104.80656249984168,242.9287483508233 104.90781250002328,244.7772023081925 108.75531250005588,245.1402897015796 109.00843749998603,252.50093560988898 111.109375,253.4581320352445 112.52687499998137,252.33590133370308 113.91906250000466,252.30289446393726 113.76718749990687,255.30649986561912 116.27312499994878,257.9139930621168 116.37437500001397,259.56428966527164 119.31062500004191,259.8613417740853 120.12062499998137,259.3662547092681 119.69031249999534,248.14399030695495 118.1209375000326,247.54985489341198 118.14624999999069,245.70142361655599 117.3868749999674,244.48013037048804 116.22249999991618,243.29183871438727 114.60249999992084,243.68793662746612 112.24843749997672,242.4996408053412 109.59062499995343,243.06078127784713 108.78062499989755,241.31133873431827 106.47718749998603,241.17930478512426 105.66718749993015,239.92497841994918 105.4646875000326,237.18524135615735 104.42687499988824,237.4163048008195 103.89531249995343,238.37356512600672 102.55374999996275,238.80268050695304 102.25,239.42984767492453 103.11062499997206,241.97150732306181 104.80656249984168,243.09378949746315 104.93312499998137,244.84321824117796 108.72999999998137,244.97525004962517 109.03375000006054,252.5669492866291 111.0840624999255,253.4911387362663 112.72937500011176,252.2368807101302 113.84312499989755,252.1708669369691 113.74187499983236,255.33950629661558 116.24781249999069,257.9469991123333 116.32374999998137,259.53128385134914 119.00687499996275,259.960359056844 119.96874999988358,259.6303012788412 120.14593750005588,259.13521370786475 120.07000000006519,251.2466720878001 119.61437500000466,247.94594534262433 118.29812499997206,247.71489266492426 117.91843749990221,245.10728178083082 116.37437500001397,243.39086325772223 114.62781249987893,243.75395287873107 112.24843749997672,242.53264910703 109.54000000003725,243.12679771239345 109.03375000006054,241.44337260637258 106.75562499987427,241.1132877815835 105.81906249991152,240.25506498053437 105.48999999999069,237.2512595073349 102.37656249990687,239.09975990875682 103.11062499997206,241.9054905509256 104.85718749999069,243.12679771239345 104.95843749993946,244.84321824117796 108.67937499994878,245.07427385517803 109.03375000006054,252.63296294411703 111.0840624999255,253.4581320352445 112.70406250003725,252.2368807101302 113.84312499989755,252.1708669369691 114.12156249990221,253.557152123758 113.74187499983236,255.24048698905972 116.22249999991618,257.9469991123333 116.29843749990687,259.49827803260996 119.63968750007916,259.76232444784546 120.24718750000466,259.26723716616107 120.17125000001397,255.1744740933791 122.65187499998137,254.58035716378072 123.23406249994878,253.68917884079565 123.43656249996275,235.43575332207547 141.4084375000093,235.1056597212155" stroke="#4dd2ff" stroke-linecap="round" stroke-linejoin="round" stroke-width="0.5"><title>2023-01-30 10.2km</title></polyline></svg>