<?xml version="1.0" encoding="utf-8" ?>
<svg baseProfile="full" height="300mm" version="1.1" viewBox="0,0,200,300" width="200mm" xmlns="http://www.w3.org/2000/svg" xmlns:ev="http://www.w3.org/2001/xml-events" xmlns:xlink="http://www.w3.org/1999/xlink"><defs /><rect fill="#222222" height="300" width="200" x="0" y="0" /><text fill="#FFFFFF" style="font-size:12px; font-family:Arial; font-weight:bold;" x="10" y="20">Over 10km Runs</text><text fill="#FFFFFF" style="font-size:4px; font-family:Arial" x="10" y="280">ATHLETE</text><text fill="#FFFFFF" style="font-size:9px; font-family:Arial" x="10" y="290">chending</text><text fill="#FFFFFF" style="font-size:4px; font-family:Arial" x="120" y="280">STATISTICS</text><text fill="#FFFFFF" style="font-size:3px; font-family:Arial" x="120" y="285">Number: 16</text><text fill="#FFFFFF" style="font-size:3px; font-family:Arial" x="120" y="290">Weekly: 1.2</text><text fill="#FFFFFF" style="font-size:3px; font-family:Arial" x="141" y="285">Total: 182.4 km</text><text fill="#FFFFFF" style="font-size:3px; font-family:Arial" x="141" y="290">Avg: 11.4 km</text><text fill="#FFFFFF" style="font-size:3px; font-family:Arial" x="167" y="285">Min: 10.0 km</text><text fill="#FFFFFF" style="font-size:3px; font-family:Arial" x="167" y="290">Max: 16.1 km</text><polyline fill="none" points="52.75,44.43260368882329 51.86072772892658,44.167539562578895 51.75909661222249,40.290941322469735 51.225533249555156,39.992738713364815 34.380175658734515,40.22467410992249 33.36386449181009,40.65541064557328 33.287641154252924,59.275700404527015 30.975533249555156,59.83892378612654 30.44196988712065,59.37509286761633 29.908406524453312,53.14641436081729 28.587202007416636,52.74883332983882 28.485570890828967,50.66152148338733 26.935696361237206,48.54105803447601 24.75062735262327,48.60732281731907 22.336888331221417,47.480818876152625 19.74529485567473,47.97780659876298 19.13550815556664,46.35430934003671 17.001254705130123,46.02298194116156 16.010351317352615,45.29405995977868 15.654642409062944,42.14641541398305 14.485884567140602,42.37834860813746 13.647427854244597,43.53801102134457 12.504077791585587,43.83620896920911 12.275407779030502,44.366337686311454 12.961417816812173,45.559122769511305 13.037641154252924,46.751901579860714 14.816185696283355,48.077204012530274 15.019447929807939,49.86635001312243 18.906838143011555,50.23080394975841 19.059284818009473,57.51975970879721 21.193538268329576,58.51369007404719 22.5655583437765,57.42036643279425 23.937578418874182,57.28784199694928 23.861355081549846,60.40214576935978 26.3005018819822,63.0194531067973 26.351317440276034,64.57657099256176 29.247804265934974,64.87474128334725 30.086260978598148,64.87474128334725 30.416562107857317,64.37779058099841 29.984629861894064,54.17349546561309 29.73055207019206,52.914492177427746 28.5363864491228,52.71570154573419 28.23149309901055,50.36333250872849 26.834065244649537,48.54105803447601 26.249686323688366,48.24286627219408 24.826850689947605,48.57419042836409 22.5655583437765,47.480818876152625 19.796110413968563,47.94467411772348 19.110100376303308,46.3211766218883 17.052070263423957,46.02298194116156 16.010351317352615,45.29405995977868 15.654642409062944,42.179548742002225 14.485884567140602,42.4446151915472 12.25,44.26693864625122 13.088456712663174,46.818166885423125 14.790777917136438,48.0440715461591 14.943224592134356,49.76695338339778 18.906838143011555,50.29706823886954 19.08469259715639,57.58602186862845 21.11731493100524,58.51369007404719 22.489335006219335,57.42036643279425 23.962986198137514,57.38723533105804 23.810539523139596,60.20336169975053 26.3005018819822,63.05258338582644 26.503764115390368,64.642831091056 30.34033877030015,64.57657099256176 29.908406524453312,53.24580950976815 28.485570890828967,52.61630616459297 28.00282308657188,49.932614408797235 26.40213299856987,48.24286627219408 24.75062735262327,48.57419042836409 22.514742785366252,47.447686322557274 19.796110413968563,47.97780659876298 19.186323713860475,46.35430934003671 17.02666248427704,46.02298194116156 15.984943538205698,45.12839554641687 15.705457967356779,42.179548742002225 14.562107904581353,42.31208200551919 13.774466750328429,43.43861161827226 12.300815558293834,44.13440652504505 13.037641154252924,46.78503423510119 14.790777917136438,47.97780659876298 15.019447929807939,49.89948221342638 18.932245922274888,50.19767179789778 18.983061480568722,57.45349752967013 19.897741530672647,58.21551142168755 21.24435382685624,58.48055913198914 22.5655583437765,57.35410422454879 23.91217063984368,57.28784199694928 23.91217063984368,60.56779902774724 26.325909661129117,63.08571366011165 26.503764115390368,64.60970104417356 29.73055207019206,65.00726128664974 30.34033877030015,64.60970104417356 29.908406524453312,53.080150904119364 28.510978669975884,52.649437963205855 28.4093475532718,50.4627288771444 26.70702634868212,48.40852841081505 24.801442910800688,48.60732281731907 22.616373902070336,47.447686322557274 21.574654955998994,47.6464815713116 22.489335006219335,47.51395142490219 24.674404014949687,48.67358758090995 26.3005018819822,48.34226356988074 27.596298619755544,49.369366428640205 28.4093475532718,50.42959675924794 28.383939774124883,52.61630616459297 29.93381430360023,53.01388742798008 30.314930991036817,56.75774347939296" stroke="#4dd2ff" stroke-linecap="round" stroke-linejoin="round" stroke-width="0.5"><title>2023-06-02 10.0km</title></polyline><polyline fill="none" points="57.25,52.722924273621175 70.39662694190338,52.76788327399299 71.40503298574185,52.662978817175826 77.4324856352323,52.33327630203894 78.05878910406318,52.337022945333956 78.4753670993814,52.39696916370849 80.90013832729892,52.33327630203894 82.09528623110964,52.41195569639967 85.02569695679995,52.277076586846306 88.44450947010773,52.26208997532376 89.09379655246448,52.28082323835406 89.26904660566652,52.419448959466536 89.53335816132312,52.40446243115548 89.69424345604784,52.277076586846306 91.02154713768687,52.23211672600701 97.75,52.25459666628194" stroke="#4dd2ff" stroke-linecap="round" stroke-linejoin="round" stroke-width="0.5"><title>2023-05-09 12.1km</title></polyline><polyline fill="none" points="142.75,44.452648139500525 142.18428571429104,44.28498464697623 142.00428571435623,39.85862415077281 139.71571428573225,39.82509079101146 139.07285714289173,40.29455738278921 133.95571428572293,39.79155742631701 123.56714285712224,40.39515724183002 123.23285714292433,53.23804382041271 123.54142857145052,59.407739052330726 122.71857142844237,59.910696027916856 120.99571428576019,59.97775687473768 120.50714285718277,59.57539150006778 120.01857142860536,53.13744958968891 118.63000000000466,52.63447777417605 118.68142857134808,50.72317482481594 117.03571428568102,48.47653522218752 114.72142857150175,48.57713149547635 112.53571428568102,47.43703781631484 109.7071428571362,47.90648884057009 109.29571428580675,46.397535703348694 106.77571428567171,45.961614061452565 105.87571428564843,45.12330088499584 105.6699999999255,42.13888112654968 104.5899999999674,42.30654618659173 103.74142857128754,43.37959967114148 102.48142857151106,43.78199343457527 102.27571428567171,44.41911545082985 102.91857142862864,46.59873002812674 104.77000000001863,47.97355319427152 104.8985714284936,49.85134714188462 108.93571428582072,50.28726139727223 108.96142857137602,57.66414633889508 111.06999999994878,58.67006682824285 112.56142857135274,57.5300232739537 113.82142857147846,57.362369332578965 114.25857142859604,58.53594435090781 113.94999999995343,60.61483394262905 116.44428571430035,63.23018443150795 116.49571428564377,64.7390269300231 119.68428571429104,65.20844257369754 120.5585714285262,64.53784850318334 120.12142857140861,53.439232149903546 119.83857142855413,52.835666632599896 118.65571428567637,52.60094628066872 118.60428571433295,50.656111274452996 117.62714285717811,49.247772191112745 116.5214285714319,48.20827827771427 114.87571428564843,48.61066357673553 112.66428571427241,47.43703781631484 109.83571428561118,47.90648884057009 109.2442857142305,46.330470889253775 106.98142857139464,45.89454912004294 106.0042857141234,45.19036605169822 105.69571428571362,42.10534809985256 104.46142857149243,42.34007918389398 102.27571428567171,44.28498464697623 103.14999999990687,46.96758583205519 104.84714285703376,48.007085363788065 104.94999999995343,49.81781524192775 108.93571428582072,50.28726139727223 108.98714285716414,57.56355404756323 111.06999999994878,58.60300559937605 112.61285714281257,57.63061557995388 113.92428571428172,57.46296171208087 114.31000000005588,58.67006682824285 114.02714285708498,60.64836426562397 116.41857142851222,63.16312453482533 116.59857142856345,64.87314578333462 120.60999999998603,64.80608636638499 120.12142857140861,53.13744958968891 118.65571428567637,52.63447777417605 118.7071428571362,50.68964305213012 117.93571428570431,49.48249597166432 116.49571428564377,48.10768184279732 114.87571428564843,48.47653522218752 112.56142857135274,47.36997330599115 109.73285714292433,47.94002101980732 109.0899999999674,46.22987363138236 107.0585714285262,45.928081593243405 106.0042857141234,45.12330088499584 105.61857142858207,41.97121594402415 104.43571428570431,42.30654618659173 102.25,44.15085376476054 103.04714285710361,46.90052118456515 104.79571428569034,47.97355319427152 104.97571428574156,49.85134714188462 108.85857142857276,50.28726139727223 109.06428571429569,57.56355404756323 111.12142857140861,58.636536216276 113.84714285726659,57.32883852966188 114.20714285725262,58.636536216276 113.97571428574156,60.68189458378765 116.36714285705239,63.16312453482533 116.57285714289173,64.80608636638499 119.89000000001397,65.07432391637121 120.60999999998603,64.50431874825153 120.14714285719674,53.20451241506089 118.63000000000466,52.56741478218464 118.5528571427567,50.253729560936335 116.62428571435157,48.174746137694456 114.92714285710827,48.54359940921131 112.48428571422119,47.30290877597872 109.88714285718743,47.90648884057009 109.14142857142724,46.196341202332405 106.49285714281723,45.79395167111943 105.82428571418859,44.75444211742433 105.69571428571362,42.10534809985256 104.56428571429569,42.30654618659173 103.7928571428638,43.37959967114148 102.45571428572293,43.714927856315626 102.25,44.385582757153315 102.84142857149709,46.59873002812674 104.77000000001863,47.97355319427152 104.97571428574156,49.85134714188462 108.9100000000326,50.253729560936335 109.0899999999674,57.66414633889508 111.06999999994878,58.67006682824285 113.87285714282189,57.362369332578965 114.23285714280792,58.804189227113966 113.92428571428172,60.54777328189812 116.41857142851222,63.19665448562591 116.54714285722002,64.77255665065604 119.68428571429104,65.14138325488602" stroke="#4dd2ff" stroke-linecap="round" stroke-linejoin="round" stroke-width="0.5"><title>2023-05-07 11.2km</title></polyline><polyline fill="none" points="147.25,52.70651657801318 149.35524413485837,52.67527909871569 154.93906486166816,52.703045749010926 156.1473845041619,52.755108130846565 156.37361175000842,52.720399888963584 159.31190444895765,52.727341541400165 166.0694453571632,52.33860588155221 166.96104685548926,52.387198186883325 169.83280212919635,52.34901852677285 170.2905796148989,52.41496517388805 172.90150818163238,52.27612991436217 176.41468423473998,52.26224634378377 176.75801734901324,52.27612991436217 176.9469836367207,52.411494302281426 177.18119537360326,52.39761081081815 177.35419267923862,52.27960080574485 178.57848130380444,52.244891869153435 187.75,52.24836276509268" stroke="#4dd2ff" stroke-linecap="round" stroke-linejoin="round" stroke-width="0.5"><title>2023-05-05 13.0km</title></polyline><polyline fill="none" points="52.75,109.44753243243031 52.15819567989092,109.1455462762824 51.875158831011504,104.85058907841449 39.03557814483065,105.01836235132942 33.55495552730281,105.65589967054257 33.4777636595536,124.4121268595627 30.956162643036805,125.01605863486475 30.41581956797745,124.51278226569411 30.00412960606627,118.17140553831996 28.5374841169687,117.80232531133515 28.511753494269215,115.4871721794043 26.762071156292222,113.44042316579726 24.703621346852742,113.60819016450841 22.46505717909895,112.50092570821289 19.660419313935563,113.0042283955263 19.171537484158762,111.42720962285239 16.72712833539117,111.0581185593037 15.852287166402675,110.15216525251162 15.543519695056602,107.1658494205185 14.462833545054309,107.36717530382157 13.845298602245748,108.3066937597032 12.558767471346073,108.81000563724956 12.275730622583069,109.44753243243031 12.970457433257252,111.69563911478326 14.797331639099866,113.10488880057528 14.900254129664972,114.81610893855395 18.914231257978827,115.18519396359625 19.06861499371007,122.66742614484974 21.127064803033136,123.67398586671334 22.54224904696457,122.53321784871514 23.905972045729868,122.33190525750979 24.343392630224116,123.67398586671334 24.034625158761628,125.65354045311688 26.42757306213025,128.23700128871133 26.530495552695356,129.84745568018116 29.721092757303268,130.18296559085138 30.518742058542557,129.44484314076544 30.41581956797745,121.39244416559814 30.055590851348825,118.10430008661933 28.563214739551768,117.66811417274585 28.48602287156973,115.4200659434864 26.42757306213025,113.30620947851276 24.883735705167055,113.67529692972312 22.516518424381502,112.53447925503133 19.686149936518632,112.97067491726193 19.274459974607453,111.46076332655502 16.93297331640497,111.1252260695328 15.929479034151882,110.25282690748281 15.697903430671431,107.0651864126994 14.514294790336862,107.33362100220984 13.690914866514504,108.40735622339707 12.584498093929142,108.70934334989579 12.25,109.41397843463346 12.99618805584032,111.86340738789295 14.771601016400382,113.10488880057528 14.900254129664972,114.88321535072464 18.296696315170266,114.95032174354128 18.965692503144965,115.38651281823695 19.042884371010587,122.63387407823757 21.17852604831569,123.67398586671334 22.56797966954764,122.63387407823757 23.93170266819652,122.46611367119476 24.29193138505798,123.70753778149083 24.00889453617856,125.7877469262894 26.350381194381043,128.2034500355221 26.55622617539484,129.88100669336563 29.82401524775196,130.14941462180286 30.518742058542557,129.67970054129546 30.107052096514963,118.20495825679973 28.614675984717906,117.66811417274585 28.460292249103077,115.38651281823695 26.55622617539484,113.30620947851276 24.858005082583986,113.60819016450841 22.490787801682018,112.50092570821289 19.891994917416014,113.03778186884301 19.222998729441315,111.3601022008661 16.62420584494248,110.9910110294586 15.878017788985744,109.95084181017592 15.620711562922224,107.1322950894828 14.488564167753793,107.33362100220984 13.768106734380126,108.44091036816826 12.25,109.24620837245311 12.944726810674183,111.99762191808259 14.797331639099866,113.17199571280798 14.900254129664972,114.95032174354128 18.93996188067831,115.35295968799619 19.09434561629314,122.73453026352217 21.152795425616205,123.70753778149083 23.134053367190063,122.43256157517317 24.00889453617856,122.56676993014116 23.828780177864246,125.51933390162594 26.401842439663596,128.27055253696744 26.55622617539484,129.88100669336563 30.33862770011183,130.01521069674345 30.518742058542557,125.31802392727695 33.16899618820753,124.78119646645791 33.58068615000229,124.04305665954598 33.683608640450984,105.38746312026342 40.759529860224575,104.81703440916317 47.19218551472295,104.98480770653987" stroke="#4dd2ff" stroke-linecap="round" stroke-linejoin="round" stroke-width="0.5"><title>2023-04-17 10.1km</title></polyline><polyline fill="none" points="57.25,117.74122132402772 61.61705202310986,117.71860706205553 62.99855491328344,117.77137364249029 64.17196531791706,117.7223761070909 66.79046242774348,117.77891171660303 68.04190751444548,117.73745228174084 70.47543352600769,117.77137364249029 71.51878612716973,117.66207132039563 77.45231213873194,117.34169977744386 78.68352601156221,117.38315984829205 81.20664739883796,117.32662337152578 82.30202312138863,117.40200531301343 84.79913294797007,117.27762499144774 88.90606936416589,117.26254854806939 89.32803468208294,117.27385588142533 89.51589595376572,117.40954349505046 89.77023121387174,117.40577440430388 89.92341040461906,117.28893231818438 91.0332369942189,117.24370298148642 94.94075144507224,117.23239563491188 95.1604046242719,117.28516320981544 95.58815028902609,117.22862651829746 96.59971098265669,117.22108828339879 97.75,117.27762499144774" stroke="#4dd2ff" stroke-linecap="round" stroke-linejoin="round" stroke-width="0.5"><title>2023-04-14 12.0km</title></polyline><polyline fill="none" points="142.75,109.53807205246994 142.10591603047214,109.53807205246994 142.23473282437772,105.10326883856033 130.64122137404047,105.0360741927725 123.55629770993255,105.60722805606201 123.50477099244017,124.42091537134547 122.96374045801349,124.89123783705872 121.03148854954634,124.9584266821621 120.46469465643167,124.55529331676371 120.02671755722258,118.13865878975776 118.58396946568973,117.80270440642198 118.55820610688534,115.58539316931274 116.96087786264252,113.53604104742408 116.18797709920909,113.23367607370892 114.8998091602698,113.60323320981115 112.32347328250762,112.46096377937647 109.79866412212141,112.93131070252275 109.10305343521759,111.25149584600877 106.81011450383812,111.04991723870626 105.95992366410792,110.24360104279185 105.57347328250762,107.1190990825562 104.51717557245865,107.2870841386466 103.74427480925806,108.39578243164578 102.45610687020235,108.73175055609317 102.50763358792756,113.13288766086043 104.74904580158181,113.03209920384688 105.10973282437772,115.01426408551924 108.30438931309618,114.94707233537338 108.97423664131202,115.3166267182969 109.15458015270997,122.70758968457812 111.16412213735748,123.5810514332552 112.65839694661554,122.43883155606454 113.92080152663402,122.2036679360026 114.33301526715513,123.68183526782377 114.02385496185161,125.46234239534533 116.44561068702023,128.28424998726405 116.52290076343343,129.7287845240935 119.87213740451261,130.0983151576802 120.59351145033725,129.39284706923354 120.25858778622933,119.54966184089426 119.9751908397302,117.97068165944074 118.58396946568973,117.46674953246838 118.60973282437772,115.78696780141036 118.12022900755983,114.84628467334551 116.6774809161434,113.13288766086043 114.8998091602698,113.60323320981115 112.58110687020235,112.39377128334309 109.90171755722258,112.93131070252275 108.87118320609443,111.04991723870626 106.4751908397302,111.01632078703551 105.75381679390557,109.84044188477856 105.57347328250762,107.01830799004529 102.45610687020235,108.69815376568295 102.94561068713665,111.72184524251497 104.82633587787859,112.99850304162828 104.95515267166775,114.84628467334551 108.89694656489883,115.24943505652482 109.07729007629678,122.64040018191736 111.26717557245865,123.61464604971115 112.52958015259355,122.60680542321643 113.92080152663402,122.3380471769342 114.02385496185161,125.69750268367352 116.49713740451261,128.21706211367564 116.70324427471496,129.86315936857136 119.9494274809258,130.0983151576802 120.54198473284487,129.42644083686173 120.12977099232376,118.34023118420737 119.79484732833225,117.80270440642198 118.68702290079091,117.70191799577151 118.50667938939296,115.35022254183423 116.6001908397302,113.23367607370892 114.87404580158181,113.60323320981115 112.50381679378916,112.46096377937647 109.8501908397302,113.03209920384688 109.0515267176088,111.21789942376199 106.526717557339,110.91553140238102 105.77958015270997,109.63886204072332 105.6765267176088,107.1190990825562 104.64599236648064,107.21989013091661 103.71851145033725,108.39578243164578 102.25,109.06771818984998 103.1001908397302,111.92342326091602 104.74904580158181,112.93131070252275 104.98091603058856,114.84628467334551 108.87118320609443,115.24943505652482 109.20610687020235,122.8083739017602 111.18988549616188,123.5810514332552 112.96755725191906,122.4052367679542 113.94656488555484,122.4052367679542 114.30725190835074,123.61464604971115 113.99809160304721,125.56312540557701 116.41984732821584,128.21706211367564 116.6001908397302,129.82956566484063 120.4131679389393,129.93034676151 120.56774809164926,125.2271818666195 123.14408396952786,124.79045453245635 123.65935114491731,124.1185647068487 123.81393129762728,105.30485265802417 134.7375954198651,104.90168484231981" stroke="#4dd2ff" stroke-linecap="round" stroke-linejoin="round" stroke-width="0.5"><title>2023-04-03 10.0km</title></polyline><polyline fill="none" points="147.25,117.71672261690401 152.69797687861137,117.72049166249417 156.44653179190936,117.78456535326404 160.48410404624883,117.76572016661521 161.49566473987943,117.66772497412785 167.6719653179025,117.33981527722426 168.6604046242719,117.3925826362738 171.1835260115622,117.32850797196443 171.86560693640786,117.34735347798232 172.26156069364515,117.4114280954891 174.7875722543249,117.27950959188638 178.85982658959983,117.26066403629557 179.3078034682112,117.27574048186398 179.5447976878495,117.40388991345208 179.77890173411288,117.3850444487307 179.93786127166823,117.27950959188638 181.2182080924831,117.23804935142289 184.09682080923812,117.26443314850803 184.87427745663445,117.21920376555681 185.00433526012057,117.26820226018208 186.4465317918948,117.21543464673596 186.5361271676229,117.25689492353195 187.49566473987943,117.24181846695137 187.75,117.29458602642808" stroke="#4dd2ff" stroke-linecap="round" stroke-linejoin="round" stroke-width="0.5"><title>2023-03-31 11.9km</title></polyline><polyline fill="none" points="12.25,181.63686417436475 12.388619509409182,181.68507015569048 22.85439247006434,181.71519883678957 23.741557330300566,181.63083841877778 28.62327438677312,181.3747421787739 29.339475185406627,181.4108971348669 31.679834569324157,181.37775509420499 32.2851397604245,181.42596168119417 34.29512264690129,181.3295483945294 37.42099258414237,181.31147085309567 37.910781517406576,181.33256131655617 38.05402167713328,181.4229487728153 38.19957216201874,181.43500040370964 38.39826012549747,181.32352254914622 39.641215059906244,181.2964062231331 50.80239589276607,181.29038036806196 50.98491158014804,181.33557423815182 50.98029092984507,181.88391863757533 50.90867084998172,182.04661142396435 50.93639475184318,182.38103145441346 51.03573873361165,182.47442707079972 51.22056474615238,182.4894908402839 51.2737022247602,182.64314066059887 51.51859669138503,182.58891144295376 51.72883628067211,182.6913442898931 51.84666286366701,182.65820430685562 51.936765544785885,182.6943570129879 52.06845407873334,182.8721068964078 52.06845407873334,183.0528679186682 52.20476326298376,183.1010705903809 52.260211066750344,183.70961963193804 52.51665715915442,183.66744354476396 52.52127780947194,182.91127191900887 52.562863662300515,182.8811449851437 52.75,182.9052465357545" stroke="#4dd2ff" stroke-linecap="round" stroke-linejoin="round" stroke-width="0.5"><title>2023-03-15 16.1km</title></polyline><polyline fill="none" points="97.75,174.30463806349144 96.41759776533581,174.37020488339476 96.41759776533581,171.0262726431829 95.8896648043301,170.10832174308598 78.34217877092306,170.6984334669978 77.96508379885927,172.50154300896975 78.34217877092306,180.43505288912274 77.73882681573741,184.10666500950174 78.0907821226865,189.18781484368083 77.56284916191362,189.6795329163724 75.50139664800372,189.90900098158454 75.07402234640904,189.48284581660118 74.67178770934697,183.15598549126298 73.21368715085555,182.7625996850402 73.21368715085555,180.73009536831523 71.50418994412757,178.56644151372893 69.44273743010126,178.76313818065682 67.20530726248398,177.58295559318503 64.51536312839016,178.10748195380438 63.86173184355721,176.4027667992632 61.27234636864159,176.04215231887065 60.71927374298684,175.02587202895666 60.54329608939588,172.40319195290795 59.462290502735414,172.53432668467576 58.7835195530206,173.61618529785483 57.52653631288558,174.0095871368103 57.52653631288558,178.17304766272719 59.56284916191362,178.00913335462974 60.06564245803747,180.07444488791225 63.53491620114073,180.20557513725362 63.8114525139099,180.56618292782514 63.83659217879176,187.51596533835982 65.94832402234897,188.53218907101837 67.35614525142591,187.41762086190283 68.66340782120824,187.1881502494507 68.83938547491562,190.6957468528126 71.07681564241648,192.95762587069476 71.20251396647654,194.49831301993981 74.21927374298684,194.89167825691402 75.04888268152718,194.46553255246545 75.04888268152718,186.5653002615145 74.64664804458153,183.15598549126298 73.16340782109182,182.69703531701816 73.18854748597369,180.7628778420476 72.58519553067163,179.77940154683893 71.15223463671282,178.4025274929154 69.54329608939588,178.7959209416731 67.10474860330578,177.64852145523764 64.51536312839016,178.17304766272719 64.08798882679548,176.59946536259667 61.72486033511814,176.30441745300777 60.81983240216505,175.48483789105376 60.61871508380864,172.46875932838884 59.28631284914445,172.5998940218269 58.70810055860784,173.64896881079767 57.30027932964731,174.30463806349144 57.953910614480264,176.96007894756622 59.738826815620996,178.04191622576036 60.04050279315561,180.07444488791225 63.73603351949714,180.2383576874854 63.886871508322656,187.58152829870232 65.97346368711442,188.43384503995185 67.45670391060412,187.38483936025295 68.71368715073913,187.28649482643232 69.04050279327203,188.49940773204435 68.63826815632638,190.3351553375105 71.02653631276917,192.8920644808095 71.20251396647654,194.49831301993981 74.2946927373996,194.82611743189045 75.04888268152718,194.46553255246545 75.04888268152718,186.17192043107934 74.62150837981608,183.15598549126298 73.18854748597369,182.86094620119547 73.21368715085555,180.8284427751496 71.35335195518564,178.5336587191996 69.61871508380864,178.8287036979891 67.10474860330578,177.64852145523764 64.64106145245023,178.20583051003632 64.03770949726459,176.5011161025177 61.37290502793621,176.23885119828628 60.643854748574086,174.92752207927697 60.56843575416133,172.50154300896975 59.4120111730881,172.56711035569606 58.70810055860784,173.64896881079767 57.25,174.33742147588055 57.97905027936213,177.05842800661048 59.81424581003375,178.20583051003632 59.889664804562926,179.9433145619987 63.761173184379004,180.27114023313334 63.96229050285183,187.64709123985085 65.99860335187986,188.53218907101837 67.45670391060412,187.38483936025295 68.738826815621,187.3192763425468 68.738826815621,190.53184169041924 71.02653631276917,192.95762587069476 71.2779329608893,194.59665439378296 75.02374301664531,194.66221528577444 75.1494413408218,190.20403100656404 78.04050279327203,189.18781484368083 78.21648044686299,170.86235311492055 79.87569832406007,170.4033777990262 87.34217877092306,170.3705938119965" stroke="#4dd2ff" stroke-linecap="round" stroke-linejoin="round" stroke-width="0.5"><title>2023-03-06 10.0km</title></polyline><polyline fill="none" points="102.34822383908613,182.59230429475247 102.25,182.60360664667132 102.26155574579025,182.6827229713308 102.44644767815771,182.7430019129206 110.96303231330239,182.72793219073174 112.09260646266921,182.78444360353387 114.93531992298085,182.73169962210886 115.50732933876861,182.78067617987108 116.30467579714605,182.6751880937245 122.92034025251633,182.33234883361 123.67435266425309,182.39262859420342 126.34084100151085,182.34365129945036 127.2970789642859,182.40769851233563 129.00155146588804,182.37002370048867 129.8711213353381,182.2871389206921 133.8029638348089,182.26076643488705 134.32297239461332,182.28337142437704 134.58297667453007,182.4114659904917 134.77364647979266,182.39262859420342 134.91809330195247,182.27960392749992 136.0418895784387,182.23816142558098 138.85282473785628,182.23439392211367 139.27460945860366,182.27206893210496 139.46816820029926,182.23062641808065 142.1577680291084,182.21555639646613 142.75,182.26076643488705" stroke="#4dd2ff" stroke-linecap="round" stroke-linejoin="round" stroke-width="0.5"><title>2023-03-03 12.1km</title></polyline><polyline fill="none" points="187.75,174.21860689853202 187.7239717222983,169.87396764451114 176.06330334185623,169.73819635873951 169.2178663237719,170.21339551171695 168.7233290488366,170.9601350743469 169.06169665802736,181.51606032189738 168.54113110539038,183.99374820380763 169.08772493572906,185.48713635814784 169.00964010262396,189.55996436100395 166.56298200495075,190.03512297806446 165.75610539841,189.62784422296681 165.2615681233583,183.07734617551614 163.72589974291623,182.70399616492796 163.69987146521453,180.497824765509 162.32037275051698,178.5631649150746 161.46143958857283,178.22374924532778 160.05591259629,178.69893104425864 157.45308483275585,177.4770330266474 154.77217223646585,178.0200996055937 154.22557840612717,176.25512858343427 151.62275064259302,175.5762900050613 150.9199871463934,174.4222598702181 150.78984575823415,172.0123549298005 149.54048843181226,172.24995230221248 148.86375321331434,173.33610862493515 147.56233933148906,173.6755314344773 147.27602827758528,174.3204334066686 148.00482005125377,176.7303144082107 149.90488431870472,177.884333079739 150.00899742916226,179.92082263612247 153.00224935717415,179.751115854815 153.99132390739396,180.09052929354948 154.1214652955532,187.7272005937557 155.0845115679549,188.47388387344836 156.3338688944932,188.6435842843057 157.71336760907434,187.59143973961181 159.17095115676057,187.38779830970452 159.11889460147358,190.81573859682248 161.59158097673208,193.32726670970442 161.69569408730604,195.02422979776748 162.42448586109094,195.19392542507558 165.2355398456566,195.19392542507558 165.70404884312302,194.82059488157392 165.2355398456566,183.1112870559009 163.7779562980868,182.70399616492796 163.69987146521453,180.53176602252643 162.00803341902792,178.46134026625077 159.97782776341774,178.664989519355 157.50514138792641,177.4770330266474 154.8762853469234,178.05404122459004 154.25160668371245,176.3569541991019 151.77892030833755,175.88176761078648 150.97204370156396,174.99927565407415 150.7117609253619,172.04629742649558 149.54048843181226,172.24995230221248 148.7336118251551,173.43793551986164 147.25,174.15072253494873 147.9267352183815,176.7303144082107 149.77474293054547,177.98615798156243 150.11311053973623,180.02264664543327 152.27345758350566,179.751115854815 153.9392673522234,180.12447061002604 154.1214652955532,187.79508099105442 156.3338688944932,188.6435842843057 157.66131105390377,187.69326038766303 159.11889460147358,187.38779830970452 159.45726221066434,188.84722461370984 159.14492287905887,190.84967834690178 161.5655526991468,193.3951454711787 161.72172236500774,194.99029065750074 165.41773778910283,195.1599863095762 165.57390745496377,187.62537996054743 165.18348329036962,183.14522793129436 163.69987146521453,182.77187802972912 163.67384318751283,180.63358976415475 161.7737789201783,178.35951557281078 159.92577120813075,178.69893104425864 157.71336760907434,177.4770330266474 154.9023136246251,178.08798283859505 154.19955012842547,176.3569541991019 151.4665809768485,176.01753530661517 150.7117609253619,174.62591266346863 150.73778920294717,172.11418240494095 149.59254498698283,172.2160098353488 148.75964010274038,173.37005092817708 147.38014138804283,173.77735818071233 147.25,174.55802841877448 148.13496143952943,177.00184872897808 149.87885604100302,178.05404122459004 149.90488431870472,179.92082263612247 153.99132390739396,180.32811840555223 154.1474935732549,187.7272005937557 156.28181233920623,188.77934452373302 157.5832262210315,187.6593201765936 159.04080976860132,187.35385805407714 159.43123393319547,188.77934452373302 159.19697943446226,190.95149756719184 161.5655526991468,193.3951454711787 161.69569408730604,195.02422979776748 165.0012853469234,195.26180364127504 165.67802056553774,194.854534046739 165.67802056553774,190.47634082398145 168.6973007711349,189.52602442266652 168.82744215929415,170.34916651986714 176.6098971721949,169.77213918753841 183.2991645244183,169.87396764451114" stroke="#4dd2ff" stroke-linecap="round" stroke-linejoin="round" stroke-width="0.5"><title>2023-03-01 10.1km</title></polyline><polyline fill="none" points="52.75,239.38037388546218 51.78024574671872,239.28053636853292 51.57608695642557,235.25372004884412 39.83695652172901,235.0207615547697 33.63563327037264,235.5199580360495 33.20179584121797,236.2188312721555 33.07419659732841,241.31055727883358 33.55907372396905,253.22408590317355 33.02315689972602,254.68827548334957 30.80293005669955,254.9877676473261 30.26701323245652,254.42205989598006 29.909735349705443,248.3322933892341 28.40406427218113,247.76656911184546 28.353024574695155,245.636770997211 26.592155009508133,243.4736744073889 24.805765595519915,243.70662425766932 22.27930056711193,242.54187262395862 19.65075614361558,243.10760987557296 19.038279773201793,241.37711503529863 16.052457466721535,240.77809452796646 15.593100188998505,239.77972351550125 15.593100188998505,237.25049736861547 14.444706994225271,237.51673302218842 13.679111531120725,238.58167252519343 12.454158790060319,238.98102355540323 12.275519848568365,239.67988617364608 13.092155009391718,241.9761339675606 14.801984877092764,243.17416710693215 14.904064272064716,244.93792665256478 18.834120982908644,245.30398824330769 18.88516068039462,252.65837377260323 20.95226843096316,253.55685708860983 22.534499054774642,252.45871033225558 23.810491493321024,252.42543307521555 24.14224952738732,253.7232424990798 23.810491493321024,255.45364356436767 26.31143667292781,258.28215546841966 26.387996219214983,259.77958873113676 29.629017013241537,260.0125219097099 30.42013232514728,259.57993153137795 29.93525519850664,248.3655712442851 28.429584120982327,247.73329116942477 27.893667296739295,244.9712050031667 26.464555765502155,243.4736744073889 24.780245746602304,243.8064598349738 22.330340264597908,242.64170871165697 19.75283553870395,243.14088849372638 19.11483931937255,241.47695163336175 16.35869565210305,241.11088389311044 15.644139886600897,239.7464444063371 15.593100188998505,237.38361523432832 14.495746691827662,237.55001245711173 13.88327032129746,238.5151139521622 12.581758033949882,238.9144650990056 12.25,239.58004878804786 13.16871455567889,242.17580659492523 14.750945179490373,243.17416710693215 14.929584120865911,244.9712050031667 18.85964083170984,245.37054483304382 19.038279773201793,252.79148263551178 21.207466918742284,253.55685708860983 22.48345935717225,252.52526483181282 23.78497164451983,252.29232399835018 24.167769376188517,253.7897966291639 23.78497164451983,255.32053625678236 26.26039697532542,258.14904981320433 26.362476370530203,259.679760153158 29.60349716444034,260.0457980586507 30.34357277874369,259.31372165960784 29.986294895992614,248.43212693950045 29.70557655952871,247.96623666428786 28.429584120982327,247.73329116942477 28.378544423379935,245.60349274372857 26.89839319465682,243.73990278823476 26.132797731552273,243.3405601001723 24.729206048999913,243.77318131402717 22.534499054774642,242.5751513246796 19.727315689902753,243.10760987557296 19.063799621886574,241.4436727721477 16.33317580341827,241.04432605899638 15.720699432771653,239.77972351550125 15.593100188998505,237.31705631120712 14.495746691827662,237.55001245711173 13.806710774893872,238.6149518043967 12.352079395088367,239.18069880790426 12.887996219214983,241.67662469831703 14.801984877092764,243.10760987557296 14.980623818351887,245.00448334911198 18.88516068039462,245.33726654063503 19.11483931937255,252.79148263551178 21.054347826051526,253.55685708860983 22.611058601061814,252.49198758440616 23.836011342238635,252.29232399835018 24.167769376188517,253.7232424990798 23.861531190807,255.52019718913652 26.336956521612592,258.21560265053995 26.464555765502155,259.71303635064396 29.782136105699465,260.0457980586507 30.394612476229668,259.61320774353226 30.445652173948474,255.2872594177461 33.150756143731996,254.65499855196686 33.45699432888068,254.1558439974906 33.40595463139471,237.8162477606238 33.73771266522817,235.48667830464547 51.16776937618852,234.95420194136386" stroke="#4dd2ff" stroke-linecap="round" stroke-linejoin="round" stroke-width="0.5"><title>2023-02-22 10.2km</title></polyline><polyline fill="none" points="57.25,247.7464208045276 59.857620528768166,247.72999292761597 63.649377916008234,247.80391829811379 67.72142301710846,247.75874170591123 68.05839813374041,247.7957043776696 69.14490668740473,247.67249528282446 75.95684292378428,247.31929288477477 76.95517107308842,247.38911231536986 77.51889580092393,247.33161397337062 79.75489891135658,247.31929288477477 80.91069206842803,247.40554039149174 84.70874805600033,247.23715215618358 88.11944012441381,247.24125919832113 88.60443234836566,247.26179439996486 88.77764385692717,247.40964740902382 89.04218506997859,247.39732635463224 89.25318818038795,247.25768736083955 90.73020995334082,247.20840284447513 93.97398911352502,247.24947328078088 94.23853032659099,247.20018875002643 97.04770606530656,247.19608170188803 97.75,247.274115513761" stroke="#4dd2ff" stroke-linecap="round" stroke-linejoin="round" stroke-width="0.5"><title>2023-02-17 11.0km</title></polyline><polyline fill="none" points="102.25,247.58499018563998 102.79354971239809,247.58860672207993 102.84069433031254,247.74411728924497 103.47576006573217,247.69348604905645 110.22021364008833,247.71518516466858 111.01612571897567,247.76581636048832 112.37777321280737,247.70795212824487 112.63290879210399,247.74773380243641 114.38835250615375,247.74773380243641 121.47945768282807,247.33544789518965 122.41957682826614,247.3860798676833 125.02362366473244,247.33544789518965 126.09963023828459,247.3969295626066 129.06696795398602,247.2594997422675 130.58668857847806,247.29204897919408 132.0869967132312,247.2558831577462 132.61668036153424,247.28843239943308 132.78029991782387,247.4113958150956 133.0021569433011,247.40054612651875 133.20737469186133,247.26673290972758 134.16967953983112,247.23418363951168 142.75,247.2594997422675" stroke="#4dd2ff" stroke-linecap="round" stroke-linejoin="round" stroke-width="0.5"><title>2023-02-03 12.5km</title></polyline><polyline fill="none" points="187.75,239.42984767492453 186.73750000004657,239.26480385215837 186.28187499998603,235.03964094315597 168.36062499997206,235.4027439837082 168.03156250005122,236.1619575467339 168.48718749999534,244.7772023081925 168.00624999997672,249.56330747199536 168.46187500003725,251.84079778185696 168.1074999999255,254.18427834298927 167.67718750005588,254.64637023313844 165.39906249998603,254.74538980085345 165.0193750000326,254.31630469376978 164.53843749989755,248.01196035010798 163.1209375000326,247.64887757084216 163.0956249999581,245.53638437445625 161.42499999993015,243.52289591469162 159.47593749989755,243.65492849450675 157.2231249999022,242.4996408053412 154.46406250004657,243.06078127784713 153.88187499996275,241.44337260637258 151.09749999991618,240.81621102709323 150.59124999993946,239.89196973737853 150.36343750008382,237.18524135615735 149.32562499993946,237.4163048008195 148.59156249987427,238.57161847998213 147.37656249990687,238.80268050695304 147.25,239.46285642495786 148.08531249989755,241.9054905509256 149.80656249984168,242.9287483508233 149.90781250002328,244.7772023081925 153.75531250005588,245.1402897015796 154.00843749998603,252.50093560988898 156.109375,253.4581320352445 157.52687499998137,252.33590133370308 158.91906250000466,252.30289446393726 158.76718749990687,255.30649986561912 161.27312499994878,257.9139930621168 161.37437500001397,259.56428966527164 164.3106250000419,259.8613417740853 165.12062499998137,259.3662547092681 164.69031249999534,248.14399030695495 163.1209375000326,247.54985489341198 163.1462499999907,245.70142361655599 162.3868749999674,244.48013037048804 161.22249999991618,243.29183871438727 159.60249999992084,243.68793662746612 157.24843749997672,242.4996408053412 154.59062499995343,243.06078127784713 153.78062499989755,241.31133873431827 151.47718749998603,241.17930478512426 150.66718749993015,239.92497841994918 150.4646875000326,237.18524135615735 149.42687499988824,237.4163048008195 148.89531249995343,238.37356512600672 147.55374999996275,238.80268050695304 147.25,239.42984767492453 148.11062499997206,241.97150732306181 149.80656249984168,243.09378949746315 149.93312499998137,244.84321824117796 153.72999999998137,244.97525004962517 154.03375000006054,252.5669492866291 156.0840624999255,253.4911387362663 157.72937500011176,252.2368807101302 158.84312499989755,252.1708669369691 158.74187499983236,255.33950629661558 161.2478124999907,257.9469991123333 161.32374999998137,259.53128385134914 164.00687499996275,259.960359056844 164.96874999988358,259.6303012788412 165.14593750005588,259.13521370786475 165.0700000000652,251.2466720878001 164.61437500000466,247.94594534262433 163.29812499997206,247.71489266492426 162.9184374999022,245.10728178083082 161.37437500001397,243.39086325772223 159.62781249987893,243.75395287873107 157.24843749997672,242.53264910703 154.54000000003725,243.12679771239345 154.03375000006054,241.44337260637258 151.75562499987427,241.1132877815835 150.81906249991152,240.25506498053437 150.4899999999907,237.2512595073349 147.37656249990687,239.09975990875682 148.11062499997206,241.9054905509256 149.8571874999907,243.12679771239345 149.95843749993946,244.84321824117796 153.67937499994878,245.07427385517803 154.03375000006054,252.63296294411703 156.0840624999255,253.4581320352445 157.70406250003725,252.2368807101302 158.84312499989755,252.1708669369691 159.1215624999022,253.557152123758 158.74187499983236,255.24048698905972 161.22249999991618,257.9469991123333 161.29843749990687,259.49827803260996 164.63968750007916,259.76232444784546 165.24718750000466,259.26723716616107 165.17125000001397,255.1744740933791 167.65187499998137,254.58035716378072 168.23406249994878,253.68917884079565 168.43656249996275,235.43575332207547 186.4084375000093,235.1056597212155" stroke="#4dd2ff" stroke-linecap="round" stroke-linejoin="round" stroke-width="0.5"><title>2023-01-30 10.2km</title></polyline></svg>