<?xml version="1.0" encoding="utf-8" ?>
<svg baseProfile="full" height="300mm" version="1.1" viewBox="0,0,200,300" width="200mm" xmlns="http://www.w3.org/2000/svg" xmlns:ev="http://www.w3.org/2001/xml-events" xmlns:xlink="http://www.w3.org/1999/xlink"><defs /><rect fill="#222222" height="300" width="200" x="0" y="0" /><text fill="#FFFFFF" style="font-size:12px; font-family:Arial; font-weight:bold;" x="10" y="20">Over 10km Runs</text><text fill="#FFFFFF" style="font-size:4px; font-family:Arial" x="10" y="280">ATHLETE</text><text fill="#FFFFFF" style="font-size:9px; font-family:Arial" x="10" y="290">chending</text><text fill="#FFFFFF" style="font-size:4px; font-family:Arial" x="120" y="280">STATISTICS</text><text fill="#FFFFFF" style="font-size:3px; font-family:Arial" x="120" y="285">Number: 10</text><text fill="#FFFFFF" style="font-size:3px; font-family:Arial" x="120" y="290">Weekly: 1.2</text><text fill="#FFFFFF" style="font-size:3px; font-family:Arial" x="141" y="285">Total: 114.1 km</text><text fill="#FFFFFF" style="font-size:3px; font-family:Arial" x="141" y="290">Avg: 11.4 km</text><text fill="#FFFFFF" style="font-size:3px; font-family:Arial" x="167" y="285">Min: 10.0 km</text><text fill="#FFFFFF" style="font-size:3px; font-family:Arial" x="167" y="290">Max: 16.1 km</text><polyline fill="none" points="67.0,49.38409606993082 66.14122137392405,49.38409606993082 66.31297709909268,43.47102511805133 50.85496183205396,43.3814322570106 41.408396946499124,44.142970741406316 41.33969465654809,69.22788716177456 40.61832061060704,69.85498378274497 38.041984732612036,69.94456890953006 37.286259541870095,69.40705775568495 36.70229007629678,60.85154505298124 34.77862595417537,60.403605875209905 34.74427480914164,57.44719089238788 32.61450381681789,54.71472139656544 31.583969465456903,54.31156809825916 29.866412213770673,54.80431094640517 26.43129770993255,53.281285039149225 23.064885496161878,53.90841427000123 22.1374045801349,51.66866112797288 19.080152671667747,51.39988965159864 17.94656488543842,50.324801390379434 17.43129770993255,46.1587987767125 16.02290076331701,46.382778851519106 14.992366412305273,47.86104324218468 13.274809160153382,48.30900074145757 13.343511450453661,54.17718354778481 16.332061068620533,54.04279893843341 16.812977099209093,56.68568544732989 21.07251908397302,56.5960964471451 21.96564885508269,57.088835624366766 22.206106870202348,66.94345291276113 24.885496183065698,68.1080685776542 26.87786259537097,66.58510874139029 28.56106870213989,66.27155724799377 29.1106870227959,68.24244702374563 28.69847328250762,70.6164565270883 31.92748091602698,74.37899998301873 32.03053435112815,76.30504603209556 36.496183205978014,76.79775354356389 37.45801526715513,75.85712942562532 37.0114503816003,62.732882454496576 36.63358778622933,60.62757554592099 34.77862595417537,59.955666043271776 34.81297709909268,57.71595706851804 34.16030534345191,56.46171289778431 32.23664122144692,54.17718354778481 29.866412213770673,54.80431094640517 26.774809160269797,53.19169504442834 23.202290076296777,53.90841427000123 21.828244274831377,51.39988965159864 18.633587786229327,51.35509438268491 17.671755725168623,49.787255846342305 17.43129770993255,46.02441065336461 13.274809160153382,48.26420502088149 13.927480916143395,52.29579365666723 16.435114503838122,53.998004055494675 16.60687022889033,56.46171289778431 21.862595419748686,56.99924674202339 22.10305343498476,66.85386690919404 25.022900763200596,68.15286139960517 26.706106870202348,66.8090738976025 28.56106870213989,66.45072956921649 28.69847328250762,70.93000357822166 31.996183205978014,74.28941615155782 32.27099236624781,76.48421249139938 36.59923664107919,76.79775354356389 37.38931297697127,75.90192111578654 36.839694656431675,61.12030824559042 36.393129770993255,60.403605875209905 34.916030534310266,60.26922399434261 34.675572519074194,57.13363005575957 32.13358778622933,54.31156809825916 29.832061068736948,54.80431094640517 26.671755725052208,53.281285039149225 23.133587786229327,54.04279893843341 22.068702290183865,51.62386589832022 18.702290076296777,51.220708536478924 17.706106870202348,49.51848272094503 17.56870229006745,46.1587987767125 16.194656488485634,46.293186841212446 14.958015267155133,47.86104324218468 13.0,48.75695758644724 14.133587786229327,52.56456434787833 16.332061068620533,53.90841427000123 16.64122137404047,56.46171289778431 21.828244274831377,56.99924674202339 22.274809160269797,67.07783186901361 24.919847328215837,68.1080685776542 27.290076335775666,66.54031569056679 28.59541984729003,66.54031569056679 29.07633587787859,68.15286139960517 28.66412213735748,70.75083387407358 31.89312977087684,74.28941615155782 32.13358778622933,76.43942088642507 37.21755725191906,76.57379568199394 37.42366412212141,70.30290915546357 40.85877862595953,69.72060604326543 41.54580152651761,68.82475294242613 41.75190839683637,43.73980354401283 56.316793893114664,43.20224645640701" stroke="#4dd2ff" stroke-linecap="round" stroke-linejoin="round" stroke-width="0.5"><title>2023-04-03 10.0km</title></polyline><polyline fill="none" points="73.0,60.288963489205344 80.26396917148668,60.293988883324346 85.26204238920764,60.37942047101751 90.64547206166026,60.35429355548695 91.99421965317742,60.22363329883592 100.22928709053667,59.78642036962992 101.54720616570557,59.85677684836264 104.91136801541143,59.77134396261681 105.82080924854381,59.796471303972794 106.34874759153172,59.881904127316375 109.71676300576655,59.7060127891782 115.14643545279978,59.68088538172742 115.74373795760039,59.70098730915197 116.0597302504757,59.871853217933676 116.37186897880747,59.8467259316385 116.58381502889097,59.7060127891782 118.29094412330596,59.65073246856264 122.1290944123175,59.68591086467859 123.16570327551744,59.625605020741204 123.33911368015106,59.69093634690944 125.26204238919308,59.62057952897885 125.38150289017358,59.67585989804138 126.66088631983439,59.65575795593395 127.0,59.72611470190532" stroke="#4dd2ff" stroke-linecap="round" stroke-linejoin="round" stroke-width="0.5"><title>2023-03-31 11.9km</title></polyline><polyline fill="none" points="133.0,58.84915223248754 133.18482601255528,58.91342687425458 147.13918996007123,58.95359844905397 148.32207644038135,58.841117891704926 154.83103251569264,58.49965623836579 155.7859669138561,58.54786284648981 158.90644609242736,58.50367345894301 159.71351968056115,58.567948908261315 162.3934968625399,58.43939785937255 166.56132344552316,58.415294470794834 167.2143753565324,58.44341508874277 167.405362236168,58.563931697088265 167.59942954935832,58.58000053828073 167.86434683400148,58.43136339886223 169.521620079875,58.39520829751382 184.4031945236784,58.38717382408322 184.64654877352586,58.44743231753819 184.64038790644554,59.17855818343378 184.5448944666423,59.395481898620346 184.58185966912424,59.841375272551886 184.71431831146765,59.9659027610669 184.96075299486984,59.985987787045815 185.03160296635178,60.19085421413365 185.35812892184185,60.11854859060804 185.63844837422948,60.25512571985928 185.79555048487964,60.21093907580871 185.91568739304785,60.25914268398628 186.09127210496808,60.49614252854553 186.09127210496808,60.737157224892144 186.27301768396865,60.801427453841825 186.34694808899076,61.61282617591678 186.6888762121962,61.556591393020426 186.69503707929107,60.54836255867849 186.7504848830722,60.508193313527954 187.0,60.54032871434174" stroke="#4dd2ff" stroke-linecap="round" stroke-linejoin="round" stroke-width="0.5"><title>2023-03-15 16.1km</title></polyline><polyline fill="none" points="67.0,109.07285075128311 65.22346368711442,109.16027317784028 65.22346368711442,104.70169685754809 64.51955307251774,103.47776232409524 41.12290502793621,104.26457795599708 40.62011173181236,106.66872401194996 41.12290502793621,117.24673718548729 40.31843575427774,122.14222001266899 40.787709497031756,128.917086458212 40.08379888266791,129.5727105551341 37.335195530671626,129.87866797542665 36.76536312850658,129.31046108878218 36.22905027924571,120.87464732167427 34.28491620114073,120.35013291335781 34.28491620114073,117.64012715773424 32.00558659224771,114.75525535162888 29.256983240135014,115.0175175741897 26.273743016645312,113.44394079089398 22.687150837969966,114.14330927171977 21.815642458037473,111.87035573233152 18.36312849156093,111.38953642515116 17.625698324060068,110.03449603859917 17.391061452566646,106.53758927050512 15.94972067035269,106.71243557953858 15.0446927373996,108.1549137304537 13.368715083925053,108.67944951570826 13.368715083925053,114.23073021695018 16.083798882667907,114.01217780614388 16.754189944127575,116.76592651719693 21.379888268187642,116.94076684964239 21.74860335199628,117.42157723708078 21.782122905133292,126.68795378445066 24.597765363170765,128.04291876131902 26.474860335234553,126.55682781586074 28.217877094866708,126.2508669992385 28.45251396659296,130.92766247040709 31.435754189966246,133.94350116091664 31.603351955418475,135.99775069323368 35.62569832406007,136.52223767587566 36.73184357536957,135.95404340326786 36.73184357536957,125.42040034866659 36.195530726225115,120.87464732167427 34.21787709486671,120.26271375600481 34.25139664800372,117.68383712269133 33.44692737434525,116.37253539575613 31.536312849028036,114.53670332385809 29.391061452566646,115.0612279222114 26.13966480444651,113.53136194028775 22.687150837969966,114.23073021695018 22.11731843580492,112.13262048346223 18.966480446979403,111.73922327064793 17.75977653625887,110.64645052139531 17.49162011174485,106.62501243781298 15.715083798859268,106.79985869574011 14.944134078221396,108.19862508104416 13.067039106274024,109.07285075128311 13.938547485973686,112.61343859671615 16.318435754277743,114.05588830099441 16.720670390990563,116.76592651719693 21.64804469270166,116.9844769166375 21.849162011174485,126.77537106492673 24.631284916307777,127.91179338659276 26.608938547433354,126.51311914698454 28.284916201024316,126.38199310188065 28.720670391106978,127.99921030935366 28.18435754184611,130.44687378330855 31.368715083692223,133.85608597437385 31.603351955418475,135.99775069323368 35.72625698323827,136.4348232424818 36.73184357536957,135.95404340326786 36.73184357536957,124.89589390807669 36.16201117320452,120.87464732167427 34.25139664800372,120.48126160158427 34.28491620114073,117.7712570335134 31.80446927365847,114.71154495890369 29.49162011174485,115.10493826397578 26.13966480444651,113.53136194028775 22.85474860330578,114.27444068001932 22.05027932964731,112.00148813668056 18.49720670399256,111.65180159770534 17.525139664765447,109.90336277234019 17.424581005587243,106.66872401194996 15.882681564195082,106.75614714089897 14.944134078221396,108.19862508104416 13.0,109.11656196782133 13.972067039227113,112.74457067545154 16.418994413339533,114.27444068001932 16.51955307275057,116.59108608262613 21.681564245955087,117.02818697749171 21.949720670469105,126.86278831979143 24.66480446921196,128.04291876131902 26.608938547433354,126.51311914698454 28.318435754161328,126.4257017900527 28.318435754161328,130.70912225387292 31.368715083692223,133.94350116091664 31.70391061459668,136.12887252503424 36.698324022232555,136.21628704768955 36.8659217878012,130.27204134207568 40.72067039110698,128.917086458212 40.9553072626004,104.48313748656074 43.16759776545223,103.8711703986919 53.12290502793621,103.82745841596625" stroke="#4dd2ff" stroke-linecap="round" stroke-linejoin="round" stroke-width="0.5"><title>2023-03-06 10.0km</title></polyline><polyline fill="none" points="73.1309651187621,120.12307239299844 73.0,120.13814219555934 73.01540766104881,120.24363062843622 73.26193023753876,120.32400255055836 84.61737641773652,120.30390958763746 86.12347528355895,120.37925813804395 89.91375989730295,120.30893282947363 90.6764391183533,120.37423490649235 91.73956772951351,120.23358412496236 100.56045367002662,119.77646511147759 101.5658035523229,119.85683812560092 105.12112133535265,119.79153506593138 106.39610528570483,119.87693134977962 108.66873528783617,119.8266982673158 109.82816178044595,119.71618522758581 115.07061844640702,119.6810219131803 115.76396319281776,119.71116189916575 116.1106355660304,119.8819546539853 116.36486197305203,119.85683812560092 116.55745773593662,119.70613856999626 118.05585277124192,119.65088190077222 121.80376631714171,119.64585856281701 122.36614594480488,119.69609190947085 122.62422426707053,119.6408352241051 126.2103573721397,119.62074186195241 127.0,119.6810219131803" stroke="#4dd2ff" stroke-linecap="round" stroke-linejoin="round" stroke-width="0.5"><title>2023-03-03 12.1km</title></polyline><polyline fill="none" points="187.0,108.95814253136632 186.96529562980868,103.16529019264271 171.41773778921925,102.98426181162358 162.29048843181226,103.61786068227957 161.63110539852642,104.61351343244314 162.08226221089717,118.68808042918681 161.38817480730359,121.9916642717435 162.11696658097208,123.98284847752075 162.0128534702817,129.41328581466223 158.75064267334528,130.04683063740958 157.67480719799642,129.50379229726968 157.01542416447774,120.76979490066878 154.96786632400472,120.27199488657061 154.93316195369698,117.33043302065926 153.09383033413906,114.75088655340369 151.94858611817472,114.29833232710371 150.07455012842547,114.93190805899212 146.60411311045755,113.30271070217714 143.02956298203208,114.02679947411525 142.30077120824717,111.67350477789296 138.83033419027925,110.76838667341508 137.89331619523,109.22967982693808 137.7197943443898,106.01647323969519 136.0539845759049,106.3332697362639 135.1516709511634,107.7814781665511 133.41645244217943,108.2340419125976 133.03470437019132,109.09391120888176 134.00642673519906,112.30708587757545 136.53984575835057,113.8457774396229 136.67866323899943,116.56109684813418 140.66966580972075,116.33482113972423 141.9884318766417,116.7873723913799 142.1619537274819,126.96960079166456 143.4460154240951,127.96517849792144 145.11182519269641,128.19144571237848 146.95115681225434,126.78858631945332 148.89460154238623,126.51706441291026 148.82519280212,131.08765146241058 152.1221079690149,134.43635561291012 152.2609254498966,136.69897306367056 153.23264781478792,136.92523390008137 156.98071979428641,136.92523390008137 157.60539845761377,136.42745984208887 156.98071979428641,120.81504940785817 155.03727506427094,120.27199488657061 154.93316195369698,117.37568803000613 152.67737789207604,114.61512035498163 149.97043701796792,114.88665269245394 146.67352185072377,113.30271070217714 143.16838046268094,114.07205496609095 142.3354755784385,111.80927226544009 139.03856041119434,111.17569014770561 137.96272493549623,109.9990342053934 137.61568123393226,106.06172990196501 136.0539845759049,106.3332697362639 134.9781491003232,107.91724735978642 133.0,108.8676300465595 133.9023136246251,112.30708587757545 136.36632390751038,113.98154397538747 136.81748071976472,116.69686219390132 139.69794344471302,116.33482113972423 141.91902313637547,116.83262748000561 142.1619537274819,127.06010798804346 145.11182519269641,128.19144571237848 146.8817480719881,126.92434718355071 148.82519280212,126.51706441291026 149.27634961437434,128.46296615159372 148.8598971721949,131.1329044625163 152.08740359905642,134.52686062821886 152.29562982008792,136.65372087663854 157.22365038562566,136.8799817460822 157.43187660677359,126.83383994738688 156.9113110540202,120.86030390838278 154.93316195369698,120.36250403962913 154.89845758338924,117.5114530188439 152.36503856035415,114.47935409704223 149.9010282777017,114.93190805899212 146.95115681225434,113.30271070217714 143.20308483298868,114.11731045143097 142.26606683805585,111.80927226544009 138.62210796913132,111.35671374213416 137.61568123393226,109.50121688458603 137.65038560400717,106.15224320656853 136.12339331617113,106.28801311377902 135.0128534703981,107.82673457087367 133.1735218508402,108.36981090760673 133.0,109.41070455833687 134.17994858615566,112.66913163862773 136.50514138804283,114.07205496609095 136.53984575835057,116.56109684813418 141.9884318766417,117.10415787404054 142.1966580976732,126.96960079166456 145.0424164524302,128.37245936496765 146.77763496141415,126.87909356877208 148.72107969154604,126.47181073875981 149.24164524429943,128.37245936496765 148.92930591269396,131.26866342290305 152.08740359905642,134.52686062821886 152.2609254498966,136.69897306367056 156.66838046268094,137.0157381883473 157.57069408742245,136.47271206229925 157.57069408742245,130.63512109863223 161.59640102821868,129.36803256353596 161.76992287917528,103.79888869312708 172.14652956300415,103.02951891670818 181.0655526992632,103.16529019264271" stroke="#4dd2ff" stroke-linecap="round" stroke-linejoin="round" stroke-width="0.5"><title>2023-03-01 10.1km</title></polyline><polyline fill="none" points="67.0,169.1738318472926 65.70699432888068,169.0407151580439 65.43478260864504,163.67162673178245 49.782608695561066,163.3610154063499 41.51417769375257,164.02661071473267 40.935727788251825,164.95844169621705 40.765595463104546,171.74740970510175 41.412098298664205,187.63211453758413 40.69754253292922,189.58436731112306 37.7372400755994,189.9836901964445 37.02268430986442,189.22941319464007 36.54631379956845,181.1097245189594 34.53875236294698,180.3554254824412 34.470699433004484,177.51569466292858 32.12287334597204,174.63156587650883 29.74102079391014,174.94216567691183 26.372400756110437,173.3891634986212 22.867674858076498,174.14347983410698 22.05103969760239,171.83615338039817 18.069943289039657,171.03745937062195 17.45746691862587,169.70629802066833 17.45746691862587,166.3339964914776 15.926275992300361,166.6889773629082 14.90548204141669,168.1088967002579 13.27221172011923,168.64136474052793 13.034026464796625,169.57318156486144 14.122873345972039,172.6348452900711 16.402646502829157,174.23222280925256 16.538752362830564,176.5839022034197 21.778827977133915,177.07198432442965 21.84688090730924,186.8778316968237 24.60302457457874,188.07580945148948 26.712665406404994,186.61161377636017 28.413988657761365,186.5672441002971 28.85633270314429,188.29765666543972 28.413988657761365,190.60485808583326 31.74858223053161,194.37620729123591 31.850661625619978,196.3727849748684 36.17202268424444,196.68336254628957 37.226843100157566,196.1065753751609 36.58034026471432,181.15409499238012 34.572778827976435,180.31105489257607 33.858223062357865,176.62827333755558 31.95274102059193,174.63156587650883 29.706994328880683,175.07527977996506 26.440453686052933,173.5222782822093 23.003780718310736,174.1878513249685 22.153119092574343,171.96926884449203 18.47826086950954,171.48117852414725 17.525519848801196,169.66192587511614 17.45746691862587,166.51148697911412 15.994328922475688,166.73334994280594 15.17769376176875,168.02015193621628 13.442344045266509,168.55262013198808 13.0,169.44006505073048 14.224952740827575,172.9010754599003 16.33459357265383,174.23222280925256 16.57277882786002,176.62827333755558 21.812854442279786,177.16072644406813 22.05103969760239,187.05531018067268 24.943289224989712,188.07580945148948 26.644612476229668,186.70035310907406 28.37996219273191,186.38976533114328 28.890359168173745,188.38639550554217 28.37996219273191,190.42738167571952 31.6805293004727,194.19873308425304 31.816635160706937,196.23968020422035 36.1379962193314,196.72773074486759 37.1247637050692,195.75162887948682 36.64839319465682,181.24283591934363 36.274102079332806,180.62164888571715 34.572778827976435,180.31105489257607 34.50472589780111,177.47132365830475 32.53119092620909,174.98653705097968 31.51039697532542,174.45408013355336 29.638941398705356,175.0309084187029 26.712665406404994,173.4335350995825 22.96975425328128,174.14347983410698 22.085066162399016,171.92489702953026 18.4442344045965,171.3924347453285 17.627599243773147,169.70629802066833 17.45746691862587,166.42274174827617 15.994328922475688,166.73334994280594 15.075614366563968,168.15326907252893 13.136105860001408,168.90759841055842 13.850661625619978,172.23549959776574 16.402646502829157,174.14347983410698 16.64083175791893,176.67264446549234 21.84688090730924,177.11635538749397 22.153119092574343,187.05531018067268 24.739130434812978,188.07580945148948 26.81474480149336,186.65598344587488 28.448015122907236,186.38976533114328 28.890359168173745,188.29765666543972 28.482041587820277,190.69359625218203 31.782608695561066,194.28747020071023 31.95274102059193,196.28404846752528 36.37618147430476,196.72773074486759 37.192816635011695,196.1509436580236 37.26086956518702,190.3830125569948 40.86767485830933,189.53999806928914 41.27599243854638,188.8744586633402 41.20793950848747,167.0883303474984 41.65028355375398,163.9822377395176 64.89035916829016,163.27226925513241" stroke="#4dd2ff" stroke-linecap="round" stroke-linejoin="round" stroke-width="0.5"><title>2023-02-22 10.2km</title></polyline><polyline fill="none" points="73.0,180.3285610726998 76.47682737169089,180.30665723681886 81.53250388802553,180.40522439748383 86.96189735614462,180.34498894121134 87.41119751166843,180.39427250355584 88.8598755832063,180.22999371042897 97.94245723172207,179.75905717969727 99.27356143080397,179.85214975382405 100.0251944012416,179.77548529782143 103.00653188180877,179.75905717969727 104.54758942457556,179.87405385531747 109.61166407466226,179.64953620824235 114.15925349923782,179.6550122644221 114.80590979784029,179.68239253328284 115.03685847589804,179.87952987869357 115.38958009330963,179.86310180617147 115.67091757386515,179.67691648111577 117.64027993779746,179.61120379262866 121.96531881803821,179.66596437436965 122.3180404354498,179.60025166669584 126.06360808708996,179.59477560251253 127.0,179.69882068501101" stroke="#4dd2ff" stroke-linecap="round" stroke-linejoin="round" stroke-width="0.5"><title>2023-02-17 11.0km</title></polyline><polyline fill="none" points="133.0,180.11332024751755 133.72473294986412,180.11814229610536 133.78759244042158,180.32548971899087 134.63434675431927,180.2579813987395 143.62695152012748,180.28691355289266 144.6881676253106,180.3544218139832 146.50369761708134,180.27726950432407 146.8438783894817,180.33031173657946 149.1844700082147,180.33031173657946 158.63927691044228,179.78059719358498 159.89276910436456,179.8481064902444 163.3648315529863,179.78059719358498 164.7995069843746,179.86257275014214 168.7559572719765,179.67933298969 170.7822514379659,179.72273197225877 172.78266228431312,179.67451087699374 173.48890714872687,179.71790986590713 173.7070665571082,179.88186108679292 174.00287592440145,179.86739483535712 174.27649958914844,179.6889772129689 175.55957271979423,179.64557818601315 187.0,179.67933298969" stroke="#4dd2ff" stroke-linecap="round" stroke-linejoin="round" stroke-width="0.5"><title>2023-02-03 12.5km</title></polyline><polyline fill="none" points="67.0,229.23979689989937 65.6500000001397,229.0197384695348 65.04250000009779,223.38618792418856 41.14749999996275,223.87032531161094 40.7087500001071,224.88261006231187 41.316250000032596,236.36960307759 40.675000000046566,242.75107662932714 41.282500000088476,245.78773037579958 40.809999999939464,248.9123711239954 40.236250000074506,249.5284936441749 37.19874999998137,249.66051973446156 36.69250000000466,249.08840625835 36.05125000001863,240.68261380016338 34.16125000000466,240.19850342778955 34.12749999994412,237.38184583259863 31.899999999906868,234.69719455292216 29.30124999990221,234.87323799266596 26.297499999869615,233.33285440714099 22.618750000023283,234.08104170378647 21.84250000002794,231.92449680849677 18.12999999988824,231.08828136944794 17.45499999995809,229.85595964983804 17.15125000011176,226.24698847485706 15.76749999995809,226.55507306774962 14.788749999948777,228.09549130665255 13.168749999953434,228.40357400928042 13.0,229.2838085666299 14.113749999902211,232.5406540679105 16.40874999994412,233.90499780108803 16.543749999953434,236.36960307759 21.673750000074506,236.85371960210614 22.011249999981374,246.66791414652835 24.8125,247.94417604699265 26.70250000001397,246.44786844492774 28.558749999967404,246.4038592852594 28.356249999953434,250.40866648749216 31.697500000009313,253.88532408283208 31.832500000018626,256.0857195536955 35.74750000005588,256.48178903211374 36.82750000001397,255.8216729456908 36.253750000032596,240.8586537426163 34.16125000000466,240.06647319122567 34.19500000006519,237.60189815540798 33.18249999999534,235.97350716067012 31.630000000004657,234.3891182858497 29.46999999997206,234.9172488366312 26.33124999993015,233.33285440714099 22.787499999976717,234.08104170378647 21.70749999990221,231.748451645748 18.636249999981374,231.57240638017538 17.556249999906868,229.8999712266086 17.286250000121072,226.24698847485706 15.902499999967404,226.55507306774962 15.193749999976717,227.83142016801867 13.40500000002794,228.40357400928042 13.0,229.23979689989937 14.147500000079162,232.62867643072968 16.40874999994412,234.1250526632648 16.57750000001397,236.45762432157062 21.64000000001397,236.63366673281416 22.04500000004191,246.75593238216243 24.778749999939464,247.9881849816884 26.97250000014901,246.31584094685968 28.457500000018626,246.22782258261577 28.322499999892898,250.4526750621444 31.663750000065193,253.92933214979712 31.765000000130385,256.04171180180856 35.34250000002794,256.61381207578233 36.625,256.17373503843555 36.861250000074506,255.513618277153 36.76000000000931,244.99556278373348 36.152499999967404,240.59459379015607 34.39750000007916,240.28652355322265 33.89124999998603,236.80970904108835 31.832500000018626,234.5211510102963 29.50374999991618,235.00527050497476 26.33124999993015,233.37686547604972 22.720000000088476,234.1690636165149 22.04500000004191,231.92449680849677 19.007499999948777,231.4843837087683 17.758749999920838,230.3400866407028 17.320000000065193,226.33501267645624 13.168749999953434,228.79967987834243 14.147500000079162,232.5406540679105 16.476250000065193,234.1690636165149 16.61124999995809,236.45762432157062 21.572500000009313,236.76569847358041 22.04500000004191,246.84395059215603 24.778749999939464,247.94417604699265 26.938750000088476,246.31584094685968 28.457500000018626,246.22782258261577 28.82874999998603,248.07620283166762 28.322499999892898,250.3206493187463 31.630000000004657,253.92933214979712 31.731249999953434,255.99770404348965 36.18625000002794,256.3497659304703 36.99625000008382,255.68964955490083 36.89500000001863,250.23263212450547 40.20250000001397,249.4404762183549 40.97875000000931,248.2522384543845 41.24875000002794,223.914337762777 65.21125000005122,223.47421296162065" stroke="#4dd2ff" stroke-linecap="round" stroke-linejoin="round" stroke-width="0.5"><title>2023-01-30 10.2km</title></polyline></svg>