<?xml version="1.0" encoding="utf-8" ?>
<svg baseProfile="full" height="300mm" version="1.1" viewBox="0,0,200,300" width="200mm" xmlns="http://www.w3.org/2000/svg" xmlns:ev="http://www.w3.org/2001/xml-events" xmlns:xlink="http://www.w3.org/1999/xlink"><defs /><rect fill="#222222" height="300" width="200" x="0" y="0" /><text fill="#FFFFFF" style="font-size:12px; font-family:Arial; font-weight:bold;" x="10" y="20">Over 10km Runs</text><text fill="#FFFFFF" style="font-size:4px; font-family:Arial" x="10" y="280">ATHLETE</text><text fill="#FFFFFF" style="font-size:9px; font-family:Arial" x="10" y="290">chending</text><text fill="#FFFFFF" style="font-size:4px; font-family:Arial" x="120" y="280">STATISTICS</text><text fill="#FFFFFF" style="font-size:3px; font-family:Arial" x="120" y="285">Number: 15</text><text fill="#FFFFFF" style="font-size:3px; font-family:Arial" x="120" y="290">Weekly: 1.2</text><text fill="#FFFFFF" style="font-size:3px; font-family:Arial" x="141" y="285">Total: 172.4 km</text><text fill="#FFFFFF" style="font-size:3px; font-family:Arial" x="141" y="290">Avg: 11.5 km</text><text fill="#FFFFFF" style="font-size:3px; font-family:Arial" x="167" y="285">Min: 10.0 km</text><text fill="#FFFFFF" style="font-size:3px; font-family:Arial" x="167" y="290">Max: 16.1 km</text><polyline fill="none" points="12.39999999999418,54.237785891862586 26.423068738018628,54.28574215892695 27.498701851451187,54.17384407165446 33.927984677575296,53.82216138884178 34.596041710989084,53.826157808356584 35.04039157266379,53.89010044128918 37.62681421577872,53.82216138884178 38.90163864650822,53.906086076160136 42.027410087233875,53.76221502597036 45.67414343476412,53.74622930701298 46.3667163226055,53.76621145424542 46.55364971268864,53.91407889009861 46.83558203872235,53.898093259898815 47.007193019773695,53.76221502597036 48.422983613520046,53.71425784107487 55.59999999999127,53.738236444034555" stroke="#4dd2ff" stroke-linecap="round" stroke-linejoin="round" stroke-width="0.5"><title>2023-05-09 12.1km</title></polyline><polyline fill="none" points="121.60000000009313,45.416158015446854 120.99657142872456,45.23731695675815 120.80457142868545,40.51586576081172 118.3634285714943,40.480096843719366 117.67771428578999,40.980861208285205 112.21942857152317,40.44432792138832 101.13828571431804,41.088167724592495 100.78171428584028,54.78724674176192 101.11085714295041,61.36825498913822 100.23314285709057,61.90474242976052 98.39542857150082,61.97627399969497 97.87428571435157,61.547084266727325 97.35314285720233,54.679946228978224 95.87200000009034,54.143442959102686 95.92685714282561,52.10471981311275 94.17142857145518,49.70830423699226 91.7028571430128,49.815606928488705 89.37142857152503,48.5995070040517 86.35428571433295,49.10025476325245 85.91542857151944,47.49070475023473 83.22742857143749,47.02572166553 82.26742857135832,46.1315209439781 82.04799999995157,42.94813986829831 80.89600000006612,43.12698259901663 79.99085714272223,44.271572982528596 78.64685714291409,44.700792996867676 78.42742857150733,45.380389814206865 79.11314285721164,47.70531202998245 81.08799999998882,49.171790073873126 81.22514285717625,51.17477028466237 85.53142857155763,51.63974549040722 85.55885714280885,59.50842276147159 87.8080000000773,60.581404616779764 89.39885714289267,59.365358158858726 90.74285714293364,59.18652728806774 91.2091428572312,60.43834064096154 90.88000000000466,62.65582287212601 93.54057142860256,65.44553006027127 93.59542857133783,67.05496205868258 96.99657142860815,67.55567207859713 97.92914285720326,66.84037173670367 97.4628571429057,55.00184762655408 97.16114285716321,54.35804440808715 95.89942857145797,54.10767603269778 95.8445714287227,52.03318535939616 94.8022857143078,50.5309570038371 93.6228571429383,49.422163496215944 91.86742857145146,49.85137448183377 89.50857142859604,48.5995070040517 86.49142857140396,49.10025476325245 85.86057142866775,47.41916894851602 83.44685714296065,46.95418572802737 82.40457142842934,46.20305712179106 82.07542857155204,42.91237130649097 80.75885714299511,43.162751129464596 78.42742857150733,45.23731695675815 79.35999999998603,48.09875822083268 81.17028571420815,49.207557721369085 81.28000000002794,51.13900292471226 85.53142857155763,51.63974549040722 85.5862857142929,59.40112431738817 87.8080000000773,60.509872639304376 89.45371428574435,59.47265661860001 90.85257142863702,59.29382582620019 91.26400000008289,60.581404616779764 90.9622857143404,62.69158854999114 93.51314285723493,65.37399950380495 93.70514285715763,67.19802216887183 97.98400000005495,67.12649212412362 97.4628571429057,54.679946228978224 95.89942857145797,54.143442959102686 95.95428571430966,52.068952588917455 95.13142857153434,50.78132903642836 93.59542857133783,49.31486063230841 91.86742857145146,49.70830423699226 89.39885714289267,48.52797152637504 86.381714285817,49.136022421109374 85.69599999999627,47.3118652067933 83.52914285717998,46.98995369943441 82.40457142842934,46.1315209439781 81.9931428572163,42.7692970069329 80.73142857139464,43.12698259901663 78.40000000002328,45.094244015723234 79.25028571428265,48.02722259685106 81.11542857147288,49.171790073873126 81.30742857151199,51.17477028466237 85.44914285710547,51.63974549040722 85.66857142862864,59.40112431738817 87.86285714281257,60.54563863067597 90.7702857144177,59.15076109828078 91.15428571437951,60.54563863067597 90.90742857148871,62.72735422269034 93.45828571426682,65.37399950380495 93.67771428578999,67.12649212412362 97.2160000000149,67.41261217744614 97.98400000005495,66.8046066647803 97.49028571438976,54.75147990939149 95.87200000009034,54.07190910098143 95.78971428563818,51.60397819832724 93.73257142864168,49.386395880181226 91.92228571441956,49.77983936981764 89.31657142855693,48.456436027699965 86.54628571437206,49.10025476325245 85.75085714296438,47.27609728247626 82.92571428581141,46.84688178250508 82.21257142862305,45.73807159191347 82.07542857155204,42.91237130649097 80.86857142869849,43.12698259901663 80.04571428580675,44.271572982528596 78.61942857143003,44.62925638005254 78.40000000002328,45.34462160761177 79.0308571428759,47.70531202998245 81.08799999998882,49.171790073873126 81.30742857151199,51.17477028466237 85.50400000007357,51.60397819832724 85.69599999999627,59.50842276147159 87.8080000000773,60.581404616779764 90.79771428566892,59.18652728806774 91.18171428563073,60.72446850890992 90.85257142863702,62.58429150066513 93.51314285723493,65.40976478465018 93.65028571442235,67.09072709402244 96.99657142860815,67.48414213853539" stroke="#4dd2ff" stroke-linecap="round" stroke-linejoin="round" stroke-width="0.5"><title>2023-05-07 11.2km</title></polyline><polyline fill="none" points="144.39999999999418,54.220284349879876 146.64559374384407,54.18696437196195 152.60166918578034,54.216582132277836 153.89054347110505,54.27211533957052 154.13185253334814,54.23509321489473 157.26603141223313,54.24249764415981 164.4740750476485,53.82784627365618 165.42511664585618,53.879678066010456 168.48832227113598,53.83895309522268 168.97661825589603,53.90929618548034 171.76160872708715,53.76120524198632 175.50899651704822,53.74639610003578 175.87521850560734,53.76120524198632 176.07678254584607,53.90559392243449 176.32660839850723,53.89078486487233 176.51113885785162,53.76490752612699 177.81704672405613,53.72788466042948 187.59999999999127,53.73158694943231" stroke="#4dd2ff" stroke-linecap="round" stroke-linejoin="round" stroke-width="0.5"><title>2023-05-05 13.0km</title></polyline><polyline fill="none" points="55.59999999997672,93.41070126123668 54.96874205849599,93.088582694676 54.66683608642779,88.50729501695605 40.97128335444722,88.68625317474653 35.125285895657726,89.366292981882 35.042947903391905,109.37293531684554 32.3532401524717,110.01712921050785 31.776874205796048,109.48030108338571 31.337738246424124,102.71616590753547 29.773316391394474,102.32248033207725 29.745870393817313,99.85298365801282 27.879542566719465,97.66978471017501 25.68386276997626,97.84873617546691 23.296060991007835,96.66765408874198 20.304447268135846,97.20451028854586 19.782973316381685,95.5223569310183 17.1756035577273,95.1286597965809 16.24243964406196,94.16230960265966 15.913087674649432,90.97690604854142 14.760355781414546,91.191653657399 14.10165184235666,92.19380667699443 12.729351969435811,92.7306726797251 12.427445997367613,93.41070126123668 13.168487928807735,95.80868172241026 15.11715374828782,97.31188138725702 15.226937738247216,99.13718286776566 19.508513341774233,99.53087356114702 19.673189326538704,107.51192122115754 21.86886912328191,108.585584924469 23.37839898339007,107.36876570527966 24.83303684880957,107.15403227465868 25.299618805525824,108.585584924469 24.97026683599688,110.69710981663957 27.52274459961336,113.45280137460213 27.632528589572757,115.17061939218547 31.035832274355926,115.52849663022789 31.886658195755444,114.74116601679998 31.776874205796048,106.1519404432911 31.392630241345614,102.64458675905189 29.80076238885522,102.17932178423507 29.718424396356568,99.7814036730415 27.52274459961336,97.52662344372948 25.875984752201475,97.92031672500889 23.35095298604574,96.70344453868165 20.331893265480176,97.16871991172957 19.892757306224667,95.55814754830499 17.395171537413262,95.20024114081752 16.324777636444196,94.26968203463184 16.07776365929749,90.86953217351402 14.815247776336037,91.15586240233097 13.936975857592188,92.30117997160414 12.756797966896556,92.62329957321344 12.400000000023283,93.37491033025435 13.19593392626848,95.98763454706932 15.089707750827074,97.31188138725702 15.226937738247216,99.20876304076228 18.849809402716346,99.28034319309518 19.563405336579308,99.74561367277056 19.645743328961544,107.47613235010067 21.923761118086986,108.585584924469 23.405844980850816,107.47613235010067 24.860482846037485,107.29718791593041 25.24472681072075,108.62137363356305 24.942820838536136,110.84026338803233 27.44040660734754,113.41701337121776 27.659974587033503,115.20640713957255 31.145616264198907,115.49270892990171 31.886658195755444,114.99168057735369 31.447522236267105,102.7519554738974 29.855654383660294,102.17932178423507 29.690978399012238,99.74561367277056 27.659974587033503,97.52662344372948 25.84853875474073,97.84873617546691 23.32350698846858,96.66765408874198 20.551461245166138,97.24030066007981 19.837865311303176,95.45077568090346 17.06581956788432,95.05707843140408 16.269885641522706,93.94756459750351 15.995425667031668,90.94111476209946 14.787801778875291,91.15586240233097 14.019313849974424,92.33697105935425 12.400000000023283,93.19595559727168 13.14104193134699,96.13079671260493 15.11715374828782,97.38346209363954 15.226937738247216,99.28034319309518 19.535959339351393,99.70982366717362 19.70063532399945,107.58349894772982 21.89631512062624,108.62137363356305 24.009656924987212,107.26139901349961 24.942820838536136,107.40455459212535 24.750698856427334,110.55395616171882 27.49529860226903,113.48858937276236 27.659974587033503,115.20640713957255 31.694536213413812,115.34955807651568 31.886658195755444,110.33922552240256 34.71359593397938,109.76660956420528 35.152731893234886,108.97926043682673 35.26251588307787,89.07996066160558 42.81016518420074,88.47150336975756 49.6716645489214,88.65046155362506" stroke="#4dd2ff" stroke-linecap="round" stroke-linejoin="round" stroke-width="0.5"><title>2023-04-17 10.1km</title></polyline><polyline fill="none" points="78.39999999999418,102.25730274562738 83.05818882463791,102.2331808661911 84.53179190748779,102.2894652186551 85.78342967243225,102.23720118089477 88.5764932562306,102.29750583104214 89.91136801538232,102.25328243385593 92.5071290943888,102.2894652186551 93.6200385356351,102.1728760750866 99.94913294794969,101.83114642927285 101.26242774564889,101.87537050484389 103.95375722540484,101.8150649296258 105.1221579961275,101.89547233387748 107.78574181115255,101.76279999087456 112.16647398842906,101.74671845127341 112.61657032753283,101.75877960685284 112.81695568400028,101.90351306138473 113.08824662811821,101.89949269792123 113.2516377649008,101.77486113939449 114.43545279381215,101.72661651358248 118.60346820806444,101.71455534390407 118.83776493254118,101.77084075713356 119.29402697493788,101.71053495285014 120.37302504816034,101.70249416895604 121.59999999999127,101.76279999087456" stroke="#4dd2ff" stroke-linecap="round" stroke-linejoin="round" stroke-width="0.5"><title>2023-04-14 12.0km</title></polyline><polyline fill="none" points="187.59999999997672,93.50727685597667 186.9129770991858,93.50727685597667 187.0503816792043,88.77682009447017 174.68396946566645,88.70514580562303 167.1267175571993,89.31437659314543 167.0717557251919,109.38230972943711 166.4946564885322,109.8839870262018 164.43358778615948,109.95565512763278 163.82900763349608,109.52564620455087 163.36183206096757,102.68123604240827 161.82290076336358,102.3228847001883 161.79541984724347,99.95775271393359 160.09160305350088,97.77177711726108 159.26717557245865,97.44925447861897 157.89312977099326,97.84344875713577 155.14503816794604,96.6250280313252 152.45190839702263,97.12673141602136 151.70992366410792,95.3349289024045 149.2641221373342,95.11991172129638 148.3572519083973,94.2598411123181 147.9450381679926,90.92703902139328 146.8183206106769,91.10622308122402 145.9938931298675,92.28883459375356 144.61984732816927,92.64720059317187 144.6748091604095,97.34174683825404 147.065648854943,97.23423915077001 147.450381679344,99.34854835788428 150.85801526717842,99.27687715773936 151.57251908408944,99.67106849950505 151.7648854961153,107.55476233022637 153.90839694649912,108.48645486214082 155.50229007634334,107.26808699313551 156.84885496180505,107.01724579840084 157.28854961832985,108.59395761901396 156.95877862593625,110.49316522169102 159.54198473284487,113.50319998641498 159.62442748097237,115.04403682569682 163.19694656482898,115.43820283486275 163.9664122137474,114.6857035405119 163.6091603053501,104.18630596362345 163.3068702290766,102.50206043674552 161.82290076336358,101.9645328346378 161.85038167925086,100.17276565483189 161.32824427471496,99.16937031823909 159.78931297711097,97.34174683825404 157.89312977099326,97.84344875713577 155.41984732821584,96.55335603556887 152.56183206103742,97.12673141602136 151.46259541984182,95.11991172129638 148.9068702289369,95.08407550617994 148.1374045801349,93.82980467709422 147.9450381679926,90.81952852271206 144.61984732816927,92.61136401673139 145.141984732938,95.83663492534833 147.1480916030705,97.19840324440156 147.28549618308898,99.16937031823909 151.49007633584552,99.59939739362744 151.6824427479878,107.48309352737851 154.01832061063033,108.52228911970451 155.36488549609203,107.44725911809655 156.84885496180505,107.16058365539357 156.95877862593625,110.74400286258606 159.59694656485226,113.43153292126954 159.81679389299825,115.1873699931457 163.27938931295648,115.43820283486275 163.91145038162358,114.72153689265542 163.47175572509877,102.89624659650144 163.1145038168179,102.3228847001883 161.93282442749478,102.21537919549155 161.74045801523607,99.7069040446222 159.70687022898346,97.44925447861897 157.86564885498956,97.84344875713577 155.33740457997192,96.6250280313252 152.5068702289136,97.23423915077001 151.65496183210053,95.29909271867655 148.9618320610607,94.97656682920933 148.1648854961386,93.61478617676767 148.0549618320074,90.92703902139328 146.9557251908118,91.03454947298451 145.9664122137474,92.28883459375356 144.40000000002328,93.00556606917235 145.30687022896018,96.05165147832304 147.065648854943,97.12673141602136 147.3129770992091,99.16937031823909 151.46259541984182,99.59939739362744 151.81984732823912,107.66226549522253 153.93587786261924,108.48645486214082 155.83206106862053,107.23225255247962 156.87633587792516,107.23225255247962 157.26106870232616,108.52228911970451 156.93129770981614,110.60066709927924 159.51450381672475,113.43153292126954 159.70687022898346,115.15153670916334 163.77404580148868,115.25903654561262 163.9389312977437,110.24232732440578 166.6870229007909,109.7764848346269 167.2366412212141,109.05980235396419 167.4015267174691,88.99184283522482 179.05343511444516,88.5617971651518" stroke="#4dd2ff" stroke-linecap="round" stroke-linejoin="round" stroke-width="0.5"><title>2023-04-03 10.0km</title></polyline><polyline fill="none" points="12.39999999999418,150.23117079136318 18.21117533717188,150.23519110665984 22.209633911348647,150.303536376814 26.516377649313654,150.28343484438847 27.595375722521567,150.1789066390702 34.183429672411876,149.8291362957043 35.23776493254991,149.88542147868975 37.92909441230586,149.81707517009454 38.656647398820496,149.8371770431786 39.07899807320791,149.90552330185346 41.77341040459578,149.7648102313433 46.11714836221654,149.7447083053812 46.59499036606576,149.76078984732158 46.847784200363094,149.8974825743462 47.097495183028514,149.87738074531262 47.26705202310404,149.7648102313433 48.63275529863313,149.7205859748501 51.70327552984236,149.74872869174214 52.5325626203994,149.70048401659187 52.671290944097564,149.75274907752646 54.209633911334095,149.69646362318417 54.30520231211267,149.74068791843274 55.32870905585878,149.72460636474716 55.59999999999127,149.7808917615239" stroke="#4dd2ff" stroke-linecap="round" stroke-linejoin="round" stroke-width="0.5"><title>2023-03-31 11.9km</title></polyline><polyline fill="none" points="78.39999999999418,149.07932178599003 78.5478608100384,149.1307414994044 89.71135196805699,149.16287875924354 90.65766115230508,149.07289431336358 95.86482601254829,148.799724990693 96.6287735310907,148.83829027719185 99.12515687393898,148.80293876715405 99.7708157444431,148.85435912660796 101.9147974900261,148.75151828749767 105.24905875642435,148.7322355766355 105.7715002852201,148.75473207099458 105.9242897889344,148.85114535767025 106.07954363948375,148.8640004306253 106.29147746719536,148.7450907190905 107.61729606389417,148.7161666380107 119.5225556189398,148.70973905926803 119.71723901882069,148.75794585402946 119.71231032516516,149.34284654674775 119.63591557330801,149.51638551889664 119.6654877352994,149.87310021804115 119.77145464917703,149.97272220885316 119.96860239589296,149.98879022963592 120.02528237308434,150.15268337130692 120.28650313748221,150.09483887248643 120.51075869938359,150.20410057588742 120.63644038789789,150.1687512606477 120.73254991443537,150.2073141471883 120.87301768397447,150.39691402283643 120.87301768397447,150.58972577991335 121.01841414718365,150.6411419630731 121.07755847119552,151.2902609407338 121.35110096975404,151.2452731144167 121.35602966343868,150.43869004694352 121.40038790645485,150.4065546508209 121.59999999999127,150.4322629714734" stroke="#4dd2ff" stroke-linecap="round" stroke-linejoin="round" stroke-width="0.5"><title>2023-03-15 16.1km</title></polyline><polyline fill="none" points="187.59999999997672,141.25828060104686 186.17877094971482,141.32821854228678 186.17877094971482,137.76135748605884 185.61564245796762,136.78220985928783 166.8983240223024,137.41166236480058 166.49608938547317,139.3349792095687 166.8983240223024,147.79738974838983 166.25474860344548,151.71377601013228 166.63016759755556,157.13366916659288 166.0670391061576,157.65816844411893 163.86815642449073,157.90293438035587 163.41229050280526,157.4483688710461 162.9832402233733,150.69971785735106 161.42793296091259,150.2801063306979 161.42793296091259,148.11210172620486 159.60446927382145,145.8042042813031 157.40558659203816,146.01401405937213 155.01899441331625,144.75515263272973 152.14972067030612,145.31464741738455 151.45251396647654,143.49628458588268 148.6905027931789,143.11162914012675 148.1005586591782,142.02759683088516 147.91284916200675,139.2300714164303 146.75977653625887,139.36994846364541 146.03575418994296,140.5239309843746 144.69497206714004,140.94355961259862 144.69497206714004,145.3845841735747 146.86703910608776,145.20974224492966 147.4033519552322,147.412741213775 151.10391061450355,147.5526134797401 151.3988826816203,147.9372617896879 151.42569832410663,155.3503630275809 153.67821229051333,156.4343350090785 155.1798882681178,155.24546225270024 156.57430167589337,155.00069359940244 156.76201117318124,158.7421299763373 159.14860335190315,161.15480092873622 159.28268156421836,162.79820055460732 162.5005586593179,163.21779014071217 163.38547486031894,162.76323472263175 163.38547486031894,154.33632027894782 162.95642458088696,150.69971785735106 161.37430167582352,150.2101710048155 161.40111731842626,148.14706969817053 160.75754189945292,147.0980283166282 159.2290502792457,145.62936265910685 157.51284916198347,146.04898233778658 154.91173184360377,144.82508955225057 152.14972067030612,145.3845841735747 151.69385474862065,143.7060963867698 149.1731843574671,143.3913786165358 148.2078212290071,142.51716041711916 147.99329608934931,139.30000995026785 146.57206703908741,139.43988695660664 145.95530726248398,140.55890006486152 144.45363128499594,141.25828060104686 145.15083798882551,144.0907508773962 147.05474860337563,145.24471064080717 147.37653631274588,147.412741213775 151.31843575416133,147.58758153332747 151.47932960896287,155.42029685195303 153.70502793299966,156.3294347092742 155.28715083794668,155.21049531760218 156.6279329607496,155.10559448153072 156.97653631283902,156.39936824751203 156.54748603352346,158.35749902667885 159.0949720669305,161.08486877952237 159.28268156421836,162.79820055460732 162.58100558654405,163.1478585940058 163.38547486031894,162.76323472263175 163.38547486031894,153.91671512648463 162.92960893851705,150.69971785735106 161.40111731842626,150.38500928127905 161.42793296091259,148.21700562682236 159.4435754189035,145.76923596714914 157.59329608944245,146.08395061119518 154.91173184360377,144.82508955225057 152.28379888262134,145.41955254403 151.6402234637644,143.6011905093619 148.7977653631242,143.32144127816719 148.02011173183564,141.92269021789252 147.93966480437666,139.3349792095687 146.70614525128622,139.40491771274537 145.95530726248398,140.55890006486152 144.40000000002328,141.2932495742716 145.17765363131184,144.1956565403816 147.1351955307182,145.41955254403 147.21564245817717,147.27286886613 151.34525139676407,147.62254958201083 151.55977653630544,155.49023065583606 153.73184357536957,156.4343350090785 155.28715083794668,155.21049531760218 156.65474860335235,155.1405614320538 156.65474860335235,158.56729780310707 159.0949720669305,161.15480092873622 159.36312849167734,162.9030980200332 163.3586592177162,162.97302963816037 163.49273743026424,158.21763307366928 166.57653631281573,157.13366916659288 166.7642458101036,137.5865099892544 168.5340782123385,137.09693631896516 176.49832402227912,137.0619667327992" stroke="#4dd2ff" stroke-linecap="round" stroke-linejoin="round" stroke-width="0.5"><title>2023-03-06 10.0km</title></polyline><polyline fill="none" points="12.504772095009685,198.0984579144024 12.39999999999418,198.1105137564482 12.412326128833229,198.19490450275225 12.609544190010638,198.25920204044814 21.693901134174666,198.2431276701136 22.898780226838426,198.30340651043662 25.9310079178249,198.24714626358218 26.54115129467391,198.29938792519533 27.391654183607898,198.18686729997353 34.44836293600383,197.82117208918498 35.25264284184959,197.88547050048328 38.09689706825884,197.83322805274656 39.116884228555136,197.90154507982515 40.934988230263116,197.86135861385446 41.8625294243393,197.77294818207156 46.05649475712562,197.74481753054715 46.61117055424256,197.76892951933587 46.888508452815586,197.90556372319043 47.09188957842707,197.88547050048328 47.24596618874057,197.76491085599991 48.4446822169848,197.72070552061996 51.443013053692994,197.71668685025543 51.89291675583809,197.75687352757814 52.09937941364478,197.71266817928517 54.968285897703026,197.6965934895652 55.59999999999127,197.74481753054715" stroke="#4dd2ff" stroke-linecap="round" stroke-linejoin="round" stroke-width="0.5"><title>2023-03-03 12.1km</title></polyline><polyline fill="none" points="121.59999999997672,189.16651402509888 121.57223650382366,184.53223215413163 109.13419023132883,184.3874094493076 101.83239074540325,184.89428854582366 101.304884318728,185.69081074596033 101.66580976860132,196.9504643433611 101.11053984577302,199.59333141738898 101.69357326475438,201.1862787820137 101.61028277617879,205.53062865174434 99.00051413872279,206.0374645099364 98.13984575832728,205.6030338378332 97.61233933153562,198.6158359205583 95.97429305908736,198.2175959092565 95.9465295629343,195.86434641653614 94.47506426728796,193.80070924272877 93.55886889446992,193.43866586168588 92.05964010278694,193.94552644720534 89.28329048829619,192.64216856175335 86.4236503855791,193.22143957929802 85.84061696659774,191.3388038223202 83.0642673522234,190.61470933872624 82.31465295620728,189.3837438615592 82.17583547555842,186.81317859177943 80.84318766067736,187.0666157890082 80.1213367608143,188.2251825332496 78.73316195362713,188.58723353009555 78.42776349605992,189.27512896711414 79.20514138811268,191.84566870208073 81.23187660658732,193.07662195172452 81.34293059119955,195.24887747853063 84.53573264775332,195.06785691180266 85.59074550122023,195.42989791311265 85.7295629818691,203.57568063333747 86.75681233918294,204.37214279834006 88.089460154064,204.55315656992025 89.56092544971034,203.4308690555772 91.11568123381585,203.21365153034276 91.06015424162615,206.8701211699372 93.69768637511879,209.54908449033974 93.80874035984743,211.3591784509481 94.58611825178377,211.54018712007382 97.58457583538257,211.54018712007382 98.08431876602117,211.1419678736711 97.58457583538257,198.65203952629236 96.02982005139347,198.2175959092565 95.9465295629343,195.90055042401946 94.1419023135677,193.69209628399403 91.97634961432777,193.9093221539806 89.3388174806023,192.64216856175335 86.5347043700749,193.2576439728873 85.86838046275079,191.4474178123637 83.2308483289089,190.94055211817613 82.37017994839698,189.99922736432927 82.09254498709925,186.84938392158074 80.84318766067736,187.0666157890082 79.98251928016543,188.33379788784077 78.40000000002328,189.09410403727088 79.12185089965351,191.84566870208073 81.09305912593845,193.18523518032453 81.45398457569536,195.3574897551298 83.75835475570057,195.06785691180266 85.53521850903053,195.46610198402777 85.7295629818691,203.6480863904435 88.089460154064,204.55315656992025 89.50539845752064,203.5394777468464 91.06015424162615,203.21365153034276 91.42107969138306,204.7703729212808 91.08791773777921,206.90632357001596 93.66992287919857,209.62148850258382 93.83650385600049,211.3229767013254 97.77892030845396,211.5039853968774 97.9455012853723,203.46707195791532 97.52904884307645,198.68824312671495 95.9465295629343,198.29000323171203 95.91876606666483,196.0091624150955 93.8920308483066,193.58348327765998 91.92082262202166,193.94552644720534 89.56092544971034,192.64216856175335 86.56246786634438,193.29384836116515 85.81285347032826,191.4474178123637 82.89768637530506,191.08537099372188 82.09254498709925,189.60097350769502 82.12030848313589,186.9217945652781 80.89871465286706,187.03041049103194 80.01028277631849,188.2613876567193 78.53881748067215,188.6958487260854 78.40000000002328,189.52856364668696 79.34395886887796,192.1353053109051 81.20411311043426,193.2576439728873 81.23187660658732,195.24887747853063 85.59074550122023,195.68332629924407 85.75732647813857,203.57568063333747 88.0339331618743,204.69796749198576 89.42210796906147,203.5032748550293 90.97686375316698,203.17744859101367 91.39331619546283,204.69796749198576 91.14344473008532,207.0149307383399 93.66992287919857,209.62148850258382 93.80874035984743,211.3591784509481 97.33470437012147,211.6125905506924 98.05655526986811,211.17816964985104 98.05655526986811,206.5080968789116 101.27712082257494,205.49442605084914 101.41593830334023,185.03911095451622 109.71722365031019,184.42361513337528 116.85244215931743,184.53223215413163" stroke="#4dd2ff" stroke-linecap="round" stroke-linejoin="round" stroke-width="0.5"><title>2023-03-01 10.1km</title></polyline><polyline fill="none" points="187.59999999997672,189.33906547781953 186.5655954631511,189.23257212642056 186.34782608691603,184.93730138542014 173.82608695654199,184.68881232508284 167.21134215500206,185.2212885717745 166.74858223064803,185.9667533569591 166.6124763705302,191.39792776407558 167.1296786390012,204.10569163004402 166.55803402641322,205.66749384890136 164.1897920605261,205.98695215713815 163.6181474479381,205.38353055570042 163.23705103970133,198.88777961516462 161.63100189040415,198.28434038595879 161.5765595464036,196.01255573033995 159.69829867675435,193.70525270119833 157.79281663522124,193.9537325415149 155.09792060486507,192.71133079889114 152.29413988650776,193.31478386727395 151.64083175815176,191.46892270429817 148.45595463120844,190.82996749649465 147.96597353497054,189.76503841653175 147.96597353497054,187.06719719317334 146.74102079391014,187.35118189032073 145.9243856332032,188.4871173602005 144.61776937614195,188.91309179241944 144.42722117190715,189.6585452518775 145.29829867673106,192.10787623205397 147.12211720226333,193.38577824737877 147.23100189026445,195.26712176272122 151.42306238180026,195.65758745952917 151.47750472580083,203.5022653574415 153.68241965968627,204.46064756117994 155.3701323251007,203.28929102106486 156.73119092627894,203.25379528022313 157.08506616263185,204.63812533234886 156.73119092627894,206.48388646864623 159.39886578451842,209.50096583298 159.48052930051927,211.09822797987727 162.9376181474654,211.34669003701129 163.78147448017262,210.88526030012872 163.26427221181802,198.92327599388955 161.65822306240443,198.2488439140434 161.08657844993286,195.30261867004447 159.5621928165201,193.70525270119833 157.76559546310455,194.06022382396623 155.15236294886563,192.8178226257587 152.40302457474172,193.3502810599748 151.7224952740362,191.57541507556743 148.78260869567748,191.18494281930907 148.02041587908752,189.72954070007836 147.96597353497054,187.20918958327093 146.79546313802712,187.38667995424476 146.14215500943828,188.41612154895847 144.75387523625977,188.84209610559628 144.40000000002328,189.55205204058439 145.3799621927319,192.32086036792316 147.06767485826276,193.38577824737877 147.25822306238115,195.30261867004447 151.45028355391696,195.72858115524286 151.64083175815176,203.64424814454105 153.95463138003834,204.46064756117994 155.31568998110015,203.36028248725052 156.70396975416224,203.1118122649059 157.11228733463213,204.70911640443956 156.70396975416224,206.34190534055233 159.34442344040144,209.35898646739952 159.45330812851898,210.99174416335882 162.91039697546512,211.38218459588825 163.69981096405536,210.60130310356908 163.31871455570217,198.99426873546327 163.01928166358266,198.49731910855917 161.65822306240443,198.2488439140434 161.60378071828745,195.97705892662634 160.02495274099056,193.98922964077792 159.20831758028362,193.56326410683687 157.71115311898757,194.02472673494776 155.3701323251007,192.7468280796602 152.37580340262502,193.31478386727395 151.66805293003563,191.53991762360965 148.7553875236772,191.11394779625698 148.10207939508837,189.76503841653175 147.96597353497054,187.1381933986122 146.79546313802712,187.38667995424476 146.0604914932046,188.5226152580144 144.5088846880244,189.12607872842636 145.08052930049598,191.78839967820386 147.12211720226333,193.31478386727395 147.3126654063817,195.3381155723764 151.47750472580083,195.69308430999808 151.7224952740362,203.64424814454105 153.79130434780382,204.46064756117994 155.45179584121797,203.32478675668244 156.75841209839564,203.1118122649059 157.11228733463213,204.63812533234886 156.7856332702795,206.55487700173398 159.4260869565187,209.42997616056527 159.5621928165201,211.02723877402605 163.1009451794671,211.38218459588825 163.75425330805592,210.9207549264247 163.80869565228932,206.30641004559584 166.69413988664746,205.63199845541385 167.02079395088367,205.0995669306576 166.9663516067667,187.67066427799 167.32022684300318,185.18579019160825 185.9122873346787,184.61781540411175" stroke="#4dd2ff" stroke-linecap="round" stroke-linejoin="round" stroke-width="0.5"><title>2023-02-22 10.2km</title></polyline><polyline fill="none" points="12.39999999999418,246.2628488581613 15.181461897358531,246.24532578945582 19.226003110423335,246.32417951798743 23.569517884912784,246.27599115297016 23.928958009331836,246.31541800284685 25.087900466562132,246.18399496834354 32.35396578538348,245.80724574375927 33.41884914464026,245.88171980306106 34.020155520993285,245.82038823826042 36.405225505441194,245.80724574375927 37.63807153966627,245.89924308425725 41.689331259723986,245.71962896659534 45.327402799390256,245.7240098115417 45.84472783826641,245.74591402662918 46.0294867807097,245.9036239029574 46.311664074644796,245.89048144493972 46.53673405908921,245.74153318489516 48.112223950229236,245.68896303410656 51.57225505443057,245.732771499499 51.85443234836566,245.68020133335995 54.85088646966324,245.6758204820144 55.60000000000582,245.75905654801136" stroke="#4dd2ff" stroke-linecap="round" stroke-linejoin="round" stroke-width="0.5"><title>2023-02-17 11.0km</title></polyline><polyline fill="none" points="78.39999999999418,246.0906561980173 78.9797863598942,246.0945138368861 79.03007395233726,246.2603917751967 79.70747740345541,246.20638511899597 86.90156121610198,246.2295308423145 87.75053410023975,246.28353745118875 89.20295809366507,246.22181560346326 89.47510271158535,246.2642493892672 91.34757600657758,246.2642493892672 98.911421528348,245.8244777548698 99.91421528348292,245.87848519219733 102.69186524239194,245.8244777548698 103.8396055875055,245.89005820011516 107.00476581758994,245.74346639175383 108.62580115038145,245.77818557780847 110.2261298274534,245.7396087015968 110.7911257189844,245.77432789272825 110.96565324568655,245.90548886943725 111.20230073951825,245.89391586828788 111.42119967131293,245.7511817703762 112.44765817583539,245.71646254881307 121.60000000000582,245.74346639175383" stroke="#4dd2ff" stroke-linecap="round" stroke-linejoin="round" stroke-width="0.5"><title>2023-02-03 12.5km</title></polyline><polyline fill="none" points="187.59999999997672,237.39183751991368 186.52000000013504,237.21579077563365 186.0339999999851,232.7089503393654 166.91799999994691,233.09626024929457 166.56700000003912,233.90608804984367 167.05299999995623,243.09568246208073 166.53999999992084,248.2008613034559 167.02600000007078,250.6301843006513 166.6479999999283,253.1298968991905 166.18900000001304,253.62279491535446 163.75899999996182,253.7284157875838 163.35399999993388,253.27072500668874 162.8409999998985,246.54609104011615 161.329000000027,246.15880274222582 161.30199999990873,243.90547666608472 159.5199999999022,241.75775564234937 157.4409999998752,241.89859039415023 155.03799999982584,240.66628352570115 152.09499999997206,241.264833363035 151.47399999992922,239.53959744681197 148.50399999984074,238.8706250955729 147.9639999999199,237.88476771987916 147.72100000001956,234.99759077989438 146.6139999999432,235.24405845422007 145.83099999988917,236.47639304531913 144.53499999991618,236.72285920740978 144.40000000002328,237.42704685329227 145.29099999985192,240.0325232543255 147.12699999986216,241.12399824087333 147.23499999998603,243.09568246208073 151.33900000003632,243.48297568169073 151.60899999993853,251.33433131722268 153.84999999997672,252.35534083760285 155.3619999999646,251.15829475595092 156.84699999995064,251.1230874282046 156.68499999993946,254.32693318999372 159.35800000000745,257.10825926625694 159.4659999998985,258.86857564296224 162.59799999999814,259.185431225691 163.46199999994133,258.65733835655556 163.00299999990966,246.68692299409304 161.329000000027,246.0531785529747 161.35599999991246,244.08151852432638 160.545999999973,242.7788057285361 159.3039999998873,241.51129462868266 157.57599999988452,241.93379906930204 155.06499999994412,240.66628352570115 152.22999999998137,241.264833363035 151.36599999992177,239.39876131659548 148.90899999986868,239.25792510414612 148.04499999980908,237.91997698128398 147.829000000027,234.99759077989438 146.72199999995064,235.24405845422007 146.15499999991152,236.2651361344033 144.72399999992922,236.72285920740978 144.40000000002328,237.39183751991368 145.3179999999702,240.10294114459248 147.12699999986216,241.30004213062057 147.26199999987148,243.1660994572594 151.31199999991804,243.30693338626588 151.6360000000568,251.40474590573285 153.82299999985844,252.39054798535653 155.57800000009593,251.0526727574761 156.76599999994505,250.98225806609844 156.6579999998212,254.36214004972135 159.3310000000056,257.14346571982605 159.41200000001118,258.83336944144685 162.27399999997579,259.2910496606346 163.29999999993015,258.9389880307572 163.4890000000596,258.4108946217166 163.40800000005402,249.99645022700133 162.92199999990407,246.4756750321394 161.51800000004005,246.22921884259267 161.1129999998957,243.44776723287941 159.4659999998985,241.61692080824287 157.60299999988638,242.0042164039769 155.06499999994412,240.7014923808456 152.17599999997765,241.3352508932294 151.6360000000568,239.53959744681197 149.20599999988917,239.18750696702045 148.20699999993667,238.27206931257388 147.85600000002887,235.06801014117082 144.53499999991618,237.03974390267103 145.3179999999702,240.0325232543255 147.1809999999823,241.3352508932294 147.28899999987334,243.1660994572594 151.25799999991432,243.4125587788585 151.6360000000568,251.47516047372483 153.82299999985844,252.35534083760285 155.55099999997765,251.0526727574761 156.76599999994505,250.98225806609844 157.06299999984913,252.46096226535155 156.6579999998212,254.25651945499703 159.3039999998873,257.14346571982605 159.3849999998929,258.7981632347801 162.94900000002235,259.07981274437043 163.59699999995064,258.55171964391775 163.51599999994505,254.18610569959856 166.16200000001118,253.55238097469555 166.7829999999376,252.6017907635105 166.9989999999525,233.13147021020995 186.1689999999944,232.7793703692878" stroke="#4dd2ff" stroke-linecap="round" stroke-linejoin="round" stroke-width="0.5"><title>2023-01-30 10.2km</title></polyline></svg>