<?xml version="1.0" encoding="utf-8" ?>
<svg baseProfile="full" height="300mm" version="1.1" viewBox="0,0,200,300" width="200mm" xmlns="http://www.w3.org/2000/svg" xmlns:ev="http://www.w3.org/2001/xml-events" xmlns:xlink="http://www.w3.org/1999/xlink"><defs /><rect fill="#222222" height="300" width="200" x="0" y="0" /><text fill="#FFFFFF" style="font-size:12px; font-family:Arial; font-weight:bold;" x="10" y="20">Over 10km Runs</text><text fill="#FFFFFF" style="font-size:4px; font-family:Arial" x="10" y="280">ATHLETE</text><text fill="#FFFFFF" style="font-size:9px; font-family:Arial" x="10" y="290">chending</text><text fill="#FFFFFF" style="font-size:4px; font-family:Arial" x="120" y="280">STATISTICS</text><text fill="#FFFFFF" style="font-size:3px; font-family:Arial" x="120" y="285">Number: 9</text><text fill="#FFFFFF" style="font-size:3px; font-family:Arial" x="120" y="290">Weekly: 1.3</text><text fill="#FFFFFF" style="font-size:3px; font-family:Arial" x="141" y="285">Total: 104.1 km</text><text fill="#FFFFFF" style="font-size:3px; font-family:Arial" x="141" y="290">Avg: 11.6 km</text><text fill="#FFFFFF" style="font-size:3px; font-family:Arial" x="167" y="285">Min: 10.0 km</text><text fill="#FFFFFF" style="font-size:3px; font-family:Arial" x="167" y="290">Max: 16.1 km</text><polyline fill="none" points="13.0,60.288963489205344 20.26396917148668,60.293988883324346 25.262042389207636,60.37942047101751 30.645472061660257,60.35429355548695 31.994219653177424,60.22363329883592 40.22928709053667,59.78642036962992 41.547206165705575,59.85677684836264 44.911368015411426,59.77134396261681 45.82080924854381,59.796471303972794 46.34874759153172,59.881904127316375 49.71676300576655,59.7060127891782 55.14643545279978,59.68088538172742 55.74373795760039,59.70098730915197 56.059730250475695,59.871853217933676 56.37186897880747,59.8467259316385 56.58381502889097,59.7060127891782 58.29094412330596,59.65073246856264 62.1290944123175,59.68591086467859 63.165703275517444,59.625605020741204 63.33911368015106,59.69093634690944 65.26204238919308,59.62057952897885 65.38150289017358,59.67585989804138 66.66088631983439,59.65575795593395 67.0,59.72611470190532" stroke="#4dd2ff" stroke-linecap="round" stroke-linejoin="round" stroke-width="0.5"><title>2023-03-31 11.9km</title></polyline><polyline fill="none" points="73.0,58.84915223248754 73.18482601255528,58.91342687425458 87.13918996007123,58.95359844905397 88.32207644038135,58.841117891704926 94.83103251569264,58.49965623836579 95.7859669138561,58.54786284648981 98.90644609242736,58.50367345894301 99.71351968056115,58.567948908261315 102.3934968625399,58.43939785937255 106.56132344552316,58.415294470794834 107.2143753565324,58.44341508874277 107.405362236168,58.563931697088265 107.59942954935832,58.58000053828073 107.86434683400148,58.43136339886223 109.52162007987499,58.39520829751382 124.4031945236784,58.38717382408322 124.64654877352586,58.44743231753819 124.64038790644554,59.17855818343378 124.54489446664229,59.395481898620346 124.58185966912424,59.841375272551886 124.71431831146765,59.9659027610669 124.96075299486984,59.985987787045815 125.03160296635178,60.19085421413365 125.35812892184185,60.11854859060804 125.63844837422948,60.25512571985928 125.79555048487964,60.21093907580871 125.91568739304785,60.25914268398628 126.09127210496808,60.49614252854553 126.09127210496808,60.737157224892144 126.27301768396865,60.801427453841825 126.34694808899076,61.61282617591678 126.68887621219619,61.556591393020426 126.69503707929107,60.54836255867849 126.7504848830722,60.508193313527954 127.0,60.54032871434174" stroke="#4dd2ff" stroke-linecap="round" stroke-linejoin="round" stroke-width="0.5"><title>2023-03-15 16.1km</title></polyline><polyline fill="none" points="187.0,49.07285075128311 185.22346368711442,49.16027317784028 185.22346368711442,44.701696857548086 184.51955307251774,43.47776232409524 161.1229050279362,44.26457795599708 160.62011173181236,46.66872401194996 161.1229050279362,57.24673718548729 160.31843575427774,62.142220012668986 160.78770949703176,68.917086458212 160.0837988826679,69.57271055513411 157.33519553067163,69.87866797542665 156.76536312850658,69.31046108878218 156.2290502792457,60.874647321674274 154.28491620114073,60.35013291335781 154.28491620114073,57.64012715773424 152.0055865922477,54.755255351628875 149.256983240135,55.0175175741897 146.2737430166453,53.443940790893976 142.68715083796997,54.14330927171977 141.81564245803747,51.87035573233152 138.36312849156093,51.389536425151164 137.62569832406007,50.03449603859917 137.39106145256665,46.53758927050512 135.9497206703527,46.71243557953858 135.0446927373996,48.1549137304537 133.36871508392505,48.67944951570826 133.36871508392505,54.23073021695018 136.0837988826679,54.01217780614388 136.75418994412757,56.76592651719693 141.37988826818764,56.94076684964239 141.74860335199628,57.42157723708078 141.7821229051333,66.68795378445066 144.59776536317077,68.04291876131902 146.47486033523455,66.55682781586074 148.2178770948667,66.2508669992385 148.45251396659296,70.92766247040709 151.43575418996625,73.94350116091664 151.60335195541847,75.99775069323368 155.62569832406007,76.52223767587566 156.73184357536957,75.95404340326786 156.73184357536957,65.42040034866659 156.19553072622512,60.874647321674274 154.2178770948667,60.262713756004814 154.25139664800372,57.68383712269133 153.44692737434525,56.37253539575613 151.53631284902804,54.53670332385809 149.39106145256665,55.0612279222114 146.1396648044465,53.53136194028775 142.68715083796997,54.23073021695018 142.11731843580492,52.13262048346223 138.9664804469794,51.739223270647926 137.75977653625887,50.64645052139531 137.49162011174485,46.625012437812984 135.71508379885927,46.79985869574011 134.9441340782214,48.198625081044156 133.06703910627402,49.07285075128311 133.9385474859737,52.61343859671615 136.31843575427774,54.05588830099441 136.72067039099056,56.76592651719693 141.64804469270166,56.984476916637504 141.84916201117449,66.77537106492673 144.63128491630778,67.91179338659276 146.60893854743335,66.51311914698454 148.28491620102432,66.38199310188065 148.72067039110698,67.99921030935366 148.1843575418461,70.44687378330855 151.36871508369222,73.85608597437385 151.60335195541847,75.99775069323368 155.72625698323827,76.4348232424818 156.73184357536957,75.95404340326786 156.73184357536957,64.89589390807669 156.16201117320452,60.874647321674274 154.25139664800372,60.481261601584265 154.28491620114073,57.77125703351339 151.80446927365847,54.71154495890369 149.49162011174485,55.10493826397578 146.1396648044465,53.53136194028775 142.85474860330578,54.274440680019325 142.0502793296473,52.001488136680564 138.49720670399256,51.651801597705344 137.52513966476545,49.90336277234019 137.42458100558724,46.66872401194996 135.88268156419508,46.756147140898975 134.9441340782214,48.198625081044156 133.0,49.116561967821326 133.9720670392271,52.74457067545154 136.41899441333953,54.274440680019325 136.51955307275057,56.591086082626134 141.6815642459551,57.028186977491714 141.9497206704691,66.86278831979143 144.66480446921196,68.04291876131902 146.60893854743335,66.51311914698454 148.31843575416133,66.4257017900527 148.31843575416133,70.70912225387292 151.36871508369222,73.94350116091664 151.70391061459668,76.12887252503424 156.69832402223255,76.21628704768955 156.8659217878012,70.27204134207568 160.72067039110698,68.917086458212 160.9553072626004,44.483137486560736 163.16759776545223,43.8711703986919 173.1229050279362,43.82745841596625" stroke="#4dd2ff" stroke-linecap="round" stroke-linejoin="round" stroke-width="0.5"><title>2023-03-06 10.0km</title></polyline><polyline fill="none" points="13.130965118762106,150.12307239299844 13.0,150.13814219555934 13.015407661048812,150.24363062843622 13.261930237538763,150.32400255055836 24.617376417736523,150.30390958763746 26.123475283558946,150.37925813804395 29.913759897302953,150.30893282947363 30.6764391183533,150.37423490649235 31.73956772951351,150.23358412496236 40.56045367002662,149.7764651114776 41.565803552322905,149.85683812560092 45.121121335352655,149.79153506593138 46.396105285704834,149.87693134977962 48.66873528783617,149.8266982673158 49.82816178044595,149.7161852275858 55.070618446407025,149.6810219131803 55.763963192817755,149.71116189916575 56.110635566030396,149.8819546539853 56.36486197305203,149.85683812560092 56.55745773593662,149.70613856999626 58.055852771241916,149.65088190077222 61.80376631714171,149.645858562817 62.366145944804884,149.69609190947085 62.62422426707053,149.6408352241051 66.2103573721397,149.6207418619524 67.0,149.6810219131803" stroke="#4dd2ff" stroke-linecap="round" stroke-linejoin="round" stroke-width="0.5"><title>2023-03-03 12.1km</title></polyline><polyline fill="none" points="127.0,138.95814253136632 126.96529562980868,133.16529019264271 111.41773778921925,132.98426181162358 102.29048843181226,133.61786068227957 101.63110539852642,134.61351343244314 102.08226221089717,148.6880804291868 101.38817480730359,151.9916642717435 102.11696658097208,153.98284847752075 102.0128534702817,159.41328581466223 98.75064267334528,160.04683063740958 97.67480719799642,159.50379229726968 97.01542416447774,150.76979490066878 94.96786632400472,150.2719948865706 94.93316195369698,147.33043302065926 93.09383033413906,144.7508865534037 91.94858611817472,144.2983323271037 90.07455012842547,144.93190805899212 86.60411311045755,143.30271070217714 83.02956298203208,144.02679947411525 82.30077120824717,141.67350477789296 78.83033419027925,140.76838667341508 77.89331619523,139.22967982693808 77.71979434438981,136.0164732396952 76.0539845759049,136.3332697362639 75.1516709511634,137.7814781665511 73.41645244217943,138.2340419125976 73.03470437019132,139.09391120888176 74.00642673519906,142.30708587757545 76.53984575835057,143.8457774396229 76.67866323899943,146.56109684813418 80.66966580972075,146.33482113972423 81.9884318766417,146.7873723913799 82.16195372748189,156.96960079166456 83.4460154240951,157.96517849792144 85.11182519269641,158.19144571237848 86.95115681225434,156.78858631945332 88.89460154238623,156.51706441291026 88.82519280212,161.08765146241058 92.1221079690149,164.43635561291012 92.2609254498966,166.69897306367056 93.23264781478792,166.92523390008137 96.98071979428641,166.92523390008137 97.60539845761377,166.42745984208887 96.98071979428641,150.81504940785817 95.03727506427094,150.2719948865706 94.93316195369698,147.37568803000613 92.67737789207604,144.61512035498163 89.97043701796792,144.88665269245394 86.67352185072377,143.30271070217714 83.16838046268094,144.07205496609095 82.33547557843849,141.8092722654401 79.03856041119434,141.1756901477056 77.96272493549623,139.9990342053934 77.61568123393226,136.061729901965 76.0539845759049,136.3332697362639 74.97814910032321,137.91724735978642 73.0,138.8676300465595 73.9023136246251,142.30708587757545 76.36632390751038,143.98154397538747 76.81748071976472,146.69686219390132 79.69794344471302,146.33482113972423 81.91902313637547,146.8326274800056 82.16195372748189,157.06010798804346 85.11182519269641,158.19144571237848 86.88174807198811,156.9243471835507 88.82519280212,156.51706441291026 89.27634961437434,158.46296615159372 88.8598971721949,161.1329044625163 92.08740359905642,164.52686062821886 92.29562982008792,166.65372087663854 97.22365038562566,166.8799817460822 97.43187660677359,156.83383994738688 96.91131105402019,150.86030390838278 94.93316195369698,150.36250403962913 94.89845758338924,147.5114530188439 92.36503856035415,144.47935409704223 89.9010282777017,144.93190805899212 86.95115681225434,143.30271070217714 83.20308483298868,144.11731045143097 82.26606683805585,141.8092722654401 78.62210796913132,141.35671374213416 77.61568123393226,139.50121688458603 77.65038560400717,136.15224320656853 76.12339331617113,136.28801311377902 75.01285347039811,137.82673457087367 73.17352185084019,138.36981090760673 73.0,139.41070455833687 74.17994858615566,142.66913163862773 76.50514138804283,144.07205496609095 76.53984575835057,146.56109684813418 81.9884318766417,147.10415787404054 82.19665809767321,156.96960079166456 85.04241645243019,158.37245936496765 86.77763496141415,156.87909356877208 88.72107969154604,156.4718107387598 89.24164524429943,158.37245936496765 88.92930591269396,161.26866342290305 92.08740359905642,164.52686062821886 92.2609254498966,166.69897306367056 96.66838046268094,167.0157381883473 97.57069408742245,166.47271206229925 97.57069408742245,160.63512109863223 101.59640102821868,159.36803256353596 101.76992287917528,133.79888869312708 112.14652956300415,133.02951891670818 121.06555269926321,133.16529019264271" stroke="#4dd2ff" stroke-linecap="round" stroke-linejoin="round" stroke-width="0.5"><title>2023-03-01 10.1km</title></polyline><polyline fill="none" points="187.0,139.1738318472926 185.70699432888068,139.0407151580439 185.43478260864504,133.67162673178245 169.78260869556107,133.3610154063499 161.51417769375257,134.02661071473267 160.93572778825182,134.95844169621705 160.76559546310455,141.74740970510175 161.4120982986642,157.63211453758413 160.69754253292922,159.58436731112306 157.7372400755994,159.9836901964445 157.02268430986442,159.22941319464007 156.54631379956845,151.1097245189594 154.53875236294698,150.3554254824412 154.47069943300448,147.51569466292858 152.12287334597204,144.63156587650883 149.74102079391014,144.94216567691183 146.37240075611044,143.3891634986212 142.8676748580765,144.14347983410698 142.0510396976024,141.83615338039817 138.06994328903966,141.03745937062195 137.45746691862587,139.70629802066833 137.45746691862587,136.3339964914776 135.92627599230036,136.6889773629082 134.9054820414167,138.1088967002579 133.27221172011923,138.64136474052793 133.03402646479663,139.57318156486144 134.12287334597204,142.6348452900711 136.40264650282916,144.23222280925256 136.53875236283056,146.5839022034197 141.77882797713391,147.07198432442965 141.84688090730924,156.8778316968237 144.60302457457874,158.07580945148948 146.712665406405,156.61161377636017 148.41398865776137,156.5672441002971 148.8563327031443,158.29765666543972 148.41398865776137,160.60485808583326 151.7485822305316,164.37620729123591 151.85066162561998,166.3727849748684 156.17202268424444,166.68336254628957 157.22684310015757,166.1065753751609 156.58034026471432,151.15409499238012 154.57277882797644,150.31105489257607 153.85822306235787,146.62827333755558 151.95274102059193,144.63156587650883 149.70699432888068,145.07527977996506 146.44045368605293,143.5222782822093 143.00378071831074,144.1878513249685 142.15311909257434,141.96926884449203 138.47826086950954,141.48117852414725 137.5255198488012,139.66192587511614 137.45746691862587,136.51148697911412 135.9943289224757,136.73334994280594 135.17769376176875,138.02015193621628 133.4423440452665,138.55262013198808 133.0,139.44006505073048 134.22495274082758,142.9010754599003 136.33459357265383,144.23222280925256 136.57277882786002,146.62827333755558 141.8128544422798,147.16072644406813 142.0510396976024,157.05531018067268 144.9432892249897,158.07580945148948 146.64461247622967,156.70035310907406 148.3799621927319,156.38976533114328 148.89035916817375,158.38639550554217 148.3799621927319,160.42738167571952 151.6805293004727,164.19873308425304 151.81663516070694,166.23968020422035 156.1379962193314,166.72773074486759 157.1247637050692,165.75162887948682 156.64839319465682,151.24283591934363 156.2741020793328,150.62164888571715 154.57277882797644,150.31105489257607 154.5047258978011,147.47132365830475 152.5311909262091,144.98653705097968 151.51039697532542,144.45408013355336 149.63894139870536,145.0309084187029 146.712665406405,143.4335350995825 142.96975425328128,144.14347983410698 142.08506616239902,141.92489702953026 138.4442344045965,141.3924347453285 137.62759924377315,139.70629802066833 137.45746691862587,136.42274174827617 135.9943289224757,136.73334994280594 135.07561436656397,138.15326907252893 133.1361058600014,138.90759841055842 133.85066162561998,142.23549959776574 136.40264650282916,144.14347983410698 136.64083175791893,146.67264446549234 141.84688090730924,147.11635538749397 142.15311909257434,157.05531018067268 144.73913043481298,158.07580945148948 146.81474480149336,156.65598344587488 148.44801512290724,156.38976533114328 148.89035916817375,158.29765666543972 148.48204158782028,160.69359625218203 151.78260869556107,164.28747020071023 151.95274102059193,166.28404846752528 156.37618147430476,166.72773074486759 157.1928166350117,166.1509436580236 157.26086956518702,160.3830125569948 160.86767485830933,159.53999806928914 161.27599243854638,158.8744586633402 161.20793950848747,137.0883303474984 161.65028355375398,133.9822377395176 184.89035916829016,133.27226925513241" stroke="#4dd2ff" stroke-linecap="round" stroke-linejoin="round" stroke-width="0.5"><title>2023-02-22 10.2km</title></polyline><polyline fill="none" points="13.0,240.3285610726998 16.476827371690888,240.30665723681886 21.53250388802553,240.40522439748383 26.96189735614462,240.34498894121134 27.411197511668433,240.39427250355584 28.859875583206303,240.22999371042897 37.942457231722074,239.75905717969727 39.273561430803966,239.85214975382405 40.025194401241606,239.77548529782143 43.00653188180877,239.75905717969727 44.54758942457556,239.87405385531747 49.61166407466226,239.64953620824235 54.15925349923782,239.6550122644221 54.805909797840286,239.68239253328284 55.03685847589804,239.87952987869357 55.38958009330963,239.86310180617147 55.670917573865154,239.67691648111577 57.64027993779746,239.61120379262866 61.96531881803821,239.66596437436965 62.3180404354498,239.60025166669584 66.06360808708996,239.59477560251253 67.0,239.69882068501101" stroke="#4dd2ff" stroke-linecap="round" stroke-linejoin="round" stroke-width="0.5"><title>2023-02-17 11.0km</title></polyline><polyline fill="none" points="73.0,240.11332024751755 73.72473294986412,240.11814229610536 73.78759244042158,240.32548971899087 74.63434675431927,240.2579813987395 83.62695152012748,240.28691355289266 84.6881676253106,240.3544218139832 86.50369761708134,240.27726950432407 86.84387838948169,240.33031173657946 89.1844700082147,240.33031173657946 98.63927691044228,239.78059719358498 99.89276910436456,239.8481064902444 103.36483155298629,239.78059719358498 104.7995069843746,239.86257275014214 108.75595727197651,239.67933298969 110.7822514379659,239.72273197225877 112.78266228431312,239.67451087699374 113.48890714872687,239.71790986590713 113.70706655710819,239.88186108679292 114.00287592440145,239.86739483535712 114.27649958914844,239.6889772129689 115.55957271979423,239.64557818601315 127.0,239.67933298969" stroke="#4dd2ff" stroke-linecap="round" stroke-linejoin="round" stroke-width="0.5"><title>2023-02-03 12.5km</title></polyline><polyline fill="none" points="187.0,229.23979689989937 185.6500000001397,229.0197384695348 185.0425000000978,223.38618792418856 161.14749999996275,223.87032531161094 160.7087500001071,224.88261006231187 161.3162500000326,236.36960307759 160.67500000004657,242.75107662932714 161.28250000008848,245.78773037579958 160.80999999993946,248.9123711239954 160.2362500000745,249.5284936441749 157.19874999998137,249.66051973446156 156.69250000000466,249.08840625835 156.05125000001863,240.68261380016338 154.16125000000466,240.19850342778955 154.12749999994412,237.38184583259863 151.89999999990687,234.69719455292216 149.3012499999022,234.87323799266596 146.29749999986961,233.33285440714099 142.61875000002328,234.08104170378647 141.84250000002794,231.92449680849677 138.12999999988824,231.08828136944794 137.4549999999581,229.85595964983804 137.15125000011176,226.24698847485706 135.7674999999581,226.55507306774962 134.78874999994878,228.09549130665255 133.16874999995343,228.40357400928042 133.0,229.2838085666299 134.1137499999022,232.5406540679105 136.40874999994412,233.90499780108803 136.54374999995343,236.36960307759 141.6737500000745,236.85371960210614 142.01124999998137,246.66791414652835 144.8125,247.94417604699265 146.70250000001397,246.44786844492774 148.5587499999674,246.4038592852594 148.35624999995343,250.40866648749216 151.6975000000093,253.88532408283208 151.83250000001863,256.0857195536955 155.74750000005588,256.48178903211374 156.82750000001397,255.8216729456908 156.2537500000326,240.8586537426163 154.16125000000466,240.06647319122567 154.1950000000652,237.60189815540798 153.18249999999534,235.97350716067012 151.63000000000466,234.3891182858497 149.46999999997206,234.9172488366312 146.33124999993015,233.33285440714099 142.78749999997672,234.08104170378647 141.7074999999022,231.748451645748 138.63624999998137,231.57240638017538 137.55624999990687,229.8999712266086 137.28625000012107,226.24698847485706 135.9024999999674,226.55507306774962 135.19374999997672,227.83142016801867 133.40500000002794,228.40357400928042 133.0,229.23979689989937 134.14750000007916,232.62867643072968 136.40874999994412,234.1250526632648 136.57750000001397,236.45762432157062 141.64000000001397,236.63366673281416 142.0450000000419,246.75593238216243 144.77874999993946,247.9881849816884 146.972500000149,246.31584094685968 148.45750000001863,246.22782258261577 148.3224999998929,250.4526750621444 151.6637500000652,253.92933214979712 151.76500000013039,256.04171180180856 155.34250000002794,256.61381207578233 156.625,256.17373503843555 156.8612500000745,255.513618277153 156.7600000000093,244.99556278373348 156.1524999999674,240.59459379015607 154.39750000007916,240.28652355322265 153.89124999998603,236.80970904108835 151.83250000001863,234.5211510102963 149.50374999991618,235.00527050497476 146.33124999993015,233.37686547604972 142.72000000008848,234.1690636165149 142.0450000000419,231.92449680849677 139.00749999994878,231.4843837087683 137.75874999992084,230.3400866407028 137.3200000000652,226.33501267645624 133.16874999995343,228.79967987834243 134.14750000007916,232.5406540679105 136.4762500000652,234.1690636165149 136.6112499999581,236.45762432157062 141.5725000000093,236.76569847358041 142.0450000000419,246.84395059215603 144.77874999993946,247.94417604699265 146.93875000008848,246.31584094685968 148.45750000001863,246.22782258261577 148.82874999998603,248.07620283166762 148.3224999998929,250.3206493187463 151.63000000000466,253.92933214979712 151.73124999995343,255.99770404348965 156.18625000002794,256.3497659304703 156.99625000008382,255.68964955490083 156.89500000001863,250.23263212450547 160.20250000001397,249.4404762183549 160.9787500000093,248.2522384543845 161.24875000002794,223.914337762777 185.21125000005122,223.47421296162065" stroke="#4dd2ff" stroke-linecap="round" stroke-linejoin="round" stroke-width="0.5"><title>2023-01-30 10.2km</title></polyline></svg>