<?xml version="1.0" encoding="utf-8" ?>
<svg baseProfile="full" height="200mm" version="1.1" viewBox="0,0,200,200" width="200mm" xmlns="http://www.w3.org/2000/svg" xmlns:ev="http://www.w3.org/2001/xml-events" xmlns:xlink="http://www.w3.org/1999/xlink"><defs /><rect fill="#1a1a1a" height="200" width="200" x="0" y="0" /><text alignment-baseline="middle" fill="#e1ed5e" style="dominant-baseline: central; font-size:9.0px; font-family:Arial;" text-anchor="middle" x="100.0" y="100.0">2023</text><line stroke="#e1ed5e" stroke-width="0.3" x1="100.0" x2="100.0" y1="15.0" y2="10.0" /><path d="M 100.0 14.0 a86.0,86.0 0 0,1 42.46469731375804,11.215312516191453" fill="none" id="id1" stroke="none" /><text fill="#e1ed5e" style="font-size:6.75px; font-family:Arial;" text-anchor="middle"><textPath startOffset="22.20632615414155" xlink:href="#id1">January</textPath></text><path d="M 106.40334571778207 80.00007090966166 l 6.213192624679777 -19.406013261650017 a41.37638616886497,41.37638616886497 0 0,0 0.6764392440620283,0.2230113835269274 l -6.5463146909842225 19.296188153863856" fill="#ffe715" stroke="none" /><path d="M 108.09893153111575 80.62456947434976 l 7.904860871111001 -18.911146740123407 a41.49678746579819,41.49678746579819 0 0,0 0.6566693559241906,0.28115154803150055 l -8.229213984825508 18.772275664129115" fill="#ffe815" stroke="none" /><path d="M 109.08828744355905 81.06846463323043 l 13.911428223690763 -28.978473343261907 a53.14466911525208,53.14466911525208 0 0,0 0.8212843872915521,0.4030006820450313 l -14.408183877992746 28.734717501082045" fill="#87ff25" stroke="none" /><path d="M 110.05341064243156 81.56283822128135 l 19.222892912435142 -35.25326867537866 a61.153612094323265,61.153612094323265 0 0,0 0.9198549012776083,0.5118982566552185 l -19.826871902784784 34.91715502116326" fill="#31ff2f" stroke="none" /><line stroke="#e1ed5e" stroke-width="0.3" x1="143.23703022742887" x2="145.7803849466894" y1="26.81831364943548" y2="22.513508569990506" /><path d="M 143.74570117128098 25.957352633546492 a86.0,86.0 0 0,1 28.547481713284135,27.462654790039103" fill="none" id="id2" stroke="none" /><text fill="#e1ed5e" style="font-size:6.75px; font-family:Arial;" text-anchor="middle"><textPath startOffset="19.985693538727396" xlink:href="#id2">February</textPath></text><path d="M 110.68208982089419 81.91981866633111 l 12.96107526629564 -21.937522996257623 a46.48027447399091,46.48027447399091 0 0,0 0.6853360071316015,0.4129072760198673 l -13.336773339644878 21.711169110779142" fill="#d6ff1c" stroke="none" /><path d="M 111.2981086023043 82.29822771554956 l 26.34371394010837 -41.27508786730826 a69.96554035862647,69.96554035862647 0 0,0 1.009612656546884,0.6566801560212019 l -27.050293622439533 40.815508787127534" fill="#3bff98" stroke="none" /><path d="M 113.06298171725822 83.55741782278167 l 12.795659847157458 -16.106099901422716 a41.570254372728755,41.570254372728755 0 0,0 0.5564408202373169,0.4499364454333523 l -13.071004065959267 15.883457358725234" fill="#ffe915" stroke="none" /><path d="M 113.6212207817346 84.01681056812373 l 2.691927367550911 -3.158717250227192 a25.150176817805768,25.150176817805768 0 0,0 0.3270794882891974,0.28364010914959337 l -2.745900654486873 3.1119121476579275" fill="#ff0000" stroke="none" /><path d="M 114.42810811169701 84.74124197986012 l 14.882446440833736 -15.739253353963418 a42.661285931461535,42.661285931461535 0 0,0 0.5292371349613111,0.5091257045187488 l -15.151166819407464 15.480744562682368" fill="#fff817" stroke="none" /><path d="M 115.19652480421416 85.50635884689758 l 31.25988872023763 -29.814027577633865 a64.19788054061857,64.19788054061857 0 0,0 0.7558006633274968,0.8062354509604911 l -31.768456705535588 29.27152270979532" fill="#33ff53" stroke="none" /><path d="M 116.38621287248628 86.86637796730983 l 31.171726548306804 -24.984276585302126 a60.948599631192224,60.948599631192224 0 0,0 0.6490907429061128,0.8242793272937919 l -31.59717137180688 24.444004864055294" fill="#33ff2f" stroke="none" /><path d="M 117.04232023915458 87.72973835380427 l 21.13199382346199 -15.2147764905827 a47.03940449805302,47.03940449805302 0 0,0 0.46745381384210144,0.661180268952319 l -21.390760257107974 14.848769721298588" fill="#cfff1d" stroke="none" /><path d="M 117.45458315368197 88.32363383020206 l 31.786563523814312 -21.263845244296526 a59.243126640311125,59.243126640311125 0 0,0 0.5597159836835371,0.8524858430564312 l -32.14787614285577 20.71354133726242" fill="#45ff2d" stroke="none" /><line stroke="#e1ed5e" stroke-width="0.3" x1="172.23445277983987" x2="176.4835382374775" y1="55.19839476539836" y2="52.563006222186495" /><path d="M 173.08426987136738 54.67131705675599 a86.0,86.0 0 0,1 12.851231095245387,41.99856678651699" fill="none" id="id3" stroke="none" /><text fill="#e1ed5e" style="font-size:6.75px; font-family:Arial;" text-anchor="middle"><textPath startOffset="22.20632615414155" xlink:href="#id3">March</textPath></text><path d="M 117.84615892207809 88.93136811851018 l 33.706777608868784 -20.905782297066317 a60.66356754284805,60.66356754284805 0 0,0 0.5427488552808448,0.8921364118790658 l -34.06164226243585 20.32247811198017" fill="#36ff2e" stroke="none" /><path d="M 118.21658344932153 89.55222093294921 l 40.99301596066621 -23.510773863859683 a68.25657462437351,68.25657462437351 0 0,0 0.5757681250600281,1.0242272485479236 l -41.39164172701867 22.801663105376964" fill="#38ff84" stroke="none" /><path d="M 118.73160827565052 90.50648371742162 l 34.98233688268924 -17.72967808803483 a60.21868660319086,60.21868660319086 0 0,0 0.46064423980473124,0.9286306785538144 l -35.28234113544738 17.124887820982067" fill="#3bff2e" stroke="none" /><path d="M 119.196687751892 91.48605970444005 l 26.40495494734304 -11.710885379508854 a49.88540257886689,49.88540257886689 0 0,0 0.3413807520867173,0.7879538432405637 l -26.602626409272435 11.254632391681687" fill="#adff20" stroke="none" /><path d="M 119.47837535516314 92.15188598940014 l 35.62937393784512 -14.355580673024853 a59.41269300195603,59.41269300195603 0 0,0 0.37403529684556885,0.9518790324918749 l -35.87120278457239 13.740152635637195" fill="#43ff2d" stroke="none" /><path d="M 119.97218684219823 93.5106431181261 l 59.91656052659467 -19.46807064562169 a84.0,84.0 0 0,0 0.4349780649271753,1.3789993342943234 l -60.24279407529006 18.433821144900946" fill="#4dd2ff" stroke="none" /><path d="M 120.18372546131832 94.20196356495316 l 35.808004147058675 -10.286312757713963 a58.256159103499655,58.256159103499655 0 0,0 0.2685698522480746,0.9661886534274312 l -35.97976076987311 9.66841280086758" fill="#4fff2b" stroke="none" /><path d="M 120.87857604477298 97.74499172005257 l 24.977629921048436 -2.697730063805187 a46.12289282646432,46.12289282646432 0 0,0 0.07845915731484865,0.7900730068750524 l -25.020366204045516 2.2673815262256998" fill="#dbff1b" stroke="none" /><path d="M 120.94382443527127 98.46500227214037 l 38.48276185835914 -2.8204472491119574 a59.5859803935601,59.5859803935601 0 0,0 0.06616713558096697,1.0235763011701506 l -38.525609584944526 2.1576118836887717" fill="#41ff2d" stroke="none" /><line stroke="#e1ed5e" stroke-width="0.3" x1="184.98032266829074" x2="189.97916517819016" y1="98.17113171792111" y2="98.06355123074" /><path d="M 185.9800911702706 98.14961562048488 a86.0,86.0 0 0,1 -9.607161424134198,41.387399972396054" fill="none" id="id4" stroke="none" /><text fill="#e1ed5e" style="font-size:6.75px; font-family:Arial;" text-anchor="middle"><textPath startOffset="21.466115282336823" xlink:href="#id4">April</textPath></text><line stroke="#e1ed5e" stroke-width="0.3" x1="174.80103733775053" x2="179.2010983576182" y1="140.37084112569926" y2="142.7455964860345" /><path d="M 175.68104954172406 140.8457921977663 a86.0,86.0 0 0,1 -30.038265399797805,32.042727171017184" fill="none" id="id5" stroke="none" /><text fill="#e1ed5e" style="font-size:6.75px; font-family:Arial;" text-anchor="middle"><textPath startOffset="22.206326154141568" xlink:href="#id5">May</textPath></text><line stroke="#e1ed5e" stroke-width="0.3" x1="143.8653032363475" x2="146.44561519142675" y1="172.8068346515853" y2="177.08958963109032" /><path d="M 144.38136562736335 173.6633856474863 a86.0,86.0 0 0,1 -40.68145358897372,12.25698825130547" fill="none" id="id6" stroke="none" /><text fill="#e1ed5e" style="font-size:6.75px; font-family:Arial;" text-anchor="middle"><textPath startOffset="21.466115282336833" xlink:href="#id6">June</textPath></text><line stroke="#e1ed5e" stroke-width="0.3" x1="102.19456741930631" x2="102.32365962044197" y1="184.97166512339345" y2="189.96999836594603" /><path d="M 102.22038585953345 185.97133177190398 a86.0,86.0 0 0,1 -42.740103519485714,-10.115201625700543" fill="none" id="id7" stroke="none" /><text fill="#e1ed5e" style="font-size:6.75px; font-family:Arial;" text-anchor="middle"><textPath startOffset="22.20632615414155" xlink:href="#id7">July</textPath></text><line stroke="#e1ed5e" stroke-width="0.3" x1="58.666819895761336" x2="56.23545636021788" y1="174.27360380694188" y2="178.64263932499728" /><path d="M 58.180547188652646 175.14741091055294 a86.0,86.0 0 0,1 -31.652253787137756,-30.449443065178592" fill="none" id="id8" stroke="none" /><text fill="#e1ed5e" style="font-size:6.75px; font-family:Arial;" text-anchor="middle"><textPath startOffset="22.20632615414155" xlink:href="#id8">August</textPath></text><line stroke="#e1ed5e" stroke-width="0.3" x1="26.63291911575756" x2="22.317208475507996" y1="142.92168965132927" y2="145.44649492493687" /><path d="M 25.769776987707644 143.4266507060508 a86.0,86.0 0 0,1 -11.730757126820373,-40.83630448921669" fill="none" id="id9" stroke="none" /><text fill="#e1ed5e" style="font-size:6.75px; font-family:Arial;" text-anchor="middle"><textPath startOffset="21.46611528233685" xlink:href="#id9">September</textPath></text><line stroke="#e1ed5e" stroke-width="0.3" x1="15.007084014347285" x2="10.007500721073583" y1="101.09737516637583" y2="101.16192664675087" /><path d="M 14.007167355692545 101.11028546245083 a86.0,86.0 0 0,1 10.666146001902534,-42.60595125391555" fill="none" id="id10" stroke="none" /><text fill="#e1ed5e" style="font-size:6.75px; font-family:Arial;" text-anchor="middle"><textPath startOffset="22.20632615414155" xlink:href="#id10">October</textPath></text><line stroke="#e1ed5e" stroke-width="0.3" x1="26.266209847984243" x2="21.928928074336255" y1="57.711370442889674" y2="55.22380399835377" /><path d="M 25.398753493254645 57.213857153982495 a86.0,86.0 0 0,1 29.58750427330803,-30.492523968695096" fill="none" id="id11" stroke="none" /><text fill="#e1ed5e" style="font-size:6.75px; font-family:Arial;" text-anchor="middle"><textPath startOffset="21.46611528233685" xlink:href="#id11">November</textPath></text><line stroke="#e1ed5e" stroke-width="0.3" x1="56.762969772571076" x2="54.21961505331055" y1="26.818313649435495" y2="22.513508569990535" /><path d="M 56.25429882871897 25.957352633546506 a86.0,86.0 0 0,1 42.265352541879196,-11.944610805530505" fill="none" id="id12" stroke="none" /><text fill="#e1ed5e" style="font-size:6.75px; font-family:Arial;" text-anchor="middle"><textPath startOffset="22.20632615414155" xlink:href="#id12">December</textPath></text></svg>